<?xml version="1.0" encoding="UTF-8"?>
<svg width="132mm" height="97.6mm" version="1.1" viewBox="0 0 132 97.6" xmlns="http://www.w3.org/2000/svg">
    <defs>
     <marker id="a" overflow="visible" markerHeight="6.7071061" markerWidth="4.0606599" orient="auto-start-reverse" preserveAspectRatio="xMidYMid" viewBox="0 0 4.0606602 6.7071068">
      <path transform="rotate(180 .125 0)" d="m3-3-3 3 3 3" fill="none" stroke="context-stroke"/>
     </marker>
    </defs>
    <g transform="translate(-31.8 -60.9)" style="paint-order:markers fill stroke">
     <g transform="translate(0 -26.9)" fill="none" stroke-linecap="butt">
      <g stroke-width="2">
       <path d="m33.8 144h128" stroke="#888"/>
       <path d="m95.3 142h11.8" stroke="#fff"/>
       <path d="m83.8 142h11.8" stroke="#585858"/>
       <path d="m33.8 142h50" stroke="#aaa"/>
       <path d="m107 142h54.8" stroke="#aaa"/>
      </g>
     </g>
     <g transform="translate(.141)">
      <g stroke="#c7bf49" stroke-width="2" stroke-linecap="round">
       <circle cx="51.6" cy="80.8" r="8.74" fill="none"/>
       <path d="m51.6 91.5v8.31"/>
       <path d="m57.1 90 4.23 7.15"/>
       <path d="m60.9 86.1 7.22 4.12"/>
       <path d="m62.3 80.8h8.31"/>
       <path d="m60.8 75.4 7.15-4.23"/>
       <path d="m56.9 71.6 4.12-7.22"/>
       <path d="m51.6 70.2v-8.31"/>
       <path d="m46.2 71.7-4.23-7.15"/>
       <path d="m42.4 75.6-7.22-4.12"/>
       <path d="m41 80.8h-8.31"/>
       <path d="m42.5 86.3-7.15 4.23"/>
       <path d="m46.4 90.1-4.12 7.22"/>
      </g>
     </g>
     <path d="m107 108 13.8-13.7" fill="none" marker-start="url(#a)" stroke="#882a2a" stroke-dasharray="1, 2" stroke-linecap="round"/>
     <path d="m60.7 88.3 20.1 20.2" fill="#c7bf49" marker-end="url(#a)" stroke="#c7bf49" stroke-dasharray="1, 2" stroke-linecap="round"/>
     <g transform="translate(0 22.9)" fill="none" stroke-linecap="butt">
      <g stroke-width="2">
       <path d="m33.8 114h50l11.4 19.8 11.4-19.8h55.2" stroke="#888"/>
       <path d="m33.8 112h50" stroke="#aaa"/>
       <path d="m107 112h54.8" stroke="#aaa"/>
       <path d="m95.3 131 11.4-19" stroke="#fff" stroke-linecap="round"/>
       <path d="m83.8 112 11.4 19.3" stroke="#585858" stroke-linecap="round"/>
      </g>
     </g>
     <g>
      <g transform="matrix(-.684 0 0 .684 198 55.4)" stroke="#882a2a" stroke-width="2.19">
       <g transform="rotate(43.8 76.1 62.3)" stroke-width="2.19">
        <g transform="rotate(-6.3 94.3 32)" fill="none" stroke="#882a2a" stroke-linecap="round" stroke-width="2.19">
         <rect x="57.6" y="25.2" width="29.3" height="18.1"/>
         <path d="m87.2 38.4 15.5 4.87v-18.1l-15.5 4.28"/>
         <circle cx="65.2" cy="18.9" r="10.4"/>
         <circle cx="77.6" cy="18.9" r="10.4"/>
        </g>
       </g>
      </g>
      <text fill="#d2d2d2" font-family="'Fira Sans',sans-serif" font-size="6.09px" xml:space="preserve"><tspan x="33.5" y="112">Normal mapping</tspan></text>
      <text fill="#d2d2d2" font-family="'Fira Sans',sans-serif" font-size="6.09px" xml:space="preserve"><tspan x="33.5" y="132">Normal &amp; parallax mapping</tspan></text>
     </g>
    </g>
   </svg>
