<?xml version="1.0" encoding="UTF-8" standalone="no"?>
<svg
   id="Logo"
   width="242.00092"
   height="197.2254"
   viewBox="0 0 242.00092 197.2254"
   version="1.1"
   sodipodi:docname="webgpu.svg"
   inkscape:version="1.2.2 (b0a8486541, 2022-12-01)"
   xmlns:inkscape="http://www.inkscape.org/namespaces/inkscape"
   xmlns:sodipodi="http://sodipodi.sourceforge.net/DTD/sodipodi-0.dtd"
   xmlns="http://www.w3.org/2000/svg"
   xmlns:svg="http://www.w3.org/2000/svg">
  <sodipodi:namedview
     id="namedview13"
     pagecolor="#ffffff"
     bordercolor="#666666"
     borderopacity="1.0"
     inkscape:showpageshadow="2"
     inkscape:pageopacity="0.0"
     inkscape:pagecheckerboard="0"
     inkscape:deskcolor="#d1d1d1"
     showgrid="false"
     inkscape:zoom="1.9390194"
     inkscape:cx="306.3404"
     inkscape:cy="246.25849"
     inkscape:window-width="3440"
     inkscape:window-height="1440"
     inkscape:window-x="0"
     inkscape:window-y="0"
     inkscape:window-maximized="1"
     inkscape:current-layer="Logo" />
  <defs
     id="defs4">
    <style
       id="style2">
     .cls-1, .cls-2, .cls-3, .cls-4, .cls-5 {
        fill-rule: evenodd;
        stroke-linejoin: round;
      }

      .cls-6 {
        fill-rule: evenodd;
      }

      .cls-1 {
        fill: #005a9c;
        stroke: #005a9c;
      }

      .cls-2 {
        fill: #0066b0;
        stroke: #0066b0;
      }

      .cls-3 {
        fill: #0076cc;
        stroke: #0076cc;
      }

      .cls-4 {
        fill: #0086e8;
        stroke: #0086e8;
      }

      .cls-5 {
        fill: #0093ff;
        stroke: #0093ff;
      }

      @media (prefers-color-scheme: dark) {
        .cls-6 {
          fill: #eeeeee;
        }
      }
    </style>
  </defs>
  <path
     id="Triangle_4"
     data-name="Triangle 4"
     class="cls-4"
     d="M 204.98753,71.120694 184.50579,35.645424 H 225.5278 Z"
     style="stroke-width:0.34029" />
  <path
     id="Triangle_5"
     data-name="Triangle 5"
     class="cls-5"
     d="M 204.98753,0.17048554 184.50579,35.645764 h 41.02201 z"
     style="stroke-width:0.34029" />
  <path
     id="Triangle_3"
     data-name="Triangle 3"
     class="cls-3"
     d="m 164.02677,142.07125 -40.96416,-70.950556 81.92832,-6.18e-4 z"
     style="stroke-width:0.34029" />
  <path
     id="Triangle_2"
     data-name="Triangle 2"
     class="cls-2"
     d="m 164.02677,0.170145 -40.96416,70.950549 81.92832,-6.18e-4 z"
     style="stroke-width:0.34029" />
  <path
     id="Triangle_1"
     data-name="Triangle 1"
     class="cls-1"
     d="M 82.09845,142.07125 0.17013255,0.170145 H 164.02337 Z"
     style="stroke-width:0.34029" />
  <path
     id="WebGPU"
     class="cls-6"
     d="M 49.133498,156.86333 40.388036,190.53269 31.24205,156.86333 H 25.410493 L 15.807158,190.64702 7.1181823,156.86333 H 1.57349 l 11.146893,39.90007 5.773368,-0.0572 9.603335,-32.06862 9.260664,32.06862 h 5.830536 l 11.547077,-39.8429 z m 39.899734,22.98016 a 15.779607,15.779607 0 0 0 -1.857647,-7.68853 13.465972,13.465972 0 0 0 -5.287776,-5.3446 15.725841,15.725841 0 0 0 -7.888272,-1.9434 16.250909,16.250909 0 0 0 -8.088703,1.97369 13.643263,13.643263 0 0 0 -5.459274,5.63079 q -1.94374,3.65879 -1.943401,8.51712 3.4e-4,4.85833 2.000569,8.54606 a 14.156081,14.156081 0 0 0 5.516444,5.68761 15.825546,15.825546 0 0 0 7.974365,2.00091 q 5.601525,0 9.374661,-2.82952 a 13.469035,13.469035 0 0 0 5.030517,-7.34551 H 82.80251 a 8.3231635,8.3231635 0 0 1 -3.172523,4.20157 q -2.258509,1.57248 -5.63045,1.5718 a 10.087229,10.087229 0 0 1 -7.002835,-2.60084 q -2.887025,-2.60084 -3.17253,-7.23117 h 25.037894 a 30.694196,30.694196 0 0 0 0.17014,-3.14394 v 0 z m -5.373189,-1.08621 H 63.881341 q 0.399502,-4.45781 3.17253,-6.97392 a 9.6417887,9.6417887 0 0 1 6.716991,-2.51508 11.14349,11.14349 0 0 1 5.002272,1.11445 8.5552411,8.5552411 0 0 1 3.573052,3.25828 9.5999331,9.5999331 0 0 1 1.314876,5.11627 v 0 z m 17.434437,-7.5456 v -16.80627 h -5.201675 v 42.30082 h 5.201675 v -5.77336 a 12.04628,12.04628 0 0 0 4.60175,4.51566 13.932851,13.932851 0 0 0 7.11684,1.77222 14.250682,14.250682 0 0 0 12.91912,-7.83144 17.984349,17.984349 0 0 0 1.9434,-8.4603 q 0,-4.80184 -1.9434,-8.43138 a 14.175137,14.175137 0 0 0 -5.31704,-5.63078 14.619897,14.619897 0 0 0 -7.60276,-2.00057 13.8733,13.8733 0 0 0 -7.03109,1.7719 12.302519,12.302519 0 0 0 -4.6875,4.57316 v 0 z m 21.26509,9.71767 a 13.037207,13.037207 0 0 1 -1.42922,6.25965 10.051498,10.051498 0 0 1 -3.85855,4.05864 10.508508,10.508508 0 0 1 -5.34494,1.40029 10.397234,10.397234 0 0 1 -5.28743,-1.40029 10.236276,10.236276 0 0 1 -3.88714,-4.05864 13.801158,13.801158 0 0 1 0,-12.34744 10.242742,10.242742 0 0 1 3.88714,-4.05864 10.404039,10.404039 0 0 1 5.28743,-1.4003 10.682397,10.682397 0 0 1 5.34494,1.37171 9.9024514,9.9024514 0 0 1 3.85855,4.00147 12.743536,12.743536 0 0 1 1.42922,6.17355 z m 48.58871,-12.51962 a 17.992175,17.992175 0 0 0 -7.11683,-8.86048 q -4.8876,-3.14293 -11.23231,-3.14395 a 20.111164,20.111164 0 0 0 -10.1182,2.60084 19.044693,19.044693 0 0 0 -7.23117,7.25976 21.970851,21.970851 0 0 0 0,20.95065 19.092674,19.092674 0 0 0 7.23117,7.23118 20.100275,20.100275 0 0 0 10.1182,2.60084 19.381581,19.381581 0 0 0 9.54617,-2.37216 19.069535,19.069535 0 0 0 6.91674,-6.45974 19.786526,19.786526 0 0 0 3.08677,-9.00306 v -4.0008 h -21.43659 v 4.23015 h 15.89156 q -0.62988,5.94726 -4.40098,9.43183 -3.77109,3.48458 -9.60333,3.48696 a 14.849253,14.849253 0 0 1 -7.51736,-1.91482 13.566358,13.566358 0 0 1 -5.25884,-5.45927 q -1.9155,-3.54345 -1.91482,-8.23129 6.2e-4,-4.68784 1.91482,-8.26021 a 13.535051,13.535051 0 0 1 5.25884,-5.48786 14.856059,14.856059 0 0 1 7.51736,-1.91481 13.788228,13.788228 0 0 1 7.31624,1.91481 12.399843,12.399843 0 0 1 4.8015,5.40143 z m 34.69839,0.11434 q 0,-5.14486 -3.51554,-8.40313 -3.51554,-3.25829 -10.26077,-3.25829 h -12.86298 v 39.84358 h 5.20201 v -16.63441 h 7.65995 q 6.97357,0 10.37511,-3.28686 3.40154,-3.28687 3.4029,-8.26021 v 0 z m -13.77631,7.25975 h -7.65994 v -14.63249 h 7.65994 q 8.45894,0 8.45996,7.3741 0,3.48729 -2.05774,5.37318 -2.05774,1.88589 -6.40222,1.88657 v 0 z m 20.12102,-18.92015 v 25.15189 q 0,4.97335 1.97369,8.37454 a 12.380786,12.380786 0 0 0 5.37319,5.05877 18.392697,18.392697 0 0 0 15.2627,0 12.56114,12.56114 0 0 0 5.40211,-5.05877 q 1.99785,-3.40052 1.99785,-8.37488 v -25.15189 h -5.20066 v 25.20906 q 0,5.31636 -2.60118,7.88861 -2.60118,2.57226 -7.174,2.57226 -4.63,0 -7.23118,-2.57226 -2.60117,-2.57225 -2.60015,-7.88861 v -25.20906 h -5.20271 z"
     style="stroke-width:0.34029" />
</svg>
