<?xml version="1.0" encoding="UTF-8" standalone="no"?>
<svg
   width="160mm"
   height="90mm"
   viewBox="0 0 16000 9000"
   version="1.1"
   stroke-width="28.222"
   stroke-linejoin="round"
   xml:space="preserve"
   id="svg150"
   sodipodi:docname="label_bench.svg"
   inkscape:version="1.2 (dc2aedaf03, 2022-05-15)"
   xmlns:inkscape="http://www.inkscape.org/namespaces/inkscape"
   xmlns:sodipodi="http://sodipodi.sourceforge.net/DTD/sodipodi-0.dtd"
   xmlns="http://www.w3.org/2000/svg"
   xmlns:svg="http://www.w3.org/2000/svg"><defs
   id="defs154" /><sodipodi:namedview
   id="namedview152"
   pagecolor="#ffffff"
   bordercolor="#666666"
   borderopacity="1.0"
   inkscape:showpageshadow="2"
   inkscape:pageopacity="0.0"
   inkscape:pagecheckerboard="0"
   inkscape:deskcolor="#d1d1d1"
   inkscape:document-units="mm"
   showgrid="false"
   inkscape:zoom="2.1861198"
   inkscape:cx="228.02959"
   inkscape:cy="170.39322"
   inkscape:window-width="3440"
   inkscape:window-height="1440"
   inkscape:window-x="0"
   inkscape:window-y="0"
   inkscape:window-maximized="1"
   inkscape:current-layer="svg150" />
 
 
 <path
   fill="rgb(0,69,134)"
   stroke="none"
   d="M 2863,8158 L 6521,8158 6521,1385 2863,1385 2863,8158 Z"
   id="path60"
   style="fill:#474747;fill-opacity:1" /><path
   fill="rgb(0,69,134)"
   stroke="none"
   d="M 10178,8158 L 13836,8158 13836,3444 10178,3444 10178,8158 Z"
   id="path58"
   style="fill:#4a96dc;fill-opacity:1" /><path
   fill="none"
   stroke="rgb(179,179,179)"
   stroke-linejoin="round"
   d="M 1034,8308 L 1034,8158"
   id="path6"
   style="fill:none;fill-opacity:1;stroke:#ececec;stroke-opacity:1" />
 <path
   fill="none"
   stroke="rgb(179,179,179)"
   stroke-linejoin="round"
   d="M 1034,8308 L 1034,8158"
   id="path8"
   style="fill:none;fill-opacity:1;stroke:#ececec;stroke-opacity:1" />
 <path
   fill="none"
   stroke="rgb(179,179,179)"
   stroke-linejoin="round"
   d="M 8349,8308 L 8349,8158"
   id="path10"
   style="stroke:#ececec;stroke-opacity:1" />
 <path
   fill="none"
   stroke="rgb(179,179,179)"
   stroke-linejoin="round"
   d="M 8349,8308 L 8349,8158"
   id="path12"
   style="stroke:#ececec;stroke-opacity:1" />
 <path
   fill="none"
   stroke="rgb(179,179,179)"
   stroke-linejoin="round"
   d="M 15666,8308 L 15666,8158"
   id="path14"
   style="stroke:#ececec;stroke-opacity:1" />
 <path
   fill="none"
   stroke="rgb(179,179,179)"
   stroke-linejoin="round"
   d="M 15666,8308 L 15666,8158"
   id="path16"
   style="stroke:#ececec;stroke-opacity:1" />
 <path
   fill="none"
   stroke="rgb(179,179,179)"
   stroke-linejoin="round"
   d="M 1034,8158 L 15666,8158"
   id="path18"
   style="stroke:#ececec;stroke-opacity:1" />
 <path
   fill="none"
   stroke="rgb(179,179,179)"
   stroke-linejoin="round"
   d="M 884,8158 L 1034,8158"
   id="path20"
   style="fill:none;fill-opacity:1;stroke:#ececec;stroke-opacity:1" />
 <path
   fill="none"
   stroke="rgb(179,179,179)"
   stroke-linejoin="round"
   d="M 884,8158 L 1034,8158"
   id="path22"
   style="fill:none;fill-opacity:1;stroke:#ececec;stroke-opacity:1" />
 <path
   fill="none"
   stroke="rgb(179,179,179)"
   stroke-linejoin="round"
   d="M 884,7183 L 1034,7183"
   id="path24"
   style="fill:none;fill-opacity:1;stroke:#ececec;stroke-opacity:1" />
 <path
   fill="none"
   stroke="rgb(179,179,179)"
   stroke-linejoin="round"
   d="M 884,7183 L 1034,7183"
   id="path26"
   style="fill:none;fill-opacity:1;stroke:#ececec;stroke-opacity:1" />
 <path
   fill="none"
   stroke="rgb(179,179,179)"
   stroke-linejoin="round"
   d="M 884,6209 L 1034,6209"
   id="path28"
   style="fill:none;fill-opacity:1;stroke:#ececec;stroke-opacity:1" />
 <path
   fill="none"
   stroke="rgb(179,179,179)"
   stroke-linejoin="round"
   d="M 884,6209 L 1034,6209"
   id="path30"
   style="fill:none;fill-opacity:1;stroke:#ececec;stroke-opacity:1" />
 <path
   fill="none"
   stroke="rgb(179,179,179)"
   stroke-linejoin="round"
   d="M 884,5235 L 1034,5235"
   id="path32"
   style="fill:none;fill-opacity:1;stroke:#ececec;stroke-opacity:1" />
 <path
   fill="none"
   stroke="rgb(179,179,179)"
   stroke-linejoin="round"
   d="M 884,5235 L 1034,5235"
   id="path34"
   style="fill:none;fill-opacity:1;stroke:#ececec;stroke-opacity:1" />
 <path
   fill="none"
   stroke="rgb(179,179,179)"
   stroke-linejoin="round"
   d="M 884,4262 L 1034,4262"
   id="path36"
   style="fill:none;fill-opacity:1;stroke:#ececec;stroke-opacity:1" />
 <path
   fill="none"
   stroke="rgb(179,179,179)"
   stroke-linejoin="round"
   d="M 884,4262 L 1034,4262"
   id="path38"
   style="fill:none;fill-opacity:1;stroke:#ececec;stroke-opacity:1" />
 <path
   fill="none"
   stroke="rgb(179,179,179)"
   stroke-linejoin="round"
   d="M 884,3287 L 1034,3287"
   id="path40"
   style="fill:none;fill-opacity:1;stroke:#ececec;stroke-opacity:1" />
 <path
   fill="none"
   stroke="rgb(179,179,179)"
   stroke-linejoin="round"
   d="M 884,3287 L 1034,3287"
   id="path42"
   style="fill:none;fill-opacity:1;stroke:#ececec;stroke-opacity:1" />
 <path
   fill="none"
   stroke="rgb(179,179,179)"
   stroke-linejoin="round"
   d="M 884,2313 L 1034,2313"
   id="path44"
   style="fill:none;fill-opacity:1;stroke:#ececec;stroke-opacity:1" />
 <path
   fill="none"
   stroke="rgb(179,179,179)"
   stroke-linejoin="round"
   d="M 884,2313 L 1034,2313"
   id="path46"
   style="fill:none;fill-opacity:1;stroke:#ececec;stroke-opacity:1" />
 <path
   fill="none"
   stroke="rgb(179,179,179)"
   stroke-linejoin="round"
   d="M 884,1339 L 1034,1339"
   id="path48"
   style="fill:none;fill-opacity:1;stroke:#ececec;stroke-opacity:1" />
 <path
   fill="none"
   stroke="rgb(179,179,179)"
   stroke-linejoin="round"
   d="M 884,1339 L 1034,1339"
   id="path50"
   style="fill:none;fill-opacity:1;stroke:#ececec;stroke-opacity:1" />
 <path
   fill="none"
   stroke="rgb(179,179,179)"
   stroke-linejoin="round"
   d="M 884,365 L 1034,365"
   id="path52"
   style="fill:none;fill-opacity:1;stroke:#ececec;stroke-opacity:1" />
 <path
   fill="none"
   stroke="rgb(179,179,179)"
   stroke-linejoin="round"
   d="M 884,365 L 1034,365"
   id="path54"
   style="fill:none;fill-opacity:1;stroke:#ececec;stroke-opacity:1" />
 <path
   fill="none"
   stroke="rgb(179,179,179)"
   stroke-linejoin="round"
   d="M 1034,8158 L 1034,365"
   id="path56"
   style="fill:none;fill-opacity:1;stroke:#ececec;stroke-opacity:1" />
 
 
 <g
   aria-label="Bevy 0.7"
   id="text68"
   class="SVGTextShape"
   style="fill:#ececec;fill-opacity:1"><path
     d="m 4220.833,8657.5718 q 0,32.4043 -23.6138,50.5024 Q 4173.6055,8726 4131.5488,8726 h -98.5918 v -242.8599 h 88.25 q 85.4922,0 85.4922,58.9483 0,21.5454 -12.0654,36.1963 -12.0654,14.6508 -34.1279,19.6494 28.957,3.4472 44.642,19.477 15.6851,15.8575 15.6851,40.1607 z m -47.2275,-111.5191 q 0,-19.6494 -13.4444,-28.0952 -13.4443,-8.4458 -38.9541,-8.4458 h -55.3286 v 76.874 h 55.3286 q 26.3716,0 39.2989,-9.8247 13.0996,-9.997 13.0996,-30.5083 z m 13.9614,108.9336 q 0,-42.9184 -60.3272,-42.9184 h -61.3613 v 87.5605 h 63.9468 q 30.1636,0 43.9526,-11.2036 13.7891,-11.2036 13.7891,-33.4385 z"
     style="white-space:pre;fill:#ececec;fill-opacity:1"
     id="path9137" /><path
     d="m 4287.0205,8639.3013 q 0,32.0595 13.272,49.4682 13.272,17.4087 38.7817,17.4087 20.1665,0 32.232,-8.1011 12.2377,-8.101 16.5468,-20.5112 l 27.2334,7.7564 q -16.7192,44.125 -76.0122,44.125 -41.3672,0 -63.0849,-24.648 -21.5455,-24.6479 -21.5455,-73.2544 0,-46.1933 21.5455,-70.8413 21.7177,-24.6479 61.8784,-24.6479 82.2173,0 82.2173,99.1089 v 4.1367 z m 101.0049,-23.7862 q -2.5855,-29.4741 -14.9956,-42.9184 -12.4102,-13.6167 -35.6792,-13.6167 -22.5796,0 -35.8516,15.1679 -13.0996,14.9957 -14.1338,41.3672 z"
     style="white-space:pre;fill:#ececec;fill-opacity:1"
     id="path9139" /><path
     d="m 4541.4287,8726 h -36.7134 l -67.7387,-186.4971 h 33.0937 l 41.0225,121.3438 q 2.2407,6.8945 11.893,40.8501 l 6.0328,-20.1665 6.7221,-20.3389 42.4014,-121.6885 h 32.9214 z"
     style="white-space:pre;fill:#ececec;fill-opacity:1"
     id="path9141" /><path
     d="m 4645.1914,8799.2544 q -12.7549,0 -21.373,-1.896 v -23.269 q 6.5498,1.0341 14.4785,1.0341 28.957,0 45.8486,-42.5737 l 2.9302,-7.4116 -73.9439,-185.6353 h 33.0938 l 39.2988,103.0733 q 0.8618,2.4131 2.0684,5.8603 1.2065,3.2749 7.7563,22.4073 6.5498,19.1323 7.0669,21.373 l 12.0654,-33.9556 40.8501,-118.7583 h 32.7491 L 4716.3774,8726 q -11.5483,29.8188 -21.5454,44.2974 -9.997,14.6508 -22.2348,21.7177 -12.0655,7.2393 -27.4058,7.2393 z"
     style="white-space:pre;fill:#ececec;fill-opacity:1"
     id="path9143" /><path
     d="m 5069.3774,8604.4839 q 0,60.8442 -21.5454,92.9038 -21.373,32.0596 -63.2573,32.0596 -41.8843,0 -62.9126,-31.8872 -21.0283,-31.8872 -21.0283,-93.0762 0,-62.5679 20.3389,-93.7656 20.5112,-31.1978 64.6362,-31.1978 42.9184,0 63.2573,31.5425 20.5112,31.5425 20.5112,93.4209 z m -31.5424,0 q 0,-52.5708 -12.2378,-76.1846 -12.0655,-23.6138 -39.9883,-23.6138 -28.6123,0 -41.1948,23.2691 -12.4102,23.269 -12.4102,76.5293 0,51.709 12.5825,75.6675 12.7549,23.9585 40.333,23.9585 27.4058,0 40.1607,-24.4756 12.7549,-24.4756 12.7549,-75.1504 z"
     style="white-space:pre;fill:#ececec;fill-opacity:1"
     id="path9145" /><path
     d="m 5115.3984,8726 v -37.7476 h 33.6109 V 8726 Z"
     style="white-space:pre;fill:#ececec;fill-opacity:1"
     id="path9147" /><path
     d="m 5359.8096,8508.3052 q -37.2305,56.8799 -52.5708,89.1118 -15.3404,32.2319 -23.0967,63.602 -7.584,31.3702 -7.584,64.981 h -32.4043 q 0,-46.5381 19.6494,-97.9023 19.8218,-51.5367 66.0152,-118.586 h -130.479 v -26.3716 h 160.4702 z"
     style="white-space:pre;fill:#ececec;fill-opacity:1"
     id="path9149" /></g>
 <g
   aria-label="Bevy 0.8"
   id="text76"
   class="SVGTextShape"
   style="fill:#ececec;fill-opacity:1"><path
     d="m 11536.833,8657.5718 q 0,32.4043 -23.614,50.5024 -23.614,17.9258 -65.67,17.9258 h -98.592 v -242.8599 h 88.25 q 85.492,0 85.492,58.9483 0,21.5454 -12.065,36.1963 -12.066,14.6508 -34.128,19.6494 28.957,3.4472 44.642,19.477 15.685,15.8575 15.685,40.1607 z m -47.228,-111.5191 q 0,-19.6494 -13.444,-28.0952 -13.444,-8.4458 -38.954,-8.4458 h -55.329 v 76.874 h 55.329 q 26.372,0 39.299,-9.8247 13.099,-9.997 13.099,-30.5083 z m 13.962,108.9336 q 0,-42.9184 -60.327,-42.9184 h -61.362 v 87.5605 h 63.947 q 30.164,0 43.953,-11.2036 13.789,-11.2036 13.789,-33.4385 z"
     style="white-space:pre;fill:#ececec;fill-opacity:1"
     id="path9152" /><path
     d="m 11603.021,8639.3013 q 0,32.0595 13.271,49.4682 13.272,17.4087 38.782,17.4087 20.167,0 32.232,-8.1011 12.238,-8.101 16.547,-20.5112 l 27.233,7.7564 q -16.719,44.125 -76.012,44.125 -41.367,0 -63.085,-24.648 -21.545,-24.6479 -21.545,-73.2544 0,-46.1933 21.545,-70.8413 21.718,-24.6479 61.879,-24.6479 82.217,0 82.217,99.1089 v 4.1367 z m 101.004,-23.7862 q -2.585,-29.4741 -14.995,-42.9184 -12.41,-13.6167 -35.679,-13.6167 -22.58,0 -35.852,15.1679 -13.1,14.9957 -14.134,41.3672 z"
     style="white-space:pre;fill:#ececec;fill-opacity:1"
     id="path9154" /><path
     d="m 11857.429,8726 h -36.714 l -67.738,-186.4971 h 33.093 l 41.023,121.3438 q 2.24,6.8945 11.893,40.8501 l 6.033,-20.1665 6.722,-20.3389 42.401,-121.6885 h 32.921 z"
     style="white-space:pre;fill:#ececec;fill-opacity:1"
     id="path9156" /><path
     d="m 11961.191,8799.2544 q -12.754,0 -21.373,-1.896 v -23.269 q 6.55,1.0341 14.479,1.0341 28.957,0 45.849,-42.5737 l 2.93,-7.4116 -73.944,-185.6353 h 33.094 l 39.298,103.0733 q 0.862,2.4131 2.069,5.8603 1.206,3.2749 7.756,22.4073 6.55,19.1323 7.067,21.373 l 12.065,-33.9556 40.851,-118.7583 h 32.749 L 12032.377,8726 q -11.548,29.8188 -21.545,44.2974 -9.997,14.6508 -22.235,21.7177 -12.065,7.2393 -27.406,7.2393 z"
     style="white-space:pre;fill:#ececec;fill-opacity:1"
     id="path9158" /><path
     d="m 12385.377,8604.4839 q 0,60.8442 -21.545,92.9038 -21.373,32.0596 -63.257,32.0596 -41.885,0 -62.913,-31.8872 -21.028,-31.8872 -21.028,-93.0762 0,-62.5679 20.339,-93.7656 20.511,-31.1978 64.636,-31.1978 42.918,0 63.257,31.5425 20.511,31.5425 20.511,93.4209 z m -31.542,0 q 0,-52.5708 -12.238,-76.1846 -12.065,-23.6138 -39.988,-23.6138 -28.612,0 -41.195,23.2691 -12.41,23.269 -12.41,76.5293 0,51.709 12.582,75.6675 12.755,23.9585 40.333,23.9585 27.406,0 40.161,-24.4756 12.755,-24.4756 12.755,-75.1504 z"
     style="white-space:pre;fill:#ececec;fill-opacity:1"
     id="path9160" /><path
     d="m 12431.398,8726 v -37.7476 h 33.611 V 8726 Z"
     style="white-space:pre;fill:#ececec;fill-opacity:1"
     id="path9162" /><path
     d="m 12678.223,8658.2612 q 0,33.6109 -21.373,52.3985 -21.373,18.7876 -61.362,18.7876 -38.954,0 -61.016,-18.4429 -21.89,-18.4429 -21.89,-52.3984 0,-23.7862 13.616,-39.9883 13.617,-16.2022 34.818,-19.6494 v -0.6895 q -19.822,-4.6538 -31.37,-20.1665 -11.376,-15.5127 -11.376,-36.3686 0,-27.7505 20.683,-44.9869 20.856,-17.2363 55.846,-17.2363 35.851,0 56.535,16.8916 20.856,16.8916 20.856,45.6763 0,20.8559 -11.548,36.3686 -11.549,15.5127 -31.543,19.4771 v 0.6894 q 23.269,3.792 36.196,19.8218 12.928,15.8574 12.928,39.8159 z m -38.265,-114.4492 q 0,-41.1948 -45.159,-41.1948 -21.89,0 -33.439,10.3418 -11.376,10.3418 -11.376,30.853 0,20.856 11.721,31.8872 11.893,10.8589 33.439,10.8589 21.89,0 33.266,-9.9971 11.548,-10.1694 11.548,-32.749 z m 6.033,111.5191 q 0,-22.5796 -13.445,-33.9556 -13.444,-11.5484 -37.747,-11.5484 -23.614,0 -36.886,12.4102 -13.272,12.2378 -13.272,33.7832 0,50.1577 51.192,50.1577 25.337,0 37.748,-12.0654 12.41,-12.2378 12.41,-38.7817 z"
     style="white-space:pre;fill:#ececec;fill-opacity:1"
     id="path9164" /></g>
 <g
   aria-label="0"
   id="text84"
   class="SVGTextShape"
   style="fill:#ececec;fill-opacity:1"><path
     d="m 781.53271,8157.4839 q 0,60.8442 -21.54541,92.9038 -21.37304,32.0596 -63.25732,32.0596 -41.88428,0 -62.9126,-31.8872 -21.02832,-31.8872 -21.02832,-93.0762 0,-62.5679 20.33887,-93.7656 20.51123,-31.1978 64.63623,-31.1978 42.91846,0 63.25732,31.5425 20.51123,31.5425 20.51123,93.4209 z m -31.54248,0 q 0,-52.5708 -12.23779,-76.1846 -12.06543,-23.6138 -39.98828,-23.6138 -28.6123,0 -41.19482,23.2691 -12.41016,23.269 -12.41016,76.5293 0,51.709 12.58252,75.6675 12.75488,23.9585 40.33301,23.9585 27.40576,0 40.16064,-24.4756 12.75488,-24.4756 12.75488,-75.1504 z"
     style="white-space:pre;fill:#ececec;fill-opacity:1"
     id="path9094" /></g>
 <g
   aria-label="0.5"
   id="text92"
   class="SVGTextShape"
   style="fill:#ececec;fill-opacity:1"><path
     d="m 490.53271,7182.4839 q 0,60.8442 -21.54541,92.9038 -21.37304,32.0596 -63.25732,32.0596 -41.88428,0 -62.9126,-31.8872 -21.02832,-31.8872 -21.02832,-93.0762 0,-62.5679 20.33887,-93.7656 20.51123,-31.1978 64.63623,-31.1978 42.91846,0 63.25732,31.5425 20.51123,31.5425 20.51123,93.4209 z m -31.54248,0 q 0,-52.5708 -12.23779,-76.1846 -12.06543,-23.6138 -39.98828,-23.6138 -28.6123,0 -41.19482,23.2691 -12.41016,23.269 -12.41016,76.5293 0,51.709 12.58252,75.6675 12.75488,23.9585 40.33301,23.9585 27.40576,0 40.16064,-24.4756 12.75488,-24.4756 12.75488,-75.1504 z"
     style="white-space:pre;fill:#ececec;fill-opacity:1"
     id="path9097" /><path
     d="m 536.55371,7304 v -37.7476 h 33.61084 V 7304 Z"
     style="white-space:pre;fill:#ececec;fill-opacity:1"
     id="path9099" /><path
     d="m 783.89502,7224.8853 q 0,38.437 -22.92432,60.4995 -22.75195,22.0625 -63.25732,22.0625 -33.95557,0 -54.81152,-14.8233 -20.85596,-14.8232 -26.37159,-42.9184 l 31.37012,-3.6197 q 9.82471,36.024 50.50244,36.024 24.99268,0 39.12647,-14.9956 14.13379,-15.168 14.13379,-41.5396 0,-22.9243 -14.30616,-37.0581 -14.13379,-14.1338 -38.26464,-14.1338 -12.58252,0 -23.44141,3.9644 -10.85889,3.9643 -21.71777,13.4443 h -30.33594 l 8.10107,-130.6514 h 138.06299 v 26.3716 H 659.96582 l -4.65381,77.0464 q 20.16651,-15.5127 50.15772,-15.5127 35.85156,0 57.05224,21.0283 21.37305,21.0284 21.37305,54.8116 z"
     style="white-space:pre;fill:#ececec;fill-opacity:1"
     id="path9101" /></g>
 <g
   aria-label="1"
   id="text100"
   class="SVGTextShape"
   style="fill:#ececec;fill-opacity:1"><path
     d="m 625.88867,6330 v -26.3716 h 61.87842 v -186.8418 l -54.81152,39.1265 v -29.3018 l 57.39697,-39.4712 h 28.6123 v 216.4883 h 59.12061 V 6330 Z"
     style="white-space:pre;fill:#ececec;fill-opacity:1"
     id="path9104" /></g>
 <g
   aria-label="1.5"
   id="text108"
   class="SVGTextShape"
   style="fill:#ececec;fill-opacity:1"><path
     d="m 334.88867,5356 v -26.3716 h 61.87842 v -186.8418 l -54.81152,39.1265 v -29.3018 l 57.39697,-39.4712 h 28.6123 v 216.4883 h 59.12061 V 5356 Z"
     style="white-space:pre;fill:#ececec;fill-opacity:1"
     id="path9107" /><path
     d="m 536.55371,5356 v -37.7476 h 33.61084 V 5356 Z"
     style="white-space:pre;fill:#ececec;fill-opacity:1"
     id="path9109" /><path
     d="m 783.89502,5276.8853 q 0,38.437 -22.92432,60.4995 -22.75195,22.0625 -63.25732,22.0625 -33.95557,0 -54.81152,-14.8233 -20.85596,-14.8232 -26.37159,-42.9184 l 31.37012,-3.6197 q 9.82471,36.024 50.50244,36.024 24.99268,0 39.12647,-14.9956 14.13379,-15.168 14.13379,-41.5396 0,-22.9243 -14.30616,-37.0581 -14.13379,-14.1338 -38.26464,-14.1338 -12.58252,0 -23.44141,3.9644 -10.85889,3.9643 -21.71777,13.4443 h -30.33594 l 8.10107,-130.6514 h 138.06299 v 26.3716 H 659.96582 l -4.65381,77.0464 q 20.16651,-15.5127 50.15772,-15.5127 35.85156,0 57.05224,21.0283 21.37305,21.0284 21.37305,54.8116 z"
     style="white-space:pre;fill:#ececec;fill-opacity:1"
     id="path9111" /></g>
 <g
   aria-label="2"
   id="text116"
   class="SVGTextShape"
   style="fill:#ececec;fill-opacity:1"><path
     d="m 616.75342,4382 v -21.8901 q 8.79053,-20.1665 21.37304,-35.5069 12.75489,-15.5127 26.71631,-27.9228 13.96143,-12.5825 27.57813,-23.2691 13.78906,-10.6865 24.82031,-21.373 11.03125,-10.6865 17.75342,-22.4072 6.89453,-11.7207 6.89453,-26.544 0,-19.9941 -11.7207,-31.0254 -11.72071,-11.0312 -32.57666,-11.0312 -19.82178,0 -32.74903,10.8589 -12.75488,10.6865 -14.9956,30.1635 l -31.71485,-2.9301 q 3.44727,-29.1294 24.64795,-46.3658 21.37305,-17.2363 54.81153,-17.2363 36.71338,0 56.36279,17.4087 19.82178,17.2363 19.82178,49.1235 0,14.1338 -6.54981,28.0952 -6.37744,13.9615 -19.13232,27.9229 -12.75488,13.9614 -48.77881,43.2632 -19.82178,16.2021 -31.54248,29.3017 -11.7207,12.9273 -16.8916,24.9927 H 777.56836 V 4382 Z"
     style="white-space:pre;fill:#ececec;fill-opacity:1"
     id="path9114" /></g>
 <g
   aria-label="2.5"
   id="text124"
   class="SVGTextShape"
   style="fill:#ececec;fill-opacity:1"><path
     d="m 325.75342,3407 v -21.8901 q 8.79053,-20.1665 21.37304,-35.5069 12.75489,-15.5127 26.71631,-27.9228 13.96143,-12.5825 27.57813,-23.2691 13.78906,-10.6865 24.82031,-21.373 11.03125,-10.6865 17.75342,-22.4072 6.89453,-11.7207 6.89453,-26.544 0,-19.9941 -11.7207,-31.0254 -11.72071,-11.0312 -32.57666,-11.0312 -19.82178,0 -32.74903,10.8589 -12.75488,10.6865 -14.9956,30.1635 l -31.71485,-2.9301 q 3.44727,-29.1294 24.64795,-46.3658 21.37305,-17.2363 54.81153,-17.2363 36.71338,0 56.36279,17.4087 19.82178,17.2363 19.82178,49.1235 0,14.1338 -6.54981,28.0952 -6.37744,13.9615 -19.13232,27.9229 -12.75488,13.9614 -48.77881,43.2632 -19.82178,16.2021 -31.54248,29.3017 -11.7207,12.9273 -16.8916,24.9927 H 486.56836 V 3407 Z"
     style="white-space:pre;fill:#ececec;fill-opacity:1"
     id="path9117" /><path
     d="m 536.55371,3407 v -37.7476 h 33.61084 V 3407 Z"
     style="white-space:pre;fill:#ececec;fill-opacity:1"
     id="path9119" /><path
     d="m 783.89502,3327.8853 q 0,38.437 -22.92432,60.4995 -22.75195,22.0625 -63.25732,22.0625 -33.95557,0 -54.81152,-14.8233 -20.85596,-14.8232 -26.37159,-42.9184 l 31.37012,-3.6197 q 9.82471,36.024 50.50244,36.024 24.99268,0 39.12647,-14.9956 14.13379,-15.168 14.13379,-41.5396 0,-22.9243 -14.30616,-37.0581 -14.13379,-14.1338 -38.26464,-14.1338 -12.58252,0 -23.44141,3.9644 -10.85889,3.9643 -21.71777,13.4443 h -30.33594 l 8.10107,-130.6514 h 138.06299 v 26.3716 H 659.96582 l -4.65381,77.0464 q 20.16651,-15.5127 50.15772,-15.5127 35.85156,0 57.05224,21.0283 21.37305,21.0284 21.37305,54.8116 z"
     style="white-space:pre;fill:#ececec;fill-opacity:1"
     id="path9121" /></g>
 <g
   aria-label="3"
   id="text132"
   class="SVGTextShape"
   style="fill:#ececec;fill-opacity:1"><path
     d="m 779.80908,2365.9507 q 0,33.6108 -21.37304,52.0537 -21.37305,18.4429 -61.01661,18.4429 -36.88574,0 -58.94824,-16.5469 -21.89014,-16.7192 -26.02685,-49.2959 l 32.05957,-2.9302 q 6.20507,43.0908 52.91552,43.0908 23.44141,0 36.71338,-11.5483 13.44434,-11.5483 13.44434,-34.3003 0,-19.8218 -15.34033,-30.853 -15.16797,-11.2036 -43.95264,-11.2036 h -17.58106 v -26.8887 h 16.89161 q 25.50976,0 39.47119,-11.0313 14.13379,-11.2036 14.13379,-30.853 0,-19.477 -11.54834,-30.6806 -11.37598,-11.376 -33.95557,-11.376 -20.51123,0 -33.26611,10.5141 -12.58252,10.5142 -14.65088,29.6465 l -31.19776,-2.4131 q 3.44727,-29.8188 24.64795,-46.5381 21.37305,-16.7192 54.81153,-16.7192 36.54101,0 56.70752,17.064 20.33886,16.8916 20.33886,47.2275 0,23.2691 -13.09961,37.9199 -12.92724,14.4785 -37.74755,19.6494 v 0.6895 q 27.23339,2.9302 42.40136,18.2705 15.16797,15.3403 15.16797,38.6094 z"
     style="white-space:pre;fill:#ececec;fill-opacity:1"
     id="path9124" /></g>
 <g
   aria-label="3.5"
   id="text140"
   class="SVGTextShape"
   style="fill:#ececec;fill-opacity:1"><path
     d="m 488.80908,1391.9507 q 0,33.6108 -21.37304,52.0537 -21.37305,18.4429 -61.01661,18.4429 -36.88574,0 -58.94824,-16.5469 -21.89014,-16.7192 -26.02685,-49.2959 l 32.05957,-2.9302 q 6.20507,43.0908 52.91552,43.0908 23.44141,0 36.71338,-11.5483 13.44434,-11.5483 13.44434,-34.3003 0,-19.8218 -15.34033,-30.853 -15.16797,-11.2036 -43.95264,-11.2036 h -17.58106 v -26.8887 h 16.89161 q 25.50976,0 39.47119,-11.0313 14.13379,-11.2036 14.13379,-30.853 0,-19.477 -11.54834,-30.6806 -11.37598,-11.376 -33.95557,-11.376 -20.51123,0 -33.26611,10.5141 -12.58252,10.5142 -14.65088,29.6465 l -31.19776,-2.4131 q 3.44727,-29.8188 24.64795,-46.5381 21.37305,-16.7192 54.81153,-16.7192 36.54101,0 56.70752,17.064 20.33886,16.8916 20.33886,47.2275 0,23.2691 -13.09961,37.9199 -12.92724,14.4785 -37.74755,19.6494 v 0.6895 q 27.23339,2.9302 42.40136,18.2705 15.16797,15.3403 15.16797,38.6094 z"
     style="white-space:pre;fill:#ececec;fill-opacity:1"
     id="path9127" /><path
     d="m 536.55371,1459 v -37.7476 h 33.61084 V 1459 Z"
     style="white-space:pre;fill:#ececec;fill-opacity:1"
     id="path9129" /><path
     d="m 783.89502,1379.8853 q 0,38.437 -22.92432,60.4995 -22.75195,22.0625 -63.25732,22.0625 -33.95557,0 -54.81152,-14.8233 -20.85596,-14.8232 -26.37159,-42.9184 l 31.37012,-3.6197 q 9.82471,36.024 50.50244,36.024 24.99268,0 39.12647,-14.9956 14.13379,-15.168 14.13379,-41.5396 0,-22.9243 -14.30616,-37.0581 -14.13379,-14.1338 -38.26464,-14.1338 -12.58252,0 -23.44141,3.9644 -10.85889,3.9643 -21.71777,13.4443 h -30.33594 l 8.10107,-130.6514 h 138.06299 v 26.3716 H 659.96582 l -4.65381,77.0464 q 20.16651,-15.5127 50.15772,-15.5127 35.85156,0 57.05224,21.0283 21.37305,21.0284 21.37305,54.8116 z"
     style="white-space:pre;fill:#ececec;fill-opacity:1"
     id="path9131" /></g>
 <g
   aria-label="4"
   id="text148"
   class="SVGTextShape"
   style="fill:#ececec;fill-opacity:1"><path
     d="M 750.85205,430.01611 V 485 H 721.55029 V 430.01611 H 607.10107 V 405.88525 L 718.27539,242.14014 h 32.57666 v 163.40039 h 34.12793 v 24.47558 z M 721.55029,277.12988 q -0.34472,1.03418 -4.82617,9.13526 -4.48144,8.10107 -6.72217,11.37597 l -62.22314,91.69727 -9.30762,12.75488 -2.75781,3.44727 h 85.83691 z"
     style="white-space:pre;fill:#ececec;fill-opacity:1"
     id="path9134" /></g>
</svg>
