<?xml version="1.0" encoding="UTF-8" standalone="no"?>
<svg
   width="160mm"
   height="90mm"
   viewBox="0 0 16000 9000"
   version="1.1"
   stroke-width="28.222"
   stroke-linejoin="round"
   xml:space="preserve"
   id="svg174"
   sodipodi:docname="commands_perf.svg"
   inkscape:version="1.1.1 (3bf5ae0d25, 2021-09-20, custom)"
   xmlns:inkscape="http://www.inkscape.org/namespaces/inkscape"
   xmlns:sodipodi="http://sodipodi.sourceforge.net/DTD/sodipodi-0.dtd"
   xmlns="http://www.w3.org/2000/svg"
   xmlns:svg="http://www.w3.org/2000/svg"><defs
   id="defs178" /><sodipodi:namedview
   id="namedview176"
   pagecolor="#ffffff"
   bordercolor="#666666"
   borderopacity="1.0"
   inkscape:pageshadow="2"
   inkscape:pageopacity="0.0"
   inkscape:pagecheckerboard="0"
   inkscape:document-units="mm"
   showgrid="false"
   inkscape:zoom="1.2833406"
   inkscape:cx="316.75145"
   inkscape:cy="146.10307"
   inkscape:window-width="1440"
   inkscape:window-height="900"
   inkscape:window-x="0"
   inkscape:window-y="0"
   inkscape:window-maximized="1"
   inkscape:current-layer="svg174" />
 
 
 <path
   fill="none"
   stroke="rgb(179,179,179)"
   stroke-linejoin="round"
   d="M 1312,8321 L 1312,8171"
   id="path6"
   style="stroke:#ececec;stroke-opacity:1" />
 <path
   fill="none"
   stroke="rgb(179,179,179)"
   stroke-linejoin="round"
   d="M 1312,8321 L 1312,8171"
   id="path8"
   style="stroke:#ececec;stroke-opacity:1" />
 <path
   fill="none"
   stroke="rgb(179,179,179)"
   stroke-linejoin="round"
   d="M 8495,8321 L 8495,8171"
   id="path10"
   style="stroke:#ececec;stroke-opacity:1" />
 <path
   fill="none"
   stroke="rgb(179,179,179)"
   stroke-linejoin="round"
   d="M 8495,8321 L 8495,8171"
   id="path12"
   style="stroke:#ececec;stroke-opacity:1" />
 <path
   fill="none"
   stroke="rgb(179,179,179)"
   stroke-linejoin="round"
   d="M 15679,8321 L 15679,8171"
   id="path14"
   style="stroke:#ececec;stroke-opacity:1" />
 <path
   fill="none"
   stroke="rgb(179,179,179)"
   stroke-linejoin="round"
   d="M 15679,8321 L 15679,8171"
   id="path16"
   style="stroke:#ececec;stroke-opacity:1" />
 <path
   fill="rgb(0,69,134)"
   stroke="none"
   d="M 3108,8171 L 6700,8171 6700,798 3108,798 3108,8171 Z"
   id="path68"
   style="fill:#474747;fill-opacity:1" /><path
   fill="rgb(0,69,134)"
   stroke="none"
   d="M 10291,8171 L 13883,8171 13883,3534 10291,3534 10291,8171 Z"
   id="path66"
   style="fill:#4a96dc;fill-opacity:1" /><path
   fill="none"
   stroke="rgb(179,179,179)"
   stroke-linejoin="round"
   d="M 1312,8171 L 15679,8171"
   id="path18"
   style="stroke:#ececec;stroke-opacity:1" />
 <path
   fill="none"
   stroke="rgb(179,179,179)"
   stroke-linejoin="round"
   d="M 1162,8171 L 1312,8171"
   id="path20"
   style="stroke:#ececec;stroke-opacity:1" />
 <path
   fill="none"
   stroke="rgb(179,179,179)"
   stroke-linejoin="round"
   d="M 1162,8171 L 1312,8171"
   id="path22"
   style="stroke:#ececec;stroke-opacity:1" />
 <path
   fill="none"
   stroke="rgb(179,179,179)"
   stroke-linejoin="round"
   d="M 1162,7391 L 1312,7391"
   id="path24"
   style="stroke:#ececec;stroke-opacity:1" />
 <path
   fill="none"
   stroke="rgb(179,179,179)"
   stroke-linejoin="round"
   d="M 1162,7391 L 1312,7391"
   id="path26"
   style="stroke:#ececec;stroke-opacity:1" />
 <path
   fill="none"
   stroke="rgb(179,179,179)"
   stroke-linejoin="round"
   d="M 1162,6612 L 1312,6612"
   id="path28"
   style="stroke:#ececec;stroke-opacity:1" />
 <path
   fill="none"
   stroke="rgb(179,179,179)"
   stroke-linejoin="round"
   d="M 1162,6612 L 1312,6612"
   id="path30"
   style="stroke:#ececec;stroke-opacity:1" />
 <path
   fill="none"
   stroke="rgb(179,179,179)"
   stroke-linejoin="round"
   d="M 1162,5832 L 1312,5832"
   id="path32"
   style="stroke:#ececec;stroke-opacity:1" />
 <path
   fill="none"
   stroke="rgb(179,179,179)"
   stroke-linejoin="round"
   d="M 1162,5832 L 1312,5832"
   id="path34"
   style="stroke:#ececec;stroke-opacity:1" />
 <path
   fill="none"
   stroke="rgb(179,179,179)"
   stroke-linejoin="round"
   d="M 1162,5053 L 1312,5053"
   id="path36"
   style="stroke:#ececec;stroke-opacity:1" />
 <path
   fill="none"
   stroke="rgb(179,179,179)"
   stroke-linejoin="round"
   d="M 1162,5053 L 1312,5053"
   id="path38"
   style="stroke:#ececec;stroke-opacity:1" />
 <path
   fill="none"
   stroke="rgb(179,179,179)"
   stroke-linejoin="round"
   d="M 1162,4275 L 1312,4275"
   id="path40"
   style="stroke:#ececec;stroke-opacity:1" />
 <path
   fill="none"
   stroke="rgb(179,179,179)"
   stroke-linejoin="round"
   d="M 1162,4275 L 1312,4275"
   id="path42"
   style="stroke:#ececec;stroke-opacity:1" />
 <path
   fill="none"
   stroke="rgb(179,179,179)"
   stroke-linejoin="round"
   d="M 1162,3495 L 1312,3495"
   id="path44"
   style="stroke:#ececec;stroke-opacity:1" />
 <path
   fill="none"
   stroke="rgb(179,179,179)"
   stroke-linejoin="round"
   d="M 1162,3495 L 1312,3495"
   id="path46"
   style="stroke:#ececec;stroke-opacity:1" />
 <path
   fill="none"
   stroke="rgb(179,179,179)"
   stroke-linejoin="round"
   d="M 1162,2716 L 1312,2716"
   id="path48"
   style="stroke:#ececec;stroke-opacity:1" />
 <path
   fill="none"
   stroke="rgb(179,179,179)"
   stroke-linejoin="round"
   d="M 1162,2716 L 1312,2716"
   id="path50"
   style="stroke:#ececec;stroke-opacity:1" />
 <path
   fill="none"
   stroke="rgb(179,179,179)"
   stroke-linejoin="round"
   d="M 1162,1936 L 1312,1936"
   id="path52"
   style="stroke:#ececec;stroke-opacity:1" />
 <path
   fill="none"
   stroke="rgb(179,179,179)"
   stroke-linejoin="round"
   d="M 1162,1936 L 1312,1936"
   id="path54"
   style="stroke:#ececec;stroke-opacity:1" />
 <path
   fill="none"
   stroke="rgb(179,179,179)"
   stroke-linejoin="round"
   d="M 1162,1157 L 1312,1157"
   id="path56"
   style="stroke:#ececec;stroke-opacity:1" />
 <path
   fill="none"
   stroke="rgb(179,179,179)"
   stroke-linejoin="round"
   d="M 1162,1157 L 1312,1157"
   id="path58"
   style="stroke:#ececec;stroke-opacity:1" />
 <path
   fill="none"
   stroke="rgb(179,179,179)"
   stroke-linejoin="round"
   d="M 1162,378 L 1312,378"
   id="path60"
   style="stroke:#ececec;stroke-opacity:1" />
 <path
   fill="none"
   stroke="rgb(179,179,179)"
   stroke-linejoin="round"
   d="M 1162,378 L 1312,378"
   id="path62"
   style="stroke:#ececec;stroke-opacity:1" />
 <path
   fill="none"
   stroke="rgb(179,179,179)"
   stroke-linejoin="round"
   d="M 1312,8171 L 1312,378"
   id="path64"
   style="stroke:#ececec;stroke-opacity:1" />
 
 
 <g
   aria-label="Bevy 0.5"
   id="text76"
   class="SVGTextShape"
   style="fill:#ececec;fill-opacity:1"><path
     d="m 4432.833,8670.5718 q 0,32.4043 -23.6138,50.5024 Q 4385.6055,8739 4343.5488,8739 h -98.5918 v -242.8599 h 88.25 q 85.4922,0 85.4922,58.9483 0,21.5454 -12.0654,36.1963 -12.0654,14.6508 -34.1279,19.6494 28.957,3.4472 44.642,19.477 15.6851,15.8575 15.6851,40.1607 z m -47.2275,-111.5191 q 0,-19.6494 -13.4444,-28.0952 -13.4443,-8.4458 -38.9541,-8.4458 h -55.3286 v 76.874 h 55.3286 q 26.3716,0 39.2989,-9.8247 13.0996,-9.997 13.0996,-30.5083 z m 13.9614,108.9336 q 0,-42.9184 -60.3272,-42.9184 h -61.3613 v 87.5605 h 63.9468 q 30.1636,0 43.9526,-11.2036 13.7891,-11.2036 13.7891,-33.4385 z"
     id="path1191"
     style="fill:#ececec;fill-opacity:1" /><path
     d="m 4499.0205,8652.3013 q 0,32.0595 13.272,49.4682 13.272,17.4087 38.7817,17.4087 20.1665,0 32.232,-8.1011 12.2377,-8.101 16.5468,-20.5112 l 27.2334,7.7564 q -16.7192,44.125 -76.0122,44.125 -41.3672,0 -63.0849,-24.648 -21.5455,-24.6479 -21.5455,-73.2544 0,-46.1933 21.5455,-70.8413 21.7177,-24.6479 61.8784,-24.6479 82.2173,0 82.2173,99.1089 v 4.1367 z m 101.0049,-23.7862 q -2.5855,-29.4741 -14.9956,-42.9184 -12.4102,-13.6167 -35.6792,-13.6167 -22.5796,0 -35.8516,15.1679 -13.0996,14.9957 -14.1338,41.3672 z"
     id="path1193"
     style="fill:#ececec;fill-opacity:1" /><path
     d="m 4753.4287,8739 h -36.7134 l -67.7387,-186.4971 h 33.0937 l 41.0225,121.3438 q 2.2407,6.8945 11.893,40.8501 l 6.0328,-20.1665 6.7221,-20.3389 42.4014,-121.6885 h 32.9214 z"
     id="path1195"
     style="fill:#ececec;fill-opacity:1" /><path
     d="m 4857.1914,8812.2544 q -12.7549,0 -21.373,-1.896 v -23.269 q 6.5498,1.0341 14.4785,1.0341 28.957,0 45.8486,-42.5737 l 2.9302,-7.4116 -73.9439,-185.6353 h 33.0938 l 39.2988,103.0733 q 0.8618,2.4131 2.0684,5.8603 1.2065,3.2749 7.7563,22.4073 6.5498,19.1323 7.0669,21.373 l 12.0654,-33.9556 40.8501,-118.7583 h 32.7491 L 4928.3774,8739 q -11.5483,29.8188 -21.5454,44.2974 -9.997,14.6508 -22.2348,21.7177 -12.0655,7.2393 -27.4058,7.2393 z"
     id="path1197"
     style="fill:#ececec;fill-opacity:1" /><path
     d="m 5281.3774,8617.4839 q 0,60.8442 -21.5454,92.9038 -21.373,32.0596 -63.2573,32.0596 -41.8843,0 -62.9126,-31.8872 -21.0283,-31.8872 -21.0283,-93.0762 0,-62.5679 20.3389,-93.7656 20.5112,-31.1978 64.6362,-31.1978 42.9184,0 63.2573,31.5425 20.5112,31.5425 20.5112,93.4209 z m -31.5424,0 q 0,-52.5708 -12.2378,-76.1846 -12.0655,-23.6138 -39.9883,-23.6138 -28.6123,0 -41.1948,23.2691 -12.4102,23.269 -12.4102,76.5293 0,51.709 12.5825,75.6675 12.7549,23.9585 40.333,23.9585 27.4058,0 40.1607,-24.4756 12.7549,-24.4756 12.7549,-75.1504 z"
     id="path1199"
     style="fill:#ececec;fill-opacity:1" /><path
     d="m 5327.3984,8739 v -37.7476 h 33.6109 V 8739 Z"
     id="path1201"
     style="fill:#ececec;fill-opacity:1" /><path
     d="m 5574.7397,8659.8853 q 0,38.437 -22.9243,60.4995 -22.7519,22.0625 -63.2573,22.0625 -33.9556,0 -54.8115,-14.8233 -20.856,-14.8232 -26.3716,-42.9184 l 31.3701,-3.6197 q 9.8247,36.024 50.5025,36.024 24.9926,0 39.1264,-14.9956 14.1338,-15.168 14.1338,-41.5396 0,-22.9243 -14.3061,-37.0581 -14.1338,-14.1338 -38.2647,-14.1338 -12.5825,0 -23.4414,3.9644 -10.8589,3.9643 -21.7178,13.4443 h -30.3359 l 8.1011,-130.6514 h 138.063 v 26.3716 h -109.7955 l -4.6538,77.0464 q 20.1665,-15.5127 50.1578,-15.5127 35.8515,0 57.0522,21.0283 21.373,21.0284 21.373,54.8116 z"
     id="path1203"
     style="fill:#ececec;fill-opacity:1" /></g>
 <g
   aria-label="Bevy 0.6"
   id="text84"
   class="SVGTextShape"
   style="fill:#ececec;fill-opacity:1"><path
     d="m 11616.833,8670.5718 q 0,32.4043 -23.614,50.5024 -23.614,17.9258 -65.67,17.9258 h -98.592 v -242.8599 h 88.25 q 85.492,0 85.492,58.9483 0,21.5454 -12.065,36.1963 -12.066,14.6508 -34.128,19.6494 28.957,3.4472 44.642,19.477 15.685,15.8575 15.685,40.1607 z m -47.228,-111.5191 q 0,-19.6494 -13.444,-28.0952 -13.444,-8.4458 -38.954,-8.4458 h -55.329 v 76.874 h 55.329 q 26.372,0 39.299,-9.8247 13.099,-9.997 13.099,-30.5083 z m 13.962,108.9336 q 0,-42.9184 -60.327,-42.9184 h -61.362 v 87.5605 h 63.947 q 30.164,0 43.953,-11.2036 13.789,-11.2036 13.789,-33.4385 z"
     id="path1224"
     style="fill:#ececec;fill-opacity:1" /><path
     d="m 11683.021,8652.3013 q 0,32.0595 13.271,49.4682 13.272,17.4087 38.782,17.4087 20.167,0 32.232,-8.1011 12.238,-8.101 16.547,-20.5112 l 27.233,7.7564 q -16.719,44.125 -76.012,44.125 -41.367,0 -63.085,-24.648 -21.545,-24.6479 -21.545,-73.2544 0,-46.1933 21.545,-70.8413 21.718,-24.6479 61.879,-24.6479 82.217,0 82.217,99.1089 v 4.1367 z m 101.004,-23.7862 q -2.585,-29.4741 -14.995,-42.9184 -12.41,-13.6167 -35.679,-13.6167 -22.58,0 -35.852,15.1679 -13.1,14.9957 -14.134,41.3672 z"
     id="path1226"
     style="fill:#ececec;fill-opacity:1" /><path
     d="m 11937.429,8739 h -36.714 l -67.738,-186.4971 h 33.093 l 41.023,121.3438 q 2.24,6.8945 11.893,40.8501 l 6.033,-20.1665 6.722,-20.3389 42.401,-121.6885 h 32.921 z"
     id="path1228"
     style="fill:#ececec;fill-opacity:1" /><path
     d="m 12041.191,8812.2544 q -12.754,0 -21.373,-1.896 v -23.269 q 6.55,1.0341 14.479,1.0341 28.957,0 45.849,-42.5737 l 2.93,-7.4116 -73.944,-185.6353 h 33.094 l 39.298,103.0733 q 0.862,2.4131 2.069,5.8603 1.206,3.2749 7.756,22.4073 6.55,19.1323 7.067,21.373 l 12.065,-33.9556 40.851,-118.7583 h 32.749 L 12112.377,8739 q -11.548,29.8188 -21.545,44.2974 -9.997,14.6508 -22.235,21.7177 -12.065,7.2393 -27.406,7.2393 z"
     id="path1230"
     style="fill:#ececec;fill-opacity:1" /><path
     d="m 12465.377,8617.4839 q 0,60.8442 -21.545,92.9038 -21.373,32.0596 -63.257,32.0596 -41.885,0 -62.913,-31.8872 -21.028,-31.8872 -21.028,-93.0762 0,-62.5679 20.339,-93.7656 20.511,-31.1978 64.636,-31.1978 42.918,0 63.257,31.5425 20.511,31.5425 20.511,93.4209 z m -31.542,0 q 0,-52.5708 -12.238,-76.1846 -12.065,-23.6138 -39.988,-23.6138 -28.612,0 -41.195,23.2691 -12.41,23.269 -12.41,76.5293 0,51.709 12.582,75.6675 12.755,23.9585 40.333,23.9585 27.406,0 40.161,-24.4756 12.755,-24.4756 12.755,-75.1504 z"
     id="path1232"
     style="fill:#ececec;fill-opacity:1" /><path
     d="m 12511.398,8739 v -37.7476 h 33.611 V 8739 Z"
     id="path1234"
     style="fill:#ececec;fill-opacity:1" /><path
     d="m 12758.05,8659.5405 q 0,38.437 -20.856,60.6719 -20.856,22.2349 -57.569,22.2349 -41.022,0 -62.74,-30.5083 -21.718,-30.5083 -21.718,-88.7671 0,-63.085 22.58,-96.8682 22.579,-33.7832 64.291,-33.7832 54.984,0 69.29,49.4683 l -29.646,5.3432 q -9.136,-29.6465 -39.989,-29.6465 -26.544,0 -41.194,24.8204 -14.479,24.6479 -14.479,71.5307 8.446,-15.685 23.786,-23.7861 15.34,-8.2734 35.162,-8.2734 33.611,0 53.261,21.0283 19.821,21.0283 19.821,56.5351 z m -31.542,1.3789 q 0,-26.3715 -12.927,-40.6777 -12.928,-14.3062 -36.024,-14.3062 -21.718,0 -35.162,12.7549 -13.272,12.5825 -13.272,34.8174 0,28.0952 13.789,46.021 13.961,17.9258 35.679,17.9258 22.407,0 35.162,-14.9956 12.755,-15.168 12.755,-41.5396 z"
     id="path1236"
     style="fill:#ececec;fill-opacity:1" /></g>
 <g
   aria-label="0"
   id="text92"
   class="SVGTextShape"
   style="fill:#ececec;fill-opacity:1"><path
     d="m 1059.5327,8170.4839 q 0,60.8442 -21.5454,92.9038 -21.373,32.0596 -63.25732,32.0596 -41.88428,0 -62.9126,-31.8872 -21.02832,-31.8872 -21.02832,-93.0762 0,-62.5679 20.33887,-93.7656 20.51123,-31.1978 64.63623,-31.1978 42.91844,0 63.25734,31.5425 20.5112,31.5425 20.5112,93.4209 z m -31.5425,0 q 0,-52.5708 -12.2378,-76.1846 -12.0654,-23.6138 -39.98824,-23.6138 -28.6123,0 -41.19482,23.2691 -12.41016,23.269 -12.41016,76.5293 0,51.709 12.58252,75.6675 12.75488,23.9585 40.33301,23.9585 27.40579,0 40.16069,-24.4756 12.7548,-24.4756 12.7548,-75.1504 z"
     id="path1257"
     style="fill:#ececec;fill-opacity:1" /></g>
 <g
   aria-label="100"
   id="text100"
   class="SVGTextShape"
   style="fill:#ececec;fill-opacity:1"><path
     d="m 532.88867,7512 v -26.3716 h 61.87842 v -186.8418 l -54.81152,39.1265 v -29.3018 l 57.39697,-39.4712 h 28.6123 v 216.4883 h 59.12061 V 7512 Z"
     id="path1260"
     style="fill:#ececec;fill-opacity:1" /><path
     d="m 884.85449,7390.4839 q 0,60.8442 -21.54541,92.9038 -21.37304,32.0596 -63.25732,32.0596 -41.88428,0 -62.9126,-31.8872 -21.02832,-31.8872 -21.02832,-93.0762 0,-62.5679 20.33887,-93.7656 20.51123,-31.1978 64.63623,-31.1978 42.91845,0 63.25732,31.5425 20.51123,31.5425 20.51123,93.4209 z m -31.54248,0 q 0,-52.5708 -12.23779,-76.1846 -12.06543,-23.6138 -39.98828,-23.6138 -28.61231,0 -41.19483,23.2691 -12.41015,23.269 -12.41015,76.5293 0,51.709 12.58252,75.6675 12.75488,23.9585 40.333,23.9585 27.40577,0 40.16065,-24.4756 12.75488,-24.4756 12.75488,-75.1504 z"
     id="path1262"
     style="fill:#ececec;fill-opacity:1" /><path
     d="m 1081.1763,7390.4839 q 0,60.8442 -21.5454,92.9038 -21.3731,32.0596 -63.25736,32.0596 -41.88428,0 -62.9126,-31.8872 -21.02832,-31.8872 -21.02832,-93.0762 0,-62.5679 20.33886,-93.7656 20.51123,-31.1978 64.63623,-31.1978 42.91849,0 63.25729,31.5425 20.5113,31.5425 20.5113,93.4209 z m -31.5425,0 q 0,-52.5708 -12.2378,-76.1846 -12.0654,-23.6138 -39.98829,-23.6138 -28.6123,0 -41.19482,23.2691 -12.41016,23.269 -12.41016,76.5293 0,51.709 12.58252,75.6675 12.75489,23.9585 40.33301,23.9585 27.40574,0 40.16064,-24.4756 12.7549,-24.4756 12.7549,-75.1504 z"
     id="path1264"
     style="fill:#ececec;fill-opacity:1" /></g>
 <g
   aria-label="200"
   id="text108"
   class="SVGTextShape"
   style="fill:#ececec;fill-opacity:1"><path
     d="m 523.75342,6733 v -21.8901 q 8.79053,-20.1665 21.37304,-35.5069 12.75489,-15.5127 26.71631,-27.9228 13.96143,-12.5825 27.57813,-23.2691 13.78906,-10.6865 24.82031,-21.373 11.03125,-10.6865 17.75342,-22.4072 6.89453,-11.7207 6.89453,-26.544 0,-19.9941 -11.7207,-31.0254 -11.72071,-11.0312 -32.57666,-11.0312 -19.82178,0 -32.74903,10.8589 -12.75488,10.6865 -14.9956,30.1635 l -31.71485,-2.9301 q 3.44727,-29.1294 24.64795,-46.3658 21.37305,-17.2363 54.81153,-17.2363 36.71338,0 56.36279,17.4087 19.82178,17.2363 19.82178,49.1235 0,14.1338 -6.54981,28.0952 -6.37744,13.9615 -19.13232,27.9229 -12.75488,13.9614 -48.77881,43.2632 -19.82178,16.2021 -31.54248,29.3017 -11.7207,12.9273 -16.8916,24.9927 H 684.56836 V 6733 Z"
     id="path1267"
     style="fill:#ececec;fill-opacity:1" /><path
     d="m 884.85449,6611.4839 q 0,60.8442 -21.54541,92.9038 -21.37304,32.0596 -63.25732,32.0596 -41.88428,0 -62.9126,-31.8872 -21.02832,-31.8872 -21.02832,-93.0762 0,-62.5679 20.33887,-93.7656 20.51123,-31.1978 64.63623,-31.1978 42.91845,0 63.25732,31.5425 20.51123,31.5425 20.51123,93.4209 z m -31.54248,0 q 0,-52.5708 -12.23779,-76.1846 -12.06543,-23.6138 -39.98828,-23.6138 -28.61231,0 -41.19483,23.2691 -12.41015,23.269 -12.41015,76.5293 0,51.709 12.58252,75.6675 12.75488,23.9585 40.333,23.9585 27.40577,0 40.16065,-24.4756 12.75488,-24.4756 12.75488,-75.1504 z"
     id="path1269"
     style="fill:#ececec;fill-opacity:1" /><path
     d="m 1081.1763,6611.4839 q 0,60.8442 -21.5454,92.9038 -21.3731,32.0596 -63.25736,32.0596 -41.88428,0 -62.9126,-31.8872 -21.02832,-31.8872 -21.02832,-93.0762 0,-62.5679 20.33886,-93.7656 20.51123,-31.1978 64.63623,-31.1978 42.91849,0 63.25729,31.5425 20.5113,31.5425 20.5113,93.4209 z m -31.5425,0 q 0,-52.5708 -12.2378,-76.1846 -12.0654,-23.6138 -39.98829,-23.6138 -28.6123,0 -41.19482,23.2691 -12.41016,23.269 -12.41016,76.5293 0,51.709 12.58252,75.6675 12.75489,23.9585 40.33301,23.9585 27.40574,0 40.16064,-24.4756 12.7549,-24.4756 12.7549,-75.1504 z"
     id="path1271"
     style="fill:#ececec;fill-opacity:1" /></g>
 <g
   aria-label="300"
   id="text116"
   class="SVGTextShape"
   style="fill:#ececec;fill-opacity:1"><path
     d="m 686.80908,5885.9507 q 0,33.6108 -21.37304,52.0537 -21.37305,18.4429 -61.01661,18.4429 -36.88574,0 -58.94824,-16.5469 -21.89014,-16.7192 -26.02685,-49.2959 l 32.05957,-2.9302 q 6.20507,43.0908 52.91552,43.0908 23.44141,0 36.71338,-11.5483 13.44434,-11.5483 13.44434,-34.3003 0,-19.8218 -15.34033,-30.853 -15.16797,-11.2036 -43.95264,-11.2036 h -17.58106 v -26.8887 h 16.89161 q 25.50976,0 39.47119,-11.0313 14.13379,-11.2036 14.13379,-30.853 0,-19.477 -11.54834,-30.6807 -11.37598,-11.3759 -33.95557,-11.3759 -20.51123,0 -33.26611,10.5141 -12.58252,10.5142 -14.65088,29.6465 l -31.19776,-2.4131 q 3.44727,-29.8188 24.64795,-46.5381 21.37305,-16.7192 54.81153,-16.7192 36.54101,0 56.70752,17.064 20.33886,16.8916 20.33886,47.2275 0,23.2691 -13.09961,37.9199 -12.92724,14.4785 -37.74755,19.6494 v 0.6895 q 27.23339,2.9302 42.40136,18.2705 15.16797,15.3403 15.16797,38.6094 z"
     id="path1274"
     style="fill:#ececec;fill-opacity:1" /><path
     d="m 884.85449,5831.4839 q 0,60.8442 -21.54541,92.9038 -21.37304,32.0596 -63.25732,32.0596 -41.88428,0 -62.9126,-31.8872 -21.02832,-31.8872 -21.02832,-93.0762 0,-62.5679 20.33887,-93.7656 20.51123,-31.1978 64.63623,-31.1978 42.91845,0 63.25732,31.5425 20.51123,31.5425 20.51123,93.4209 z m -31.54248,0 q 0,-52.5708 -12.23779,-76.1846 -12.06543,-23.6138 -39.98828,-23.6138 -28.61231,0 -41.19483,23.2691 -12.41015,23.269 -12.41015,76.5293 0,51.709 12.58252,75.6675 12.75488,23.9585 40.333,23.9585 27.40577,0 40.16065,-24.4756 12.75488,-24.4756 12.75488,-75.1504 z"
     id="path1276"
     style="fill:#ececec;fill-opacity:1" /><path
     d="m 1081.1763,5831.4839 q 0,60.8442 -21.5454,92.9038 -21.3731,32.0596 -63.25736,32.0596 -41.88428,0 -62.9126,-31.8872 -21.02832,-31.8872 -21.02832,-93.0762 0,-62.5679 20.33886,-93.7656 20.51123,-31.1978 64.63623,-31.1978 42.91849,0 63.25729,31.5425 20.5113,31.5425 20.5113,93.4209 z m -31.5425,0 q 0,-52.5708 -12.2378,-76.1846 -12.0654,-23.6138 -39.98829,-23.6138 -28.6123,0 -41.19482,23.2691 -12.41016,23.269 -12.41016,76.5293 0,51.709 12.58252,75.6675 12.75489,23.9585 40.33301,23.9585 27.40574,0 40.16064,-24.4756 12.7549,-24.4756 12.7549,-75.1504 z"
     id="path1278"
     style="fill:#ececec;fill-opacity:1" /></g>
 <g
   aria-label="400"
   id="text124"
   class="SVGTextShape"
   style="fill:#ececec;fill-opacity:1"><path
     d="M 657.85205,5119.0161 V 5174 h -29.30176 v -54.9839 H 514.10107 v -24.1308 l 111.17432,-163.7452 h 32.57666 v 163.4004 h 34.12793 v 24.4756 z m -29.30176,-152.8862 q -0.34472,1.0342 -4.82617,9.1352 -4.48144,8.1011 -6.72217,11.376 l -62.22314,91.6973 -9.30762,12.7549 -2.75781,3.4472 h 85.83691 z"
     id="path1281"
     style="fill:#ececec;fill-opacity:1" /><path
     d="m 884.85449,5052.4839 q 0,60.8442 -21.54541,92.9038 -21.37304,32.0596 -63.25732,32.0596 -41.88428,0 -62.9126,-31.8872 -21.02832,-31.8872 -21.02832,-93.0762 0,-62.5679 20.33887,-93.7656 20.51123,-31.1978 64.63623,-31.1978 42.91845,0 63.25732,31.5425 20.51123,31.5425 20.51123,93.4209 z m -31.54248,0 q 0,-52.5708 -12.23779,-76.1846 -12.06543,-23.6138 -39.98828,-23.6138 -28.61231,0 -41.19483,23.2691 -12.41015,23.269 -12.41015,76.5293 0,51.709 12.58252,75.6675 12.75488,23.9585 40.333,23.9585 27.40577,0 40.16065,-24.4756 12.75488,-24.4756 12.75488,-75.1504 z"
     id="path1283"
     style="fill:#ececec;fill-opacity:1" /><path
     d="m 1081.1763,5052.4839 q 0,60.8442 -21.5454,92.9038 -21.3731,32.0596 -63.25736,32.0596 -41.88428,0 -62.9126,-31.8872 -21.02832,-31.8872 -21.02832,-93.0762 0,-62.5679 20.33886,-93.7656 20.51123,-31.1978 64.63623,-31.1978 42.91849,0 63.25729,31.5425 20.5113,31.5425 20.5113,93.4209 z m -31.5425,0 q 0,-52.5708 -12.2378,-76.1846 -12.0654,-23.6138 -39.98829,-23.6138 -28.6123,0 -41.19482,23.2691 -12.41016,23.269 -12.41016,76.5293 0,51.709 12.58252,75.6675 12.75489,23.9585 40.33301,23.9585 27.40574,0 40.16064,-24.4756 12.7549,-24.4756 12.7549,-75.1504 z"
     id="path1285"
     style="fill:#ececec;fill-opacity:1" /></g>
 <g
   aria-label="500"
   id="text132"
   class="SVGTextShape"
   style="fill:#ececec;fill-opacity:1"><path
     d="m 687.49854,4315.8853 q 0,38.437 -22.92432,60.4995 -22.75195,22.0625 -63.25733,22.0625 -33.95556,0 -54.81152,-14.8233 -20.85596,-14.8232 -26.37158,-42.9184 l 31.37012,-3.6197 q 9.8247,36.024 50.50244,36.024 24.99267,0 39.12646,-14.9956 14.13379,-15.168 14.13379,-41.5396 0,-22.9243 -14.30615,-37.0581 -14.13379,-14.1338 -38.26465,-14.1338 -12.58252,0 -23.44141,3.9644 -10.85888,3.9643 -21.71777,13.4443 h -30.33594 l 8.10108,-130.6514 h 138.06299 v 26.3716 H 563.56934 l -4.65381,77.0464 q 20.1665,-15.5127 50.15771,-15.5127 35.85156,0 57.05225,21.0283 21.37305,21.0284 21.37305,54.8116 z"
     id="path1288"
     style="fill:#ececec;fill-opacity:1" /><path
     d="m 884.85449,4273.4839 q 0,60.8442 -21.54541,92.9038 -21.37304,32.0596 -63.25732,32.0596 -41.88428,0 -62.9126,-31.8872 -21.02832,-31.8872 -21.02832,-93.0762 0,-62.5679 20.33887,-93.7656 20.51123,-31.1978 64.63623,-31.1978 42.91845,0 63.25732,31.5425 20.51123,31.5425 20.51123,93.4209 z m -31.54248,0 q 0,-52.5708 -12.23779,-76.1846 -12.06543,-23.6138 -39.98828,-23.6138 -28.61231,0 -41.19483,23.2691 -12.41015,23.269 -12.41015,76.5293 0,51.709 12.58252,75.6675 12.75488,23.9585 40.333,23.9585 27.40577,0 40.16065,-24.4756 12.75488,-24.4756 12.75488,-75.1504 z"
     id="path1290"
     style="fill:#ececec;fill-opacity:1" /><path
     d="m 1081.1763,4273.4839 q 0,60.8442 -21.5454,92.9038 -21.3731,32.0596 -63.25736,32.0596 -41.88428,0 -62.9126,-31.8872 -21.02832,-31.8872 -21.02832,-93.0762 0,-62.5679 20.33886,-93.7656 20.51123,-31.1978 64.63623,-31.1978 42.91849,0 63.25729,31.5425 20.5113,31.5425 20.5113,93.4209 z m -31.5425,0 q 0,-52.5708 -12.2378,-76.1846 -12.0654,-23.6138 -39.98829,-23.6138 -28.6123,0 -41.19482,23.2691 -12.41016,23.269 -12.41016,76.5293 0,51.709 12.58252,75.6675 12.75489,23.9585 40.33301,23.9585 27.40574,0 40.16064,-24.4756 12.7549,-24.4756 12.7549,-75.1504 z"
     id="path1292"
     style="fill:#ececec;fill-opacity:1" /></g>
 <g
   aria-label="600"
   id="text140"
   class="SVGTextShape"
   style="fill:#ececec;fill-opacity:1"><path
     d="m 686.80908,3535.5405 q 0,38.437 -20.85596,60.6719 -20.85595,22.2349 -57.56933,22.2349 -41.02246,0 -62.74024,-30.5083 -21.71777,-30.5083 -21.71777,-88.7671 0,-63.085 22.57959,-96.8682 22.57959,-33.7832 64.2915,-33.7832 54.98389,0 69.29004,49.4683 l -29.64648,5.3432 q -9.13525,-29.6465 -39.98828,-29.6465 -26.54395,0 -41.19483,24.8204 -14.47851,24.6479 -14.47851,71.5307 8.4458,-15.685 23.78613,-23.7861 15.34033,-8.2734 35.16211,-8.2734 33.61084,0 53.26025,21.0283 19.82178,21.0283 19.82178,56.5351 z m -31.54248,1.3789 q 0,-26.3715 -12.92724,-40.6777 -12.92725,-14.3062 -36.02393,-14.3062 -21.71777,0 -35.16211,12.7549 -13.27197,12.5825 -13.27197,34.8174 0,28.0952 13.78906,46.021 13.96143,17.9258 35.6792,17.9258 22.40723,0 35.16211,-14.9956 12.75488,-15.168 12.75488,-41.5396 z"
     id="path1295"
     style="fill:#ececec;fill-opacity:1" /><path
     d="m 884.85449,3493.4839 q 0,60.8442 -21.54541,92.9038 -21.37304,32.0596 -63.25732,32.0596 -41.88428,0 -62.9126,-31.8872 -21.02832,-31.8872 -21.02832,-93.0762 0,-62.5679 20.33887,-93.7656 20.51123,-31.1978 64.63623,-31.1978 42.91845,0 63.25732,31.5425 20.51123,31.5425 20.51123,93.4209 z m -31.54248,0 q 0,-52.5708 -12.23779,-76.1846 -12.06543,-23.6138 -39.98828,-23.6138 -28.61231,0 -41.19483,23.2691 -12.41015,23.269 -12.41015,76.5293 0,51.709 12.58252,75.6675 12.75488,23.9585 40.333,23.9585 27.40577,0 40.16065,-24.4756 12.75488,-24.4756 12.75488,-75.1504 z"
     id="path1297"
     style="fill:#ececec;fill-opacity:1" /><path
     d="m 1081.1763,3493.4839 q 0,60.8442 -21.5454,92.9038 -21.3731,32.0596 -63.25736,32.0596 -41.88428,0 -62.9126,-31.8872 -21.02832,-31.8872 -21.02832,-93.0762 0,-62.5679 20.33886,-93.7656 20.51123,-31.1978 64.63623,-31.1978 42.91849,0 63.25729,31.5425 20.5113,31.5425 20.5113,93.4209 z m -31.5425,0 q 0,-52.5708 -12.2378,-76.1846 -12.0654,-23.6138 -39.98829,-23.6138 -28.6123,0 -41.19482,23.2691 -12.41016,23.269 -12.41016,76.5293 0,51.709 12.58252,75.6675 12.75489,23.9585 40.33301,23.9585 27.40574,0 40.16064,-24.4756 12.7549,-24.4756 12.7549,-75.1504 z"
     id="path1299"
     style="fill:#ececec;fill-opacity:1" /></g>
 <g
   aria-label="700"
   id="text148"
   class="SVGTextShape"
   style="fill:#ececec;fill-opacity:1"><path
     d="m 684.56836,2618.3052 q -37.23047,56.8799 -52.5708,89.1118 -15.34033,32.2319 -23.09668,63.602 -7.58399,31.3702 -7.58399,64.981 H 568.9126 q 0,-46.5381 19.64941,-97.9023 19.82178,-51.5367 66.01514,-118.586 H 524.09814 v -26.3716 h 160.47022 z"
     id="path1302"
     style="fill:#ececec;fill-opacity:1" /><path
     d="m 884.85449,2714.4839 q 0,60.8442 -21.54541,92.9038 -21.37304,32.0596 -63.25732,32.0596 -41.88428,0 -62.9126,-31.8872 -21.02832,-31.8872 -21.02832,-93.0762 0,-62.5679 20.33887,-93.7656 20.51123,-31.1978 64.63623,-31.1978 42.91845,0 63.25732,31.5425 20.51123,31.5425 20.51123,93.4209 z m -31.54248,0 q 0,-52.5708 -12.23779,-76.1846 -12.06543,-23.6138 -39.98828,-23.6138 -28.61231,0 -41.19483,23.2691 -12.41015,23.269 -12.41015,76.5293 0,51.709 12.58252,75.6675 12.75488,23.9585 40.333,23.9585 27.40577,0 40.16065,-24.4756 12.75488,-24.4756 12.75488,-75.1504 z"
     id="path1304"
     style="fill:#ececec;fill-opacity:1" /><path
     d="m 1081.1763,2714.4839 q 0,60.8442 -21.5454,92.9038 -21.3731,32.0596 -63.25736,32.0596 -41.88428,0 -62.9126,-31.8872 -21.02832,-31.8872 -21.02832,-93.0762 0,-62.5679 20.33886,-93.7656 20.51123,-31.1978 64.63623,-31.1978 42.91849,0 63.25729,31.5425 20.5113,31.5425 20.5113,93.4209 z m -31.5425,0 q 0,-52.5708 -12.2378,-76.1846 -12.0654,-23.6138 -39.98829,-23.6138 -28.6123,0 -41.19482,23.2691 -12.41016,23.269 -12.41016,76.5293 0,51.709 12.58252,75.6675 12.75489,23.9585 40.33301,23.9585 27.40574,0 40.16064,-24.4756 12.7549,-24.4756 12.7549,-75.1504 z"
     id="path1306"
     style="fill:#ececec;fill-opacity:1" /></g>
 <g
   aria-label="800"
   id="text156"
   class="SVGTextShape"
   style="fill:#ececec;fill-opacity:1"><path
     d="m 686.98145,1988.2612 q 0,33.6109 -21.37305,52.3985 -21.37305,18.7876 -61.36133,18.7876 -38.9541,0 -61.0166,-18.4429 -21.89014,-18.4429 -21.89014,-52.3984 0,-23.7862 13.6167,-39.9883 13.6167,-16.2022 34.81738,-19.6494 v -0.6895 q -19.82177,-4.6538 -31.37011,-20.1665 -11.37598,-15.5127 -11.37598,-36.3686 0,-27.7505 20.68359,-44.9869 20.85596,-17.2363 55.84571,-17.2363 35.85156,0 56.53515,16.8916 20.85596,16.8916 20.85596,45.6763 0,20.8559 -11.54834,36.3686 -11.54834,15.5127 -31.54248,19.4771 v 0.6894 q 23.26904,3.792 36.19629,19.8218 12.92725,15.8574 12.92725,39.8159 z M 648.7168,1873.812 q 0,-41.1948 -45.15918,-41.1948 -21.89014,0 -33.43848,10.3418 -11.37598,10.3418 -11.37598,30.853 0,20.856 11.72071,31.8872 11.89306,10.8589 33.43847,10.8589 21.89014,0 33.26612,-9.9971 11.54834,-10.1694 11.54834,-32.749 z m 6.03271,111.5191 q 0,-22.5796 -13.44433,-33.9556 -13.44434,-11.5484 -37.74756,-11.5484 -23.61377,0 -36.88575,12.4102 -13.27197,12.2378 -13.27197,33.7832 0,50.1577 51.1919,50.1577 25.3374,0 37.74756,-12.0654 12.41015,-12.2378 12.41015,-38.7817 z"
     id="path1309"
     style="fill:#ececec;fill-opacity:1" /><path
     d="m 884.85449,1934.4839 q 0,60.8442 -21.54541,92.9038 -21.37304,32.0596 -63.25732,32.0596 -41.88428,0 -62.9126,-31.8872 -21.02832,-31.8872 -21.02832,-93.0762 0,-62.5679 20.33887,-93.7656 20.51123,-31.1978 64.63623,-31.1978 42.91845,0 63.25732,31.5425 20.51123,31.5425 20.51123,93.4209 z m -31.54248,0 q 0,-52.5708 -12.23779,-76.1846 -12.06543,-23.6138 -39.98828,-23.6138 -28.61231,0 -41.19483,23.2691 -12.41015,23.269 -12.41015,76.5293 0,51.709 12.58252,75.6675 12.75488,23.9585 40.333,23.9585 27.40577,0 40.16065,-24.4756 12.75488,-24.4756 12.75488,-75.1504 z"
     id="path1311"
     style="fill:#ececec;fill-opacity:1" /><path
     d="m 1081.1763,1934.4839 q 0,60.8442 -21.5454,92.9038 -21.3731,32.0596 -63.25736,32.0596 -41.88428,0 -62.9126,-31.8872 -21.02832,-31.8872 -21.02832,-93.0762 0,-62.5679 20.33886,-93.7656 20.51123,-31.1978 64.63623,-31.1978 42.91849,0 63.25729,31.5425 20.5113,31.5425 20.5113,93.4209 z m -31.5425,0 q 0,-52.5708 -12.2378,-76.1846 -12.0654,-23.6138 -39.98829,-23.6138 -28.6123,0 -41.19482,23.2691 -12.41016,23.269 -12.41016,76.5293 0,51.709 12.58252,75.6675 12.75489,23.9585 40.33301,23.9585 27.40574,0 40.16064,-24.4756 12.7549,-24.4756 12.7549,-75.1504 z"
     id="path1313"
     style="fill:#ececec;fill-opacity:1" /></g>
 <g
   aria-label="900"
   id="text164"
   class="SVGTextShape"
   style="fill:#ececec;fill-opacity:1"><path
     d="m 685.60254,1150.6577 q 0,62.5679 -22.92432,96.1787 -22.75195,33.6109 -64.98095,33.6109 -28.43995,0 -45.67627,-11.8931 -17.06397,-12.0654 -24.47559,-38.7817 l 29.64648,-4.6538 q 9.30762,30.3359 41.02247,30.3359 26.7163,0 41.36718,-24.8203 14.65088,-24.8203 15.34033,-70.8413 -6.89453,15.5127 -23.61376,24.9926 -16.71924,9.3077 -36.71338,9.3077 -32.74903,0 -52.39844,-22.4073 -19.64942,-22.4072 -19.64942,-59.4653 0,-38.0923 21.37305,-59.8101 21.37305,-21.8901 59.46533,-21.8901 40.50537,0 61.36133,29.9912 20.85596,29.9912 20.85596,90.146 z m -33.7832,-29.9912 q 0,-29.3018 -13.44434,-47.0552 -13.44434,-17.9258 -36.02393,-17.9258 -22.40722,0 -35.33447,15.3404 -12.92724,15.1679 -12.92724,41.1948 0,26.5439 12.92724,42.0566 12.92725,15.3404 34.98975,15.3404 13.44433,0 24.99267,-6.0327 11.54834,-6.2051 18.09815,-17.4087 6.72217,-11.2036 6.72217,-25.5098 z"
     id="path1316"
     style="fill:#ececec;fill-opacity:1" /><path
     d="m 884.85449,1155.4839 q 0,60.8442 -21.54541,92.9038 -21.37304,32.0596 -63.25732,32.0596 -41.88428,0 -62.9126,-31.8872 -21.02832,-31.8872 -21.02832,-93.0762 0,-62.5679 20.33887,-93.7656 20.51123,-31.1978 64.63623,-31.1978 42.91845,0 63.25732,31.5425 20.51123,31.5425 20.51123,93.4209 z m -31.54248,0 q 0,-52.5708 -12.23779,-76.1846 -12.06543,-23.6138 -39.98828,-23.6138 -28.61231,0 -41.19483,23.2691 -12.41015,23.269 -12.41015,76.5293 0,51.709 12.58252,75.6675 12.75488,23.9585 40.333,23.9585 27.40577,0 40.16065,-24.4756 12.75488,-24.4756 12.75488,-75.1504 z"
     id="path1318"
     style="fill:#ececec;fill-opacity:1" /><path
     d="m 1081.1763,1155.4839 q 0,60.8442 -21.5454,92.9038 -21.3731,32.0596 -63.25736,32.0596 -41.88428,0 -62.9126,-31.8872 -21.02832,-31.8872 -21.02832,-93.0762 0,-62.5679 20.33886,-93.7656 20.51123,-31.1978 64.63623,-31.1978 42.91849,0 63.25729,31.5425 20.5113,31.5425 20.5113,93.4209 z m -31.5425,0 q 0,-52.5708 -12.2378,-76.1846 -12.0654,-23.6138 -39.98829,-23.6138 -28.6123,0 -41.19482,23.2691 -12.41016,23.269 -12.41016,76.5293 0,51.709 12.58252,75.6675 12.75489,23.9585 40.33301,23.9585 27.40574,0 40.16064,-24.4756 12.7549,-24.4756 12.7549,-75.1504 z"
     id="path1320"
     style="fill:#ececec;fill-opacity:1" /></g>
 <g
   aria-label="1000"
   id="text172"
   class="SVGTextShape"
   style="fill:#ececec;fill-opacity:1"><path
     d="m 347.88867,498 v -26.37158 h 61.87842 v -186.8418 l -54.81152,39.12647 v -29.30176 l 57.39697,-39.47119 h 28.6123 v 216.48828 h 59.12061 V 498 Z"
     id="path1323"
     style="fill:#ececec;fill-opacity:1" /><path
     d="m 699.85449,376.48389 q 0,60.84423 -21.54541,92.90381 -21.37304,32.05957 -63.25732,32.05957 -41.88428,0 -62.9126,-31.88721 -21.02832,-31.88721 -21.02832,-93.07617 0,-62.56787 20.33887,-93.76563 20.51123,-31.19775 64.63623,-31.19775 42.91845,0 63.25732,31.54248 20.51123,31.54248 20.51123,93.4209 z m -31.54248,0 q 0,-52.5708 -12.23779,-76.18457 -12.06543,-23.61377 -39.98828,-23.61377 -28.61231,0 -41.19483,23.26904 -12.41015,23.26904 -12.41015,76.5293 0,51.70898 12.58252,75.66748 12.75488,23.95849 40.333,23.95849 27.40577,0 40.16065,-24.47558 12.75488,-24.47559 12.75488,-75.15039 z"
     id="path1325"
     style="fill:#ececec;fill-opacity:1" /><path
     d="m 896.17627,376.48389 q 0,60.84423 -21.54541,92.90381 -21.37305,32.05957 -63.25732,32.05957 -41.88428,0 -62.9126,-31.88721 -21.02832,-31.88721 -21.02832,-93.07617 0,-62.56787 20.33886,-93.76563 20.51123,-31.19775 64.63623,-31.19775 42.91846,0 63.25733,31.54248 20.51123,31.54248 20.51123,93.4209 z m -31.54248,0 q 0,-52.5708 -12.23779,-76.18457 -12.06543,-23.61377 -39.98829,-23.61377 -28.6123,0 -41.19482,23.26904 -12.41016,23.26904 -12.41016,76.5293 0,51.70898 12.58252,75.66748 12.75489,23.95849 40.33301,23.95849 27.40576,0 40.16065,-24.47558 12.75488,-24.47559 12.75488,-75.15039 z"
     id="path1327"
     style="fill:#ececec;fill-opacity:1" /><path
     d="m 1092.498,376.48389 q 0,60.84423 -21.5454,92.90381 -21.373,32.05957 -63.2573,32.05957 -41.88426,0 -62.91259,-31.88721 -21.02832,-31.88721 -21.02832,-93.07617 0,-62.56787 20.33887,-93.76563 20.51123,-31.19775 64.63624,-31.19775 42.9184,0 63.2573,31.54248 20.5112,31.54248 20.5112,93.4209 z m -31.5424,0 q 0,-52.5708 -12.2378,-76.18457 -12.0655,-23.61377 -39.9883,-23.61377 -28.61231,0 -41.19483,23.26904 -12.41016,23.26904 -12.41016,76.5293 0,51.70898 12.58252,75.66748 12.75488,23.95849 40.33297,23.95849 27.4058,0 40.1607,-24.47558 12.7549,-24.47559 12.7549,-75.15039 z"
     id="path1329"
     style="fill:#ececec;fill-opacity:1" /></g>
</svg>
