<?xml version="1.0" encoding="UTF-8" standalone="no"?>
<svg
   xmlns:dc="http://purl.org/dc/elements/1.1/"
   xmlns:cc="http://creativecommons.org/ns#"
   xmlns:rdf="http://www.w3.org/1999/02/22-rdf-syntax-ns#"
   xmlns:svg="http://www.w3.org/2000/svg"
   xmlns="http://www.w3.org/2000/svg"
   xmlns:sodipodi="http://sodipodi.sourceforge.net/DTD/sodipodi-0.dtd"
   xmlns:inkscape="http://www.inkscape.org/namespaces/inkscape"
   width="160mm"
   height="90mm"
   viewBox="0 0 16000 9000"
   version="1.1"
   stroke-width="28.222"
   stroke-linejoin="round"
   xml:space="preserve"
   id="svg162"
   sodipodi:docname="bevy_round1_static.svg"
   inkscape:version="1.0.1 (3bc2e813f5, 2020-09-07)"><metadata
   id="metadata168"><rdf:RDF><cc:Work
       rdf:about=""><dc:format>image/svg+xml</dc:format><dc:type
         rdf:resource="http://purl.org/dc/dcmitype/StillImage" /></cc:Work></rdf:RDF></metadata><defs
   id="defs166" /><sodipodi:namedview
   pagecolor="#ffffff"
   bordercolor="#666666"
   borderopacity="1"
   objecttolerance="10"
   gridtolerance="10"
   guidetolerance="10"
   inkscape:pageopacity="0"
   inkscape:pageshadow="2"
   inkscape:window-width="1440"
   inkscape:window-height="900"
   id="namedview164"
   showgrid="false"
   inkscape:zoom="1.4239526"
   inkscape:cx="294.24928"
   inkscape:cy="172.64987"
   inkscape:window-x="0"
   inkscape:window-y="0"
   inkscape:window-maximized="1"
   inkscape:current-layer="svg162" />
 
 
 <path
   fill="rgb(0,69,134)"
   stroke="none"
   d="M 10151,8171 L 13836,8171 13836,1421 10151,1421 10151,8171 Z"
   id="path62"
   style="fill:#474747;fill-opacity:1" /><path
   fill="rgb(0,69,134)"
   stroke="none"
   d="M 2783,8171 L 6468,8171 6468,5722 2783,5722 2783,8171 Z"
   id="path64"
   style="fill:#4a96dc;fill-opacity:1" /><path
   fill="none"
   stroke="rgb(179,179,179)"
   stroke-linejoin="round"
   d="M 941,8321 L 941,8171"
   id="path6"
   style="stroke:#ececec;stroke-opacity:1" />
 <path
   fill="none"
   stroke="rgb(179,179,179)"
   stroke-linejoin="round"
   d="M 941,8321 L 941,8171"
   id="path8"
   style="stroke:#ececec;stroke-opacity:1" />
 <path
   fill="none"
   stroke="rgb(179,179,179)"
   stroke-linejoin="round"
   d="M 8309,8321 L 8309,8171"
   id="path10"
   style="stroke:#ececec;stroke-opacity:1" />
 <path
   fill="none"
   stroke="rgb(179,179,179)"
   stroke-linejoin="round"
   d="M 8309,8321 L 8309,8171"
   id="path12"
   style="stroke:#ececec;stroke-opacity:1" />
 <path
   fill="none"
   stroke="rgb(179,179,179)"
   stroke-linejoin="round"
   d="M 15679,8321 L 15679,8171"
   id="path14"
   style="stroke:#ececec;stroke-opacity:1" />
 <path
   fill="none"
   stroke="rgb(179,179,179)"
   stroke-linejoin="round"
   d="M 15679,8321 L 15679,8171"
   id="path16"
   style="stroke:#ececec;stroke-opacity:1" />
 <path
   fill="none"
   stroke="rgb(179,179,179)"
   stroke-linejoin="round"
   d="M 941,8171 L 15679,8171"
   id="path18"
   style="stroke:#ececec;stroke-opacity:1" />
 <path
   fill="none"
   stroke="rgb(179,179,179)"
   stroke-linejoin="round"
   d="M 791,8171 L 941,8171"
   id="path20"
   style="stroke:#ececec;stroke-opacity:1" />
 <path
   fill="none"
   stroke="rgb(179,179,179)"
   stroke-linejoin="round"
   d="M 791,8171 L 941,8171"
   id="path22"
   style="stroke:#ececec;stroke-opacity:1" />
 <path
   fill="none"
   stroke="rgb(179,179,179)"
   stroke-linejoin="round"
   d="M 791,7305 L 941,7305"
   id="path24"
   style="stroke:#ececec;stroke-opacity:1" />
 <path
   fill="none"
   stroke="rgb(179,179,179)"
   stroke-linejoin="round"
   d="M 791,7305 L 941,7305"
   id="path26"
   style="stroke:#ececec;stroke-opacity:1" />
 <path
   fill="none"
   stroke="rgb(179,179,179)"
   stroke-linejoin="round"
   d="M 791,6439 L 941,6439"
   id="path28"
   style="stroke:#ececec;stroke-opacity:1" />
 <path
   fill="none"
   stroke="rgb(179,179,179)"
   stroke-linejoin="round"
   d="M 791,6439 L 941,6439"
   id="path30"
   style="stroke:#ececec;stroke-opacity:1" />
 <path
   fill="none"
   stroke="rgb(179,179,179)"
   stroke-linejoin="round"
   d="M 791,5573 L 941,5573"
   id="path32"
   style="stroke:#ececec;stroke-opacity:1" />
 <path
   fill="none"
   stroke="rgb(179,179,179)"
   stroke-linejoin="round"
   d="M 791,5573 L 941,5573"
   id="path34"
   style="stroke:#ececec;stroke-opacity:1" />
 <path
   fill="none"
   stroke="rgb(179,179,179)"
   stroke-linejoin="round"
   d="M 791,4707 L 941,4707"
   id="path36"
   style="stroke:#ececec;stroke-opacity:1" />
 <path
   fill="none"
   stroke="rgb(179,179,179)"
   stroke-linejoin="round"
   d="M 791,4707 L 941,4707"
   id="path38"
   style="stroke:#ececec;stroke-opacity:1" />
 <path
   fill="none"
   stroke="rgb(179,179,179)"
   stroke-linejoin="round"
   d="M 791,3842 L 941,3842"
   id="path40"
   style="stroke:#ececec;stroke-opacity:1" />
 <path
   fill="none"
   stroke="rgb(179,179,179)"
   stroke-linejoin="round"
   d="M 791,3842 L 941,3842"
   id="path42"
   style="stroke:#ececec;stroke-opacity:1" />
 <path
   fill="none"
   stroke="rgb(179,179,179)"
   stroke-linejoin="round"
   d="M 791,2976 L 941,2976"
   id="path44"
   style="stroke:#ececec;stroke-opacity:1" />
 <path
   fill="none"
   stroke="rgb(179,179,179)"
   stroke-linejoin="round"
   d="M 791,2976 L 941,2976"
   id="path46"
   style="stroke:#ececec;stroke-opacity:1" />
 <path
   fill="none"
   stroke="rgb(179,179,179)"
   stroke-linejoin="round"
   d="M 791,2110 L 941,2110"
   id="path48"
   style="stroke:#ececec;stroke-opacity:1" />
 <path
   fill="none"
   stroke="rgb(179,179,179)"
   stroke-linejoin="round"
   d="M 791,2110 L 941,2110"
   id="path50"
   style="stroke:#ececec;stroke-opacity:1" />
 <path
   fill="none"
   stroke="rgb(179,179,179)"
   stroke-linejoin="round"
   d="M 791,1244 L 941,1244"
   id="path52"
   style="stroke:#ececec;stroke-opacity:1" />
 <path
   fill="none"
   stroke="rgb(179,179,179)"
   stroke-linejoin="round"
   d="M 791,1244 L 941,1244"
   id="path54"
   style="stroke:#ececec;stroke-opacity:1" />
 <path
   fill="none"
   stroke="rgb(179,179,179)"
   stroke-linejoin="round"
   d="M 791,378 L 941,378"
   id="path56"
   style="stroke:#ececec;stroke-opacity:1" />
 <path
   fill="none"
   stroke="rgb(179,179,179)"
   stroke-linejoin="round"
   d="M 791,378 L 941,378"
   id="path58"
   style="stroke:#ececec;stroke-opacity:1" />
 <path
   fill="none"
   stroke="rgb(179,179,179)"
   stroke-linejoin="round"
   d="M 941,8171 L 941,378"
   id="path60"
   style="stroke:#ececec;stroke-opacity:1" />
 
 
 <g
   aria-label="Bevy 0.4"
   id="text72"
   style="fill:#ececec;fill-opacity:1"
   class="TextShape"><path
     d="m 4153.833,8670.5718 q 0,32.4043 -23.6138,50.5024 Q 4106.6055,8739 4064.5488,8739 h -98.5918 v -242.8599 h 88.25 q 85.4922,0 85.4922,58.9483 0,21.5454 -12.0654,36.1963 -12.0654,14.6508 -34.1279,19.6494 28.957,3.4472 44.642,19.477 15.6851,15.8575 15.6851,40.1607 z m -47.2275,-111.5191 q 0,-19.6494 -13.4444,-28.0952 -13.4443,-8.4458 -38.9541,-8.4458 h -55.3286 v 76.874 h 55.3286 q 26.3716,0 39.2989,-9.8247 13.0996,-9.997 13.0996,-30.5083 z m 13.9614,108.9336 q 0,-42.9184 -60.3272,-42.9184 h -61.3613 v 87.5605 h 63.9468 q 30.1636,0 43.9526,-11.2036 13.7891,-11.2036 13.7891,-33.4385 z"
     style="fill:#ececec;fill-opacity:1;stroke:none"
     id="path1039" /><path
     d="m 4220.0205,8652.3013 q 0,32.0595 13.272,49.4682 13.272,17.4087 38.7817,17.4087 20.1665,0 32.232,-8.1011 12.2377,-8.101 16.5468,-20.5112 l 27.2334,7.7564 q -16.7192,44.125 -76.0122,44.125 -41.3672,0 -63.0849,-24.648 -21.5455,-24.6479 -21.5455,-73.2544 0,-46.1933 21.5455,-70.8413 21.7177,-24.6479 61.8784,-24.6479 82.2173,0 82.2173,99.1089 v 4.1367 z m 101.0049,-23.7862 q -2.5855,-29.4741 -14.9956,-42.9184 -12.4102,-13.6167 -35.6792,-13.6167 -22.5796,0 -35.8516,15.1679 -13.0996,14.9957 -14.1338,41.3672 z"
     style="fill:#ececec;fill-opacity:1;stroke:none"
     id="path1041" /><path
     d="m 4474.4287,8739 h -36.7134 l -67.7387,-186.4971 h 33.0937 l 41.0225,121.3438 q 2.2407,6.8945 11.893,40.8501 l 6.0328,-20.1665 6.7221,-20.3389 42.4014,-121.6885 h 32.9214 z"
     style="fill:#ececec;fill-opacity:1;stroke:none"
     id="path1043" /><path
     d="m 4578.1914,8812.2544 q -12.7549,0 -21.373,-1.896 v -23.269 q 6.5498,1.0341 14.4785,1.0341 28.957,0 45.8486,-42.5737 l 2.9302,-7.4116 -73.9439,-185.6353 h 33.0938 l 39.2988,103.0733 q 0.8618,2.4131 2.0684,5.8603 1.2065,3.2749 7.7563,22.4073 6.5498,19.1323 7.0669,21.373 l 12.0654,-33.9556 40.8501,-118.7583 h 32.7491 L 4649.3774,8739 q -11.5483,29.8188 -21.5454,44.2974 -9.997,14.6508 -22.2348,21.7177 -12.0655,7.2393 -27.4058,7.2393 z"
     style="fill:#ececec;fill-opacity:1;stroke:none"
     id="path1045" /><path
     d="m 5002.3774,8617.4839 q 0,60.8442 -21.5454,92.9038 -21.373,32.0596 -63.2573,32.0596 -41.8843,0 -62.9126,-31.8872 -21.0283,-31.8872 -21.0283,-93.0762 0,-62.5679 20.3389,-93.7656 20.5112,-31.1978 64.6362,-31.1978 42.9184,0 63.2573,31.5425 20.5112,31.5425 20.5112,93.4209 z m -31.5424,0 q 0,-52.5708 -12.2378,-76.1846 -12.0655,-23.6138 -39.9883,-23.6138 -28.6123,0 -41.1948,23.2691 -12.4102,23.269 -12.4102,76.5293 0,51.709 12.5825,75.6675 12.7549,23.9585 40.333,23.9585 27.4058,0 40.1607,-24.4756 12.7549,-24.4756 12.7549,-75.1504 z"
     style="fill:#ececec;fill-opacity:1;stroke:none"
     id="path1047" /><path
     d="m 5048.3984,8739 v -37.7476 h 33.6109 V 8739 Z"
     style="fill:#ececec;fill-opacity:1;stroke:none"
     id="path1049" /><path
     d="M 5266.0933,8684.0161 V 8739 h -29.3018 v -54.9839 h -114.4492 v -24.1308 l 111.1743,-163.7452 h 32.5767 v 163.4004 h 34.1279 v 24.4756 z m -29.3018,-152.8862 q -0.3447,1.0342 -4.8262,9.1352 -4.4814,8.1011 -6.7221,11.376 l -62.2232,91.6973 -9.3076,12.7549 -2.7578,3.4472 h 85.8369 z"
     style="fill:#ececec;fill-opacity:1;stroke:none"
     id="path1051" /></g>
 <g
   aria-label="Bevy 0.3"
   id="text80"
   style="fill:#ececec;fill-opacity:1"
   class="TextShape"><path
     d="m 11523.833,8670.5718 q 0,32.4043 -23.614,50.5024 -23.614,17.9258 -65.67,17.9258 h -98.592 v -242.8599 h 88.25 q 85.492,0 85.492,58.9483 0,21.5454 -12.065,36.1963 -12.066,14.6508 -34.128,19.6494 28.957,3.4472 44.642,19.477 15.685,15.8575 15.685,40.1607 z m -47.228,-111.5191 q 0,-19.6494 -13.444,-28.0952 -13.444,-8.4458 -38.954,-8.4458 h -55.329 v 76.874 h 55.329 q 26.372,0 39.299,-9.8247 13.099,-9.997 13.099,-30.5083 z m 13.962,108.9336 q 0,-42.9184 -60.327,-42.9184 h -61.362 v 87.5605 h 63.947 q 30.164,0 43.953,-11.2036 13.789,-11.2036 13.789,-33.4385 z"
     style="fill:#ececec;fill-opacity:1;stroke:none"
     id="path1054" /><path
     d="m 11590.021,8652.3013 q 0,32.0595 13.271,49.4682 13.272,17.4087 38.782,17.4087 20.167,0 32.232,-8.1011 12.238,-8.101 16.547,-20.5112 l 27.233,7.7564 q -16.719,44.125 -76.012,44.125 -41.367,0 -63.085,-24.648 -21.545,-24.6479 -21.545,-73.2544 0,-46.1933 21.545,-70.8413 21.718,-24.6479 61.879,-24.6479 82.217,0 82.217,99.1089 v 4.1367 z m 101.004,-23.7862 q -2.585,-29.4741 -14.995,-42.9184 -12.41,-13.6167 -35.679,-13.6167 -22.58,0 -35.852,15.1679 -13.1,14.9957 -14.134,41.3672 z"
     style="fill:#ececec;fill-opacity:1;stroke:none"
     id="path1056" /><path
     d="m 11844.429,8739 h -36.714 l -67.738,-186.4971 h 33.093 l 41.023,121.3438 q 2.24,6.8945 11.893,40.8501 l 6.033,-20.1665 6.722,-20.3389 42.401,-121.6885 h 32.921 z"
     style="fill:#ececec;fill-opacity:1;stroke:none"
     id="path1058" /><path
     d="m 11948.191,8812.2544 q -12.754,0 -21.373,-1.896 v -23.269 q 6.55,1.0341 14.479,1.0341 28.957,0 45.849,-42.5737 l 2.93,-7.4116 -73.944,-185.6353 h 33.094 l 39.298,103.0733 q 0.862,2.4131 2.069,5.8603 1.206,3.2749 7.756,22.4073 6.55,19.1323 7.067,21.373 l 12.065,-33.9556 40.851,-118.7583 h 32.749 L 12019.377,8739 q -11.548,29.8188 -21.545,44.2974 -9.997,14.6508 -22.235,21.7177 -12.065,7.2393 -27.406,7.2393 z"
     style="fill:#ececec;fill-opacity:1;stroke:none"
     id="path1060" /><path
     d="m 12372.377,8617.4839 q 0,60.8442 -21.545,92.9038 -21.373,32.0596 -63.257,32.0596 -41.885,0 -62.913,-31.8872 -21.028,-31.8872 -21.028,-93.0762 0,-62.5679 20.339,-93.7656 20.511,-31.1978 64.636,-31.1978 42.918,0 63.257,31.5425 20.511,31.5425 20.511,93.4209 z m -31.542,0 q 0,-52.5708 -12.238,-76.1846 -12.065,-23.6138 -39.988,-23.6138 -28.612,0 -41.195,23.2691 -12.41,23.269 -12.41,76.5293 0,51.709 12.582,75.6675 12.755,23.9585 40.333,23.9585 27.406,0 40.161,-24.4756 12.755,-24.4756 12.755,-75.1504 z"
     style="fill:#ececec;fill-opacity:1;stroke:none"
     id="path1062" /><path
     d="m 12418.398,8739 v -37.7476 h 33.611 V 8739 Z"
     style="fill:#ececec;fill-opacity:1;stroke:none"
     id="path1064" /><path
     d="m 12665.05,8671.9507 q 0,33.6108 -21.373,52.0537 -21.373,18.4429 -61.016,18.4429 -36.886,0 -58.949,-16.5469 -21.89,-16.7192 -26.026,-49.2959 l 32.059,-2.9302 q 6.205,43.0908 52.916,43.0908 23.441,0 36.713,-11.5483 13.444,-11.5483 13.444,-34.3003 0,-19.8218 -15.34,-30.853 -15.168,-11.2036 -43.953,-11.2036 h -17.581 v -26.8887 h 16.892 q 25.51,0 39.471,-11.0313 14.134,-11.2036 14.134,-30.853 0,-19.477 -11.548,-30.6806 -11.376,-11.376 -33.956,-11.376 -20.511,0 -33.266,10.5141 -12.583,10.5142 -14.651,29.6465 l -31.198,-2.4131 q 3.448,-29.8188 24.648,-46.5381 21.373,-16.7192 54.812,-16.7192 36.541,0 56.707,17.064 20.339,16.8916 20.339,47.2275 0,23.2691 -13.099,37.9199 -12.928,14.4785 -37.748,19.6494 v 0.6895 q 27.233,2.9302 42.401,18.2705 15.168,15.3403 15.168,38.6094 z"
     style="fill:#ececec;fill-opacity:1;stroke:none"
     id="path1066" /></g>
 <g
   aria-label="0"
   id="text88"
   class="TextShape"
   style="fill:#ececec;fill-opacity:1"><path
     d="m 688.53271,8170.4839 q 0,60.8442 -21.54541,92.9038 -21.37304,32.0596 -63.25732,32.0596 -41.88428,0 -62.9126,-31.8872 -21.02832,-31.8872 -21.02832,-93.0762 0,-62.5679 20.33887,-93.7656 20.51123,-31.1978 64.63623,-31.1978 42.91846,0 63.25732,31.5425 20.51123,31.5425 20.51123,93.4209 z m -31.54248,0 q 0,-52.5708 -12.23779,-76.1846 -12.06543,-23.6138 -39.98828,-23.6138 -28.6123,0 -41.19482,23.2691 -12.41016,23.269 -12.41016,76.5293 0,51.709 12.58252,75.6675 12.75488,23.9585 40.33301,23.9585 27.40576,0 40.16064,-24.4756 12.75488,-24.4756 12.75488,-75.1504 z"
     style="fill:#ececec;stroke:none;fill-opacity:1"
     id="path993" /></g>
 <g
   aria-label="5"
   id="text96"
   class="TextShape"
   style="fill:#ececec;fill-opacity:1"><path
     d="m 687.49854,7346.8853 q 0,38.437 -22.92432,60.4995 -22.75195,22.0625 -63.25733,22.0625 -33.95556,0 -54.81152,-14.8233 -20.85596,-14.8232 -26.37158,-42.9184 l 31.37012,-3.6197 q 9.8247,36.024 50.50244,36.024 24.99267,0 39.12646,-14.9956 14.13379,-15.168 14.13379,-41.5396 0,-22.9243 -14.30615,-37.0581 -14.13379,-14.1338 -38.26465,-14.1338 -12.58252,0 -23.44141,3.9644 -10.85888,3.9643 -21.71777,13.4443 h -30.33594 l 8.10108,-130.6514 h 138.06299 v 26.3716 H 563.56934 l -4.65381,77.0464 q 20.1665,-15.5127 50.15771,-15.5127 35.85156,0 57.05225,21.0283 21.37305,21.0284 21.37305,54.8116 z"
     style="fill:#ececec;stroke:none;fill-opacity:1"
     id="path996" /></g>
 <g
   aria-label="10"
   id="text104"
   class="TextShape"
   style="fill:#ececec;fill-opacity:1"><path
     d="m 347.88867,6560 v -26.3716 h 61.87842 v -186.8418 l -54.81152,39.1265 v -29.3018 l 57.39697,-39.4712 h 28.6123 v 216.4883 h 59.12061 V 6560 Z"
     style="fill:#ececec;stroke:none;fill-opacity:1"
     id="path999" /><path
     d="m 699.85449,6438.4839 q 0,60.8442 -21.54541,92.9038 -21.37304,32.0596 -63.25732,32.0596 -41.88428,0 -62.9126,-31.8872 -21.02832,-31.8872 -21.02832,-93.0762 0,-62.5679 20.33887,-93.7656 20.51123,-31.1978 64.63623,-31.1978 42.91845,0 63.25732,31.5425 20.51123,31.5425 20.51123,93.4209 z m -31.54248,0 q 0,-52.5708 -12.23779,-76.1846 -12.06543,-23.6138 -39.98828,-23.6138 -28.61231,0 -41.19483,23.2691 -12.41015,23.269 -12.41015,76.5293 0,51.709 12.58252,75.6675 12.75488,23.9585 40.333,23.9585 27.40577,0 40.16065,-24.4756 12.75488,-24.4756 12.75488,-75.1504 z"
     style="fill:#ececec;stroke:none;fill-opacity:1"
     id="path1001" /></g>
 <g
   aria-label="15"
   id="text112"
   class="TextShape"
   style="fill:#ececec;fill-opacity:1"><path
     d="m 347.88867,5694 v -26.3716 h 61.87842 v -186.8418 l -54.81152,39.1265 v -29.3018 l 57.39697,-39.4712 h 28.6123 v 216.4883 h 59.12061 V 5694 Z"
     style="fill:#ececec;stroke:none;fill-opacity:1"
     id="path1004" /><path
     d="m 698.82031,5614.8853 q 0,38.437 -22.92431,60.4995 -22.75196,22.0625 -63.25733,22.0625 -33.95556,0 -54.81152,-14.8233 -20.85596,-14.8232 -26.37158,-42.9184 l 31.37011,-3.6197 q 9.82471,36.024 50.50244,36.024 24.99268,0 39.12647,-14.9956 14.13379,-15.168 14.13379,-41.5396 0,-22.9243 -14.30615,-37.0581 -14.13379,-14.1338 -38.26465,-14.1338 -12.58252,0 -23.44141,3.9644 -10.85888,3.9643 -21.71777,13.4443 h -30.33594 l 8.10108,-130.6514 h 138.06298 v 26.3716 H 574.89111 l -4.65381,77.0464 q 20.16651,-15.5127 50.15772,-15.5127 35.85156,0 57.05225,21.0283 21.37304,21.0284 21.37304,54.8116 z"
     style="fill:#ececec;stroke:none;fill-opacity:1"
     id="path1006" /></g>
 <g
   aria-label="20"
   id="text120"
   class="TextShape"
   style="fill:#ececec;fill-opacity:1"><path
     d="m 338.75342,4828 v -21.8901 q 8.79053,-20.1665 21.37304,-35.5069 12.75489,-15.5127 26.71631,-27.9228 13.96143,-12.5825 27.57813,-23.2691 13.78906,-10.6865 24.82031,-21.373 11.03125,-10.6865 17.75342,-22.4072 6.89453,-11.7207 6.89453,-26.544 0,-19.9941 -11.7207,-31.0254 -11.72071,-11.0312 -32.57666,-11.0312 -19.82178,0 -32.74903,10.8589 -12.75488,10.6865 -14.9956,30.1635 l -31.71485,-2.9301 q 3.44727,-29.1294 24.64795,-46.3658 21.37305,-17.2363 54.81153,-17.2363 36.71338,0 56.36279,17.4087 19.82178,17.2363 19.82178,49.1235 0,14.1338 -6.54981,28.0952 -6.37744,13.9615 -19.13232,27.9229 -12.75488,13.9614 -48.77881,43.2632 -19.82178,16.2021 -31.54248,29.3017 -11.7207,12.9273 -16.8916,24.9927 H 499.56836 V 4828 Z"
     style="fill:#ececec;stroke:none;fill-opacity:1"
     id="path1009" /><path
     d="m 699.85449,4706.4839 q 0,60.8442 -21.54541,92.9038 -21.37304,32.0596 -63.25732,32.0596 -41.88428,0 -62.9126,-31.8872 -21.02832,-31.8872 -21.02832,-93.0762 0,-62.5679 20.33887,-93.7656 20.51123,-31.1978 64.63623,-31.1978 42.91845,0 63.25732,31.5425 20.51123,31.5425 20.51123,93.4209 z m -31.54248,0 q 0,-52.5708 -12.23779,-76.1846 -12.06543,-23.6138 -39.98828,-23.6138 -28.61231,0 -41.19483,23.2691 -12.41015,23.269 -12.41015,76.5293 0,51.709 12.58252,75.6675 12.75488,23.9585 40.333,23.9585 27.40577,0 40.16065,-24.4756 12.75488,-24.4756 12.75488,-75.1504 z"
     style="fill:#ececec;stroke:none;fill-opacity:1"
     id="path1011" /></g>
 <g
   aria-label="25"
   id="text128"
   class="TextShape"
   style="fill:#ececec;fill-opacity:1"><path
     d="m 338.75342,3962 v -21.8901 q 8.79053,-20.1665 21.37304,-35.5069 12.75489,-15.5127 26.71631,-27.9228 13.96143,-12.5825 27.57813,-23.2691 13.78906,-10.6865 24.82031,-21.373 11.03125,-10.6865 17.75342,-22.4072 6.89453,-11.7207 6.89453,-26.544 0,-19.9941 -11.7207,-31.0254 -11.72071,-11.0312 -32.57666,-11.0312 -19.82178,0 -32.74903,10.8589 -12.75488,10.6865 -14.9956,30.1635 l -31.71485,-2.9301 q 3.44727,-29.1294 24.64795,-46.3658 21.37305,-17.2363 54.81153,-17.2363 36.71338,0 56.36279,17.4087 19.82178,17.2363 19.82178,49.1235 0,14.1338 -6.54981,28.0952 -6.37744,13.9615 -19.13232,27.9229 -12.75488,13.9614 -48.77881,43.2632 -19.82178,16.2021 -31.54248,29.3017 -11.7207,12.9273 -16.8916,24.9927 H 499.56836 V 3962 Z"
     style="fill:#ececec;stroke:none;fill-opacity:1"
     id="path1014" /><path
     d="m 698.82031,3882.8853 q 0,38.437 -22.92431,60.4995 -22.75196,22.0625 -63.25733,22.0625 -33.95556,0 -54.81152,-14.8233 -20.85596,-14.8232 -26.37158,-42.9184 l 31.37011,-3.6197 q 9.82471,36.024 50.50244,36.024 24.99268,0 39.12647,-14.9956 14.13379,-15.168 14.13379,-41.5396 0,-22.9243 -14.30615,-37.0581 -14.13379,-14.1338 -38.26465,-14.1338 -12.58252,0 -23.44141,3.9644 -10.85888,3.9643 -21.71777,13.4443 h -30.33594 l 8.10108,-130.6514 h 138.06298 v 26.3716 H 574.89111 l -4.65381,77.0464 q 20.16651,-15.5127 50.15772,-15.5127 35.85156,0 57.05225,21.0283 21.37304,21.0284 21.37304,54.8116 z"
     style="fill:#ececec;stroke:none;fill-opacity:1"
     id="path1016" /></g>
 <g
   aria-label="30"
   id="text136"
   class="TextShape"
   style="fill:#ececec;fill-opacity:1"><path
     d="m 501.80908,3028.9507 q 0,33.6108 -21.37304,52.0537 -21.37305,18.4429 -61.01661,18.4429 -36.88574,0 -58.94824,-16.5469 -21.89014,-16.7192 -26.02685,-49.2959 l 32.05957,-2.9302 q 6.20507,43.0908 52.91552,43.0908 23.44141,0 36.71338,-11.5483 13.44434,-11.5483 13.44434,-34.3003 0,-19.8218 -15.34033,-30.853 -15.16797,-11.2036 -43.95264,-11.2036 h -17.58106 v -26.8887 h 16.89161 q 25.50976,0 39.47119,-11.0313 14.13379,-11.2036 14.13379,-30.853 0,-19.477 -11.54834,-30.6806 -11.37598,-11.376 -33.95557,-11.376 -20.51123,0 -33.26611,10.5141 -12.58252,10.5142 -14.65088,29.6465 l -31.19776,-2.4131 q 3.44727,-29.8188 24.64795,-46.5381 21.37305,-16.7192 54.81153,-16.7192 36.54101,0 56.70752,17.064 20.33886,16.8916 20.33886,47.2275 0,23.2691 -13.09961,37.9199 -12.92724,14.4785 -37.74755,19.6494 v 0.6895 q 27.23339,2.9302 42.40136,18.2705 15.16797,15.3403 15.16797,38.6094 z"
     style="fill:#ececec;stroke:none;fill-opacity:1"
     id="path1019" /><path
     d="m 699.85449,2974.4839 q 0,60.8442 -21.54541,92.9038 -21.37304,32.0596 -63.25732,32.0596 -41.88428,0 -62.9126,-31.8872 -21.02832,-31.8872 -21.02832,-93.0762 0,-62.5679 20.33887,-93.7656 20.51123,-31.1978 64.63623,-31.1978 42.91845,0 63.25732,31.5425 20.51123,31.5425 20.51123,93.4209 z m -31.54248,0 q 0,-52.5708 -12.23779,-76.1846 -12.06543,-23.6138 -39.98828,-23.6138 -28.61231,0 -41.19483,23.2691 -12.41015,23.269 -12.41015,76.5293 0,51.709 12.58252,75.6675 12.75488,23.9585 40.333,23.9585 27.40577,0 40.16065,-24.4756 12.75488,-24.4756 12.75488,-75.1504 z"
     style="fill:#ececec;stroke:none;fill-opacity:1"
     id="path1021" /></g>
 <g
   aria-label="35"
   id="text144"
   class="TextShape"
   style="fill:#ececec;fill-opacity:1"><path
     d="m 501.80908,2162.9507 q 0,33.6108 -21.37304,52.0537 -21.37305,18.4429 -61.01661,18.4429 -36.88574,0 -58.94824,-16.5469 -21.89014,-16.7192 -26.02685,-49.2959 l 32.05957,-2.9302 q 6.20507,43.0908 52.91552,43.0908 23.44141,0 36.71338,-11.5483 13.44434,-11.5483 13.44434,-34.3003 0,-19.8218 -15.34033,-30.853 -15.16797,-11.2036 -43.95264,-11.2036 h -17.58106 v -26.8887 h 16.89161 q 25.50976,0 39.47119,-11.0313 14.13379,-11.2036 14.13379,-30.853 0,-19.477 -11.54834,-30.6806 -11.37598,-11.376 -33.95557,-11.376 -20.51123,0 -33.26611,10.5141 -12.58252,10.5142 -14.65088,29.6465 l -31.19776,-2.4131 q 3.44727,-29.8188 24.64795,-46.5381 21.37305,-16.7192 54.81153,-16.7192 36.54101,0 56.70752,17.064 20.33886,16.8916 20.33886,47.2275 0,23.2691 -13.09961,37.9199 -12.92724,14.4785 -37.74755,19.6494 v 0.6895 q 27.23339,2.9302 42.40136,18.2705 15.16797,15.3403 15.16797,38.6094 z"
     style="fill:#ececec;stroke:none;fill-opacity:1"
     id="path1024" /><path
     d="m 698.82031,2150.8853 q 0,38.437 -22.92431,60.4995 -22.75196,22.0625 -63.25733,22.0625 -33.95556,0 -54.81152,-14.8233 -20.85596,-14.8232 -26.37158,-42.9184 l 31.37011,-3.6197 q 9.82471,36.024 50.50244,36.024 24.99268,0 39.12647,-14.9956 14.13379,-15.168 14.13379,-41.5396 0,-22.9243 -14.30615,-37.0581 -14.13379,-14.1338 -38.26465,-14.1338 -12.58252,0 -23.44141,3.9644 -10.85888,3.9643 -21.71777,13.4443 h -30.33594 l 8.10108,-130.6514 h 138.06298 v 26.3716 H 574.89111 l -4.65381,77.0464 q 20.16651,-15.5127 50.15772,-15.5127 35.85156,0 57.05225,21.0283 21.37304,21.0284 21.37304,54.8116 z"
     style="fill:#ececec;stroke:none;fill-opacity:1"
     id="path1026" /></g>
 <g
   aria-label="40"
   id="text152"
   class="TextShape"
   style="fill:#ececec;fill-opacity:1"><path
     d="M 472.85205,1309.0161 V 1364 h -29.30176 v -54.9839 H 329.10107 v -24.1308 l 111.17432,-163.7452 h 32.57666 v 163.4004 h 34.12793 v 24.4756 z m -29.30176,-152.8862 q -0.34472,1.0342 -4.82617,9.1352 -4.48144,8.1011 -6.72217,11.376 l -62.22314,91.6973 -9.30762,12.7549 -2.75781,3.4472 h 85.83691 z"
     style="fill:#ececec;stroke:none;fill-opacity:1"
     id="path1029" /><path
     d="m 699.85449,1242.4839 q 0,60.8442 -21.54541,92.9038 -21.37304,32.0596 -63.25732,32.0596 -41.88428,0 -62.9126,-31.8872 -21.02832,-31.8872 -21.02832,-93.0762 0,-62.5679 20.33887,-93.7656 20.51123,-31.1978 64.63623,-31.1978 42.91845,0 63.25732,31.5425 20.51123,31.5425 20.51123,93.4209 z m -31.54248,0 q 0,-52.5708 -12.23779,-76.1846 -12.06543,-23.6138 -39.98828,-23.6138 -28.61231,0 -41.19483,23.2691 -12.41015,23.269 -12.41015,76.5293 0,51.709 12.58252,75.6675 12.75488,23.9585 40.333,23.9585 27.40577,0 40.16065,-24.4756 12.75488,-24.4756 12.75488,-75.1504 z"
     style="fill:#ececec;stroke:none;fill-opacity:1"
     id="path1031" /></g>
 <g
   aria-label="45"
   id="text160"
   class="TextShape"
   style="fill:#ececec;fill-opacity:1"><path
     d="M 472.85205,443.01611 V 498 H 443.55029 V 443.01611 H 329.10107 V 418.88525 L 440.27539,255.14014 h 32.57666 v 163.40039 h 34.12793 v 24.47558 z M 443.55029,290.12988 q -0.34472,1.03418 -4.82617,9.13526 -4.48144,8.10107 -6.72217,11.37597 l -62.22314,91.69727 -9.30762,12.75488 -2.75781,3.44727 h 85.83691 z"
     style="fill:#ececec;stroke:none;fill-opacity:1"
     id="path1034" /><path
     d="m 698.82031,418.88525 q 0,38.43702 -22.92431,60.49952 -22.75196,22.0625 -63.25733,22.0625 -33.95556,0 -54.81152,-14.82325 -20.85596,-14.82324 -26.37158,-42.91845 l 31.37011,-3.61963 q 9.82471,36.02392 50.50244,36.02392 24.99268,0 39.12647,-14.9956 14.13379,-15.16797 14.13379,-41.53955 0,-22.92432 -14.30615,-37.05811 -14.13379,-14.13379 -38.26465,-14.13379 -12.58252,0 -23.44141,3.96436 -10.85888,3.96435 -21.71777,13.44433 h -30.33594 l 8.10108,-130.65136 h 138.06298 v 26.37158 H 574.89111 l -4.65381,77.04639 q 20.16651,-15.5127 50.15772,-15.5127 35.85156,0 57.05225,21.02832 21.37304,21.02832 21.37304,54.81152 z"
     style="fill:#ececec;stroke:none;fill-opacity:1"
     id="path1036" /></g>
</svg>
