<?xml version="1.0" encoding="UTF-8" standalone="no"?>
<svg
   xmlns:dc="http://purl.org/dc/elements/1.1/"
   xmlns:cc="http://creativecommons.org/ns#"
   xmlns:rdf="http://www.w3.org/1999/02/22-rdf-syntax-ns#"
   xmlns:svg="http://www.w3.org/2000/svg"
   xmlns="http://www.w3.org/2000/svg"
   xmlns:sodipodi="http://sodipodi.sourceforge.net/DTD/sodipodi-0.dtd"
   xmlns:inkscape="http://www.inkscape.org/namespaces/inkscape"
   width="160mm"
   height="90mm"
   viewBox="0 0 16000 9000"
   version="1.1"
   stroke-width="28.222"
   stroke-linejoin="round"
   xml:space="preserve"
   id="svg152"
   sodipodi:docname="fast_compiles.svg"
   inkscape:version="1.0.1 (3bc2e813f5, 2020-09-07)"><metadata
   id="metadata158"><rdf:RDF><cc:Work
       rdf:about=""><dc:format>image/svg+xml</dc:format><dc:type
         rdf:resource="http://purl.org/dc/dcmitype/StillImage" /></cc:Work></rdf:RDF></metadata><defs
   id="defs156" /><sodipodi:namedview
   pagecolor="#ffffff"
   bordercolor="#666666"
   borderopacity="1"
   objecttolerance="10"
   gridtolerance="10"
   guidetolerance="10"
   inkscape:pageopacity="0"
   inkscape:pageshadow="2"
   inkscape:window-width="1440"
   inkscape:window-height="900"
   id="namedview154"
   showgrid="false"
   inkscape:zoom="1.4239526"
   inkscape:cx="316.55982"
   inkscape:cy="163.33723"
   inkscape:window-x="0"
   inkscape:window-y="0"
   inkscape:window-maximized="1"
   inkscape:current-layer="svg152" />
 
 
 <path
   fill="rgb(0,69,134)"
   stroke="none"
   d="M 11948,8171 L 14435,8171 14435,1380 11948,1380 11948,8171 Z"
   id="path58"
   style="fill:#474747;fill-opacity:1" /><path
   fill="rgb(0,69,134)"
   stroke="none"
   d="M 6974,8171 L 9460,8171 9460,6801 6974,6801 6974,8171 Z"
   id="path60"
   style="fill:#474747;fill-opacity:1" /><path
   fill="rgb(0,69,134)"
   stroke="none"
   d="M 1999,8171 L 4487,8171 4487,7692 1999,7692 1999,8171 Z"
   id="path62"
   style="fill:#4a96dc;fill-opacity:1" /><path
   fill="none"
   stroke="rgb(179,179,179)"
   stroke-linejoin="round"
   d="M 756,8321 L 756,8171"
   id="path6"
   style="stroke:#ececec;stroke-opacity:1" />
 <path
   fill="none"
   stroke="rgb(179,179,179)"
   stroke-linejoin="round"
   d="M 756,8321 L 756,8171"
   id="path8"
   style="stroke:#ececec;stroke-opacity:1" />
 <path
   fill="none"
   stroke="rgb(179,179,179)"
   stroke-linejoin="round"
   d="M 5730,8321 L 5730,8171"
   id="path10"
   style="stroke:#ececec;stroke-opacity:1" />
 <path
   fill="none"
   stroke="rgb(179,179,179)"
   stroke-linejoin="round"
   d="M 5730,8321 L 5730,8171"
   id="path12"
   style="stroke:#ececec;stroke-opacity:1" />
 <path
   fill="none"
   stroke="rgb(179,179,179)"
   stroke-linejoin="round"
   d="M 10704,8321 L 10704,8171"
   id="path14"
   style="stroke:#ececec;stroke-opacity:1" />
 <path
   fill="none"
   stroke="rgb(179,179,179)"
   stroke-linejoin="round"
   d="M 10704,8321 L 10704,8171"
   id="path16"
   style="stroke:#ececec;stroke-opacity:1" />
 <path
   fill="none"
   stroke="rgb(179,179,179)"
   stroke-linejoin="round"
   d="M 15679,8321 L 15679,8171"
   id="path18"
   style="stroke:#ececec;stroke-opacity:1" />
 <path
   fill="none"
   stroke="rgb(179,179,179)"
   stroke-linejoin="round"
   d="M 15679,8321 L 15679,8171"
   id="path20"
   style="stroke:#ececec;stroke-opacity:1" />
 <path
   fill="none"
   stroke="rgb(179,179,179)"
   stroke-linejoin="round"
   d="M 756,8171 L 15679,8171"
   id="path22"
   style="stroke:#ececec;stroke-opacity:1" />
 <path
   fill="none"
   stroke="rgb(179,179,179)"
   stroke-linejoin="round"
   d="M 606,8171 L 756,8171"
   id="path24"
   style="stroke:#ececec;stroke-opacity:1" />
 <path
   fill="none"
   stroke="rgb(179,179,179)"
   stroke-linejoin="round"
   d="M 606,8171 L 756,8171"
   id="path26"
   style="stroke:#ececec;stroke-opacity:1" />
 <path
   fill="none"
   stroke="rgb(179,179,179)"
   stroke-linejoin="round"
   d="M 606,7057 L 756,7057"
   id="path28"
   style="stroke:#ececec;stroke-opacity:1" />
 <path
   fill="none"
   stroke="rgb(179,179,179)"
   stroke-linejoin="round"
   d="M 606,7057 L 756,7057"
   id="path30"
   style="stroke:#ececec;stroke-opacity:1" />
 <path
   fill="none"
   stroke="rgb(179,179,179)"
   stroke-linejoin="round"
   d="M 606,5944 L 756,5944"
   id="path32"
   style="stroke:#ececec;stroke-opacity:1" />
 <path
   fill="none"
   stroke="rgb(179,179,179)"
   stroke-linejoin="round"
   d="M 606,5944 L 756,5944"
   id="path34"
   style="stroke:#ececec;stroke-opacity:1" />
 <path
   fill="none"
   stroke="rgb(179,179,179)"
   stroke-linejoin="round"
   d="M 606,4830 L 756,4830"
   id="path36"
   style="stroke:#ececec;stroke-opacity:1" />
 <path
   fill="none"
   stroke="rgb(179,179,179)"
   stroke-linejoin="round"
   d="M 606,4830 L 756,4830"
   id="path38"
   style="stroke:#ececec;stroke-opacity:1" />
 <path
   fill="none"
   stroke="rgb(179,179,179)"
   stroke-linejoin="round"
   d="M 606,3718 L 756,3718"
   id="path40"
   style="stroke:#ececec;stroke-opacity:1" />
 <path
   fill="none"
   stroke="rgb(179,179,179)"
   stroke-linejoin="round"
   d="M 606,3718 L 756,3718"
   id="path42"
   style="stroke:#ececec;stroke-opacity:1" />
 <path
   fill="none"
   stroke="rgb(179,179,179)"
   stroke-linejoin="round"
   d="M 606,2604 L 756,2604"
   id="path44"
   style="stroke:#ececec;stroke-opacity:1" />
 <path
   fill="none"
   stroke="rgb(179,179,179)"
   stroke-linejoin="round"
   d="M 606,2604 L 756,2604"
   id="path46"
   style="stroke:#ececec;stroke-opacity:1" />
 <path
   fill="none"
   stroke="rgb(179,179,179)"
   stroke-linejoin="round"
   d="M 606,1491 L 756,1491"
   id="path48"
   style="stroke:#ececec;stroke-opacity:1" />
 <path
   fill="none"
   stroke="rgb(179,179,179)"
   stroke-linejoin="round"
   d="M 606,1491 L 756,1491"
   id="path50"
   style="stroke:#ececec;stroke-opacity:1" />
 <path
   fill="none"
   stroke="rgb(179,179,179)"
   stroke-linejoin="round"
   d="M 606,377 L 756,377"
   id="path52"
   style="stroke:#ececec;stroke-opacity:1" />
 <path
   fill="none"
   stroke="rgb(179,179,179)"
   stroke-linejoin="round"
   d="M 606,377 L 756,377"
   id="path54"
   style="stroke:#ececec;stroke-opacity:1" />
 <path
   fill="none"
   stroke="rgb(179,179,179)"
   stroke-linejoin="round"
   d="M 756,8171 L 756,377"
   id="path56"
   style="stroke:#ececec;stroke-opacity:1" />
 
 
 
 <g
   aria-label="dynamic"
   id="text70"
   class="TextShape"
   style="fill:#ececec;fill-opacity:1"><path
     d="m 2736.5103,8709.0088 q -8.6182,17.9258 -22.9244,25.6821 -14.1338,7.7564 -35.1621,7.7564 -35.3344,0 -52.0537,-23.7862 -16.5469,-23.7861 -16.5469,-72.0478 0,-97.5576 68.6006,-97.5576 21.2007,0 35.3345,7.7563 14.1338,7.7564 22.752,24.648 h 0.3447 l -0.3447,-20.856 v -77.3911 h 31.0253 v 217.3501 q 0,29.1294 1.0342,38.437 h -29.6465 q -0.517,-2.7578 -1.2065,-12.7549 -0.5171,-9.9971 -0.5171,-17.2363 z m -94.1104,-63.4297 q 0,39.1265 10.3418,56.0181 10.3418,16.8916 33.6108,16.8916 26.3716,0 38.2647,-18.2705 11.8931,-18.2705 11.8931,-56.7076 0,-37.0581 -11.8931,-54.2944 -11.8931,-17.2363 -37.9199,-17.2363 -23.4414,0 -33.9556,17.4087 -10.3418,17.2363 -10.3418,56.1904 z"
     style="fill:#ececec;stroke:none;fill-opacity:1"
     id="path1007" /><path
     d="m 2824.2432,8812.2544 q -12.7549,0 -21.3731,-1.896 v -23.269 q 6.5498,1.0341 14.4785,1.0341 28.9571,0 45.8487,-42.5737 l 2.9301,-7.4116 -73.9438,-185.6353 h 33.0937 l 39.2989,103.0733 q 0.8618,2.4131 2.0683,5.8603 1.2066,3.2749 7.7564,22.4073 6.5498,19.1323 7.0669,21.373 l 12.0654,-33.9556 40.8501,-118.7583 h 32.749 L 2895.4292,8739 q -11.5483,29.8188 -21.5454,44.2974 -9.9971,14.6508 -22.2349,21.7177 -12.0654,7.2393 -27.4057,7.2393 z"
     style="fill:#ececec;stroke:none;fill-opacity:1"
     id="path1009" /><path
     d="m 3110.0215,8739 v -118.2412 q 0,-18.4429 -3.6196,-28.6123 -3.6197,-10.1694 -11.5484,-14.6509 -7.9287,-4.4814 -23.269,-4.4814 -22.4073,0 -35.3345,15.3403 -12.9272,15.3403 -12.9272,42.5737 V 8739 h -31.0254 v -146.6812 q 0,-32.5766 -1.0342,-39.8159 h 29.3017 q 0.1724,0.8618 0.3448,4.6538 0.1723,3.792 0.3447,8.7906 0.3447,4.8261 0.6894,18.4428 h 0.5171 q 10.6866,-19.3047 24.648,-27.2334 14.1338,-8.101 34.9897,-8.101 30.6807,0 44.8145,15.3403 14.3061,15.168 14.3061,50.3301 V 8739 Z"
     style="fill:#ececec;stroke:none;fill-opacity:1"
     id="path1011" /><path
     d="m 3235.502,8742.4473 q -28.0953,0 -42.2291,-14.8233 -14.1337,-14.8232 -14.1337,-40.6777 0,-28.957 18.9599,-44.4697 19.1323,-15.5127 61.5337,-16.5469 l 41.8843,-0.6895 v -10.1694 q 0,-22.752 -9.6524,-32.5767 -9.6523,-9.8247 -30.3359,-9.8247 -20.8559,0 -30.3359,7.0669 -9.48,7.0669 -11.376,22.5796 l -32.4043,-2.9302 q 7.9287,-50.33 74.8057,-50.33 35.1621,0 52.9155,16.2021 17.7534,16.0298 17.7534,46.5381 v 80.3213 q 0,13.7891 3.6196,20.8559 3.6197,6.8946 13.7891,6.8946 4.4814,0 10.1694,-1.2066 v 19.3047 q -11.7207,2.7578 -23.9585,2.7578 -17.2363,0 -25.165,-8.9629 -7.7564,-9.1352 -8.7905,-28.4399 h -1.0342 q -11.8931,21.373 -27.7505,30.3359 -15.6851,8.7906 -38.2646,8.7906 z m 7.0668,-23.2691 q 17.064,0 30.336,-7.7563 13.272,-7.7564 20.8559,-21.2007 7.7564,-13.6167 7.7564,-27.9229 v -15.3403 l -33.9556,0.6895 q -21.8901,0.3447 -33.2661,4.4814 -11.2036,4.1367 -17.2363,12.7549 -6.0327,8.6182 -6.0327,22.5796 0,15.1679 8.101,23.4414 8.2735,8.2734 23.4414,8.2734 z"
     style="fill:#ececec;stroke:none;fill-opacity:1"
     id="path1013" /><path
     d="m 3492.8403,8739 v -118.2412 q 0,-27.061 -7.4116,-37.4028 -7.4116,-10.3418 -26.7163,-10.3418 -19.8218,0 -31.3701,15.1679 -11.5484,15.168 -11.5484,42.7461 V 8739 h -30.853 v -146.6812 q 0,-32.5766 -1.0342,-39.8159 h 29.3018 q 0.1724,0.8618 0.3447,4.6538 0.1724,3.792 0.3447,8.7906 0.3448,4.8261 0.6895,18.4428 h 0.5171 q 9.9971,-19.8217 22.9243,-27.5781 12.9273,-7.7563 31.5425,-7.7563 21.2007,0 33.4385,8.4458 12.4101,8.4458 17.2363,26.8886 h 0.5171 q 9.6523,-18.7876 23.269,-27.061 13.7891,-8.2734 33.2661,-8.2734 28.2676,0 41.0225,15.3403 12.9272,15.3403 12.9272,50.3301 V 8739 h -30.6806 v -118.2412 q 0,-27.061 -7.4116,-37.4028 -7.4117,-10.3418 -26.7163,-10.3418 -20.3389,0 -31.7149,15.1679 -11.2036,14.9956 -11.2036,42.7461 V 8739 Z"
     style="fill:#ececec;stroke:none;fill-opacity:1"
     id="path1015" /><path
     d="m 3678.1309,8512.8594 v -29.6465 h 31.0254 v 29.6465 z m 0,226.1406 v -186.4971 h 31.0254 V 8739 Z"
     style="fill:#ececec;stroke:none;fill-opacity:1"
     id="path1017" /><path
     d="m 3780.3423,8644.8896 q 0,37.2305 11.7207,55.1563 11.7207,17.9258 35.3345,17.9258 16.5468,0 27.5781,-8.9629 11.2036,-8.9629 13.789,-27.5781 l 31.3702,2.0683 q -3.6197,26.8887 -22.9244,42.9185 -19.3046,16.0298 -48.9511,16.0298 -39.1265,0 -59.8101,-24.648 -20.5112,-24.8203 -20.5112,-72.2202 0,-47.0552 20.6836,-71.7031 20.6836,-24.8203 59.293,-24.8203 28.6123,0 47.3999,14.8232 18.9599,14.8232 23.7861,40.8501 l -31.8872,2.4131 q -2.4131,-15.5127 -12.2378,-24.648 -9.8247,-9.1352 -27.9229,-9.1352 -24.6479,0 -35.6792,16.3745 -11.0312,16.3745 -11.0312,55.1562 z"
     style="fill:#ececec;stroke:none;fill-opacity:1"
     id="path1019" /></g>
 <g
   aria-label="fast_compiles"
   id="text78"
   class="TextShape"
   style="fill:#ececec;fill-opacity:1"><path
     d="M 7208.2231,8575.0825 V 8739 h -31.0253 v -163.9175 h -26.1993 v -22.5796 h 26.1993 v -21.0283 q 0,-25.5098 11.2036,-36.7134 11.2036,-11.2036 34.3003,-11.2036 12.9272,0 21.8901,2.0684 v 23.6137 q -7.7564,-1.3789 -13.7891,-1.3789 -11.893,0 -17.2363,6.0328 -5.3433,6.0327 -5.3433,21.8901 v 16.7192 h 36.3687 v 22.5796 z"
     style="fill:#ececec;stroke:none;fill-opacity:1"
     id="path1022" /><path
     d="m 7315.4331,8742.4473 q -28.0952,0 -42.229,-14.8233 -14.1338,-14.8232 -14.1338,-40.6777 0,-28.957 18.96,-44.4697 19.1323,-15.5127 61.5337,-16.5469 l 41.8842,-0.6895 v -10.1694 q 0,-22.752 -9.6523,-32.5767 -9.6523,-9.8247 -30.3359,-9.8247 -20.856,0 -30.336,7.0669 -9.48,7.0669 -11.376,22.5796 l -32.4043,-2.9302 q 7.9288,-50.33 74.8057,-50.33 35.1621,0 52.9155,16.2021 17.7535,16.0298 17.7535,46.5381 v 80.3213 q 0,13.7891 3.6196,20.8559 3.6196,6.8946 13.7891,6.8946 4.4814,0 10.1694,-1.2066 v 19.3047 q -11.7207,2.7578 -23.9585,2.7578 -17.2363,0 -25.1651,-8.9629 -7.7563,-9.1352 -8.7905,-28.4399 h -1.0342 q -11.893,21.373 -27.7504,30.3359 -15.6851,8.7906 -38.2647,8.7906 z m 7.0669,-23.2691 q 17.064,0 30.3359,-7.7563 13.272,-7.7564 20.856,-21.2007 7.7563,-13.6167 7.7563,-27.9229 v -15.3403 l -33.9555,0.6895 q -21.8902,0.3447 -33.2661,4.4814 -11.2037,4.1367 -17.2364,12.7549 -6.0327,8.6182 -6.0327,22.5796 0,15.1679 8.1011,23.4414 8.2734,8.2734 23.4414,8.2734 z"
     style="fill:#ececec;stroke:none;fill-opacity:1"
     id="path1024" /><path
     d="m 7604.1416,8687.4634 q 0,26.3716 -19.9941,40.6777 -19.8218,14.3062 -55.6734,14.3062 -34.8174,0 -53.7773,-11.376 -18.7876,-11.5484 -24.4756,-35.8516 l 27.4058,-5.3432 q 3.9643,14.9956 16.3745,22.0625 12.4101,6.8945 34.4726,6.8945 23.6138,0 34.4727,-7.2393 11.0312,-7.2392 11.0312,-21.7177 0,-11.0313 -7.584,-17.9258 -7.5839,-6.8945 -24.4755,-11.376 l -22.2349,-5.8603 q -26.7163,-6.8946 -38.0923,-13.4444 -11.2036,-6.7221 -17.581,-16.2021 -6.3775,-9.48 -6.3775,-23.2691 0,-25.5097 18.0982,-38.7817 18.2705,-13.4443 53.0878,-13.4443 30.8531,0 48.9512,10.8588 18.2705,10.8589 23.0967,34.8174 l -27.9229,3.4473 q -2.5854,-12.4102 -13.9614,-18.96 -11.2036,-6.7221 -30.1636,-6.7221 -21.0283,0 -31.0253,6.3774 -9.9971,6.3774 -9.9971,19.3047 0,7.9287 4.1367,13.0996 4.1367,5.1709 12.2378,8.7905 8.1011,3.6197 34.1279,9.9971 24.648,6.2051 35.5069,11.5483 10.8589,5.1709 17.0639,11.5484 6.3775,6.3774 9.8247,14.8232 3.4473,8.2735 3.4473,18.96 z"
     style="fill:#ececec;stroke:none;fill-opacity:1"
     id="path1026" /><path
     d="m 7712.3857,8737.6211 q -15.3403,4.1367 -31.3701,4.1367 -37.2304,0 -37.2304,-42.229 v -124.4463 h -21.5455 v -22.5796 h 22.752 l 9.1353,-41.7119 h 20.6835 v 41.7119 h 34.4727 v 22.5796 h -34.4727 v 117.7241 q 0,13.4444 4.3091,18.96 4.4815,5.3433 15.3404,5.3433 6.205,0 17.9257,-2.4131 z"
     style="fill:#ececec;stroke:none;fill-opacity:1"
     id="path1028" /><path
     d="m 7709.6279,8809.1519 v -22.4073 h 205.6294 v 22.4073 z"
     style="fill:#ececec;stroke:none;fill-opacity:1"
     id="path1030" /><path
     d="m 7958.6929,8644.8896 q 0,37.2305 11.7207,55.1563 11.7207,17.9258 35.3344,17.9258 16.5469,0 27.5782,-8.9629 11.2036,-8.9629 13.789,-27.5781 l 31.3702,2.0683 q -3.6197,26.8887 -22.9244,42.9185 -19.3047,16.0298 -48.9511,16.0298 -39.1265,0 -59.8101,-24.648 -20.5112,-24.8203 -20.5112,-72.2202 0,-47.0552 20.6836,-71.7031 20.6836,-24.8203 59.2929,-24.8203 28.6123,0 47.3999,14.8232 18.96,14.8232 23.7862,40.8501 l -31.8872,2.4131 q -2.4131,-15.5127 -12.2378,-24.648 -9.8247,-9.1352 -27.9229,-9.1352 -24.6479,0 -35.6792,16.3745 -11.0312,16.3745 -11.0312,55.1562 z"
     style="fill:#ececec;stroke:none;fill-opacity:1"
     id="path1032" /><path
     d="m 8269.2915,8645.5791 q 0,48.9512 -21.5454,72.9097 -21.5454,23.9585 -62.5679,23.9585 -40.8501,0 -61.706,-24.8203 -20.856,-24.9927 -20.856,-72.0479 0,-96.5234 83.5962,-96.5234 42.7461,0 62.9126,23.6137 20.1665,23.4414 20.1665,72.9097 z m -32.5767,0 q 0,-38.6094 -11.5483,-56.0181 -11.376,-17.581 -38.437,-17.581 -27.2334,0 -39.4712,17.9258 -12.0654,17.7534 -12.0654,55.6733 0,36.8857 11.893,55.501 12.0655,18.4428 37.7476,18.4428 27.9228,0 39.8159,-17.9257 12.0654,-17.9258 12.0654,-56.0181 z"
     style="fill:#ececec;stroke:none;fill-opacity:1"
     id="path1034" /><path
     d="m 8416.4897,8739 v -118.2412 q 0,-27.061 -7.4116,-37.4028 -7.4116,-10.3418 -26.7163,-10.3418 -19.8218,0 -31.3701,15.1679 -11.5483,15.168 -11.5483,42.7461 V 8739 h -30.8531 v -146.6812 q 0,-32.5766 -1.0341,-39.8159 h 29.3017 q 0.1724,0.8618 0.3447,4.6538 0.1724,3.792 0.3448,8.7906 0.3447,4.8261 0.6894,18.4428 h 0.5171 q 9.9971,-19.8217 22.9243,-27.5781 12.9273,-7.7563 31.5425,-7.7563 21.2007,0 33.4385,8.4458 12.4101,8.4458 17.2363,26.8886 h 0.5171 q 9.6523,-18.7876 23.269,-27.061 13.7891,-8.2734 33.2662,-8.2734 28.2675,0 41.0224,15.3403 12.9273,15.3403 12.9273,50.3301 V 8739 h -30.6807 v -118.2412 q 0,-27.061 -7.4116,-37.4028 -7.4116,-10.3418 -26.7163,-10.3418 -20.3389,0 -31.7149,15.1679 -11.2036,14.9956 -11.2036,42.7461 V 8739 Z"
     style="fill:#ececec;stroke:none;fill-opacity:1"
     id="path1036" /><path
     d="m 8759.665,8644.8896 q 0,97.5577 -68.6005,97.5577 -43.0909,0 -57.9141,-32.4043 h -0.8618 q 0.6894,1.3789 0.6894,29.3017 v 72.9097 h -31.0254 v -221.6592 q 0,-28.7847 -1.0341,-38.0923 h 29.9912 q 0.1723,0.6895 0.5171,4.9986 0.3447,4.1367 0.6894,12.9272 0.5171,8.7905 0.5171,12.0654 h 0.6895 q 8.2734,-17.2363 21.8901,-25.165 13.6167,-8.1011 35.8516,-8.1011 34.4726,0 51.5366,23.0967 17.0639,23.0967 17.0639,72.5649 z m -32.5766,0.6895 q 0,-38.9541 -10.5142,-55.6733 -10.5141,-16.7193 -33.4385,-16.7193 -18.4428,0 -28.957,7.7564 -10.3418,7.7563 -15.8574,24.3032 -5.3433,16.3745 -5.3433,42.7461 0,36.7134 11.7207,54.1221 11.7207,17.4086 38.0923,17.4086 23.0967,0 33.6109,-16.8916 10.6865,-17.0639 10.6865,-57.0522 z"
     style="fill:#ececec;stroke:none;fill-opacity:1"
     id="path1038" /><path
     d="m 8798.1021,8512.8594 v -29.6465 h 31.0253 v 29.6465 z m 0,226.1406 v -186.4971 h 31.0253 V 8739 Z"
     style="fill:#ececec;stroke:none;fill-opacity:1"
     id="path1040" /><path
     d="m 8876.6997,8739 v -255.7871 h 31.0254 V 8739 Z"
     style="fill:#ececec;stroke:none;fill-opacity:1"
     id="path1042" /><path
     d="m 8978.9111,8652.3013 q 0,32.0595 13.272,49.4682 13.272,17.4087 38.7817,17.4087 20.1665,0 32.232,-8.1011 12.2378,-8.101 16.5469,-20.5112 l 27.2334,7.7564 q -16.7193,44.125 -76.0123,44.125 -41.3671,0 -63.0849,-24.648 -21.5454,-24.6479 -21.5454,-73.2544 0,-46.1933 21.5454,-70.8413 21.7178,-24.6479 61.8784,-24.6479 82.2173,0 82.2173,99.1089 v 4.1367 z m 101.0049,-23.7862 q -2.5854,-29.4741 -14.9956,-42.9184 -12.4101,-13.6167 -35.6792,-13.6167 -22.5796,0 -35.8516,15.1679 -13.0996,14.9957 -14.1337,41.3672 z"
     style="fill:#ececec;stroke:none;fill-opacity:1"
     id="path1044" /><path
     d="m 9291.4058,8687.4634 q 0,26.3716 -19.9942,40.6777 -19.8218,14.3062 -55.6733,14.3062 -34.8174,0 -53.7774,-11.376 -18.7876,-11.5484 -24.4755,-35.8516 l 27.4057,-5.3432 q 3.9644,14.9956 16.3745,22.0625 12.4102,6.8945 34.4727,6.8945 23.6138,0 34.4726,-7.2393 11.0313,-7.2392 11.0313,-21.7177 0,-11.0313 -7.584,-17.9258 -7.584,-6.8945 -24.4756,-11.376 l -22.2348,-5.8603 q -26.7164,-6.8946 -38.0923,-13.4444 -11.2036,-6.7221 -17.5811,-16.2021 -6.3774,-9.48 -6.3774,-23.2691 0,-25.5097 18.0981,-38.7817 18.2705,-13.4443 53.0879,-13.4443 30.853,0 48.9512,10.8588 18.2705,10.8589 23.0967,34.8174 l -27.9229,3.4473 q -2.5854,-12.4102 -13.9614,-18.96 -11.2036,-6.7221 -30.1636,-6.7221 -21.0283,0 -31.0254,6.3774 -9.9971,6.3774 -9.9971,19.3047 0,7.9287 4.1368,13.0996 4.1367,5.1709 12.2378,8.7905 8.101,3.6197 34.1279,9.9971 24.6479,6.2051 35.5068,11.5483 10.8589,5.1709 17.064,11.5484 6.3774,6.3774 9.8247,14.8232 3.4473,8.2735 3.4473,18.96 z"
     style="fill:#ececec;stroke:none;fill-opacity:1"
     id="path1046" /></g>
 <g
   aria-label="default"
   id="text86"
   class="TextShape"
   style="fill:#ececec;fill-opacity:1"><path
     d="m 12817.51,8709.0088 q -8.618,17.9258 -22.924,25.6821 -14.134,7.7564 -35.162,7.7564 -35.335,0 -52.054,-23.7862 -16.547,-23.7861 -16.547,-72.0478 0,-97.5576 68.601,-97.5576 21.201,0 35.334,7.7563 14.134,7.7564 22.752,24.648 h 0.345 l -0.345,-20.856 v -77.3911 h 31.026 v 217.3501 q 0,29.1294 1.034,38.437 h -29.647 q -0.517,-2.7578 -1.206,-12.7549 -0.517,-9.9971 -0.517,-17.2363 z m -94.11,-63.4297 q 0,39.1265 10.342,56.0181 10.341,16.8916 33.611,16.8916 26.371,0 38.264,-18.2705 11.893,-18.2705 11.893,-56.7076 0,-37.0581 -11.893,-54.2944 -11.893,-17.2363 -37.92,-17.2363 -23.441,0 -33.955,17.4087 -10.342,17.2363 -10.342,56.1904 z"
     style="fill:#ececec;stroke:none;fill-opacity:1"
     id="path1049" /><path
     d="m 12919.894,8652.3013 q 0,32.0595 13.272,49.4682 13.272,17.4087 38.782,17.4087 20.166,0 32.232,-8.1011 12.237,-8.101 16.547,-20.5112 l 27.233,7.7564 q -16.719,44.125 -76.012,44.125 -41.367,0 -63.085,-24.648 -21.546,-24.6479 -21.546,-73.2544 0,-46.1933 21.546,-70.8413 21.718,-24.6479 61.878,-24.6479 82.217,0 82.217,99.1089 v 4.1367 z m 101.005,-23.7862 q -2.586,-29.4741 -14.996,-42.9184 -12.41,-13.6167 -35.679,-13.6167 -22.579,0 -35.851,15.1679 -13.1,14.9957 -14.134,41.3672 z"
     style="fill:#ececec;stroke:none;fill-opacity:1"
     id="path1051" /><path
     d="M 13130.867,8575.0825 V 8739 h -31.026 v -163.9175 h -26.199 v -22.5796 h 26.199 v -21.0283 q 0,-25.5098 11.204,-36.7134 11.204,-11.2036 34.3,-11.2036 12.927,0 21.89,2.0684 v 23.6137 q -7.756,-1.3789 -13.789,-1.3789 -11.893,0 -17.236,6.0328 -5.343,6.0327 -5.343,21.8901 v 16.7192 h 36.368 v 22.5796 z"
     style="fill:#ececec;stroke:none;fill-opacity:1"
     id="path1053" /><path
     d="m 13238.077,8742.4473 q -28.096,0 -42.229,-14.8233 -14.134,-14.8232 -14.134,-40.6777 0,-28.957 18.96,-44.4697 19.132,-15.5127 61.534,-16.5469 l 41.884,-0.6895 v -10.1694 q 0,-22.752 -9.653,-32.5767 -9.652,-9.8247 -30.335,-9.8247 -20.856,0 -30.336,7.0669 -9.48,7.0669 -11.376,22.5796 l -32.405,-2.9302 q 7.929,-50.33 74.806,-50.33 35.162,0 52.915,16.2021 17.754,16.0298 17.754,46.5381 v 80.3213 q 0,13.7891 3.62,20.8559 3.619,6.8946 13.789,6.8946 4.481,0 10.169,-1.2066 v 19.3047 q -11.721,2.7578 -23.958,2.7578 -17.237,0 -25.165,-8.9629 -7.757,-9.1352 -8.791,-28.4399 h -1.034 q -11.893,21.373 -27.751,30.3359 -15.685,8.7906 -38.264,8.7906 z m 7.067,-23.2691 q 17.064,0 30.335,-7.7563 13.272,-7.7564 20.856,-21.2007 7.757,-13.6167 7.757,-27.9229 v -15.3403 l -33.956,0.6895 q -21.89,0.3447 -33.266,4.4814 -11.203,4.1367 -17.236,12.7549 -6.033,8.6182 -6.033,22.5796 0,15.1679 8.101,23.4414 8.274,8.2734 23.442,8.2734 z"
     style="fill:#ececec;stroke:none;fill-opacity:1"
     id="path1055" /><path
     d="m 13417.162,8552.5029 v 118.2412 q 0,18.4429 3.62,28.6123 3.619,10.1695 11.548,14.6509 7.929,4.4815 23.269,4.4815 22.407,0 35.335,-15.3404 12.927,-15.3403 12.927,-42.5737 v -108.0718 h 31.025 v 146.6812 q 0,32.5766 1.034,39.8159 h -29.301 q -0.173,-0.8618 -0.345,-4.6538 -0.172,-3.792 -0.517,-8.6182 -0.173,-4.9985 -0.517,-18.6152 h -0.517 q -10.687,19.3047 -24.821,27.4058 -13.961,7.9287 -34.817,7.9287 -30.681,0 -44.987,-15.168 -14.134,-15.3403 -14.134,-50.5024 v -124.274 z"
     style="fill:#ececec;stroke:none;fill-opacity:1"
     id="path1057" /><path
     d="m 13583.148,8739 v -255.7871 h 31.025 V 8739 Z"
     style="fill:#ececec;stroke:none;fill-opacity:1"
     id="path1059" /><path
     d="m 13733.276,8737.6211 q -15.34,4.1367 -31.37,4.1367 -37.23,0 -37.23,-42.229 v -124.4463 h -21.546 v -22.5796 h 22.752 l 9.136,-41.7119 h 20.683 v 41.7119 h 34.473 v 22.5796 h -34.473 v 117.7241 q 0,13.4444 4.309,18.96 4.482,5.3433 15.341,5.3433 6.205,0 17.925,-2.4131 z"
     style="fill:#ececec;stroke:none;fill-opacity:1"
     id="path1061" /></g>
 <g
   aria-label="0"
   id="text94"
   class="TextShape"
   style="fill:#ececec;fill-opacity:1"><path
     d="m 503.53271,8170.4839 q 0,60.8442 -21.54541,92.9038 -21.37304,32.0596 -63.25732,32.0596 -41.88428,0 -62.9126,-31.8872 -21.02832,-31.8872 -21.02832,-93.0762 0,-62.5679 20.33887,-93.7656 20.51123,-31.1978 64.63623,-31.1978 42.91846,0 63.25732,31.5425 20.51123,31.5425 20.51123,93.4209 z m -31.54248,0 q 0,-52.5708 -12.23779,-76.1846 -12.06543,-23.6138 -39.98828,-23.6138 -28.6123,0 -41.19482,23.2691 -12.41016,23.269 -12.41016,76.5293 0,51.709 12.58252,75.6675 12.75488,23.9585 40.33301,23.9585 27.40576,0 40.16064,-24.4756 12.75488,-24.4756 12.75488,-75.1504 z"
     style="fill:#ececec;stroke:none;fill-opacity:1"
     id="path983" /></g>
 <g
   aria-label="1"
   id="text102"
   class="TextShape"
   style="fill:#ececec;fill-opacity:1"><path
     d="m 347.88867,7178 v -26.3716 h 61.87842 v -186.8418 l -54.81152,39.1265 v -29.3018 l 57.39697,-39.4712 h 28.6123 v 216.4883 h 59.12061 V 7178 Z"
     style="fill:#ececec;stroke:none;fill-opacity:1"
     id="path986" /></g>
 <g
   aria-label="2"
   id="text110"
   class="TextShape"
   style="fill:#ececec;fill-opacity:1"><path
     d="m 338.75342,6065 v -21.8901 q 8.79053,-20.1665 21.37304,-35.5069 12.75489,-15.5127 26.71631,-27.9228 13.96143,-12.5825 27.57813,-23.2691 13.78906,-10.6865 24.82031,-21.373 11.03125,-10.6865 17.75342,-22.4072 6.89453,-11.7207 6.89453,-26.544 0,-19.9941 -11.7207,-31.0254 -11.72071,-11.0312 -32.57666,-11.0312 -19.82178,0 -32.74903,10.8589 -12.75488,10.6865 -14.9956,30.1635 l -31.71485,-2.9301 q 3.44727,-29.1294 24.64795,-46.3658 21.37305,-17.2363 54.81153,-17.2363 36.71338,0 56.36279,17.4087 19.82178,17.2363 19.82178,49.1235 0,14.1338 -6.54981,28.0952 -6.37744,13.9615 -19.13232,27.9229 -12.75488,13.9614 -48.77881,43.2632 -19.82178,16.2021 -31.54248,29.3017 -11.7207,12.9273 -16.8916,24.9927 H 499.56836 V 6065 Z"
     style="fill:#ececec;stroke:none;fill-opacity:1"
     id="path989" /></g>
 <g
   aria-label="3"
   id="text118"
   class="TextShape"
   style="fill:#ececec;fill-opacity:1"><path
     d="m 501.80908,4883.9507 q 0,33.6108 -21.37304,52.0537 -21.37305,18.4429 -61.01661,18.4429 -36.88574,0 -58.94824,-16.5469 -21.89014,-16.7192 -26.02685,-49.2959 l 32.05957,-2.9302 q 6.20507,43.0908 52.91552,43.0908 23.44141,0 36.71338,-11.5483 13.44434,-11.5483 13.44434,-34.3003 0,-19.8218 -15.34033,-30.853 -15.16797,-11.2036 -43.95264,-11.2036 h -17.58106 v -26.8887 h 16.89161 q 25.50976,0 39.47119,-11.0313 14.13379,-11.2036 14.13379,-30.853 0,-19.477 -11.54834,-30.6807 -11.37598,-11.3759 -33.95557,-11.3759 -20.51123,0 -33.26611,10.5141 -12.58252,10.5142 -14.65088,29.6465 l -31.19776,-2.4131 q 3.44727,-29.8188 24.64795,-46.5381 21.37305,-16.7192 54.81153,-16.7192 36.54101,0 56.70752,17.064 20.33886,16.8916 20.33886,47.2275 0,23.2691 -13.09961,37.9199 -12.92724,14.4785 -37.74755,19.6494 v 0.6895 q 27.23339,2.9302 42.40136,18.2705 15.16797,15.3403 15.16797,38.6094 z"
     style="fill:#ececec;stroke:none;fill-opacity:1"
     id="path992" /></g>
 <g
   aria-label="4"
   id="text126"
   class="TextShape"
   style="fill:#ececec;fill-opacity:1"><path
     d="M 472.85205,3783.0161 V 3838 h -29.30176 v -54.9839 H 329.10107 v -24.1308 l 111.17432,-163.7452 h 32.57666 v 163.4004 h 34.12793 v 24.4756 z m -29.30176,-152.8862 q -0.34472,1.0342 -4.82617,9.1352 -4.48144,8.1011 -6.72217,11.376 l -62.22314,91.6973 -9.30762,12.7549 -2.75781,3.4472 h 85.83691 z"
     style="fill:#ececec;stroke:none;fill-opacity:1"
     id="path995" /></g>
 <g
   aria-label="5"
   id="text134"
   class="TextShape"
   style="fill:#ececec;fill-opacity:1"><path
     d="m 502.49854,2644.8853 q 0,38.437 -22.92432,60.4995 -22.75195,22.0625 -63.25733,22.0625 -33.95556,0 -54.81152,-14.8233 -20.85596,-14.8232 -26.37158,-42.9184 l 31.37012,-3.6197 q 9.8247,36.024 50.50244,36.024 24.99267,0 39.12646,-14.9956 14.13379,-15.168 14.13379,-41.5396 0,-22.9243 -14.30615,-37.0581 -14.13379,-14.1338 -38.26465,-14.1338 -12.58252,0 -23.44141,3.9644 -10.85888,3.9643 -21.71777,13.4443 h -30.33594 l 8.10108,-130.6514 h 138.06299 v 26.3716 H 378.56934 l -4.65381,77.0464 q 20.1665,-15.5127 50.15771,-15.5127 35.85156,0 57.05225,21.0283 21.37305,21.0284 21.37305,54.8116 z"
     style="fill:#ececec;stroke:none;fill-opacity:1"
     id="path998" /></g>
 <g
   aria-label="6"
   id="text142"
   class="TextShape"
   style="fill:#ececec;fill-opacity:1"><path
     d="m 501.80908,1531.5405 q 0,38.437 -20.85596,60.6719 -20.85595,22.2349 -57.56933,22.2349 -41.02246,0 -62.74024,-30.5083 -21.71777,-30.5083 -21.71777,-88.7671 0,-63.085 22.57959,-96.8682 22.57959,-33.7832 64.2915,-33.7832 54.98389,0 69.29004,49.4683 l -29.64648,5.3432 q -9.13525,-29.6465 -39.98828,-29.6465 -26.54395,0 -41.19483,24.8204 -14.47851,24.6479 -14.47851,71.5307 8.4458,-15.685 23.78613,-23.7861 15.34033,-8.2734 35.16211,-8.2734 33.61084,0 53.26025,21.0283 19.82178,21.0283 19.82178,56.5351 z m -31.54248,1.3789 q 0,-26.3715 -12.92724,-40.6777 -12.92725,-14.3062 -36.02393,-14.3062 -21.71777,0 -35.16211,12.7549 -13.27197,12.5825 -13.27197,34.8174 0,28.0952 13.78906,46.021 13.96143,17.9258 35.6792,17.9258 22.40723,0 35.16211,-14.9956 12.75488,-15.168 12.75488,-41.5396 z"
     style="fill:#ececec;stroke:none;fill-opacity:1"
     id="path1001" /></g>
 <g
   aria-label="7"
   id="text150"
   class="TextShape"
   style="fill:#ececec;fill-opacity:1"><path
     d="m 499.56836,279.30518 q -37.23047,56.87988 -52.5708,89.11181 -15.34033,32.23194 -23.09668,63.60205 Q 416.31689,463.38916 416.31689,497 H 383.9126 q 0,-46.53809 19.64941,-97.90234 19.82178,-51.53662 66.01514,-118.58594 H 339.09814 v -26.37158 h 160.47022 z"
     style="fill:#ececec;stroke:none;fill-opacity:1"
     id="path1004" /></g>
</svg>
