<?xml version="1.0" encoding="UTF-8" standalone="no"?>
<svg
   xmlns:dc="http://purl.org/dc/elements/1.1/"
   xmlns:cc="http://creativecommons.org/ns#"
   xmlns:rdf="http://www.w3.org/1999/02/22-rdf-syntax-ns#"
   xmlns:svg="http://www.w3.org/2000/svg"
   xmlns="http://www.w3.org/2000/svg"
   xmlns:sodipodi="http://sodipodi.sourceforge.net/DTD/sodipodi-0.dtd"
   xmlns:inkscape="http://www.inkscape.org/namespaces/inkscape"
   width="160mm"
   height="90mm"
   viewBox="0 0 16000 9000"
   version="1.1"
   stroke-width="28.222"
   stroke-linejoin="round"
   xml:space="preserve"
   id="svg126"
   sodipodi:docname="text_rendering.svg"
   inkscape:version="1.0.1 (3bc2e813f5, 2020-09-07)"><metadata
   id="metadata132"><rdf:RDF><cc:Work
       rdf:about=""><dc:format>image/svg+xml</dc:format><dc:type
         rdf:resource="http://purl.org/dc/dcmitype/StillImage" /></cc:Work></rdf:RDF></metadata><defs
   id="defs130" /><sodipodi:namedview
   pagecolor="#ffffff"
   bordercolor="#666666"
   borderopacity="1"
   objecttolerance="10"
   gridtolerance="10"
   guidetolerance="10"
   inkscape:pageopacity="0"
   inkscape:pageshadow="2"
   inkscape:window-width="1440"
   inkscape:window-height="900"
   id="namedview128"
   showgrid="false"
   inkscape:zoom="1.0068866"
   inkscape:cx="458.24638"
   inkscape:cy="223.61982"
   inkscape:window-x="0"
   inkscape:window-y="0"
   inkscape:window-maximized="1"
   inkscape:current-layer="svg126" />
 
 
 <path
   fill="rgb(0,69,134)"
   stroke="none"
   d="M 10191,8171 L 13849,8171 13849,1011 10191,1011 10191,8171 Z"
   id="path50"
   style="stroke:none;stroke-opacity:1;fill:#474747;fill-opacity:1" /><path
   fill="rgb(0,69,134)"
   stroke="none"
   d="M 2876,8171 L 6534,8171 6534,5908 2876,5908 2876,8171 Z"
   id="path52"
   style="fill:#4a96dc;fill-opacity:1" /><path
   fill="none"
   stroke="rgb(179,179,179)"
   stroke-linejoin="round"
   d="M 1047,8321 L 1047,8171"
   id="path6"
   style="stroke:#ececec;stroke-opacity:1" />
 <path
   fill="none"
   stroke="rgb(179,179,179)"
   stroke-linejoin="round"
   d="M 1047,8321 L 1047,8171"
   id="path8"
   style="stroke:#ececec;stroke-opacity:1" />
 <path
   fill="none"
   stroke="rgb(179,179,179)"
   stroke-linejoin="round"
   d="M 8362,8321 L 8362,8171"
   id="path10"
   style="stroke:#ececec;stroke-opacity:1" />
 <path
   fill="none"
   stroke="rgb(179,179,179)"
   stroke-linejoin="round"
   d="M 8362,8321 L 8362,8171"
   id="path12"
   style="stroke:#ececec;stroke-opacity:1" />
 <path
   fill="none"
   stroke="rgb(179,179,179)"
   stroke-linejoin="round"
   d="M 15679,8321 L 15679,8171"
   id="path14"
   style="stroke:#ececec;stroke-opacity:1" />
 <path
   fill="none"
   stroke="rgb(179,179,179)"
   stroke-linejoin="round"
   d="M 15679,8321 L 15679,8171"
   id="path16"
   style="stroke:#ececec;stroke-opacity:1" />
 <path
   fill="none"
   stroke="rgb(179,179,179)"
   stroke-linejoin="round"
   d="M 1047,8171 L 15679,8171"
   id="path18"
   style="stroke:#ececec;stroke-opacity:1" />
 <path
   fill="none"
   stroke="rgb(179,179,179)"
   stroke-linejoin="round"
   d="M 897,8171 L 1047,8171"
   id="path20"
   style="stroke:#ececec;stroke-opacity:1" />
 <path
   fill="none"
   stroke="rgb(179,179,179)"
   stroke-linejoin="round"
   d="M 897,8171 L 1047,8171"
   id="path22"
   style="stroke:#ececec;stroke-opacity:1" />
 <path
   fill="none"
   stroke="rgb(179,179,179)"
   stroke-linejoin="round"
   d="M 897,6872 L 1047,6872"
   id="path24"
   style="stroke:#ececec;stroke-opacity:1" />
 <path
   fill="none"
   stroke="rgb(179,179,179)"
   stroke-linejoin="round"
   d="M 897,6872 L 1047,6872"
   id="path26"
   style="stroke:#ececec;stroke-opacity:1" />
 <path
   fill="none"
   stroke="rgb(179,179,179)"
   stroke-linejoin="round"
   d="M 897,5573 L 1047,5573"
   id="path28"
   style="stroke:#ececec;stroke-opacity:1" />
 <path
   fill="none"
   stroke="rgb(179,179,179)"
   stroke-linejoin="round"
   d="M 897,5573 L 1047,5573"
   id="path30"
   style="stroke:#ececec;stroke-opacity:1" />
 <path
   fill="none"
   stroke="rgb(179,179,179)"
   stroke-linejoin="round"
   d="M 897,4275 L 1047,4275"
   id="path32"
   style="stroke:#ececec;stroke-opacity:1" />
 <path
   fill="none"
   stroke="rgb(179,179,179)"
   stroke-linejoin="round"
   d="M 897,4275 L 1047,4275"
   id="path34"
   style="stroke:#ececec;stroke-opacity:1" />
 <path
   fill="none"
   stroke="rgb(179,179,179)"
   stroke-linejoin="round"
   d="M 897,2976 L 1047,2976"
   id="path36"
   style="stroke:#ececec;stroke-opacity:1" />
 <path
   fill="none"
   stroke="rgb(179,179,179)"
   stroke-linejoin="round"
   d="M 897,2976 L 1047,2976"
   id="path38"
   style="stroke:#ececec;stroke-opacity:1" />
 <path
   fill="none"
   stroke="rgb(179,179,179)"
   stroke-linejoin="round"
   d="M 897,1677 L 1047,1677"
   id="path40"
   style="stroke:#ececec;stroke-opacity:1" />
 <path
   fill="none"
   stroke="rgb(179,179,179)"
   stroke-linejoin="round"
   d="M 897,1677 L 1047,1677"
   id="path42"
   style="stroke:#ececec;stroke-opacity:1" />
 <path
   fill="none"
   stroke="rgb(179,179,179)"
   stroke-linejoin="round"
   d="M 897,378 L 1047,378"
   id="path44"
   style="stroke:#ececec;stroke-opacity:1" />
 <path
   fill="none"
   stroke="rgb(179,179,179)"
   stroke-linejoin="round"
   d="M 897,378 L 1047,378"
   id="path46"
   style="stroke:#ececec;stroke-opacity:1" />
 <path
   fill="none"
   stroke="rgb(179,179,179)"
   stroke-linejoin="round"
   d="M 1047,8171 L 1047,378"
   id="path48"
   style="stroke:#ececec;stroke-opacity:1" />
 
 
 <g
   aria-label="Bevy 0.4"
   id="text60"
   class="TextShape"
   style="fill:#ececec;fill-opacity:1"><path
     d="m 4233.833,8670.5718 q 0,32.4043 -23.6138,50.5024 Q 4186.6055,8739 4144.5488,8739 h -98.5918 v -242.8599 h 88.25 q 85.4922,0 85.4922,58.9483 0,21.5454 -12.0654,36.1963 -12.0654,14.6508 -34.1279,19.6494 28.957,3.4472 44.642,19.477 15.6851,15.8575 15.6851,40.1607 z m -47.2275,-111.5191 q 0,-19.6494 -13.4444,-28.0952 -13.4443,-8.4458 -38.9541,-8.4458 h -55.3286 v 76.874 h 55.3286 q 26.3716,0 39.2989,-9.8247 13.0996,-9.997 13.0996,-30.5083 z m 13.9614,108.9336 q 0,-42.9184 -60.3272,-42.9184 h -61.3613 v 87.5605 h 63.9468 q 30.1636,0 43.9526,-11.2036 13.7891,-11.2036 13.7891,-33.4385 z"
     style="fill:#ececec;stroke:none;fill-opacity:1"
     id="path990" /><path
     d="m 4300.0205,8652.3013 q 0,32.0595 13.272,49.4682 13.272,17.4087 38.7817,17.4087 20.1665,0 32.232,-8.1011 12.2377,-8.101 16.5468,-20.5112 l 27.2334,7.7564 q -16.7192,44.125 -76.0122,44.125 -41.3672,0 -63.0849,-24.648 -21.5455,-24.6479 -21.5455,-73.2544 0,-46.1933 21.5455,-70.8413 21.7177,-24.6479 61.8784,-24.6479 82.2173,0 82.2173,99.1089 v 4.1367 z m 101.0049,-23.7862 q -2.5855,-29.4741 -14.9956,-42.9184 -12.4102,-13.6167 -35.6792,-13.6167 -22.5796,0 -35.8516,15.1679 -13.0996,14.9957 -14.1338,41.3672 z"
     style="fill:#ececec;stroke:none;fill-opacity:1"
     id="path992" /><path
     d="m 4554.4287,8739 h -36.7134 l -67.7387,-186.4971 h 33.0937 l 41.0225,121.3438 q 2.2407,6.8945 11.893,40.8501 l 6.0328,-20.1665 6.7221,-20.3389 42.4014,-121.6885 h 32.9214 z"
     style="fill:#ececec;stroke:none;fill-opacity:1"
     id="path994" /><path
     d="m 4658.1914,8812.2544 q -12.7549,0 -21.373,-1.896 v -23.269 q 6.5498,1.0341 14.4785,1.0341 28.957,0 45.8486,-42.5737 l 2.9302,-7.4116 -73.9439,-185.6353 h 33.0938 l 39.2988,103.0733 q 0.8618,2.4131 2.0684,5.8603 1.2065,3.2749 7.7563,22.4073 6.5498,19.1323 7.0669,21.373 l 12.0654,-33.9556 40.8501,-118.7583 h 32.7491 L 4729.3774,8739 q -11.5483,29.8188 -21.5454,44.2974 -9.997,14.6508 -22.2348,21.7177 -12.0655,7.2393 -27.4058,7.2393 z"
     style="fill:#ececec;stroke:none;fill-opacity:1"
     id="path996" /><path
     d="m 5082.3774,8617.4839 q 0,60.8442 -21.5454,92.9038 -21.373,32.0596 -63.2573,32.0596 -41.8843,0 -62.9126,-31.8872 -21.0283,-31.8872 -21.0283,-93.0762 0,-62.5679 20.3389,-93.7656 20.5112,-31.1978 64.6362,-31.1978 42.9184,0 63.2573,31.5425 20.5112,31.5425 20.5112,93.4209 z m -31.5424,0 q 0,-52.5708 -12.2378,-76.1846 -12.0655,-23.6138 -39.9883,-23.6138 -28.6123,0 -41.1948,23.2691 -12.4102,23.269 -12.4102,76.5293 0,51.709 12.5825,75.6675 12.7549,23.9585 40.333,23.9585 27.4058,0 40.1607,-24.4756 12.7549,-24.4756 12.7549,-75.1504 z"
     style="fill:#ececec;stroke:none;fill-opacity:1"
     id="path998" /><path
     d="m 5128.3984,8739 v -37.7476 h 33.6109 V 8739 Z"
     style="fill:#ececec;stroke:none;fill-opacity:1"
     id="path1000" /><path
     d="M 5346.0933,8684.0161 V 8739 h -29.3018 v -54.9839 h -114.4492 v -24.1308 l 111.1743,-163.7452 h 32.5767 v 163.4004 h 34.1279 v 24.4756 z m -29.3018,-152.8862 q -0.3447,1.0342 -4.8262,9.1352 -4.4814,8.1011 -6.7221,11.376 l -62.2232,91.6973 -9.3076,12.7549 -2.7578,3.4472 h 85.8369 z"
     style="fill:#ececec;stroke:none;fill-opacity:1"
     id="path1002" /></g>
 <g
   aria-label="Bevy 0.3"
   id="text68"
   class="TextShape"
   style="fill:#ececec;fill-opacity:1"><path
     d="m 11549.833,8670.5718 q 0,32.4043 -23.614,50.5024 -23.614,17.9258 -65.67,17.9258 h -98.592 v -242.8599 h 88.25 q 85.492,0 85.492,58.9483 0,21.5454 -12.065,36.1963 -12.066,14.6508 -34.128,19.6494 28.957,3.4472 44.642,19.477 15.685,15.8575 15.685,40.1607 z m -47.228,-111.5191 q 0,-19.6494 -13.444,-28.0952 -13.444,-8.4458 -38.954,-8.4458 h -55.329 v 76.874 h 55.329 q 26.372,0 39.299,-9.8247 13.099,-9.997 13.099,-30.5083 z m 13.962,108.9336 q 0,-42.9184 -60.327,-42.9184 h -61.362 v 87.5605 h 63.947 q 30.164,0 43.953,-11.2036 13.789,-11.2036 13.789,-33.4385 z"
     style="fill:#ececec;stroke:none;fill-opacity:1"
     id="path1005" /><path
     d="m 11616.021,8652.3013 q 0,32.0595 13.271,49.4682 13.272,17.4087 38.782,17.4087 20.167,0 32.232,-8.1011 12.238,-8.101 16.547,-20.5112 l 27.233,7.7564 q -16.719,44.125 -76.012,44.125 -41.367,0 -63.085,-24.648 -21.545,-24.6479 -21.545,-73.2544 0,-46.1933 21.545,-70.8413 21.718,-24.6479 61.879,-24.6479 82.217,0 82.217,99.1089 v 4.1367 z m 101.004,-23.7862 q -2.585,-29.4741 -14.995,-42.9184 -12.41,-13.6167 -35.679,-13.6167 -22.58,0 -35.852,15.1679 -13.1,14.9957 -14.134,41.3672 z"
     style="fill:#ececec;stroke:none;fill-opacity:1"
     id="path1007" /><path
     d="m 11870.429,8739 h -36.714 l -67.738,-186.4971 h 33.093 l 41.023,121.3438 q 2.24,6.8945 11.893,40.8501 l 6.033,-20.1665 6.722,-20.3389 42.401,-121.6885 h 32.921 z"
     style="fill:#ececec;stroke:none;fill-opacity:1"
     id="path1009" /><path
     d="m 11974.191,8812.2544 q -12.754,0 -21.373,-1.896 v -23.269 q 6.55,1.0341 14.479,1.0341 28.957,0 45.849,-42.5737 l 2.93,-7.4116 -73.944,-185.6353 h 33.094 l 39.298,103.0733 q 0.862,2.4131 2.069,5.8603 1.206,3.2749 7.756,22.4073 6.55,19.1323 7.067,21.373 l 12.065,-33.9556 40.851,-118.7583 h 32.749 L 12045.377,8739 q -11.548,29.8188 -21.545,44.2974 -9.997,14.6508 -22.235,21.7177 -12.065,7.2393 -27.406,7.2393 z"
     style="fill:#ececec;stroke:none;fill-opacity:1"
     id="path1011" /><path
     d="m 12398.377,8617.4839 q 0,60.8442 -21.545,92.9038 -21.373,32.0596 -63.257,32.0596 -41.885,0 -62.913,-31.8872 -21.028,-31.8872 -21.028,-93.0762 0,-62.5679 20.339,-93.7656 20.511,-31.1978 64.636,-31.1978 42.918,0 63.257,31.5425 20.511,31.5425 20.511,93.4209 z m -31.542,0 q 0,-52.5708 -12.238,-76.1846 -12.065,-23.6138 -39.988,-23.6138 -28.612,0 -41.195,23.2691 -12.41,23.269 -12.41,76.5293 0,51.709 12.582,75.6675 12.755,23.9585 40.333,23.9585 27.406,0 40.161,-24.4756 12.755,-24.4756 12.755,-75.1504 z"
     style="fill:#ececec;stroke:none;fill-opacity:1"
     id="path1013" /><path
     d="m 12444.398,8739 v -37.7476 h 33.611 V 8739 Z"
     style="fill:#ececec;stroke:none;fill-opacity:1"
     id="path1015" /><path
     d="m 12691.05,8671.9507 q 0,33.6108 -21.373,52.0537 -21.373,18.4429 -61.016,18.4429 -36.886,0 -58.949,-16.5469 -21.89,-16.7192 -26.026,-49.2959 l 32.059,-2.9302 q 6.205,43.0908 52.916,43.0908 23.441,0 36.713,-11.5483 13.444,-11.5483 13.444,-34.3003 0,-19.8218 -15.34,-30.853 -15.168,-11.2036 -43.953,-11.2036 h -17.581 v -26.8887 h 16.892 q 25.51,0 39.471,-11.0313 14.134,-11.2036 14.134,-30.853 0,-19.477 -11.548,-30.6806 -11.376,-11.376 -33.956,-11.376 -20.511,0 -33.266,10.5141 -12.583,10.5142 -14.651,29.6465 l -31.198,-2.4131 q 3.448,-29.8188 24.648,-46.5381 21.373,-16.7192 54.812,-16.7192 36.541,0 56.707,17.064 20.339,16.8916 20.339,47.2275 0,23.2691 -13.099,37.9199 -12.928,14.4785 -37.748,19.6494 v 0.6895 q 27.233,2.9302 42.401,18.2705 15.168,15.3403 15.168,38.6094 z"
     style="fill:#ececec;stroke:none;fill-opacity:1"
     id="path1017" /></g>
 <g
   aria-label="0"
   id="text76"
   class="TextShape"
   style="fill:#ececec;fill-opacity:1"><path
     d="m 794.53271,8170.4839 q 0,60.8442 -21.54541,92.9038 -21.37304,32.0596 -63.25732,32.0596 -41.88428,0 -62.9126,-31.8872 -21.02832,-31.8872 -21.02832,-93.0762 0,-62.5679 20.33887,-93.7656 20.51123,-31.1978 64.63623,-31.1978 42.91846,0 63.25732,31.5425 20.51123,31.5425 20.51123,93.4209 z m -31.54248,0 q 0,-52.5708 -12.23779,-76.1846 -12.06543,-23.6138 -39.98828,-23.6138 -28.6123,0 -41.19482,23.2691 -12.41016,23.269 -12.41016,76.5293 0,51.709 12.58252,75.6675 12.75488,23.9585 40.33301,23.9585 27.40576,0 40.16064,-24.4756 12.75488,-24.4756 12.75488,-75.1504 z"
     style="fill:#ececec;stroke:none;fill-opacity:1"
     id="path957" /></g>
 <g
   aria-label="0.5"
   id="text84"
   class="TextShape"
   style="fill:#ececec;fill-opacity:1"><path
     d="m 503.53271,6871.4839 q 0,60.8442 -21.54541,92.9038 -21.37304,32.0596 -63.25732,32.0596 -41.88428,0 -62.9126,-31.8872 -21.02832,-31.8872 -21.02832,-93.0762 0,-62.5679 20.33887,-93.7656 20.51123,-31.1978 64.63623,-31.1978 42.91846,0 63.25732,31.5425 20.51123,31.5425 20.51123,93.4209 z m -31.54248,0 q 0,-52.5708 -12.23779,-76.1846 -12.06543,-23.6138 -39.98828,-23.6138 -28.6123,0 -41.19482,23.2691 -12.41016,23.269 -12.41016,76.5293 0,51.709 12.58252,75.6675 12.75488,23.9585 40.33301,23.9585 27.40576,0 40.16064,-24.4756 12.75488,-24.4756 12.75488,-75.1504 z"
     style="fill:#ececec;stroke:none;fill-opacity:1"
     id="path960" /><path
     d="m 549.55371,6993 v -37.7476 h 33.61084 V 6993 Z"
     style="fill:#ececec;stroke:none;fill-opacity:1"
     id="path962" /><path
     d="m 796.89502,6913.8853 q 0,38.437 -22.92432,60.4995 -22.75195,22.0625 -63.25732,22.0625 -33.95557,0 -54.81152,-14.8233 -20.85596,-14.8232 -26.37159,-42.9184 l 31.37012,-3.6197 q 9.82471,36.024 50.50244,36.024 24.99268,0 39.12647,-14.9956 14.13379,-15.168 14.13379,-41.5396 0,-22.9243 -14.30616,-37.0581 -14.13379,-14.1338 -38.26464,-14.1338 -12.58252,0 -23.44141,3.9644 -10.85889,3.9643 -21.71777,13.4443 h -30.33594 l 8.10107,-130.6514 h 138.06299 v 26.3716 H 672.96582 l -4.65381,77.0464 q 20.16651,-15.5127 50.15772,-15.5127 35.85156,0 57.05224,21.0283 21.37305,21.0284 21.37305,54.8116 z"
     style="fill:#ececec;stroke:none;fill-opacity:1"
     id="path964" /></g>
 <g
   aria-label="1"
   id="text92"
   class="TextShape"
   style="fill:#ececec;fill-opacity:1"><path
     d="m 638.88867,5694 v -26.3716 h 61.87842 v -186.8418 l -54.81152,39.1265 v -29.3018 l 57.39697,-39.4712 h 28.6123 v 216.4883 h 59.12061 V 5694 Z"
     style="fill:#ececec;stroke:none;fill-opacity:1"
     id="path967" /></g>
 <g
   aria-label="1.5"
   id="text100"
   class="TextShape"
   style="fill:#ececec;fill-opacity:1"><path
     d="m 347.88867,4395 v -26.3716 h 61.87842 v -186.8418 l -54.81152,39.1265 v -29.3018 l 57.39697,-39.4712 h 28.6123 v 216.4883 h 59.12061 V 4395 Z"
     style="fill:#ececec;stroke:none;fill-opacity:1"
     id="path970" /><path
     d="m 549.55371,4395 v -37.7476 h 33.61084 V 4395 Z"
     style="fill:#ececec;stroke:none;fill-opacity:1"
     id="path972" /><path
     d="m 796.89502,4315.8853 q 0,38.437 -22.92432,60.4995 -22.75195,22.0625 -63.25732,22.0625 -33.95557,0 -54.81152,-14.8233 -20.85596,-14.8232 -26.37159,-42.9184 l 31.37012,-3.6197 q 9.82471,36.024 50.50244,36.024 24.99268,0 39.12647,-14.9956 14.13379,-15.168 14.13379,-41.5396 0,-22.9243 -14.30616,-37.0581 -14.13379,-14.1338 -38.26464,-14.1338 -12.58252,0 -23.44141,3.9644 -10.85889,3.9643 -21.71777,13.4443 h -30.33594 l 8.10107,-130.6514 h 138.06299 v 26.3716 H 672.96582 l -4.65381,77.0464 q 20.16651,-15.5127 50.15772,-15.5127 35.85156,0 57.05224,21.0283 21.37305,21.0284 21.37305,54.8116 z"
     style="fill:#ececec;stroke:none;fill-opacity:1"
     id="path974" /></g>
 <g
   aria-label="2"
   id="text108"
   class="TextShape"
   style="fill:#ececec;fill-opacity:1"><path
     d="m 629.75342,3096 v -21.8901 q 8.79053,-20.1665 21.37304,-35.5069 12.75489,-15.5127 26.71631,-27.9228 13.96143,-12.5825 27.57813,-23.2691 13.78906,-10.6865 24.82031,-21.373 11.03125,-10.6865 17.75342,-22.4072 6.89453,-11.7207 6.89453,-26.544 0,-19.9941 -11.7207,-31.0254 -11.72071,-11.0312 -32.57666,-11.0312 -19.82178,0 -32.74903,10.8589 -12.75488,10.6865 -14.9956,30.1635 l -31.71485,-2.9301 q 3.44727,-29.1294 24.64795,-46.3658 21.37305,-17.2363 54.81153,-17.2363 36.71338,0 56.36279,17.4087 19.82178,17.2363 19.82178,49.1235 0,14.1338 -6.54981,28.0952 -6.37744,13.9615 -19.13232,27.9229 -12.75488,13.9614 -48.77881,43.2632 -19.82178,16.2021 -31.54248,29.3017 -11.7207,12.9273 -16.8916,24.9927 H 790.56836 V 3096 Z"
     style="fill:#ececec;stroke:none;fill-opacity:1"
     id="path977" /></g>
 <g
   aria-label="2.5"
   id="text116"
   class="TextShape"
   style="fill:#ececec;fill-opacity:1"><path
     d="m 338.75342,1797 v -21.8901 q 8.79053,-20.1665 21.37304,-35.5069 12.75489,-15.5127 26.71631,-27.9228 13.96143,-12.5825 27.57813,-23.2691 13.78906,-10.6865 24.82031,-21.373 11.03125,-10.6865 17.75342,-22.4072 6.89453,-11.7207 6.89453,-26.544 0,-19.9941 -11.7207,-31.0254 -11.72071,-11.0312 -32.57666,-11.0312 -19.82178,0 -32.74903,10.8589 -12.75488,10.6865 -14.9956,30.1635 l -31.71485,-2.9301 q 3.44727,-29.1294 24.64795,-46.3658 21.37305,-17.2363 54.81153,-17.2363 36.71338,0 56.36279,17.4087 19.82178,17.2363 19.82178,49.1235 0,14.1338 -6.54981,28.0952 -6.37744,13.9615 -19.13232,27.9229 -12.75488,13.9614 -48.77881,43.2632 -19.82178,16.2021 -31.54248,29.3017 -11.7207,12.9273 -16.8916,24.9927 H 499.56836 V 1797 Z"
     style="fill:#ececec;stroke:none;fill-opacity:1"
     id="path980" /><path
     d="m 549.55371,1797 v -37.7476 h 33.61084 V 1797 Z"
     style="fill:#ececec;stroke:none;fill-opacity:1"
     id="path982" /><path
     d="m 796.89502,1717.8853 q 0,38.437 -22.92432,60.4995 -22.75195,22.0625 -63.25732,22.0625 -33.95557,0 -54.81152,-14.8233 -20.85596,-14.8232 -26.37159,-42.9184 l 31.37012,-3.6197 q 9.82471,36.024 50.50244,36.024 24.99268,0 39.12647,-14.9956 14.13379,-15.168 14.13379,-41.5396 0,-22.9243 -14.30616,-37.0581 -14.13379,-14.1338 -38.26464,-14.1338 -12.58252,0 -23.44141,3.9644 -10.85889,3.9643 -21.71777,13.4443 h -30.33594 l 8.10107,-130.6514 h 138.06299 v 26.3716 H 672.96582 l -4.65381,77.0464 q 20.16651,-15.5127 50.15772,-15.5127 35.85156,0 57.05224,21.0283 21.37305,21.0284 21.37305,54.8116 z"
     style="fill:#ececec;stroke:none;fill-opacity:1"
     id="path984" /></g>
 <g
   aria-label="3"
   id="text124"
   class="TextShape"
   style="fill:#ececec;fill-opacity:1"><path
     d="m 792.80908,430.95068 q 0,33.61084 -21.37304,52.05371 -21.37305,18.44288 -61.01661,18.44288 -36.88574,0 -58.94824,-16.54688 -21.89014,-16.71924 -26.02685,-49.2959 l 32.05957,-2.93017 q 6.20507,43.09082 52.91552,43.09082 23.44141,0 36.71338,-11.54834 13.44434,-11.54834 13.44434,-34.3003 0,-19.82177 -15.34033,-30.85302 -15.16797,-11.20362 -43.95264,-11.20362 h -17.58106 v -26.88867 h 16.89161 q 25.50976,0 39.47119,-11.03125 14.13379,-11.20361 14.13379,-30.85303 0,-19.47705 -11.54834,-30.68066 -11.37598,-11.37598 -33.95557,-11.37598 -20.51123,0 -33.26611,10.51416 -12.58252,10.51416 -14.65088,29.64649 l -31.19776,-2.41309 q 3.44727,-29.81885 24.64795,-46.53808 21.37305,-16.71924 54.81153,-16.71924 36.54101,0 56.70752,17.06396 20.33886,16.8916 20.33886,47.22754 0,23.26904 -13.09961,37.91992 -12.92724,14.47852 -37.74755,19.64942 v 0.68945 q 27.23339,2.93018 42.40136,18.27051 15.16797,15.34033 15.16797,38.60937 z"
     style="fill:#ececec;stroke:none;fill-opacity:1"
     id="path987" /></g>
</svg>
