<svg xmlns="http://www.w3.org/2000/svg" xmlns:xlink="http://www.w3.org/1999/xlink" width="150" height="38" viewBox="0 0 150 38">
  <defs>
    <path id="logo-full-a" d="M33,5.56497116 C29.4021003,2.02866869 24.522244,0 19.3309524,0 C8.65476221,0 0,8.50658975 0,19 C0,29.4934102 8.65476221,38 19.3309524,38 C24.522244,38 29.4021003,35.9713313 33,32.4350288 L24.3669173,23.9497475 C23.0359558,25.2579225 21.2509273,26 19.3309524,26 C15.3976192,26 12.2090226,22.8659932 12.2090226,19 C12.2090226,15.1340068 15.3976192,12 19.3309524,12 C21.2509273,12 23.0359558,12.7420775 24.3669173,14.0502525 L33,5.56497116 Z"/>
  </defs>
  <g fill="none" fill-rule="evenodd">
    <path fill="#EDF2F8" fill-rule="nonzero" d="M49.9832982,16.9648514 L47.3391246,16.9648514 C47.1399061,15.606543 46.1075917,14.7794842 44.6768402,14.7794842 C42.7631347,14.7794842 41.507454,16.2464572 41.507454,18.8181877 C41.507454,21.4623613 42.7812454,22.8568912 44.6587294,22.8568912 C46.0532594,22.8568912 47.0916106,22.0962386 47.3391246,20.7741518 L49.9832982,20.7862256 C49.6995627,23.0621467 47.7858571,25.1690339 44.616471,25.1690339 C41.3082355,25.1690339 38.8572435,22.8508543 38.8572435,18.8181877 C38.8572435,14.7734473 41.350494,12.4673415 44.616471,12.4673415 C47.4779739,12.4673415 49.6391934,14.1093854 49.9832982,16.9648514 Z M54.1292295,19.6392097 L54.1292295,25 L51.557499,25 L51.557499,12.6363754 L54.0567864,12.6363754 L54.0567864,17.3632885 L54.1654511,17.3632885 C54.5880359,16.2706049 55.5297964,15.606543 56.9364001,15.606543 C58.8682165,15.606543 60.1480448,16.9225929 60.1420503,19.0958863 L60.1420503,25 L57.5702774,25 L57.5702774,19.5546927 C57.5763143,18.4137137 56.9605478,17.7436149 55.9161596,17.7436149 C54.8657345,17.7436149 54.1352664,18.4438983 54.1292295,19.6392097 Z M61.9154252,25 L61.9154252,15.7272816 L64.4086756,15.7272816 L64.4086756,17.3451778 L64.5052664,17.3451778 C64.8433343,16.1981618 65.6945409,15.5944692 66.7328922,15.5944692 C66.99248,15.5944692 67.3124371,15.6306908 67.5418402,15.6850231 L67.5418402,17.9669811 C67.3003632,17.8885011 66.8113722,17.8281318 66.4551936,17.8281318 C65.3202515,17.8281318 64.4871557,18.6129322 64.4871557,19.7539113 L64.4871557,25 L61.9154252,25 Z M68.6089337,25 L68.6089337,15.7272816 L71.1806642,15.7272816 L71.1806642,25 L68.6089337,25 Z M69.9008359,14.5319702 C69.1401832,14.5319702 68.5123429,13.9463884 68.5123429,13.2279942 C68.5123429,12.5156369 69.1401832,11.9300551 69.9008359,11.9300551 C70.6675255,11.9300551 71.2953658,12.5156369 71.2953658,13.2279942 C71.2953658,13.9463884 70.6675255,14.5319702 69.9008359,14.5319702 Z M80.693415,18.3714552 L78.3390138,18.5163414 C78.2122383,17.9186857 77.6809889,17.4296947 76.7875238,17.4296947 C75.9906496,17.4296947 75.3628092,17.7919103 75.3688462,18.3473075 C75.3628092,18.79404 75.6827663,19.0898494 76.5460468,19.2769941 L78.2243122,19.615062 C80.0233162,19.9833144 80.8986704,20.7862256 80.9047074,22.1264232 C80.8986704,23.9556118 79.1781465,25.1811078 76.7754499,25.1811078 C74.318421,25.1811078 72.8091895,24.0884242 72.5677125,22.3135679 L75.0971845,22.1807555 C75.2541446,22.9353713 75.8638741,23.3277715 76.7814869,23.3277715 C77.6809889,23.3277715 78.2786445,22.9353713 78.2907184,22.386011 C78.2786445,21.9211677 77.910392,21.6253583 77.101444,21.4623613 L75.4956216,21.1424042 C73.6845438,20.7801887 72.8091895,19.8806867 72.8152264,18.4921937 C72.8091895,16.7052636 74.3727534,15.606543 76.7452653,15.606543 C79.0875926,15.606543 80.4640118,16.6630051 80.693415,18.3714552 Z M86.0090615,25 L86.0090615,12.6363754 L90.9593408,12.6363754 C93.6880314,12.6363754 95.0644506,13.9524253 95.0644506,15.8057616 C95.0644506,17.2606608 94.1166532,18.1722366 92.8307879,18.4620091 L92.8307879,18.5827476 C94.2373917,18.6491538 95.5474047,19.7539113 95.5474047,21.5830998 C95.5474047,23.5511377 94.0683578,25 91.2913718,25 L86.0090615,25 Z M88.6230505,22.8629282 L90.7540854,22.8629282 C92.2150215,22.8629282 92.8488987,22.2531986 92.8488987,21.323512 C92.8488987,20.3032715 92.0701352,19.5788404 90.8144546,19.5788404 L88.6230505,19.5788404 L88.6230505,22.8629282 Z M88.6230505,17.8100211 L90.5609037,17.8100211 C91.6294396,17.8100211 92.4263139,17.2184023 92.4263139,16.2404203 C92.4263139,15.3469552 91.7682889,14.7492995 90.6091991,14.7492995 L88.6230505,14.7492995 L88.6230505,17.8100211 Z M96.9404962,25 L96.9404962,15.7272816 L99.5122267,15.7272816 L99.5122267,25 L96.9404962,25 Z M98.2323984,14.5319702 C97.4717457,14.5319702 96.8439054,13.9463884 96.8439054,13.2279942 C96.8439054,12.5156369 97.4717457,11.9300551 98.2323984,11.9300551 C98.999088,11.9300551 99.6269283,12.5156369 99.6269283,13.2279942 C99.6269283,13.9463884 98.999088,14.5319702 98.2323984,14.5319702 Z M109.024977,18.3714552 L106.670576,18.5163414 C106.543801,17.9186857 106.012551,17.4296947 105.119086,17.4296947 C104.322212,17.4296947 103.694372,17.7919103 103.700409,18.3473075 C103.694372,18.79404 104.014329,19.0898494 104.877609,19.2769941 L106.555875,19.615062 C108.354879,19.9833144 109.230233,20.7862256 109.23627,22.1264232 C109.230233,23.9556118 107.509709,25.1811078 105.107012,25.1811078 C102.649984,25.1811078 101.140752,24.0884242 100.899275,22.3135679 L103.428747,22.1807555 C103.585707,22.9353713 104.195437,23.3277715 105.113049,23.3277715 C106.012551,23.3277715 106.610207,22.9353713 106.622281,22.386011 C106.610207,21.9211677 106.241955,21.6253583 105.433006,21.4623613 L103.827184,21.1424042 C102.016106,20.7801887 101.140752,19.8806867 101.146789,18.4921937 C101.140752,16.7052636 102.704316,15.606543 105.076828,15.606543 C107.419155,15.606543 108.795574,16.6630051 109.024977,18.3714552 Z M114.794839,25.1811078 C111.939373,25.1811078 110.230923,23.2191068 110.230923,20.3998623 C110.230923,17.5564702 111.969557,15.606543 114.782765,15.606543 C117.203572,15.606543 118.827505,17.0131468 118.93617,19.1562556 L116.509326,19.1562556 C116.370476,18.2326059 115.766784,17.6108025 114.825023,17.6108025 C113.629712,17.6108025 112.844912,18.6129322 112.844912,20.3636408 C112.844912,22.138497 113.623675,23.1466637 114.825023,23.1466637 C115.706415,23.1466637 116.358403,22.5912665 116.509326,21.6012106 L118.93617,21.6012106 C118.815432,23.7322455 117.263942,25.1811078 114.794839,25.1811078 Z M122.979471,25.1750709 C121.210652,25.1750709 119.900639,24.2453842 119.900639,22.4101587 C119.900639,20.3394931 121.548719,19.7237266 123.383945,19.5546927 C124.995804,19.3977326 125.629681,19.3192526 125.629681,18.7215969 L125.629681,18.6853753 C125.629681,17.9247227 125.128617,17.4840271 124.253262,17.4840271 C123.329613,17.4840271 122.780252,17.9367965 122.605182,18.552563 L120.226633,18.3593813 C120.582811,16.669042 122.043747,15.606543 124.265336,15.606543 C126.329965,15.606543 128.201412,16.5362297 128.201412,18.7457446 L128.201412,25 L125.762494,25 L125.762494,23.7141347 L125.690051,23.7141347 C125.237281,24.5774152 124.349853,25.1750709 122.979471,25.1750709 Z M123.715976,23.4002146 C124.844881,23.4002146 125.647792,22.6576727 125.647792,21.6857276 L125.647792,20.7017086 C125.339909,20.9069641 124.422296,21.0397765 123.860862,21.1182565 C122.955323,21.245032 122.357668,21.6012106 122.357668,22.3256418 C122.357668,23.0319621 122.925139,23.4002146 123.715976,23.4002146 Z M129.944644,25 L129.944644,15.7272816 L132.437894,15.7272816 L132.437894,17.3451778 L132.534485,17.3451778 C132.872553,16.1981618 133.717723,15.5944692 134.762111,15.5944692 C135.257139,15.5944692 135.691798,15.7272816 136.029865,15.9325371 L135.257139,18.057535 C135.015662,17.9367965 134.731926,17.8402057 134.381785,17.8402057 C133.343433,17.8402057 132.522411,18.6189692 132.516374,19.7539113 L132.516374,25 L129.944644,25 Z M139.958462,25.1509232 C137.845538,25.1509232 136.197457,23.4786946 136.197457,20.3757146 C136.197457,17.1882177 137.917981,15.606543 139.952425,15.606543 C141.503915,15.606543 142.246457,16.5301927 142.590561,17.2848085 L142.669041,17.2848085 L142.669041,12.6363754 L145.234735,12.6363754 L145.234735,25 L142.699226,25 L142.699226,23.5149162 L142.590561,23.5149162 C142.234383,24.2876427 141.455619,25.1509232 139.958462,25.1509232 Z M140.773447,23.1044052 C142.011017,23.1044052 142.723374,22.0177585 142.723374,20.3636408 C142.723374,18.709523 142.02309,17.653061 140.773447,17.653061 C139.499655,17.653061 138.82352,18.7578185 138.82352,20.3636408 C138.82352,21.981537 139.511729,23.1044052 140.773447,23.1044052 Z M147.086633,25 L147.086633,15.7272816 L149.658363,15.7272816 L149.658363,25 L147.086633,25 Z M148.378535,14.5319702 C147.617882,14.5319702 146.990042,13.9463884 146.990042,13.2279942 C146.990042,12.5156369 147.617882,11.9300551 148.378535,11.9300551 C149.145224,11.9300551 149.773065,12.5156369 149.773065,13.2279942 C149.773065,13.9463884 149.145224,14.5319702 148.378535,14.5319702 Z"/>
    <mask id="logo-full-b" fill="#fff">
      <use xlink:href="#logo-full-a"/>
    </mask>
    <use fill="#979797" fill-rule="nonzero" xlink:href="#logo-full-a"/>
    <g fill-rule="nonzero" mask="url(#logo-full-b)">
      <g transform="translate(-21 -18)">
        <path fill="#FB594A" d="M71,0 C31.7877011,0 0,31.6033482 0,70.5882353 C0,71.6175597 0.0341028435,73.9813528 0.0780030696,75 L18.6775567,75 C18.6176413,73.9789179 18.5217391,71.624303 18.5217391,70.5882353 C18.5217391,41.773335 42.0170128,18.4143223 71,18.4143223 C99.9829872,18.4143223 123.478261,41.773335 123.478261,70.5882353 C123.478261,71.624303 123.382359,73.9789179 123.322443,75 L141.921997,75 C141.965897,73.9813528 142,71.6175597 142,70.5882353 C142,31.6033482 110.212299,0 71,0 Z"/>
        <path fill="#FFDE4B" d="M71,12.2762148 C38.6073051,12.2762148 12.3478261,38.3834019 12.3478261,70.5882353 C12.3478261,71.624303 12.449946,73.9772317 12.5036436,75 L31.025571,75 C30.9475683,73.9837881 30.8695652,71.624303 30.8695652,70.5882353 C30.8695652,48.5533887 48.8366168,30.6905371 71,30.6905371 C93.1633832,30.6905371 111.130435,48.5533887 111.130435,70.5882353 C111.130435,71.624303 111.052432,73.9837881 110.974429,75 L129.496356,75 C129.550054,73.9772317 129.652174,71.624303 129.652174,70.5882353 C129.652174,38.3834019 103.392695,12.2762148 71,12.2762148 Z"/>
        <path fill="#70E470" d="M71,24.5524297 C45.4267205,24.5524297 24.6956522,45.1632681 24.6956522,70.5882353 C24.6956522,71.624303 24.7836409,73.9809784 24.8514697,75 L43.3984561,75 C43.2861619,73.9910934 43.2173913,71.6269255 43.2173913,70.5882353 C43.2173913,55.3332549 55.6560323,42.9667519 71,42.9667519 C86.3439677,42.9667519 98.7826087,55.3332549 98.7826087,70.5882353 C98.7826087,71.6269255 98.7138381,73.9910934 98.6015439,75 L117.14853,75 C117.216359,73.9809784 117.304348,71.624303 117.304348,70.5882353 C117.304348,45.1632681 96.5732795,24.5524297 71,24.5524297 Z"/>
        <path fill="#33B7FF" d="M71,36.8286445 C52.2463246,36.8286445 37.0434783,51.9433218 37.0434783,70.5882353 C37.0434783,71.624303 37.1073502,73.9877217 37.1992958,75 L49.6368063,75 C49.4917283,73.9950273 49.3913043,71.6331072 49.3913043,70.5882353 C49.3913043,58.7231883 59.0659286,49.1048593 71,49.1048593 C82.9340714,49.1048593 92.6086957,58.7231883 92.6086957,70.5882353 C92.6086957,71.6331072 92.5082717,73.9950273 92.3631937,75 L104.800704,75 C104.89265,73.9877217 104.956522,71.624303 104.956522,70.5882353 C104.956522,51.9433218 89.7536754,36.8286445 71,36.8286445 Z"/>
      </g>
    </g>
  </g>
</svg>
