<svg width="636" height="50" viewBox="0 0 636 50" fill="none" xmlns="http://www.w3.org/2000/svg">
<path d="M34.2984 18.6764H15.4788C13.7926 18.6764 12.4244 17.3083 12.4244 15.622V15.4868C12.4244 13.8005 13.7926 12.4324 15.4788 12.4324H45.1479V12.3847C46.3013 12.2495 47.2081 11.2631 47.2081 10.0621V2.37831C47.2081 1.09769 46.1581 0.0477384 44.8775 0.0477384L15.4788 0.00796509C6.94401 0.00796509 0 6.95197 0 15.4868V15.622C0 24.1569 6.94401 31.1009 15.4788 31.1009H34.2984C35.9847 31.1009 37.3528 32.469 37.3528 34.1553V34.2905C37.3528 35.9768 35.9847 37.3449 34.2984 37.3449L4.7407 37.3608C3.46008 37.3608 2.41012 38.4108 2.41012 39.6993V47.4388C2.41012 48.7194 3.46008 49.7693 4.7407 49.7693L34.2984 49.7614C42.8333 49.7614 49.7773 42.8174 49.7773 34.2825V34.1473C49.7773 25.6204 42.8333 18.6764 34.2984 18.6764Z" fill="white"/>
<path d="M393.279 49.7057H349.284C347.216 49.7057 345.299 48.6001 344.265 46.8104C343.231 45.0207 343.231 42.8094 344.265 41.0118L366.266 2.90329C367.3 1.1136 369.217 0.00796509 371.285 0.00796509C373.353 0.00796509 375.27 1.1136 376.304 2.90329L398.306 41.0118C399.34 42.8094 399.34 45.0127 398.306 46.8104C397.264 48.6001 395.355 49.7057 393.279 49.7057ZM359.322 38.1165H383.241L371.285 17.3958L359.322 38.1165Z" fill="white"/>
<path d="M143.47 49.7693H124.65C116.115 49.7693 109.171 42.8253 109.171 34.2905V15.4788C109.171 6.944 116.115 0 124.65 0H143.47C152.004 0 158.948 6.944 158.948 15.4788V34.2905C158.94 42.8253 152.004 49.7693 143.47 49.7693ZM124.65 12.4244C122.964 12.4244 121.596 13.7926 121.596 15.4788V34.2905C121.596 35.9768 122.964 37.3449 124.65 37.3449H143.47C145.156 37.3449 146.524 35.9768 146.524 34.2905V15.4788C146.524 13.7926 145.156 12.4244 143.47 12.4244H124.65Z" fill="white"/>
<path d="M565.097 49.7693H546.277C537.742 49.7693 530.799 42.8253 530.799 34.2905V15.4868C530.799 6.95197 537.742 0.00796509 546.277 0.00796509H565.097C573.632 0.00796509 580.576 6.95197 580.576 15.4868V34.2905C580.576 42.8253 573.632 49.7693 565.097 49.7693ZM546.277 12.4244C544.591 12.4244 543.223 13.7926 543.223 15.4788V34.2825C543.223 35.9688 544.591 37.3449 546.277 37.3449H565.097C566.783 37.3449 568.151 35.9688 568.151 34.2825V15.4788C568.151 13.7926 566.783 12.4244 565.097 12.4244H546.277V12.4244Z" fill="white"/>
<path d="M252.84 33.3439C261.374 33.3439 268.318 26.3999 268.318 17.8651V15.4868C268.318 6.95197 261.374 0.00796509 252.84 0.00796509H234.02C225.485 0.00796509 218.541 6.95197 218.541 15.4868V34.2905C218.541 42.8253 225.485 49.7693 234.02 49.7693H257.119H263.005C264.286 49.7693 265.336 48.7194 265.336 47.4308V39.6914C265.336 38.4108 264.286 37.3608 263.005 37.3608H257.119V37.3529H234.02C232.334 37.3529 230.966 35.9847 230.966 34.2905V33.3439H252.84V33.3439ZM230.966 15.4788C230.966 13.7926 232.334 12.4244 234.02 12.4244H252.84C254.526 12.4244 255.894 13.7926 255.894 15.4788V17.8572C255.894 19.5434 254.526 20.9116 252.84 20.9116H230.966V15.4788Z" fill="white"/>
<path d="M343.835 2.33058C343.835 1.04995 342.786 0 341.497 0H333.758C332.477 0 331.427 1.04995 331.427 2.33058V27.3703C331.284 28.0703 330.234 30.385 327.832 33.2087C325.501 35.9529 323.52 37.2813 322.773 37.5835H322.367C321.659 37.2415 319.885 35.8972 317.889 33.2167C315.765 30.377 314.906 28.0783 314.835 27.434L314.827 2.33058C314.827 1.04995 313.777 0 312.488 0H304.749C303.468 0 302.418 1.04995 302.418 2.33058L302.402 27.3703C302.259 28.0703 301.209 30.385 298.807 33.2087C296.468 35.9529 294.488 37.2813 293.74 37.5835H293.334C292.626 37.2415 290.853 35.8972 288.848 33.2167C286.724 30.377 285.865 28.0783 285.794 27.434L285.786 2.33058C285.786 1.04995 284.736 0 283.447 0H275.708C274.427 0 273.377 1.04995 273.377 2.33058V27.4897C273.377 33.0496 277.641 39.0709 279.478 41.4015C285.07 48.5126 289.898 50 292.961 50H294.058C297.057 50 301.909 48.5523 307.93 41.6401C308.058 41.497 308.193 41.3379 308.336 41.1709C308.4 41.2504 308.455 41.3299 308.511 41.4015C314.103 48.5126 318.931 50 321.993 50H323.091C326.09 50 330.934 48.5523 336.963 41.6401C339.031 39.2698 343.851 33.1371 343.851 27.4817L343.835 2.33058Z" fill="white"/>
<path d="M525.398 2.33058C525.398 1.04995 524.348 0 523.059 0H515.32C514.039 0 512.989 1.04995 512.989 2.33058V47.2956C512.989 48.5762 514.039 49.6262 515.32 49.6262H523.059C524.348 49.6262 525.398 48.5762 525.398 47.2956V2.33058Z" fill="white"/>
<path d="M213.633 22.7331V15.4788C213.633 6.944 206.689 0 198.155 0H179.335C170.8 0 163.856 6.944 163.856 15.4788V47.4308C163.856 48.7114 164.906 49.7614 166.187 49.7614H173.926C175.159 49.7614 176.185 48.8069 176.281 47.6058V38.2119H194.098L198.035 47.4944C198.521 48.7432 199.992 49.7614 201.304 49.7614L210.515 49.7534C211.836 49.7534 212.432 48.7273 211.852 47.4785L206.562 35.7222C210.818 32.9542 213.633 28.1658 213.633 22.7331ZM201.209 22.7331C201.209 24.4193 199.841 25.7875 198.155 25.7875H176.281V15.4788C176.281 13.7926 177.649 12.4244 179.335 12.4244H198.155C199.841 12.4244 201.209 13.7926 201.209 15.4788V22.7331Z" fill="white"/>
<path d="M453.253 22.7331V15.4788C453.253 6.944 446.309 0 437.774 0H418.955C410.42 0 403.476 6.944 403.476 15.4788V47.4308C403.476 48.7114 404.526 49.7614 405.807 49.7614H413.546C414.779 49.7614 415.805 48.8069 415.9 47.6058V38.2119H433.718L437.655 47.4944C438.14 48.7432 439.612 49.7614 440.924 49.7614L450.135 49.7534C451.456 49.7534 452.052 48.7273 451.471 47.4785L446.182 35.7222C450.445 32.9542 453.253 28.1658 453.253 22.7331ZM440.837 22.7331C440.837 24.4193 439.469 25.7875 437.782 25.7875H415.908V15.4788C415.908 13.7926 417.276 12.4244 418.963 12.4244H437.782C439.469 12.4244 440.837 13.7926 440.837 15.4788V22.7331Z" fill="white"/>
<path d="M507.922 22.7331V15.4868C507.922 6.95197 500.978 0.00796509 492.443 0.00796509H473.624C465.089 0.00796509 458.145 6.95197 458.145 15.4868V47.4388C458.145 48.7194 459.195 49.7693 460.476 49.7693H468.215C469.448 49.7693 470.474 48.8148 470.569 47.6138V38.2199H488.387L492.324 47.5024C492.809 48.7512 494.281 49.7693 495.593 49.7693L504.804 49.7614C506.125 49.7614 506.721 48.7353 506.141 47.4865L500.851 35.7302C505.107 32.9542 507.922 28.1658 507.922 22.7331ZM495.498 22.7331C495.498 24.4194 494.13 25.7875 492.443 25.7875H470.569V15.4788C470.569 13.7926 471.938 12.4244 473.624 12.4244H492.443C494.13 12.4244 495.498 13.7926 495.498 15.4788V22.7331Z" fill="white"/>
<path d="M635.46 22.7331V15.4788C635.46 6.944 628.516 0 619.981 0H601.161C592.626 0 585.682 6.944 585.682 15.4788V47.4308C585.682 48.7114 586.732 49.7614 588.013 49.7614H595.752C596.985 49.7614 598.011 48.8069 598.107 47.6058V38.2119H615.924L619.862 47.4944C620.347 48.7432 621.818 49.7614 623.131 49.7614L632.342 49.7534C633.662 49.7534 634.259 48.7273 633.678 47.4785L628.388 35.7222C632.644 32.9542 635.46 28.1658 635.46 22.7331ZM623.035 22.7331C623.035 24.4193 621.667 25.7875 619.981 25.7875H598.107V15.4788C598.107 13.7926 599.475 12.4244 601.161 12.4244H619.981C621.667 12.4244 623.035 13.7926 623.035 15.4788V22.7331Z" fill="white"/>
<path d="M104.255 15.4788C104.255 6.944 97.3115 0 88.7766 0H69.957C61.4222 0 54.4782 6.944 54.4782 15.4788V34.2825C54.4782 42.8174 61.4222 49.7614 69.957 49.7614H88.7766C97.3115 49.7614 104.255 42.8174 104.255 34.2825L104.248 33.503C104.248 32.2224 103.198 31.1724 101.909 31.1724H94.1696C92.889 31.1724 91.839 32.2224 91.839 33.503L91.8311 33.5667V34.2825C91.8311 35.9688 90.4629 37.3449 88.7766 37.3449H69.957C68.2708 37.3449 66.9026 35.9768 66.9026 34.2825V15.4788C66.9026 13.7926 68.2708 12.4244 69.957 12.4244H88.7766C90.4629 12.4244 91.8311 13.7926 91.8311 15.4788L91.839 16.4174C91.839 17.6981 92.889 18.748 94.1696 18.748H101.909C103.198 18.748 104.248 17.6981 104.248 16.4174L104.255 15.4788Z" fill="white"/>
</svg>
