<svg version="1.1" viewBox="0.0 0.0 600.0 371.0" fill="none" stroke="none" stroke-linecap="square" stroke-miterlimit="10" width="600" height="371" xmlns:xlink="http://www.w3.org/1999/xlink" xmlns="http://www.w3.org/2000/svg"><path fill="#434343" d="M0 0L600.0 0L600.0 371.0L0 371.0L0 0Z" fill-rule="nonzero"/><path stroke="#ffffff" stroke-width="1.0" stroke-linecap="butt" d="M45.5 331.5L581.5 331.5" fill-rule="nonzero"/><path stroke="#767676" stroke-width="1.0" stroke-linecap="butt" d="M45.5 270.5L581.5 270.5" fill-rule="nonzero"/><path stroke="#767676" stroke-width="1.0" stroke-linecap="butt" d="M45.5 209.5L581.5 209.5" fill-rule="nonzero"/><path stroke="#767676" stroke-width="1.0" stroke-linecap="butt" d="M45.5 149.5L581.5 149.5" fill-rule="nonzero"/><path stroke="#767676" stroke-width="1.0" stroke-linecap="butt" d="M45.5 88.5L581.5 88.5" fill-rule="nonzero"/><clipPath id="id_0"><path d="M45.55 88.28333L581.45 88.28333L581.45 331.45L45.55 331.45L45.55 88.28333Z" clip-rule="nonzero"/></clipPath><path stroke="#000000" stroke-width="2.0" stroke-linecap="butt" stroke-opacity="0.0" clip-path="url(#id_0)" d="M198.0 331.0L126.0 331.0L126.0 281.0C126.0 279.89542 126.89543 279.0 128.0 279.0L196.0 279.0C197.10457 279.0 198.0 279.89542 198.0 281.0Z" fill-rule="nonzero"/><path fill="#4285f4" clip-path="url(#id_0)" d="M198.0 331.0L126.0 331.0L126.0 281.0C126.0 279.89542 126.89543 279.0 128.0 279.0L196.0 279.0C197.10457 279.0 198.0 279.89542 198.0 281.0Z" fill-rule="nonzero"/><path stroke="#000000" stroke-width="2.0" stroke-linecap="butt" stroke-opacity="0.0" clip-path="url(#id_0)" d="M427.0 331.0L355.0 331.0L355.0 220.0C355.0 218.89543 355.89542 218.0 357.0 218.0L425.0 218.0C426.10458 218.0 427.0 218.89543 427.0 220.0Z" fill-rule="nonzero"/><path fill="#4285f4" clip-path="url(#id_0)" d="M427.0 331.0L355.0 331.0L355.0 220.0C355.0 218.89543 355.89542 218.0 357.0 218.0L425.0 218.0C426.10458 218.0 427.0 218.89543 427.0 220.0Z" fill-rule="nonzero"/><path stroke="#000000" stroke-width="2.0" stroke-linecap="butt" stroke-opacity="0.0" clip-path="url(#id_0)" d="M272.0 331.0L200.0 331.0L200.0 271.0C200.0 269.89542 200.89543 269.0 202.0 269.0L270.0 269.0C271.10458 269.0 272.0 269.89542 272.0 271.0Z" fill-rule="nonzero"/><path fill="#cc0000" clip-path="url(#id_0)" d="M272.0 331.0L200.0 331.0L200.0 271.0C200.0 269.89542 200.89543 269.0 202.0 269.0L270.0 269.0C271.10458 269.0 272.0 269.89542 272.0 271.0Z" fill-rule="nonzero"/><path stroke="#000000" stroke-width="2.0" stroke-linecap="butt" stroke-opacity="0.0" clip-path="url(#id_0)" d="M501.0 331.0L429.0 331.0L429.0 149.0C429.0 147.89543 429.89542 147.0 431.0 147.0L499.0 147.0C500.10458 147.0 501.0 147.89543 501.0 149.0Z" fill-rule="nonzero"/><path fill="#cc0000" clip-path="url(#id_0)" d="M501.0 331.0L429.0 331.0L429.0 149.0C429.0 147.89543 429.89542 147.0 431.0 147.0L499.0 147.0C500.10458 147.0 501.0 147.89543 501.0 149.0Z" fill-rule="nonzero"/><path fill="#efefef" d="M33.05 331.21564Q33.05 329.6844 33.3625 328.7625Q33.675 327.825 34.284374 327.325Q34.909374 326.825 35.846874 326.825Q36.534374 326.825 37.05 327.10626Q37.58125 327.3875 37.925 327.91876Q38.26875 328.4344 38.45625 329.1844Q38.64375 329.9344 38.64375 331.21564Q38.64375 332.73126 38.33125 333.65314Q38.034374 334.575 37.409374 335.09064Q36.8 335.59064 35.846874 335.59064Q34.6125 335.59064 33.89375 334.7Q33.05 333.6375 33.05 331.21564ZM34.128124 331.21564Q34.128124 333.325 34.628124 334.02814Q35.128124 334.73126 35.846874 334.73126Q36.58125 334.73126 37.065624 334.02814Q37.565624 333.325 37.565624 331.21564Q37.565624 329.09064 37.065624 328.40314Q36.58125 327.7 35.83125 327.7Q35.1125 327.7 34.675 328.3094Q34.128124 329.09064 34.128124 331.21564Z" fill-rule="nonzero"/><path fill="#efefef" d="M26.05 272.40833L27.159374 272.31458Q27.284374 273.12708 27.721874 273.53333Q28.175 273.93958 28.815624 273.93958Q29.565624 273.93958 30.096874 273.36145Q30.628124 272.78333 30.628124 271.84583Q30.628124 270.93958 30.1125 270.42395Q29.6125 269.8927 28.784374 269.8927Q28.284374 269.8927 27.8625 270.12708Q27.45625 270.36145 27.221874 270.72083L26.2375 270.59583L27.065624 266.18958L31.346874 266.18958L31.346874 267.18958L27.909374 267.18958L27.45625 269.50208Q28.221874 268.9552 29.065624 268.9552Q30.190624 268.9552 30.95625 269.73645Q31.7375 270.5177 31.7375 271.75208Q31.7375 272.90833 31.065624 273.7677Q30.2375 274.79895 28.815624 274.79895Q27.64375 274.79895 26.89375 274.1427Q26.159374 273.48645 26.05 272.40833ZM33.05 270.42395Q33.05 268.8927 33.3625 267.97083Q33.675 267.03333 34.284374 266.53333Q34.909374 266.03333 35.846874 266.03333Q36.534374 266.03333 37.05 266.31458Q37.58125 266.59583 37.925 267.12708Q38.26875 267.6427 38.45625 268.3927Q38.64375 269.1427 38.64375 270.42395Q38.64375 271.93958 38.33125 272.86145Q38.034374 273.78333 37.409374 274.29895Q36.8 274.79895 35.846874 274.79895Q34.6125 274.79895 33.89375 273.90833Q33.05 272.84583 33.05 270.42395ZM34.128124 270.42395Q34.128124 272.53333 34.628124 273.23645Q35.128124 273.93958 35.846874 273.93958Q36.58125 273.93958 37.065624 273.23645Q37.565624 272.53333 37.565624 270.42395Q37.565624 268.29895 37.065624 267.61145Q36.58125 266.90833 35.83125 266.90833Q35.1125 266.90833 34.675 267.5177Q34.128124 268.29895 34.128124 270.42395Z" fill-rule="nonzero"/><path fill="#efefef" d="M23.01875 213.86667L21.971874 213.86667L21.971874 207.14792Q21.58125 207.5073 20.95625 207.8823Q20.346874 208.24167 19.8625 208.41354L19.8625 207.39792Q20.7375 206.97604 21.39375 206.39792Q22.065624 205.80417 22.346874 205.24167L23.01875 205.24167L23.01875 213.86667ZM26.05 209.6323Q26.05 208.10104 26.3625 207.17917Q26.675 206.24167 27.284374 205.74167Q27.909374 205.24167 28.846874 205.24167Q29.534374 205.24167 30.05 205.52292Q30.58125 205.80417 30.925 206.33542Q31.26875 206.85104 31.45625 207.60104Q31.64375 208.35104 31.64375 209.6323Q31.64375 211.14792 31.33125 212.0698Q31.034374 212.99167 30.409374 213.5073Q29.8 214.0073 28.846874 214.0073Q27.6125 214.0073 26.89375 213.11667Q26.05 212.05417 26.05 209.6323ZM27.128124 209.6323Q27.128124 211.74167 27.628124 212.4448Q28.128124 213.14792 28.846874 213.14792Q29.58125 213.14792 30.065624 212.4448Q30.565624 211.74167 30.565624 209.6323Q30.565624 207.5073 30.065624 206.8198Q29.58125 206.11667 28.83125 206.11667Q28.1125 206.11667 27.675 206.72604Q27.128124 207.5073 27.128124 209.6323ZM33.05 209.6323Q33.05 208.10104 33.3625 207.17917Q33.675 206.24167 34.284374 205.74167Q34.909374 205.24167 35.846874 205.24167Q36.534374 205.24167 37.05 205.52292Q37.58125 205.80417 37.925 206.33542Q38.26875 206.85104 38.45625 207.60104Q38.64375 208.35104 38.64375 209.6323Q38.64375 211.14792 38.33125 212.0698Q38.034374 212.99167 37.409374 213.5073Q36.8 214.0073 35.846874 214.0073Q34.6125 214.0073 33.89375 213.11667Q33.05 212.05417 33.05 209.6323ZM34.128124 209.6323Q34.128124 211.74167 34.628124 212.4448Q35.128124 213.14792 35.846874 213.14792Q36.58125 213.14792 37.065624 212.4448Q37.565624 211.74167 37.565624 209.6323Q37.565624 207.5073 37.065624 206.8198Q36.58125 206.11667 35.83125 206.11667Q35.1125 206.11667 34.675 206.72604Q34.128124 207.5073 34.128124 209.6323Z" fill-rule="nonzero"/><path fill="#efefef" d="M23.01875 153.075L21.971874 153.075L21.971874 146.35625Q21.58125 146.71562 20.95625 147.09062Q20.346874 147.45 19.8625 147.62187L19.8625 146.60625Q20.7375 146.18437 21.39375 145.60625Q22.065624 145.0125 22.346874 144.45L23.01875 144.45L23.01875 153.075ZM26.05 150.825L27.159374 150.73125Q27.284374 151.54375 27.721874 151.95Q28.175 152.35625 28.815624 152.35625Q29.565624 152.35625 30.096874 151.77812Q30.628124 151.2 30.628124 150.2625Q30.628124 149.35625 30.1125 148.84062Q29.6125 148.30937 28.784374 148.30937Q28.284374 148.30937 27.8625 148.54375Q27.45625 148.77812 27.221874 149.1375L26.2375 149.0125L27.065624 144.60625L31.346874 144.60625L31.346874 145.60625L27.909374 145.60625L27.45625 147.91875Q28.221874 147.37187 29.065624 147.37187Q30.190624 147.37187 30.95625 148.15312Q31.7375 148.93437 31.7375 150.16875Q31.7375 151.325 31.065624 152.18437Q30.2375 153.21562 28.815624 153.21562Q27.64375 153.21562 26.89375 152.55937Q26.159374 151.90312 26.05 150.825ZM33.05 148.84062Q33.05 147.30937 33.3625 146.3875Q33.675 145.45 34.284374 144.95Q34.909374 144.45 35.846874 144.45Q36.534374 144.45 37.05 144.73125Q37.58125 145.0125 37.925 145.54375Q38.26875 146.05937 38.45625 146.80937Q38.64375 147.55937 38.64375 148.84062Q38.64375 150.35625 38.33125 151.27812Q38.034374 152.2 37.409374 152.71562Q36.8 153.21562 35.846874 153.21562Q34.6125 153.21562 33.89375 152.325Q33.05 151.2625 33.05 148.84062ZM34.128124 148.84062Q34.128124 150.95 34.628124 151.65312Q35.128124 152.35625 35.846874 152.35625Q36.58125 152.35625 37.065624 151.65312Q37.565624 150.95 37.565624 148.84062Q37.565624 146.71562 37.065624 146.02812Q36.58125 145.325 35.83125 145.325Q35.1125 145.325 34.675 145.93437Q34.128124 146.71562 34.128124 148.84062Z" fill-rule="nonzero"/><path fill="#efefef" d="M24.596874 91.26771L24.596874 92.28333L18.909374 92.28333Q18.909374 91.90833 19.034374 91.54896Q19.253124 90.97083 19.721874 90.40833Q20.20625 89.84583 21.1125 89.11146Q22.51875 87.95521 23.003124 87.28333Q23.503124 86.61146 23.503124 86.01771Q23.503124 85.39271 23.05 84.97083Q22.596874 84.53333 21.878124 84.53333Q21.1125 84.53333 20.659374 84.98646Q20.20625 85.43958 20.190624 86.25208L19.1125 86.14271Q19.221874 84.92396 19.940624 84.29896Q20.675 83.65833 21.909374 83.65833Q23.14375 83.65833 23.8625 84.34583Q24.58125 85.03333 24.58125 86.04896Q24.58125 86.56458 24.3625 87.06458Q24.159374 87.54896 23.659374 88.11146Q23.175 88.65833 22.05 89.61146Q21.096874 90.40833 20.815624 90.70521Q20.55 90.98646 20.378124 91.26771L24.596874 91.26771ZM26.05 88.04896Q26.05 86.51771 26.3625 85.59583Q26.675 84.65833 27.284374 84.15833Q27.909374 83.65833 28.846874 83.65833Q29.534374 83.65833 30.05 83.93958Q30.58125 84.22083 30.925 84.75208Q31.26875 85.26771 31.45625 86.01771Q31.64375 86.76771 31.64375 88.04896Q31.64375 89.56458 31.33125 90.48646Q31.034374 91.40833 30.409374 91.92396Q29.8 92.42396 28.846874 92.42396Q27.6125 92.42396 26.89375 91.53333Q26.05 90.47083 26.05 88.04896ZM27.128124 88.04896Q27.128124 90.15833 27.628124 90.86146Q28.128124 91.56458 28.846874 91.56458Q29.58125 91.56458 30.065624 90.86146Q30.565624 90.15833 30.565624 88.04896Q30.565624 85.92396 30.065624 85.23646Q29.58125 84.53333 28.83125 84.53333Q28.1125 84.53333 27.675 85.14271Q27.128124 85.92396 27.128124 88.04896ZM33.05 88.04896Q33.05 86.51771 33.3625 85.59583Q33.675 84.65833 34.284374 84.15833Q34.909374 83.65833 35.846874 83.65833Q36.534374 83.65833 37.05 83.93958Q37.58125 84.22083 37.925 84.75208Q38.26875 85.26771 38.45625 86.01771Q38.64375 86.76771 38.64375 88.04896Q38.64375 89.56458 38.33125 90.48646Q38.034374 91.40833 37.409374 91.92396Q36.8 92.42396 35.846874 92.42396Q34.6125 92.42396 33.89375 91.53333Q33.05 90.47083 33.05 88.04896ZM34.128124 88.04896Q34.128124 90.15833 34.628124 90.86146Q35.128124 91.56458 35.846874 91.56458Q36.58125 91.56458 37.065624 90.86146Q37.565624 90.15833 37.565624 88.04896Q37.565624 85.92396 37.065624 85.23646Q36.58125 84.53333 35.83125 84.53333Q35.1125 84.53333 34.675 85.14271Q34.128124 85.92396 34.128124 88.04896Z" fill-rule="nonzero"/><path fill="#f3f3f3" d="M178.3381 346.65314L179.72873 346.4969Q179.9631 348.1375 181.25998 348.1375Q181.9006 348.1375 182.2756 347.8094Q182.6506 347.46564 182.6506 346.96564Q182.6506 346.66876 182.50998 346.46564Q182.38498 346.2625 182.11935 346.1375Q181.85373 345.9969 180.8381 345.6844Q179.93185 345.41876 179.50998 345.09064Q179.0881 344.7625 178.8381 344.2469Q178.5881 343.71564 178.5881 343.1219Q178.5881 342.41876 178.9006 341.85626Q179.22873 341.29376 179.79123 341.0125Q180.35373 340.71564 181.18185 340.71564Q182.43185 340.71564 183.11935 341.3875Q183.82248 342.0594 183.86935 343.3094L182.43185 343.3875Q182.3381 342.7 182.0256 342.4344Q181.72873 342.15314 181.1506 342.15314Q180.57248 342.15314 180.25998 342.3875Q179.94748 342.6219 179.94748 342.98126Q179.94748 343.34064 180.22873 343.575Q180.50998 343.825 181.5256 344.10626Q182.60373 344.41876 183.07248 344.7625Q183.55685 345.10626 183.80685 345.65314Q184.05685 346.1844 184.05685 346.96564Q184.05685 348.075 183.36935 348.84064Q182.68185 349.60626 181.2131 349.60626Q178.63498 349.60626 178.3381 346.65314ZM187.04123 340.85626L187.04123 344.0125Q187.35373 343.54376 187.74435 343.325Q188.13498 343.09064 188.5881 343.09064Q189.19748 343.09064 189.60373 343.41876Q190.0256 343.73126 190.19748 344.325Q190.32248 344.7625 190.32248 345.79376L190.32248 349.45L188.97873 349.45L188.97873 346.16876Q188.97873 345.0125 188.8381 344.73126Q188.63498 344.34064 188.13498 344.34064Q187.61935 344.34064 187.32248 344.7625Q187.04123 345.1844 187.04123 346.325L187.04123 349.45L185.68185 349.45L185.68185 340.85626L187.04123 340.85626ZM192.69748 345.1219L191.47873 344.85626Q191.69748 343.91876 192.19748 343.5125Q192.7131 343.09064 193.68185 343.09064Q194.54123 343.09064 194.97873 343.325Q195.43185 343.5594 195.61935 343.98126Q195.82248 344.3875 195.82248 345.48126L195.80685 347.40314Q195.80685 348.21564 195.86935 348.60626Q195.94748 348.9969 196.11935 349.45L194.7756 349.45L194.60373 348.7625Q194.25998 349.1844 193.85373 349.3875Q193.4631 349.59064 193.0256 349.59064Q192.2756 349.59064 191.80685 349.09064Q191.3381 348.59064 191.3381 347.7625Q191.3381 347.23126 191.5256 346.84064Q191.7131 346.45 192.05685 346.21564Q192.41623 345.98126 193.19748 345.79376Q194.13498 345.575 194.49435 345.3875Q194.49435 344.8719 194.41623 344.71564Q194.35373 344.54376 194.1506 344.45Q193.9631 344.34064 193.60373 344.34064Q193.24435 344.34064 193.0256 344.5125Q192.82248 344.66876 192.69748 345.1219ZM194.49435 346.46564Q194.24435 346.5594 193.69748 346.7Q193.07248 346.8719 192.88498 347.075Q192.68185 347.2625 192.68185 347.59064Q192.68185 347.95 192.9006 348.2Q193.11935 348.4344 193.43185 348.4344Q193.72873 348.4344 194.00998 348.2469Q194.29123 348.04376 194.38498 347.77814Q194.49435 347.4969 194.49435 346.79376L194.49435 346.46564ZM201.36935 349.45L200.10373 349.45L200.10373 348.52814Q199.80685 349.0594 199.38498 349.325Q198.9631 349.59064 198.50998 349.59064Q197.6506 349.59064 197.00998 348.7469Q196.38498 347.8875 196.38498 346.3094Q196.38498 344.71564 196.99435 343.90314Q197.61935 343.09064 198.54123 343.09064Q198.9631 343.09064 199.3381 343.3094Q199.7131 343.5125 200.00998 343.95L200.00998 340.85626L201.36935 340.85626L201.36935 349.45ZM197.75998 346.2Q197.75998 347.04376 197.9006 347.46564Q198.05685 347.8719 198.32248 348.09064Q198.5881 348.29376 198.91623 348.29376Q199.36935 348.29376 199.69748 347.8094Q200.0256 347.325 200.0256 346.35626Q200.0256 345.29376 199.69748 344.825Q199.38498 344.34064 198.88498 344.34064Q198.41623 344.34064 198.0881 344.8094Q197.75998 345.27814 197.75998 346.2ZM202.36935 346.2469Q202.36935 345.34064 202.72873 344.59064Q203.10373 343.84064 203.68185 343.46564Q204.2756 343.09064 205.00998 343.09064Q206.22873 343.09064 206.93185 344.0594Q207.63498 345.0125 207.63498 346.3094Q207.63498 347.2625 207.25998 348.04376Q206.9006 348.8094 206.30685 349.2Q205.7131 349.59064 205.00998 349.59064Q203.86935 349.59064 203.11935 348.73126Q202.36935 347.85626 202.36935 346.2469ZM203.75998 346.34064Q203.75998 347.27814 204.11935 347.7625Q204.49435 348.2469 205.00998 348.2469Q205.5256 348.2469 205.88498 347.7625Q206.24435 347.27814 206.24435 346.325Q206.24435 345.40314 205.86935 344.91876Q205.50998 344.4344 204.99435 344.4344Q204.49435 344.4344 204.11935 344.91876Q203.75998 345.40314 203.75998 346.34064ZM209.6506 349.45L208.0256 343.23126L209.3381 343.23126L210.29123 347.3094L211.16623 343.23126L212.47873 343.23126L213.32248 347.3094L214.30685 343.23126L215.63498 343.23126L213.99435 349.45L212.69748 349.45L211.82248 345.45L210.94748 349.45L209.6506 349.45ZM216.2131 347.66876L217.57248 347.41876Q217.74435 348.40314 218.6506 348.40314Q219.1506 348.40314 219.38498 348.21564Q219.61935 348.02814 219.61935 347.73126Q219.61935 347.52814 219.5256 347.40314Q219.4006 347.29376 219.07248 347.2Q217.41623 346.7625 216.9631 346.35626Q216.4006 345.85626 216.4006 344.9969Q216.4006 344.1219 216.94748 343.60626Q217.50998 343.09064 218.55685 343.09064Q219.55685 343.09064 220.07248 343.48126Q220.60373 343.8719 220.80685 344.73126L219.54123 345.0125Q219.36935 344.2625 218.57248 344.2625Q218.07248 344.2625 217.85373 344.41876Q217.6506 344.5594 217.6506 344.77814Q217.6506 344.9969 217.85373 345.1219Q218.04123 345.2625 219.05685 345.54376Q220.18185 345.85626 220.5881 346.3094Q220.97873 346.7625 220.97873 347.5125Q220.97873 348.41876 220.35373 349.0125Q219.74435 349.59064 218.6506 349.59064Q217.66623 349.59064 217.04123 349.10626Q216.41623 348.60626 216.2131 347.66876Z" fill-rule="nonzero"/><path fill="#f3f3f3" d="M398.75565 349.45L398.75565 340.85626L400.13065 340.85626L403.02127 346.59064L403.02127 340.85626L404.3494 340.85626L404.3494 349.45L402.9119 349.45L400.08377 343.84064L400.08377 349.45L398.75565 349.45ZM405.4119 346.2469Q405.4119 345.34064 405.77127 344.59064Q406.14627 343.84064 406.7244 343.46564Q407.31815 343.09064 408.05252 343.09064Q409.27127 343.09064 409.9744 344.0594Q410.67752 345.0125 410.67752 346.3094Q410.67752 347.2625 410.30252 348.04376Q409.94315 348.8094 409.3494 349.2Q408.75565 349.59064 408.05252 349.59064Q406.9119 349.59064 406.1619 348.73126Q405.4119 347.85626 405.4119 346.2469ZM406.80252 346.34064Q406.80252 347.27814 407.1619 347.7625Q407.5369 348.2469 408.05252 348.2469Q408.56815 348.2469 408.92752 347.7625Q409.2869 347.27814 409.2869 346.325Q409.2869 345.40314 408.9119 344.91876Q408.55252 344.4344 408.0369 344.4344Q407.5369 344.4344 407.1619 344.91876Q406.80252 345.40314 406.80252 346.34064ZM414.38065 346.65314L415.77127 346.4969Q416.00565 348.1375 417.30252 348.1375Q417.94315 348.1375 418.31815 347.8094Q418.69315 347.46564 418.69315 346.96564Q418.69315 346.66876 418.55252 346.46564Q418.42752 346.2625 418.1619 346.1375Q417.89627 345.9969 416.88065 345.6844Q415.9744 345.41876 415.55252 345.09064Q415.13065 344.7625 414.88065 344.2469Q414.63065 343.71564 414.63065 343.1219Q414.63065 342.41876 414.94315 341.85626Q415.27127 341.29376 415.83377 341.0125Q416.39627 340.71564 417.2244 340.71564Q418.4744 340.71564 419.1619 341.3875Q419.86502 342.0594 419.9119 343.3094L418.4744 343.3875Q418.38065 342.7 418.06815 342.4344Q417.77127 342.15314 417.19315 342.15314Q416.61502 342.15314 416.30252 342.3875Q415.99002 342.6219 415.99002 342.98126Q415.99002 343.34064 416.27127 343.575Q416.55252 343.825 417.56815 344.10626Q418.64627 344.41876 419.11502 344.7625Q419.5994 345.10626 419.8494 345.65314Q420.0994 346.1844 420.0994 346.96564Q420.0994 348.075 419.4119 348.84064Q418.7244 349.60626 417.25565 349.60626Q414.67752 349.60626 414.38065 346.65314ZM423.08377 340.85626L423.08377 344.0125Q423.39627 343.54376 423.7869 343.325Q424.17752 343.09064 424.63065 343.09064Q425.24002 343.09064 425.64627 343.41876Q426.06815 343.73126 426.24002 344.325Q426.36502 344.7625 426.36502 345.79376L426.36502 349.45L425.02127 349.45L425.02127 346.16876Q425.02127 345.0125 424.88065 344.73126Q424.67752 344.34064 424.17752 344.34064Q423.6619 344.34064 423.36502 344.7625Q423.08377 345.1844 423.08377 346.325L423.08377 349.45L421.7244 349.45L421.7244 340.85626L423.08377 340.85626ZM428.74002 345.1219L427.52127 344.85626Q427.74002 343.91876 428.24002 343.5125Q428.75565 343.09064 429.7244 343.09064Q430.58377 343.09064 431.02127 343.325Q431.4744 343.5594 431.6619 343.98126Q431.86502 344.3875 431.86502 345.48126L431.8494 347.40314Q431.8494 348.21564 431.9119 348.60626Q431.99002 348.9969 432.1619 349.45L430.81815 349.45L430.64627 348.7625Q430.30252 349.1844 429.89627 349.3875Q429.50565 349.59064 429.06815 349.59064Q428.31815 349.59064 427.8494 349.09064Q427.38065 348.59064 427.38065 347.7625Q427.38065 347.23126 427.56815 346.84064Q427.75565 346.45 428.0994 346.21564Q428.45877 345.98126 429.24002 345.79376Q430.17752 345.575 430.5369 345.3875Q430.5369 344.8719 430.45877 344.71564Q430.39627 344.54376 430.19315 344.45Q430.00565 344.34064 429.64627 344.34064Q429.2869 344.34064 429.06815 344.5125Q428.86502 344.66876 428.74002 345.1219ZM430.5369 346.46564Q430.2869 346.5594 429.74002 346.7Q429.11502 346.8719 428.92752 347.075Q428.7244 347.2625 428.7244 347.59064Q428.7244 347.95 428.94315 348.2Q429.1619 348.4344 429.4744 348.4344Q429.77127 348.4344 430.05252 348.2469Q430.33377 348.04376 430.42752 347.77814Q430.5369 347.4969 430.5369 346.79376L430.5369 346.46564ZM437.4119 349.45L436.14627 349.45L436.14627 348.52814Q435.8494 349.0594 435.42752 349.325Q435.00565 349.59064 434.55252 349.59064Q433.69315 349.59064 433.05252 348.7469Q432.42752 347.8875 432.42752 346.3094Q432.42752 344.71564 433.0369 343.90314Q433.6619 343.09064 434.58377 343.09064Q435.00565 343.09064 435.38065 343.3094Q435.75565 343.5125 436.05252 343.95L436.05252 340.85626L437.4119 340.85626L437.4119 349.45ZM433.80252 346.2Q433.80252 347.04376 433.94315 347.46564Q434.0994 347.8719 434.36502 348.09064Q434.63065 348.29376 434.95877 348.29376Q435.4119 348.29376 435.74002 347.8094Q436.06815 347.325 436.06815 346.35626Q436.06815 345.29376 435.74002 344.825Q435.42752 344.34064 434.92752 344.34064Q434.45877 344.34064 434.13065 344.8094Q433.80252 345.27814 433.80252 346.2ZM438.4119 346.2469Q438.4119 345.34064 438.77127 344.59064Q439.14627 343.84064 439.7244 343.46564Q440.31815 343.09064 441.05252 343.09064Q442.27127 343.09064 442.9744 344.0594Q443.67752 345.0125 443.67752 346.3094Q443.67752 347.2625 443.30252 348.04376Q442.94315 348.8094 442.3494 349.2Q441.75565 349.59064 441.05252 349.59064Q439.9119 349.59064 439.1619 348.73126Q438.4119 347.85626 438.4119 346.2469ZM439.80252 346.34064Q439.80252 347.27814 440.1619 347.7625Q440.5369 348.2469 441.05252 348.2469Q441.56815 348.2469 441.92752 347.7625Q442.2869 347.27814 442.2869 346.325Q442.2869 345.40314 441.9119 344.91876Q441.55252 344.4344 441.0369 344.4344Q440.5369 344.4344 440.1619 344.91876Q439.80252 345.40314 439.80252 346.34064ZM445.69315 349.45L444.06815 343.23126L445.38065 343.23126L446.33377 347.3094L447.20877 343.23126L448.52127 343.23126L449.36502 347.3094L450.3494 343.23126L451.67752 343.23126L450.0369 349.45L448.74002 349.45L447.86502 345.45L446.99002 349.45L445.69315 349.45ZM452.25565 347.66876L453.61502 347.41876Q453.7869 348.40314 454.69315 348.40314Q455.19315 348.40314 455.42752 348.21564Q455.6619 348.02814 455.6619 347.73126Q455.6619 347.52814 455.56815 347.40314Q455.44315 347.29376 455.11502 347.2Q453.45877 346.7625 453.00565 346.35626Q452.44315 345.85626 452.44315 344.9969Q452.44315 344.1219 452.99002 343.60626Q453.55252 343.09064 454.5994 343.09064Q455.5994 343.09064 456.11502 343.48126Q456.64627 343.8719 456.8494 344.73126L455.58377 345.0125Q455.4119 344.2625 454.61502 344.2625Q454.11502 344.2625 453.89627 344.41876Q453.69315 344.5594 453.69315 344.77814Q453.69315 344.9969 453.89627 345.1219Q454.08377 345.2625 455.0994 345.54376Q456.2244 345.85626 456.63065 346.3094Q457.02127 346.7625 457.02127 347.5125Q457.02127 348.41876 456.39627 349.0125Q455.7869 349.59064 454.69315 349.59064Q453.70877 349.59064 453.08377 349.10626Q452.45877 348.60626 452.25565 347.66876Z" fill-rule="nonzero"/><path fill="#4285f4" d="M242.0 56.916668C242.0 56.364384 242.44771 55.916668 243.0 55.916668L253.0 55.916668C253.55229 55.916668 254.0 56.364384 254.0 56.916668L254.0 66.916664C254.0 67.46895 253.55229 67.916664 253.0 67.916664L243.0 67.916664C242.44771 67.916664 242.0 67.46895 242.0 66.916664Z" fill-rule="nonzero"/><path fill="#f3f3f3" d="M262.875 65.916664L262.875 57.322914L266.10938 57.322914Q267.09375 57.322914 267.6875 57.58854Q268.28125 57.854164 268.60938 58.40104Q268.95312 58.93229 268.95312 59.52604Q268.95312 60.072914 268.65625 60.55729Q268.35938 61.041664 267.75 61.33854Q268.53125 61.572914 268.9375 62.135414Q269.35938 62.68229 269.35938 63.43229Q269.35938 64.02604 269.10938 64.55729Q268.85938 65.072914 268.48438 65.354164Q268.10938 65.635414 267.53125 65.77604Q266.96875 65.916664 266.15625 65.916664L262.875 65.916664ZM264.01562 60.93229L265.875 60.93229Q266.625 60.93229 266.95312 60.83854Q267.39062 60.71354 267.60938 60.416664Q267.82812 60.104164 267.82812 59.65104Q267.82812 59.229164 267.625 58.90104Q267.42188 58.572914 267.03125 58.46354Q266.65625 58.33854 265.73438 58.33854L264.01562 58.33854L264.01562 60.93229ZM264.01562 64.90104L266.15625 64.90104Q266.70312 64.90104 266.92188 64.854164Q267.32812 64.791664 267.57812 64.635414Q267.84375 64.46354 268.01562 64.15104Q268.1875 63.83854 268.1875 63.43229Q268.1875 62.947914 267.9375 62.58854Q267.70312 62.229164 267.26562 62.08854Q266.82812 61.947914 266.0 61.947914L264.01562 61.947914L264.01562 64.90104ZM275.04688 63.916664L276.14062 64.041664Q275.89062 64.99479 275.1875 65.52604Q274.48438 66.05729 273.40625 66.05729Q272.04688 66.05729 271.23438 65.21354Q270.4375 64.36979 270.4375 62.854164Q270.4375 61.291664 271.25 60.43229Q272.0625 59.55729 273.34375 59.55729Q274.59375 59.55729 275.375 60.40104Q276.17188 61.24479 276.17188 62.791664Q276.17188 62.885414 276.17188 63.072914L271.53125 63.072914Q271.59375 64.104164 272.10938 64.65104Q272.625 65.18229 273.40625 65.18229Q273.98438 65.18229 274.39062 64.885414Q274.8125 64.572914 275.04688 63.916664ZM271.59375 62.21354L275.0625 62.21354Q275.0 61.416664 274.67188 61.02604Q274.15625 60.416664 273.35938 60.416664Q272.625 60.416664 272.125 60.90104Q271.64062 61.385414 271.59375 62.21354ZM278.04688 65.916664L278.04688 60.510414L277.10938 60.510414L277.10938 59.697914L278.04688 59.697914L278.04688 59.02604Q278.04688 58.40104 278.15625 58.104164Q278.3125 57.68229 278.6875 57.43229Q279.07812 57.18229 279.76562 57.18229Q280.21875 57.18229 280.75 57.291664L280.59375 58.197914Q280.26562 58.15104 279.96875 58.15104Q279.48438 58.15104 279.28125 58.354164Q279.09375 58.55729 279.09375 59.11979L279.09375 59.697914L280.3125 59.697914L280.3125 60.510414L279.09375 60.510414L279.09375 65.916664L278.04688 65.916664ZM280.40625 62.80729Q280.40625 61.072914 281.35938 60.24479Q282.15625 59.55729 283.3125 59.55729Q284.59375 59.55729 285.40625 60.40104Q286.23438 61.229164 286.23438 62.71354Q286.23438 63.916664 285.875 64.604164Q285.51562 65.291664 284.8125 65.68229Q284.125 66.05729 283.3125 66.05729Q282.01562 66.05729 281.20312 65.229164Q280.40625 64.385414 280.40625 62.80729ZM281.48438 62.80729Q281.48438 63.99479 282.0 64.58854Q282.53125 65.18229 283.3125 65.18229Q284.10938 65.18229 284.625 64.58854Q285.14062 63.99479 285.14062 62.77604Q285.14062 61.61979 284.60938 61.02604Q284.09375 60.43229 283.3125 60.43229Q282.53125 60.43229 282.0 61.02604Q281.48438 61.604164 281.48438 62.80729ZM287.78125 65.916664L287.78125 59.697914L288.73438 59.697914L288.73438 60.635414Q289.09375 59.979164 289.39062 59.77604Q289.70312 59.55729 290.07812 59.55729Q290.60938 59.55729 291.15625 59.885414L290.79688 60.86979Q290.40625 60.635414 290.03125 60.635414Q289.67188 60.635414 289.39062 60.854164Q289.125 61.05729 289.01562 61.43229Q288.82812 61.99479 288.82812 62.65104L288.82812 65.916664L287.78125 65.916664ZM296.04688 63.916664L297.14062 64.041664Q296.89062 64.99479 296.1875 65.52604Q295.48438 66.05729 294.40625 66.05729Q293.04688 66.05729 292.23438 65.21354Q291.4375 64.36979 291.4375 62.854164Q291.4375 61.291664 292.25 60.43229Q293.0625 59.55729 294.34375 59.55729Q295.59375 59.55729 296.375 60.40104Q297.17188 61.24479 297.17188 62.791664Q297.17188 62.885414 297.17188 63.072914L292.53125 63.072914Q292.59375 64.104164 293.10938 64.65104Q293.625 65.18229 294.40625 65.18229Q294.98438 65.18229 295.39062 64.885414Q295.8125 64.572914 296.04688 63.916664ZM292.59375 62.21354L296.0625 62.21354Q296.0 61.416664 295.67188 61.02604Q295.15625 60.416664 294.35938 60.416664Q293.625 60.416664 293.125 60.90104Q292.64062 61.385414 292.59375 62.21354Z" fill-rule="nonzero"/><path fill="#cc0000" d="M314.0 56.916668C314.0 56.364384 314.44772 55.916668 315.0 55.916668L325.0 55.916668C325.55228 55.916668 326.0 56.364384 326.0 56.916668L326.0 66.916664C326.0 67.46895 325.55228 67.916664 325.0 67.916664L315.0 67.916664C314.44772 67.916664 314.0 67.46895 314.0 66.916664Z" fill-rule="nonzero"/><path fill="#f3f3f3" d="M333.98438 65.916664L337.28125 57.322914L338.5 57.322914L342.01562 65.916664L340.73438 65.916664L339.71875 63.30729L336.14062 63.30729L335.1875 65.916664L333.98438 65.916664ZM336.46875 62.385414L339.375 62.385414L338.48438 60.010414Q338.0625 58.93229 337.875 58.229164Q337.70312 59.05729 337.40625 59.86979L336.46875 62.385414ZM342.04688 65.916664L342.04688 60.510414L341.10938 60.510414L341.10938 59.697914L342.04688 59.697914L342.04688 59.02604Q342.04688 58.40104 342.15625 58.104164Q342.3125 57.68229 342.6875 57.43229Q343.07812 57.18229 343.76562 57.18229Q344.21875 57.18229 344.75 57.291664L344.59375 58.197914Q344.26562 58.15104 343.96875 58.15104Q343.48438 58.15104 343.28125 58.354164Q343.09375 58.55729 343.09375 59.11979L343.09375 59.697914L344.3125 59.697914L344.3125 60.510414L343.09375 60.510414L343.09375 65.916664L342.04688 65.916664ZM347.09375 64.979164L347.25 65.90104Q346.79688 65.99479 346.45312 65.99479Q345.875 65.99479 345.5625 65.822914Q345.25 65.635414 345.10938 65.33854Q344.98438 65.041664 344.98438 64.08854L344.98438 60.510414L344.21875 60.510414L344.21875 59.697914L344.98438 59.697914L344.98438 58.15104L346.03125 57.52604L346.03125 59.697914L347.09375 59.697914L347.09375 60.510414L346.03125 60.510414L346.03125 64.15104Q346.03125 64.604164 346.07812 64.729164Q346.14062 64.854164 346.26562 64.93229Q346.39062 65.010414 346.625 65.010414Q346.8125 65.010414 347.09375 64.979164ZM352.04688 63.916664L353.14062 64.041664Q352.89062 64.99479 352.1875 65.52604Q351.48438 66.05729 350.40625 66.05729Q349.04688 66.05729 348.23438 65.21354Q347.4375 64.36979 347.4375 62.854164Q347.4375 61.291664 348.25 60.43229Q349.0625 59.55729 350.34375 59.55729Q351.59375 59.55729 352.375 60.40104Q353.17188 61.24479 353.17188 62.791664Q353.17188 62.885414 353.17188 63.072914L348.53125 63.072914Q348.59375 64.104164 349.10938 64.65104Q349.625 65.18229 350.40625 65.18229Q350.98438 65.18229 351.39062 64.885414Q351.8125 64.572914 352.04688 63.916664ZM348.59375 62.21354L352.0625 62.21354Q352.0 61.416664 351.67188 61.02604Q351.15625 60.416664 350.35938 60.416664Q349.625 60.416664 349.125 60.90104Q348.64062 61.385414 348.59375 62.21354ZM354.78125 65.916664L354.78125 59.697914L355.73438 59.697914L355.73438 60.635414Q356.09375 59.979164 356.39062 59.77604Q356.70312 59.55729 357.07812 59.55729Q357.60938 59.55729 358.15625 59.885414L357.79688 60.86979Q357.40625 60.635414 357.03125 60.635414Q356.67188 60.635414 356.39062 60.854164Q356.125 61.05729 356.01562 61.43229Q355.82812 61.99479 355.82812 62.65104L355.82812 65.916664L354.78125 65.916664Z" fill-rule="nonzero"/><path fill="#f3f3f3" d="M31.33125 37.55L28.753124 37.55L27.721874 34.3L23.034374 34.3L22.065624 37.55L19.55 37.55L24.128124 23.2375L26.628124 23.2375L31.33125 37.55ZM26.95625 31.878124L25.346874 26.565624L23.753124 31.878124L26.95625 31.878124ZM34.065624 37.55L30.64375 27.175L33.003124 27.175L34.596874 32.471874L35.065624 34.2375L35.534374 32.471874L37.159374 27.175L39.471874 27.175L36.08125 37.55L34.065624 37.55ZM45.659374 34.253124L47.89375 34.70625Q47.45625 36.26875 46.503124 37.034374Q45.55 37.784374 44.20625 37.784374Q42.315624 37.784374 41.284374 36.51875Q40.08125 35.065624 40.08125 32.425Q40.08125 29.83125 41.3 28.26875Q42.33125 26.940624 43.971874 26.940624Q45.8 26.940624 46.83125 28.284374Q48.034374 29.83125 48.034374 32.846874L48.01875 33.159374L42.378124 33.159374Q42.409374 34.378124 42.940624 35.065624Q43.471874 35.7375 44.221874 35.7375Q45.3 35.7375 45.659374 34.253124ZM45.784374 31.471874Q45.76875 30.26875 45.26875 29.659374Q44.784374 29.05 44.1125 29.05Q43.39375 29.05 42.909374 29.675Q42.409374 30.315624 42.425 31.471874L45.784374 31.471874ZM51.89375 37.55L49.628124 37.55L49.628124 27.175L51.721874 27.175L51.721874 28.659374Q52.26875 27.6125 52.690624 27.284374Q53.1125 26.940624 53.675 26.940624Q54.440624 26.940624 55.14375 27.45625L54.440624 29.846874Q53.878124 29.409374 53.378124 29.409374Q52.909374 29.409374 52.55 29.753124Q52.20625 30.096874 52.05 31.003124Q51.89375 31.909374 51.89375 34.346874L51.89375 37.55ZM57.409374 30.346874L55.378124 29.89375Q55.7375 28.315624 56.596874 27.628124Q57.45625 26.940624 59.05 26.940624Q60.471874 26.940624 61.221874 27.346874Q61.9875 27.7375 62.3 28.440624Q62.628124 29.128124 62.628124 30.940624L62.6125 34.14375Q62.6125 35.4875 62.70625 36.14375Q62.815624 36.8 63.1125 37.55L60.89375 37.55L60.596874 36.409374Q60.01875 37.096874 59.3625 37.440624Q58.70625 37.784374 57.95625 37.784374Q56.721874 37.784374 55.925 36.95625Q55.14375 36.1125 55.14375 34.721874Q55.14375 33.846874 55.45625 33.190624Q55.784374 32.534374 56.3625 32.14375Q56.95625 31.753124 58.2375 31.45625Q59.8 31.096874 60.425 30.784374Q60.425 29.925 60.3 29.659374Q60.175 29.378124 59.846874 29.221874Q59.51875 29.05 58.925 29.05Q58.315624 29.05 57.971874 29.33125Q57.628124 29.596874 57.409374 30.346874ZM60.425 32.565624Q59.9875 32.7375 59.08125 32.971874Q58.034374 33.253124 57.721874 33.58125Q57.39375 33.909374 57.39375 34.440624Q57.39375 35.034374 57.753124 35.440624Q58.1125 35.846874 58.64375 35.846874Q59.128124 35.846874 59.596874 35.51875Q60.065624 35.190624 60.2375 34.753124Q60.425 34.3 60.425 33.1125L60.425 32.565624ZM64.51875 38.2375L67.09688 38.6125Q67.15938 39.175 67.45625 39.409374Q67.75313 39.659374 68.39375 39.659374Q69.14375 39.659374 69.59688 39.409374Q69.925 39.2375 70.09688 38.83125Q70.26875 38.425 70.26875 37.378124L70.26875 35.8625Q69.76875 36.70625 69.12813 37.128124Q68.4875 37.55 67.72188 37.55Q66.3 37.55 65.33125 36.26875Q64.22188 34.8 64.22188 32.3Q64.22188 29.64375 65.26875 28.3Q66.33125 26.940624 67.81563 26.940624Q68.6125 26.940624 69.25313 27.3625Q69.90938 27.784374 70.40938 28.628124L70.40938 27.175L72.51875 27.175L72.51875 36.4875Q72.51875 38.721874 72.1125 39.721874Q71.70625 40.7375 70.84688 41.2375Q70.00313 41.753124 68.4875 41.753124Q67.08125 41.753124 66.2375 41.378124Q65.40938 41.01875 64.95625 40.284374Q64.51875 39.55 64.51875 38.58125L64.51875 38.2375ZM66.53438 32.14375Q66.53438 33.815624 67.06563 34.58125Q67.59688 35.33125 68.34688 35.33125Q69.15938 35.33125 69.7375 34.565624Q70.31563 33.784374 70.31563 32.221874Q70.31563 30.596874 69.75313 29.83125Q69.20625 29.05 68.39375 29.05Q67.59688 29.05 67.06563 29.815624Q66.53438 30.565624 66.53438 32.14375ZM79.65938 34.253124L81.89375 34.70625Q81.45625 36.26875 80.50313 37.034374Q79.55 37.784374 78.20625 37.784374Q76.31563 37.784374 75.28438 36.51875Q74.08125 35.065624 74.08125 32.425Q74.08125 29.83125 75.3 28.26875Q76.33125 26.940624 77.97188 26.940624Q79.8 26.940624 80.83125 28.284374Q82.03438 29.83125 82.03438 32.846874L82.01875 33.159374L76.37813 33.159374Q76.40938 34.378124 76.94063 35.065624Q77.47188 35.7375 78.22188 35.7375Q79.3 35.7375 79.65938 34.253124ZM79.78438 31.471874Q79.76875 30.26875 79.26875 29.659374Q78.78438 29.05 78.1125 29.05Q77.39375 29.05 76.90938 29.675Q76.40938 30.315624 76.425 31.471874L79.78438 31.471874ZM88.76875 37.55L88.76875 23.2375L96.81563 23.2375L96.81563 25.659374L91.12813 25.659374L91.12813 29.05L96.03438 29.05L96.03438 31.471874L91.12813 31.471874L91.12813 37.55L88.76875 37.55ZM98.7375 37.55L98.7375 23.2375L102.55 23.2375Q104.675 23.2375 105.33125 23.440624Q106.37813 23.76875 107.05 24.8625Q107.7375 25.940624 107.7375 27.64375Q107.7375 29.20625 107.14375 30.253124Q106.56563 31.3 105.675 31.721874Q104.8 32.14375 102.65938 32.14375L101.1125 32.14375L101.1125 37.55L98.7375 37.55ZM101.1125 25.659374L101.1125 29.721874L102.40938 29.721874Q103.7375 29.721874 104.20625 29.534374Q104.675 29.346874 104.97188 28.8625Q105.28438 28.378124 105.28438 27.675Q105.28438 26.95625 104.97188 26.471874Q104.65938 25.9875 104.19063 25.83125Q103.7375 25.659374 102.25313 25.659374L101.1125 25.659374ZM109.14375 32.89375L111.45625 32.6125Q111.84688 35.3625 114.01875 35.3625Q115.09688 35.3625 115.70625 34.8Q116.33125 34.2375 116.33125 33.409374Q116.33125 32.925 116.1125 32.58125Q115.89375 32.2375 115.45625 32.01875Q115.01875 31.8 113.33125 31.284374Q111.81563 30.815624 111.1125 30.284374Q110.40938 29.753124 109.9875 28.878124Q109.58125 28.003124 109.58125 26.9875Q109.58125 25.815624 110.1125 24.878124Q110.64375 23.940624 111.58125 23.471874Q112.51875 22.9875 113.89375 22.9875Q115.95625 22.9875 117.1125 24.1125Q118.28438 25.2375 118.3625 27.33125L115.9875 27.45625Q115.83125 26.3 115.3 25.846874Q114.78438 25.378124 113.83125 25.378124Q112.87813 25.378124 112.3625 25.784374Q111.84688 26.175 111.84688 26.784374Q111.84688 27.3625 112.31563 27.76875Q112.78438 28.159374 114.47188 28.64375Q116.25313 29.159374 117.05 29.7375Q117.84688 30.3 118.26875 31.20625Q118.69063 32.1125 118.69063 33.39375Q118.69063 35.26875 117.53438 36.534374Q116.39375 37.8 113.95625 37.8Q109.62813 37.8 109.14375 32.89375ZM125.20625 32.221874Q125.20625 30.690624 125.8 29.440624Q126.40938 28.190624 127.37813 27.565624Q128.3625 26.940624 129.59688 26.940624Q131.64375 26.940624 132.81563 28.55Q133.9875 30.159374 133.9875 32.3Q133.9875 33.909374 133.37813 35.20625Q132.76875 36.4875 131.76875 37.14375Q130.78438 37.784374 129.59688 37.784374Q127.70625 37.784374 126.45625 36.346874Q125.20625 34.89375 125.20625 32.221874ZM127.50313 32.3625Q127.50313 33.940624 128.1125 34.753124Q128.7375 35.55 129.6125 35.55Q130.45625 35.55 131.06563 34.7375Q131.675 33.925 131.675 32.346874Q131.675 30.8 131.05 29.9875Q130.44063 29.175 129.58125 29.175Q128.7375 29.175 128.1125 29.9875Q127.50313 30.8 127.50313 32.3625ZM143.47188 37.55L141.20625 37.55L141.20625 32.253124Q141.20625 30.659374 141.08125 30.14375Q140.95625 29.6125 140.6125 29.33125Q140.26875 29.05 139.83125 29.05Q139.25313 29.05 138.8 29.409374Q138.34688 29.76875 138.15938 30.425Q137.97188 31.065624 137.97188 32.846874L137.97188 37.55L135.70625 37.55L135.70625 27.175L137.8 27.175L137.8 28.70625Q138.3625 27.815624 139.05 27.378124Q139.75313 26.940624 140.6125 26.940624Q141.59688 26.940624 142.26875 27.45625Q142.95625 27.971874 143.20625 28.784374Q143.47188 29.58125 143.47188 31.096874L143.47188 37.55ZM149.94063 34.596874L152.19063 34.175Q152.4875 35.8 154.01875 35.8Q154.83125 35.8 155.22188 35.4875Q155.62813 35.175 155.62813 34.675Q155.62813 34.33125 155.45625 34.14375Q155.26875 33.940624 154.72188 33.8Q151.94063 33.065624 151.19063 32.409374Q150.25313 31.565624 150.25313 30.128124Q150.25313 28.675 151.175 27.815624Q152.09688 26.940624 153.83125 26.940624Q155.50313 26.940624 156.37813 27.596874Q157.25313 28.2375 157.59688 29.690624L155.47188 30.159374Q155.19063 28.909374 153.87813 28.909374Q153.05 28.909374 152.69063 29.159374Q152.34688 29.39375 152.34688 29.76875Q152.34688 30.1125 152.65938 30.346874Q152.9875 30.58125 154.675 31.05Q156.55 31.565624 157.22188 32.33125Q157.89375 33.08125 157.89375 34.33125Q157.89375 35.83125 156.8625 36.815624Q155.83125 37.784374 154.01875 37.784374Q152.3625 37.784374 151.31563 36.971874Q150.26875 36.159374 149.94063 34.596874ZM158.65938 27.175L161.06563 27.175L163.08125 34.534374L165.08125 27.175L167.39375 27.175L164.39375 37.159374L163.83125 39.096874Q163.44063 40.190624 163.06563 40.690624Q162.69063 41.20625 162.1125 41.471874Q161.53438 41.753124 160.675 41.753124Q160.01875 41.753124 159.39375 41.596874L159.20625 39.440624Q159.7375 39.565624 160.15938 39.565624Q160.8 39.565624 161.20625 39.128124Q161.62813 38.70625 161.89375 37.58125L158.65938 27.175ZM176.47188 37.55L174.20625 37.55L174.20625 32.253124Q174.20625 30.659374 174.08125 30.14375Q173.95625 29.6125 173.6125 29.33125Q173.26875 29.05 172.83125 29.05Q172.25313 29.05 171.8 29.409374Q171.34688 29.76875 171.15938 30.425Q170.97188 31.065624 170.97188 32.846874L170.97188 37.55L168.70625 37.55L168.70625 27.175L170.8 27.175L170.8 28.70625Q171.3625 27.815624 172.05 27.378124Q172.75313 26.940624 173.6125 26.940624Q174.59688 26.940624 175.26875 27.45625Q175.95625 27.971874 176.20625 28.784374Q176.47188 29.58125 176.47188 31.096874L176.47188 37.55ZM182.6125 27.175L182.6125 29.3625L181.08125 29.3625L181.08125 33.55Q181.08125 34.909374 181.15938 35.1125Q181.28438 35.503124 181.70625 35.503124Q182.01875 35.503124 182.6125 35.2375L182.8 37.378124Q182.01875 37.784374 181.03438 37.784374Q180.175 37.784374 179.65938 37.378124Q179.14375 36.95625 178.97188 36.190624Q178.83125 35.628124 178.83125 33.89375L178.83125 29.3625L177.8 29.3625L177.8 27.175L178.83125 27.175L178.83125 25.1125L181.08125 23.51875L181.08125 27.175L182.6125 27.175ZM182.65938 27.175L185.06563 27.175L187.08125 34.534374L189.08125 27.175L191.39375 27.175L188.39375 37.159374L187.83125 39.096874Q187.44063 40.190624 187.06563 40.690624Q186.69063 41.20625 186.1125 41.471874Q185.53438 41.753124 184.675 41.753124Q184.01875 41.753124 183.39375 41.596874L183.20625 39.440624Q183.7375 39.565624 184.15938 39.565624Q184.8 39.565624 185.20625 39.128124Q185.62813 38.70625 185.89375 37.58125L182.65938 27.175ZM197.76875 37.55L197.76875 23.2375L205.81563 23.2375L205.81563 25.659374L200.12813 25.659374L200.12813 29.05L205.03438 29.05L205.03438 31.471874L200.12813 31.471874L200.12813 37.55L197.76875 37.55ZM209.40938 30.346874L207.37813 29.89375Q207.7375 28.315624 208.59688 27.628124Q209.45625 26.940624 211.05 26.940624Q212.47188 26.940624 213.22188 27.346874Q213.9875 27.7375 214.3 28.440624Q214.62813 29.128124 214.62813 30.940624L214.6125 34.14375Q214.6125 35.4875 214.70625 36.14375Q214.81563 36.8 215.1125 37.55L212.89375 37.55L212.59688 36.409374Q212.01875 37.096874 211.3625 37.440624Q210.70625 37.784374 209.95625 37.784374Q208.72188 37.784374 207.925 36.95625Q207.14375 36.1125 207.14375 34.721874Q207.14375 33.846874 207.45625 33.190624Q207.78438 32.534374 208.3625 32.14375Q208.95625 31.753124 210.2375 31.45625Q211.8 31.096874 212.425 30.784374Q212.425 29.925 212.3 29.659374Q212.175 29.378124 211.84688 29.221874Q211.51875 29.05 210.925 29.05Q210.31563 29.05 209.97188 29.33125Q209.62813 29.596874 209.40938 30.346874ZM212.425 32.565624Q211.9875 32.7375 211.08125 32.971874Q210.03438 33.253124 209.72188 33.58125Q209.39375 33.909374 209.39375 34.440624Q209.39375 35.034374 209.75313 35.440624Q210.1125 35.846874 210.64375 35.846874Q211.12813 35.846874 211.59688 35.51875Q212.06563 35.190624 212.2375 34.753124Q212.425 34.3 212.425 33.1125L212.425 32.565624ZM224.47188 37.55L222.20625 37.55L222.20625 32.253124Q222.20625 30.659374 222.08125 30.14375Q221.95625 29.6125 221.6125 29.33125Q221.26875 29.05 220.83125 29.05Q220.25313 29.05 219.8 29.409374Q219.34688 29.76875 219.15938 30.425Q218.97188 31.065624 218.97188 32.846874L218.97188 37.55L216.70625 37.55L216.70625 27.175L218.8 27.175L218.8 28.70625Q219.3625 27.815624 220.05 27.378124Q220.75313 26.940624 221.6125 26.940624Q222.59688 26.940624 223.26875 27.45625Q223.95625 27.971874 224.20625 28.784374Q224.47188 29.58125 224.47188 31.096874L224.47188 37.55ZM230.6125 27.175L230.6125 29.3625L229.08125 29.3625L229.08125 33.55Q229.08125 34.909374 229.15938 35.1125Q229.28438 35.503124 229.70625 35.503124Q230.01875 35.503124 230.6125 35.2375L230.8 37.378124Q230.01875 37.784374 229.03438 37.784374Q228.175 37.784374 227.65938 37.378124Q227.14375 36.95625 226.97188 36.190624Q226.83125 35.628124 226.83125 33.89375L226.83125 29.3625L225.8 29.3625L225.8 27.175L226.83125 27.175L226.83125 25.1125L229.08125 23.51875L229.08125 27.175L230.6125 27.175ZM233.40938 30.346874L231.37813 29.89375Q231.7375 28.315624 232.59688 27.628124Q233.45625 26.940624 235.05 26.940624Q236.47188 26.940624 237.22188 27.346874Q237.9875 27.7375 238.3 28.440624Q238.62813 29.128124 238.62813 30.940624L238.6125 34.14375Q238.6125 35.4875 238.70625 36.14375Q238.81563 36.8 239.1125 37.55L236.89375 37.55L236.59688 36.409374Q236.01875 37.096874 235.3625 37.440624Q234.70625 37.784374 233.95625 37.784374Q232.72188 37.784374 231.925 36.95625Q231.14375 36.1125 231.14375 34.721874Q231.14375 33.846874 231.45625 33.190624Q231.78438 32.534374 232.3625 32.14375Q232.95625 31.753124 234.2375 31.45625Q235.8 31.096874 236.425 30.784374Q236.425 29.925 236.3 29.659374Q236.175 29.378124 235.84688 29.221874Q235.51875 29.05 234.925 29.05Q234.31563 29.05 233.97188 29.33125Q233.62813 29.596874 233.40938 30.346874ZM236.425 32.565624Q235.9875 32.7375 235.08125 32.971874Q234.03438 33.253124 233.72188 33.58125Q233.39375 33.909374 233.39375 34.440624Q233.39375 35.034374 233.75313 35.440624Q234.1125 35.846874 234.64375 35.846874Q235.12813 35.846874 235.59688 35.51875Q236.06563 35.190624 236.2375 34.753124Q236.425 34.3 236.425 33.1125L236.425 32.565624ZM239.94063 34.596874L242.19063 34.175Q242.4875 35.8 244.01875 35.8Q244.83125 35.8 245.22188 35.4875Q245.62813 35.175 245.62813 34.675Q245.62813 34.33125 245.45625 34.14375Q245.26875 33.940624 244.72188 33.8Q241.94063 33.065624 241.19063 32.409374Q240.25313 31.565624 240.25313 30.128124Q240.25313 28.675 241.175 27.815624Q242.09688 26.940624 243.83125 26.940624Q245.50313 26.940624 246.37813 27.596874Q247.25313 28.2375 247.59688 29.690624L245.47188 30.159374Q245.19063 28.909374 243.87813 28.909374Q243.05 28.909374 242.69063 29.159374Q242.34688 29.39375 242.34688 29.76875Q242.34688 30.1125 242.65938 30.346874Q242.9875 30.58125 244.675 31.05Q246.55 31.565624 247.22188 32.33125Q247.89375 33.08125 247.89375 34.33125Q247.89375 35.83125 246.8625 36.815624Q245.83125 37.784374 244.01875 37.784374Q242.3625 37.784374 241.31563 36.971874Q240.26875 36.159374 239.94063 34.596874ZM248.65938 27.175L251.06563 27.175L253.08125 34.534374L255.08125 27.175L257.39374 27.175L254.39375 37.159374L253.83125 39.096874Q253.44063 40.190624 253.06563 40.690624Q252.69063 41.20625 252.1125 41.471874Q251.53438 41.753124 250.675 41.753124Q250.01875 41.753124 249.39375 41.596874L249.20625 39.440624Q249.7375 39.565624 250.15938 39.565624Q250.8 39.565624 251.20625 39.128124Q251.62813 38.70625 251.89375 37.58125L248.65938 27.175ZM263.76874 37.55L263.76874 23.2375L266.1281 23.2375L266.1281 29.596874L270.925 23.2375L274.1281 23.2375L269.70624 28.815624L274.3625 37.55L271.28436 37.55L268.0656 30.83125L266.1281 33.221874L266.1281 37.55L263.76874 37.55ZM275.7375 25.76875L275.7375 23.2375L277.9875 23.2375L277.9875 25.76875L275.7375 25.76875ZM275.7375 37.55L275.7375 27.175L277.9875 27.175L277.9875 37.55L275.7375 37.55ZM287.47186 37.55L285.20624 37.55L285.20624 32.253124Q285.20624 30.659374 285.08124 30.14375Q284.95624 29.6125 284.6125 29.33125Q284.26874 29.05 283.83124 29.05Q283.2531 29.05 282.8 29.409374Q282.34686 29.76875 282.15936 30.425Q281.97186 31.065624 281.97186 32.846874L281.97186 37.55L279.70624 37.55L279.70624 27.175L281.8 27.175L281.8 28.70625Q282.3625 27.815624 283.05 27.378124Q283.7531 26.940624 284.6125 26.940624Q285.59686 26.940624 286.26874 27.45625Q286.95624 27.971874 287.20624 28.784374Q287.47186 29.58125 287.47186 31.096874L287.47186 37.55ZM289.51874 38.2375L292.09686 38.6125Q292.15936 39.175 292.45624 39.409374Q292.7531 39.659374 293.39374 39.659374Q294.14374 39.659374 294.59686 39.409374Q294.925 39.2375 295.09686 38.83125Q295.26874 38.425 295.26874 37.378124L295.26874 35.8625Q294.76874 36.70625 294.1281 37.128124Q293.4875 37.55 292.72186 37.55Q291.3 37.55 290.33124 36.26875Q289.22186 34.8 289.22186 32.3Q289.22186 29.64375 290.26874 28.3Q291.33124 26.940624 292.8156 26.940624Q293.6125 26.940624 294.2531 27.3625Q294.90936 27.784374 295.40936 28.628124L295.40936 27.175L297.51874 27.175L297.51874 36.4875Q297.51874 38.721874 297.1125 39.721874Q296.70624 40.7375 295.84686 41.2375Q295.0031 41.753124 293.4875 41.753124Q292.08124 41.753124 291.2375 41.378124Q290.40936 41.01875 289.95624 40.284374Q289.51874 39.55 289.51874 38.58125L289.51874 38.2375ZM291.53436 32.14375Q291.53436 33.815624 292.0656 34.58125Q292.59686 35.33125 293.34686 35.33125Q294.15936 35.33125 294.7375 34.565624Q295.3156 33.784374 295.3156 32.221874Q295.3156 30.596874 294.7531 29.83125Q294.20624 29.05 293.39374 29.05Q292.59686 29.05 292.0656 29.815624Q291.53436 30.565624 291.53436 32.14375ZM307.53436 37.55L305.4406 37.55L305.4406 36.01875Q304.925 36.909374 304.22186 37.346874Q303.51874 37.784374 302.76874 37.784374Q301.34686 37.784374 300.28436 36.3625Q299.22186 34.940624 299.22186 32.3Q299.22186 29.64375 300.2531 28.3Q301.3 26.940624 302.8156 26.940624Q303.51874 26.940624 304.14374 27.3Q304.76874 27.659374 305.28436 28.39375L305.28436 23.2375L307.53436 23.2375L307.53436 37.55ZM301.53436 32.14375Q301.53436 33.55 301.76874 34.2375Q302.0031 34.925 302.4406 35.26875Q302.89374 35.6125 303.45624 35.6125Q304.1906 35.6125 304.7375 34.815624Q305.28436 34.01875 305.28436 32.409374Q305.28436 30.6125 304.7531 29.83125Q304.22186 29.05 303.40936 29.05Q302.6281 29.05 302.08124 29.815624Q301.53436 30.58125 301.53436 32.14375ZM309.20624 32.221874Q309.20624 30.690624 309.8 29.440624Q310.40936 28.190624 311.3781 27.565624Q312.3625 26.940624 313.59686 26.940624Q315.64374 26.940624 316.8156 28.55Q317.9875 30.159374 317.9875 32.3Q317.9875 33.909374 317.3781 35.20625Q316.76874 36.4875 315.76874 37.14375Q314.78436 37.784374 313.59686 37.784374Q311.70624 37.784374 310.45624 36.346874Q309.20624 34.89375 309.20624 32.221874ZM311.5031 32.3625Q311.5031 33.940624 312.1125 34.753124Q312.7375 35.55 313.6125 35.55Q314.45624 35.55 315.0656 34.7375Q315.675 33.925 315.675 32.346874Q315.675 30.8 315.05 29.9875Q314.4406 29.175 313.58124 29.175Q312.7375 29.175 312.1125 29.9875Q311.5031 30.8 311.5031 32.3625ZM319.55 27.175L321.6281 27.175L321.6281 28.596874Q322.1906 27.76875 322.84686 27.3625Q323.51874 26.940624 324.28436 26.940624Q325.09686 26.940624 325.6906 27.3625Q326.3 27.76875 326.6906 28.596874Q327.2531 27.76875 327.89374 27.3625Q328.55 26.940624 329.28436 26.940624Q330.15936 26.940624 330.78436 27.3625Q331.40936 27.76875 331.7375 28.55Q332.0656 29.315624 332.0656 30.925L332.0656 37.55L329.8156 37.55L329.8156 31.628124Q329.8156 30.065624 329.53436 29.565624Q329.26874 29.05 328.6125 29.05Q327.8625 29.05 327.40936 29.76875Q326.95624 30.471874 326.95624 32.565624L326.95624 37.55L324.6906 37.55L324.6906 31.8625Q324.6906 30.175 324.5031 29.690624Q324.26874 29.05 323.51874 29.05Q323.01874 29.05 322.59686 29.378124Q322.1906 29.70625 322.0031 30.346874Q321.8156 30.9875 321.8156 32.503124L321.8156 37.55L319.55 37.55L319.55 27.175ZM346.26874 32.284374L348.55 33.175Q348.01874 35.58125 346.76874 36.690624Q345.51874 37.8 343.6906 37.8Q341.39374 37.8 339.97186 36.01875Q338.33124 33.9875 338.33124 30.51875Q338.33124 26.8625 339.9875 24.784374Q341.425 22.9875 343.84686 22.9875Q345.8156 22.9875 347.14374 24.33125Q348.08124 25.3 348.53436 27.175L346.1906 27.8625Q345.95624 26.70625 345.28436 26.08125Q344.6281 25.45625 343.70624 25.45625Q342.40936 25.45625 341.58124 26.596874Q340.76874 27.721874 340.76874 30.33125Q340.76874 33.034374 341.5656 34.175Q342.3781 35.315624 343.65936 35.315624Q344.59686 35.315624 345.26874 34.596874Q345.95624 33.8625 346.26874 32.284374ZM352.40936 30.346874L350.3781 29.89375Q350.7375 28.315624 351.59686 27.628124Q352.45624 26.940624 354.05 26.940624Q355.47186 26.940624 356.22186 27.346874Q356.9875 27.7375 357.3 28.440624Q357.6281 29.128124 357.6281 30.940624L357.6125 34.14375Q357.6125 35.4875 357.70624 36.14375Q357.8156 36.8 358.1125 37.55L355.89374 37.55L355.59686 36.409374Q355.01874 37.096874 354.3625 37.440624Q353.70624 37.784374 352.95624 37.784374Q351.72186 37.784374 350.925 36.95625Q350.14374 36.1125 350.14374 34.721874Q350.14374 33.846874 350.45624 33.190624Q350.78436 32.534374 351.3625 32.14375Q351.95624 31.753124 353.2375 31.45625Q354.8 31.096874 355.425 30.784374Q355.425 29.925 355.3 29.659374Q355.175 29.378124 354.84686 29.221874Q354.51874 29.05 353.925 29.05Q353.3156 29.05 352.97186 29.33125Q352.6281 29.596874 352.40936 30.346874ZM355.425 32.565624Q354.9875 32.7375 354.08124 32.971874Q353.03436 33.253124 352.72186 33.58125Q352.39374 33.909374 352.39374 34.440624Q352.39374 35.034374 352.7531 35.440624Q353.1125 35.846874 353.64374 35.846874Q354.1281 35.846874 354.59686 35.51875Q355.0656 35.190624 355.2375 34.753124Q355.425 34.3 355.425 33.1125L355.425 32.565624ZM358.9406 34.596874L361.1906 34.175Q361.4875 35.8 363.01874 35.8Q363.83124 35.8 364.22186 35.4875Q364.6281 35.175 364.6281 34.675Q364.6281 34.33125 364.45624 34.14375Q364.26874 33.940624 363.72186 33.8Q360.9406 33.065624 360.1906 32.409374Q359.2531 31.565624 359.2531 30.128124Q359.2531 28.675 360.175 27.815624Q361.09686 26.940624 362.83124 26.940624Q364.5031 26.940624 365.3781 27.596874Q366.2531 28.2375 366.59686 29.690624L364.47186 30.159374Q364.1906 28.909374 362.8781 28.909374Q362.05 28.909374 361.6906 29.159374Q361.34686 29.39375 361.34686 29.76875Q361.34686 30.1125 361.65936 30.346874Q361.9875 30.58125 363.675 31.05Q365.55 31.565624 366.22186 32.33125Q366.89374 33.08125 366.89374 34.33125Q366.89374 35.83125 365.8625 36.815624Q364.83124 37.784374 363.01874 37.784374Q361.3625 37.784374 360.3156 36.971874Q359.26874 36.159374 358.9406 34.596874ZM372.6125 27.175L372.6125 29.3625L371.08124 29.3625L371.08124 33.55Q371.08124 34.909374 371.15936 35.1125Q371.28436 35.503124 371.70624 35.503124Q372.01874 35.503124 372.6125 35.2375L372.8 37.378124Q372.01874 37.784374 371.03436 37.784374Q370.175 37.784374 369.65936 37.378124Q369.14374 36.95625 368.97186 36.190624Q368.83124 35.628124 368.83124 33.89375L368.83124 29.3625L367.8 29.3625L367.8 27.175L368.83124 27.175L368.83124 25.1125L371.08124 23.51875L371.08124 27.175L372.6125 27.175ZM373.7375 37.55L373.7375 23.2375L375.9875 23.2375L375.9875 37.55L373.7375 37.55ZM382.65936 34.253124L384.89374 34.70625Q384.45624 36.26875 383.5031 37.034374Q382.55 37.784374 381.20624 37.784374Q379.3156 37.784374 378.28436 36.51875Q377.08124 35.065624 377.08124 32.425Q377.08124 29.83125 378.3 28.26875Q379.33124 26.940624 380.97186 26.940624Q382.8 26.940624 383.83124 28.284374Q385.03436 29.83125 385.03436 32.846874L385.01874 33.159374L379.3781 33.159374Q379.40936 34.378124 379.9406 35.065624Q380.47186 35.7375 381.22186 35.7375Q382.3 35.7375 382.65936 34.253124ZM382.78436 31.471874Q382.76874 30.26875 382.26874 29.659374Q381.78436 29.05 381.1125 29.05Q380.39374 29.05 379.90936 29.675Q379.40936 30.315624 379.425 31.471874L382.78436 31.471874ZM390.9406 34.596874L393.1906 34.175Q393.4875 35.8 395.01874 35.8Q395.83124 35.8 396.22186 35.4875Q396.6281 35.175 396.6281 34.675Q396.6281 34.33125 396.45624 34.14375Q396.26874 33.940624 395.72186 33.8Q392.9406 33.065624 392.1906 32.409374Q391.2531 31.565624 391.2531 30.128124Q391.2531 28.675 392.175 27.815624Q393.09686 26.940624 394.83124 26.940624Q396.5031 26.940624 397.3781 27.596874Q398.2531 28.2375 398.59686 29.690624L396.47186 30.159374Q396.1906 28.909374 394.8781 28.909374Q394.05 28.909374 393.6906 29.159374Q393.34686 29.39375 393.34686 29.76875Q393.34686 30.1125 393.65936 30.346874Q393.9875 30.58125 395.675 31.05Q397.55 31.565624 398.22186 32.33125Q398.89374 33.08125 398.89374 34.33125Q398.89374 35.83125 397.8625 36.815624Q396.83124 37.784374 395.01874 37.784374Q393.3625 37.784374 392.3156 36.971874Q391.26874 36.159374 390.9406 34.596874ZM408.14374 30.2375L405.925 30.7375Q405.6906 29.096874 404.39374 29.096874Q403.5656 29.096874 403.05 29.8Q402.55 30.503124 402.55 32.175Q402.55 34.01875 403.05 34.784374Q403.5656 35.55 404.40936 35.55Q405.05 35.55 405.45624 35.1125Q405.8625 34.675 406.05 33.58125L408.26874 34.034374Q407.58124 37.784374 404.33124 37.784374Q402.2531 37.784374 401.2375 36.20625Q400.2375 34.6125 400.2375 32.39375Q400.2375 29.721874 401.3625 28.33125Q402.5031 26.940624 404.3625 26.940624Q405.84686 26.940624 406.78436 27.7375Q407.7375 28.51875 408.14374 30.2375ZM414.65936 34.253124L416.89374 34.70625Q416.45624 36.26875 415.5031 37.034374Q414.55 37.784374 413.20624 37.784374Q411.3156 37.784374 410.28436 36.51875Q409.08124 35.065624 409.08124 32.425Q409.08124 29.83125 410.3 28.26875Q411.33124 26.940624 412.97186 26.940624Q414.8 26.940624 415.83124 28.284374Q417.03436 29.83125 417.03436 32.846874L417.01874 33.159374L411.3781 33.159374Q411.40936 34.378124 411.9406 35.065624Q412.47186 35.7375 413.22186 35.7375Q414.3 35.7375 414.65936 34.253124ZM414.78436 31.471874Q414.76874 30.26875 414.26874 29.659374Q413.78436 29.05 413.1125 29.05Q412.39374 29.05 411.90936 29.675Q411.40936 30.315624 411.425 31.471874L414.78436 31.471874ZM426.47186 37.55L424.20624 37.55L424.20624 32.253124Q424.20624 30.659374 424.08124 30.14375Q423.95624 29.6125 423.6125 29.33125Q423.26874 29.05 422.83124 29.05Q422.2531 29.05 421.8 29.409374Q421.34686 29.76875 421.15936 30.425Q420.97186 31.065624 420.97186 32.846874L420.97186 37.55L418.70624 37.55L418.70624 27.175L420.8 27.175L420.8 28.70625Q421.3625 27.815624 422.05 27.378124Q422.7531 26.940624 423.6125 26.940624Q424.59686 26.940624 425.26874 27.45625Q425.95624 27.971874 426.20624 28.784374Q426.47186 29.58125 426.47186 31.096874L426.47186 37.55ZM433.65936 34.253124L435.89374 34.70625Q435.45624 36.26875 434.5031 37.034374Q433.55 37.784374 432.20624 37.784374Q430.3156 37.784374 429.28436 36.51875Q428.08124 35.065624 428.08124 32.425Q428.08124 29.83125 429.3 28.26875Q430.33124 26.940624 431.97186 26.940624Q433.8 26.940624 434.83124 28.284374Q436.03436 29.83125 436.03436 32.846874L436.01874 33.159374L430.3781 33.159374Q430.40936 34.378124 430.9406 35.065624Q431.47186 35.7375 432.22186 35.7375Q433.3 35.7375 433.65936 34.253124ZM433.78436 31.471874Q433.76874 30.26875 433.26874 29.659374Q432.78436 29.05 432.1125 29.05Q431.39374 29.05 430.90936 29.675Q430.40936 30.315624 430.425 31.471874L433.78436 31.471874Z" fill-rule="nonzero"/></svg>