<svg version="1.1" viewBox="0.0 0.0 600.0 371.0" fill="none" stroke="none" stroke-linecap="square" stroke-miterlimit="10" width="600" height="371" xmlns:xlink="http://www.w3.org/1999/xlink" xmlns="http://www.w3.org/2000/svg"><path fill="#434343" d="M0 0L600.0 0L600.0 371.0L0 371.0L0 0Z" fill-rule="nonzero"/><path stroke="#ffffff" stroke-width="1.0" stroke-linecap="butt" d="M78.5 298.5L581.5 298.5" fill-rule="nonzero"/><path stroke="#767676" stroke-width="1.0" stroke-linecap="butt" d="M78.5 256.5L581.5 256.5" fill-rule="nonzero"/><path stroke="#767676" stroke-width="1.0" stroke-linecap="butt" d="M78.5 214.5L581.5 214.5" fill-rule="nonzero"/><path stroke="#767676" stroke-width="1.0" stroke-linecap="butt" d="M78.5 172.5L581.5 172.5" fill-rule="nonzero"/><path stroke="#767676" stroke-width="1.0" stroke-linecap="butt" d="M78.5 131.5L581.5 131.5" fill-rule="nonzero"/><path stroke="#767676" stroke-width="1.0" stroke-linecap="butt" d="M78.5 89.5L581.5 89.5" fill-rule="nonzero"/><clipPath id="id_0"><path d="M78.55 89.28333L581.45 89.28333L581.45 298.45L78.55 298.45L78.55 89.28333Z" clip-rule="nonzero"/></clipPath><path stroke="#000000" stroke-width="2.0" stroke-linecap="butt" stroke-opacity="0.0" clip-path="url(#id_0)" d="M156.0 298.0L120.0 298.0L120.0 148.0C120.0 146.89543 120.89543 146.0 122.0 146.0L154.0 146.0C155.10457 146.0 156.0 146.89543 156.0 148.0Z" fill-rule="nonzero"/><path fill="#4285f4" clip-path="url(#id_0)" d="M156.0 298.0L120.0 298.0L120.0 148.0C120.0 146.89543 120.89543 146.0 122.0 146.0L154.0 146.0C155.10457 146.0 156.0 146.89543 156.0 148.0Z" fill-rule="nonzero"/><path stroke="#000000" stroke-width="2.0" stroke-linecap="butt" stroke-opacity="0.0" clip-path="url(#id_0)" d="M271.0 298.0L235.0 298.0L235.0 160.0C235.0 158.89543 235.89543 158.0 237.0 158.0L269.0 158.0C270.10458 158.0 271.0 158.89543 271.0 160.0Z" fill-rule="nonzero"/><path fill="#4285f4" clip-path="url(#id_0)" d="M271.0 298.0L235.0 298.0L235.0 160.0C235.0 158.89543 235.89543 158.0 237.0 158.0L269.0 158.0C270.10458 158.0 271.0 158.89543 271.0 160.0Z" fill-rule="nonzero"/><path stroke="#000000" stroke-width="2.0" stroke-linecap="butt" stroke-opacity="0.0" clip-path="url(#id_0)" d="M387.0 298.0L351.0 298.0L351.0 193.0C351.0 191.89543 351.89542 191.0 353.0 191.0L385.0 191.0C386.10458 191.0 387.0 191.89543 387.0 193.0Z" fill-rule="nonzero"/><path fill="#4285f4" clip-path="url(#id_0)" d="M387.0 298.0L351.0 298.0L351.0 193.0C351.0 191.89543 351.89542 191.0 353.0 191.0L385.0 191.0C386.10458 191.0 387.0 191.89543 387.0 193.0Z" fill-rule="nonzero"/><path stroke="#000000" stroke-width="2.0" stroke-linecap="butt" stroke-opacity="0.0" clip-path="url(#id_0)" d="M502.0 298.0L466.0 298.0L466.0 155.0C466.0 153.89543 466.89542 153.0 468.0 153.0L500.0 153.0C501.10458 153.0 502.0 153.89543 502.0 155.0Z" fill-rule="nonzero"/><path fill="#4285f4" clip-path="url(#id_0)" d="M502.0 298.0L466.0 298.0L466.0 155.0C466.0 153.89543 466.89542 153.0 468.0 153.0L500.0 153.0C501.10458 153.0 502.0 153.89543 502.0 155.0Z" fill-rule="nonzero"/><path stroke="#000000" stroke-width="2.0" stroke-linecap="butt" stroke-opacity="0.0" clip-path="url(#id_0)" d="M194.0 298.0L158.0 298.0L158.0 131.0C158.0 129.89543 158.89543 129.0 160.0 129.0L192.0 129.0C193.10457 129.0 194.0 129.89543 194.0 131.0Z" fill-rule="nonzero"/><path fill="#ea4335" clip-path="url(#id_0)" d="M194.0 298.0L158.0 298.0L158.0 131.0C158.0 129.89543 158.89543 129.0 160.0 129.0L192.0 129.0C193.10457 129.0 194.0 129.89543 194.0 131.0Z" fill-rule="nonzero"/><path stroke="#000000" stroke-width="2.0" stroke-linecap="butt" stroke-opacity="0.0" clip-path="url(#id_0)" d="M309.0 298.0L273.0 298.0L273.0 157.0C273.0 155.89543 273.89542 155.0 275.0 155.0L307.0 155.0C308.10458 155.0 309.0 155.89543 309.0 157.0Z" fill-rule="nonzero"/><path fill="#ea4335" clip-path="url(#id_0)" d="M309.0 298.0L273.0 298.0L273.0 157.0C273.0 155.89543 273.89542 155.0 275.0 155.0L307.0 155.0C308.10458 155.0 309.0 155.89543 309.0 157.0Z" fill-rule="nonzero"/><path stroke="#000000" stroke-width="2.0" stroke-linecap="butt" stroke-opacity="0.0" clip-path="url(#id_0)" d="M425.0 298.0L389.0 298.0L389.0 190.0C389.0 188.89543 389.89542 188.0 391.0 188.0L423.0 188.0C424.10458 188.0 425.0 188.89543 425.0 190.0Z" fill-rule="nonzero"/><path fill="#ea4335" clip-path="url(#id_0)" d="M425.0 298.0L389.0 298.0L389.0 190.0C389.0 188.89543 389.89542 188.0 391.0 188.0L423.0 188.0C424.10458 188.0 425.0 188.89543 425.0 190.0Z" fill-rule="nonzero"/><path stroke="#000000" stroke-width="2.0" stroke-linecap="butt" stroke-opacity="0.0" clip-path="url(#id_0)" d="M540.0 298.0L504.0 298.0L504.0 150.0C504.0 148.89543 504.89542 148.0 506.0 148.0L538.0 148.0C539.10455 148.0 540.0 148.89543 540.0 150.0Z" fill-rule="nonzero"/><path fill="#ea4335" clip-path="url(#id_0)" d="M540.0 298.0L504.0 298.0L504.0 150.0C504.0 148.89543 504.89542 148.0 506.0 148.0L538.0 148.0C539.10455 148.0 540.0 148.89543 540.0 150.0Z" fill-rule="nonzero"/><path fill="#f3f3f3" d="M306.79688 349.45L306.79688 342.3094L304.71875 342.3094L304.71875 340.85626L310.3125 340.85626L310.3125 342.3094L308.21875 342.3094L308.21875 349.45L306.79688 349.45ZM315.17188 347.46564L316.51562 347.7469Q316.23438 348.6844 315.67188 349.1375Q315.10938 349.59064 314.29688 349.59064Q313.15625 349.59064 312.54688 348.84064Q311.8125 347.95 311.8125 346.3719Q311.8125 344.8094 312.54688 343.8719Q313.17188 343.09064 314.15625 343.09064Q315.25 343.09064 315.875 343.8875Q316.59375 344.825 316.59375 346.6219L316.57812 346.8094L313.20312 346.8094Q313.21875 347.54376 313.53125 347.95Q313.84375 348.35626 314.29688 348.35626Q314.95312 348.35626 315.17188 347.46564ZM315.25 345.8094Q315.23438 345.075 314.9375 344.71564Q314.64062 344.34064 314.23438 344.34064Q313.8125 344.34064 313.51562 344.73126Q313.21875 345.10626 313.21875 345.8094L315.25 345.8094ZM316.73438 347.66876L318.09375 347.41876Q318.26562 348.40314 319.17188 348.40314Q319.67188 348.40314 319.90625 348.21564Q320.14062 348.02814 320.14062 347.73126Q320.14062 347.52814 320.04688 347.40314Q319.92188 347.29376 319.59375 347.2Q317.9375 346.7625 317.48438 346.35626Q316.92188 345.85626 316.92188 344.9969Q316.92188 344.1219 317.46875 343.60626Q318.03125 343.09064 319.07812 343.09064Q320.07812 343.09064 320.59375 343.48126Q321.125 343.8719 321.32812 344.73126L320.0625 345.0125Q319.89062 344.2625 319.09375 344.2625Q318.59375 344.2625 318.375 344.41876Q318.17188 344.5594 318.17188 344.77814Q318.17188 344.9969 318.375 345.1219Q318.5625 345.2625 319.57812 345.54376Q320.70312 345.85626 321.10938 346.3094Q321.5 346.7625 321.5 347.5125Q321.5 348.41876 320.875 349.0125Q320.26562 349.59064 319.17188 349.59064Q318.1875 349.59064 317.5625 349.10626Q316.9375 348.60626 316.73438 347.66876ZM324.54688 343.23126L324.54688 344.54376L323.625 344.54376L323.625 347.04376Q323.625 347.85626 323.65625 347.9969Q323.75 348.23126 324.0 348.23126Q324.1875 348.23126 324.53125 348.0594L324.65625 349.34064Q324.1875 349.59064 323.59375 349.59064Q323.07812 349.59064 322.76562 349.34064Q322.45312 349.09064 322.34375 348.6375Q322.26562 348.29376 322.26562 347.2469L322.26562 344.54376L321.64062 344.54376L321.64062 343.23126L322.26562 343.23126L322.26562 341.9969L323.625 341.02814L323.625 343.23126L324.54688 343.23126ZM327.85938 346.65314L329.25 346.4969Q329.48438 348.1375 330.78125 348.1375Q331.42188 348.1375 331.79688 347.8094Q332.17188 347.46564 332.17188 346.96564Q332.17188 346.66876 332.03125 346.46564Q331.90625 346.2625 331.64062 346.1375Q331.375 345.9969 330.35938 345.6844Q329.45312 345.41876 329.03125 345.09064Q328.60938 344.7625 328.35938 344.2469Q328.10938 343.71564 328.10938 343.1219Q328.10938 342.41876 328.42188 341.85626Q328.75 341.29376 329.3125 341.0125Q329.875 340.71564 330.70312 340.71564Q331.95312 340.71564 332.64062 341.3875Q333.34375 342.0594 333.39062 343.3094L331.95312 343.3875Q331.85938 342.7 331.54688 342.4344Q331.25 342.15314 330.67188 342.15314Q330.09375 342.15314 329.78125 342.3875Q329.46875 342.6219 329.46875 342.98126Q329.46875 343.34064 329.75 343.575Q330.03125 343.825 331.04688 344.10626Q332.125 344.41876 332.59375 344.7625Q333.07812 345.10626 333.32812 345.65314Q333.57812 346.1844 333.57812 346.96564Q333.57812 348.075 332.89062 348.84064Q332.20312 349.60626 330.73438 349.60626Q328.15625 349.60626 327.85938 346.65314ZM339.65625 345.0594L338.32812 345.35626Q338.1875 344.3875 337.40625 344.3875Q336.90625 344.3875 336.59375 344.8094Q336.29688 345.23126 336.29688 346.23126Q336.29688 347.34064 336.59375 347.79376Q336.90625 348.2469 337.42188 348.2469Q337.79688 348.2469 338.04688 347.9969Q338.29688 347.73126 338.39062 347.0594L339.73438 347.34064Q339.3125 349.59064 337.35938 349.59064Q336.125 349.59064 335.51562 348.6375Q334.90625 347.6844 334.90625 346.35626Q334.90625 344.7625 335.59375 343.9344Q336.28125 343.09064 337.39062 343.09064Q338.28125 343.09064 338.84375 343.5594Q339.40625 344.02814 339.65625 345.0594ZM343.17188 347.46564L344.51562 347.7469Q344.23438 348.6844 343.67188 349.1375Q343.10938 349.59064 342.29688 349.59064Q341.15625 349.59064 340.54688 348.84064Q339.8125 347.95 339.8125 346.3719Q339.8125 344.8094 340.54688 343.8719Q341.17188 343.09064 342.15625 343.09064Q343.25 343.09064 343.875 343.8875Q344.59375 344.825 344.59375 346.6219L344.57812 346.8094L341.20312 346.8094Q341.21875 347.54376 341.53125 347.95Q341.84375 348.35626 342.29688 348.35626Q342.95312 348.35626 343.17188 347.46564ZM343.25 345.8094Q343.23438 345.075 342.9375 344.71564Q342.64062 344.34064 342.23438 344.34064Q341.8125 344.34064 341.51562 344.73126Q341.21875 345.10626 341.21875 345.8094L343.25 345.8094ZM349.84375 349.45L348.5 349.45L348.5 346.27814Q348.5 345.325 348.42188 345.0125Q348.34375 344.6844 348.125 344.5125Q347.92188 344.34064 347.67188 344.34064Q347.32812 344.34064 347.04688 344.5594Q346.78125 344.77814 346.65625 345.16876Q346.54688 345.5594 346.54688 346.6375L346.54688 349.45L345.20312 349.45L345.20312 343.23126L346.45312 343.23126L346.45312 344.1375Q346.78125 343.60626 347.20312 343.35626Q347.625 343.09064 348.14062 343.09064Q348.71875 343.09064 349.125 343.40314Q349.54688 343.7 349.6875 344.1844Q349.84375 344.66876 349.84375 345.575L349.84375 349.45ZM354.17188 347.46564L355.51562 347.7469Q355.23438 348.6844 354.67188 349.1375Q354.10938 349.59064 353.29688 349.59064Q352.15625 349.59064 351.54688 348.84064Q350.8125 347.95 350.8125 346.3719Q350.8125 344.8094 351.54688 343.8719Q352.17188 343.09064 353.15625 343.09064Q354.25 343.09064 354.875 343.8875Q355.59375 344.825 355.59375 346.6219L355.57812 346.8094L352.20312 346.8094Q352.21875 347.54376 352.53125 347.95Q352.84375 348.35626 353.29688 348.35626Q353.95312 348.35626 354.17188 347.46564ZM354.25 345.8094Q354.23438 345.075 353.9375 344.71564Q353.64062 344.34064 353.23438 344.34064Q352.8125 344.34064 352.51562 344.73126Q352.21875 345.10626 352.21875 345.8094L354.25 345.8094Z" fill-rule="nonzero"/><path fill="#f3f3f3" d="M30.550013 240.53854L21.956263 240.53854L21.956263 235.78854L22.971888 235.78854L22.971888 239.60104L25.628138 239.60104L25.628138 236.30417L26.643763 236.30417L26.643763 239.60104L30.550013 239.60104L30.550013 240.53854ZM30.550013 234.72604L24.331263 234.72604L24.331263 233.96042L25.268763 233.96042Q24.612513 233.64792 24.409388 233.41354Q24.190638 233.16354 24.190638 232.85104Q24.190638 232.41354 24.518763 231.96042L25.503138 232.2573Q25.268763 232.5698 25.268763 232.8823Q25.268763 233.16354 25.471888 233.39792Q25.659388 233.61667 26.003138 233.71042Q26.612513 233.86667 27.284388 233.86667L30.550013 233.86667L30.550013 234.72604ZM29.784388 228.39792Q30.237513 228.83542 30.471888 229.30417Q30.690638 229.77292 30.690638 230.27292Q30.690638 231.0698 30.206263 231.55417Q29.721888 232.02292 28.909388 232.02292Q28.378138 232.02292 27.971888 231.80417Q27.550013 231.58542 27.315638 231.1948Q27.081263 230.80417 26.956263 230.02292Q26.815638 228.96042 26.596888 228.47604L26.331263 228.47604Q25.690638 228.47604 25.440638 228.6948Q25.065638 229.02292 25.065638 229.6948Q25.065638 230.28854 25.315638 230.58542Q25.550013 230.8823 26.237513 231.02292L26.096888 231.8823Q25.096888 231.6948 24.643763 231.14792Q24.190638 230.58542 24.190638 229.55417Q24.190638 228.7573 24.487513 228.30417Q24.784388 227.83542 25.237513 227.72604Q25.675013 227.60104 26.534388 227.60104L27.940638 227.60104Q29.425013 227.60104 29.815638 227.55417Q30.190638 227.49167 30.550013 227.3198L30.550013 228.22604Q30.221888 228.36667 29.784388 228.39792ZM27.425013 228.47604Q27.659388 228.9448 27.831263 229.8823Q27.925013 230.42917 28.050013 230.64792Q28.159388 230.86667 28.378138 230.99167Q28.596888 231.10104 28.878138 231.10104Q29.331263 231.10104 29.596888 230.83542Q29.862513 230.55417 29.862513 230.0698Q29.862513 229.60104 29.628138 229.22604Q29.378138 228.85104 28.987513 228.66354Q28.581263 228.47604 27.815638 228.47604L27.425013 228.47604ZM30.550013 226.72604L24.331263 226.72604L24.331263 225.9448L25.206263 225.9448Q24.706263 225.6948 24.456263 225.28854Q24.190638 224.8823 24.190638 224.39792Q24.190638 223.86667 24.471888 223.49167Q24.737513 223.11667 25.268763 222.96042Q24.737513 222.64792 24.471888 222.2573Q24.190638 221.86667 24.190638 221.3823Q24.190638 220.64792 24.690638 220.22604Q25.175013 219.80417 26.284388 219.80417L30.550013 219.80417L30.550013 220.66354L26.628138 220.66354Q25.956263 220.66354 25.690638 220.77292Q25.409388 220.86667 25.253138 221.08542Q25.096888 221.28854 25.096888 221.5698Q25.096888 222.11667 25.550013 222.47604Q25.987513 222.8198 26.940638 222.8198L30.550013 222.8198L30.550013 223.6948L26.503138 223.6948Q25.737513 223.6948 25.425013 223.92917Q25.096888 224.16354 25.096888 224.58542Q25.096888 225.17917 25.581263 225.52292Q26.050013 225.86667 27.315638 225.86667L30.550013 225.86667L30.550013 226.72604ZM28.550013 215.24167L28.675013 214.35104Q29.675013 214.5698 30.190638 215.16354Q30.690638 215.74167 30.690638 216.60104Q30.690638 217.67917 29.878138 218.35104Q29.050013 219.02292 27.487513 219.02292Q25.878138 219.02292 25.034388 218.35104Q24.190638 217.67917 24.190638 216.6323Q24.190638 215.64792 25.018763 214.99167Q25.846888 214.3198 27.425013 214.3198L27.706263 214.3198L27.706263 218.1323Q28.753138 218.08542 29.284388 217.64792Q29.815638 217.21042 29.815638 216.60104Q29.815638 215.61667 28.550013 215.24167ZM26.846888 218.08542L26.846888 215.24167Q26.034388 215.28854 25.628138 215.58542Q25.050013 215.99167 25.050013 216.64792Q25.050013 217.22604 25.534388 217.6323Q26.018763 218.03854 26.846888 218.08542ZM28.690638 214.05417L28.534388 213.21042Q29.190638 213.1323 29.503138 212.78854Q29.815638 212.4448 29.815638 211.8823Q29.815638 211.3198 29.550013 211.02292Q29.268763 210.71042 28.831263 210.71042Q28.471888 210.71042 28.268763 210.97604Q28.128138 211.14792 27.909388 211.85104Q27.596888 212.86667 27.393763 213.21042Q27.175013 213.53854 26.815638 213.72604Q26.440638 213.91354 25.971888 213.91354Q25.175013 213.91354 24.690638 213.41354Q24.190638 212.89792 24.190638 211.99167Q24.190638 211.42917 24.393763 211.0073Q24.596888 210.5698 24.940638 210.33542Q25.284388 210.10104 25.925013 210.02292L26.065638 210.86667Q25.050013 210.97604 25.050013 211.97604Q25.050013 212.53854 25.284388 212.8198Q25.503138 213.08542 25.862513 213.08542Q26.206263 213.08542 26.393763 212.8198Q26.518763 212.66354 26.768763 211.8823Q27.128138 210.80417 27.331263 210.49167Q27.518763 210.17917 27.878138 210.0073Q28.221888 209.8198 28.706263 209.8198Q29.596888 209.8198 30.143763 210.39792Q30.690638 210.96042 30.690638 211.92917Q30.690638 213.77292 28.690638 214.05417ZM32.940636 205.72604L24.331263 205.72604L24.331263 204.9448L25.128138 204.9448Q24.628138 204.64792 24.409388 204.28854Q24.190638 203.92917 24.190638 203.47604Q24.190638 202.86667 24.550013 202.3823Q24.893763 201.89792 25.628138 201.60104Q26.362513 201.30417 27.378138 201.30417Q28.971888 201.30417 29.831263 201.97604Q30.690638 202.6323 30.690638 203.52292Q30.690638 203.92917 30.487513 204.27292Q30.284388 204.61667 29.909388 204.86667L32.940636 204.86667L32.940636 205.72604ZM27.471888 204.96042Q28.675013 204.96042 29.253138 204.55417Q29.815638 204.14792 29.815638 203.5698Q29.815638 203.02292 29.237513 202.61667Q28.643763 202.1948 27.409388 202.1948Q26.190638 202.1948 25.612513 202.60104Q25.018763 202.99167 25.018763 203.5698Q25.018763 204.10104 25.643763 204.53854Q26.268763 204.96042 27.471888 204.96042ZM28.550013 197.24167L28.675013 196.35104Q29.675013 196.5698 30.190638 197.16354Q30.690638 197.74167 30.690638 198.60104Q30.690638 199.67917 29.878138 200.35104Q29.050013 201.02292 27.487513 201.02292Q25.878138 201.02292 25.034388 200.35104Q24.190638 199.67917 24.190638 198.6323Q24.190638 197.64792 25.018763 196.99167Q25.846888 196.3198 27.425013 196.3198L27.706263 196.3198L27.706263 200.1323Q28.753138 200.08542 29.284388 199.64792Q29.815638 199.21042 29.815638 198.60104Q29.815638 197.61667 28.550013 197.24167ZM26.846888 200.08542L26.846888 197.24167Q26.034388 197.28854 25.628138 197.58542Q25.050013 197.99167 25.050013 198.64792Q25.050013 199.22604 25.534388 199.6323Q26.018763 200.03854 26.846888 200.08542ZM30.550013 195.72604L24.331263 195.72604L24.331263 194.96042L25.268763 194.96042Q24.612513 194.64792 24.409388 194.41354Q24.190638 194.16354 24.190638 193.85104Q24.190638 193.41354 24.518763 192.96042L25.503138 193.2573Q25.268763 193.5698 25.268763 193.8823Q25.268763 194.16354 25.471888 194.39792Q25.659388 194.61667 26.003138 194.71042Q26.612513 194.86667 27.284388 194.86667L30.550013 194.86667L30.550013 195.72604ZM28.690638 190.05417L28.534388 189.21042Q29.190638 189.1323 29.503138 188.78854Q29.815638 188.4448 29.815638 187.8823Q29.815638 187.3198 29.550013 187.02292Q29.268763 186.71042 28.831263 186.71042Q28.471888 186.71042 28.268763 186.97604Q28.128138 187.14792 27.909388 187.85104Q27.596888 188.86667 27.393763 189.21042Q27.175013 189.53854 26.815638 189.72604Q26.440638 189.91354 25.971888 189.91354Q25.175013 189.91354 24.690638 189.41354Q24.190638 188.89792 24.190638 187.99167Q24.190638 187.42917 24.393763 187.0073Q24.596888 186.5698 24.940638 186.33542Q25.284388 186.10104 25.925013 186.02292L26.065638 186.86667Q25.050013 186.97604 25.050013 187.97604Q25.050013 188.53854 25.284388 188.8198Q25.503138 189.08542 25.862513 189.08542Q26.206263 189.08542 26.393763 188.8198Q26.518763 188.66354 26.768763 187.8823Q27.128138 186.80417 27.331263 186.49167Q27.518763 186.17917 27.878138 186.0073Q28.221888 185.8198 28.706263 185.8198Q29.596888 185.8198 30.143763 186.39792Q30.690638 186.96042 30.690638 187.92917Q30.690638 189.77292 28.690638 190.05417ZM28.550013 181.24167L28.675013 180.35104Q29.675013 180.5698 30.190638 181.16354Q30.690638 181.74167 30.690638 182.60104Q30.690638 183.67917 29.878138 184.35104Q29.050013 185.02292 27.487513 185.02292Q25.878138 185.02292 25.034388 184.35104Q24.190638 183.67917 24.190638 182.6323Q24.190638 181.64792 25.018763 180.99167Q25.846888 180.3198 27.425013 180.3198L27.706263 180.3198L27.706263 184.1323Q28.753138 184.08542 29.284388 183.64792Q29.815638 183.21042 29.815638 182.60104Q29.815638 181.61667 28.550013 181.24167ZM26.846888 184.08542L26.846888 181.24167Q26.034388 181.28854 25.628138 181.58542Q25.050013 181.99167 25.050013 182.64792Q25.050013 183.22604 25.534388 183.6323Q26.018763 184.03854 26.846888 184.08542ZM28.268763 176.3823L28.409388 175.53854Q29.518763 175.67917 30.112513 176.27292Q30.690638 176.86667 30.690638 177.6948Q30.690638 178.6948 29.878138 179.35104Q29.050013 179.99167 27.425013 179.99167Q25.815638 179.99167 25.003138 179.33542Q24.190638 178.67917 24.190638 177.64792Q24.190638 176.86667 24.690638 176.3198Q25.175013 175.77292 26.159388 175.6323L26.315638 176.46042Q25.675013 176.58542 25.362513 176.89792Q25.050013 177.1948 25.050013 177.61667Q25.050013 178.2573 25.628138 178.67917Q26.190638 179.10104 27.409388 179.10104Q28.690638 179.10104 29.253138 178.71042Q29.815638 178.30417 29.815638 177.66354Q29.815638 177.17917 29.440638 176.83542Q29.065638 176.47604 28.268763 176.3823ZM27.440638 175.05417Q25.831263 175.05417 25.018763 174.3823Q24.190638 173.6948 24.190638 172.66354Q24.190638 171.64792 25.018763 170.96042Q25.831263 170.27292 27.378138 170.27292Q29.050013 170.27292 29.878138 170.9448Q30.690638 171.61667 30.690638 172.66354Q30.690638 173.6948 29.878138 174.3823Q29.050013 175.05417 27.440638 175.05417ZM27.440638 174.16354Q28.643763 174.16354 29.237513 173.72604Q29.815638 173.28854 29.815638 172.64792Q29.815638 172.03854 29.221888 171.60104Q28.628138 171.16354 27.440638 171.16354Q26.237513 171.16354 25.659388 171.60104Q25.065638 172.03854 25.065638 172.6948Q25.065638 173.30417 25.659388 173.74167Q26.237513 174.16354 27.440638 174.16354ZM30.550013 169.72604L24.331263 169.72604L24.331263 168.96042L25.206263 168.96042Q24.690638 168.67917 24.440638 168.27292Q24.190638 167.85104 24.190638 167.33542Q24.190638 166.91354 24.346888 166.5698Q24.503138 166.22604 24.768763 166.0073Q25.034388 165.78854 25.456263 165.6948Q25.862513 165.58542 26.721888 165.58542L30.550013 165.58542L30.550013 166.4448L26.768763 166.4448Q26.081263 166.4448 25.768763 166.5698Q25.440638 166.67917 25.268763 166.92917Q25.096888 167.17917 25.096888 167.5073Q25.096888 168.1323 25.565638 168.5073Q26.018763 168.86667 27.143763 168.86667L30.550013 168.86667L30.550013 169.72604ZM30.550013 161.42917L29.768763 161.42917Q30.221888 161.66354 30.456263 162.03854Q30.690638 162.39792 30.690638 162.8198Q30.690638 163.72604 29.846888 164.3823Q28.987513 165.03854 27.440638 165.03854Q26.378138 165.03854 25.643763 164.7573Q24.893763 164.46042 24.550013 163.97604Q24.190638 163.47604 24.190638 162.8823Q24.190638 162.46042 24.425013 162.10104Q24.643763 161.72604 25.034388 161.47604L21.956263 161.47604L21.956263 160.61667L30.550013 160.61667L30.550013 161.42917ZM27.440638 164.16354Q28.643763 164.16354 29.237513 163.74167Q29.815638 163.3198 29.815638 162.7573Q29.815638 162.21042 29.253138 161.80417Q28.690638 161.39792 27.565638 161.39792Q26.253138 161.39792 25.659388 161.80417Q25.050013 162.21042 25.050013 162.83542Q25.050013 163.36667 25.628138 163.77292Q26.206263 164.16354 27.440638 164.16354Z" fill-rule="nonzero"/><path fill="#f3f3f3" d="M66.05 298.21564Q66.05 296.6844 66.3625 295.7625Q66.675 294.825 67.28438 294.325Q67.90938 293.825 68.84688 293.825Q69.53438 293.825 70.05 294.10626Q70.58125 294.3875 70.925 294.91876Q71.26875 295.4344 71.45625 296.1844Q71.64375 296.9344 71.64375 298.21564Q71.64375 299.73126 71.33125 300.65314Q71.03438 301.575 70.40938 302.09064Q69.8 302.59064 68.84688 302.59064Q67.6125 302.59064 66.89375 301.7Q66.05 300.6375 66.05 298.21564ZM67.12813 298.21564Q67.12813 300.325 67.62813 301.02814Q68.12813 301.73126 68.84688 301.73126Q69.58125 301.73126 70.06563 301.02814Q70.56563 300.325 70.56563 298.21564Q70.56563 296.09064 70.06563 295.40314Q69.58125 294.7 68.83125 294.7Q68.1125 294.7 67.675 295.3094Q67.12813 296.09064 67.12813 298.21564Z" fill-rule="nonzero"/><path fill="#f3f3f3" d="M64.59688 259.60104L64.59688 260.61667L58.909374 260.61667Q58.909374 260.24167 59.034374 259.8823Q59.253124 259.30417 59.721874 258.74167Q60.20625 258.17917 61.1125 257.4448Q62.51875 256.28854 63.003124 255.61667Q63.503124 254.9448 63.503124 254.35104Q63.503124 253.72604 63.05 253.30417Q62.596874 252.86667 61.878124 252.86667Q61.1125 252.86667 60.659374 253.3198Q60.20625 253.77292 60.190624 254.58542L59.1125 254.47604Q59.221874 253.2573 59.940624 252.6323Q60.675 251.99167 61.909374 251.99167Q63.14375 251.99167 63.8625 252.67917Q64.58125 253.36667 64.58125 254.3823Q64.58125 254.89792 64.3625 255.39792Q64.15938 255.8823 63.659374 256.4448Q63.175 256.99167 62.05 257.9448Q61.096874 258.74167 60.815624 259.03854Q60.55 259.3198 60.378124 259.60104L64.59688 259.60104ZM66.05 258.36667L67.15938 258.27292Q67.28438 259.08542 67.72188 259.49167Q68.175 259.89792 68.81563 259.89792Q69.56563 259.89792 70.09688 259.3198Q70.62813 258.74167 70.62813 257.80417Q70.62813 256.89792 70.1125 256.3823Q69.6125 255.85104 68.78438 255.85104Q68.28438 255.85104 67.8625 256.08542Q67.45625 256.3198 67.22188 256.67917L66.2375 256.55417L67.06563 252.14792L71.34688 252.14792L71.34688 253.14792L67.90938 253.14792L67.45625 255.46042Q68.22188 254.91354 69.06563 254.91354Q70.19063 254.91354 70.95625 255.6948Q71.7375 256.47604 71.7375 257.71042Q71.7375 258.86667 71.06563 259.72604Q70.2375 260.7573 68.81563 260.7573Q67.64375 260.7573 66.89375 260.10104Q66.15938 259.4448 66.05 258.36667Z" fill-rule="nonzero"/><path fill="#f3f3f3" d="M59.05 216.53334L60.159374 216.43959Q60.284374 217.25209 60.721874 217.65834Q61.175 218.06459 61.815624 218.06459Q62.565624 218.06459 63.096874 217.48647Q63.628124 216.90834 63.628124 215.97084Q63.628124 215.06459 63.1125 214.54897Q62.6125 214.01772 61.784374 214.01772Q61.284374 214.01772 60.8625 214.25209Q60.45625 214.48647 60.221874 214.84584L59.2375 214.72084L60.065624 210.31459L64.34688 210.31459L64.34688 211.31459L60.909374 211.31459L60.45625 213.62709Q61.221874 213.08022 62.065624 213.08022Q63.190624 213.08022 63.95625 213.86147Q64.7375 214.64272 64.7375 215.87709Q64.7375 217.03334 64.06563 217.89272Q63.2375 218.92397 61.815624 218.92397Q60.64375 218.92397 59.89375 218.26772Q59.159374 217.61147 59.05 216.53334ZM66.05 214.54897Q66.05 213.01772 66.3625 212.09584Q66.675 211.15834 67.28438 210.65834Q67.90938 210.15834 68.84688 210.15834Q69.53438 210.15834 70.05 210.43959Q70.58125 210.72084 70.925 211.25209Q71.26875 211.76772 71.45625 212.51772Q71.64375 213.26772 71.64375 214.54897Q71.64375 216.06459 71.33125 216.98647Q71.03438 217.90834 70.40938 218.42397Q69.8 218.92397 68.84688 218.92397Q67.6125 218.92397 66.89375 218.03334Q66.05 216.97084 66.05 214.54897ZM67.12813 214.54897Q67.12813 216.65834 67.62813 217.36147Q68.12813 218.06459 68.84688 218.06459Q69.58125 218.06459 70.06563 217.36147Q70.56563 216.65834 70.56563 214.54897Q70.56563 212.42397 70.06563 211.73647Q69.58125 211.03334 68.83125 211.03334Q68.1125 211.03334 67.675 211.64272Q67.12813 212.42397 67.12813 214.54897Z" fill-rule="nonzero"/><path fill="#f3f3f3" d="M59.1125 169.48125L59.1125 168.46562L64.675 168.46562L64.675 169.29375Q63.8625 170.16875 63.05 171.62187Q62.253124 173.05937 61.815624 174.59062Q61.4875 175.66875 61.409374 176.95L60.315624 176.95Q60.33125 175.93437 60.70625 174.49687Q61.096874 173.05937 61.8 171.73125Q62.51875 170.40312 63.33125 169.48125L59.1125 169.48125ZM66.05 174.7L67.15938 174.60625Q67.28438 175.41875 67.72188 175.825Q68.175 176.23125 68.81563 176.23125Q69.56563 176.23125 70.09688 175.65312Q70.62813 175.075 70.62813 174.1375Q70.62813 173.23125 70.1125 172.71562Q69.6125 172.18437 68.78438 172.18437Q68.28438 172.18437 67.8625 172.41875Q67.45625 172.65312 67.22188 173.0125L66.2375 172.8875L67.06563 168.48125L71.34688 168.48125L71.34688 169.48125L67.90938 169.48125L67.45625 171.79375Q68.22188 171.24687 69.06563 171.24687Q70.19063 171.24687 70.95625 172.02812Q71.7375 172.80937 71.7375 174.04375Q71.7375 175.2 71.06563 176.05937Q70.2375 177.09062 68.81563 177.09062Q67.64375 177.09062 66.89375 176.43437Q66.15938 175.77812 66.05 174.7Z" fill-rule="nonzero"/><path fill="#f3f3f3" d="M56.01875 135.11667L54.971874 135.11667L54.971874 128.39792Q54.58125 128.7573 53.95625 129.1323Q53.346874 129.49167 52.8625 129.66354L52.8625 128.64792Q53.7375 128.22604 54.39375 127.64792Q55.065624 127.05417 55.346874 126.49167L56.01875 126.49167L56.01875 135.11667ZM59.05 130.8823Q59.05 129.35104 59.3625 128.42917Q59.675 127.49167 60.284374 126.99167Q60.909374 126.49167 61.846874 126.49167Q62.534374 126.49167 63.05 126.77292Q63.58125 127.05417 63.925 127.58542Q64.26875 128.10104 64.45625 128.85104Q64.64375 129.60104 64.64375 130.8823Q64.64375 132.39792 64.33125 133.3198Q64.03438 134.24167 63.409374 134.7573Q62.8 135.2573 61.846874 135.2573Q60.6125 135.2573 59.89375 134.36667Q59.05 133.30417 59.05 130.8823ZM60.128124 130.8823Q60.128124 132.99167 60.628124 133.6948Q61.128124 134.39792 61.846874 134.39792Q62.58125 134.39792 63.065624 133.6948Q63.565624 132.99167 63.565624 130.8823Q63.565624 128.7573 63.065624 128.0698Q62.58125 127.36667 61.83125 127.36667Q61.1125 127.36667 60.675 127.97604Q60.128124 128.7573 60.128124 130.8823ZM66.05 130.8823Q66.05 129.35104 66.3625 128.42917Q66.675 127.49167 67.28438 126.99167Q67.90938 126.49167 68.84688 126.49167Q69.53438 126.49167 70.05 126.77292Q70.58125 127.05417 70.925 127.58542Q71.26875 128.10104 71.45625 128.85104Q71.64375 129.60104 71.64375 130.8823Q71.64375 132.39792 71.33125 133.3198Q71.03438 134.24167 70.40938 134.7573Q69.8 135.2573 68.84688 135.2573Q67.6125 135.2573 66.89375 134.36667Q66.05 133.30417 66.05 130.8823ZM67.12813 130.8823Q67.12813 132.99167 67.62813 133.6948Q68.12813 134.39792 68.84688 134.39792Q69.58125 134.39792 70.06563 133.6948Q70.56563 132.99167 70.56563 130.8823Q70.56563 128.7573 70.06563 128.0698Q69.58125 127.36667 68.83125 127.36667Q68.1125 127.36667 67.675 127.97604Q67.12813 128.7573 67.12813 130.8823Z" fill-rule="nonzero"/><path fill="#f3f3f3" d="M56.01875 93.28333L54.971874 93.28333L54.971874 86.56458Q54.58125 86.92396 53.95625 87.29896Q53.346874 87.65833 52.8625 87.83021L52.8625 86.81458Q53.7375 86.39271 54.39375 85.81458Q55.065624 85.22083 55.346874 84.65833L56.01875 84.65833L56.01875 93.28333ZM64.59688 92.26771L64.59688 93.28333L58.909374 93.28333Q58.909374 92.90833 59.034374 92.54896Q59.253124 91.97083 59.721874 91.40833Q60.20625 90.84583 61.1125 90.11146Q62.51875 88.95521 63.003124 88.28333Q63.503124 87.61146 63.503124 87.01771Q63.503124 86.39271 63.05 85.97083Q62.596874 85.53333 61.878124 85.53333Q61.1125 85.53333 60.659374 85.98646Q60.20625 86.43958 60.190624 87.25208L59.1125 87.14271Q59.221874 85.92396 59.940624 85.29896Q60.675 84.65833 61.909374 84.65833Q63.14375 84.65833 63.8625 85.34583Q64.58125 86.03333 64.58125 87.04896Q64.58125 87.56458 64.3625 88.06458Q64.15938 88.54896 63.659374 89.11146Q63.175 89.65833 62.05 90.61146Q61.096874 91.40833 60.815624 91.70521Q60.55 91.98646 60.378124 92.26771L64.59688 92.26771ZM66.05 91.03333L67.15938 90.93958Q67.28438 91.75208 67.72188 92.15833Q68.175 92.56458 68.81563 92.56458Q69.56563 92.56458 70.09688 91.98646Q70.62813 91.40833 70.62813 90.47083Q70.62813 89.56458 70.1125 89.04896Q69.6125 88.51771 68.78438 88.51771Q68.28438 88.51771 67.8625 88.75208Q67.45625 88.98646 67.22188 89.34583L66.2375 89.22083L67.06563 84.81458L71.34688 84.81458L71.34688 85.81458L67.90938 85.81458L67.45625 88.12708Q68.22188 87.58021 69.06563 87.58021Q70.19063 87.58021 70.95625 88.36146Q71.7375 89.14271 71.7375 90.37708Q71.7375 91.53333 71.06563 92.39271Q70.2375 93.42396 68.81563 93.42396Q67.64375 93.42396 66.89375 92.76771Q66.15938 92.11146 66.05 91.03333Z" fill-rule="nonzero"/><path fill="#f3f3f3" d="M143.30496 307.85626L146.11746 307.85626Q147.27371 307.85626 147.74246 308.075Q148.21121 308.27814 148.52371 308.8094Q148.85184 309.34064 148.85184 310.02814Q148.85184 310.6375 148.57059 311.1375Q148.30496 311.6375 147.86746 311.8875Q148.49246 312.10626 148.83621 312.65314Q149.19559 313.1844 149.19559 313.96564Q149.19559 314.90314 148.74246 315.54376Q148.30496 316.1844 147.67996 316.34064Q147.25809 316.45 145.69559 316.45L143.30496 316.45L143.30496 307.85626ZM144.72684 309.29376L144.72684 311.27814L145.66434 311.27814Q146.50809 311.27814 146.69559 311.2469Q147.07059 311.1844 147.27371 310.9344Q147.47684 310.6844 147.47684 310.2625Q147.47684 309.8875 147.30496 309.65314Q147.13309 309.40314 146.89871 309.35626Q146.66434 309.29376 145.53934 309.29376L144.72684 309.29376ZM144.72684 312.7L144.72684 314.9969L146.03934 314.9969Q146.89871 314.9969 147.14871 314.91876Q147.39871 314.825 147.55496 314.5594Q147.72684 314.29376 147.72684 313.8719Q147.72684 313.45 147.53934 313.1844Q147.36746 312.90314 147.07059 312.8094Q146.78934 312.7 145.86746 312.7L144.72684 312.7ZM150.28934 309.3875L150.28934 307.85626L151.64871 307.85626L151.64871 309.3875L150.28934 309.3875ZM150.28934 316.45L150.28934 310.23126L151.64871 310.23126L151.64871 316.45L150.28934 316.45ZM152.82059 314.66876L154.17996 314.41876Q154.35184 315.40314 155.25809 315.40314Q155.75809 315.40314 155.99246 315.21564Q156.22684 315.02814 156.22684 314.73126Q156.22684 314.52814 156.13309 314.40314Q156.00809 314.29376 155.67996 314.2Q154.02371 313.7625 153.57059 313.35626Q153.00809 312.85626 153.00809 311.9969Q153.00809 311.1219 153.55496 310.60626Q154.11746 310.09064 155.16434 310.09064Q156.16434 310.09064 156.67996 310.48126Q157.21121 310.8719 157.41434 311.73126L156.14871 312.0125Q155.97684 311.2625 155.17996 311.2625Q154.67996 311.2625 154.46121 311.41876Q154.25809 311.5594 154.25809 311.77814Q154.25809 311.9969 154.46121 312.1219Q154.64871 312.2625 155.66434 312.54376Q156.78934 312.85626 157.19559 313.3094Q157.58621 313.7625 157.58621 314.5125Q157.58621 315.41876 156.96121 316.0125Q156.35184 316.59064 155.25809 316.59064Q154.27371 316.59064 153.64871 316.10626Q153.02371 315.60626 152.82059 314.66876ZM160.63309 310.23126L160.63309 311.54376L159.71121 311.54376L159.71121 314.04376Q159.71121 314.85626 159.74246 314.9969Q159.83621 315.23126 160.08621 315.23126Q160.27371 315.23126 160.61746 315.0594L160.74246 316.34064Q160.27371 316.59064 159.67996 316.59064Q159.16434 316.59064 158.85184 316.34064Q158.53934 316.09064 158.42996 315.6375Q158.35184 315.29376 158.35184 314.2469L158.35184 311.54376L157.72684 311.54376L157.72684 310.23126L158.35184 310.23126L158.35184 308.9969L159.71121 308.02814L159.71121 310.23126L160.63309 310.23126ZM162.58621 316.45L161.24246 316.45L161.24246 310.23126L162.49246 310.23126L162.49246 311.10626Q162.82059 310.4969 163.07059 310.29376Q163.32059 310.09064 163.66434 310.09064Q164.11746 310.09064 164.53934 310.40314L164.11746 311.825Q163.78934 311.5594 163.49246 311.5594Q163.21121 311.5594 162.99246 311.77814Q162.77371 311.98126 162.67996 312.52814Q162.58621 313.075 162.58621 314.52814L162.58621 316.45ZM164.97684 313.2469Q164.97684 312.34064 165.33621 311.59064Q165.71121 310.84064 166.28934 310.46564Q166.88309 310.09064 167.61746 310.09064Q168.83621 310.09064 169.53934 311.0594Q170.24246 312.0125 170.24246 313.3094Q170.24246 314.2625 169.86746 315.04376Q169.50809 315.8094 168.91434 316.2Q168.32059 316.59064 167.61746 316.59064Q166.47684 316.59064 165.72684 315.73126Q164.97684 314.85626 164.97684 313.2469ZM166.36746 313.34064Q166.36746 314.27814 166.72684 314.7625Q167.10184 315.2469 167.61746 315.2469Q168.13309 315.2469 168.49246 314.7625Q168.85184 314.27814 168.85184 313.325Q168.85184 312.40314 168.47684 311.91876Q168.11746 311.4344 167.60184 311.4344Q167.10184 311.4344 166.72684 311.91876Q166.36746 312.40314 166.36746 313.34064Z" fill-rule="nonzero"/><path fill="#f3f3f3" d="M255.05478 313.65314L256.4454 313.4969Q256.67978 315.1375 257.97665 315.1375Q258.61728 315.1375 258.99228 314.8094Q259.36728 314.46564 259.36728 313.96564Q259.36728 313.66876 259.22665 313.46564Q259.10165 313.2625 258.83603 313.1375Q258.5704 312.9969 257.55478 312.6844Q256.64853 312.41876 256.22665 312.09064Q255.80478 311.7625 255.55478 311.2469Q255.30478 310.71564 255.30478 310.1219Q255.30478 309.41876 255.61728 308.85626Q255.9454 308.29376 256.5079 308.0125Q257.0704 307.71564 257.89853 307.71564Q259.14853 307.71564 259.83603 308.3875Q260.53915 309.0594 260.58603 310.3094L259.14853 310.3875Q259.05478 309.7 258.74228 309.4344Q258.4454 309.15314 257.86728 309.15314Q257.28915 309.15314 256.97665 309.3875Q256.66415 309.6219 256.66415 309.98126Q256.66415 310.34064 256.9454 310.575Q257.22665 310.825 258.24228 311.10626Q259.3204 311.41876 259.78915 311.7625Q260.27353 312.10626 260.52353 312.65314Q260.77353 313.1844 260.77353 313.96564Q260.77353 315.075 260.08603 315.84064Q259.39853 316.60626 257.92978 316.60626Q255.35165 316.60626 255.05478 313.65314ZM262.36728 310.23126L263.61728 310.23126L263.61728 311.1375Q263.8829 310.65314 264.30478 310.3719Q264.72665 310.09064 265.21103 310.09064Q266.08603 310.09064 266.71103 310.91876Q267.35165 311.7469 267.35165 313.27814Q267.35165 314.8875 266.71103 315.7469Q266.08603 316.59064 265.21103 316.59064Q264.80478 316.59064 264.4454 316.40314Q264.10165 316.2 263.71103 315.6844L263.71103 318.825L262.36728 318.825L262.36728 310.23126ZM263.6954 313.23126Q263.6954 314.29376 264.03915 314.79376Q264.3829 315.27814 264.86728 315.27814Q265.33603 315.27814 265.64853 314.825Q265.96103 314.35626 265.96103 313.325Q265.96103 312.325 265.6329 311.85626Q265.3204 311.3875 264.85165 311.3875Q264.35165 311.3875 264.02353 311.85626Q263.6954 312.3094 263.6954 313.23126ZM268.08603 313.2469Q268.08603 312.34064 268.4454 311.59064Q268.8204 310.84064 269.39853 310.46564Q269.99228 310.09064 270.72665 310.09064Q271.9454 310.09064 272.64853 311.0594Q273.35165 312.0125 273.35165 313.3094Q273.35165 314.2625 272.97665 315.04376Q272.61728 315.8094 272.02353 316.2Q271.42978 316.59064 270.72665 316.59064Q269.58603 316.59064 268.83603 315.73126Q268.08603 314.85626 268.08603 313.2469ZM269.47665 313.34064Q269.47665 314.27814 269.83603 314.7625Q270.21103 315.2469 270.72665 315.2469Q271.24228 315.2469 271.60165 314.7625Q271.96103 314.27814 271.96103 313.325Q271.96103 312.40314 271.58603 311.91876Q271.22665 311.4344 270.71103 311.4344Q270.21103 311.4344 269.83603 311.91876Q269.47665 312.40314 269.47665 313.34064ZM279.03915 316.45L277.6954 316.45L277.6954 313.27814Q277.6954 312.325 277.61728 312.0125Q277.53915 311.6844 277.3204 311.5125Q277.11728 311.34064 276.86728 311.34064Q276.52353 311.34064 276.24228 311.5594Q275.97665 311.77814 275.85165 312.16876Q275.74228 312.5594 275.74228 313.6375L275.74228 316.45L274.39853 316.45L274.39853 310.23126L275.64853 310.23126L275.64853 311.1375Q275.97665 310.60626 276.39853 310.35626Q276.8204 310.09064 277.33603 310.09064Q277.91415 310.09064 278.3204 310.40314Q278.74228 310.7 278.8829 311.1844Q279.03915 311.66876 279.03915 312.575L279.03915 316.45ZM279.86728 316.45L279.86728 315.16876L281.77353 312.48126Q282.24228 311.825 282.46103 311.5594Q282.22665 311.575 281.85165 311.575L280.05478 311.59064L280.05478 310.23126L284.27353 310.23126L284.27353 311.3875L282.3204 314.1375L281.6329 315.04376Q282.1954 314.9969 282.3204 314.9969L284.41415 314.9969L284.41415 316.45L279.86728 316.45ZM286.41415 312.1219L285.1954 311.85626Q285.41415 310.91876 285.91415 310.5125Q286.42978 310.09064 287.39853 310.09064Q288.2579 310.09064 288.6954 310.325Q289.14853 310.5594 289.33603 310.98126Q289.53915 311.3875 289.53915 312.48126L289.52353 314.40314Q289.52353 315.21564 289.58603 315.60626Q289.66415 315.9969 289.83603 316.45L288.49228 316.45L288.3204 315.7625Q287.97665 316.1844 287.5704 316.3875Q287.17978 316.59064 286.74228 316.59064Q285.99228 316.59064 285.52353 316.09064Q285.05478 315.59064 285.05478 314.7625Q285.05478 314.23126 285.24228 313.84064Q285.42978 313.45 285.77353 313.21564Q286.1329 312.98126 286.91415 312.79376Q287.85165 312.575 288.21103 312.3875Q288.21103 311.8719 288.1329 311.71564Q288.0704 311.54376 287.86728 311.45Q287.67978 311.34064 287.3204 311.34064Q286.96103 311.34064 286.74228 311.5125Q286.53915 311.66876 286.41415 312.1219ZM288.21103 313.46564Q287.96103 313.5594 287.41415 313.7Q286.78915 313.8719 286.60165 314.075Q286.39853 314.2625 286.39853 314.59064Q286.39853 314.95 286.61728 315.2Q286.83603 315.4344 287.14853 315.4344Q287.4454 315.4344 287.72665 315.2469Q288.0079 315.04376 288.10165 314.77814Q288.21103 314.4969 288.21103 313.79376L288.21103 313.46564Z" fill-rule="nonzero"/><path fill="#f3f3f3" d="M362.16397 313.65314L363.5546 313.4969Q363.78897 315.1375 365.08585 315.1375Q365.72647 315.1375 366.10147 314.8094Q366.47647 314.46564 366.47647 313.96564Q366.47647 313.66876 366.33585 313.46564Q366.21085 313.2625 365.94522 313.1375Q365.6796 312.9969 364.66397 312.6844Q363.75772 312.41876 363.33585 312.09064Q362.91397 311.7625 362.66397 311.2469Q362.41397 310.71564 362.41397 310.1219Q362.41397 309.41876 362.72647 308.85626Q363.0546 308.29376 363.6171 308.0125Q364.1796 307.71564 365.00772 307.71564Q366.25772 307.71564 366.94522 308.3875Q367.64835 309.0594 367.69522 310.3094L366.25772 310.3875Q366.16397 309.7 365.85147 309.4344Q365.5546 309.15314 364.97647 309.15314Q364.39835 309.15314 364.08585 309.3875Q363.77335 309.6219 363.77335 309.98126Q363.77335 310.34064 364.0546 310.575Q364.33585 310.825 365.35147 311.10626Q366.4296 311.41876 366.89835 311.7625Q367.38272 312.10626 367.63272 312.65314Q367.88272 313.1844 367.88272 313.96564Q367.88272 315.075 367.19522 315.84064Q366.50772 316.60626 365.03897 316.60626Q362.46085 316.60626 362.16397 313.65314ZM370.52335 312.1219L369.3046 311.85626Q369.52335 310.91876 370.02335 310.5125Q370.53897 310.09064 371.50772 310.09064Q372.3671 310.09064 372.8046 310.325Q373.25772 310.5594 373.44522 310.98126Q373.64835 311.3875 373.64835 312.48126L373.63272 314.40314Q373.63272 315.21564 373.69522 315.60626Q373.77335 315.9969 373.94522 316.45L372.60147 316.45L372.4296 315.7625Q372.08585 316.1844 371.6796 316.3875Q371.28897 316.59064 370.85147 316.59064Q370.10147 316.59064 369.63272 316.09064Q369.16397 315.59064 369.16397 314.7625Q369.16397 314.23126 369.35147 313.84064Q369.53897 313.45 369.88272 313.21564Q370.2421 312.98126 371.02335 312.79376Q371.96085 312.575 372.32022 312.3875Q372.32022 311.8719 372.2421 311.71564Q372.1796 311.54376 371.97647 311.45Q371.78897 311.34064 371.4296 311.34064Q371.07022 311.34064 370.85147 311.5125Q370.64835 311.66876 370.52335 312.1219ZM372.32022 313.46564Q372.07022 313.5594 371.52335 313.7Q370.89835 313.8719 370.71085 314.075Q370.50772 314.2625 370.50772 314.59064Q370.50772 314.95 370.72647 315.2Q370.94522 315.4344 371.25772 315.4344Q371.5546 315.4344 371.83585 315.2469Q372.1171 315.04376 372.21085 314.77814Q372.32022 314.4969 372.32022 313.79376L372.32022 313.46564ZM379.14835 316.45L377.8046 316.45L377.8046 313.27814Q377.8046 312.325 377.72647 312.0125Q377.64835 311.6844 377.4296 311.5125Q377.22647 311.34064 376.97647 311.34064Q376.63272 311.34064 376.35147 311.5594Q376.08585 311.77814 375.96085 312.16876Q375.85147 312.5594 375.85147 313.6375L375.85147 316.45L374.50772 316.45L374.50772 310.23126L375.75772 310.23126L375.75772 311.1375Q376.08585 310.60626 376.50772 310.35626Q376.9296 310.09064 377.44522 310.09064Q378.02335 310.09064 378.4296 310.40314Q378.85147 310.7 378.9921 311.1844Q379.14835 311.66876 379.14835 312.575L379.14835 316.45ZM383.50772 316.45L383.50772 307.85626L385.63272 307.85626L386.91397 313.71564L388.1796 307.85626L390.3046 307.85626L390.3046 316.45L388.9921 316.45L388.9921 309.6844L387.58585 316.45L386.21085 316.45L384.82022 309.6844L384.82022 316.45L383.50772 316.45ZM391.50772 309.3875L391.50772 307.85626L392.8671 307.85626L392.8671 309.3875L391.50772 309.3875ZM391.50772 316.45L391.50772 310.23126L392.8671 310.23126L392.8671 316.45L391.50772 316.45ZM394.38272 316.85626L395.9296 317.09064Q395.96085 317.4344 396.13272 317.575Q396.32022 317.71564 396.71085 317.71564Q397.16397 317.71564 397.4296 317.575Q397.63272 317.46564 397.72647 317.21564Q397.83585 316.96564 397.83585 316.35626L397.83585 315.4344Q397.53897 315.95 397.14835 316.2Q396.77335 316.45 396.3046 316.45Q395.46085 316.45 394.88272 315.6844Q394.21085 314.8094 394.21085 313.3094Q394.21085 311.71564 394.83585 310.90314Q395.47647 310.09064 396.3671 310.09064Q396.83585 310.09064 397.22647 310.34064Q397.6171 310.59064 397.9296 311.10626L397.9296 310.23126L399.19522 310.23126L399.19522 315.8094Q399.19522 317.15314 398.94522 317.7469Q398.69522 318.35626 398.1796 318.66876Q397.6796 318.98126 396.75772 318.98126Q395.9296 318.98126 395.41397 318.7469Q394.91397 318.52814 394.64835 318.09064Q394.38272 317.65314 394.38272 317.0594L394.38272 316.85626ZM395.58585 313.21564Q395.58585 314.2 395.89835 314.66876Q396.22647 315.1219 396.6796 315.1219Q397.16397 315.1219 397.50772 314.66876Q397.8671 314.2 397.8671 313.2469Q397.8671 312.27814 397.52335 311.8094Q397.19522 311.34064 396.71085 311.34064Q396.22647 311.34064 395.89835 311.8094Q395.58585 312.2625 395.58585 313.21564ZM403.8671 316.45L403.8671 315.5125Q403.58585 316.02814 403.1171 316.3094Q402.66397 316.59064 402.1796 316.59064Q401.66397 316.59064 401.25772 316.325Q400.8671 316.0594 400.66397 315.575Q400.47647 315.09064 400.47647 314.16876L400.47647 310.23126L401.83585 310.23126L401.83585 313.09064Q401.83585 314.3094 401.89835 314.6375Q401.96085 314.96564 402.16397 315.15314Q402.38272 315.34064 402.6796 315.34064Q403.02335 315.34064 403.3046 315.10626Q403.58585 314.85626 403.6796 314.4969Q403.77335 314.1219 403.77335 312.85626L403.77335 310.23126L405.1171 310.23126L405.1171 316.45L403.8671 316.45ZM409.47647 314.46564L410.82022 314.7469Q410.53897 315.6844 409.97647 316.1375Q409.41397 316.59064 408.60147 316.59064Q407.46085 316.59064 406.85147 315.84064Q406.1171 314.95 406.1171 313.3719Q406.1171 311.8094 406.85147 310.8719Q407.47647 310.09064 408.46085 310.09064Q409.5546 310.09064 410.1796 310.8875Q410.89835 311.825 410.89835 313.6219L410.88272 313.8094L407.50772 313.8094Q407.52335 314.54376 407.83585 314.95Q408.14835 315.35626 408.60147 315.35626Q409.25772 315.35626 409.47647 314.46564ZM409.5546 312.8094Q409.53897 312.075 409.2421 311.71564Q408.94522 311.34064 408.53897 311.34064Q408.1171 311.34064 407.82022 311.73126Q407.52335 312.10626 407.52335 312.8094L409.5546 312.8094ZM411.50772 316.45L411.50772 307.85626L412.8671 307.85626L412.8671 316.45L411.50772 316.45Z" fill-rule="nonzero"/><path fill="#f3f3f3" d="M474.63254 316.45L474.63254 307.85626L476.0544 307.85626L476.0544 311.2469L478.83566 311.2469L478.83566 307.85626L480.27316 307.85626L480.27316 316.45L478.83566 316.45L478.83566 312.7L476.0544 312.7L476.0544 316.45L474.63254 316.45ZM481.6169 309.3875L481.6169 307.85626L482.9763 307.85626L482.9763 309.3875L481.6169 309.3875ZM481.6169 316.45L481.6169 310.23126L482.9763 310.23126L482.9763 316.45L481.6169 316.45ZM489.3044 316.45L488.0388 316.45L488.0388 315.52814Q487.7419 316.0594 487.32004 316.325Q486.89816 316.59064 486.44504 316.59064Q485.58566 316.59064 484.94504 315.7469Q484.32004 314.8875 484.32004 313.3094Q484.32004 311.71564 484.9294 310.90314Q485.5544 310.09064 486.4763 310.09064Q486.89816 310.09064 487.27316 310.3094Q487.64816 310.5125 487.94504 310.95L487.94504 307.85626L489.3044 307.85626L489.3044 316.45ZM485.69504 313.2Q485.69504 314.04376 485.83566 314.46564Q485.9919 314.8719 486.25754 315.09064Q486.52316 315.29376 486.8513 315.29376Q487.3044 315.29376 487.63254 314.8094Q487.96066 314.325 487.96066 313.35626Q487.96066 312.29376 487.63254 311.825Q487.32004 311.34064 486.82004 311.34064Q486.3513 311.34064 486.02316 311.8094Q485.69504 312.27814 485.69504 313.2ZM495.3044 316.45L494.0388 316.45L494.0388 315.52814Q493.7419 316.0594 493.32004 316.325Q492.89816 316.59064 492.44504 316.59064Q491.58566 316.59064 490.94504 315.7469Q490.32004 314.8875 490.32004 313.3094Q490.32004 311.71564 490.9294 310.90314Q491.5544 310.09064 492.4763 310.09064Q492.89816 310.09064 493.27316 310.3094Q493.64816 310.5125 493.94504 310.95L493.94504 307.85626L495.3044 307.85626L495.3044 316.45ZM491.69504 313.2Q491.69504 314.04376 491.83566 314.46564Q491.9919 314.8719 492.25754 315.09064Q492.52316 315.29376 492.8513 315.29376Q493.3044 315.29376 493.63254 314.8094Q493.96066 314.325 493.96066 313.35626Q493.96066 312.29376 493.63254 311.825Q493.32004 311.34064 492.82004 311.34064Q492.3513 311.34064 492.02316 311.8094Q491.69504 312.27814 491.69504 313.2ZM499.58566 314.46564L500.9294 314.7469Q500.64816 315.6844 500.08566 316.1375Q499.52316 316.59064 498.71066 316.59064Q497.57004 316.59064 496.96066 315.84064Q496.2263 314.95 496.2263 313.3719Q496.2263 311.8094 496.96066 310.8719Q497.58566 310.09064 498.57004 310.09064Q499.6638 310.09064 500.2888 310.8875Q501.00754 311.825 501.00754 313.6219L500.9919 313.8094L497.6169 313.8094Q497.63254 314.54376 497.94504 314.95Q498.25754 315.35626 498.71066 315.35626Q499.3669 315.35626 499.58566 314.46564ZM499.6638 312.8094Q499.64816 312.075 499.3513 311.71564Q499.0544 311.34064 498.64816 311.34064Q498.2263 311.34064 497.9294 311.73126Q497.63254 312.10626 497.63254 312.8094L499.6638 312.8094ZM506.25754 316.45L504.9138 316.45L504.9138 313.27814Q504.9138 312.325 504.83566 312.0125Q504.75754 311.6844 504.5388 311.5125Q504.33566 311.34064 504.08566 311.34064Q503.7419 311.34064 503.46066 311.5594Q503.19504 311.77814 503.07004 312.16876Q502.96066 312.5594 502.96066 313.6375L502.96066 316.45L501.6169 316.45L501.6169 310.23126L502.8669 310.23126L502.8669 311.1375Q503.19504 310.60626 503.6169 310.35626Q504.0388 310.09064 504.5544 310.09064Q505.13254 310.09064 505.5388 310.40314Q505.96066 310.7 506.1013 311.1844Q506.25754 311.66876 506.25754 312.575L506.25754 316.45ZM516.9763 316.45L515.42944 316.45L514.82007 314.4969L512.00757 314.4969L511.4294 316.45L509.9138 316.45L512.6638 307.85626L514.1638 307.85626L516.9763 316.45ZM514.36694 313.04376L513.3982 309.85626L512.44507 313.04376L514.36694 313.04376ZM517.61694 316.45L517.61694 307.85626L518.9763 307.85626L518.9763 316.45L517.61694 316.45ZM520.61694 316.45L520.61694 307.85626L521.9763 307.85626L521.9763 316.45L520.61694 316.45ZM526.5857 314.46564L527.92944 314.7469Q527.6482 315.6844 527.0857 316.1375Q526.5232 316.59064 525.7107 316.59064Q524.57007 316.59064 523.9607 315.84064Q523.2263 314.95 523.2263 313.3719Q523.2263 311.8094 523.9607 310.8719Q524.5857 310.09064 525.57007 310.09064Q526.6638 310.09064 527.2888 310.8875Q528.00757 311.825 528.00757 313.6219L527.99194 313.8094L524.61694 313.8094Q524.63257 314.54376 524.94507 314.95Q525.25757 315.35626 525.7107 315.35626Q526.36694 315.35626 526.5857 314.46564ZM526.6638 312.8094Q526.6482 312.075 526.3513 311.71564Q526.05444 311.34064 525.6482 311.34064Q525.2263 311.34064 524.92944 311.73126Q524.63257 312.10626 524.63257 312.8094L526.6638 312.8094ZM527.9763 310.23126L529.4138 310.23126L530.63257 314.6375L531.8357 310.23126L533.2263 310.23126L531.42944 316.21564L531.0857 317.3875Q530.8513 318.04376 530.61694 318.34064Q530.3982 318.65314 530.0388 318.8094Q529.69507 318.98126 529.19507 318.98126Q528.80444 318.98126 528.42944 318.8719L528.30444 317.59064Q528.61694 317.66876 528.88257 317.66876Q529.25757 317.66876 529.50757 317.40314Q529.75757 317.15314 529.9138 316.46564L527.9763 310.23126Z" fill-rule="nonzero"/><path fill="#4285f4" d="M227.0 57.416668C227.0 56.864384 227.44771 56.416668 228.0 56.416668L238.0 56.416668C238.55229 56.416668 239.0 56.864384 239.0 57.416668L239.0 67.416664C239.0 67.96895 238.55229 68.416664 238.0 68.416664L228.0 68.416664C227.44771 68.416664 227.0 67.96895 227.0 67.416664Z" fill-rule="nonzero"/><path fill="#f3f3f3" d="M247.73438 66.916664L247.73438 58.322914L250.375 58.322914Q251.17188 58.322914 251.64062 58.572914Q252.10938 58.822914 252.40625 59.354164Q252.70312 59.885414 252.70312 60.510414Q252.70312 61.104164 252.4375 61.58854Q252.1875 62.05729 251.71875 62.33854Q252.34375 62.572914 252.6875 63.104164Q253.04688 63.635414 253.04688 64.43229Q253.04688 65.197914 252.71875 65.791664Q252.40625 66.385414 251.875 66.65104Q251.34375 66.916664 250.40625 66.916664L247.73438 66.916664ZM248.65625 61.93229L250.1875 61.93229Q250.78125 61.93229 251.03125 61.854164Q251.39062 61.729164 251.57812 61.447914Q251.78125 61.15104 251.78125 60.65104Q251.78125 60.18229 251.60938 59.885414Q251.4375 59.572914 251.14062 59.46354Q250.84375 59.33854 250.07812 59.33854L248.65625 59.33854L248.65625 61.93229ZM248.65625 65.90104L250.40625 65.90104Q250.98438 65.90104 251.26562 65.791664Q251.67188 65.65104 251.875 65.30729Q252.07812 64.947914 252.07812 64.416664Q252.07812 63.93229 251.875 63.604164Q251.6875 63.260414 251.34375 63.104164Q251.01562 62.947914 250.28125 62.947914L248.65625 62.947914L248.65625 65.90104ZM258.125 64.916664L259.01562 65.041664Q258.79688 66.041664 258.20312 66.55729Q257.625 67.05729 256.76562 67.05729Q255.6875 67.05729 255.01562 66.24479Q254.34375 65.416664 254.34375 63.854164Q254.34375 62.24479 255.01562 61.40104Q255.6875 60.55729 256.73438 60.55729Q257.71875 60.55729 258.375 61.385414Q259.04688 62.21354 259.04688 63.791664L259.04688 64.072914L255.23438 64.072914Q255.28125 65.11979 255.71875 65.65104Q256.15625 66.18229 256.76562 66.18229Q257.75 66.18229 258.125 64.916664ZM255.28125 63.21354L258.125 63.21354Q258.07812 62.40104 257.78125 61.99479Q257.375 61.416664 256.71875 61.416664Q256.14062 61.416664 255.73438 61.90104Q255.32812 62.385414 255.28125 63.21354ZM261.0625 66.916664L259.125 60.697914L260.03125 60.697914L261.14062 64.416664Q261.32812 65.05729 261.46875 65.666664Q261.57812 65.18229 261.78125 64.49479L262.92188 60.697914L263.8125 60.697914L261.875 66.916664L261.0625 66.916664ZM265.60938 69.30729L265.51562 68.322914Q265.79688 68.416664 266.01562 68.416664Q266.28125 68.416664 266.45312 68.30729Q266.64062 68.197914 266.76562 67.96354Q266.79688 67.885414 267.09375 66.93229L265.15625 60.697914L266.09375 60.697914L267.15625 64.291664Q267.35938 64.96354 267.53125 65.74479Q267.67188 65.010414 267.875 64.322914L268.96875 60.697914L269.82812 60.697914L267.89062 67.02604Q267.51562 68.260414 267.29688 68.666664Q267.07812 69.072914 266.79688 69.260414Q266.51562 69.447914 266.17188 69.447914Q265.92188 69.447914 265.60938 69.30729ZM274.39062 62.68229Q274.39062 60.510414 274.96875 59.40104Q275.5625 58.291664 276.70312 58.291664Q277.70312 58.291664 278.28125 59.197914Q278.98438 60.27604 278.98438 62.68229Q278.98438 64.822914 278.40625 65.947914Q277.82812 67.05729 276.6875 67.05729Q275.67188 67.05729 275.03125 66.072914Q274.39062 65.08854 274.39062 62.68229ZM275.28125 62.68229Q275.28125 64.77604 275.67188 65.49479Q276.07812 66.197914 276.70312 66.197914Q277.29688 66.197914 277.6875 65.479164Q278.09375 64.760414 278.09375 62.68229Q278.09375 60.58854 277.6875 59.885414Q277.29688 59.166664 276.65625 59.166664Q276.0625 59.166664 275.67188 59.885414Q275.28125 60.604164 275.28125 62.68229ZM279.90625 66.916664L279.90625 65.71354L280.89062 65.71354L280.89062 66.916664L279.90625 66.916664ZM285.65625 66.916664L284.78125 66.916664L284.78125 60.197914Q284.48438 60.541664 283.98438 60.916664Q283.48438 61.27604 283.0625 61.46354L283.0625 60.447914Q283.76562 60.041664 284.3125 59.447914Q284.85938 58.854164 285.09375 58.291664L285.65625 58.291664L285.65625 66.916664ZM291.95312 65.90104L291.95312 66.916664L287.29688 66.916664Q287.28125 66.30729 287.67188 65.541664Q288.0625 64.77604 289.09375 63.74479Q290.3125 62.52604 290.6875 61.86979Q291.0625 61.21354 291.0625 60.65104Q291.0625 59.99479 290.67188 59.58854Q290.28125 59.166664 289.71875 59.166664Q289.125 59.166664 288.73438 59.61979Q288.34375 60.05729 288.34375 60.885414L287.45312 60.77604Q287.54688 59.541664 288.15625 58.916664Q288.76562 58.291664 289.75 58.291664Q290.82812 58.291664 291.375 59.02604Q291.9375 59.74479 291.9375 60.666664Q291.9375 61.49479 291.5 62.24479Q291.07812 62.99479 289.85938 64.24479Q289.09375 65.041664 288.85938 65.33854Q288.64062 65.61979 288.5 65.90104L291.95312 65.90104Z" fill-rule="nonzero"/><path fill="#ea4335" d="M308.0 57.416668C308.0 56.864384 308.44772 56.416668 309.0 56.416668L319.0 56.416668C319.55228 56.416668 320.0 56.864384 320.0 57.416668L320.0 67.416664C320.0 67.96895 319.55228 68.416664 319.0 68.416664L309.0 68.416664C308.44772 68.416664 308.0 67.96895 308.0 67.416664Z" fill-rule="nonzero"/><path fill="#f3f3f3" d="M328.73438 66.916664L328.73438 58.322914L331.375 58.322914Q332.17188 58.322914 332.64062 58.572914Q333.10938 58.822914 333.40625 59.354164Q333.70312 59.885414 333.70312 60.510414Q333.70312 61.104164 333.4375 61.58854Q333.1875 62.05729 332.71875 62.33854Q333.34375 62.572914 333.6875 63.104164Q334.04688 63.635414 334.04688 64.43229Q334.04688 65.197914 333.71875 65.791664Q333.40625 66.385414 332.875 66.65104Q332.34375 66.916664 331.40625 66.916664L328.73438 66.916664ZM329.65625 61.93229L331.1875 61.93229Q331.78125 61.93229 332.03125 61.854164Q332.39062 61.729164 332.57812 61.447914Q332.78125 61.15104 332.78125 60.65104Q332.78125 60.18229 332.60938 59.885414Q332.4375 59.572914 332.14062 59.46354Q331.84375 59.33854 331.07812 59.33854L329.65625 59.33854L329.65625 61.93229ZM329.65625 65.90104L331.40625 65.90104Q331.98438 65.90104 332.26562 65.791664Q332.67188 65.65104 332.875 65.30729Q333.07812 64.947914 333.07812 64.416664Q333.07812 63.93229 332.875 63.604164Q332.6875 63.260414 332.34375 63.104164Q332.01562 62.947914 331.28125 62.947914L329.65625 62.947914L329.65625 65.90104ZM339.125 64.916664L340.01562 65.041664Q339.79688 66.041664 339.20312 66.55729Q338.625 67.05729 337.76562 67.05729Q336.6875 67.05729 336.01562 66.24479Q335.34375 65.416664 335.34375 63.854164Q335.34375 62.24479 336.01562 61.40104Q336.6875 60.55729 337.73438 60.55729Q338.71875 60.55729 339.375 61.385414Q340.04688 62.21354 340.04688 63.791664L340.04688 64.072914L336.23438 64.072914Q336.28125 65.11979 336.71875 65.65104Q337.15625 66.18229 337.76562 66.18229Q338.75 66.18229 339.125 64.916664ZM336.28125 63.21354L339.125 63.21354Q339.07812 62.40104 338.78125 61.99479Q338.375 61.416664 337.71875 61.416664Q337.14062 61.416664 336.73438 61.90104Q336.32812 62.385414 336.28125 63.21354ZM342.0625 66.916664L340.125 60.697914L341.03125 60.697914L342.14062 64.416664Q342.32812 65.05729 342.46875 65.666664Q342.57812 65.18229 342.78125 64.49479L343.92188 60.697914L344.8125 60.697914L342.875 66.916664L342.0625 66.916664ZM346.60938 69.30729L346.51562 68.322914Q346.79688 68.416664 347.01562 68.416664Q347.28125 68.416664 347.45312 68.30729Q347.64062 68.197914 347.76562 67.96354Q347.79688 67.885414 348.09375 66.93229L346.15625 60.697914L347.09375 60.697914L348.15625 64.291664Q348.35938 64.96354 348.53125 65.74479Q348.67188 65.010414 348.875 64.322914L349.96875 60.697914L350.82812 60.697914L348.89062 67.02604Q348.51562 68.260414 348.29688 68.666664Q348.07812 69.072914 347.79688 69.260414Q347.51562 69.447914 347.17188 69.447914Q346.92188 69.447914 346.60938 69.30729ZM355.39062 62.68229Q355.39062 60.510414 355.96875 59.40104Q356.5625 58.291664 357.70312 58.291664Q358.70312 58.291664 359.28125 59.197914Q359.98438 60.27604 359.98438 62.68229Q359.98438 64.822914 359.40625 65.947914Q358.82812 67.05729 357.6875 67.05729Q356.67188 67.05729 356.03125 66.072914Q355.39062 65.08854 355.39062 62.68229ZM356.28125 62.68229Q356.28125 64.77604 356.67188 65.49479Q357.07812 66.197914 357.70312 66.197914Q358.29688 66.197914 358.6875 65.479164Q359.09375 64.760414 359.09375 62.68229Q359.09375 60.58854 358.6875 59.885414Q358.29688 59.166664 357.65625 59.166664Q357.0625 59.166664 356.67188 59.885414Q356.28125 60.604164 356.28125 62.68229ZM360.90625 66.916664L360.90625 65.71354L361.89062 65.71354L361.89062 66.916664L360.90625 66.916664ZM366.65625 66.916664L365.78125 66.916664L365.78125 60.197914Q365.48438 60.541664 364.98438 60.916664Q364.48438 61.27604 364.0625 61.46354L364.0625 60.447914Q364.76562 60.041664 365.3125 59.447914Q365.85938 58.854164 366.09375 58.291664L366.65625 58.291664L366.65625 66.916664ZM368.40625 64.65104L369.26562 64.510414Q369.53125 66.197914 370.625 66.197914Q371.21875 66.197914 371.65625 65.697914Q372.09375 65.197914 372.09375 64.40104Q372.09375 63.65104 371.6875 63.197914Q371.29688 62.729164 370.71875 62.729164Q370.46875 62.729164 370.10938 62.854164L370.20312 61.916664L370.34375 61.93229Q370.98438 61.93229 371.375 61.541664Q371.78125 61.15104 371.78125 60.49479Q371.78125 59.885414 371.4375 59.52604Q371.10938 59.15104 370.625 59.15104Q370.125 59.15104 369.78125 59.541664Q369.4375 59.93229 369.34375 60.697914L368.48438 60.510414Q368.65625 59.416664 369.21875 58.854164Q369.79688 58.291664 370.60938 58.291664Q371.46875 58.291664 372.0625 58.93229Q372.67188 59.55729 372.67188 60.510414Q372.67188 61.104164 372.40625 61.55729Q372.15625 62.010414 371.70312 62.260414Q372.125 62.385414 372.39062 62.65104Q372.67188 62.916664 372.84375 63.36979Q373.01562 63.822914 373.01562 64.385414Q373.01562 65.55729 372.3125 66.322914Q371.60938 67.072914 370.64062 67.072914Q369.73438 67.072914 369.10938 66.416664Q368.48438 65.760414 368.40625 64.65104Z" fill-rule="nonzero"/><path fill="#f3f3f3" d="M19.753124 37.55L19.753124 23.2375L24.7375 23.2375Q26.659374 23.2375 27.471874 23.628124Q28.3 24.003124 28.815624 24.95625Q29.346874 25.909374 29.346874 27.2375Q29.346874 28.909374 28.534374 29.940624Q27.7375 30.971874 26.253124 31.2375Q27.01875 31.784374 27.51875 32.440624Q28.01875 33.08125 28.878124 34.753124L30.3 37.55L27.471874 37.55L25.753124 34.440624Q24.83125 32.7375 24.4875 32.315624Q24.159374 31.89375 23.784374 31.7375Q23.425 31.565624 22.596874 31.565624L22.1125 31.565624L22.1125 37.55L19.753124 37.55ZM22.1125 29.284374L23.878124 29.284374Q25.4875 29.284374 25.925 29.14375Q26.3625 29.003124 26.628124 28.58125Q26.909374 28.14375 26.909374 27.425Q26.909374 26.753124 26.628124 26.346874Q26.3625 25.925 25.89375 25.76875Q25.565624 25.659374 23.971874 25.659374L22.1125 25.659374L22.1125 29.284374ZM36.659374 34.253124L38.89375 34.70625Q38.45625 36.26875 37.503124 37.034374Q36.55 37.784374 35.20625 37.784374Q33.315624 37.784374 32.284374 36.51875Q31.08125 35.065624 31.08125 32.425Q31.08125 29.83125 32.3 28.26875Q33.33125 26.940624 34.971874 26.940624Q36.8 26.940624 37.83125 28.284374Q39.034374 29.83125 39.034374 32.846874L39.01875 33.159374L33.378124 33.159374Q33.409374 34.378124 33.940624 35.065624Q34.471874 35.7375 35.221874 35.7375Q36.3 35.7375 36.659374 34.253124ZM36.784374 31.471874Q36.76875 30.26875 36.26875 29.659374Q35.784374 29.05 35.1125 29.05Q34.39375 29.05 33.909374 29.675Q33.409374 30.315624 33.425 31.471874L36.784374 31.471874ZM48.471874 37.55L46.20625 37.55L46.20625 32.253124Q46.20625 30.659374 46.08125 30.14375Q45.95625 29.6125 45.6125 29.33125Q45.26875 29.05 44.83125 29.05Q44.253124 29.05 43.8 29.409374Q43.346874 29.76875 43.159374 30.425Q42.971874 31.065624 42.971874 32.846874L42.971874 37.55L40.70625 37.55L40.70625 27.175L42.8 27.175L42.8 28.70625Q43.3625 27.815624 44.05 27.378124Q44.753124 26.940624 45.6125 26.940624Q46.596874 26.940624 47.26875 27.45625Q47.95625 27.971874 48.20625 28.784374Q48.471874 29.58125 48.471874 31.096874L48.471874 37.55ZM58.534374 37.55L56.440624 37.55L56.440624 36.01875Q55.925 36.909374 55.221874 37.346874Q54.51875 37.784374 53.76875 37.784374Q52.346874 37.784374 51.284374 36.3625Q50.221874 34.940624 50.221874 32.3Q50.221874 29.64375 51.253124 28.3Q52.3 26.940624 53.815624 26.940624Q54.51875 26.940624 55.14375 27.3Q55.76875 27.659374 56.284374 28.39375L56.284374 23.2375L58.534374 23.2375L58.534374 37.55ZM52.534374 32.14375Q52.534374 33.55 52.76875 34.2375Q53.003124 34.925 53.440624 35.26875Q53.89375 35.6125 54.45625 35.6125Q55.190624 35.6125 55.7375 34.815624Q56.284374 34.01875 56.284374 32.409374Q56.284374 30.6125 55.753124 29.83125Q55.221874 29.05 54.409374 29.05Q53.628124 29.05 53.08125 29.815624Q52.534374 30.58125 52.534374 32.14375ZM65.65938 34.253124L67.89375 34.70625Q67.45625 36.26875 66.50313 37.034374Q65.55 37.784374 64.20625 37.784374Q62.315624 37.784374 61.284374 36.51875Q60.08125 35.065624 60.08125 32.425Q60.08125 29.83125 61.3 28.26875Q62.33125 26.940624 63.971874 26.940624Q65.8 26.940624 66.83125 28.284374Q68.03438 29.83125 68.03438 32.846874L68.01875 33.159374L62.378124 33.159374Q62.409374 34.378124 62.940624 35.065624Q63.471874 35.7375 64.22188 35.7375Q65.3 35.7375 65.65938 34.253124ZM65.78438 31.471874Q65.76875 30.26875 65.26875 29.659374Q64.78438 29.05 64.1125 29.05Q63.39375 29.05 62.909374 29.675Q62.409374 30.315624 62.425 31.471874L65.78438 31.471874ZM71.89375 37.55L69.62813 37.55L69.62813 27.175L71.72188 27.175L71.72188 28.659374Q72.26875 27.6125 72.69063 27.284374Q73.1125 26.940624 73.675 26.940624Q74.44063 26.940624 75.14375 27.45625L74.44063 29.846874Q73.87813 29.409374 73.37813 29.409374Q72.90938 29.409374 72.55 29.753124Q72.20625 30.096874 72.05 31.003124Q71.89375 31.909374 71.89375 34.346874L71.89375 37.55ZM75.7375 25.76875L75.7375 23.2375L77.9875 23.2375L77.9875 25.76875L75.7375 25.76875ZM75.7375 37.55L75.7375 27.175L77.9875 27.175L77.9875 37.55L75.7375 37.55ZM87.47188 37.55L85.20625 37.55L85.20625 32.253124Q85.20625 30.659374 85.08125 30.14375Q84.95625 29.6125 84.6125 29.33125Q84.26875 29.05 83.83125 29.05Q83.25313 29.05 82.8 29.409374Q82.34688 29.76875 82.15938 30.425Q81.97188 31.065624 81.97188 32.846874L81.97188 37.55L79.70625 37.55L79.70625 27.175L81.8 27.175L81.8 28.70625Q82.3625 27.815624 83.05 27.378124Q83.75313 26.940624 84.6125 26.940624Q85.59688 26.940624 86.26875 27.45625Q86.95625 27.971874 87.20625 28.784374Q87.47188 29.58125 87.47188 31.096874L87.47188 37.55ZM89.51875 38.2375L92.09688 38.6125Q92.15938 39.175 92.45625 39.409374Q92.75313 39.659374 93.39375 39.659374Q94.14375 39.659374 94.59688 39.409374Q94.925 39.2375 95.09688 38.83125Q95.26875 38.425 95.26875 37.378124L95.26875 35.8625Q94.76875 36.70625 94.12813 37.128124Q93.4875 37.55 92.72188 37.55Q91.3 37.55 90.33125 36.26875Q89.22188 34.8 89.22188 32.3Q89.22188 29.64375 90.26875 28.3Q91.33125 26.940624 92.81563 26.940624Q93.6125 26.940624 94.25313 27.3625Q94.90938 27.784374 95.40938 28.628124L95.40938 27.175L97.51875 27.175L97.51875 36.4875Q97.51875 38.721874 97.1125 39.721874Q96.70625 40.7375 95.84688 41.2375Q95.00313 41.753124 93.4875 41.753124Q92.08125 41.753124 91.2375 41.378124Q90.40938 41.01875 89.95625 40.284374Q89.51875 39.55 89.51875 38.58125L89.51875 38.2375ZM91.53438 32.14375Q91.53438 33.815624 92.06563 34.58125Q92.59688 35.33125 93.34688 35.33125Q94.15938 35.33125 94.7375 34.565624Q95.31563 33.784374 95.31563 32.221874Q95.31563 30.596874 94.75313 29.83125Q94.20625 29.05 93.39375 29.05Q92.59688 29.05 92.06563 29.815624Q91.53438 30.565624 91.53438 32.14375ZM104.65938 27.175L106.76875 27.175L106.76875 28.70625Q107.19063 27.878124 107.89375 27.409374Q108.59688 26.940624 109.40938 26.940624Q110.8625 26.940624 111.90938 28.33125Q112.97188 29.721874 112.97188 32.26875Q112.97188 34.940624 111.90938 36.3625Q110.8625 37.784374 109.39375 37.784374Q108.72188 37.784374 108.14375 37.45625Q107.56563 37.128124 106.925 36.26875L106.925 41.503124L104.65938 41.503124L104.65938 27.175ZM106.89375 32.190624Q106.89375 33.940624 107.45625 34.784374Q108.03438 35.6125 108.84688 35.6125Q109.6125 35.6125 110.14375 34.846874Q110.675 34.065624 110.675 32.33125Q110.675 30.690624 110.12813 29.909374Q109.58125 29.1125 108.8 29.1125Q107.9875 29.1125 107.44063 29.878124Q106.89375 30.64375 106.89375 32.190624ZM119.65938 34.253124L121.89375 34.70625Q121.45625 36.26875 120.50313 37.034374Q119.55 37.784374 118.20625 37.784374Q116.31563 37.784374 115.28438 36.51875Q114.08125 35.065624 114.08125 32.425Q114.08125 29.83125 115.3 28.26875Q116.33125 26.940624 117.97188 26.940624Q119.8 26.940624 120.83125 28.284374Q122.03438 29.83125 122.03438 32.846874L122.01875 33.159374L116.37813 33.159374Q116.40938 34.378124 116.94063 35.065624Q117.47188 35.7375 118.22188 35.7375Q119.3 35.7375 119.65938 34.253124ZM119.78438 31.471874Q119.76875 30.26875 119.26875 29.659374Q118.78438 29.05 118.1125 29.05Q117.39375 29.05 116.90938 29.675Q116.40938 30.315624 116.425 31.471874L119.78438 31.471874ZM125.89375 37.55L123.62813 37.55L123.62813 27.175L125.72188 27.175L125.72188 28.659374Q126.26875 27.6125 126.69063 27.284374Q127.1125 26.940624 127.675 26.940624Q128.44063 26.940624 129.14375 27.45625L128.44063 29.846874Q127.87813 29.409374 127.37813 29.409374Q126.90938 29.409374 126.55 29.753124Q126.20625 30.096874 126.05 31.003124Q125.89375 31.909374 125.89375 34.346874L125.89375 37.55ZM128.75313 27.175L130.00313 27.175L130.00313 26.39375Q130.00313 24.9875 130.26875 24.346874Q130.53438 23.70625 131.12813 23.346874Q131.7375 22.9875 132.6125 22.9875Q133.56563 22.9875 134.4875 23.346874L134.19063 25.253124Q133.64375 25.096874 133.14375 25.096874Q132.675 25.096874 132.45625 25.378124Q132.2375 25.64375 132.2375 26.440624L132.2375 27.175L133.925 27.175L133.925 29.33125L132.2375 29.33125L132.2375 37.55L130.00313 37.55L130.00313 29.33125L128.75313 29.33125L128.75313 27.175ZM134.20625 32.221874Q134.20625 30.690624 134.8 29.440624Q135.40938 28.190624 136.37813 27.565624Q137.3625 26.940624 138.59688 26.940624Q140.64375 26.940624 141.81563 28.55Q142.9875 30.159374 142.9875 32.3Q142.9875 33.909374 142.37813 35.20625Q141.76875 36.4875 140.76875 37.14375Q139.78438 37.784374 138.59688 37.784374Q136.70625 37.784374 135.45625 36.346874Q134.20625 34.89375 134.20625 32.221874ZM136.50313 32.3625Q136.50313 33.940624 137.1125 34.753124Q137.7375 35.55 138.6125 35.55Q139.45625 35.55 140.06563 34.7375Q140.675 33.925 140.675 32.346874Q140.675 30.8 140.05 29.9875Q139.44063 29.175 138.58125 29.175Q137.7375 29.175 137.1125 29.9875Q136.50313 30.8 136.50313 32.3625ZM146.89375 37.55L144.62813 37.55L144.62813 27.175L146.72188 27.175L146.72188 28.659374Q147.26875 27.6125 147.69063 27.284374Q148.1125 26.940624 148.675 26.940624Q149.44063 26.940624 150.14375 27.45625L149.44063 29.846874Q148.87813 29.409374 148.37813 29.409374Q147.90938 29.409374 147.55 29.753124Q147.20625 30.096874 147.05 31.003124Q146.89375 31.909374 146.89375 34.346874L146.89375 37.55ZM150.55 27.175L152.62813 27.175L152.62813 28.596874Q153.19063 27.76875 153.84688 27.3625Q154.51875 26.940624 155.28438 26.940624Q156.09688 26.940624 156.69063 27.3625Q157.3 27.76875 157.69063 28.596874Q158.25313 27.76875 158.89375 27.3625Q159.55 26.940624 160.28438 26.940624Q161.15938 26.940624 161.78438 27.3625Q162.40938 27.76875 162.7375 28.55Q163.06563 29.315624 163.06563 30.925L163.06563 37.55L160.81563 37.55L160.81563 31.628124Q160.81563 30.065624 160.53438 29.565624Q160.26875 29.05 159.6125 29.05Q158.8625 29.05 158.40938 29.76875Q157.95625 30.471874 157.95625 32.565624L157.95625 37.55L155.69063 37.55L155.69063 31.8625Q155.69063 30.175 155.50313 29.690624Q155.26875 29.05 154.51875 29.05Q154.01875 29.05 153.59688 29.378124Q153.19063 29.70625 153.00313 30.346874Q152.81563 30.9875 152.81563 32.503124L152.81563 37.55L150.55 37.55L150.55 27.175ZM166.40938 30.346874L164.37813 29.89375Q164.7375 28.315624 165.59688 27.628124Q166.45625 26.940624 168.05 26.940624Q169.47188 26.940624 170.22188 27.346874Q170.9875 27.7375 171.3 28.440624Q171.62813 29.128124 171.62813 30.940624L171.6125 34.14375Q171.6125 35.4875 171.70625 36.14375Q171.81563 36.8 172.1125 37.55L169.89375 37.55L169.59688 36.409374Q169.01875 37.096874 168.3625 37.440624Q167.70625 37.784374 166.95625 37.784374Q165.72188 37.784374 164.925 36.95625Q164.14375 36.1125 164.14375 34.721874Q164.14375 33.846874 164.45625 33.190624Q164.78438 32.534374 165.3625 32.14375Q165.95625 31.753124 167.2375 31.45625Q168.8 31.096874 169.425 30.784374Q169.425 29.925 169.3 29.659374Q169.175 29.378124 168.84688 29.221874Q168.51875 29.05 167.925 29.05Q167.31563 29.05 166.97188 29.33125Q166.62813 29.596874 166.40938 30.346874ZM169.425 32.565624Q168.9875 32.7375 168.08125 32.971874Q167.03438 33.253124 166.72188 33.58125Q166.39375 33.909374 166.39375 34.440624Q166.39375 35.034374 166.75313 35.440624Q167.1125 35.846874 167.64375 35.846874Q168.12813 35.846874 168.59688 35.51875Q169.06563 35.190624 169.2375 34.753124Q169.425 34.3 169.425 33.1125L169.425 32.565624ZM181.47188 37.55L179.20625 37.55L179.20625 32.253124Q179.20625 30.659374 179.08125 30.14375Q178.95625 29.6125 178.6125 29.33125Q178.26875 29.05 177.83125 29.05Q177.25313 29.05 176.8 29.409374Q176.34688 29.76875 176.15938 30.425Q175.97188 31.065624 175.97188 32.846874L175.97188 37.55L173.70625 37.55L173.70625 27.175L175.8 27.175L175.8 28.70625Q176.3625 27.815624 177.05 27.378124Q177.75313 26.940624 178.6125 26.940624Q179.59688 26.940624 180.26875 27.45625Q180.95625 27.971874 181.20625 28.784374Q181.47188 29.58125 181.47188 31.096874L181.47188 37.55ZM191.14375 30.2375L188.925 30.7375Q188.69063 29.096874 187.39375 29.096874Q186.56563 29.096874 186.05 29.8Q185.55 30.503124 185.55 32.175Q185.55 34.01875 186.05 34.784374Q186.56563 35.55 187.40938 35.55Q188.05 35.55 188.45625 35.1125Q188.8625 34.675 189.05 33.58125L191.26875 34.034374Q190.58125 37.784374 187.33125 37.784374Q185.25313 37.784374 184.2375 36.20625Q183.2375 34.6125 183.2375 32.39375Q183.2375 29.721874 184.3625 28.33125Q185.50313 26.940624 187.3625 26.940624Q188.84688 26.940624 189.78438 27.7375Q190.7375 28.51875 191.14375 30.2375ZM197.65938 34.253124L199.89375 34.70625Q199.45625 36.26875 198.50313 37.034374Q197.55 37.784374 196.20625 37.784374Q194.31563 37.784374 193.28438 36.51875Q192.08125 35.065624 192.08125 32.425Q192.08125 29.83125 193.3 28.26875Q194.33125 26.940624 195.97188 26.940624Q197.8 26.940624 198.83125 28.284374Q200.03438 29.83125 200.03438 32.846874L200.01875 33.159374L194.37813 33.159374Q194.40938 34.378124 194.94063 35.065624Q195.47188 35.7375 196.22188 35.7375Q197.3 35.7375 197.65938 34.253124ZM197.78438 31.471874Q197.76875 30.26875 197.26875 29.659374Q196.78438 29.05 196.1125 29.05Q195.39375 29.05 194.90938 29.675Q194.40938 30.315624 194.425 31.471874L197.78438 31.471874ZM206.7375 25.76875L206.7375 23.2375L208.9875 23.2375L208.9875 25.76875L206.7375 25.76875ZM206.7375 37.55L206.7375 27.175L208.9875 27.175L208.9875 37.55L206.7375 37.55ZM210.55 27.175L212.62813 27.175L212.62813 28.596874Q213.19063 27.76875 213.84688 27.3625Q214.51875 26.940624 215.28438 26.940624Q216.09688 26.940624 216.69063 27.3625Q217.3 27.76875 217.69063 28.596874Q218.25313 27.76875 218.89375 27.3625Q219.55 26.940624 220.28438 26.940624Q221.15938 26.940624 221.78438 27.3625Q222.40938 27.76875 222.7375 28.55Q223.06563 29.315624 223.06563 30.925L223.06563 37.55L220.81563 37.55L220.81563 31.628124Q220.81563 30.065624 220.53438 29.565624Q220.26875 29.05 219.6125 29.05Q218.8625 29.05 218.40938 29.76875Q217.95625 30.471874 217.95625 32.565624L217.95625 37.55L215.69063 37.55L215.69063 31.8625Q215.69063 30.175 215.50313 29.690624Q215.26875 29.05 214.51875 29.05Q214.01875 29.05 213.59688 29.378124Q213.19063 29.70625 213.00313 30.346874Q212.81563 30.9875 212.81563 32.503124L212.81563 37.55L210.55 37.55L210.55 27.175ZM224.65938 27.175L226.76875 27.175L226.76875 28.70625Q227.19063 27.878124 227.89375 27.409374Q228.59688 26.940624 229.40938 26.940624Q230.8625 26.940624 231.90938 28.33125Q232.97188 29.721874 232.97188 32.26875Q232.97188 34.940624 231.90938 36.3625Q230.8625 37.784374 229.39375 37.784374Q228.72188 37.784374 228.14375 37.45625Q227.56563 37.128124 226.925 36.26875L226.925 41.503124L224.65938 41.503124L224.65938 27.175ZM226.89375 32.190624Q226.89375 33.940624 227.45625 34.784374Q228.03438 35.6125 228.84688 35.6125Q229.6125 35.6125 230.14375 34.846874Q230.675 34.065624 230.675 32.33125Q230.675 30.690624 230.12813 29.909374Q229.58125 29.1125 228.8 29.1125Q227.9875 29.1125 227.44063 29.878124Q226.89375 30.64375 226.89375 32.190624ZM236.89375 37.55L234.62813 37.55L234.62813 27.175L236.72188 27.175L236.72188 28.659374Q237.26875 27.6125 237.69063 27.284374Q238.1125 26.940624 238.675 26.940624Q239.44063 26.940624 240.14375 27.45625L239.44063 29.846874Q238.87813 29.409374 238.37813 29.409374Q237.90938 29.409374 237.55 29.753124Q237.20625 30.096874 237.05 31.003124Q236.89375 31.909374 236.89375 34.346874L236.89375 37.55ZM240.20625 32.221874Q240.20625 30.690624 240.8 29.440624Q241.40938 28.190624 242.37813 27.565624Q243.3625 26.940624 244.59688 26.940624Q246.64375 26.940624 247.81563 28.55Q248.9875 30.159374 248.9875 32.3Q248.9875 33.909374 248.37813 35.20625Q247.76875 36.4875 246.76875 37.14375Q245.78438 37.784374 244.59688 37.784374Q242.70625 37.784374 241.45625 36.346874Q240.20625 34.89375 240.20625 32.221874ZM242.50313 32.3625Q242.50313 33.940624 243.1125 34.753124Q243.7375 35.55 244.6125 35.55Q245.45625 35.55 246.06563 34.7375Q246.675 33.925 246.675 32.346874Q246.675 30.8 246.05 29.9875Q245.44063 29.175 244.58125 29.175Q243.7375 29.175 243.1125 29.9875Q242.50313 30.8 242.50313 32.3625ZM253.06563 37.55L249.64375 27.175L252.00313 27.175L253.59688 32.471874L254.06563 34.2375L254.53438 32.471874L256.15936 27.175L258.47186 27.175L255.08125 37.55L253.06563 37.55ZM264.65936 34.253124L266.89374 34.70625Q266.45624 36.26875 265.5031 37.034374Q264.55 37.784374 263.20624 37.784374Q261.3156 37.784374 260.28436 36.51875Q259.08124 35.065624 259.08124 32.425Q259.08124 29.83125 260.3 28.26875Q261.33124 26.940624 262.97186 26.940624Q264.8 26.940624 265.83124 28.284374Q267.03436 29.83125 267.03436 32.846874L267.01874 33.159374L261.3781 33.159374Q261.40936 34.378124 261.9406 35.065624Q262.47186 35.7375 263.22186 35.7375Q264.3 35.7375 264.65936 34.253124ZM264.78436 31.471874Q264.76874 30.26875 264.26874 29.659374Q263.78436 29.05 263.1125 29.05Q262.39374 29.05 261.90936 29.675Q261.40936 30.315624 261.425 31.471874L264.78436 31.471874ZM268.55 27.175L270.6281 27.175L270.6281 28.596874Q271.1906 27.76875 271.84686 27.3625Q272.51874 26.940624 273.28436 26.940624Q274.09686 26.940624 274.6906 27.3625Q275.3 27.76875 275.6906 28.596874Q276.2531 27.76875 276.89374 27.3625Q277.55 26.940624 278.28436 26.940624Q279.15936 26.940624 279.78436 27.3625Q280.40936 27.76875 280.7375 28.55Q281.0656 29.315624 281.0656 30.925L281.0656 37.55L278.8156 37.55L278.8156 31.628124Q278.8156 30.065624 278.53436 29.565624Q278.26874 29.05 277.6125 29.05Q276.8625 29.05 276.40936 29.76875Q275.95624 30.471874 275.95624 32.565624L275.95624 37.55L273.6906 37.55L273.6906 31.8625Q273.6906 30.175 273.5031 29.690624Q273.26874 29.05 272.51874 29.05Q272.01874 29.05 271.59686 29.378124Q271.1906 29.70625 271.0031 30.346874Q270.8156 30.9875 270.8156 32.503124L270.8156 37.55L268.55 37.55L268.55 27.175ZM287.65936 34.253124L289.89374 34.70625Q289.45624 36.26875 288.5031 37.034374Q287.55 37.784374 286.20624 37.784374Q284.3156 37.784374 283.28436 36.51875Q282.08124 35.065624 282.08124 32.425Q282.08124 29.83125 283.3 28.26875Q284.33124 26.940624 285.97186 26.940624Q287.8 26.940624 288.83124 28.284374Q290.03436 29.83125 290.03436 32.846874L290.01874 33.159374L284.3781 33.159374Q284.40936 34.378124 284.9406 35.065624Q285.47186 35.7375 286.22186 35.7375Q287.3 35.7375 287.65936 34.253124ZM287.78436 31.471874Q287.76874 30.26875 287.26874 29.659374Q286.78436 29.05 286.1125 29.05Q285.39374 29.05 284.90936 29.675Q284.40936 30.315624 284.425 31.471874L287.78436 31.471874ZM299.47186 37.55L297.20624 37.55L297.20624 32.253124Q297.20624 30.659374 297.08124 30.14375Q296.95624 29.6125 296.6125 29.33125Q296.26874 29.05 295.83124 29.05Q295.2531 29.05 294.8 29.409374Q294.34686 29.76875 294.15936 30.425Q293.97186 31.065624 293.97186 32.846874L293.97186 37.55L291.70624 37.55L291.70624 27.175L293.8 27.175L293.8 28.70625Q294.3625 27.815624 295.05 27.378124Q295.7531 26.940624 296.6125 26.940624Q297.59686 26.940624 298.26874 27.45625Q298.95624 27.971874 299.20624 28.784374Q299.47186 29.58125 299.47186 31.096874L299.47186 37.55ZM305.6125 27.175L305.6125 29.3625L304.08124 29.3625L304.08124 33.55Q304.08124 34.909374 304.15936 35.1125Q304.28436 35.503124 304.70624 35.503124Q305.01874 35.503124 305.6125 35.2375L305.8 37.378124Q305.01874 37.784374 304.03436 37.784374Q303.175 37.784374 302.65936 37.378124Q302.14374 36.95625 301.97186 36.190624Q301.83124 35.628124 301.83124 33.89375L301.83124 29.3625L300.8 29.3625L300.8 27.175L301.83124 27.175L301.83124 25.1125L304.08124 23.51875L304.08124 27.175L305.6125 27.175ZM305.9406 34.596874L308.1906 34.175Q308.4875 35.8 310.01874 35.8Q310.83124 35.8 311.22186 35.4875Q311.6281 35.175 311.6281 34.675Q311.6281 34.33125 311.45624 34.14375Q311.26874 33.940624 310.72186 33.8Q307.9406 33.065624 307.1906 32.409374Q306.2531 31.565624 306.2531 30.128124Q306.2531 28.675 307.175 27.815624Q308.09686 26.940624 309.83124 26.940624Q311.5031 26.940624 312.3781 27.596874Q313.2531 28.2375 313.59686 29.690624L311.47186 30.159374Q311.1906 28.909374 309.8781 28.909374Q309.05 28.909374 308.6906 29.159374Q308.34686 29.39375 308.34686 29.76875Q308.34686 30.1125 308.65936 30.346874Q308.9875 30.58125 310.675 31.05Q312.55 31.565624 313.22186 32.33125Q313.89374 33.08125 313.89374 34.33125Q313.89374 35.83125 312.8625 36.815624Q311.83124 37.784374 310.01874 37.784374Q308.3625 37.784374 307.3156 36.971874Q306.26874 36.159374 305.9406 34.596874ZM320.7375 25.76875L320.7375 23.2375L322.9875 23.2375L322.9875 25.76875L320.7375 25.76875ZM320.7375 37.55L320.7375 27.175L322.9875 27.175L322.9875 37.55L320.7375 37.55ZM332.47186 37.55L330.20624 37.55L330.20624 32.253124Q330.20624 30.659374 330.08124 30.14375Q329.95624 29.6125 329.6125 29.33125Q329.26874 29.05 328.83124 29.05Q328.2531 29.05 327.8 29.409374Q327.34686 29.76875 327.15936 30.425Q326.97186 31.065624 326.97186 32.846874L326.97186 37.55L324.70624 37.55L324.70624 27.175L326.8 27.175L326.8 28.70625Q327.3625 27.815624 328.05 27.378124Q328.7531 26.940624 329.6125 26.940624Q330.59686 26.940624 331.26874 27.45625Q331.95624 27.971874 332.20624 28.784374Q332.47186 29.58125 332.47186 31.096874L332.47186 37.55ZM339.7375 23.2375L344.4406 23.2375Q346.3625 23.2375 347.14374 23.596874Q347.925 23.940624 348.45624 24.83125Q349.0031 25.70625 349.0031 26.83125Q349.0031 27.878124 348.53436 28.70625Q348.08124 29.534374 347.34686 29.940624Q348.39374 30.315624 348.9875 31.221874Q349.58124 32.1125 349.58124 33.39375Q349.58124 34.95625 348.8156 36.034374Q348.0656 37.1125 347.05 37.378124Q346.33124 37.55 343.7375 37.55L339.7375 37.55L339.7375 23.2375ZM342.1125 25.6125L342.1125 28.925L343.675 28.925Q345.08124 28.925 345.40936 28.878124Q346.01874 28.784374 346.34686 28.378124Q346.6906 27.95625 346.6906 27.2375Q346.6906 26.596874 346.40936 26.20625Q346.14374 25.815624 345.7375 25.721874Q345.34686 25.6125 343.47186 25.6125L342.1125 25.6125ZM342.1125 31.315624L342.1125 35.14375L344.3 35.14375Q345.7531 35.14375 346.15936 34.9875Q346.5656 34.83125 346.84686 34.39375Q347.1281 33.940624 347.1281 33.26875Q347.1281 32.565624 346.83124 32.1125Q346.53436 31.64375 346.03436 31.4875Q345.55 31.315624 344.01874 31.315624L342.1125 31.315624ZM356.65936 34.253124L358.89374 34.70625Q358.45624 36.26875 357.5031 37.034374Q356.55 37.784374 355.20624 37.784374Q353.3156 37.784374 352.28436 36.51875Q351.08124 35.065624 351.08124 32.425Q351.08124 29.83125 352.3 28.26875Q353.33124 26.940624 354.97186 26.940624Q356.8 26.940624 357.83124 28.284374Q359.03436 29.83125 359.03436 32.846874L359.01874 33.159374L353.3781 33.159374Q353.40936 34.378124 353.9406 35.065624Q354.47186 35.7375 355.22186 35.7375Q356.3 35.7375 356.65936 34.253124ZM356.78436 31.471874Q356.76874 30.26875 356.26874 29.659374Q355.78436 29.05 355.1125 29.05Q354.39374 29.05 353.90936 29.675Q353.40936 30.315624 353.425 31.471874L356.78436 31.471874ZM363.0656 37.55L359.64374 27.175L362.0031 27.175L363.59686 32.471874L364.0656 34.2375L364.53436 32.471874L366.15936 27.175L368.47186 27.175L365.08124 37.55L363.0656 37.55ZM368.65936 27.175L371.0656 27.175L373.08124 34.534374L375.08124 27.175L377.39374 27.175L374.39374 37.159374L373.83124 39.096874Q373.4406 40.190624 373.0656 40.690624Q372.6906 41.20625 372.1125 41.471874Q371.53436 41.753124 370.675 41.753124Q370.01874 41.753124 369.39374 41.596874L369.20624 39.440624Q369.7375 39.565624 370.15936 39.565624Q370.8 39.565624 371.20624 39.128124Q371.6281 38.70625 371.89374 37.58125L368.65936 27.175ZM387.05 23.175Q388.76874 23.175 389.8156 24.8Q390.8781 26.425 390.8781 30.4875Q390.8781 34.534374 389.8156 36.175Q388.76874 37.8 387.0656 37.8Q385.34686 37.8 384.28436 36.190624Q383.2375 34.565624 383.2375 30.45625Q383.2375 26.425 384.28436 24.8Q385.34686 23.175 387.05 23.175ZM387.05 25.45625Q386.39374 25.45625 385.9875 26.33125Q385.59686 27.20625 385.59686 30.4875Q385.59686 33.76875 385.9875 34.64375Q386.39374 35.51875 387.05 35.51875Q387.72186 35.51875 388.1125 34.64375Q388.5031 33.753124 388.5031 30.4875Q388.5031 27.20625 388.1125 26.33125Q387.72186 25.45625 387.05 25.45625ZM392.7375 37.55L392.7375 34.8L394.9875 34.8L394.9875 37.55L392.7375 37.55ZM403.0031 37.55L400.7531 37.55L400.7531 27.20625Q399.5031 28.628124 397.84686 29.284374L397.84686 26.8Q398.78436 26.409374 399.78436 25.440624Q400.8 24.45625 401.1906 23.175L403.0031 23.175L403.0031 37.55ZM406.15936 33.753124L408.34686 33.425Q408.425 34.440624 408.89374 34.9875Q409.3625 35.51875 410.0031 35.51875Q410.6906 35.51875 411.175 34.89375Q411.65936 34.253124 411.65936 33.128124Q411.65936 32.08125 411.1906 31.4875Q410.7375 30.89375 410.08124 30.89375Q409.65936 30.89375 409.05 31.096874L409.3 28.8625Q410.175 28.878124 410.675 28.39375Q411.175 27.89375 411.175 27.01875Q411.175 26.26875 410.8156 25.846874Q410.45624 25.425 409.89374 25.425Q409.3156 25.425 408.89374 25.909374Q408.4875 26.39375 408.40936 27.346874L406.33124 26.909374Q406.65936 24.95625 407.59686 24.065624Q408.53436 23.175 409.95624 23.175Q411.55 23.175 412.4875 24.315624Q413.4406 25.45625 413.4406 26.846874Q413.4406 27.784374 413.01874 28.534374Q412.59686 29.284374 411.7375 29.846874Q412.72186 30.1125 413.34686 31.01875Q413.97186 31.909374 413.97186 33.26875Q413.97186 35.221874 412.8 36.51875Q411.6281 37.8 410.01874 37.8Q408.4875 37.8 407.40936 36.721874Q406.34686 35.628124 406.15936 33.753124Z" fill-rule="nonzero"/></svg>