<?xml version="1.0" encoding="UTF-8" standalone="no"?>
<svg
   sodipodi:docname="year.svg"
   inkscape:version="1.1 (c4e8f9ed74, 2021-05-24)"
   id="svg2321"
   version="1.1"
   viewBox="0 0 53.555235 22.498644"
   height="22.498644mm"
   width="53.555233mm"
   xmlns:inkscape="http://www.inkscape.org/namespaces/inkscape"
   xmlns:sodipodi="http://sodipodi.sourceforge.net/DTD/sodipodi-0.dtd"
   xmlns="http://www.w3.org/2000/svg"
   xmlns:svg="http://www.w3.org/2000/svg"
   xmlns:rdf="http://www.w3.org/1999/02/22-rdf-syntax-ns#"
   xmlns:cc="http://creativecommons.org/ns#"
   xmlns:dc="http://purl.org/dc/elements/1.1/">
  <defs
     id="defs2315">
    <clipPath
       id="clipPath16"
       clipPathUnits="userSpaceOnUse">
      <path
         id="path18"
         d="M 0,38 H 38 V 0 H 0 Z" />
    </clipPath>
    <clipPath
       id="clipPath16-0"
       clipPathUnits="userSpaceOnUse">
      <path
         id="path18-6"
         d="M 0,38 H 38 V 0 H 0 Z" />
    </clipPath>
    <clipPath
       id="clipPath16-0-1"
       clipPathUnits="userSpaceOnUse">
      <path
         id="path18-6-5"
         d="M 0,38 H 38 V 0 H 0 Z" />
    </clipPath>
    <clipPath
       id="clipPath16-0-1-4"
       clipPathUnits="userSpaceOnUse">
      <path
         id="path18-6-5-8"
         d="M 0,38 H 38 V 0 H 0 Z" />
    </clipPath>
    <clipPath
       id="clipPath16-0-6"
       clipPathUnits="userSpaceOnUse">
      <path
         id="path18-6-3"
         d="M 0,38 H 38 V 0 H 0 Z" />
    </clipPath>
    <clipPath
       id="clipPath16-0-1-4-0"
       clipPathUnits="userSpaceOnUse">
      <path
         id="path18-6-5-8-3"
         d="M 0,38 H 38 V 0 H 0 Z" />
    </clipPath>
    <clipPath
       id="clipPath16-0-6-0"
       clipPathUnits="userSpaceOnUse">
      <path
         id="path18-6-3-4"
         d="M 0,38 H 38 V 0 H 0 Z" />
    </clipPath>
    <clipPath
       id="clipPath16-4"
       clipPathUnits="userSpaceOnUse">
      <path
         id="path18-4"
         d="M 0,38 H 38 V 0 H 0 Z" />
    </clipPath>
    <clipPath
       id="clipPath16-0-1-4-9"
       clipPathUnits="userSpaceOnUse">
      <path
         id="path18-6-5-8-6"
         d="M 0,38 H 38 V 0 H 0 Z" />
    </clipPath>
    <clipPath
       id="clipPath16-0-6-9"
       clipPathUnits="userSpaceOnUse">
      <path
         id="path18-6-3-3"
         d="M 0,38 H 38 V 0 H 0 Z" />
    </clipPath>
    <clipPath
       id="clipPath16-3"
       clipPathUnits="userSpaceOnUse">
      <path
         id="path18-8"
         d="M 0,38 H 38 V 0 H 0 Z" />
    </clipPath>
    <clipPath
       id="clipPath16-0-6-90"
       clipPathUnits="userSpaceOnUse">
      <path
         id="path18-6-3-6"
         d="M 0,38 H 38 V 0 H 0 Z" />
    </clipPath>
    <clipPath
       id="clipPath16-0-1-4-8"
       clipPathUnits="userSpaceOnUse">
      <path
         id="path18-6-5-8-7"
         d="M 0,38 H 38 V 0 H 0 Z" />
    </clipPath>
    <clipPath
       id="clipPath16-9"
       clipPathUnits="userSpaceOnUse">
      <path
         id="path18-0"
         d="M 0,38 H 38 V 0 H 0 Z" />
    </clipPath>
    <clipPath
       id="clipPath16-08"
       clipPathUnits="userSpaceOnUse">
      <path
         id="path18-1"
         d="M 0,38 H 38 V 0 H 0 Z" />
    </clipPath>
    <clipPath
       id="clipPath16-6"
       clipPathUnits="userSpaceOnUse">
      <path
         id="path18-2"
         d="M 0,38 H 38 V 0 H 0 Z" />
    </clipPath>
    <clipPath
       id="clipPath16-90"
       clipPathUnits="userSpaceOnUse">
      <path
         id="path18-5"
         d="M 0,38 H 38 V 0 H 0 Z" />
    </clipPath>
  </defs>
  <sodipodi:namedview
     fit-margin-bottom="0"
     fit-margin-right="0"
     fit-margin-left="0"
     fit-margin-top="0"
     inkscape:window-maximized="1"
     inkscape:window-y="0"
     inkscape:window-x="0"
     inkscape:window-height="1440"
     inkscape:window-width="3440"
     showgrid="false"
     inkscape:document-rotation="0"
     inkscape:current-layer="layer1"
     inkscape:document-units="mm"
     inkscape:cy="31.160714"
     inkscape:cx="11.785714"
     inkscape:zoom="5.6"
     inkscape:pageshadow="2"
     inkscape:pageopacity="0.0"
     borderopacity="1.0"
     bordercolor="#666666"
     pagecolor="#ffffff"
     id="base"
     inkscape:pagecheckerboard="0" />
  <metadata
     id="metadata2318">
    <rdf:RDF>
      <cc:Work
         rdf:about="">
        <dc:format>image/svg+xml</dc:format>
        <dc:type
           rdf:resource="http://purl.org/dc/dcmitype/StillImage" />
      </cc:Work>
    </rdf:RDF>
  </metadata>
  <g
     transform="translate(-33.379559,-137.44559)"
     id="layer1"
     inkscape:groupmode="layer"
     inkscape:label="Layer 1">
    <g
       id="g4498"
       transform="translate(0,-0.54583433)">
      <g
         id="g1911-8-3-9-3-2-8"
         transform="matrix(0.6143169,0,0,0.6143169,-305.31887,-108.88866)"
         inkscape:export-filename="/home/carter/code/bevy/assets/bevy_logo_dark.png"
         inkscape:export-xdpi="81.422768"
         inkscape:export-ydpi="81.422768"
         style="opacity:1;fill:#787878;fill-opacity:1;stroke-width:0.755906;stroke-miterlimit:4;stroke-dasharray:none">
        <g
           transform="matrix(-0.40426719,-0.17438247,-0.17438247,0.40426719,678.77611,389.84765)"
           style="fill:#787878;fill-opacity:1"
           id="g1121-3-8-8-2-8-7-1-2-8-3-9-6-0-1"
           inkscape:export-filename="/home/carter/code/bevy/assets/temp_bevy_logo.png"
           inkscape:export-xdpi="81.422768"
           inkscape:export-ydpi="81.422768">
          <path
             inkscape:connector-curvature="0"
             id="path819-1-94-5-3-1-9-6-4-90-0-8-9-5-8-6-1-6-2"
             style="fill:#787878;fill-opacity:1;stroke:none;stroke-width:0.559814px;stroke-linecap:butt;stroke-linejoin:miter;stroke-opacity:1"
             d="m 2246.0312,2340.1914 v 0 c -0.016,3e-4 -0.031,0 -0.047,0 -0.9804,3.0675 -1.7386,6.3997 -1.8828,10.1953 -0.2712,7.1263 0.453,11.4639 -0.3672,16.0801 -0.8202,4.6163 -3.2453,9.161 -9.4141,16.2871 -7.3424,8.482 -18.9789,15.0453 -32.4199,17.2637 -2.5015,1.5971 -5.1421,3.0609 -7.9199,4.3633 10.4618,3.9385 21.4025,4.1531 30.0761,1.3066 15.2793,-5.0141 14.0962,-8.6155 20.9434,-19.1074 2.1569,-3.3051 4.6474,-5.8282 7.1484,-7.9004 7.1248,3.1068 14.1431,5.1015 18.5157,4.6074 2.351,-5.4505 -0.057,-11.7712 -4.0586,-17.7461 3.2821,-10.196 -1.6986,-20.4059 -12.7305,-24.0156 -2.8775,-0.9415 -5.4633,-1.3844 -7.8438,-1.3379 z m 8.2754,14.9707 a 4.1668789,4.2454995 48.679502 0 1 3.1973,1.3965 4.1668789,4.2454995 48.679502 0 1 -0.4375,5.9336 4.1668789,4.2454995 48.679502 0 1 -5.9394,-0.3262 4.1668789,4.2454995 48.679502 0 1 0.4375,-5.9336 4.1668789,4.2454995 48.679502 0 1 2.7421,-1.0703 z m -68.375,45.3789 c 0.1273,0.075 0.2572,0.1408 0.3848,0.2149 0.131,-0.049 0.2642,-0.1009 0.3945,-0.1504 -0.2598,-0.023 -0.5188,-0.039 -0.7793,-0.064 z"
             transform="matrix(-0.55180403,-0.23802315,-0.23802315,0.55180403,1946.7322,-620.612)" />
        </g>
      </g>
      <g
         id="g1051-1-2-0-8-6-0-8-1-5-6-9-6-8-9"
         transform="matrix(-0.27889756,0.22539106,0.22539106,0.27889756,58.043016,68.543255)"
         style="opacity:1;fill:#ececec;fill-opacity:1;stroke:none;stroke-width:0.755906;stroke-miterlimit:4;stroke-dasharray:none;stroke-opacity:1"
         inkscape:export-filename="/home/carter/code/bevy/assets/bevy_logo_dark.png"
         inkscape:export-xdpi="81.422768"
         inkscape:export-ydpi="81.422768">
        <g
           id="g3029-3-9-3"
           transform="matrix(-0.35254083,0.28490586,0.28490586,0.35254083,477.11004,-1021.7666)"
           style="opacity:1;fill:#ececec;fill-opacity:1">
          <path
             inkscape:connector-curvature="0"
             id="path3031-2-2-9"
             style="color:#000000;font-style:normal;font-variant:normal;font-weight:normal;font-stretch:normal;font-size:medium;line-height:normal;font-family:sans-serif;font-variant-ligatures:normal;font-variant-position:normal;font-variant-caps:normal;font-variant-numeric:normal;font-variant-alternates:normal;font-variant-east-asian:normal;font-feature-settings:normal;font-variation-settings:normal;text-indent:0;text-align:start;text-decoration:none;text-decoration-line:none;text-decoration-style:solid;text-decoration-color:#000000;letter-spacing:normal;word-spacing:normal;text-transform:none;writing-mode:lr-tb;direction:ltr;text-orientation:mixed;dominant-baseline:auto;baseline-shift:baseline;text-anchor:start;white-space:normal;shape-padding:0;shape-margin:0;inline-size:0;clip-rule:nonzero;display:inline;overflow:visible;visibility:visible;isolation:auto;mix-blend-mode:normal;color-interpolation:sRGB;color-interpolation-filters:linearRGB;solid-color:#000000;solid-opacity:1;vector-effect:none;fill:#ececec;fill-opacity:1;fill-rule:nonzero;stroke:none;stroke-width:3.02362;stroke-linecap:butt;stroke-linejoin:miter;stroke-miterlimit:4;stroke-dasharray:none;stroke-dashoffset:0;stroke-opacity:1;color-rendering:auto;image-rendering:auto;shape-rendering:auto;text-rendering:auto;enable-background:accumulate;stop-color:#000000;stop-opacity:1"
             d="m 2191.1465,2276.7832 c -5.9729,-0.035 -12.0979,2.348 -17.3613,7.459 -6.9129,6.7127 -9.0602,12.7555 -7.8477,20.2949 l 0.332,2.0684 -2.0664,-0.336 c -15.1877,-2.4609 -33.9847,-1.2178 -55.3711,7.4336 6.2868,2.6948 17.8259,7.1926 30.6309,13.3418 l 4.0605,1.9512 -4.414,0.8945 c -16.9087,3.4274 -36.9729,13.3275 -55.2989,34.9336 8.1981,-0.6372 24.9531,-2.6089 42.4278,-2.582 9.7138,0.015 19.2869,0.687 27.0859,2.709 7.7991,2.022 14.0258,5.4353 16.3672,11.2851 l 0.1602,0.4004 -0.076,0.4238 c -0.3844,2.1831 -0.7613,4.1493 -1.1172,5.7598 -0.8163,3.6943 -4.0098,6.6817 -8.1953,9.3418 -4.1855,2.6601 -9.4961,4.9849 -15.0137,6.9609 -11.0352,3.9521 -22.7798,6.4773 -27.9648,6.959 -1.1021,0.1024 -1.5421,0.4983 -1.9668,1.2696 -0.4247,0.7712 -0.659,1.9824 -0.6934,3.25 -0.046,1.6926 0.181,3.1045 0.3672,4.0625 33.7495,2.7665 58.8475,-5.6513 76.959,-12.8379 20.3508,-9.3311 33.2134,-27.7577 36.0058,-44.3477 1.7499,-10.395 1.3746,-15.4894 -0.3124,-19.8281 -1.6873,-4.3387 -4.9223,-8.1914 -9.0254,-15.5488 -2.6368,-4.7281 -4.1077,-9.367 -5.0196,-13.6875 l -0.1933,-0.9102 0.7265,-0.582 c 7.5403,-6.0446 13.6809,-12.6444 15.9102,-17.4492 -4.5742,-4.8648 -12.4787,-5.893 -21.3223,-4.9473 l -0.7265,0.076 -0.5118,-0.5215 c -4.7125,-4.8006 -10.5615,-7.2614 -16.5351,-7.2969 z m 2.6484,11.2324 a 5.628704,5.5244684 76.402924 0 1 5.502,4.3223 5.628704,5.5244684 76.402924 0 1 -4.0469,6.7695 5.628704,5.5244684 76.402924 0 1 -6.6934,-4.1719 5.628704,5.5244684 76.402924 0 1 4.0469,-6.7695 5.628704,5.5244684 76.402924 0 1 1.1914,-0.1504 z"
             transform="translate(5.0092774e-5,-757.87625)" />
        </g>
      </g>
      <g
         style="opacity:1;fill:#b2b2b2;fill-opacity:1;stroke-width:0.755906;stroke-miterlimit:4;stroke-dasharray:none"
         id="g1051-1-1-8-8-4-9-4-0-4-6-4-7-6-6-0"
         transform="matrix(-0.31028762,0.04149642,0.04149642,0.31028762,109.17132,95.835303)"
         inkscape:export-filename="/home/carter/code/bevy/assets/bevy_logo_dark.png"
         inkscape:export-xdpi="81.422768"
         inkscape:export-ydpi="81.422768">
        <g
           style="fill:#b2b2b2;fill-opacity:1"
           id="g1129-5-9-8-0-7-2-7-3-8-61-1-6-8"
           transform="translate(-20.244579,-6.1209206)">
          <g
             style="fill:#b2b2b2;fill-opacity:1"
             id="g1344-1-3-9-3-8-8-8-3-5-4-8"
             transform="translate(61.54776,-5.6726683)">
            <g
               id="g1121-7-7-2-3-3-7-4-5-8-2-5-9-5"
               style="fill:#b2b2b2;fill-opacity:1">
              <g
                 id="g3006-4-5-0"
                 transform="matrix(-0.514626,0.06882369,0.06882369,0.514626,1184.3644,-811.9091)"
                 style="opacity:1;fill:#b2b2b2;fill-opacity:1">
                <path
                   inkscape:connector-curvature="0"
                   id="path3008-7-0-9"
                   style="color:#000000;font-style:normal;font-variant:normal;font-weight:normal;font-stretch:normal;font-size:medium;line-height:normal;font-family:sans-serif;font-variant-ligatures:normal;font-variant-position:normal;font-variant-caps:normal;font-variant-numeric:normal;font-variant-alternates:normal;font-variant-east-asian:normal;font-feature-settings:normal;font-variation-settings:normal;text-indent:0;text-align:start;text-decoration:none;text-decoration-line:none;text-decoration-style:solid;text-decoration-color:#000000;letter-spacing:normal;word-spacing:normal;text-transform:none;writing-mode:lr-tb;direction:ltr;text-orientation:mixed;dominant-baseline:auto;baseline-shift:baseline;text-anchor:start;white-space:normal;shape-padding:0;shape-margin:0;inline-size:0;clip-rule:nonzero;display:inline;overflow:visible;visibility:visible;isolation:auto;mix-blend-mode:normal;color-interpolation:sRGB;color-interpolation-filters:linearRGB;solid-color:#000000;solid-opacity:1;vector-effect:none;fill:#b2b2b2;fill-opacity:1;fill-rule:nonzero;stroke:none;stroke-width:3.02362;stroke-linecap:butt;stroke-linejoin:miter;stroke-miterlimit:4;stroke-dasharray:none;stroke-dashoffset:0;stroke-opacity:1;color-rendering:auto;image-rendering:auto;shape-rendering:auto;text-rendering:auto;enable-background:accumulate;stop-color:#000000;stop-opacity:1"
                   d="m 2230.8945,2301.1738 c -1.9108,-0.039 -3.9117,0.162 -5.9785,0.6328 -0.1394,0.032 -0.2613,0.071 -0.3984,0.1036 -2.274,2.2481 -4.8127,4.5047 -7.5293,6.7168 0.8746,3.8597 2.1735,7.8829 4.4707,12.0019 3.9872,7.1495 7.2742,10.9657 9.2031,15.9258 1.9289,4.9601 2.2639,10.7945 0.4746,21.4238 -2.2183,13.178 -10.2404,27.1324 -22.959,37.4336 9.8717,-2.8792 18.2866,-8.1915 23.8575,-14.6269 6.0132,-6.9464 8.0191,-10.8762 8.7226,-14.836 0.7036,-3.9598 0.044,-8.2997 0.3242,-15.664 0.1805,-4.7447 1.1911,-8.8958 2.4766,-12.545 l 0.3086,-0.875 0.9219,-0.1211 c 8.2284,-1.0673 15.6654,-3.167 19.5097,-5.6484 -1.2349,-5.5522 -6.4807,-9.8603 -13.4277,-13.1348 l -0.6621,-0.3125 -0.166,-0.7129 c -2.2034,-9.4614 -9.5905,-15.5632 -19.1485,-15.7617 z m 4.7832,11.6856 a 4.8229105,4.9139092 17.729059 0 1 1.4473,0.2246 4.8229105,4.9139092 17.729059 0 1 3.0977,6.1484 4.8229105,4.9139092 17.729059 0 1 -6.0899,3.2129 4.8229105,4.9139092 17.729059 0 1 -3.0976,-6.1484 4.8229105,4.9139092 17.729059 0 1 4.6425,-3.4375 z"
                   transform="translate(1.2499985e-4,-757.87627)" />
              </g>
            </g>
          </g>
        </g>
      </g>
    </g>
    <g
       transform="matrix(0.57199227,0,0,-0.57199227,65.771079,159.56277)"
       id="g10">
      <g
         id="g12">
        <g
           clip-path="url(#clipPath16-90)"
           id="g14">
          <g
             transform="translate(37,5)"
             id="g20">
            <path
               id="path22"
               style="fill:#e1e8ed;fill-opacity:1;fill-rule:nonzero;stroke:none"
               d="m 0,0 c 0,-2.209 -1.791,-4 -4,-4 h -28 c -2.209,0 -4,1.791 -4,4 v 23 c 0,2.209 1.791,4 4,4 h 28 c 2.209,0 4,-1.791 4,-4 z" />
          </g>
          <g
             transform="translate(35,37)"
             id="g24">
            <path
               id="path26"
               style="fill:#dd2e44;fill-opacity:1;fill-rule:nonzero;stroke:none"
               d="M 0,0 H -3.277 C -3.105,-0.295 -3,-0.634 -3,-1 c 0,-1.104 -0.896,-2 -2,-2 -1.104,0 -2,0.896 -2,2 0,0.366 0.105,0.705 0.277,1 h -18.554 c 0.172,-0.295 0.277,-0.634 0.277,-1 0,-1.104 -0.896,-2 -2,-2 -1.104,0 -2,0.896 -2,2 0,0.366 0.105,0.705 0.277,1 H -32 c -1.104,0 -2,-0.896 -2,-2 V -13 H 2 V -2 C 2,-0.896 1.104,0 0,0" />
          </g>
          <g
             transform="translate(13,18)"
             id="g28">
            <path
               id="path30"
               style="fill:#66757f;fill-opacity:1;fill-rule:nonzero;stroke:none"
               d="m 0,0 h -1.695 c -1.086,0 -1.538,0.731 -1.538,1.5 0,0.792 0.566,1.5 1.538,1.5 h 3.21 C 2.487,3 3.03,2.299 3.03,1.395 V -11.47 c 0,-1.13 -0.558,-1.762 -1.53,-1.762 -0.972,0 -1.5,0.632 -1.5,1.762 z" />
          </g>
          <g
             transform="translate(6.4902,27.999)"
             id="g32">
            <path
               id="path34"
               style="fill:#f5f8fa;fill-opacity:1;fill-rule:nonzero;stroke:none"
               d="m 0,0 c 0,-1.679 -1.069,-2.119 -1.979,-2.119 -0.689,0 -1.839,0.27 -1.839,1.14 0,0.269 0.23,0.609 0.56,0.609 0.4,0 0.75,-0.37 1.199,-0.37 0.56,0 0.56,0.52 0.56,0.84 v 4.297 c 0,0.5 0.32,0.78 0.749,0.78 0.431,0 0.75,-0.28 0.75,-0.78 z" />
          </g>
          <g
             transform="translate(7.272,32.3965)"
             id="g36">
            <path
               id="path38"
               style="fill:#f5f8fa;fill-opacity:1;fill-rule:nonzero;stroke:none"
               d="M 0,0 C 0,0.5 0.32,0.78 0.75,0.78 1.18,0.78 1.5,0.5 1.5,0 v -3.488 c 0,-0.92 0.589,-1.649 1.539,-1.649 0.909,0 1.529,0.769 1.529,1.649 V 0 c 0,0.5 0.319,0.78 0.749,0.78 0.43,0 0.75,-0.28 0.75,-0.78 v -3.568 c 0,-1.679 -1.38,-2.949 -3.028,-2.949 C 1.37,-6.517 0,-5.267 0,-3.568 Z" />
          </g>
          <g
             transform="translate(14.1821,32.3965)"
             id="g40">
            <path
               id="path42"
               style="fill:#f5f8fa;fill-opacity:1;fill-rule:nonzero;stroke:none"
               d="M 0,0 C 0,0.5 0.32,0.78 0.75,0.78 1.179,0.78 1.499,0.5 1.499,0 v -5.017 h 1.779 c 0.51,0 0.73,-0.38 0.72,-0.72 -0.02,-0.33 -0.28,-0.659 -0.72,-0.659 H 0.78 C 0.29,-6.396 0,-6.077 0,-5.577 Z" />
          </g>
          <g
             transform="translate(33,27)"
             id="g44">
            <path
               id="path46"
               style="fill:#f4abba;fill-opacity:1;fill-rule:nonzero;stroke:none"
               d="M 0,0 C 0,-0.552 0.447,-1 1,-1 1.553,-1 2,-0.552 2,0 2,0.552 1.553,1 1,1 0.447,1 0,0.552 0,0" />
          </g>
          <g
             transform="translate(33,30)"
             id="g48">
            <path
               id="path50"
               style="fill:#f4abba;fill-opacity:1;fill-rule:nonzero;stroke:none"
               d="M 0,0 C 0,-0.552 0.447,-1 1,-1 1.553,-1 2,-0.552 2,0 2,0.552 1.553,1 1,1 0.447,1 0,0.552 0,0" />
          </g>
          <g
             transform="translate(30,27)"
             id="g52">
            <path
               id="path54"
               style="fill:#f4abba;fill-opacity:1;fill-rule:nonzero;stroke:none"
               d="M 0,0 C 0,-0.552 0.447,-1 1,-1 1.553,-1 2,-0.552 2,0 2,0.552 1.553,1 1,1 0.447,1 0,0.552 0,0" />
          </g>
          <g
             transform="translate(30,30)"
             id="g56">
            <path
               id="path58"
               style="fill:#f4abba;fill-opacity:1;fill-rule:nonzero;stroke:none"
               d="M 0,0 C 0,-0.552 0.447,-1 1,-1 1.553,-1 2,-0.552 2,0 2,0.552 1.553,1 1,1 0.447,1 0,0.552 0,0" />
          </g>
          <g
             transform="translate(27,27)"
             id="g60">
            <path
               id="path62"
               style="fill:#f4abba;fill-opacity:1;fill-rule:nonzero;stroke:none"
               d="M 0,0 C 0,-0.552 0.447,-1 1,-1 1.553,-1 2,-0.552 2,0 2,0.552 1.553,1 1,1 0.447,1 0,0.552 0,0" />
          </g>
          <g
             transform="translate(27,30)"
             id="g64">
            <path
               id="path66"
               style="fill:#f4abba;fill-opacity:1;fill-rule:nonzero;stroke:none"
               d="M 0,0 C 0,-0.552 0.447,-1 1,-1 1.553,-1 2,-0.552 2,0 2,0.552 1.553,1 1,1 0.447,1 0,0.552 0,0" />
          </g>
          <g
             transform="translate(24,30)"
             id="g68">
            <path
               id="path70"
               style="fill:#f4abba;fill-opacity:1;fill-rule:nonzero;stroke:none"
               d="M 0,0 C 0,-0.552 0.447,-1 1,-1 1.553,-1 2,-0.552 2,0 2,0.552 1.553,1 1,1 0.447,1 0,0.552 0,0" />
          </g>
          <g
             transform="translate(24,27)"
             id="g72">
            <path
               id="path74"
               style="fill:#f4abba;fill-opacity:1;fill-rule:nonzero;stroke:none"
               d="M 0,0 C 0,-0.552 0.447,-1 1,-1 1.553,-1 2,-0.552 2,0 2,0.552 1.553,1 1,1 0.447,1 0,0.552 0,0" />
          </g>
          <g
             transform="translate(22.5781,15.4971)"
             id="g76">
            <path
               id="path78"
               style="fill:#66757f;fill-opacity:1;fill-rule:nonzero;stroke:none"
               d="m 0,0 c 0.541,0.112 1.128,0.226 1.691,0.226 2.729,0 4.668,-2.165 4.668,-4.804 0,-3.767 -2.074,-6.247 -5.975,-6.247 -1.602,0 -4.962,1.037 -4.962,3.021 0,0.835 0.699,1.534 1.533,1.534 0.902,0 1.985,-1.443 3.496,-1.443 1.578,0 2.391,1.533 2.391,2.954 0,1.354 -0.767,2.279 -2.165,2.279 -1.309,0 -1.511,-0.746 -2.661,-0.746 -0.88,0 -1.331,0.677 -1.331,1.061 0,0.293 0.044,0.519 0.068,0.767 l 0.563,4.758 c 0.248,1.759 0.677,2.143 1.759,2.143 h 5.436 c 1.037,0 1.646,-0.609 1.646,-1.421 0,-1.557 -1.173,-1.579 -1.579,-1.579 h -4.24 z" />
          </g>
        </g>
      </g>
    </g>
  </g>
</svg>
