<?xml version="1.0" encoding="UTF-8" standalone="no"?>
<svg
   id="Logo"
   width="391.56107"
   height="319.11362"
   viewBox="0 0 391.56107 319.11362"
   version="1.1"
   sodipodi:docname="webgpu.svg"
   inkscape:version="1.2.2 (b0a8486541, 2022-12-01)"
   xmlns:inkscape="http://www.inkscape.org/namespaces/inkscape"
   xmlns:sodipodi="http://sodipodi.sourceforge.net/DTD/sodipodi-0.dtd"
   xmlns="http://www.w3.org/2000/svg"
   xmlns:svg="http://www.w3.org/2000/svg">
  <sodipodi:namedview
     id="namedview13"
     pagecolor="#ffffff"
     bordercolor="#666666"
     borderopacity="1.0"
     inkscape:showpageshadow="2"
     inkscape:pageopacity="0.0"
     inkscape:pagecheckerboard="0"
     inkscape:deskcolor="#d1d1d1"
     showgrid="false"
     inkscape:zoom="1.3710938"
     inkscape:cx="215.88604"
     inkscape:cy="297.20798"
     inkscape:window-width="3440"
     inkscape:window-height="1440"
     inkscape:window-x="0"
     inkscape:window-y="0"
     inkscape:window-maximized="1"
     inkscape:current-layer="Logo" />
  <defs
     id="defs4">
    <style
       id="style2">
     .cls-1, .cls-2, .cls-3, .cls-4, .cls-5 {
        fill-rule: evenodd;
        stroke-linejoin: round;
      }

      .cls-6 {
        fill-rule: evenodd;
      }

      .cls-1 {
        fill: #005a9c;
        stroke: #005a9c;
      }

      .cls-2 {
        fill: #0066b0;
        stroke: #0066b0;
      }

      .cls-3 {
        fill: #0076cc;
        stroke: #0076cc;
      }

      .cls-4 {
        fill: #0086e8;
        stroke: #0086e8;
      }

      .cls-5 {
        fill: #0093ff;
        stroke: #0093ff;
      }

      @media (prefers-color-scheme: dark) {
        .cls-6 {
          fill: #eeeeee;
        }
      }
    </style>
  </defs>
  <path
     id="Triangle_4"
     data-name="Triangle 4"
     class="cls-4"
     d="M 331.67284,115.07433 298.53308,57.67482 h 66.37422 z"
     style="stroke-width:0.550595" />
  <path
     id="Triangle_5"
     data-name="Triangle 5"
     class="cls-5"
     d="M 331.67284,0.27584849 298.53308,57.67537 h 66.37422 z"
     style="stroke-width:0.550595" />
  <path
     id="Triangle_3"
     data-name="Triangle 3"
     class="cls-3"
     d="m 265.39773,229.87337 -66.28061,-114.79904 132.56122,-0.001 z"
     style="stroke-width:0.550595" />
  <path
     id="Triangle_2"
     data-name="Triangle 2"
     class="cls-2"
     d="M 265.39773,0.27529749 199.11712,115.07433 l 132.56122,-0.001 z"
     style="stroke-width:0.550595" />
  <path
     id="Triangle_1"
     data-name="Triangle 1"
     class="cls-1"
     d="M 132.8365,229.87337 0.27527735,0.27529749 H 265.39222 Z"
     style="stroke-width:0.550595" />
  <path
     id="WebGPU"
     class="cls-6"
     d="M 79.498723,253.80718 65.348436,308.28469 50.550097,253.80718 H 41.114552 L 25.576214,308.46969 11.517324,253.80718 H 2.5459303 l 18.0358367,64.5589 9.341394,-0.0925 15.538338,-51.88751 14.98389,51.88751 h 9.433893 l 18.683341,-64.4664 z m 64.558357,37.18223 a 25.531636,25.531636 0 0 0 -3.0057,-12.44015 21.788141,21.788141 0 0 0 -8.5557,-8.64764 25.444642,25.444642 0 0 0 -12.76334,-3.14445 26.29421,26.29421 0 0 0 -13.08764,3.19345 22.075001,22.075001 0 0 0 -8.833187,9.1107 q -3.145,5.91999 -3.14445,13.78084 5.5e-4,7.86084 3.23695,13.82764 a 22.904748,22.904748 0 0 0 8.925687,9.20264 25.605966,25.605966 0 0 0 12.90264,3.2375 q 9.06335,0 15.16834,-4.5782 a 21.793097,21.793097 0 0 0 8.13945,-11.88514 h -9.06445 a 13.467001,13.467001 0 0 1 -5.13319,6.7982 q -3.6543,2.54429 -9.11015,2.54319 a 16.321285,16.321285 0 0 1 -11.33069,-4.20819 q -4.67125,-4.2082 -5.1332,-11.70015 h 40.51168 a 49.66366,49.66366 0 0 0 0.27529,-5.08694 v 0 z m -8.6939,-1.7575 h -32.00223 q 0.6464,-7.2128 5.1332,-11.2839 a 15.600556,15.600556 0 0 1 10.86819,-4.06944 18.030331,18.030331 0 0 1 8.09375,1.8032 13.842506,13.842506 0 0 1 5.78125,5.27194 15.532833,15.532833 0 0 1 2.12749,8.2782 v 0 z m 28.20918,-12.2089 v -27.19278 h -8.41639 v 68.44335 h 8.41639 v -9.34139 a 19.491059,19.491059 0 0 0 7.4457,7.3064 22.543558,22.543558 0 0 0 11.51514,2.86749 23.057813,23.057813 0 0 0 20.90333,-12.67139 29.098941,29.098941 0 0 0 3.14445,-13.68889 q 0,-7.76944 -3.14445,-13.64209 a 22.935581,22.935581 0 0 0 -8.60304,-9.11069 23.655209,23.655209 0 0 0 -12.30139,-3.23695 22.447204,22.447204 0 0 0 -11.3764,2.86695 19.905657,19.905657 0 0 0 -7.58444,7.39944 v 0 z m 34.40723,15.72334 a 21.094392,21.094392 0 0 1 -2.3125,10.1282 16.263472,16.263472 0 0 1 -6.2432,6.56694 17.002921,17.002921 0 0 1 -8.64819,2.2657 16.822877,16.822877 0 0 1 -8.55514,-2.2657 16.562445,16.562445 0 0 1 -6.28945,-6.56694 22.330477,22.330477 0 0 1 0,-19.97834 16.572907,16.572907 0 0 1 6.28945,-6.56694 16.833889,16.833889 0 0 1 8.55514,-2.2657 17.284275,17.284275 0 0 1 8.64819,2.21945 16.022312,16.022312 0 0 1 6.2432,6.47444 20.619228,20.619228 0 0 1 2.3125,9.98889 z m 78.61724,-20.25693 a 29.111604,29.111604 0 0 0 -11.51514,-14.33639 q -7.9082,-5.0853 -18.17404,-5.08695 a 32.540159,32.540159 0 0 0 -16.37139,4.2082 30.814594,30.814594 0 0 0 -11.70014,11.74639 35.54916,35.54916 0 0 0 0,33.89847 30.892228,30.892228 0 0 0 11.70014,11.70015 32.52254,32.52254 0 0 0 16.37139,4.20819 31.359683,31.359683 0 0 0 15.44584,-3.83819 30.854788,30.854788 0 0 0 11.19139,-10.45195 32.014891,32.014891 0 0 0 4.99445,-14.56709 v -6.47334 H 243.8546 v 6.84444 h 25.71279 q -1.01916,9.62275 -7.12085,15.26084 -6.10169,5.6381 -15.53834,5.64195 a 24.02631,24.02631 0 0 1 -12.16319,-3.0982 21.950567,21.950567 0 0 1 -8.50889,-8.83319 q -3.0993,-5.73335 -3.0982,-13.31834 0.001,-7.585 3.0982,-13.36514 a 21.899912,21.899912 0 0 1 8.50889,-8.87945 24.037322,24.037322 0 0 1 12.16319,-3.09819 22.309555,22.309555 0 0 1 11.83779,3.09819 20.063128,20.063128 0 0 1 7.7689,8.7396 z m 56.14251,0.185 q 0,-8.32445 -5.68819,-13.59639 -5.6882,-5.27195 -16.60209,-5.27195 h -20.81249 v 64.4675 h 8.41694 v -26.91473 h 12.3939 q 11.28334,0 16.78708,-5.31819 5.50375,-5.3182 5.50595,-13.36514 v 0 z m -22.29028,11.74639 h -12.39389 v -23.67558 h 12.39389 q 13.68669,0 13.68834,11.93139 0,5.6425 -3.32945,8.69389 -3.32945,3.0514 -10.35889,3.0525 v 0 z m 32.55612,-30.61308 v 40.69612 q 0,8.04695 3.19345,13.55014 a 20.032294,20.032294 0 0 0 8.6939,8.18515 29.759654,29.759654 0 0 0 24.69528,0 20.32411,20.32411 0 0 0 8.74069,-8.18515 q 3.23255,-5.50209 3.23255,-13.55069 v -40.69612 h -8.41475 v 40.78862 q 0,8.60195 -4.20874,12.76389 -4.20875,4.16195 -11.60764,4.16195 -7.4914,0 -11.70015,-4.16195 -4.20874,-4.16194 -4.20709,-12.76389 v -40.78862 h -8.41805 z"
     style="stroke-width:0.550595" />
</svg>
