<?xml version="1.0" encoding="UTF-8" standalone="no"?>
<svg
   xmlns:dc="http://purl.org/dc/elements/1.1/"
   xmlns:cc="http://creativecommons.org/ns#"
   xmlns:rdf="http://www.w3.org/1999/02/22-rdf-syntax-ns#"
   xmlns:svg="http://www.w3.org/2000/svg"
   xmlns="http://www.w3.org/2000/svg"
   xmlns:sodipodi="http://sodipodi.sourceforge.net/DTD/sodipodi-0.dtd"
   xmlns:inkscape="http://www.inkscape.org/namespaces/inkscape"
   width="76mm"
   height="51mm"
   viewBox="0 0 7600 5100"
   version="1.1"
   stroke-width="28.222"
   stroke-linejoin="round"
   xml:space="preserve"
   id="svg126"
   sodipodi:docname="ecs_simple_insert.svg"
   inkscape:version="1.0 (4035a4fb49, 2020-05-01)"><metadata
   id="metadata132"><rdf:RDF><cc:Work
       rdf:about=""><dc:format>image/svg+xml</dc:format><dc:type
         rdf:resource="http://purl.org/dc/dcmitype/StillImage" /><dc:title></dc:title></cc:Work></rdf:RDF></metadata><defs
   id="defs130" /><sodipodi:namedview
   inkscape:document-rotation="0"
   pagecolor="#ffffff"
   bordercolor="#666666"
   borderopacity="1"
   objecttolerance="10"
   gridtolerance="10"
   guidetolerance="10"
   inkscape:pageopacity="0"
   inkscape:pageshadow="2"
   inkscape:window-width="1720"
   inkscape:window-height="1403"
   id="namedview128"
   showgrid="false"
   inkscape:zoom="3.4512936"
   inkscape:cx="24.745111"
   inkscape:cy="109.91373"
   inkscape:window-x="1720"
   inkscape:window-y="0"
   inkscape:window-maximized="0"
   inkscape:current-layer="svg126" />
 
 <path
   fill="rgb(74,150,220)"
   stroke="none"
   d="M 5026,4331 L 6654,4331 6654,676 5026,676 5026,4331 Z"
   id="path50"
   style="fill:#474747;fill-opacity:1" /><path
   fill="rgb(74,150,220)"
   stroke="none"
   d="M 1772,4331 L 3400,4331 3400,1821 1772,1821 1772,4331 Z"
   id="path52" />
 <path
   fill="none"
   stroke="rgb(179,179,179)"
   stroke-linejoin="round"
   d="M 959,4481 L 959,4331"
   id="path6"
   style="stroke:#ececec;stroke-opacity:1" />
 <path
   fill="none"
   stroke="rgb(179,179,179)"
   stroke-linejoin="round"
   d="M 959,4481 L 959,4331"
   id="path8"
   style="stroke:#ececec;stroke-opacity:1" />
 <path
   fill="none"
   stroke="rgb(179,179,179)"
   stroke-linejoin="round"
   d="M 4213,4481 L 4213,4331"
   id="path10"
   style="stroke:#ececec;stroke-opacity:1" />
 <path
   fill="none"
   stroke="rgb(179,179,179)"
   stroke-linejoin="round"
   d="M 4213,4481 L 4213,4331"
   id="path12"
   style="stroke:#ececec;stroke-opacity:1" />
 <path
   fill="none"
   stroke="rgb(179,179,179)"
   stroke-linejoin="round"
   d="M 7468,4481 L 7468,4331"
   id="path14"
   style="stroke:#ececec;stroke-opacity:1" />
 <path
   fill="none"
   stroke="rgb(179,179,179)"
   stroke-linejoin="round"
   d="M 7468,4481 L 7468,4331"
   id="path16"
   style="stroke:#ececec;stroke-opacity:1" />
 <path
   fill="none"
   stroke="rgb(179,179,179)"
   stroke-linejoin="round"
   d="M 959,4331 L 7468,4331"
   id="path18"
   style="stroke:#ececec;stroke-opacity:1" />
 <path
   fill="none"
   stroke="rgb(179,179,179)"
   stroke-linejoin="round"
   d="M 809,4331 L 959,4331"
   id="path20"
   style="stroke:#ececec;stroke-opacity:1" />
 <path
   fill="none"
   stroke="rgb(179,179,179)"
   stroke-linejoin="round"
   d="M 809,4331 L 959,4331"
   id="path22"
   style="stroke:#ececec;stroke-opacity:1" />
 <path
   fill="none"
   stroke="rgb(179,179,179)"
   stroke-linejoin="round"
   d="M 809,3659 L 959,3659"
   id="path24"
   style="stroke:#ececec;stroke-opacity:1" />
 <path
   fill="none"
   stroke="rgb(179,179,179)"
   stroke-linejoin="round"
   d="M 809,3659 L 959,3659"
   id="path26"
   style="stroke:#ececec;stroke-opacity:1" />
 <path
   fill="none"
   stroke="rgb(179,179,179)"
   stroke-linejoin="round"
   d="M 809,2987 L 959,2987"
   id="path28"
   style="stroke:#ececec;stroke-opacity:1" />
 <path
   fill="none"
   stroke="rgb(179,179,179)"
   stroke-linejoin="round"
   d="M 809,2987 L 959,2987"
   id="path30"
   style="stroke:#ececec;stroke-opacity:1" />
 <path
   fill="none"
   stroke="rgb(179,179,179)"
   stroke-linejoin="round"
   d="M 809,2316 L 959,2316"
   id="path32"
   style="stroke:#ececec;stroke-opacity:1" />
 <path
   fill="none"
   stroke="rgb(179,179,179)"
   stroke-linejoin="round"
   d="M 809,2316 L 959,2316"
   id="path34"
   style="stroke:#ececec;stroke-opacity:1" />
 <path
   fill="none"
   stroke="rgb(179,179,179)"
   stroke-linejoin="round"
   d="M 809,1643 L 959,1643"
   id="path36"
   style="stroke:#ececec;stroke-opacity:1" />
 <path
   fill="none"
   stroke="rgb(179,179,179)"
   stroke-linejoin="round"
   d="M 809,1643 L 959,1643"
   id="path38"
   style="stroke:#ececec;stroke-opacity:1" />
 <path
   fill="none"
   stroke="rgb(179,179,179)"
   stroke-linejoin="round"
   d="M 809,971 L 959,971"
   id="path40"
   style="stroke:#ececec;stroke-opacity:1" />
 <path
   fill="none"
   stroke="rgb(179,179,179)"
   stroke-linejoin="round"
   d="M 809,971 L 959,971"
   id="path42"
   style="stroke:#ececec;stroke-opacity:1" />
 <path
   fill="none"
   stroke="rgb(179,179,179)"
   stroke-linejoin="round"
   d="M 809,299 L 959,299"
   id="path44"
   style="stroke:#ececec;stroke-opacity:1" />
 <path
   fill="none"
   stroke="rgb(179,179,179)"
   stroke-linejoin="round"
   d="M 809,299 L 959,299"
   id="path46"
   style="stroke:#ececec;stroke-opacity:1" />
 <path
   fill="none"
   stroke="rgb(179,179,179)"
   stroke-linejoin="round"
   d="M 959,4331 L 959,299"
   id="path48"
   style="stroke:#ececec;stroke-opacity:1" />
 
 
 <g
   aria-label="bevy 0.3"
   id="text60"
   class="TextShape"
   style="fill:#ececec;fill-opacity:1"><path
     d="m 2105.4985,4804.8896 q 0,97.5577 -68.6006,97.5577 -21.2006,0 -35.3344,-7.584 -13.9614,-7.7564 -22.752,-24.8203 h -0.3447 q 0,5.3432 -0.6895,16.3745 -0.6894,10.8589 -1.0341,12.5825 h -29.9912 q 1.0341,-9.3076 1.0341,-38.437 v -217.3501 h 31.0254 v 72.9097 q 0,11.2036 -0.6894,26.3715 h 0.6894 q 8.6182,-17.9257 22.752,-25.6821 14.3061,-7.7563 35.3344,-7.7563 35.3345,0 51.8814,23.7861 16.7192,23.7861 16.7192,72.0478 z m -32.5766,1.0342 q 0,-39.1264 -10.3418,-56.018 -10.3418,-16.8916 -33.6109,-16.8916 -26.1992,0 -38.2646,17.9257 -11.8931,17.9258 -11.8931,56.8799 0,36.7134 11.7207,54.2945 11.7207,17.4086 38.0923,17.4086 23.4414,0 33.7832,-17.2363 10.5142,-17.4087 10.5142,-56.3628 z"
     style="fill:#ececec;stroke:none;fill-opacity:1"
     id="path1002" /><path
     d="m 2167.894,4812.3013 q 0,32.0595 13.272,49.4682 13.272,17.4087 38.7818,17.4087 20.1665,0 32.2319,-8.1011 12.2378,-8.101 16.5469,-20.5112 l 27.2334,7.7564 q -16.7193,44.125 -76.0122,44.125 -41.3672,0 -63.085,-24.648 -21.5454,-24.6479 -21.5454,-73.2544 0,-46.1933 21.5454,-70.8413 21.7178,-24.6479 61.8784,-24.6479 82.2173,0 82.2173,99.1089 v 4.1367 z m 101.0049,-23.7862 q -2.5854,-29.4741 -14.9956,-42.9184 -12.4101,-13.6167 -35.6792,-13.6167 -22.5796,0 -35.8515,15.1679 -13.0997,14.9957 -14.1338,41.3672 z"
     style="fill:#ececec;stroke:none;fill-opacity:1"
     id="path1004" /><path
     d="m 2422.3022,4899 h -36.7133 l -67.7388,-186.4971 h 33.0937 l 41.0225,121.3438 q 2.2407,6.8945 11.8931,40.8501 l 6.0327,-20.1665 6.7222,-20.3389 42.4013,-121.6885 h 32.9214 z"
     style="fill:#ececec;stroke:none;fill-opacity:1"
     id="path1006" /><path
     d="m 2526.0649,4972.2544 q -12.7548,0 -21.373,-1.896 v -23.269 q 6.5498,1.0341 14.4785,1.0341 28.957,0 45.8486,-42.5737 l 2.9302,-7.4116 -73.9438,-185.6353 h 33.0937 l 39.2988,103.0733 q 0.8619,2.4131 2.0684,5.8603 1.2066,3.2749 7.7564,22.4072 6.5498,19.1324 7.0669,21.3731 l 12.0654,-33.9556 40.8501,-118.7583 h 32.749 L 2597.251,4899 q -11.5484,29.8188 -21.5454,44.2974 -9.9971,14.6508 -22.2349,21.7177 -12.0654,7.2393 -27.4058,7.2393 z"
     style="fill:#ececec;stroke:none;fill-opacity:1"
     id="path1008" /><path
     d="m 2950.251,4777.4839 q 0,60.8442 -21.5454,92.9038 -21.3731,32.0596 -63.2574,32.0596 -41.8842,0 -62.9126,-31.8872 -21.0283,-31.8872 -21.0283,-93.0762 0,-62.5679 20.3389,-93.7656 20.5112,-31.1978 64.6362,-31.1978 42.9185,0 63.2573,31.5425 20.5113,31.5425 20.5113,93.4209 z m -31.5425,0 q 0,-52.5708 -12.2378,-76.1846 -12.0654,-23.6138 -39.9883,-23.6138 -28.6123,0 -41.1948,23.2691 -12.4102,23.269 -12.4102,76.5293 0,51.709 12.5826,75.6675 12.7548,23.9585 40.333,23.9585 27.4057,0 40.1606,-24.4756 12.7549,-24.4756 12.7549,-75.1504 z"
     style="fill:#ececec;stroke:none;fill-opacity:1"
     id="path1010" /><path
     d="m 2996.272,4899 v -37.7476 h 33.6108 V 4899 Z"
     style="fill:#ececec;stroke:none;fill-opacity:1"
     id="path1012" /><path
     d="m 3242.9238,4831.9507 q 0,33.6108 -21.373,52.0537 -21.3731,18.4429 -61.0166,18.4429 -36.8858,0 -58.9483,-16.5469 -21.8901,-16.7192 -26.0268,-49.2959 l 32.0596,-2.9302 q 6.205,43.0908 52.9155,43.0908 23.4414,0 36.7134,-11.5483 13.4443,-11.5483 13.4443,-34.3003 0,-19.8218 -15.3403,-30.853 -15.168,-11.2036 -43.9527,-11.2036 h -17.581 v -26.8887 h 16.8916 q 25.5097,0 39.4712,-11.0313 14.1338,-11.2036 14.1338,-30.853 0,-19.477 -11.5484,-30.6807 -11.376,-11.3759 -33.9556,-11.3759 -20.5112,0 -33.2661,10.5141 -12.5825,10.5142 -14.6508,29.6465 l -31.1978,-2.4131 q 3.4473,-29.8188 24.648,-46.5381 21.373,-16.7192 54.8115,-16.7192 36.541,0 56.7075,17.064 20.3389,16.8916 20.3389,47.2275 0,23.2691 -13.0996,37.9199 -12.9273,14.4785 -37.7476,19.6494 v 0.6895 q 27.2334,2.9302 42.4014,18.2705 15.1679,15.3403 15.1679,38.6094 z"
     style="fill:#ececec;stroke:none;fill-opacity:1"
     id="path1014" /></g>
 <g
   aria-label="bevy 0.2"
   id="text68"
   class="TextShape"
   style="fill:#ececec;fill-opacity:1"><path
     d="m 5360.4985,4804.8896 q 0,97.5577 -68.6006,97.5577 -21.2006,0 -35.3344,-7.584 -13.9614,-7.7564 -22.752,-24.8203 h -0.3447 q 0,5.3432 -0.6895,16.3745 -0.6894,10.8589 -1.0341,12.5825 h -29.9912 q 1.0341,-9.3076 1.0341,-38.437 v -217.3501 h 31.0254 v 72.9097 q 0,11.2036 -0.6894,26.3715 h 0.6894 q 8.6182,-17.9257 22.752,-25.6821 14.3061,-7.7563 35.3344,-7.7563 35.3345,0 51.8814,23.7861 16.7192,23.7861 16.7192,72.0478 z m -32.5766,1.0342 q 0,-39.1264 -10.3418,-56.018 -10.3418,-16.8916 -33.6109,-16.8916 -26.1992,0 -38.2646,17.9257 -11.8931,17.9258 -11.8931,56.8799 0,36.7134 11.7207,54.2945 11.7207,17.4086 38.0923,17.4086 23.4414,0 33.7832,-17.2363 10.5142,-17.4087 10.5142,-56.3628 z"
     style="fill:#ececec;stroke:none;fill-opacity:1"
     id="path1017" /><path
     d="m 5422.894,4812.3013 q 0,32.0595 13.272,49.4682 13.272,17.4087 38.7818,17.4087 20.1665,0 32.2319,-8.1011 12.2378,-8.101 16.5469,-20.5112 l 27.2334,7.7564 q -16.7193,44.125 -76.0122,44.125 -41.3672,0 -63.085,-24.648 -21.5454,-24.6479 -21.5454,-73.2544 0,-46.1933 21.5454,-70.8413 21.7178,-24.6479 61.8784,-24.6479 82.2173,0 82.2173,99.1089 v 4.1367 z m 101.0049,-23.7862 q -2.5854,-29.4741 -14.9956,-42.9184 -12.4101,-13.6167 -35.6792,-13.6167 -22.5796,0 -35.8515,15.1679 -13.0997,14.9957 -14.1338,41.3672 z"
     style="fill:#ececec;stroke:none;fill-opacity:1"
     id="path1019" /><path
     d="m 5677.3022,4899 h -36.7133 l -67.7388,-186.4971 h 33.0937 l 41.0225,121.3438 q 2.2407,6.8945 11.8931,40.8501 l 6.0327,-20.1665 6.7222,-20.3389 42.4013,-121.6885 h 32.9214 z"
     style="fill:#ececec;stroke:none;fill-opacity:1"
     id="path1021" /><path
     d="m 5781.0649,4972.2544 q -12.7548,0 -21.373,-1.896 v -23.269 q 6.5498,1.0341 14.4785,1.0341 28.957,0 45.8486,-42.5737 l 2.9302,-7.4116 -73.9438,-185.6353 h 33.0937 l 39.2988,103.0733 q 0.8619,2.4131 2.0684,5.8603 1.2066,3.2749 7.7564,22.4072 6.5498,19.1324 7.0669,21.3731 l 12.0654,-33.9556 40.8501,-118.7583 h 32.749 L 5852.251,4899 q -11.5484,29.8188 -21.5454,44.2974 -9.9971,14.6508 -22.2349,21.7177 -12.0654,7.2393 -27.4058,7.2393 z"
     style="fill:#ececec;stroke:none;fill-opacity:1"
     id="path1023" /><path
     d="m 6205.251,4777.4839 q 0,60.8442 -21.5454,92.9038 -21.3731,32.0596 -63.2574,32.0596 -41.8842,0 -62.9126,-31.8872 -21.0283,-31.8872 -21.0283,-93.0762 0,-62.5679 20.3389,-93.7656 20.5112,-31.1978 64.6362,-31.1978 42.9185,0 63.2573,31.5425 20.5113,31.5425 20.5113,93.4209 z m -31.5425,0 q 0,-52.5708 -12.2378,-76.1846 -12.0654,-23.6138 -39.9883,-23.6138 -28.6123,0 -41.1948,23.2691 -12.4102,23.269 -12.4102,76.5293 0,51.709 12.5826,75.6675 12.7548,23.9585 40.333,23.9585 27.4057,0 40.1606,-24.4756 12.7549,-24.4756 12.7549,-75.1504 z"
     style="fill:#ececec;stroke:none;fill-opacity:1"
     id="path1025" /><path
     d="m 6251.272,4899 v -37.7476 h 33.6108 V 4899 Z"
     style="fill:#ececec;stroke:none;fill-opacity:1"
     id="path1027" /><path
     d="m 6334.8682,4899 v -21.8901 q 8.7905,-20.1665 21.373,-35.5069 12.7549,-15.5127 26.7163,-27.9228 13.9614,-12.5825 27.5781,-23.2691 13.7891,-10.6865 24.8204,-21.373 11.0312,-10.6865 17.7534,-22.4072 6.8945,-11.7207 6.8945,-26.544 0,-19.9941 -11.7207,-31.0254 -11.7207,-11.0312 -32.5767,-11.0312 -19.8217,0 -32.749,10.8589 -12.7549,10.6865 -14.9956,30.1635 l -31.7148,-2.9301 q 3.4472,-29.1294 24.6479,-46.3658 21.3731,-17.2363 54.8115,-17.2363 36.7134,0 56.3628,17.4087 19.8218,17.2363 19.8218,49.1235 0,14.1338 -6.5498,28.0952 -6.3774,13.9615 -19.1323,27.9229 -12.7549,13.9614 -48.7788,43.2632 -19.8218,16.2021 -31.5425,29.3017 -11.7207,12.9273 -16.8916,24.9927 h 126.687 V 4899 Z"
     style="fill:#ececec;stroke:none;fill-opacity:1"
     id="path1029" /></g>
 <g
   aria-label="0"
   id="text76"
   class="TextShape"
   style="fill:#ececec;fill-opacity:1"><path
     d="m 706.53271,4330.4839 q 0,60.8442 -21.54541,92.9038 -21.37304,32.0596 -63.25732,32.0596 -41.88428,0 -62.9126,-31.8872 -21.02832,-31.8872 -21.02832,-93.0762 0,-62.5679 20.33887,-93.7656 20.51123,-31.1978 64.63623,-31.1978 42.91846,0 63.25732,31.5425 20.51123,31.5425 20.51123,93.4209 z m -31.54248,0 q 0,-52.5708 -12.23779,-76.1846 -12.06543,-23.6138 -39.98828,-23.6138 -28.6123,0 -41.19482,23.2691 -12.41016,23.269 -12.41016,76.5293 0,51.709 12.58252,75.6675 12.75488,23.9585 40.33301,23.9585 27.40576,0 40.16064,-24.4756 12.75488,-24.4756 12.75488,-75.1504 z"
     style="fill:#ececec;stroke:none;fill-opacity:1"
     id="path957" /></g>
 <g
   aria-label="100"
   id="text84"
   class="TextShape"
   style="fill:#ececec;fill-opacity:1"><path
     d="m 179.88867,3780 v -26.3716 h 61.87842 v -186.8418 l -54.81152,39.1265 v -29.3018 l 57.39697,-39.4712 h 28.6123 v 216.4883 h 59.12061 V 3780 Z"
     style="fill:#ececec;stroke:none;fill-opacity:1"
     id="path960" /><path
     d="m 531.85449,3658.4839 q 0,60.8442 -21.54541,92.9038 -21.37304,32.0596 -63.25732,32.0596 -41.88428,0 -62.9126,-31.8872 -21.02832,-31.8872 -21.02832,-93.0762 0,-62.5679 20.33887,-93.7656 20.51123,-31.1978 64.63623,-31.1978 42.91845,0 63.25732,31.5425 20.51123,31.5425 20.51123,93.4209 z m -31.54248,0 q 0,-52.5708 -12.23779,-76.1846 -12.06543,-23.6138 -39.98828,-23.6138 -28.61231,0 -41.19483,23.2691 -12.41015,23.269 -12.41015,76.5293 0,51.709 12.58252,75.6675 12.75488,23.9585 40.333,23.9585 27.40577,0 40.16065,-24.4756 12.75488,-24.4756 12.75488,-75.1504 z"
     style="fill:#ececec;stroke:none;fill-opacity:1"
     id="path962" /><path
     d="m 728.17627,3658.4839 q 0,60.8442 -21.54541,92.9038 -21.37305,32.0596 -63.25732,32.0596 -41.88428,0 -62.9126,-31.8872 -21.02832,-31.8872 -21.02832,-93.0762 0,-62.5679 20.33886,-93.7656 20.51123,-31.1978 64.63623,-31.1978 42.91846,0 63.25733,31.5425 20.51123,31.5425 20.51123,93.4209 z m -31.54248,0 q 0,-52.5708 -12.23779,-76.1846 -12.06543,-23.6138 -39.98829,-23.6138 -28.6123,0 -41.19482,23.2691 -12.41016,23.269 -12.41016,76.5293 0,51.709 12.58252,75.6675 12.75489,23.9585 40.33301,23.9585 27.40576,0 40.16065,-24.4756 12.75488,-24.4756 12.75488,-75.1504 z"
     style="fill:#ececec;stroke:none;fill-opacity:1"
     id="path964" /></g>
 <g
   aria-label="200"
   id="text92"
   class="TextShape"
   style="fill:#ececec;fill-opacity:1"><path
     d="m 170.75342,3108 v -21.8901 q 8.79053,-20.1665 21.37304,-35.5069 12.75489,-15.5127 26.71631,-27.9228 13.96143,-12.5825 27.57813,-23.2691 13.78906,-10.6865 24.82031,-21.373 11.03125,-10.6865 17.75342,-22.4072 6.89453,-11.7207 6.89453,-26.544 0,-19.9941 -11.7207,-31.0254 -11.72071,-11.0312 -32.57666,-11.0312 -19.82178,0 -32.74903,10.8589 -12.75488,10.6865 -14.9956,30.1635 l -31.71485,-2.9301 q 3.44727,-29.1294 24.64795,-46.3658 21.37305,-17.2363 54.81153,-17.2363 36.71338,0 56.36279,17.4087 19.82178,17.2363 19.82178,49.1235 0,14.1338 -6.54981,28.0952 -6.37744,13.9615 -19.13232,27.9229 -12.75488,13.9614 -48.77881,43.2632 -19.82178,16.2021 -31.54248,29.3017 -11.7207,12.9273 -16.8916,24.9927 H 331.56836 V 3108 Z"
     style="fill:#ececec;stroke:none;fill-opacity:1"
     id="path967" /><path
     d="m 531.85449,2986.4839 q 0,60.8442 -21.54541,92.9038 -21.37304,32.0596 -63.25732,32.0596 -41.88428,0 -62.9126,-31.8872 -21.02832,-31.8872 -21.02832,-93.0762 0,-62.5679 20.33887,-93.7656 20.51123,-31.1978 64.63623,-31.1978 42.91845,0 63.25732,31.5425 20.51123,31.5425 20.51123,93.4209 z m -31.54248,0 q 0,-52.5708 -12.23779,-76.1846 -12.06543,-23.6138 -39.98828,-23.6138 -28.61231,0 -41.19483,23.2691 -12.41015,23.269 -12.41015,76.5293 0,51.709 12.58252,75.6675 12.75488,23.9585 40.333,23.9585 27.40577,0 40.16065,-24.4756 12.75488,-24.4756 12.75488,-75.1504 z"
     style="fill:#ececec;stroke:none;fill-opacity:1"
     id="path969" /><path
     d="m 728.17627,2986.4839 q 0,60.8442 -21.54541,92.9038 -21.37305,32.0596 -63.25732,32.0596 -41.88428,0 -62.9126,-31.8872 -21.02832,-31.8872 -21.02832,-93.0762 0,-62.5679 20.33886,-93.7656 20.51123,-31.1978 64.63623,-31.1978 42.91846,0 63.25733,31.5425 20.51123,31.5425 20.51123,93.4209 z m -31.54248,0 q 0,-52.5708 -12.23779,-76.1846 -12.06543,-23.6138 -39.98829,-23.6138 -28.6123,0 -41.19482,23.2691 -12.41016,23.269 -12.41016,76.5293 0,51.709 12.58252,75.6675 12.75489,23.9585 40.33301,23.9585 27.40576,0 40.16065,-24.4756 12.75488,-24.4756 12.75488,-75.1504 z"
     style="fill:#ececec;stroke:none;fill-opacity:1"
     id="path971" /></g>
 <g
   aria-label="300"
   id="text100"
   class="TextShape"
   style="fill:#ececec;fill-opacity:1"><path
     d="m 333.80908,2368.9507 q 0,33.6108 -21.37304,52.0537 -21.37305,18.4429 -61.01661,18.4429 -36.88574,0 -58.94824,-16.5469 -21.89014,-16.7192 -26.02685,-49.2959 l 32.05957,-2.9302 q 6.20507,43.0908 52.91552,43.0908 23.44141,0 36.71338,-11.5483 13.44434,-11.5483 13.44434,-34.3003 0,-19.8218 -15.34033,-30.853 -15.16797,-11.2036 -43.95264,-11.2036 h -17.58106 v -26.8887 h 16.89161 q 25.50976,0 39.47119,-11.0313 14.13379,-11.2036 14.13379,-30.853 0,-19.477 -11.54834,-30.6806 -11.37598,-11.376 -33.95557,-11.376 -20.51123,0 -33.26611,10.5141 -12.58252,10.5142 -14.65088,29.6465 l -31.19776,-2.4131 q 3.44727,-29.8188 24.64795,-46.5381 21.37305,-16.7192 54.81153,-16.7192 36.54101,0 56.70752,17.064 20.33886,16.8916 20.33886,47.2275 0,23.2691 -13.09961,37.9199 -12.92724,14.4785 -37.74755,19.6494 v 0.6895 q 27.23339,2.9302 42.40136,18.2705 15.16797,15.3403 15.16797,38.6094 z"
     style="fill:#ececec;stroke:none;fill-opacity:1"
     id="path974" /><path
     d="m 531.85449,2314.4839 q 0,60.8442 -21.54541,92.9038 -21.37304,32.0596 -63.25732,32.0596 -41.88428,0 -62.9126,-31.8872 -21.02832,-31.8872 -21.02832,-93.0762 0,-62.5679 20.33887,-93.7656 20.51123,-31.1978 64.63623,-31.1978 42.91845,0 63.25732,31.5425 20.51123,31.5425 20.51123,93.4209 z m -31.54248,0 q 0,-52.5708 -12.23779,-76.1846 -12.06543,-23.6138 -39.98828,-23.6138 -28.61231,0 -41.19483,23.2691 -12.41015,23.269 -12.41015,76.5293 0,51.709 12.58252,75.6675 12.75488,23.9585 40.333,23.9585 27.40577,0 40.16065,-24.4756 12.75488,-24.4756 12.75488,-75.1504 z"
     style="fill:#ececec;stroke:none;fill-opacity:1"
     id="path976" /><path
     d="m 728.17627,2314.4839 q 0,60.8442 -21.54541,92.9038 -21.37305,32.0596 -63.25732,32.0596 -41.88428,0 -62.9126,-31.8872 -21.02832,-31.8872 -21.02832,-93.0762 0,-62.5679 20.33886,-93.7656 20.51123,-31.1978 64.63623,-31.1978 42.91846,0 63.25733,31.5425 20.51123,31.5425 20.51123,93.4209 z m -31.54248,0 q 0,-52.5708 -12.23779,-76.1846 -12.06543,-23.6138 -39.98829,-23.6138 -28.6123,0 -41.19482,23.2691 -12.41016,23.269 -12.41016,76.5293 0,51.709 12.58252,75.6675 12.75489,23.9585 40.33301,23.9585 27.40576,0 40.16065,-24.4756 12.75488,-24.4756 12.75488,-75.1504 z"
     style="fill:#ececec;stroke:none;fill-opacity:1"
     id="path978" /></g>
 <g
   aria-label="400"
   id="text108"
   class="TextShape"
   style="fill:#ececec;fill-opacity:1"><path
     d="M 304.85205,1708.0161 V 1763 h -29.30176 v -54.9839 H 161.10107 v -24.1308 l 111.17432,-163.7452 h 32.57666 v 163.4004 h 34.12793 v 24.4756 z m -29.30176,-152.8862 q -0.34472,1.0342 -4.82617,9.1352 -4.48144,8.1011 -6.72217,11.376 l -62.22314,91.6973 -9.30762,12.7549 -2.75781,3.4472 h 85.83691 z"
     style="fill:#ececec;stroke:none;fill-opacity:1"
     id="path981" /><path
     d="m 531.85449,1641.4839 q 0,60.8442 -21.54541,92.9038 -21.37304,32.0596 -63.25732,32.0596 -41.88428,0 -62.9126,-31.8872 -21.02832,-31.8872 -21.02832,-93.0762 0,-62.5679 20.33887,-93.7656 20.51123,-31.1978 64.63623,-31.1978 42.91845,0 63.25732,31.5425 20.51123,31.5425 20.51123,93.4209 z m -31.54248,0 q 0,-52.5708 -12.23779,-76.1846 -12.06543,-23.6138 -39.98828,-23.6138 -28.61231,0 -41.19483,23.2691 -12.41015,23.269 -12.41015,76.5293 0,51.709 12.58252,75.6675 12.75488,23.9585 40.333,23.9585 27.40577,0 40.16065,-24.4756 12.75488,-24.4756 12.75488,-75.1504 z"
     style="fill:#ececec;stroke:none;fill-opacity:1"
     id="path983" /><path
     d="m 728.17627,1641.4839 q 0,60.8442 -21.54541,92.9038 -21.37305,32.0596 -63.25732,32.0596 -41.88428,0 -62.9126,-31.8872 -21.02832,-31.8872 -21.02832,-93.0762 0,-62.5679 20.33886,-93.7656 20.51123,-31.1978 64.63623,-31.1978 42.91846,0 63.25733,31.5425 20.51123,31.5425 20.51123,93.4209 z m -31.54248,0 q 0,-52.5708 -12.23779,-76.1846 -12.06543,-23.6138 -39.98829,-23.6138 -28.6123,0 -41.19482,23.2691 -12.41016,23.269 -12.41016,76.5293 0,51.709 12.58252,75.6675 12.75489,23.9585 40.33301,23.9585 27.40576,0 40.16065,-24.4756 12.75488,-24.4756 12.75488,-75.1504 z"
     style="fill:#ececec;stroke:none;fill-opacity:1"
     id="path985" /></g>
 <g
   aria-label="500"
   id="text116"
   class="TextShape"
   style="fill:#ececec;fill-opacity:1"><path
     d="m 334.49854,1011.8853 q 0,38.437 -22.92432,60.4995 -22.75195,22.0625 -63.25733,22.0625 -33.95556,0 -54.81152,-14.8233 -20.85596,-14.8232 -26.37158,-42.9184 l 31.37012,-3.6197 q 9.8247,36.024 50.50244,36.024 24.99267,0 39.12646,-14.9956 14.13379,-15.168 14.13379,-41.5396 0,-22.92431 -14.30615,-37.0581 -14.13379,-14.13379 -38.26465,-14.13379 -12.58252,0 -23.44141,3.96436 -10.85888,3.96435 -21.71777,13.44433 h -30.33594 l 8.10108,-130.65136 h 138.06299 v 26.37158 H 210.56934 l -4.65381,77.04639 q 20.1665,-15.5127 50.15771,-15.5127 35.85156,0 57.05225,21.02832 21.37305,21.02832 21.37305,54.81157 z"
     style="fill:#ececec;stroke:none;fill-opacity:1"
     id="path988" /><path
     d="m 531.85449,969.48389 q 0,60.84421 -21.54541,92.90381 -21.37304,32.0596 -63.25732,32.0596 -41.88428,0 -62.9126,-31.8872 -21.02832,-31.8872 -21.02832,-93.07621 0,-62.56787 20.33887,-93.76563 20.51123,-31.19775 64.63623,-31.19775 42.91845,0 63.25732,31.54248 20.51123,31.54248 20.51123,93.4209 z m -31.54248,0 q 0,-52.5708 -12.23779,-76.18457 -12.06543,-23.61377 -39.98828,-23.61377 -28.61231,0 -41.19483,23.26904 -12.41015,23.26904 -12.41015,76.5293 0,51.70901 12.58252,75.66751 12.75488,23.9585 40.333,23.9585 27.40577,0 40.16065,-24.4756 12.75488,-24.4756 12.75488,-75.15041 z"
     style="fill:#ececec;stroke:none;fill-opacity:1"
     id="path990" /><path
     d="m 728.17627,969.48389 q 0,60.84421 -21.54541,92.90381 -21.37305,32.0596 -63.25732,32.0596 -41.88428,0 -62.9126,-31.8872 -21.02832,-31.8872 -21.02832,-93.07621 0,-62.56787 20.33886,-93.76563 20.51123,-31.19775 64.63623,-31.19775 42.91846,0 63.25733,31.54248 20.51123,31.54248 20.51123,93.4209 z m -31.54248,0 q 0,-52.5708 -12.23779,-76.18457 -12.06543,-23.61377 -39.98829,-23.61377 -28.6123,0 -41.19482,23.26904 -12.41016,23.26904 -12.41016,76.5293 0,51.70901 12.58252,75.66751 12.75489,23.9585 40.33301,23.9585 27.40576,0 40.16065,-24.4756 12.75488,-24.4756 12.75488,-75.15041 z"
     style="fill:#ececec;stroke:none;fill-opacity:1"
     id="path992" /></g>
 <g
   aria-label="600"
   id="text124"
   class="TextShape"
   style="fill:#ececec;fill-opacity:1"><path
     d="m 333.80908,339.54053 q 0,38.43701 -20.85596,60.67187 -20.85595,22.23487 -57.56933,22.23487 -41.02246,0 -62.74024,-30.50831 -21.71777,-30.5083 -21.71777,-88.76709 0,-63.08496 22.57959,-96.86816 22.57959,-33.7832 64.2915,-33.7832 54.98389,0 69.29004,49.46826 l -29.64648,5.34326 q -9.13525,-29.64648 -39.98828,-29.64648 -26.54395,0 -41.19483,24.82031 -14.47851,24.64795 -14.47851,71.53076 8.4458,-15.68506 23.78613,-23.78613 15.34033,-8.27344 35.16211,-8.27344 33.61084,0 53.26025,21.02832 19.82178,21.02832 19.82178,56.53516 z m -31.54248,1.3789 q 0,-26.37158 -12.92724,-40.67773 -12.92725,-14.30615 -36.02393,-14.30615 -21.71777,0 -35.16211,12.75488 -13.27197,12.58252 -13.27197,34.81738 0,28.09522 13.78906,46.021 13.96143,17.92578 35.6792,17.92578 22.40723,0 35.16211,-14.99561 12.75488,-15.16796 12.75488,-41.53955 z"
     style="fill:#ececec;stroke:none;fill-opacity:1"
     id="path995" /><path
     d="m 531.85449,297.48389 q 0,60.84423 -21.54541,92.90381 -21.37304,32.05957 -63.25732,32.05957 -41.88428,0 -62.9126,-31.88721 -21.02832,-31.88721 -21.02832,-93.07617 0,-62.56787 20.33887,-93.76563 20.51123,-31.19775 64.63623,-31.19775 42.91845,0 63.25732,31.54248 20.51123,31.54248 20.51123,93.4209 z m -31.54248,0 q 0,-52.5708 -12.23779,-76.18457 -12.06543,-23.61377 -39.98828,-23.61377 -28.61231,0 -41.19483,23.26904 -12.41015,23.26904 -12.41015,76.5293 0,51.70898 12.58252,75.66748 12.75488,23.95849 40.333,23.95849 27.40577,0 40.16065,-24.47558 12.75488,-24.47559 12.75488,-75.15039 z"
     style="fill:#ececec;stroke:none;fill-opacity:1"
     id="path997" /><path
     d="m 728.17627,297.48389 q 0,60.84423 -21.54541,92.90381 -21.37305,32.05957 -63.25732,32.05957 -41.88428,0 -62.9126,-31.88721 -21.02832,-31.88721 -21.02832,-93.07617 0,-62.56787 20.33886,-93.76563 20.51123,-31.19775 64.63623,-31.19775 42.91846,0 63.25733,31.54248 20.51123,31.54248 20.51123,93.4209 z m -31.54248,0 q 0,-52.5708 -12.23779,-76.18457 -12.06543,-23.61377 -39.98829,-23.61377 -28.6123,0 -41.19482,23.26904 -12.41016,23.26904 -12.41016,76.5293 0,51.70898 12.58252,75.66748 12.75489,23.95849 40.33301,23.95849 27.40576,0 40.16065,-24.47558 12.75488,-24.47559 12.75488,-75.15039 z"
     style="fill:#ececec;stroke:none;fill-opacity:1"
     id="path999" /></g>
</svg>
