<?xml version="1.0" encoding="UTF-8" standalone="no"?>
<svg
   xmlns:dc="http://purl.org/dc/elements/1.1/"
   xmlns:cc="http://creativecommons.org/ns#"
   xmlns:rdf="http://www.w3.org/1999/02/22-rdf-syntax-ns#"
   xmlns:svg="http://www.w3.org/2000/svg"
   xmlns="http://www.w3.org/2000/svg"
   xmlns:sodipodi="http://sodipodi.sourceforge.net/DTD/sodipodi-0.dtd"
   xmlns:inkscape="http://www.inkscape.org/namespaces/inkscape"
   inkscape:version="1.0 (4035a4fb49, 2020-05-01)"
   sodipodi:docname="ecs_get_component.svg"
   id="svg194"
   xml:space="preserve"
   stroke-linejoin="round"
   stroke-width="28.222"
   version="1.1"
   viewBox="0 0 22600 9000"
   height="90mm"
   width="226mm"><metadata
   id="metadata200"><rdf:RDF><cc:Work
       rdf:about=""><dc:format>image/svg+xml</dc:format><dc:type
         rdf:resource="http://purl.org/dc/dcmitype/StillImage" /><dc:title></dc:title></cc:Work></rdf:RDF></metadata><defs
   id="defs198" /><sodipodi:namedview
   inkscape:current-layer="svg194"
   inkscape:window-maximized="1"
   inkscape:window-y="0"
   inkscape:window-x="0"
   inkscape:cy="38.848844"
   inkscape:cx="675.27958"
   inkscape:zoom="1.160612"
   showgrid="false"
   id="namedview196"
   inkscape:window-height="1440"
   inkscape:window-width="3440"
   inkscape:pageshadow="2"
   inkscape:pageopacity="0"
   guidetolerance="10"
   gridtolerance="10"
   objecttolerance="10"
   borderopacity="1"
   bordercolor="#666666"
   pagecolor="#ffffff" />
 
 
 <path
   style="fill:#474747;fill-opacity:1"
   id="path70"
   d="M 19492,8159 L 21236,8159 21236,1565 19492,1565 19492,8159 Z"
   stroke="none"
   fill="rgb(0,69,134)" /><path
   style="fill:#474747;fill-opacity:1"
   id="path72"
   d="M 16003,8159 L 17748,8159 17748,4203 16003,4203 16003,8159 Z"
   stroke="none"
   fill="rgb(0,69,134)" /><path
   style="fill:#474747;fill-opacity:1"
   id="path74"
   d="M 12515,8159 L 14259,8159 14259,1568 12515,1568 12515,8159 Z"
   stroke="none"
   fill="rgb(0,69,134)" /><path
   style="fill:#474747;fill-opacity:1"
   id="path76"
   d="M 9027,8159 L 10771,8159 10771,5971 9027,5971 9027,8159 Z"
   stroke="none"
   fill="rgb(0,69,134)" /><path
   style="fill:#4a96dc;fill-opacity:1"
   id="path78"
   d="M 5538,8159 L 7283,8159 7283,6214 5538,6214 5538,8159 Z"
   stroke="none"
   fill="rgb(0,69,134)" /><path
   style="fill:#4a96dc;fill-opacity:1"
   id="path80"
   d="M 2050,8159 L 3794,8159 3794,6156 2050,6156 2050,8159 Z"
   stroke="none"
   fill="rgb(0,69,134)" /><path
   style="stroke:#ececec;stroke-opacity:1"
   id="path6"
   d="M 1178,8309 L 1178,8159"
   stroke-linejoin="round"
   stroke="rgb(179,179,179)"
   fill="none" />
 <path
   style="stroke:#ececec;stroke-opacity:1"
   id="path8"
   d="M 1178,8309 L 1178,8159"
   stroke-linejoin="round"
   stroke="rgb(179,179,179)"
   fill="none" />
 <path
   style="stroke:#ececec;stroke-opacity:1"
   id="path10"
   d="M 4666,8309 L 4666,8159"
   stroke-linejoin="round"
   stroke="rgb(179,179,179)"
   fill="none" />
 <path
   style="stroke:#ececec;stroke-opacity:1"
   id="path12"
   d="M 4666,8309 L 4666,8159"
   stroke-linejoin="round"
   stroke="rgb(179,179,179)"
   fill="none" />
 <path
   style="stroke:#ececec;stroke-opacity:1"
   id="path14"
   d="M 8155,8309 L 8155,8159"
   stroke-linejoin="round"
   stroke="rgb(179,179,179)"
   fill="none" />
 <path
   style="stroke:#ececec;stroke-opacity:1"
   id="path16"
   d="M 8155,8309 L 8155,8159"
   stroke-linejoin="round"
   stroke="rgb(179,179,179)"
   fill="none" />
 <path
   style="stroke:#ececec;stroke-opacity:1"
   id="path18"
   d="M 11642,8309 L 11642,8159"
   stroke-linejoin="round"
   stroke="rgb(179,179,179)"
   fill="none" />
 <path
   style="stroke:#ececec;stroke-opacity:1"
   id="path20"
   d="M 11642,8309 L 11642,8159"
   stroke-linejoin="round"
   stroke="rgb(179,179,179)"
   fill="none" />
 <path
   style="stroke:#ececec;stroke-opacity:1"
   id="path22"
   d="M 15131,8309 L 15131,8159"
   stroke-linejoin="round"
   stroke="rgb(179,179,179)"
   fill="none" />
 <path
   style="stroke:#ececec;stroke-opacity:1"
   id="path24"
   d="M 15131,8309 L 15131,8159"
   stroke-linejoin="round"
   stroke="rgb(179,179,179)"
   fill="none" />
 <path
   style="stroke:#ececec;stroke-opacity:1"
   id="path26"
   d="M 18620,8309 L 18620,8159"
   stroke-linejoin="round"
   stroke="rgb(179,179,179)"
   fill="none" />
 <path
   style="stroke:#ececec;stroke-opacity:1"
   id="path28"
   d="M 18620,8309 L 18620,8159"
   stroke-linejoin="round"
   stroke="rgb(179,179,179)"
   fill="none" />
 <path
   style="stroke:#ececec;stroke-opacity:1"
   id="path30"
   d="M 22108,8309 L 22108,8159"
   stroke-linejoin="round"
   stroke="rgb(179,179,179)"
   fill="none" />
 <path
   style="stroke:#ececec;stroke-opacity:1"
   id="path32"
   d="M 22108,8309 L 22108,8159"
   stroke-linejoin="round"
   stroke="rgb(179,179,179)"
   fill="none" />
 <path
   style="stroke:#ececec;stroke-opacity:1"
   id="path34"
   d="M 1178,8159 L 22108,8159"
   stroke-linejoin="round"
   stroke="rgb(179,179,179)"
   fill="none" />
 <path
   style="stroke:#ececec;stroke-opacity:1"
   id="path36"
   d="M 1028,8159 L 1178,8159"
   stroke-linejoin="round"
   stroke="rgb(179,179,179)"
   fill="none" />
 <path
   style="stroke:#ececec;stroke-opacity:1"
   id="path38"
   d="M 1028,8159 L 1178,8159"
   stroke-linejoin="round"
   stroke="rgb(179,179,179)"
   fill="none" />
 <path
   style="stroke:#ececec;stroke-opacity:1"
   id="path40"
   d="M 1028,7047 L 1178,7047"
   stroke-linejoin="round"
   stroke="rgb(179,179,179)"
   fill="none" />
 <path
   style="stroke:#ececec;stroke-opacity:1"
   id="path42"
   d="M 1028,7047 L 1178,7047"
   stroke-linejoin="round"
   stroke="rgb(179,179,179)"
   fill="none" />
 <path
   style="stroke:#ececec;stroke-opacity:1"
   id="path44"
   d="M 1028,5935 L 1178,5935"
   stroke-linejoin="round"
   stroke="rgb(179,179,179)"
   fill="none" />
 <path
   style="stroke:#ececec;stroke-opacity:1"
   id="path46"
   d="M 1028,5935 L 1178,5935"
   stroke-linejoin="round"
   stroke="rgb(179,179,179)"
   fill="none" />
 <path
   style="stroke:#ececec;stroke-opacity:1"
   id="path48"
   d="M 1028,4823 L 1178,4823"
   stroke-linejoin="round"
   stroke="rgb(179,179,179)"
   fill="none" />
 <path
   style="stroke:#ececec;stroke-opacity:1"
   id="path50"
   d="M 1028,4823 L 1178,4823"
   stroke-linejoin="round"
   stroke="rgb(179,179,179)"
   fill="none" />
 <path
   style="stroke:#ececec;stroke-opacity:1"
   id="path52"
   d="M 1028,3713 L 1178,3713"
   stroke-linejoin="round"
   stroke="rgb(179,179,179)"
   fill="none" />
 <path
   style="stroke:#ececec;stroke-opacity:1"
   id="path54"
   d="M 1028,3713 L 1178,3713"
   stroke-linejoin="round"
   stroke="rgb(179,179,179)"
   fill="none" />
 <path
   style="stroke:#ececec;stroke-opacity:1"
   id="path56"
   d="M 1028,2601 L 1178,2601"
   stroke-linejoin="round"
   stroke="rgb(179,179,179)"
   fill="none" />
 <path
   style="stroke:#ececec;stroke-opacity:1"
   id="path58"
   d="M 1028,2601 L 1178,2601"
   stroke-linejoin="round"
   stroke="rgb(179,179,179)"
   fill="none" />
 <path
   style="stroke:#ececec;stroke-opacity:1"
   id="path60"
   d="M 1028,1489 L 1178,1489"
   stroke-linejoin="round"
   stroke="rgb(179,179,179)"
   fill="none" />
 <path
   style="stroke:#ececec;stroke-opacity:1"
   id="path62"
   d="M 1028,1489 L 1178,1489"
   stroke-linejoin="round"
   stroke="rgb(179,179,179)"
   fill="none" />
 <path
   style="stroke:#ececec;stroke-opacity:1"
   id="path64"
   d="M 1028,378 L 1178,378"
   stroke-linejoin="round"
   stroke="rgb(179,179,179)"
   fill="none" />
 <path
   style="stroke:#ececec;stroke-opacity:1"
   id="path66"
   d="M 1028,378 L 1178,378"
   stroke-linejoin="round"
   stroke="rgb(179,179,179)"
   fill="none" />
 <path
   style="stroke:#ececec;stroke-opacity:1"
   id="path68"
   d="M 1178,8159 L 1178,378"
   stroke-linejoin="round"
   stroke="rgb(179,179,179)"
   fill="none" />
 
 
 
 
 
 
 <g
   style="fill:#ececec;fill-opacity:1"
   class="TextShape"
   id="text88"
   aria-label="bevy 0.3 (world)"><path
     id="path1065"
     style="fill:#ececec;stroke:none;fill-opacity:1"
     d="m 1886.4985,8632.8896 q 0,97.5577 -68.6006,97.5577 -21.2006,0 -35.3344,-7.584 -13.9614,-7.7564 -22.752,-24.8203 h -0.3447 q 0,5.3432 -0.6895,16.3745 -0.6894,10.8589 -1.0341,12.5825 h -29.9912 q 1.0341,-9.3076 1.0341,-38.437 v -217.3501 h 31.0254 v 72.9097 q 0,11.2036 -0.6894,26.3715 h 0.6894 q 8.6182,-17.9257 22.752,-25.6821 14.3061,-7.7563 35.3344,-7.7563 35.3345,0 51.8814,23.7861 16.7192,23.7861 16.7192,72.0478 z m -32.5766,1.0342 q 0,-39.1264 -10.3418,-56.018 -10.3418,-16.8916 -33.6109,-16.8916 -26.1992,0 -38.2646,17.9257 -11.8931,17.9258 -11.8931,56.8799 0,36.7134 11.7207,54.2945 11.7207,17.4086 38.0923,17.4086 23.4414,0 33.7832,-17.2363 10.5142,-17.4087 10.5142,-56.3628 z" /><path
     id="path1067"
     style="fill:#ececec;stroke:none;fill-opacity:1"
     d="m 1948.894,8640.3013 q 0,32.0595 13.272,49.4682 13.272,17.4087 38.7818,17.4087 20.1665,0 32.2319,-8.1011 12.2378,-8.101 16.5469,-20.5112 l 27.2334,7.7564 q -16.7193,44.125 -76.0122,44.125 -41.3672,0 -63.085,-24.648 -21.5454,-24.6479 -21.5454,-73.2544 0,-46.1933 21.5454,-70.8413 21.7178,-24.6479 61.8784,-24.6479 82.2173,0 82.2173,99.1089 v 4.1367 z m 101.0049,-23.7862 q -2.5854,-29.4741 -14.9956,-42.9184 -12.4101,-13.6167 -35.6792,-13.6167 -22.5796,0 -35.8515,15.1679 -13.0997,14.9957 -14.1338,41.3672 z" /><path
     id="path1069"
     style="fill:#ececec;stroke:none;fill-opacity:1"
     d="m 2203.3022,8727 h -36.7133 l -67.7388,-186.4971 h 33.0937 l 41.0225,121.3438 q 2.2407,6.8945 11.8931,40.8501 l 6.0327,-20.1665 6.7222,-20.3389 42.4013,-121.6885 h 32.9214 z" /><path
     id="path1071"
     style="fill:#ececec;stroke:none;fill-opacity:1"
     d="m 2307.0649,8800.2544 q -12.7548,0 -21.373,-1.896 v -23.269 q 6.5498,1.0341 14.4785,1.0341 28.957,0 45.8486,-42.5737 l 2.9302,-7.4116 -73.9438,-185.6353 h 33.0937 l 39.2988,103.0733 q 0.8619,2.4131 2.0684,5.8603 1.2066,3.2749 7.7564,22.4073 6.5498,19.1323 7.0669,21.373 l 12.0654,-33.9556 40.8501,-118.7583 h 32.749 L 2378.251,8727 q -11.5484,29.8188 -21.5454,44.2974 -9.9971,14.6508 -22.2349,21.7177 -12.0654,7.2393 -27.4058,7.2393 z" /><path
     id="path1073"
     style="fill:#ececec;stroke:none;fill-opacity:1"
     d="m 2731.251,8605.4839 q 0,60.8442 -21.5454,92.9038 -21.3731,32.0596 -63.2574,32.0596 -41.8842,0 -62.9126,-31.8872 -21.0283,-31.8872 -21.0283,-93.0762 0,-62.5679 20.3389,-93.7656 20.5112,-31.1978 64.6362,-31.1978 42.9185,0 63.2573,31.5425 20.5113,31.5425 20.5113,93.4209 z m -31.5425,0 q 0,-52.5708 -12.2378,-76.1846 -12.0654,-23.6138 -39.9883,-23.6138 -28.6123,0 -41.1948,23.2691 -12.4102,23.269 -12.4102,76.5293 0,51.709 12.5826,75.6675 12.7548,23.9585 40.333,23.9585 27.4057,0 40.1606,-24.4756 12.7549,-24.4756 12.7549,-75.1504 z" /><path
     id="path1075"
     style="fill:#ececec;stroke:none;fill-opacity:1"
     d="m 2777.272,8727 v -37.7476 h 33.6108 V 8727 Z" /><path
     id="path1077"
     style="fill:#ececec;stroke:none;fill-opacity:1"
     d="m 3023.9238,8659.9507 q 0,33.6108 -21.373,52.0537 -21.3731,18.4429 -61.0166,18.4429 -36.8858,0 -58.9483,-16.5469 -21.8901,-16.7192 -26.0268,-49.2959 l 32.0596,-2.9302 q 6.205,43.0908 52.9155,43.0908 23.4414,0 36.7134,-11.5483 13.4443,-11.5483 13.4443,-34.3003 0,-19.8218 -15.3403,-30.853 -15.168,-11.2036 -43.9527,-11.2036 h -17.581 v -26.8887 h 16.8916 q 25.5097,0 39.4712,-11.0313 14.1338,-11.2036 14.1338,-30.853 0,-19.477 -11.5484,-30.6806 -11.376,-11.376 -33.9556,-11.376 -20.5112,0 -33.2661,10.5141 -12.5825,10.5142 -14.6508,29.6465 l -31.1978,-2.4131 q 3.4473,-29.8188 24.648,-46.5381 21.373,-16.7192 54.8115,-16.7192 36.541,0 56.7075,17.064 20.3389,16.8916 20.3389,47.2275 0,23.2691 -13.0996,37.9199 -12.9273,14.4785 -37.7476,19.6494 v 0.6895 q 27.2334,2.9302 42.4014,18.2705 15.1679,15.3403 15.1679,38.6094 z" /><path
     id="path1079"
     style="fill:#ececec;stroke:none;fill-opacity:1"
     d="m 3159.4014,8635.3027 q 0,-49.813 15.5127,-89.4565 15.685,-39.6436 48.0893,-74.6333 h 29.9912 q -32.2319,35.8516 -47.3999,76.1846 -14.9956,40.333 -14.9956,88.25 0,47.7446 14.8233,87.9052 14.9956,40.1607 47.5722,76.5293 h -29.9912 q -32.5766,-35.1621 -48.0893,-74.8056 -15.5127,-39.816 -15.5127,-89.2842 z" /><path
     id="path1081"
     style="fill:#ececec;stroke:none;fill-opacity:1"
     d="m 3457.4175,8727 h -36.0239 l -32.5767,-131.8579 -6.2051,-29.1294 q -1.5513,7.7563 -4.8262,22.4072 -3.2749,14.4785 -35.1621,138.5801 h -35.8515 l -52.2261,-186.4971 h 30.6807 l 31.5424,126.687 q 1.2066,4.1368 7.4117,34.128 l 2.9301,-12.7549 38.9541,-148.0601 h 33.2662 l 32.5766,128.0659 7.9287,32.7491 5.3433,-23.9585 35.3345,-136.8565 h 30.3359 z" /><path
     id="path1083"
     style="fill:#ececec;stroke:none;fill-opacity:1"
     d="m 3691.4868,8633.5791 q 0,48.9512 -21.5454,72.9097 -21.5454,23.9585 -62.5679,23.9585 -40.8501,0 -61.706,-24.8203 -20.856,-24.9927 -20.856,-72.0479 0,-96.5234 83.5962,-96.5234 42.7461,0 62.9126,23.6137 20.1665,23.4414 20.1665,72.9097 z m -32.5766,0 q 0,-38.6094 -11.5484,-56.0181 -11.376,-17.581 -38.437,-17.581 -27.2334,0 -39.4712,17.9258 -12.0654,17.7534 -12.0654,55.6733 0,36.8857 11.8931,55.501 12.0654,18.4428 37.7475,18.4428 27.9229,0 39.8159,-17.9257 12.0655,-17.9258 12.0655,-56.0181 z" /><path
     id="path1085"
     style="fill:#ececec;stroke:none;fill-opacity:1"
     d="m 3730.7856,8727 v -143.0615 q 0,-19.6494 -1.0341,-43.4356 h 29.3017 q 1.3789,31.7149 1.3789,38.0923 h 0.6895 q 7.4116,-23.9585 17.0639,-32.749 9.6524,-8.7905 27.2334,-8.7905 6.2051,0 12.5826,1.7236 v 28.4399 q -6.2051,-1.7236 -16.5469,-1.7236 -19.3047,0 -29.4741,16.7192 -10.1695,16.5469 -10.1695,47.5723 V 8727 Z" /><path
     id="path1087"
     style="fill:#ececec;stroke:none;fill-opacity:1"
     d="m 3847.6479,8727 v -255.7871 h 31.0254 V 8727 Z" /><path
     id="path1089"
     style="fill:#ececec;stroke:none;fill-opacity:1"
     d="m 4043.7974,8697.0088 q -8.6182,17.9258 -22.9244,25.6821 -14.1337,7.7564 -35.1621,7.7564 -35.3344,0 -52.0537,-23.7862 -16.5468,-23.7861 -16.5468,-72.0478 0,-97.5576 68.6005,-97.5576 21.2007,0 35.3345,7.7563 14.1338,7.7564 22.752,24.648 h 0.3447 l -0.3447,-20.856 v -77.3911 h 31.0254 v 217.3501 q 0,29.1294 1.0341,38.437 h -29.6465 q -0.517,-2.7578 -1.2065,-12.7549 -0.5171,-9.9971 -0.5171,-17.2363 z m -94.1104,-63.4297 q 0,39.1265 10.3418,56.0181 10.3418,16.8916 33.6108,16.8916 26.3716,0 38.2647,-18.2705 11.8931,-18.2705 11.8931,-56.7076 0,-37.0581 -11.8931,-54.2944 -11.8931,-17.2363 -37.9199,-17.2363 -23.4414,0 -33.9556,17.4087 -10.3418,17.2363 -10.3418,56.1904 z" /><path
     id="path1091"
     style="fill:#ececec;stroke:none;fill-opacity:1"
     d="m 4194.2705,8635.9922 q 0,49.813 -15.6851,89.4565 -15.5126,39.6436 -47.9169,74.6333 h -29.9913 q 32.4043,-36.1963 47.3999,-76.1845 14.9957,-40.1607 14.9957,-88.25 0,-48.0894 -15.168,-88.25 -14.9956,-40.1607 -47.2276,-76.1846 h 29.9913 q 32.5766,35.1621 48.0893,74.978 15.5127,39.6436 15.5127,89.1118 z" /></g>
 <g
   style="fill:#ececec;fill-opacity:1"
   class="TextShape"
   id="text96"
   aria-label="bevy 0.3 (system)"><path
     id="path1094"
     style="fill:#ececec;stroke:none;fill-opacity:1"
     d="m 5202.4985,8632.8896 q 0,97.5577 -68.6006,97.5577 -21.2006,0 -35.3344,-7.584 -13.9614,-7.7564 -22.752,-24.8203 h -0.3447 q 0,5.3432 -0.6895,16.3745 -0.6894,10.8589 -1.0341,12.5825 h -29.9912 q 1.0341,-9.3076 1.0341,-38.437 v -217.3501 h 31.0254 v 72.9097 q 0,11.2036 -0.6894,26.3715 h 0.6894 q 8.6182,-17.9257 22.752,-25.6821 14.3061,-7.7563 35.3344,-7.7563 35.3345,0 51.8814,23.7861 16.7192,23.7861 16.7192,72.0478 z m -32.5766,1.0342 q 0,-39.1264 -10.3418,-56.018 -10.3418,-16.8916 -33.6109,-16.8916 -26.1992,0 -38.2646,17.9257 -11.8931,17.9258 -11.8931,56.8799 0,36.7134 11.7207,54.2945 11.7207,17.4086 38.0923,17.4086 23.4414,0 33.7832,-17.2363 10.5142,-17.4087 10.5142,-56.3628 z" /><path
     id="path1096"
     style="fill:#ececec;stroke:none;fill-opacity:1"
     d="m 5264.894,8640.3013 q 0,32.0595 13.272,49.4682 13.272,17.4087 38.7818,17.4087 20.1665,0 32.2319,-8.1011 12.2378,-8.101 16.5469,-20.5112 l 27.2334,7.7564 q -16.7193,44.125 -76.0122,44.125 -41.3672,0 -63.085,-24.648 -21.5454,-24.6479 -21.5454,-73.2544 0,-46.1933 21.5454,-70.8413 21.7178,-24.6479 61.8784,-24.6479 82.2173,0 82.2173,99.1089 v 4.1367 z m 101.0049,-23.7862 q -2.5854,-29.4741 -14.9956,-42.9184 -12.4101,-13.6167 -35.6792,-13.6167 -22.5796,0 -35.8515,15.1679 -13.0997,14.9957 -14.1338,41.3672 z" /><path
     id="path1098"
     style="fill:#ececec;stroke:none;fill-opacity:1"
     d="m 5519.3022,8727 h -36.7133 l -67.7388,-186.4971 h 33.0937 l 41.0225,121.3438 q 2.2407,6.8945 11.8931,40.8501 l 6.0327,-20.1665 6.7222,-20.3389 42.4013,-121.6885 h 32.9214 z" /><path
     id="path1100"
     style="fill:#ececec;stroke:none;fill-opacity:1"
     d="m 5623.0649,8800.2544 q -12.7548,0 -21.373,-1.896 v -23.269 q 6.5498,1.0341 14.4785,1.0341 28.957,0 45.8486,-42.5737 l 2.9302,-7.4116 -73.9438,-185.6353 h 33.0937 l 39.2988,103.0733 q 0.8619,2.4131 2.0684,5.8603 1.2066,3.2749 7.7564,22.4073 6.5498,19.1323 7.0669,21.373 l 12.0654,-33.9556 40.8501,-118.7583 h 32.749 L 5694.251,8727 q -11.5484,29.8188 -21.5454,44.2974 -9.9971,14.6508 -22.2349,21.7177 -12.0654,7.2393 -27.4058,7.2393 z" /><path
     id="path1102"
     style="fill:#ececec;stroke:none;fill-opacity:1"
     d="m 6047.251,8605.4839 q 0,60.8442 -21.5454,92.9038 -21.3731,32.0596 -63.2574,32.0596 -41.8842,0 -62.9126,-31.8872 -21.0283,-31.8872 -21.0283,-93.0762 0,-62.5679 20.3389,-93.7656 20.5112,-31.1978 64.6362,-31.1978 42.9185,0 63.2573,31.5425 20.5113,31.5425 20.5113,93.4209 z m -31.5425,0 q 0,-52.5708 -12.2378,-76.1846 -12.0654,-23.6138 -39.9883,-23.6138 -28.6123,0 -41.1948,23.2691 -12.4102,23.269 -12.4102,76.5293 0,51.709 12.5826,75.6675 12.7548,23.9585 40.333,23.9585 27.4057,0 40.1606,-24.4756 12.7549,-24.4756 12.7549,-75.1504 z" /><path
     id="path1104"
     style="fill:#ececec;stroke:none;fill-opacity:1"
     d="m 6093.272,8727 v -37.7476 h 33.6108 V 8727 Z" /><path
     id="path1106"
     style="fill:#ececec;stroke:none;fill-opacity:1"
     d="m 6339.9238,8659.9507 q 0,33.6108 -21.373,52.0537 -21.3731,18.4429 -61.0166,18.4429 -36.8858,0 -58.9483,-16.5469 -21.8901,-16.7192 -26.0268,-49.2959 l 32.0596,-2.9302 q 6.205,43.0908 52.9155,43.0908 23.4414,0 36.7134,-11.5483 13.4443,-11.5483 13.4443,-34.3003 0,-19.8218 -15.3403,-30.853 -15.168,-11.2036 -43.9527,-11.2036 h -17.581 v -26.8887 h 16.8916 q 25.5097,0 39.4712,-11.0313 14.1338,-11.2036 14.1338,-30.853 0,-19.477 -11.5484,-30.6806 -11.376,-11.376 -33.9556,-11.376 -20.5112,0 -33.2661,10.5141 -12.5825,10.5142 -14.6508,29.6465 l -31.1978,-2.4131 q 3.4473,-29.8188 24.6479,-46.5381 21.3731,-16.7192 54.8116,-16.7192 36.541,0 56.7075,17.064 20.3389,16.8916 20.3389,47.2275 0,23.2691 -13.0996,37.9199 -12.9273,14.4785 -37.7476,19.6494 v 0.6895 q 27.2334,2.9302 42.4014,18.2705 15.1679,15.3403 15.1679,38.6094 z" /><path
     id="path1108"
     style="fill:#ececec;stroke:none;fill-opacity:1"
     d="m 6475.4014,8635.3027 q 0,-49.813 15.5127,-89.4565 15.685,-39.6436 48.0893,-74.6333 h 29.9912 q -32.2319,35.8516 -47.3999,76.1846 -14.9956,40.333 -14.9956,88.25 0,47.7446 14.8233,87.9052 14.9956,40.1607 47.5722,76.5293 h -29.9912 q -32.5766,-35.1621 -48.0893,-74.8056 -15.5127,-39.816 -15.5127,-89.2842 z" /><path
     id="path1110"
     style="fill:#ececec;stroke:none;fill-opacity:1"
     d="m 6734.8081,8675.4634 q 0,26.3716 -19.9941,40.6777 -19.8218,14.3062 -55.6734,14.3062 -34.8174,0 -53.7773,-11.376 -18.7876,-11.5484 -24.4756,-35.8516 l 27.4058,-5.3432 q 3.9643,14.9956 16.3745,22.0625 12.4101,6.8945 34.4726,6.8945 23.6138,0 34.4727,-7.2393 11.0312,-7.2392 11.0312,-21.7177 0,-11.0313 -7.584,-17.9258 -7.5839,-6.8945 -24.4755,-11.376 l -22.2349,-5.8603 q -26.7163,-6.8946 -38.0923,-13.4444 -11.2036,-6.7221 -17.581,-16.2021 -6.3775,-9.48 -6.3775,-23.2691 0,-25.5097 18.0982,-38.7817 18.2705,-13.4443 53.0879,-13.4443 30.853,0 48.9511,10.8588 18.2705,10.8589 23.0967,34.8174 l -27.9228,3.4473 q -2.5855,-12.4102 -13.9615,-18.96 -11.2036,-6.7221 -30.1635,-6.7221 -21.0284,0 -31.0254,6.3774 -9.9971,6.3774 -9.9971,19.3047 0,7.9287 4.1367,13.0996 4.1367,5.1709 12.2378,8.7905 8.1011,3.6197 34.1279,9.9971 24.648,6.2051 35.5069,11.5483 10.8589,5.1709 17.0639,11.5484 6.3775,6.3774 9.8247,14.8232 3.4473,8.2735 3.4473,18.96 z" /><path
     id="path1112"
     style="fill:#ececec;stroke:none;fill-opacity:1"
     d="m 6780.4844,8800.2544 q -12.7549,0 -21.3731,-1.896 v -23.269 q 6.5498,1.0341 14.4785,1.0341 28.9571,0 45.8487,-42.5737 l 2.9302,-7.4116 -73.9439,-185.6353 h 33.0938 l 39.2988,103.0733 q 0.8618,2.4131 2.0683,5.8603 1.2066,3.2749 7.7564,22.4073 6.5498,19.1323 7.0669,21.373 l 12.0654,-33.9556 40.8501,-118.7583 h 32.749 L 6851.6704,8727 q -11.5483,29.8188 -21.5454,44.2974 -9.9971,14.6508 -22.2349,21.7177 -12.0654,7.2393 -27.4057,7.2393 z" /><path
     id="path1114"
     style="fill:#ececec;stroke:none;fill-opacity:1"
     d="m 7087.8081,8675.4634 q 0,26.3716 -19.9941,40.6777 -19.8218,14.3062 -55.6734,14.3062 -34.8174,0 -53.7773,-11.376 -18.7876,-11.5484 -24.4756,-35.8516 l 27.4058,-5.3432 q 3.9643,14.9956 16.3745,22.0625 12.4101,6.8945 34.4726,6.8945 23.6138,0 34.4727,-7.2393 11.0312,-7.2392 11.0312,-21.7177 0,-11.0313 -7.584,-17.9258 -7.5839,-6.8945 -24.4755,-11.376 l -22.2349,-5.8603 q -26.7163,-6.8946 -38.0923,-13.4444 -11.2036,-6.7221 -17.581,-16.2021 -6.3775,-9.48 -6.3775,-23.2691 0,-25.5097 18.0982,-38.7817 18.2705,-13.4443 53.0879,-13.4443 30.853,0 48.9511,10.8588 18.2705,10.8589 23.0967,34.8174 l -27.9228,3.4473 q -2.5855,-12.4102 -13.9615,-18.96 -11.2036,-6.7221 -30.1635,-6.7221 -21.0284,0 -31.0254,6.3774 -9.9971,6.3774 -9.9971,19.3047 0,7.9287 4.1367,13.0996 4.1367,5.1709 12.2378,8.7905 8.1011,3.6197 34.1279,9.9971 24.648,6.2051 35.5069,11.5483 10.8589,5.1709 17.0639,11.5484 6.3775,6.3774 9.8247,14.8232 3.4473,8.2735 3.4473,18.96 z" /><path
     id="path1116"
     style="fill:#ececec;stroke:none;fill-opacity:1"
     d="m 7196.0522,8725.6211 q -15.3403,4.1367 -31.3701,4.1367 -37.2304,0 -37.2304,-42.229 v -124.4463 h -21.5455 v -22.5796 h 22.752 l 9.1353,-41.7119 h 20.6836 v 41.7119 h 34.4726 v 22.5796 h -34.4726 v 117.7241 q 0,13.4444 4.309,18.96 4.4815,5.3433 15.3404,5.3433 6.205,0 17.9257,-2.4131 z" /><path
     id="path1118"
     style="fill:#ececec;stroke:none;fill-opacity:1"
     d="m 7246.21,8640.3013 q 0,32.0595 13.2719,49.4682 13.272,17.4087 38.7818,17.4087 20.1665,0 32.2319,-8.1011 12.2378,-8.101 16.5469,-20.5112 l 27.2334,7.7564 q -16.7193,44.125 -76.0122,44.125 -41.3672,0 -63.085,-24.648 -21.5454,-24.6479 -21.5454,-73.2544 0,-46.1933 21.5454,-70.8413 21.7178,-24.6479 61.8784,-24.6479 82.2173,0 82.2173,99.1089 v 4.1367 z m 101.0048,-23.7862 q -2.5854,-29.4741 -14.9956,-42.9184 -12.4101,-13.6167 -35.6792,-13.6167 -22.5796,0 -35.8515,15.1679 -13.0996,14.9957 -14.1338,41.3672 z" /><path
     id="path1120"
     style="fill:#ececec;stroke:none;fill-opacity:1"
     d="m 7527.3345,8727 v -118.2412 q 0,-27.061 -7.4116,-37.4028 -7.4117,-10.3418 -26.7164,-10.3418 -19.8217,0 -31.3701,15.1679 -11.5483,15.168 -11.5483,42.7461 V 8727 h -30.853 v -146.6812 q 0,-32.5766 -1.0342,-39.8159 h 29.3017 q 0.1724,0.8618 0.3448,4.6538 0.1723,3.792 0.3447,8.7906 0.3447,4.8261 0.6894,18.4428 h 0.5171 q 9.9971,-19.8217 22.9243,-27.5781 12.9273,-7.7563 31.5425,-7.7563 21.2007,0 33.4385,8.4458 12.4102,8.4458 17.2363,26.8886 h 0.5171 q 9.6524,-18.7876 23.2691,-27.061 13.789,-8.2734 33.2661,-8.2734 28.2676,0 41.0224,15.3403 12.9273,15.3403 12.9273,50.3301 V 8727 h -30.6807 v -118.2412 q 0,-27.061 -7.4116,-37.4028 -7.4116,-10.3418 -26.7163,-10.3418 -20.3389,0 -31.7149,15.1679 -11.2036,14.9956 -11.2036,42.7461 V 8727 Z" /><path
     id="path1122"
     style="fill:#ececec;stroke:none;fill-opacity:1"
     d="m 7784.6729,8635.9922 q 0,49.813 -15.6851,89.4565 -15.5127,39.6436 -47.917,74.6333 h -29.9912 q 32.4043,-36.1963 47.3999,-76.1845 14.9956,-40.1607 14.9956,-88.25 0,-48.0894 -15.168,-88.25 -14.9956,-40.1607 -47.2275,-76.1846 h 29.9912 q 32.5767,35.1621 48.0894,74.978 15.5127,39.6436 15.5127,89.1118 z" /></g>
 <g
   style="fill:#ececec;fill-opacity:1"
   class="TextShape"
   id="text104"
   aria-label="bevy 0.2 (world)"><path
     id="path1125"
     style="fill:#ececec;stroke:none;fill-opacity:1"
     d="m 8863.4985,8632.8896 q 0,97.5577 -68.6006,97.5577 -21.2006,0 -35.3344,-7.584 -13.9614,-7.7564 -22.752,-24.8203 h -0.3447 q 0,5.3432 -0.6895,16.3745 -0.6894,10.8589 -1.0341,12.5825 h -29.9912 q 1.0341,-9.3076 1.0341,-38.437 v -217.3501 h 31.0254 v 72.9097 q 0,11.2036 -0.6894,26.3715 h 0.6894 q 8.6182,-17.9257 22.752,-25.6821 14.3061,-7.7563 35.3344,-7.7563 35.3345,0 51.8814,23.7861 16.7192,23.7861 16.7192,72.0478 z m -32.5766,1.0342 q 0,-39.1264 -10.3418,-56.018 -10.3418,-16.8916 -33.6109,-16.8916 -26.1992,0 -38.2646,17.9257 -11.8931,17.9258 -11.8931,56.8799 0,36.7134 11.7207,54.2945 11.7207,17.4086 38.0923,17.4086 23.4414,0 33.7832,-17.2363 10.5142,-17.4087 10.5142,-56.3628 z" /><path
     id="path1127"
     style="fill:#ececec;stroke:none;fill-opacity:1"
     d="m 8925.894,8640.3013 q 0,32.0595 13.272,49.4682 13.272,17.4087 38.7818,17.4087 20.1665,0 32.2319,-8.1011 12.2378,-8.101 16.5469,-20.5112 l 27.2334,7.7564 q -16.7193,44.125 -76.0122,44.125 -41.3672,0 -63.085,-24.648 -21.5454,-24.6479 -21.5454,-73.2544 0,-46.1933 21.5454,-70.8413 21.7178,-24.6479 61.8784,-24.6479 82.2173,0 82.2173,99.1089 v 4.1367 z m 101.0049,-23.7862 q -2.5854,-29.4741 -14.9956,-42.9184 -12.4101,-13.6167 -35.6792,-13.6167 -22.5796,0 -35.8515,15.1679 -13.0997,14.9957 -14.1338,41.3672 z" /><path
     id="path1129"
     style="fill:#ececec;stroke:none;fill-opacity:1"
     d="m 9180.3022,8727 h -36.7133 l -67.7388,-186.4971 h 33.0937 l 41.0225,121.3438 q 2.2407,6.8945 11.8931,40.8501 l 6.0327,-20.1665 6.7222,-20.3389 42.4013,-121.6885 h 32.9214 z" /><path
     id="path1131"
     style="fill:#ececec;stroke:none;fill-opacity:1"
     d="m 9284.0649,8800.2544 q -12.7548,0 -21.373,-1.896 v -23.269 q 6.5498,1.0341 14.4785,1.0341 28.957,0 45.8486,-42.5737 l 2.9302,-7.4116 -73.9438,-185.6353 h 33.0937 l 39.2988,103.0733 q 0.8619,2.4131 2.0684,5.8603 1.2066,3.2749 7.7564,22.4073 6.5498,19.1323 7.0669,21.373 l 12.0654,-33.9556 40.8501,-118.7583 h 32.749 L 9355.251,8727 q -11.5484,29.8188 -21.5454,44.2974 -9.9971,14.6508 -22.2349,21.7177 -12.0654,7.2393 -27.4058,7.2393 z" /><path
     id="path1133"
     style="fill:#ececec;stroke:none;fill-opacity:1"
     d="m 9708.251,8605.4839 q 0,60.8442 -21.5454,92.9038 -21.3731,32.0596 -63.2574,32.0596 -41.8842,0 -62.9126,-31.8872 -21.0283,-31.8872 -21.0283,-93.0762 0,-62.5679 20.3389,-93.7656 20.5112,-31.1978 64.6362,-31.1978 42.9185,0 63.2573,31.5425 20.5113,31.5425 20.5113,93.4209 z m -31.5425,0 q 0,-52.5708 -12.2378,-76.1846 -12.0654,-23.6138 -39.9883,-23.6138 -28.6123,0 -41.1948,23.2691 -12.4102,23.269 -12.4102,76.5293 0,51.709 12.5826,75.6675 12.7548,23.9585 40.333,23.9585 27.4057,0 40.1606,-24.4756 12.7549,-24.4756 12.7549,-75.1504 z" /><path
     id="path1135"
     style="fill:#ececec;stroke:none;fill-opacity:1"
     d="m 9754.272,8727 v -37.7476 h 33.6108 V 8727 Z" /><path
     id="path1137"
     style="fill:#ececec;stroke:none;fill-opacity:1"
     d="m 9837.8682,8727 v -21.8901 q 8.7905,-20.1665 21.373,-35.5069 12.7549,-15.5127 26.7163,-27.9228 13.9614,-12.5825 27.5781,-23.2691 13.7891,-10.6865 24.8204,-21.373 11.0312,-10.6865 17.7534,-22.4072 6.8945,-11.7207 6.8945,-26.544 0,-19.9941 -11.7207,-31.0254 -11.7207,-11.0312 -32.5767,-11.0312 -19.8217,0 -32.749,10.8589 -12.7549,10.6865 -14.9956,30.1635 l -31.7148,-2.9301 q 3.4472,-29.1294 24.6479,-46.3658 21.3731,-17.2363 54.8115,-17.2363 36.7134,0 56.3628,17.4087 19.8218,17.2363 19.8218,49.1235 0,14.1338 -6.5498,28.0952 -6.3774,13.9615 -19.1323,27.9229 -12.7549,13.9614 -48.7788,43.2632 -19.8218,16.2021 -31.5425,29.3017 -11.7207,12.9273 -16.8916,24.9927 h 126.687 V 8727 Z" /><path
     id="path1139"
     style="fill:#ececec;stroke:none;fill-opacity:1"
     d="m 10136.401,8635.3027 q 0,-49.813 15.513,-89.4565 15.685,-39.6436 48.089,-74.6333 h 29.992 q -32.232,35.8516 -47.4,76.1846 -14.996,40.333 -14.996,88.25 0,47.7446 14.823,87.9052 14.996,40.1607 47.573,76.5293 h -29.992 q -32.576,-35.1621 -48.089,-74.8056 -15.513,-39.816 -15.513,-89.2842 z" /><path
     id="path1141"
     style="fill:#ececec;stroke:none;fill-opacity:1"
     d="m 10434.417,8727 h -36.023 l -32.577,-131.8579 -6.205,-29.1294 q -1.551,7.7563 -4.826,22.4072 -3.275,14.4785 -35.162,138.5801 h -35.852 l -52.226,-186.4971 h 30.681 l 31.542,126.687 q 1.207,4.1368 7.412,34.128 l 2.93,-12.7549 38.954,-148.0601 h 33.266 l 32.577,128.0659 7.928,32.7491 5.344,-23.9585 35.334,-136.8565 h 30.336 z" /><path
     id="path1143"
     style="fill:#ececec;stroke:none;fill-opacity:1"
     d="m 10668.487,8633.5791 q 0,48.9512 -21.546,72.9097 -21.545,23.9585 -62.567,23.9585 -40.851,0 -61.707,-24.8203 -20.855,-24.9927 -20.855,-72.0479 0,-96.5234 83.596,-96.5234 42.746,0 62.912,23.6137 20.167,23.4414 20.167,72.9097 z m -32.577,0 q 0,-38.6094 -11.548,-56.0181 -11.376,-17.581 -38.437,-17.581 -27.234,0 -39.471,17.9258 -12.066,17.7534 -12.066,55.6733 0,36.8857 11.893,55.501 12.066,18.4428 37.748,18.4428 27.923,0 39.816,-17.9257 12.065,-17.9258 12.065,-56.0181 z" /><path
     id="path1145"
     style="fill:#ececec;stroke:none;fill-opacity:1"
     d="m 10707.786,8727 v -143.0615 q 0,-19.6494 -1.035,-43.4356 h 29.302 q 1.379,31.7149 1.379,38.0923 h 0.69 q 7.411,-23.9585 17.064,-32.749 9.652,-8.7905 27.233,-8.7905 6.205,0 12.582,1.7236 v 28.4399 q -6.205,-1.7236 -16.546,-1.7236 -19.305,0 -29.475,16.7192 -10.169,16.5469 -10.169,47.5723 V 8727 Z" /><path
     id="path1147"
     style="fill:#ececec;stroke:none;fill-opacity:1"
     d="m 10824.648,8727 v -255.7871 h 31.025 V 8727 Z" /><path
     id="path1149"
     style="fill:#ececec;stroke:none;fill-opacity:1"
     d="m 11020.797,8697.0088 q -8.618,17.9258 -22.924,25.6821 -14.134,7.7564 -35.162,7.7564 -35.335,0 -52.054,-23.7862 -16.547,-23.7861 -16.547,-72.0478 0,-97.5576 68.601,-97.5576 21.201,0 35.334,7.7563 14.134,7.7564 22.752,24.648 h 0.345 l -0.345,-20.856 v -77.3911 h 31.026 v 217.3501 q 0,29.1294 1.034,38.437 h -29.647 q -0.517,-2.7578 -1.206,-12.7549 -0.517,-9.9971 -0.517,-17.2363 z m -94.11,-63.4297 q 0,39.1265 10.342,56.0181 10.342,16.8916 33.611,16.8916 26.371,0 38.264,-18.2705 11.893,-18.2705 11.893,-56.7076 0,-37.0581 -11.893,-54.2944 -11.893,-17.2363 -37.92,-17.2363 -23.441,0 -33.955,17.4087 -10.342,17.2363 -10.342,56.1904 z" /><path
     id="path1151"
     style="fill:#ececec;stroke:none;fill-opacity:1"
     d="m 11171.271,8635.9922 q 0,49.813 -15.686,89.4565 -15.512,39.6436 -47.917,74.6333 h -29.991 q 32.405,-36.1963 47.4,-76.1845 14.996,-40.1607 14.996,-88.25 0,-48.0894 -15.168,-88.25 -14.996,-40.1607 -47.228,-76.1846 h 29.991 q 32.577,35.1621 48.09,74.978 15.513,39.6436 15.513,89.1118 z" /></g>
 <g
   style="fill:#ececec;fill-opacity:1"
   class="TextShape"
   id="text112"
   aria-label="bevy 0.2 (system)"><path
     id="path1154"
     style="fill:#ececec;stroke:none;fill-opacity:1"
     d="m 12180.499,8632.8896 q 0,97.5577 -68.601,97.5577 -21.201,0 -35.335,-7.584 -13.961,-7.7564 -22.751,-24.8203 h -0.345 q 0,5.3432 -0.69,16.3745 -0.689,10.8589 -1.034,12.5825 h -29.991 q 1.034,-9.3076 1.034,-38.437 v -217.3501 h 31.026 v 72.9097 q 0,11.2036 -0.69,26.3715 h 0.69 q 8.618,-17.9257 22.751,-25.6821 14.307,-7.7563 35.335,-7.7563 35.334,0 51.881,23.7861 16.72,23.7861 16.72,72.0478 z m -32.577,1.0342 q 0,-39.1264 -10.342,-56.018 -10.342,-16.8916 -33.611,-16.8916 -26.199,0 -38.264,17.9257 -11.893,17.9258 -11.893,56.8799 0,36.7134 11.72,54.2945 11.721,17.4086 38.093,17.4086 23.441,0 33.783,-17.2363 10.514,-17.4087 10.514,-56.3628 z" /><path
     id="path1156"
     style="fill:#ececec;stroke:none;fill-opacity:1"
     d="m 12242.894,8640.3013 q 0,32.0595 13.272,49.4682 13.272,17.4087 38.782,17.4087 20.166,0 32.232,-8.1011 12.237,-8.101 16.547,-20.5112 l 27.233,7.7564 q -16.719,44.125 -76.012,44.125 -41.367,0 -63.085,-24.648 -21.546,-24.6479 -21.546,-73.2544 0,-46.1933 21.546,-70.8413 21.718,-24.6479 61.878,-24.6479 82.217,0 82.217,99.1089 v 4.1367 z m 101.005,-23.7862 q -2.586,-29.4741 -14.996,-42.9184 -12.41,-13.6167 -35.679,-13.6167 -22.579,0 -35.851,15.1679 -13.1,14.9957 -14.134,41.3672 z" /><path
     id="path1158"
     style="fill:#ececec;stroke:none;fill-opacity:1"
     d="m 12497.302,8727 h -36.713 l -67.739,-186.4971 h 33.094 l 41.022,121.3438 q 2.241,6.8945 11.893,40.8501 l 6.033,-20.1665 6.722,-20.3389 42.402,-121.6885 h 32.921 z" /><path
     id="path1160"
     style="fill:#ececec;stroke:none;fill-opacity:1"
     d="m 12601.065,8800.2544 q -12.755,0 -21.373,-1.896 v -23.269 q 6.55,1.0341 14.478,1.0341 28.957,0 45.849,-42.5737 l 2.93,-7.4116 -73.944,-185.6353 h 33.094 l 39.299,103.0733 q 0.862,2.4131 2.068,5.8603 1.207,3.2749 7.757,22.4073 6.549,19.1323 7.067,21.373 l 12.065,-33.9556 40.85,-118.7583 h 32.749 L 12672.251,8727 q -11.548,29.8188 -21.545,44.2974 -9.998,14.6508 -22.235,21.7177 -12.066,7.2393 -27.406,7.2393 z" /><path
     id="path1162"
     style="fill:#ececec;stroke:none;fill-opacity:1"
     d="m 13025.251,8605.4839 q 0,60.8442 -21.545,92.9038 -21.373,32.0596 -63.258,32.0596 -41.884,0 -62.912,-31.8872 -21.029,-31.8872 -21.029,-93.0762 0,-62.5679 20.339,-93.7656 20.511,-31.1978 64.636,-31.1978 42.919,0 63.258,31.5425 20.511,31.5425 20.511,93.4209 z m -31.543,0 q 0,-52.5708 -12.237,-76.1846 -12.066,-23.6138 -39.989,-23.6138 -28.612,0 -41.194,23.2691 -12.411,23.269 -12.411,76.5293 0,51.709 12.583,75.6675 12.755,23.9585 40.333,23.9585 27.406,0 40.161,-24.4756 12.754,-24.4756 12.754,-75.1504 z" /><path
     id="path1164"
     style="fill:#ececec;stroke:none;fill-opacity:1"
     d="m 13071.272,8727 v -37.7476 h 33.611 V 8727 Z" /><path
     id="path1166"
     style="fill:#ececec;stroke:none;fill-opacity:1"
     d="m 13154.868,8727 v -21.8901 q 8.791,-20.1665 21.373,-35.5069 12.755,-15.5127 26.717,-27.9228 13.961,-12.5825 27.578,-23.2691 13.789,-10.6865 24.82,-21.373 11.031,-10.6865 17.753,-22.4072 6.895,-11.7207 6.895,-26.544 0,-19.9941 -11.721,-31.0254 -11.72,-11.0312 -32.576,-11.0312 -19.822,0 -32.749,10.8589 -12.755,10.6865 -14.996,30.1635 l -31.715,-2.9301 q 3.447,-29.1294 24.648,-46.3658 21.373,-17.2363 54.812,-17.2363 36.713,0 56.362,17.4087 19.822,17.2363 19.822,49.1235 0,14.1338 -6.55,28.0952 -6.377,13.9615 -19.132,27.9229 -12.755,13.9614 -48.779,43.2632 -19.822,16.2021 -31.542,29.3017 -11.721,12.9273 -16.892,24.9927 h 126.687 V 8727 Z" /><path
     id="path1168"
     style="fill:#ececec;stroke:none;fill-opacity:1"
     d="m 13453.401,8635.3027 q 0,-49.813 15.513,-89.4565 15.685,-39.6436 48.089,-74.6333 h 29.992 q -32.232,35.8516 -47.4,76.1846 -14.996,40.333 -14.996,88.25 0,47.7446 14.823,87.9052 14.996,40.1607 47.573,76.5293 h -29.992 q -32.576,-35.1621 -48.089,-74.8056 -15.513,-39.816 -15.513,-89.2842 z" /><path
     id="path1170"
     style="fill:#ececec;stroke:none;fill-opacity:1"
     d="m 13712.808,8675.4634 q 0,26.3716 -19.994,40.6777 -19.822,14.3062 -55.673,14.3062 -34.818,0 -53.778,-11.376 -18.787,-11.5484 -24.475,-35.8516 l 27.405,-5.3432 q 3.965,14.9956 16.375,22.0625 12.41,6.8945 34.473,6.8945 23.613,0 34.472,-7.2393 11.032,-7.2392 11.032,-21.7177 0,-11.0313 -7.584,-17.9258 -7.584,-6.8945 -24.476,-11.376 l -22.235,-5.8603 q -26.716,-6.8946 -38.092,-13.4444 -11.204,-6.7221 -17.581,-16.2021 -6.378,-9.48 -6.378,-23.2691 0,-25.5097 18.098,-38.7817 18.271,-13.4443 53.088,-13.4443 30.853,0 48.952,10.8588 18.27,10.8589 23.096,34.8174 l -27.923,3.4473 q -2.585,-12.4102 -13.961,-18.96 -11.204,-6.7221 -30.164,-6.7221 -21.028,0 -31.025,6.3774 -9.997,6.3774 -9.997,19.3047 0,7.9287 4.137,13.0996 4.136,5.1709 12.237,8.7905 8.101,3.6197 34.128,9.9971 24.648,6.2051 35.507,11.5483 10.859,5.1709 17.064,11.5484 6.378,6.3774 9.825,14.8232 3.447,8.2735 3.447,18.96 z" /><path
     id="path1172"
     style="fill:#ececec;stroke:none;fill-opacity:1"
     d="m 13758.484,8800.2544 q -12.755,0 -21.373,-1.896 v -23.269 q 6.55,1.0341 14.479,1.0341 28.957,0 45.848,-42.5737 l 2.931,-7.4116 -73.944,-185.6353 h 33.094 l 39.298,103.0733 q 0.862,2.4131 2.069,5.8603 1.206,3.2749 7.756,22.4073 6.55,19.1323 7.067,21.373 l 12.065,-33.9556 40.851,-118.7583 h 32.749 L 13829.67,8727 q -11.548,29.8188 -21.545,44.2974 -9.997,14.6508 -22.235,21.7177 -12.065,7.2393 -27.406,7.2393 z" /><path
     id="path1174"
     style="fill:#ececec;stroke:none;fill-opacity:1"
     d="m 14065.808,8675.4634 q 0,26.3716 -19.994,40.6777 -19.822,14.3062 -55.673,14.3062 -34.818,0 -53.778,-11.376 -18.787,-11.5484 -24.475,-35.8516 l 27.405,-5.3432 q 3.965,14.9956 16.375,22.0625 12.41,6.8945 34.473,6.8945 23.613,0 34.472,-7.2393 11.032,-7.2392 11.032,-21.7177 0,-11.0313 -7.584,-17.9258 -7.584,-6.8945 -24.476,-11.376 l -22.235,-5.8603 q -26.716,-6.8946 -38.092,-13.4444 -11.204,-6.7221 -17.581,-16.2021 -6.378,-9.48 -6.378,-23.2691 0,-25.5097 18.098,-38.7817 18.271,-13.4443 53.088,-13.4443 30.853,0 48.952,10.8588 18.27,10.8589 23.096,34.8174 l -27.923,3.4473 q -2.585,-12.4102 -13.961,-18.96 -11.204,-6.7221 -30.164,-6.7221 -21.028,0 -31.025,6.3774 -9.997,6.3774 -9.997,19.3047 0,7.9287 4.137,13.0996 4.136,5.1709 12.237,8.7905 8.101,3.6197 34.128,9.9971 24.648,6.2051 35.507,11.5483 10.859,5.1709 17.064,11.5484 6.378,6.3774 9.825,14.8232 3.447,8.2735 3.447,18.96 z" /><path
     id="path1176"
     style="fill:#ececec;stroke:none;fill-opacity:1"
     d="m 14174.052,8725.6211 q -15.34,4.1367 -31.37,4.1367 -37.23,0 -37.23,-42.229 v -124.4463 h -21.546 v -22.5796 h 22.752 l 9.135,-41.7119 h 20.684 v 41.7119 h 34.473 v 22.5796 h -34.473 v 117.7241 q 0,13.4444 4.309,18.96 4.482,5.3433 15.34,5.3433 6.206,0 17.926,-2.4131 z" /><path
     id="path1178"
     style="fill:#ececec;stroke:none;fill-opacity:1"
     d="m 14224.21,8640.3013 q 0,32.0595 13.272,49.4682 13.272,17.4087 38.782,17.4087 20.166,0 32.232,-8.1011 12.237,-8.101 16.546,-20.5112 l 27.234,7.7564 q -16.719,44.125 -76.012,44.125 -41.368,0 -63.085,-24.648 -21.546,-24.6479 -21.546,-73.2544 0,-46.1933 21.546,-70.8413 21.717,-24.6479 61.878,-24.6479 82.217,0 82.217,99.1089 v 4.1367 z m 101.005,-23.7862 q -2.586,-29.4741 -14.996,-42.9184 -12.41,-13.6167 -35.679,-13.6167 -22.58,0 -35.852,15.1679 -13.099,14.9957 -14.133,41.3672 z" /><path
     id="path1180"
     style="fill:#ececec;stroke:none;fill-opacity:1"
     d="m 14505.334,8727 v -118.2412 q 0,-27.061 -7.411,-37.4028 -7.412,-10.3418 -26.716,-10.3418 -19.822,0 -31.371,15.1679 -11.548,15.168 -11.548,42.7461 V 8727 h -30.853 v -146.6812 q 0,-32.5766 -1.034,-39.8159 h 29.302 q 0.172,0.8618 0.344,4.6538 0.173,3.792 0.345,8.7906 0.345,4.8261 0.69,18.4428 h 0.517 q 9.997,-19.8217 22.924,-27.5781 12.927,-7.7563 31.542,-7.7563 21.201,0 33.439,8.4458 12.41,8.4458 17.236,26.8886 h 0.517 q 9.653,-18.7876 23.269,-27.061 13.789,-8.2734 33.266,-8.2734 28.268,0 41.023,15.3403 12.927,15.3403 12.927,50.3301 V 8727 h -30.68 v -118.2412 q 0,-27.061 -7.412,-37.4028 -7.412,-10.3418 -26.716,-10.3418 -20.339,0 -31.715,15.1679 -11.204,14.9956 -11.204,42.7461 V 8727 Z" /><path
     id="path1182"
     style="fill:#ececec;stroke:none;fill-opacity:1"
     d="m 14762.673,8635.9922 q 0,49.813 -15.685,89.4565 -15.513,39.6436 -47.917,74.6333 h -29.991 q 32.404,-36.1963 47.399,-76.1845 14.996,-40.1607 14.996,-88.25 0,-48.0894 -15.168,-88.25 -14.995,-40.1607 -47.227,-76.1846 h 29.991 q 32.576,35.1621 48.089,74.978 15.513,39.6436 15.513,89.1118 z" /></g>
 <g
   style="fill:#ececec;fill-opacity:1"
   class="TextShape"
   id="text120"
   aria-label="legion 0.3.1 (world)"><path
     id="path1185"
     style="fill:#ececec;stroke:none;fill-opacity:1"
     d="m 15457.786,8727 v -255.7871 h 31.026 V 8727 Z" /><path
     id="path1187"
     style="fill:#ececec;stroke:none;fill-opacity:1"
     d="m 15559.998,8640.3013 q 0,32.0595 13.272,49.4682 13.272,17.4087 38.781,17.4087 20.167,0 32.232,-8.1011 12.238,-8.101 16.547,-20.5112 l 27.233,7.7564 q -16.719,44.125 -76.012,44.125 -41.367,0 -63.085,-24.648 -21.545,-24.6479 -21.545,-73.2544 0,-46.1933 21.545,-70.8413 21.718,-24.6479 61.879,-24.6479 82.217,0 82.217,99.1089 v 4.1367 z m 101.004,-23.7862 q -2.585,-29.4741 -14.995,-42.9184 -12.41,-13.6167 -35.679,-13.6167 -22.58,0 -35.852,15.1679 -13.1,14.9957 -14.134,41.3672 z" /><path
     id="path1189"
     style="fill:#ececec;stroke:none;fill-opacity:1"
     d="m 15803.202,8800.2544 q -30.508,0 -48.606,-12.0654 -18.098,-11.8931 -23.269,-33.9556 l 31.197,-4.4814 q 3.103,12.9272 13.617,19.8217 10.687,7.0669 27.923,7.0669 46.366,0 46.366,-54.2944 v -29.9912 h -0.345 q -8.791,17.9258 -24.131,27.061 -15.34,8.9629 -35.851,8.9629 -34.301,0 -50.503,-22.7519 -16.03,-22.752 -16.03,-71.5308 0,-49.4683 17.237,-72.9097 17.408,-23.6137 52.743,-23.6137 19.822,0 34.3,9.1352 14.651,8.9629 22.58,25.6821 h 0.344 q 0,-5.1709 0.69,-17.9257 0.689,-12.7549 1.379,-13.9615 h 29.474 q -1.034,9.3076 -1.034,38.6094 v 142.5444 q 0,78.5977 -78.081,78.5977 z m 47.228,-166.5029 q 0,-22.752 -6.205,-39.1265 -6.205,-16.5469 -17.581,-25.165 -11.204,-8.7906 -25.51,-8.7906 -23.786,0 -34.645,17.2364 -10.859,17.2363 -10.859,55.8457 0,38.2646 10.169,54.9839 10.17,16.7192 34.818,16.7192 14.651,0 26.027,-8.6182 11.376,-8.6181 17.581,-24.6479 6.205,-16.2022 6.205,-38.437 z" /><path
     id="path1191"
     style="fill:#ececec;stroke:none;fill-opacity:1"
     d="m 15928.683,8500.8594 v -29.6465 h 31.025 v 29.6465 z m 0,226.1406 v -186.4971 h 31.025 V 8727 Z" /><path
     id="path1193"
     style="fill:#ececec;stroke:none;fill-opacity:1"
     d="m 16164.993,8633.5791 q 0,48.9512 -21.546,72.9097 -21.545,23.9585 -62.568,23.9585 -40.85,0 -61.706,-24.8203 -20.856,-24.9927 -20.856,-72.0479 0,-96.5234 83.597,-96.5234 42.746,0 62.912,23.6137 20.167,23.4414 20.167,72.9097 z m -32.577,0 q 0,-38.6094 -11.548,-56.0181 -11.376,-17.581 -38.437,-17.581 -27.234,0 -39.472,17.9258 -12.065,17.7534 -12.065,55.6733 0,36.8857 11.893,55.501 12.066,18.4428 37.748,18.4428 27.923,0 39.816,-17.9257 12.065,-17.9258 12.065,-56.0181 z" /><path
     id="path1195"
     style="fill:#ececec;stroke:none;fill-opacity:1"
     d="m 16322.016,8727 v -118.2412 q 0,-18.4429 -3.62,-28.6123 -3.62,-10.1694 -11.548,-14.6509 -7.929,-4.4814 -23.269,-4.4814 -22.408,0 -35.335,15.3403 -12.927,15.3403 -12.927,42.5737 V 8727 h -31.025 v -146.6812 q 0,-32.5766 -1.035,-39.8159 h 29.302 q 0.172,0.8618 0.345,4.6538 0.172,3.792 0.345,8.7906 0.344,4.8261 0.689,18.4428 h 0.517 q 10.687,-19.3047 24.648,-27.2334 14.134,-8.101 34.99,-8.101 30.68,0 44.814,15.3403 14.306,15.168 14.306,50.3301 V 8727 Z" /><path
     id="path1197"
     style="fill:#ececec;stroke:none;fill-opacity:1"
     d="m 16656.745,8605.4839 q 0,60.8442 -21.545,92.9038 -21.373,32.0596 -63.258,32.0596 -41.884,0 -62.912,-31.8872 -21.029,-31.8872 -21.029,-93.0762 0,-62.5679 20.339,-93.7656 20.512,-31.1978 64.637,-31.1978 42.918,0 63.257,31.5425 20.511,31.5425 20.511,93.4209 z m -31.542,0 q 0,-52.5708 -12.238,-76.1846 -12.066,-23.6138 -39.988,-23.6138 -28.613,0 -41.195,23.2691 -12.41,23.269 -12.41,76.5293 0,51.709 12.582,75.6675 12.755,23.9585 40.333,23.9585 27.406,0 40.161,-24.4756 12.755,-24.4756 12.755,-75.1504 z" /><path
     id="path1199"
     style="fill:#ececec;stroke:none;fill-opacity:1"
     d="m 16702.766,8727 v -37.7476 h 33.611 V 8727 Z" /><path
     id="path1201"
     style="fill:#ececec;stroke:none;fill-opacity:1"
     d="m 16949.418,8659.9507 q 0,33.6108 -21.373,52.0537 -21.373,18.4429 -61.017,18.4429 -36.885,0 -58.948,-16.5469 -21.89,-16.7192 -26.027,-49.2959 l 32.06,-2.9302 q 6.205,43.0908 52.915,43.0908 23.442,0 36.714,-11.5483 13.444,-11.5483 13.444,-34.3003 0,-19.8218 -15.34,-30.853 -15.168,-11.2036 -43.953,-11.2036 h -17.581 v -26.8887 h 16.892 q 25.509,0 39.471,-11.0313 14.134,-11.2036 14.134,-30.853 0,-19.477 -11.549,-30.6806 -11.376,-11.376 -33.955,-11.376 -20.512,0 -33.266,10.5141 -12.583,10.5142 -14.651,29.6465 l -31.198,-2.4131 q 3.447,-29.8188 24.648,-46.5381 21.373,-16.7192 54.811,-16.7192 36.541,0 56.708,17.064 20.339,16.8916 20.339,47.2275 0,23.2691 -13.1,37.9199 -12.927,14.4785 -37.747,19.6494 v 0.6895 q 27.233,2.9302 42.401,18.2705 15.168,15.3403 15.168,38.6094 z" /><path
     id="path1203"
     style="fill:#ececec;stroke:none;fill-opacity:1"
     d="m 16997.163,8727 v -37.7476 h 33.61 V 8727 Z" /><path
     id="path1205"
     style="fill:#ececec;stroke:none;fill-opacity:1"
     d="m 17089.894,8727 v -26.3716 h 61.878 v -186.8418 l -54.811,39.1265 v -29.3018 l 57.397,-39.4712 h 28.612 v 216.4883 h 59.121 V 8727 Z" /><path
     id="path1207"
     style="fill:#ececec;stroke:none;fill-opacity:1"
     d="m 17379.292,8635.3027 q 0,-49.813 15.513,-89.4565 15.685,-39.6436 48.089,-74.6333 h 29.991 q -32.232,35.8516 -47.4,76.1846 -14.995,40.333 -14.995,88.25 0,47.7446 14.823,87.9052 14.996,40.1607 47.572,76.5293 h -29.991 q -32.577,-35.1621 -48.089,-74.8056 -15.513,-39.816 -15.513,-89.2842 z" /><path
     id="path1209"
     style="fill:#ececec;stroke:none;fill-opacity:1"
     d="m 17677.308,8727 h -36.024 l -32.576,-131.8579 -6.206,-29.1294 q -1.551,7.7563 -4.826,22.4072 -3.275,14.4785 -35.162,138.5801 h -35.851 l -52.226,-186.4971 h 30.68 l 31.543,126.687 q 1.206,4.1368 7.411,34.128 l 2.93,-12.7549 38.955,-148.0601 h 33.266 l 32.576,128.0659 7.929,32.7491 5.343,-23.9585 35.335,-136.8565 h 30.336 z" /><path
     id="path1211"
     style="fill:#ececec;stroke:none;fill-opacity:1"
     d="m 17911.377,8633.5791 q 0,48.9512 -21.545,72.9097 -21.545,23.9585 -62.568,23.9585 -40.85,0 -61.706,-24.8203 -20.856,-24.9927 -20.856,-72.0479 0,-96.5234 83.596,-96.5234 42.746,0 62.913,23.6137 20.166,23.4414 20.166,72.9097 z m -32.576,0 q 0,-38.6094 -11.549,-56.0181 -11.376,-17.581 -38.437,-17.581 -27.233,0 -39.471,17.9258 -12.065,17.7534 -12.065,55.6733 0,36.8857 11.893,55.501 12.065,18.4428 37.747,18.4428 27.923,0 39.816,-17.9257 12.066,-17.9258 12.066,-56.0181 z" /><path
     id="path1213"
     style="fill:#ececec;stroke:none;fill-opacity:1"
     d="m 17950.676,8727 v -143.0615 q 0,-19.6494 -1.034,-43.4356 h 29.302 q 1.379,31.7149 1.379,38.0923 h 0.689 q 7.412,-23.9585 17.064,-32.749 9.653,-8.7905 27.234,-8.7905 6.205,0 12.582,1.7236 v 28.4399 q -6.205,-1.7236 -16.547,-1.7236 -19.304,0 -29.474,16.7192 -10.169,16.5469 -10.169,47.5723 V 8727 Z" /><path
     id="path1215"
     style="fill:#ececec;stroke:none;fill-opacity:1"
     d="m 18067.539,8727 v -255.7871 h 31.025 V 8727 Z" /><path
     id="path1217"
     style="fill:#ececec;stroke:none;fill-opacity:1"
     d="m 18263.688,8697.0088 q -8.618,17.9258 -22.924,25.6821 -14.134,7.7564 -35.162,7.7564 -35.335,0 -52.054,-23.7862 -16.547,-23.7861 -16.547,-72.0478 0,-97.5576 68.601,-97.5576 21.2,0 35.334,7.7563 14.134,7.7564 22.752,24.648 h 0.345 l -0.345,-20.856 v -77.3911 h 31.025 v 217.3501 q 0,29.1294 1.035,38.437 h -29.647 q -0.517,-2.7578 -1.206,-12.7549 -0.518,-9.9971 -0.518,-17.2363 z m -94.11,-63.4297 q 0,39.1265 10.341,56.0181 10.342,16.8916 33.611,16.8916 26.372,0 38.265,-18.2705 11.893,-18.2705 11.893,-56.7076 0,-37.0581 -11.893,-54.2944 -11.893,-17.2363 -37.92,-17.2363 -23.441,0 -33.956,17.4087 -10.341,17.2363 -10.341,56.1904 z" /><path
     id="path1219"
     style="fill:#ececec;stroke:none;fill-opacity:1"
     d="m 18414.161,8635.9922 q 0,49.813 -15.685,89.4565 -15.513,39.6436 -47.917,74.6333 h -29.991 q 32.404,-36.1963 47.4,-76.1845 14.995,-40.1607 14.995,-88.25 0,-48.0894 -15.168,-88.25 -14.995,-40.1607 -47.227,-76.1846 h 29.991 q 32.577,35.1621 48.089,74.978 15.513,39.6436 15.513,89.1118 z" /></g>
 <g
   style="fill:#ececec;fill-opacity:1"
   class="TextShape"
   id="text128"
   aria-label="legion 0.3.1 (system)"><path
     id="path1222"
     style="fill:#ececec;stroke:none;fill-opacity:1"
     d="m 18774.786,8727 v -255.7871 h 31.026 V 8727 Z" /><path
     id="path1224"
     style="fill:#ececec;stroke:none;fill-opacity:1"
     d="m 18876.998,8640.3013 q 0,32.0595 13.272,49.4682 13.272,17.4087 38.781,17.4087 20.167,0 32.232,-8.1011 12.238,-8.101 16.547,-20.5112 l 27.233,7.7564 q -16.719,44.125 -76.012,44.125 -41.367,0 -63.085,-24.648 -21.545,-24.6479 -21.545,-73.2544 0,-46.1933 21.545,-70.8413 21.718,-24.6479 61.879,-24.6479 82.217,0 82.217,99.1089 v 4.1367 z m 101.004,-23.7862 q -2.585,-29.4741 -14.995,-42.9184 -12.41,-13.6167 -35.679,-13.6167 -22.58,0 -35.852,15.1679 -13.1,14.9957 -14.134,41.3672 z" /><path
     id="path1226"
     style="fill:#ececec;stroke:none;fill-opacity:1"
     d="m 19120.202,8800.2544 q -30.508,0 -48.606,-12.0654 -18.098,-11.8931 -23.269,-33.9556 l 31.197,-4.4814 q 3.103,12.9272 13.617,19.8217 10.687,7.0669 27.923,7.0669 46.366,0 46.366,-54.2944 v -29.9912 h -0.345 q -8.791,17.9258 -24.131,27.061 -15.34,8.9629 -35.851,8.9629 -34.301,0 -50.503,-22.7519 -16.03,-22.752 -16.03,-71.5308 0,-49.4683 17.237,-72.9097 17.408,-23.6137 52.743,-23.6137 19.822,0 34.3,9.1352 14.651,8.9629 22.58,25.6821 h 0.344 q 0,-5.1709 0.69,-17.9257 0.689,-12.7549 1.379,-13.9615 h 29.474 q -1.034,9.3076 -1.034,38.6094 v 142.5444 q 0,78.5977 -78.081,78.5977 z m 47.228,-166.5029 q 0,-22.752 -6.205,-39.1265 -6.205,-16.5469 -17.581,-25.165 -11.204,-8.7906 -25.51,-8.7906 -23.786,0 -34.645,17.2364 -10.859,17.2363 -10.859,55.8457 0,38.2646 10.169,54.9839 10.17,16.7192 34.818,16.7192 14.651,0 26.027,-8.6182 11.376,-8.6181 17.581,-24.6479 6.205,-16.2022 6.205,-38.437 z" /><path
     id="path1228"
     style="fill:#ececec;stroke:none;fill-opacity:1"
     d="m 19245.683,8500.8594 v -29.6465 h 31.025 v 29.6465 z m 0,226.1406 v -186.4971 h 31.025 V 8727 Z" /><path
     id="path1230"
     style="fill:#ececec;stroke:none;fill-opacity:1"
     d="m 19481.993,8633.5791 q 0,48.9512 -21.546,72.9097 -21.545,23.9585 -62.568,23.9585 -40.85,0 -61.706,-24.8203 -20.856,-24.9927 -20.856,-72.0479 0,-96.5234 83.597,-96.5234 42.746,0 62.912,23.6137 20.167,23.4414 20.167,72.9097 z m -32.577,0 q 0,-38.6094 -11.548,-56.0181 -11.376,-17.581 -38.437,-17.581 -27.234,0 -39.472,17.9258 -12.065,17.7534 -12.065,55.6733 0,36.8857 11.893,55.501 12.066,18.4428 37.748,18.4428 27.923,0 39.816,-17.9257 12.065,-17.9258 12.065,-56.0181 z" /><path
     id="path1232"
     style="fill:#ececec;stroke:none;fill-opacity:1"
     d="m 19639.016,8727 v -118.2412 q 0,-18.4429 -3.62,-28.6123 -3.62,-10.1694 -11.548,-14.6509 -7.929,-4.4814 -23.269,-4.4814 -22.408,0 -35.335,15.3403 -12.927,15.3403 -12.927,42.5737 V 8727 h -31.025 v -146.6812 q 0,-32.5766 -1.035,-39.8159 h 29.302 q 0.172,0.8618 0.345,4.6538 0.172,3.792 0.345,8.7906 0.344,4.8261 0.689,18.4428 h 0.517 q 10.687,-19.3047 24.648,-27.2334 14.134,-8.101 34.99,-8.101 30.68,0 44.814,15.3403 14.306,15.168 14.306,50.3301 V 8727 Z" /><path
     id="path1234"
     style="fill:#ececec;stroke:none;fill-opacity:1"
     d="m 19973.745,8605.4839 q 0,60.8442 -21.545,92.9038 -21.373,32.0596 -63.258,32.0596 -41.884,0 -62.912,-31.8872 -21.029,-31.8872 -21.029,-93.0762 0,-62.5679 20.339,-93.7656 20.512,-31.1978 64.637,-31.1978 42.918,0 63.257,31.5425 20.511,31.5425 20.511,93.4209 z m -31.542,0 q 0,-52.5708 -12.238,-76.1846 -12.066,-23.6138 -39.988,-23.6138 -28.613,0 -41.195,23.2691 -12.41,23.269 -12.41,76.5293 0,51.709 12.582,75.6675 12.755,23.9585 40.333,23.9585 27.406,0 40.161,-24.4756 12.755,-24.4756 12.755,-75.1504 z" /><path
     id="path1236"
     style="fill:#ececec;stroke:none;fill-opacity:1"
     d="m 20019.766,8727 v -37.7476 h 33.611 V 8727 Z" /><path
     id="path1238"
     style="fill:#ececec;stroke:none;fill-opacity:1"
     d="m 20266.418,8659.9507 q 0,33.6108 -21.373,52.0537 -21.373,18.4429 -61.017,18.4429 -36.885,0 -58.948,-16.5469 -21.89,-16.7192 -26.027,-49.2959 l 32.06,-2.9302 q 6.205,43.0908 52.915,43.0908 23.442,0 36.714,-11.5483 13.444,-11.5483 13.444,-34.3003 0,-19.8218 -15.34,-30.853 -15.168,-11.2036 -43.953,-11.2036 h -17.581 v -26.8887 h 16.892 q 25.509,0 39.471,-11.0313 14.134,-11.2036 14.134,-30.853 0,-19.477 -11.549,-30.6806 -11.376,-11.376 -33.955,-11.376 -20.512,0 -33.266,10.5141 -12.583,10.5142 -14.651,29.6465 l -31.198,-2.4131 q 3.447,-29.8188 24.648,-46.5381 21.373,-16.7192 54.811,-16.7192 36.541,0 56.708,17.064 20.339,16.8916 20.339,47.2275 0,23.2691 -13.1,37.9199 -12.927,14.4785 -37.747,19.6494 v 0.6895 q 27.233,2.9302 42.401,18.2705 15.168,15.3403 15.168,38.6094 z" /><path
     id="path1240"
     style="fill:#ececec;stroke:none;fill-opacity:1"
     d="m 20314.163,8727 v -37.7476 h 33.61 V 8727 Z" /><path
     id="path1242"
     style="fill:#ececec;stroke:none;fill-opacity:1"
     d="m 20406.894,8727 v -26.3716 h 61.878 v -186.8418 l -54.811,39.1265 v -29.3018 l 57.397,-39.4712 h 28.612 v 216.4883 h 59.121 V 8727 Z" /><path
     id="path1244"
     style="fill:#ececec;stroke:none;fill-opacity:1"
     d="m 20696.292,8635.3027 q 0,-49.813 15.513,-89.4565 15.685,-39.6436 48.089,-74.6333 h 29.991 q -32.232,35.8516 -47.4,76.1846 -14.995,40.333 -14.995,88.25 0,47.7446 14.823,87.9052 14.996,40.1607 47.572,76.5293 h -29.991 q -32.577,-35.1621 -48.089,-74.8056 -15.513,-39.816 -15.513,-89.2842 z" /><path
     id="path1246"
     style="fill:#ececec;stroke:none;fill-opacity:1"
     d="m 20955.699,8675.4634 q 0,26.3716 -19.994,40.6777 -19.822,14.3062 -55.674,14.3062 -34.817,0 -53.777,-11.376 -18.788,-11.5484 -24.476,-35.8516 l 27.406,-5.3432 q 3.964,14.9956 16.375,22.0625 12.41,6.8945 34.472,6.8945 23.614,0 34.473,-7.2393 11.031,-7.2392 11.031,-21.7177 0,-11.0313 -7.584,-17.9258 -7.584,-6.8945 -24.475,-11.376 l -22.235,-5.8603 q -26.717,-6.8946 -38.093,-13.4444 -11.203,-6.7221 -17.581,-16.2021 -6.377,-9.48 -6.377,-23.2691 0,-25.5097 18.098,-38.7817 18.271,-13.4443 53.088,-13.4443 30.853,0 48.951,10.8588 18.271,10.8589 23.097,34.8174 l -27.923,3.4473 q -2.585,-12.4102 -13.961,-18.96 -11.204,-6.7221 -30.164,-6.7221 -21.028,0 -31.025,6.3774 -9.997,6.3774 -9.997,19.3047 0,7.9287 4.136,13.0996 4.137,5.1709 12.238,8.7905 8.101,3.6197 34.128,9.9971 24.648,6.2051 35.507,11.5483 10.859,5.1709 17.064,11.5484 6.377,6.3774 9.824,14.8232 3.448,8.2735 3.448,18.96 z" /><path
     id="path1248"
     style="fill:#ececec;stroke:none;fill-opacity:1"
     d="m 21001.375,8800.2544 q -12.755,0 -21.373,-1.896 v -23.269 q 6.55,1.0341 14.478,1.0341 28.957,0 45.849,-42.5737 l 2.93,-7.4116 -73.944,-185.6353 h 33.094 l 39.299,103.0733 q 0.862,2.4131 2.068,5.8603 1.207,3.2749 7.757,22.4073 6.55,19.1323 7.067,21.373 l 12.065,-33.9556 40.85,-118.7583 h 32.749 L 21072.561,8727 q -11.548,29.8188 -21.545,44.2974 -9.997,14.6508 -22.235,21.7177 -12.066,7.2393 -27.406,7.2393 z" /><path
     id="path1250"
     style="fill:#ececec;stroke:none;fill-opacity:1"
     d="m 21308.699,8675.4634 q 0,26.3716 -19.994,40.6777 -19.822,14.3062 -55.674,14.3062 -34.817,0 -53.777,-11.376 -18.788,-11.5484 -24.476,-35.8516 l 27.406,-5.3432 q 3.964,14.9956 16.375,22.0625 12.41,6.8945 34.472,6.8945 23.614,0 34.473,-7.2393 11.031,-7.2392 11.031,-21.7177 0,-11.0313 -7.584,-17.9258 -7.584,-6.8945 -24.475,-11.376 l -22.235,-5.8603 q -26.717,-6.8946 -38.093,-13.4444 -11.203,-6.7221 -17.581,-16.2021 -6.377,-9.48 -6.377,-23.2691 0,-25.5097 18.098,-38.7817 18.271,-13.4443 53.088,-13.4443 30.853,0 48.951,10.8588 18.271,10.8589 23.097,34.8174 l -27.923,3.4473 q -2.585,-12.4102 -13.961,-18.96 -11.204,-6.7221 -30.164,-6.7221 -21.028,0 -31.025,6.3774 -9.997,6.3774 -9.997,19.3047 0,7.9287 4.136,13.0996 4.137,5.1709 12.238,8.7905 8.101,3.6197 34.128,9.9971 24.648,6.2051 35.507,11.5483 10.859,5.1709 17.064,11.5484 6.377,6.3774 9.824,14.8232 3.448,8.2735 3.448,18.96 z" /><path
     id="path1252"
     style="fill:#ececec;stroke:none;fill-opacity:1"
     d="m 21416.943,8725.6211 q -15.34,4.1367 -31.37,4.1367 -37.231,0 -37.231,-42.229 v -124.4463 h -21.545 v -22.5796 h 22.752 l 9.135,-41.7119 h 20.684 v 41.7119 h 34.472 v 22.5796 h -34.472 v 117.7241 q 0,13.4444 4.309,18.96 4.481,5.3433 15.34,5.3433 6.205,0 17.926,-2.4131 z" /><path
     id="path1254"
     style="fill:#ececec;stroke:none;fill-opacity:1"
     d="m 21467.101,8640.3013 q 0,32.0595 13.272,49.4682 13.272,17.4087 38.781,17.4087 20.167,0 32.232,-8.1011 12.238,-8.101 16.547,-20.5112 l 27.234,7.7564 q -16.72,44.125 -76.013,44.125 -41.367,0 -63.085,-24.648 -21.545,-24.6479 -21.545,-73.2544 0,-46.1933 21.545,-70.8413 21.718,-24.6479 61.879,-24.6479 82.217,0 82.217,99.1089 v 4.1367 z m 101.004,-23.7862 q -2.585,-29.4741 -14.995,-42.9184 -12.41,-13.6167 -35.679,-13.6167 -22.58,0 -35.852,15.1679 -13.1,14.9957 -14.134,41.3672 z" /><path
     id="path1256"
     style="fill:#ececec;stroke:none;fill-opacity:1"
     d="m 21748.225,8727 v -118.2412 q 0,-27.061 -7.412,-37.4028 -7.411,-10.3418 -26.716,-10.3418 -19.822,0 -31.37,15.1679 -11.548,15.168 -11.548,42.7461 V 8727 h -30.853 v -146.6812 q 0,-32.5766 -1.034,-39.8159 h 29.301 q 0.173,0.8618 0.345,4.6538 0.172,3.792 0.345,8.7906 0.344,4.8261 0.689,18.4428 h 0.517 q 9.997,-19.8217 22.925,-27.5781 12.927,-7.7563 31.542,-7.7563 21.201,0 33.439,8.4458 12.41,8.4458 17.236,26.8886 h 0.517 q 9.652,-18.7876 23.269,-27.061 13.789,-8.2734 33.266,-8.2734 28.268,0 41.023,15.3403 12.927,15.3403 12.927,50.3301 V 8727 h -30.681 v -118.2412 q 0,-27.061 -7.411,-37.4028 -7.412,-10.3418 -26.717,-10.3418 -20.339,0 -31.715,15.1679 -11.203,14.9956 -11.203,42.7461 V 8727 Z" /><path
     id="path1258"
     style="fill:#ececec;stroke:none;fill-opacity:1"
     d="m 22005.563,8635.9922 q 0,49.813 -15.685,89.4565 -15.512,39.6436 -47.917,74.6333 h -29.991 q 32.405,-36.1963 47.4,-76.1845 14.996,-40.1607 14.996,-88.25 0,-48.0894 -15.168,-88.25 -14.996,-40.1607 -47.228,-76.1846 h 29.991 q 32.577,35.1621 48.09,74.978 15.512,39.6436 15.512,89.1118 z" /></g>
 <g
   style="fill:#ececec;fill-opacity:1"
   class="TextShape"
   id="text136"
   aria-label="0"><path
     id="path1025"
     style="fill:#ececec;stroke:none;fill-opacity:1"
     d="m 925.53271,8158.4839 q 0,60.8442 -21.54541,92.9038 -21.37304,32.0596 -63.25732,32.0596 -41.88428,0 -62.9126,-31.8872 -21.02832,-31.8872 -21.02832,-93.0762 0,-62.5679 20.33887,-93.7656 20.51123,-31.1978 64.63623,-31.1978 42.91846,0 63.25732,31.5425 20.51123,31.5425 20.51123,93.4209 z m -31.54248,0 q 0,-52.5708 -12.23779,-76.1846 -12.06543,-23.6138 -39.98828,-23.6138 -28.6123,0 -41.19482,23.2691 -12.41016,23.269 -12.41016,76.5293 0,51.709 12.58252,75.6675 12.75488,23.9585 40.33301,23.9585 27.40576,0 40.16064,-24.4756 12.75488,-24.4756 12.75488,-75.1504 z" /></g>
 <g
   style="fill:#ececec;fill-opacity:1"
   class="TextShape"
   id="text144"
   aria-label="0.5"><path
     id="path1028"
     style="fill:#ececec;stroke:none;fill-opacity:1"
     d="m 634.53271,7046.4839 q 0,60.8442 -21.54541,92.9038 -21.37304,32.0596 -63.25732,32.0596 -41.88428,0 -62.9126,-31.8872 -21.02832,-31.8872 -21.02832,-93.0762 0,-62.5679 20.33887,-93.7656 20.51123,-31.1978 64.63623,-31.1978 42.91846,0 63.25732,31.5425 20.51123,31.5425 20.51123,93.4209 z m -31.54248,0 q 0,-52.5708 -12.23779,-76.1846 -12.06543,-23.6138 -39.98828,-23.6138 -28.6123,0 -41.19482,23.2691 -12.41016,23.269 -12.41016,76.5293 0,51.709 12.58252,75.6675 12.75488,23.9585 40.33301,23.9585 27.40576,0 40.16064,-24.4756 12.75488,-24.4756 12.75488,-75.1504 z" /><path
     id="path1030"
     style="fill:#ececec;stroke:none;fill-opacity:1"
     d="m 680.55371,7168 v -37.7476 h 33.61084 V 7168 Z" /><path
     id="path1032"
     style="fill:#ececec;stroke:none;fill-opacity:1"
     d="m 927.89502,7088.8853 q 0,38.437 -22.92432,60.4995 -22.75195,22.0625 -63.25732,22.0625 -33.95557,0 -54.81152,-14.8233 -20.85596,-14.8232 -26.37159,-42.9184 l 31.37012,-3.6197 q 9.82471,36.024 50.50244,36.024 24.99268,0 39.12647,-14.9956 14.13379,-15.168 14.13379,-41.5396 0,-22.9243 -14.30616,-37.0581 -14.13379,-14.1338 -38.26464,-14.1338 -12.58252,0 -23.44141,3.9644 -10.85889,3.9643 -21.71777,13.4443 h -30.33594 l 8.10107,-130.6514 h 138.06299 v 26.3716 H 803.96582 l -4.65381,77.0464 q 20.16651,-15.5127 50.15772,-15.5127 35.85156,0 57.05224,21.0283 21.37305,21.0284 21.37305,54.8116 z" /></g>
 <g
   style="fill:#ececec;fill-opacity:1"
   class="TextShape"
   id="text152"
   aria-label="1"><path
     id="path1035"
     style="fill:#ececec;stroke:none;fill-opacity:1"
     d="m 769.88867,6056 v -26.3716 h 61.87842 v -186.8418 l -54.81152,39.1265 v -29.3018 l 57.39697,-39.4712 h 28.6123 v 216.4883 h 59.12061 V 6056 Z" /></g>
 <g
   style="fill:#ececec;fill-opacity:1"
   class="TextShape"
   id="text160"
   aria-label="1.5"><path
     id="path1038"
     style="fill:#ececec;stroke:none;fill-opacity:1"
     d="m 478.88867,4944 v -26.3716 h 61.87842 v -186.8418 l -54.81152,39.1265 v -29.3018 l 57.39697,-39.4712 h 28.6123 v 216.4883 h 59.12061 V 4944 Z" /><path
     id="path1040"
     style="fill:#ececec;stroke:none;fill-opacity:1"
     d="m 680.55371,4944 v -37.7476 h 33.61084 V 4944 Z" /><path
     id="path1042"
     style="fill:#ececec;stroke:none;fill-opacity:1"
     d="m 927.89502,4864.8853 q 0,38.437 -22.92432,60.4995 -22.75195,22.0625 -63.25732,22.0625 -33.95557,0 -54.81152,-14.8233 -20.85596,-14.8232 -26.37159,-42.9184 l 31.37012,-3.6197 q 9.82471,36.024 50.50244,36.024 24.99268,0 39.12647,-14.9956 14.13379,-15.168 14.13379,-41.5396 0,-22.9243 -14.30616,-37.0581 -14.13379,-14.1338 -38.26464,-14.1338 -12.58252,0 -23.44141,3.9644 -10.85889,3.9643 -21.71777,13.4443 h -30.33594 l 8.10107,-130.6514 h 138.06299 v 26.3716 H 803.96582 l -4.65381,77.0464 q 20.16651,-15.5127 50.15772,-15.5127 35.85156,0 57.05224,21.0283 21.37305,21.0284 21.37305,54.8116 z" /></g>
 <g
   style="fill:#ececec;fill-opacity:1"
   class="TextShape"
   id="text168"
   aria-label="2"><path
     id="path1045"
     style="fill:#ececec;stroke:none;fill-opacity:1"
     d="m 760.75342,3833 v -21.8901 q 8.79053,-20.1665 21.37304,-35.5069 12.75489,-15.5127 26.71631,-27.9228 13.96143,-12.5825 27.57813,-23.2691 13.78906,-10.6865 24.82031,-21.373 11.03125,-10.6865 17.75342,-22.4072 6.89453,-11.7207 6.89453,-26.544 0,-19.9941 -11.7207,-31.0254 -11.72071,-11.0312 -32.57666,-11.0312 -19.82178,0 -32.74903,10.8589 -12.75488,10.6865 -14.9956,30.1635 l -31.71485,-2.9301 q 3.44727,-29.1294 24.64795,-46.3658 21.37305,-17.2363 54.81153,-17.2363 36.71338,0 56.36279,17.4087 19.82178,17.2363 19.82178,49.1235 0,14.1338 -6.54981,28.0952 -6.37744,13.9615 -19.13232,27.9229 -12.75488,13.9614 -48.77881,43.2632 -19.82178,16.2021 -31.54248,29.3017 -11.7207,12.9273 -16.8916,24.9927 H 921.56836 V 3833 Z" /></g>
 <g
   style="fill:#ececec;fill-opacity:1"
   class="TextShape"
   id="text176"
   aria-label="2.5"><path
     id="path1048"
     style="fill:#ececec;stroke:none;fill-opacity:1"
     d="m 469.75342,2721 v -21.8901 q 8.79053,-20.1665 21.37304,-35.5069 12.75489,-15.5127 26.71631,-27.9228 13.96143,-12.5825 27.57813,-23.2691 13.78906,-10.6865 24.82031,-21.373 11.03125,-10.6865 17.75342,-22.4072 6.89453,-11.7207 6.89453,-26.544 0,-19.9941 -11.7207,-31.0254 -11.72071,-11.0312 -32.57666,-11.0312 -19.82178,0 -32.74903,10.8589 -12.75488,10.6865 -14.9956,30.1635 l -31.71485,-2.9301 q 3.44727,-29.1294 24.64795,-46.3658 21.37305,-17.2363 54.81153,-17.2363 36.71338,0 56.36279,17.4087 19.82178,17.2363 19.82178,49.1235 0,14.1338 -6.54981,28.0952 -6.37744,13.9615 -19.13232,27.9229 -12.75488,13.9614 -48.77881,43.2632 -19.82178,16.2021 -31.54248,29.3017 -11.7207,12.9273 -16.8916,24.9927 H 630.56836 V 2721 Z" /><path
     id="path1050"
     style="fill:#ececec;stroke:none;fill-opacity:1"
     d="m 680.55371,2721 v -37.7476 h 33.61084 V 2721 Z" /><path
     id="path1052"
     style="fill:#ececec;stroke:none;fill-opacity:1"
     d="m 927.89502,2641.8853 q 0,38.437 -22.92432,60.4995 -22.75195,22.0625 -63.25732,22.0625 -33.95557,0 -54.81152,-14.8233 -20.85596,-14.8232 -26.37159,-42.9184 l 31.37012,-3.6197 q 9.82471,36.024 50.50244,36.024 24.99268,0 39.12647,-14.9956 14.13379,-15.168 14.13379,-41.5396 0,-22.9243 -14.30616,-37.0581 -14.13379,-14.1338 -38.26464,-14.1338 -12.58252,0 -23.44141,3.9644 -10.85889,3.9643 -21.71777,13.4443 h -30.33594 l 8.10107,-130.6514 h 138.06299 v 26.3716 H 803.96582 l -4.65381,77.0464 q 20.16651,-15.5127 50.15772,-15.5127 35.85156,0 57.05224,21.0283 21.37305,21.0284 21.37305,54.8116 z" /></g>
 <g
   style="fill:#ececec;fill-opacity:1"
   class="TextShape"
   id="text184"
   aria-label="3"><path
     id="path1055"
     style="fill:#ececec;stroke:none;fill-opacity:1"
     d="m 923.80908,1541.9507 q 0,33.6108 -21.37304,52.0537 -21.37305,18.4429 -61.01661,18.4429 -36.88574,0 -58.94824,-16.5469 -21.89014,-16.7192 -26.02685,-49.2959 l 32.05957,-2.9302 q 6.20507,43.0908 52.91552,43.0908 23.44141,0 36.71338,-11.5483 13.44434,-11.5483 13.44434,-34.3003 0,-19.8218 -15.34033,-30.853 -15.16797,-11.2036 -43.95264,-11.2036 h -17.58106 v -26.8887 h 16.89161 q 25.50976,0 39.47119,-11.0313 14.13379,-11.2036 14.13379,-30.853 0,-19.477 -11.54834,-30.6806 -11.37598,-11.376 -33.95557,-11.376 -20.51123,0 -33.26611,10.5141 -12.58252,10.5142 -14.65088,29.6465 l -31.19776,-2.4131 q 3.44727,-29.8188 24.64795,-46.5381 21.37305,-16.7192 54.81153,-16.7192 36.54101,0 56.70752,17.064 20.33886,16.8916 20.33886,47.2275 0,23.2691 -13.09961,37.9199 -12.92724,14.4785 -37.74755,19.6494 v 0.6895 q 27.23339,2.9302 42.40136,18.2705 15.16797,15.3403 15.16797,38.6094 z" /></g>
 <g
   style="fill:#ececec;fill-opacity:1"
   class="TextShape"
   id="text192"
   aria-label="3.5"><path
     id="path1058"
     style="fill:#ececec;stroke:none;fill-opacity:1"
     d="m 632.80908,430.95068 q 0,33.61084 -21.37304,52.05371 -21.37305,18.44288 -61.01661,18.44288 -36.88574,0 -58.94824,-16.54688 -21.89014,-16.71924 -26.02685,-49.2959 l 32.05957,-2.93017 q 6.20507,43.09082 52.91552,43.09082 23.44141,0 36.71338,-11.54834 13.44434,-11.54834 13.44434,-34.3003 0,-19.82177 -15.34033,-30.85302 -15.16797,-11.20362 -43.95264,-11.20362 h -17.58106 v -26.88867 h 16.89161 q 25.50976,0 39.47119,-11.03125 14.13379,-11.20361 14.13379,-30.85303 0,-19.47705 -11.54834,-30.68066 -11.37598,-11.37598 -33.95557,-11.37598 -20.51123,0 -33.26611,10.51416 -12.58252,10.51416 -14.65088,29.64649 l -31.19776,-2.41309 q 3.44727,-29.81885 24.64795,-46.53808 21.37305,-16.71924 54.81153,-16.71924 36.54101,0 56.70752,17.06396 20.33886,16.8916 20.33886,47.22754 0,23.26904 -13.09961,37.91992 -12.92724,14.47852 -37.74755,19.64942 v 0.68945 q 27.23339,2.93018 42.40136,18.27051 15.16797,15.34033 15.16797,38.60937 z" /><path
     id="path1060"
     style="fill:#ececec;stroke:none;fill-opacity:1"
     d="m 680.55371,498 v -37.74756 h 33.61084 V 498 Z" /><path
     id="path1062"
     style="fill:#ececec;stroke:none;fill-opacity:1"
     d="m 927.89502,418.88525 q 0,38.43702 -22.92432,60.49952 -22.75195,22.0625 -63.25732,22.0625 -33.95557,0 -54.81152,-14.82325 -20.85596,-14.82324 -26.37159,-42.91845 l 31.37012,-3.61963 q 9.82471,36.02392 50.50244,36.02392 24.99268,0 39.12647,-14.9956 14.13379,-15.16797 14.13379,-41.53955 0,-22.92432 -14.30616,-37.05811 -14.13379,-14.13379 -38.26464,-14.13379 -12.58252,0 -23.44141,3.96436 -10.85889,3.96435 -21.71777,13.44433 h -30.33594 l 8.10107,-130.65136 h 138.06299 v 26.37158 H 803.96582 l -4.65381,77.04639 q 20.16651,-15.5127 50.15772,-15.5127 35.85156,0 57.05224,21.02832 21.37305,21.02832 21.37305,54.81152 z" /></g>
</svg>
