<?xml version="1.0" encoding="UTF-8" standalone="no"?>
<!-- Creator: inkscape 0.44.1 -->
<svg
   xmlns:dc="http://purl.org/dc/elements/1.1/"
   xmlns:cc="http://web.resource.org/cc/"
   xmlns:rdf="http://www.w3.org/1999/02/22-rdf-syntax-ns#"
   xmlns:svg="http://www.w3.org/2000/svg"
   xmlns="http://www.w3.org/2000/svg"
   xmlns:sodipodi="http://sodipodi.sourceforge.net/DTD/sodipodi-0.dtd"
   xmlns:inkscape="http://www.inkscape.org/namespaces/inkscape"
   xml:space="preserve"
   width="467"
   height="397"
   style="shape-rendering:geometricPrecision; text-rendering:geometricPrecision; image-rendering:optimizeQuality; fill-rule:evenodd; clip-rule:evenodd"
   viewBox="0 0 210 297"
   sodipodi:version="0.32"
   inkscape:version="0.44.1"
   sodipodi:docname="Axonometric projection.svg"
   version="1.0"
   id="svg2"
   sodipodi:docbase="">
<metadata
   id="metadata175"><rdf:RDF><cc:Work
       rdf:about=""><cc:license
         rdf:resource="http://web.resource.org/cc/PublicDomain" /><dc:format>image/svg+xml</dc:format><dc:type
         rdf:resource="http://purl.org/dc/dcmitype/StillImage" /><dc:title>Axonometric projection</dc:title><dc:date>22.12.06</dc:date><dc:creator><cc:Agent><dc:title>Juri Raisper</dc:title></cc:Agent></dc:creator><dc:rights><cc:Agent><dc:title>PublicDomain</dc:title></cc:Agent></dc:rights><dc:subject><rdf:Bag><rdf:li>Axonometric projection</rdf:li><rdf:li>аксонометрическая проекция</rdf:li></rdf:Bag></dc:subject><dc:description>Пример проецирования паралепипида на плоскость П'</dc:description><dc:language>ru, en</dc:language></cc:Work><cc:License
       rdf:about="http://web.resource.org/cc/PublicDomain"><cc:permits
         rdf:resource="http://web.resource.org/cc/Reproduction" /><cc:permits
         rdf:resource="http://web.resource.org/cc/Distribution" /><cc:permits
         rdf:resource="http://web.resource.org/cc/DerivativeWorks" /></cc:License></rdf:RDF></metadata><sodipodi:namedview
   inkscape:window-height="719"
   inkscape:window-width="1024"
   inkscape:pageshadow="2"
   inkscape:pageopacity="0.0"
   guidetolerance="10.0"
   gridtolerance="10.0"
   objecttolerance="10"
   borderopacity="1.0"
   bordercolor="#666666"
   pagecolor="#ffffff"
   id="namedview173"
   inkscape:zoom="9.3350748"
   inkscape:cx="404.42856"
   inkscape:cy="179.38648"
   inkscape:window-x="-4"
   inkscape:window-y="-4"
   inkscape:current-layer="svg2"
   showborder="true"
   inkscape:object-points="true"
   inkscape:object-nodes="true"
   inkscape:object-paths="false"
   width="467px"
   height="397px"
   borderlayer="false"
   showgrid="true"
   inkscape:grid-points="false"
   inkscape:grid-bbox="false"
   inkscape:object-bbox="false" />
 <defs
   id="defs4"><marker
   inkscape:stockid="Arrow1Send"
   orient="auto"
   refY="0"
   refX="0"
   id="Arrow1Send"
   style="overflow:visible">
<path
   id="path14777"
   d="M 0,0 L 5,-5 L -12.5,0 L 5,5 L 0,0 z "
   style="fill-rule:evenodd;stroke:black;stroke-width:1pt;marker-start:none"
   transform="matrix(-0.2,0,0,-0.2,-1.2,0)" /></marker><marker
   inkscape:stockid="Arrow2Mend"
   orient="auto"
   refY="0"
   refX="0"
   id="Arrow2Mend"
   style="overflow:visible"><path
     id="path14765"
     style="font-size:12px;fill-rule:evenodd;stroke-width:0.625;stroke-linejoin:round"
     d="M 8.7185878,4.0337352 L -2.2072895,0.016013256 L 8.7185884,-4.0017078 C 6.97309,-1.6296469 6.9831476,1.6157441 8.7185878,4.0337352 z "
     transform="scale(-0.6,-0.6)" /></marker><marker
   inkscape:stockid="Arrow2Sstart"
   orient="auto"
   refY="0"
   refX="0"
   id="Arrow2Sstart"
   style="overflow:visible"><path
     id="path14762"
     style="font-size:12px;fill-rule:evenodd;stroke-width:0.625;stroke-linejoin:round"
     d="M 8.7185878,4.0337352 L -2.2072895,0.016013256 L 8.7185884,-4.0017078 C 6.97309,-1.6296469 6.9831476,1.6157441 8.7185878,4.0337352 z "
     transform="matrix(0.3,0,0,0.3,-0.69,0)" /></marker><marker
   inkscape:stockid="Arrow2Send"
   orient="auto"
   refY="0"
   refX="0"
   id="Arrow2Send"
   style="overflow:visible"><path
     id="path14759"
     style="font-size:12px;fill-rule:evenodd;stroke-width:0.625;stroke-linejoin:round"
     d="M 8.7185878,4.0337352 L -2.2072895,0.016013256 L 8.7185884,-4.0017078 C 6.97309,-1.6296469 6.9831476,1.6157441 8.7185878,4.0337352 z "
     transform="matrix(-0.3,0,0,-0.3,0.69,0)" /></marker><marker
   inkscape:stockid="Arrow2Mstart"
   orient="auto"
   refY="0"
   refX="0"
   id="Arrow2Mstart"
   style="overflow:visible"><path
     id="path14768"
     style="font-size:12px;fill-rule:evenodd;stroke-width:0.625;stroke-linejoin:round"
     d="M 8.7185878,4.0337352 L -2.2072895,0.016013256 L 8.7185884,-4.0017078 C 6.97309,-1.6296469 6.9831476,1.6157441 8.7185878,4.0337352 z "
     transform="scale(0.6,0.6)" /></marker><marker
   inkscape:stockid="Arrow1Sstart"
   orient="auto"
   refY="0"
   refX="0"
   id="Arrow1Sstart"
   style="overflow:visible"><path
     id="path14780"
     d="M 0,0 L 5,-5 L -12.5,0 L 5,5 L 0,0 z "
     style="fill-rule:evenodd;stroke:black;stroke-width:1pt;marker-start:none"
     transform="matrix(0.2,0,0,0.2,1.2,0)" /></marker>
  </defs>
 
<path
   id="path16018"
   d="M 64.831604,52.278198 L 138.23622,215.22172 L 268.39466,176.94649 L 194.99004,14.003228 L 64.831604,52.278198 z "
   style="fill:#ccc;fill-rule:evenodd;stroke:none;stroke-width:1.12216628;stroke-linecap:round;stroke-linejoin:round;stroke-miterlimit:4;stroke-dasharray:none;stroke-opacity:1" /><path
   style="fill-rule:evenodd;stroke:black;stroke-width:0.74811083;stroke-linecap:round;stroke-linejoin:round;stroke-opacity:1;fill:#f9f9f9;stroke-miterlimit:4;stroke-dasharray:none"
   d="M 66.537086,48.014494 L 139.9417,210.95802 L 270.10014,172.68279 L 196.69552,9.739524 L 66.537086,48.014494 z "
   id="path13359" /><g
   inkscape:groupmode="layer"
   id="layer1"
   inkscape:label="1"
   style="opacity:1;display:inline"
   transform="translate(-3.504806,-181.8047)" /><path
   style="fill:none;stroke:black;stroke-width:1.49622166;stroke-linejoin:bevel;marker-start:none;marker-end:none;stroke-miterlimit:4;stroke-dasharray:none"
   d="M 29.223263,143.73267 L 29.223263,112.57274"
   class="fil0 str1"
   id="path77" /><path
   style="fill:none;stroke:black;stroke-width:1.49622166;stroke-linejoin:bevel;marker-end:none;stroke-miterlimit:4;stroke-dasharray:none"
   d="M -29.107009,260.28095 L -57.588298,273.56665"
   class="fil0 str1"
   id="path79" /><path
   style="fill:none;stroke:black;stroke-width:1.49622166;stroke-linejoin:bevel;marker-start:none;marker-end:none;stroke-miterlimit:4;stroke-dasharray:none"
   d="M 68.109673,251.21181 L 98.073573,265.18886"
   class="fil0 str1"
   id="path81" /><path
   style="fill:none;stroke:black;stroke-width:1.49622166;stroke-linejoin:bevel;stroke-miterlimit:4;stroke-dasharray:none"
   d="M 68.109673,251.21181 L 29.223263,233.07245"
   class="fil0 str2"
   id="path87" /><path
   style="fill:none;stroke:black;stroke-width:1.49622166;stroke-linejoin:bevel;stroke-miterlimit:4;stroke-dasharray:none;stroke-dashoffset:0"
   d="M 29.223263,233.07088 L -29.107009,260.27987"
   class="fil0 str3"
   id="path89" /><path
   style="fill:none;stroke:blue;stroke-width:2.12643933;stroke-linejoin:bevel;stroke-miterlimit:4;stroke-dasharray:none"
   d="M 29.223263,144.0529 L 68.109673,162.192"
   class="fil0 str0"
   id="path95" /><path
   style="fill:none;stroke:blue;stroke-width:2.12643933;stroke-linejoin:bevel;stroke-miterlimit:4;stroke-dasharray:none"
   d="M 68.109673,251.21181 L 68.109673,162.19385"
   class="fil0 str0"
   id="path103" /><path
   style="fill:none;stroke:black;stroke-width:1.49622166;stroke-linejoin:bevel;stroke-miterlimit:4;stroke-dasharray:none;stroke-dashoffset:0"
   d="M 29.223263,144.0529 L 29.223263,233.07088"
   class="fil0 str4"
   id="path105" /><path
   style="fill:none;stroke:black;stroke-width:1.49622166;stroke-linejoin:bevel;stroke-miterlimit:4;stroke-dasharray:none"
   d="M 184.76958,127.62251 L 154.0498,59.430763"
   class="fil0 str5"
   id="path107" /><path
   style="fill:none;stroke:black;stroke-width:1.49622166;stroke-linejoin:bevel;stroke-miterlimit:4;stroke-dasharray:none"
   d="M 184.76958,127.62251 L 214.71955,151.82032"
   class="fil0 str5"
   id="path109" /><path
   style="fill:none;stroke:black;stroke-width:1.49622166;stroke-linejoin:bevel;stroke-miterlimit:4;stroke-dasharray:none"
   d="M 184.76958,127.62251 L 152.63551,137.07219"
   class="fil0 str5"
   id="path111" /><path
   style="fill:none;stroke:blue;stroke-width:2.12643933;stroke-linejoin:bevel;stroke-miterlimit:4;stroke-dasharray:none"
   d="M 152.63453,137.07031 L 182.5845,161.26812"
   class="fil0 str0"
   id="path113" /><path
   style="fill:none;stroke:black;stroke-width:1.49622166;stroke-linecap:round;stroke-linejoin:bevel;stroke-miterlimit:4;stroke-dasharray:none"
   d="M 29.223263,144.0529 L 154.0498,59.42731"
   class="fil0 str6"
   id="path131" /><path
   style="fill:none;stroke:blue;stroke-width:2.12643933;stroke-linejoin:bevel;stroke-miterlimit:4;stroke-dasharray:none"
   d="M 151.86732,93.077699 L 182.5871,161.26945"
   class="fil0 str0"
   id="path129" /><path
   style="fill:none;stroke:black;stroke-width:1.49622166;stroke-linecap:round;stroke-linejoin:bevel;stroke-miterlimit:4;stroke-dasharray:none"
   d="M -29.107009,171.26297 L 121.91573,68.878012"
   class="fil0 str6"
   id="path133" /><path
   style="fill:none;stroke:black;stroke-width:1.49622166;stroke-linecap:round;stroke-linejoin:bevel;stroke-miterlimit:4;stroke-dasharray:none"
   d="M 29.223263,233.07088 L 184.76958,127.61908"
   class="fil0 str6"
   id="path139" /><path
   style="fill:none;stroke:black;stroke-width:1.49622166;stroke-linecap:round;stroke-linejoin:bevel;stroke-miterlimit:4;stroke-dasharray:none"
   d="M 152.63453,137.07031 L -29.108303,260.28148"
   class="fil0 str6"
   id="path141" /><path
   style="fill:none;fill-rule:evenodd;stroke:black;stroke-width:1.49622166;stroke-linecap:butt;stroke-linejoin:miter;stroke-miterlimit:4;stroke-dasharray:none;stroke-opacity:1"
   d="M 68.109673,251.21181 L 214.71988,151.81847"
   class="fil0 str6"
   id="path143" /><path
   style="fill:none;stroke:black;stroke-width:1.49622166;stroke-linecap:round;stroke-linejoin:bevel;stroke-miterlimit:4;stroke-dasharray:none"
   d="M 182.5845,161.2697 L 9.7784362,278.42213"
   class="fil0 str6"
   id="path145" /><path
   style="fill:none;stroke:black;stroke-width:1.49622166;stroke-linejoin:bevel;stroke-miterlimit:4;stroke-dasharray:none"
   d="M 154.04267,59.422555 L 145.46751,40.373386"
   class="fil0 str1"
   id="path147"
   sodipodi:nodetypes="cc" /><path
   style="fill:none;stroke:black;stroke-width:1.49622166;stroke-linejoin:bevel;marker-start:none;marker-end:none;stroke-miterlimit:4;stroke-dasharray:none"
   d="M 214.71955,151.81925 L 231.82879,165.6425"
   class="fil0 str1"
   id="path149" /><path
   style="fill:none;stroke:black;stroke-width:1.49622166;stroke-linejoin:bevel;marker-end:none;stroke-miterlimit:4;stroke-dasharray:none"
   d="M 152.63453,137.07031 L 131.5216,143.27919"
   class="fil0 str1"
   id="path151" /><path
   style="fill:none;stroke:blue;stroke-width:2.12643933;stroke-linejoin:bevel;stroke-miterlimit:4;stroke-dasharray:none"
   d="M 121.91412,68.878287 L 151.86409,93.076348"
   class="fil0 str0"
   id="path125" /><path
   style="fill:none;stroke:blue;stroke-width:2.12643933;stroke-linejoin:bevel;stroke-miterlimit:4;stroke-dasharray:none"
   d="M 121.91412,68.878287 L 152.63388,137.07006"
   class="fil0 str0"
   id="path123" /><path
   style="fill:none;stroke:black;stroke-width:1.49622166;stroke-linecap:round;stroke-linejoin:bevel;stroke-miterlimit:4;stroke-dasharray:none"
   d="M 151.86732,93.077699 L 9.7810255,189.40392"
   class="fil0 str6"
   id="path137" /><path
   style="fill:none;stroke:black;stroke-width:1.49622166;stroke-linecap:round;stroke-linejoin:bevel;stroke-miterlimit:4;stroke-dasharray:none"
   d="M 68.109673,162.19385 L 184.0001,83.626997"
   class="fil0 str6"
   id="path135" /><path
   style="fill:none;stroke:blue;stroke-width:2.12643933;stroke-linejoin:bevel;stroke-miterlimit:4;stroke-dasharray:none"
   d="M 9.7797308,278.41923 L 9.7797308,189.40102"
   class="fil0 str0"
   id="path101" /><path
   style="fill:none;stroke:blue;stroke-width:2.12643933;stroke-linejoin:bevel;stroke-miterlimit:4;stroke-dasharray:none"
   d="M 9.7797308,278.41923 L 68.109673,251.21021"
   class="fil0 str0"
   id="path85" /><path
   style="fill:none;stroke:blue;stroke-width:2.12643933;stroke-linejoin:bevel;stroke-miterlimit:4;stroke-dasharray:none"
   d="M -29.107009,260.28095 L 9.7797308,278.42031"
   class="fil0 str0"
   id="path83" /><path
   style="fill:none;stroke:blue;stroke-width:2.12643933;stroke-linejoin:bevel;stroke-miterlimit:4;stroke-dasharray:none"
   d="M -29.107009,260.28095 L -29.107009,171.26297"
   class="fil0 str0"
   id="path91" /><path
   style="fill:none;stroke:blue;stroke-width:2.12643933;stroke-linejoin:bevel;stroke-miterlimit:4;stroke-dasharray:none"
   d="M 9.7797308,189.40127 L -29.107009,171.26219"
   class="fil0 str0"
   id="path99" /><path
   style="fill:none;stroke:blue;stroke-width:2.12643933;stroke-linejoin:bevel;stroke-miterlimit:4;stroke-dasharray:none"
   d="M 68.109673,162.19385 L 9.7797308,189.40285"
   class="fil0 str0"
   id="path97" /><path
   style="fill:none;stroke:blue;stroke-width:2.12643933;stroke-linejoin:bevel;stroke-miterlimit:4;stroke-dasharray:none"
   d="M -29.107009,171.26297 L 29.223263,144.05395"
   class="fil0 str0"
   id="path93" /><path
   style="fill:none;stroke:blue;stroke-width:2.12643933;stroke-linejoin:bevel;stroke-miterlimit:4;stroke-dasharray:none"
   d="M 214.71955,151.81925 L 182.58549,161.26892"
   class="fil0 str0"
   id="path115" /><path
   style="fill:none;stroke:blue;stroke-width:2.12643933;stroke-linejoin:bevel;stroke-miterlimit:4;stroke-dasharray:none"
   d="M 214.71955,151.81925 L 183.99977,83.627773"
   class="fil0 str0"
   id="path119" /><path
   style="fill:none;stroke:blue;stroke-width:2.12643933;stroke-linejoin:bevel;stroke-miterlimit:4;stroke-dasharray:none"
   d="M 151.86732,93.077699 L 184.00138,83.628023"
   class="fil0 str0"
   id="path169" /><path
   style="fill:none;stroke:blue;stroke-width:2.12643933;stroke-linejoin:bevel;stroke-miterlimit:4;stroke-dasharray:none"
   d="M 184.00236,83.627247 L 154.05239,59.429162"
   class="fil0 str0"
   id="path117" /><path
   style="fill:none;stroke:blue;stroke-width:2.12643933;stroke-linejoin:bevel;stroke-miterlimit:4;stroke-dasharray:none"
   d="M 121.91412,68.878287 L 154.04818,59.428911"
   class="fil0 str0"
   id="path121" /><path
   style="fill:black;fill-rule:nonzero;display:inline"
   id="path104"
   d="M 22.986191,112.20684 L 18.455651,118.87998 L 22.436976,118.87998 C 22.617873,118.87998 22.770208,118.9455 22.897329,119.07617 C 23.024098,119.20702 23.087747,119.35346 23.087747,119.51864 C 23.087747,119.66508 23.033796,119.80837 22.925892,119.9485 C 22.814638,120.08881 22.652783,120.1573 22.436976,120.1573 L 17.227101,120.1573 C 16.744532,120.1573 16.50316,119.98598 16.50316,119.64634 C 16.50316,119.51864 16.560285,119.35661 16.67771,119.1634 L 21.20825,112.49026 L 17.227101,112.49026 C 17.030336,112.49026 16.868304,112.42808 16.744532,112.30651 C 16.633279,112.17882 16.576153,112.02923 16.576153,111.85161 C 16.576153,111.69904 16.633279,111.55575 16.747706,111.4186 C 16.861957,111.28162 17.023989,111.21295 17.227101,111.21295 L 22.436976,111.21295 C 22.919368,111.21295 23.160741,111.38444 23.160741,111.72391 C 23.160741,111.85161 23.103616,112.01364 22.986191,112.20684 z "
   class="fil2" /><path
   style="fill:black;fill-rule:nonzero;display:inline"
   id="path110"
   d="M 98.693465,255.20986 L 96.172893,247.15956 L 96.134634,246.94148 C 96.134634,246.77647 96.20463,246.63003 96.34092,246.49603 C 96.477562,246.38077 96.629897,246.32157 96.804623,246.32157 C 97.096598,246.32157 97.299887,246.47413 97.420308,246.77647 L 99.372799,253.0476 L 101.38259,246.77647 C 101.4875,246.47413 101.69061,246.32157 101.99528,246.32157 C 102.1857,246.32157 102.34773,246.37762 102.47467,246.48972 C 102.60162,246.60201 102.66527,246.75458 102.66527,246.94148 L 102.62701,247.15956 L 99.24268,257.75503 C 99.147647,258.13514 98.934838,258.45289 98.601606,258.71459 C 98.264848,258.97629 97.880838,259.10714 97.445874,259.10714 L 96.795102,259.10714 C 96.633247,259.10714 96.474389,259.04162 96.312357,258.91393 C 96.201456,258.78623 96.144331,258.63979 96.144331,258.46848 C 96.144331,258.29717 96.198106,258.14757 96.306186,258.01988 C 96.417263,257.89218 96.579119,257.82982 96.795102,257.82982 L 97.436353,257.82982 C 97.572819,257.82982 97.68707,257.78621 97.772934,257.70213 C 97.864794,257.63661 97.941137,257.53081 97.995089,257.3905 L 98.693465,255.20986 L 98.693465,255.20986 z "
   class="fil3" /><path
   style="fill:black;fill-rule:nonzero;display:inline"
   id="path112"
   d="M 22.403577,251.44423 C 22.403577,252.14209 22.14951,252.74344 21.641552,253.24494 C 21.133594,253.74644 20.517556,253.99886 19.800139,253.99886 L 17.193703,253.99886 C 16.488979,253.99886 15.876115,253.7496 15.36181,253.25423 C 14.847681,252.75885 14.59044,252.15453 14.59044,251.44423 L 14.59044,243.77422 C 14.59044,243.06375 14.844331,242.45942 15.349115,241.96405 C 15.854076,241.46868 16.469937,241.21959 17.193703,241.21959 L 19.800139,241.21959 C 20.52408,241.21959 21.139941,241.46868 21.644726,241.9672 C 22.14951,242.46573 22.403577,243.07005 22.403577,243.77422 L 22.403577,251.44423 L 22.403577,251.44423 z M 21.101858,251.44423 L 21.101858,243.77422 C 21.101858,243.41583 20.97791,243.11367 20.73354,242.86756 C 20.488994,242.62145 20.177977,242.49691 19.800139,242.49691 L 17.193703,242.49691 C 16.828735,242.49691 16.517542,242.6183 16.263475,242.86125 C 16.139703,242.98282 16.047491,243.12295 15.984195,243.27885 C 15.92372,243.43142 15.891983,243.59975 15.891983,243.77422 L 15.891983,251.44423 C 15.891983,251.80245 16.015931,252.10776 16.263475,252.35702 C 16.393594,252.46615 16.53341,252.55636 16.682571,252.63116 C 16.869815,252.69036 17.038018,252.72154 17.193703,252.72154 L 19.800139,252.72154 C 20.158759,252.72154 20.466955,252.60313 20.720845,252.36631 C 20.974736,252.12966 21.101858,251.82119 21.101858,251.44423 L 21.101858,251.44423 z M 30.867486,248.24779 L 25.657611,248.24779 C 25.460846,248.24779 25.298814,248.18561 25.175218,248.06405 C 25.063965,247.93635 25.00684,247.78676 25.00684,247.60914 C 25.00684,247.45657 25.063965,247.31328 25.178216,247.17613 C 25.292643,247.03915 25.454498,246.97048 25.657611,246.97048 L 30.867486,246.97048 C 31.048383,246.97048 31.200717,247.03599 31.327839,247.16684 C 31.454784,247.29769 31.518257,247.44413 31.518257,247.60914 C 31.518257,247.75558 31.464305,247.89886 31.356402,248.03917 C 31.245148,248.1793 31.083293,248.24779 30.867486,248.24779 z M 30.867486,251.44423 L 25.657611,251.44423 C 25.460846,251.44423 25.298814,251.38187 25.175218,251.26048 C 25.063965,251.13261 25.00684,250.98319 25.00684,250.80557 C 25.00684,250.653 25.063965,250.50954 25.178216,250.37256 C 25.292643,250.23541 25.454498,250.16692 25.657611,250.16692 L 30.867486,250.16692 C 31.048383,250.16692 31.200717,250.23243 31.327839,250.36328 C 31.454784,250.49413 31.518257,250.64039 31.518257,250.80557 C 31.518257,250.95201 31.464305,251.0953 31.356402,251.23543 C 31.245148,251.37574 31.083293,251.44423 30.867486,251.44423 z M 35.423239,246.73383 L 40.902872,241.39406 C 41.033168,241.27862 41.182329,241.21959 41.347358,241.21959 C 41.509213,241.21959 41.661724,241.28493 41.80154,241.41578 C 41.941004,241.54663 42.011,241.69937 42.011,241.87682 C 42.011,241.98595 41.944177,242.12923 41.814058,242.30685 L 37.934466,246.10446 L 41.934833,253.04858 L 42.026692,253.38823 C 42.026692,253.55026 41.956872,253.69354 41.814058,253.81511 C 41.683939,253.9428 41.525081,254.00814 41.34101,254.00814 C 41.128377,254.00814 40.947303,253.89604 40.791795,253.67182 L 36.975675,246.99851 L 35.423239,248.49706 L 35.423239,253.36948 C 35.423239,253.569 35.359766,253.73085 35.235994,253.85242 C 35.11857,253.95524 34.966235,254.00814 34.772467,254.00814 C 34.597917,254.00814 34.448756,253.95524 34.318461,253.84927 C 34.188166,253.74031 34.121696,253.58144 34.121696,253.36651 L 34.121696,241.84266 C 34.121696,241.67748 34.188166,241.53104 34.321635,241.4065 C 34.454927,241.28178 34.604088,241.21959 34.772467,241.21959 C 34.940846,241.21959 35.093004,241.26934 35.229647,241.36586 C 35.359766,241.47499 35.423239,241.63386 35.423239,241.83951 L 35.423239,246.73383 L 35.423239,246.73383 z "
   class="fil2" /><path
   style="fill:black;fill-rule:nonzero;display:inline"
   id="path114"
   d="M -33.518858,257.22202 C -33.518858,257.42136 -33.579157,257.58339 -33.696581,257.70495 C -33.820529,257.80778 -33.976037,257.86068 -34.169629,257.86068 C -34.318966,257.86068 -34.464954,257.80778 -34.607767,257.7018 C -34.750757,257.59582 -34.820577,257.4338 -34.820577,257.22202 L -34.820577,248.10321 L -37.509527,252.5209 C -37.671383,252.79504 -37.858804,252.93219 -38.077784,252.93219 C -38.261855,252.93219 -38.449276,252.79504 -38.633347,252.5209 L -41.341516,248.10321 L -41.341516,257.22202 C -41.341516,257.42136 -41.404988,257.58339 -41.52876,257.70495 C -41.646184,257.80778 -41.798695,257.86068 -41.992287,257.86068 C -42.166837,257.86068 -42.316174,257.80778 -42.446293,257.7018 C -42.576588,257.59582 -42.643059,257.4338 -42.643059,257.22202 L -42.643059,245.78541 C -42.643059,245.54245 -42.579586,245.36168 -42.455814,245.24029 C -42.344737,245.11242 -42.208094,245.04708 -42.046239,245.04708 C -41.928814,245.04708 -41.823908,245.07826 -41.732049,245.13747 C -41.639837,245.19965 -41.538281,245.30563 -41.433551,245.45837 L -38.077784,250.93197 L -34.728365,245.45837 C -34.579204,245.18406 -34.372742,245.04708 -34.106156,245.04708 C -33.956819,245.04708 -33.817356,245.11242 -33.687237,245.24642 C -33.575983,245.38673 -33.518858,245.56732 -33.518858,245.78541 L -33.518858,257.22202 z "
   class="fil2" /><path
   style="fill:black;fill-rule:nonzero;display:inline"
   id="path116"
   d="M -0.57206734,281.61266 C -0.20057572,281.83075 0.097922292,282.13904 0.32959765,282.53474 C 0.55809938,282.93044 0.67252655,283.35101 0.67252655,283.79331 L 0.67252655,286.35109 C 0.67252655,287.04895 0.41845944,287.6503 -0.08949849,288.1518 C -0.59745642,288.6533 -1.2134942,288.90572 -1.9309121,288.90572 L -6.4898389,288.90572 C -6.9248032,288.90572 -7.1406104,288.69394 -7.1406104,288.26706 L -7.1406104,276.76511 C -7.1406104,276.33823 -6.9248032,276.12645 -6.4898389,276.12645 L -2.5816836,276.12645 C -1.8577422,276.12645 -1.242057,276.37554 -0.73709636,276.87406 C -0.23231207,277.37259 0.021578737,277.97691 0.021578737,278.68108 L 0.021578737,279.96137 C 0.021578737,280.25109 -0.026025789,280.53469 -0.11806121,280.80882 C -0.21027294,281.08296 -0.36243111,281.35096 -0.57206734,281.61266 L -0.57206734,281.61266 z M -5.8390674,282.50671 L -5.8390674,287.6284 L -1.9309121,287.6284 C -1.5722913,287.6284 -1.2640961,287.50999 -1.0102053,287.27316 C -0.75631448,287.03336 -0.62919277,286.72489 -0.62919277,286.34794 L -0.62919277,283.78718 C -0.62919277,283.42879 -0.75314085,283.12347 -0.99751075,282.87736 C -1.242057,282.63126 -1.5530732,282.50671 -1.9309121,282.50671 L -5.8390674,282.50671 z M -2.5816836,281.23868 C -2.2230628,281.23868 -1.9148676,281.12027 -1.6611531,280.88362 C -1.407086,280.6468 -1.2799643,280.33833 -1.2799643,279.96137 L -1.2799643,278.68108 C -1.2799643,278.32269 -1.4039124,278.02053 -1.6482823,277.77442 C -1.8928285,277.52831 -2.204021,277.40376 -2.5816836,277.40376 L -5.8390674,277.40376 L -5.8390674,281.24814 L -2.5816836,281.23868 L -2.5816836,281.23868 z "
   class="fil2" /><path
   style="fill:black;fill-rule:nonzero;display:inline"
   id="path118"
   d="M 69.46285,267.77374 L 66.205466,267.77374 C 65.500743,267.77374 64.887879,267.52448 64.373574,267.02911 C 63.859445,266.53374 63.602204,265.92942 63.602204,265.21912 L 63.602204,257.54911 C 63.602204,256.83863 63.856095,256.23431 64.360879,255.73894 C 64.86584,255.24357 65.481701,254.99448 66.205466,254.99448 L 69.46285,254.99448 C 69.640574,254.99448 69.796082,255.05982 69.923204,255.19066 C 70.050149,255.32151 70.113622,255.46795 70.113622,255.63314 C 70.113622,255.7794 70.059494,255.92286 69.951766,256.06299 C 69.840513,256.20313 69.678657,256.27179 69.46285,256.27179 L 66.205466,256.27179 C 65.840498,256.27179 65.529306,256.39318 65.275239,256.63614 C 65.151467,256.7577 65.059255,256.89784 64.995959,257.05373 C 64.935483,257.2063 64.903747,257.37464 64.903747,257.54911 L 64.903747,265.21912 C 64.903747,265.57733 65.027695,265.88265 65.275239,266.13191 C 65.405358,266.24104 65.545174,266.33125 65.694335,266.40604 C 65.881579,266.46525 66.049782,266.49643 66.205466,266.49643 L 69.46285,266.49643 C 69.640574,266.49643 69.796082,266.56194 69.923204,266.69262 C 70.050149,266.82346 70.113622,266.9699 70.113622,267.13509 C 70.113622,267.28152 70.059494,267.42481 69.951766,267.56494 C 69.840513,267.70525 69.678657,267.77374 69.46285,267.77374 z "
   class="fil2" /><path
   style="fill:black;fill-rule:nonzero;display:inline"
   id="path120"
   d="M -34.440114,185.37512 C -34.440114,185.57761 -34.500413,185.74893 -34.617837,185.88906 L -34.811605,186.03235 C -34.881425,186.06983 -34.957592,186.0884 -35.043281,186.0884 C -35.303519,186.0884 -35.513155,185.95755 -35.668839,185.69585 L -40.94201,176.49611 L -40.94201,185.44974 C -40.94201,185.64926 -41.005483,185.81111 -41.129255,185.93268 C -41.246679,186.0355 -41.39919,186.0884 -41.592782,186.0884 C -41.767332,186.0884 -41.916669,186.0355 -42.046788,185.92952 C -42.177083,185.82057 -42.243553,185.66169 -42.243553,185.44974 L -42.243553,174.00385 C -42.243553,173.77648 -42.180081,173.60517 -42.056309,173.4836 C -41.945232,173.36204 -41.802418,173.29985 -41.630865,173.29985 C -41.379972,173.29985 -41.176859,173.43368 -41.015004,173.70168 L -35.741833,182.89512 L -35.741833,173.93851 C -35.741833,173.76702 -35.67501,173.6113 -35.544891,173.46486 C -35.414772,173.35591 -35.265435,173.29985 -35.090885,173.29985 C -34.92903,173.29985 -34.776519,173.35275 -34.633705,173.45557 C -34.50341,173.56453 -34.440114,173.72656 -34.440114,173.93851 L -34.440114,185.37512 z "
   class="fil2" /><path
   style="fill:black;fill-rule:nonzero;display:inline"
   id="path122"
   d="M -0.77288539,199.18632 L -1.7124577,201.94028 C -1.7634122,202.07428 -1.842753,202.18639 -1.9538303,202.27047 C -2.0395184,202.32355 -2.1601165,202.36086 -2.3062801,202.3796 C -2.48083,202.3796 -2.6331645,202.31724 -2.7632835,202.19568 C -2.9062734,202.08672 -2.9760934,201.94028 -2.9760934,201.75951 L -2.9316625,201.53214 L 0.98601369,190.03019 C 1.1161327,189.66567 1.3194217,189.48175 1.5987016,189.48175 C 1.8781578,189.48175 2.0812704,189.66567 2.2113895,190.03019 L 6.1100238,201.53214 L 6.1576284,201.75951 C 6.1576284,201.92469 6.0846348,202.07113 5.9418212,202.20513 C 5.8051786,202.32039 5.6530204,202.3796 5.4878151,202.3796 C 5.3989533,202.3796 5.3035679,202.3577 5.192667,202.31409 C 5.0845871,202.27362 4.9830308,202.14908 4.8909953,201.94028 L 3.9512467,199.18632 L -0.77288539,199.18632 L -0.77288539,199.18632 z M 3.5162824,197.88098 L 1.5987016,192.24833 L -0.32522653,197.88098 L 3.5162824,197.88098 z "
   class="fil2" /><path
   style="fill:black;fill-rule:nonzero;display:inline"
   id="path127"
   d="M 53.21575,146.72856 C 53.21575,147.42642 52.961683,148.02777 52.453725,148.52927 C 51.945767,149.03077 51.32973,149.28319 50.612312,149.28319 L 46.053385,149.28319 C 45.618421,149.28319 45.402613,149.07141 45.402613,148.64453 L 45.402613,137.14258 C 45.402613,136.7157 45.618421,136.50392 46.053385,136.50392 L 50.612312,136.50392 C 51.336253,136.50392 51.952115,136.75301 52.456899,137.25153 C 52.961683,137.75006 53.21575,138.35438 53.21575,139.05855 L 53.21575,146.72856 L 53.21575,146.72856 z M 51.914031,146.72856 L 51.914031,139.05855 C 51.914031,138.70016 51.790083,138.398 51.545713,138.15189 C 51.301167,137.90578 50.990151,137.78124 50.612312,137.78124 L 46.704156,137.78124 L 46.704156,148.00588 L 50.612312,148.00588 C 50.970932,148.00588 51.279128,147.88746 51.533018,147.65064 C 51.786909,147.41399 51.914031,147.10552 51.914031,146.72856 z "
   class="fil2" /><path
   style="fill:black;fill-rule:nonzero;display:inline"
   id="path130"
   d="M 195.96112,28.651711 C 196.03112,28.849824 196.02495,29.031997 195.94437,29.194377 C 195.86397,29.336086 195.73121,29.440135 195.53903,29.505472 C 195.36571,29.564328 195.19892,29.562226 195.03266,29.500918 C 194.86622,29.439785 194.74333,29.301403 194.6691,29.091028 L 190.86197,18.306739 L 185.69001,20.064885 L 189.49713,30.849174 C 189.56695,31.047112 189.56078,31.22946 189.48056,31.391664 C 189.39981,31.533549 189.26722,31.637422 189.07504,31.702759 C 188.90155,31.76179 188.73476,31.759513 188.56849,31.69838 C 188.40223,31.637247 188.27916,31.498866 188.20494,31.288491 L 184.17407,19.8701 C 184.02455,19.446547 184.16472,19.163128 184.59634,19.016514 L 191.0605,16.819051 C 191.49229,16.672262 191.78074,16.809943 191.93025,17.233495 L 195.96112,28.651711 L 195.96112,28.651711 z M 196.01913,16.016614 L 196.2695,18.77566 C 196.30934,19.118811 196.15824,19.350206 195.82095,19.46494 C 195.62877,19.530277 195.44929,19.521869 195.28391,19.443044 C 195.10777,19.374729 194.99034,19.251937 194.92916,19.078698 L 194.89655,18.895649 L 194.64618,16.137129 C 194.60616,15.793978 194.75743,15.562408 195.09454,15.447674 C 195.28056,15.384439 195.45369,15.394949 195.62243,15.472722 C 195.79927,15.533856 195.9241,15.657698 195.98969,15.843199 L 196.01913,16.016614 L 196.01913,16.016614 z "
   class="fil2" /><path
   style="fill:black;fill-rule:nonzero;display:inline"
   id="path132"
   d="M 238.30888,162.92923 L 235.66065,154.47009 L 235.62063,154.24097 C 235.62063,154.06738 235.69398,153.91359 235.8375,153.77275 C 235.98066,153.65171 236.14075,153.58953 236.3243,153.58953 C 236.63126,153.58953 236.84477,153.74998 236.97136,154.06738 L 239.02259,160.65732 L 241.13394,154.06738 C 241.24414,153.74998 241.45747,153.58953 241.77766,153.58953 C 241.97795,153.58953 242.14809,153.64839 242.28139,153.76627 C 242.41485,153.88416 242.48168,154.04444 242.48168,154.24097 L 242.44148,154.47009 L 238.88595,165.60367 C 238.78598,166.00305 238.56241,166.33691 238.21226,166.61192 C 237.85857,166.88694 237.45517,167.02444 236.99799,167.02444 L 236.31425,167.02444 C 236.14428,167.02444 235.97749,166.95578 235.80752,166.82142 C 235.6908,166.68725 235.6305,166.53345 235.6305,166.35338 C 235.6305,166.17331 235.68728,166.01618 235.80065,165.88201 C 235.91737,165.74765 236.08751,165.68232 236.31425,165.68232 L 236.98811,165.68232 C 237.13146,165.68232 237.2517,165.63642 237.34162,165.54796 C 237.43842,165.4793 237.51846,165.36807 237.57524,165.22075 L 238.30888,162.92923 L 238.30888,162.92923 z M 246.87751,150.4043 L 246.19377,153.09188 C 246.11708,153.42908 245.89704,153.59934 245.54018,153.59934 C 245.33671,153.59934 245.16992,153.53383 245.0398,153.40613 C 244.89628,153.28509 244.82646,153.13112 244.82646,152.94789 L 244.85644,152.7645 L 245.54018,150.07692 C 245.61688,149.73972 245.83691,149.56946 246.19377,149.56946 C 246.39071,149.56946 246.55081,149.63497 246.6841,149.76267 C 246.83079,149.87723 246.90749,150.03435 246.90749,150.23071 L 246.87751,150.4043 L 246.87751,150.4043 z "
   class="fil2" /><path
   style="fill:black;fill-rule:nonzero;display:inline"
   id="path134"
   d="M 128.73144,135.57922 L 131.11255,139.06538 L 131.20459,139.25859 L 131.20459,139.4299 C 131.20459,139.59509 131.13794,139.7445 131.0013,139.87851 L 130.89657,139.96258 L 130.75693,140.02494 L 130.51573,140.06225 C 130.33783,140.06225 130.16328,139.96889 129.9949,139.77884 L 127.94085,136.73812 L 125.88681,139.76955 C 125.75669,139.96574 125.57579,140.06225 125.34711,140.06225 C 125.21065,140.06225 125.05831,139.99692 124.88993,139.86922 C 124.74712,139.74135 124.6773,139.58878 124.6773,139.41431 C 124.6773,139.30536 124.71538,139.1838 124.78838,139.0561 L 127.15027,135.57607 L 124.77251,132.09621 L 124.6773,131.90318 L 124.6773,131.72871 C 124.6773,131.56668 124.74395,131.42025 124.87407,131.29255 C 125.00436,131.16468 125.16622,131.09934 125.36616,131.09934 C 125.54388,131.09934 125.71843,131.19288 125.88681,131.38276 L 127.94085,134.42032 L 129.9949,131.39222 C 130.12502,131.19586 130.30609,131.09934 130.53477,131.09934 C 130.66489,131.09934 130.8204,131.1617 131.0013,131.2894 C 131.13794,131.4234 131.20459,131.57597 131.20459,131.74728 C 131.20459,131.85641 131.1665,131.97482 131.09351,132.10252 L 128.73144,135.57922 L 128.73144,135.57922 z M 135.2619,128.06809 L 134.61113,130.62587 C 134.53814,130.9466 134.3285,131.10862 133.98875,131.10862 C 133.79515,131.10862 133.63647,131.04644 133.5127,130.92488 C 133.37623,130.80962 133.30941,130.66318 133.30941,130.48871 L 133.33797,130.31425 L 133.98875,127.75647 C 134.06174,127.43556 134.27138,127.27371 134.61113,127.27371 C 134.79855,127.27371 134.95071,127.33589 135.07783,127.45746 C 135.21747,127.56641 135.29046,127.716 135.29046,127.9029 L 135.2619,128.06809 z "
   class="fil2" /><path
   style="fill:black;fill-rule:nonzero;display:inline"
   id="path136"
   d="M 157.37279,33.649736 L 152.84225,40.322863 L 156.82358,40.322863 C 157.00448,40.322863 157.15681,40.388375 157.28393,40.519049 C 157.4107,40.649898 157.47435,40.796337 157.47435,40.961519 C 157.47435,41.107958 157.4204,41.251244 157.31249,41.391378 C 157.20124,41.531686 157.03939,41.600176 156.82358,41.600176 L 151.6137,41.600176 C 151.13114,41.600176 150.88976,41.428863 150.88976,41.089215 C 150.88976,40.961519 150.94689,40.79949 151.06431,40.606282 L 155.59485,33.933155 L 151.6137,33.933155 C 151.41694,33.933155 151.25491,33.870971 151.13114,33.749406 C 151.01988,33.62171 150.96276,33.472118 150.96276,33.294499 C 150.96276,33.141929 151.01988,32.998643 151.13431,32.861488 C 151.24856,32.724507 151.41059,32.655842 151.6137,32.655842 L 156.82358,32.655842 C 157.30597,32.655842 157.54734,32.82733 157.54734,33.166803 C 157.54734,33.294499 157.49022,33.456528 157.37279,33.649736 z M 161.54119,29.615304 L 160.89042,32.173084 C 160.81742,32.493813 160.60779,32.655842 160.26803,32.655842 C 160.07444,32.655842 159.91576,32.593658 159.79199,32.472093 C 159.65552,32.356833 159.5887,32.210394 159.5887,32.035928 L 159.61726,31.861463 L 160.26803,29.303683 C 160.34102,28.982778 160.55066,28.820924 160.89042,28.820924 C 161.07784,28.820924 161.22999,28.883108 161.35712,29.004674 C 161.49676,29.113627 161.56975,29.26322 161.56975,29.450122 L 161.54119,29.615304 L 161.54119,29.615304 z "
   class="fil2" /><path
   style="fill:black;fill-rule:nonzero;display:inline"
   id="path138"
   d="M 160.30014,128.75534 C 160.30014,128.95468 160.23985,129.11671 160.12242,129.23827 C 159.99847,129.3411 159.84296,129.394 159.64937,129.394 C 159.50004,129.394 159.35405,129.3411 159.21124,129.23512 C 159.06825,129.12914 158.99843,128.96712 158.99843,128.75534 L 158.99843,119.63653 L 156.30947,124.05422 C 156.14762,124.32836 155.9602,124.46551 155.74122,124.46551 C 155.55715,124.46551 155.36973,124.32836 155.18566,124.05422 L 152.47749,119.63653 L 152.47749,128.75534 C 152.47749,128.95468 152.41401,129.11671 152.29024,129.23827 C 152.17282,129.3411 152.02031,129.394 151.82672,129.394 C 151.65217,129.394 151.50283,129.3411 151.37271,129.23512 C 151.24241,129.12914 151.17594,128.96712 151.17594,128.75534 L 151.17594,117.31873 C 151.17594,117.07577 151.23942,116.895 151.36319,116.77361 C 151.47427,116.64574 151.61091,116.5804 151.77276,116.5804 C 151.89019,116.5804 151.99509,116.61158 152.08695,116.67079 C 152.17917,116.73297 152.28072,116.83894 152.38545,116.99169 L 155.74122,122.46529 L 159.09064,116.99169 C 159.2398,116.71738 159.44626,116.5804 159.71285,116.5804 C 159.86218,116.5804 160.00165,116.64574 160.13177,116.77974 C 160.24302,116.92005 160.30014,117.10064 160.30014,117.31873 L 160.30014,128.75534 L 160.30014,128.75534 z M 164.35429,117.40911 L 163.70352,119.96689 C 163.63052,120.28762 163.42089,120.44965 163.08131,120.44965 C 162.88754,120.44965 162.72886,120.38747 162.60526,120.2659 C 162.46862,120.15064 162.4018,120.0042 162.4018,119.82974 L 162.43036,119.65527 L 163.08131,117.09749 C 163.1543,116.77659 163.36376,116.61473 163.70352,116.61473 C 163.89094,116.61473 164.04327,116.67692 164.17039,116.79848 C 164.30986,116.90743 164.38285,117.05703 164.38285,117.24393 L 164.35429,117.40911 L 164.35429,117.40911 z "
   class="fil2" /><path
   style="fill:black;fill-rule:nonzero;display:inline"
   id="path140"
   d="M 166.04795,159.76394 C 166.41944,159.98203 166.71794,160.29032 166.94962,160.68602 C 167.17812,161.08172 167.29254,161.5023 167.29254,161.94459 L 167.29254,164.50237 C 167.29254,165.20023 167.03848,165.80158 166.53052,166.30308 C 166.02256,166.80458 165.40652,167.057 164.68911,167.057 L 160.13018,167.057 C 159.69521,167.057 159.47941,166.84522 159.47941,166.41834 L 159.47941,154.91639 C 159.47941,154.48951 159.69521,154.27773 160.13018,154.27773 L 164.03833,154.27773 C 164.76228,154.27773 165.37796,154.52682 165.88292,155.02534 C 166.38771,155.52387 166.6416,156.12819 166.6416,156.83236 L 166.6416,158.11265 C 166.6416,158.40238 166.59399,158.68597 166.50196,158.96011 C 166.40974,159.23424 166.25759,159.50225 166.04795,159.76394 L 166.04795,159.76394 z M 160.78095,160.65799 L 160.78095,165.77968 L 164.68911,165.77968 C 165.04773,165.77968 165.35592,165.66127 165.60981,165.42445 C 165.8637,165.18464 165.99083,164.87618 165.99083,164.49922 L 165.99083,161.93846 C 165.99083,161.58007 165.86688,161.27475 165.62251,161.02865 C 165.37796,160.78254 165.06694,160.65799 164.68911,160.65799 L 160.78095,160.65799 L 160.78095,160.65799 z M 164.03833,159.38996 C 164.39695,159.38996 164.70515,159.27155 164.95886,159.0349 C 165.21293,158.79808 165.34005,158.48961 165.34005,158.11265 L 165.34005,156.83236 C 165.34005,156.47397 165.21611,156.17181 164.97174,155.9257 C 164.72719,155.67959 164.416,155.55505 164.03833,155.55505 L 160.78095,155.55505 L 160.78095,159.39942 L 164.03833,159.38996 L 164.03833,159.38996 z M 171.35621,155.07211 L 170.70526,157.62989 C 170.63227,157.95062 170.42281,158.11265 170.08305,158.11265 C 169.88946,158.11265 169.73078,158.05047 169.60701,157.9289 C 169.47036,157.81364 169.40372,157.6672 169.40372,157.49274 L 169.43228,157.31827 L 170.08305,154.76049 C 170.15604,154.43959 170.36568,154.27773 170.70526,154.27773 C 170.89268,154.27773 171.04502,154.33992 171.17214,154.46148 C 171.31178,154.57044 171.38477,154.72003 171.38477,154.90693 L 171.35621,155.07211 z "
   class="fil2" /><path
   style="fill:black;fill-rule:nonzero;display:inline"
   id="path146"
   d="M 192.41718,122.83632 C 192.41718,123.53418 192.16311,124.13553 191.65516,124.63703 C 191.1472,125.13853 190.53116,125.39094 189.81374,125.39094 L 187.20731,125.39094 C 186.50258,125.39094 185.88972,125.14168 185.37541,124.64631 C 184.86128,124.15094 184.60404,123.54662 184.60404,122.83632 L 184.60404,115.16631 C 184.60404,114.45583 184.85793,113.85151 185.36272,113.35614 C 185.86768,112.86077 186.48354,112.61168 187.20731,112.61168 L 189.81374,112.61168 C 190.53768,112.61168 191.15354,112.86077 191.65833,113.35929 C 192.16311,113.85781 192.41718,114.46214 192.41718,115.16631 L 192.41718,122.83632 L 192.41718,122.83632 z M 191.11546,122.83632 L 191.11546,115.16631 C 191.11546,114.80792 190.99151,114.50575 190.74714,114.25964 C 190.5026,114.01354 190.19158,113.88899 189.81374,113.88899 L 187.20731,113.88899 C 186.84234,113.88899 186.53115,114.01038 186.27708,114.25334 C 186.15331,114.3749 186.06109,114.51504 185.9978,114.67094 C 185.93732,114.82351 185.90559,114.99184 185.90559,115.16631 L 185.90559,122.83632 C 185.90559,123.19453 186.02953,123.49985 186.27708,123.74911 C 186.4072,123.85824 186.54701,123.94845 186.69617,124.02324 C 186.88342,124.08245 187.05162,124.11363 187.20731,124.11363 L 189.81374,124.11363 C 190.17236,124.11363 190.48056,123.99522 190.73445,123.75839 C 190.98834,123.52174 191.11546,123.21327 191.11546,122.83632 L 191.11546,122.83632 z M 196.48084,113.40606 L 195.8299,115.96384 C 195.7569,116.28457 195.54744,116.4466 195.20769,116.4466 C 195.0141,116.4466 194.85541,116.38441 194.73164,116.26285 C 194.595,116.14759 194.52835,116.00115 194.52835,115.82668 L 194.55692,115.65222 L 195.20769,113.09444 C 195.28068,112.77353 195.49032,112.61168 195.8299,112.61168 C 196.01732,112.61168 196.16965,112.67386 196.29677,112.79543 C 196.43641,112.90438 196.50941,113.05397 196.50941,113.24088 L 196.48084,113.40606 z M 204.78607,119.63988 L 199.5762,119.63988 C 199.37943,119.63988 199.2174,119.5777 199.0938,119.45613 C 198.98255,119.32843 198.92542,119.17884 198.92542,119.00122 C 198.92542,118.84865 198.98255,118.70537 199.0968,118.56821 C 199.21123,118.43123 199.37308,118.36257 199.5762,118.36257 L 204.78607,118.36257 C 204.96697,118.36257 205.1193,118.42808 205.24642,118.55893 C 205.37337,118.68978 205.43684,118.83622 205.43684,119.00122 C 205.43684,119.14766 205.38289,119.29095 205.27499,119.43126 C 205.16373,119.57139 205.00188,119.63988 204.78607,119.63988 z M 204.78607,122.83632 L 199.5762,122.83632 C 199.37943,122.83632 199.2174,122.77396 199.0938,122.65257 C 198.98255,122.5247 198.92542,122.37528 198.92542,122.19766 C 198.92542,122.04509 198.98255,121.90163 199.0968,121.76465 C 199.21123,121.62749 199.37308,121.559 199.5762,121.559 L 204.78607,121.559 C 204.96697,121.559 205.1193,121.62452 205.24642,121.75537 C 205.37337,121.88621 205.43684,122.03248 205.43684,122.19766 C 205.43684,122.3441 205.38289,122.48739 205.27499,122.62752 C 205.16373,122.76783 205.00188,122.83632 204.78607,122.83632 z M 209.34182,118.12592 L 214.82146,112.78615 C 214.95175,112.67071 215.10091,112.61168 215.26594,112.61168 C 215.4278,112.61168 215.58031,112.67702 215.71995,112.80787 C 215.85959,112.93872 215.92959,113.09146 215.92959,113.2689 C 215.92959,113.37803 215.86276,113.52132 215.73264,113.69894 L 211.85305,117.49654 L 215.85342,124.44067 L 215.94528,124.78031 C 215.94528,124.94234 215.87546,125.08563 215.73264,125.20719 C 215.60252,125.33489 215.44367,125.40023 215.2596,125.40023 C 215.04696,125.40023 214.86589,125.28812 214.71038,125.06391 L 210.89426,118.39059 L 209.34182,119.88914 L 209.34182,124.76157 C 209.34182,124.96109 209.27835,125.12294 209.15458,125.2445 C 209.03715,125.34733 208.88464,125.40023 208.69105,125.40023 C 208.5165,125.40023 208.36717,125.34733 208.23705,125.24135 C 208.10675,125.1324 208.04028,124.97352 208.04028,124.75859 L 208.04028,113.23475 C 208.04028,113.06956 208.10675,112.92313 208.24022,112.79858 C 208.37351,112.67386 208.52267,112.61168 208.69105,112.61168 C 208.85943,112.61168 209.01159,112.66143 209.14823,112.75794 C 209.27835,112.86707 209.34182,113.02595 209.34182,113.23159 L 209.34182,118.12592 L 209.34182,118.12592 z M 219.91708,113.40606 L 219.26613,115.96384 C 219.19314,116.28457 218.98368,116.4466 218.64392,116.4466 C 218.45033,116.4466 218.29165,116.38441 218.16788,116.26285 C 218.03124,116.14759 217.96459,116.00115 217.96459,115.82668 L 217.99315,115.65222 L 218.64392,113.09444 C 218.71692,112.77353 218.92655,112.61168 219.26613,112.61168 C 219.45355,112.61168 219.60589,112.67386 219.73301,112.79543 C 219.87265,112.90438 219.94564,113.05397 219.94564,113.24088 L 219.91708,113.40606 z "
   class="fil2" /><path
   style="fill:black;fill-rule:nonzero;display:inline"
   id="path148"
   d="M 187.03578,75.066866 L 190.30268,75.066866 C 190.48041,75.066866 190.63609,75.132378 190.76304,75.263227 C 190.88998,75.394077 190.95345,75.540516 190.95345,75.705522 C 190.95345,75.858268 190.8995,76.001554 190.78843,76.138534 C 190.68052,76.275689 190.51849,76.344179 190.30268,76.344179 L 187.03578,76.344179 L 187.03578,81.456585 L 191.60423,81.456585 C 191.78213,81.456585 191.93781,81.522098 192.06458,81.652772 C 192.19153,81.783621 192.25517,81.93006 192.25517,82.095242 C 192.25517,82.247812 192.20122,82.391273 192.09314,82.528253 C 191.98224,82.665409 191.82003,82.733899 191.60423,82.733899 L 186.38501,82.733899 C 185.95004,82.733899 185.73424,82.534559 185.73424,82.132552 L 185.73424,70.593291 C 185.73424,70.166411 185.95004,69.954635 186.38501,69.954635 L 191.60423,69.954635 C 191.78213,69.954635 191.93781,70.019972 192.06458,70.150821 C 192.19153,70.28167 192.25517,70.428109 192.25517,70.593291 C 192.25517,70.745861 192.20122,70.889147 192.09314,71.026303 C 191.98224,71.163283 191.82003,71.231948 191.60423,71.231948 L 187.03578,71.231948 L 187.03578,75.066866 L 187.03578,75.066866 z M 196.30932,70.749014 L 195.65855,73.306794 C 195.58555,73.627524 195.37592,73.789552 195.03616,73.789552 C 194.84257,73.789552 194.68389,73.727368 194.56011,73.605803 C 194.42365,73.490543 194.35683,73.344104 194.35683,73.169639 L 194.38539,72.995173 L 195.03616,70.437393 C 195.10915,70.116488 195.31879,69.954635 195.65855,69.954635 C 195.84597,69.954635 195.99812,70.016819 196.12525,70.138384 C 196.26489,70.247338 196.33788,70.39693 196.33788,70.583832 L 196.30932,70.749014 L 196.30932,70.749014 z "
   class="fil2" /><path
   style="fill:black;fill-rule:nonzero;display:inline"
   id="path150"
   d="M 148.10699,83.401583 L 147.16742,86.155549 C 147.11646,86.289551 147.03712,86.401658 146.92604,86.485738 C 146.84036,86.538813 146.71976,86.576123 146.57359,86.594866 C 146.39904,86.594866 146.24671,86.532507 146.11659,86.410941 C 145.9736,86.301988 145.90378,86.155549 145.90378,85.974777 L 145.94821,85.747411 L 149.86589,74.245461 C 149.99601,73.880939 150.1993,73.697015 150.47858,73.697015 C 150.75803,73.697015 150.96114,73.880939 151.09126,74.245461 L 154.9899,85.747411 L 155.0375,85.974777 C 155.0375,86.139959 154.96451,86.286398 154.82169,86.4204 C 154.68505,86.53566 154.53289,86.594866 154.36769,86.594866 C 154.27883,86.594866 154.18344,86.57297 154.07254,86.529354 C 153.96446,86.488891 153.8629,86.364347 153.77087,86.155549 L 152.83112,83.401583 L 148.10699,83.401583 z M 152.39616,82.096243 L 150.47858,76.463593 L 148.55465,82.096243 L 152.39616,82.096243 z M 159.00913,74.619266 L 158.35836,77.177045 C 158.28536,77.497775 158.07573,77.659804 157.73615,77.659804 C 157.54238,77.659804 157.3837,77.59762 157.2601,77.476054 C 157.12346,77.360795 157.05664,77.214356 157.05664,77.03989 L 157.0852,76.865424 L 157.73615,74.307645 C 157.80914,73.98674 158.0186,73.824886 158.35836,73.824886 C 158.54578,73.824886 158.69811,73.88707 158.82524,74.008636 C 158.9647,74.117589 159.03769,74.267181 159.03769,74.454084 L 159.00913,74.619266 L 159.00913,74.619266 z "
   class="fil2" /><path
   style="fill:black;fill-rule:nonzero;display:inline"
   id="path152"
   d="M 116.6209,64.371807 C 116.6209,64.574299 116.5606,64.745612 116.44318,64.885745 L 116.24941,65.029031 C 116.17959,65.066516 116.10342,65.085084 116.01773,65.085084 C 115.7575,65.085084 115.54786,64.954235 115.39218,64.692536 L 110.119,55.492797 L 110.119,64.446427 C 110.119,64.645942 110.05553,64.807796 109.93176,64.929361 C 109.81434,65.032184 109.66182,65.085084 109.46823,65.085084 C 109.29368,65.085084 109.14435,65.032184 109.01423,64.926208 C 108.88393,64.817255 108.81746,64.658379 108.81746,64.446427 L 108.81746,53.00053 C 108.81746,52.773164 108.88093,52.601851 109.00471,52.480286 C 109.11578,52.35872 109.2586,52.296536 109.43015,52.296536 C 109.68104,52.296536 109.88416,52.430363 110.04601,52.698368 L 115.31918,61.891801 L 115.31918,52.935193 C 115.31918,52.763705 115.386,52.607982 115.51612,52.461543 C 115.64624,52.35259 115.79558,52.296536 115.97013,52.296536 C 116.13199,52.296536 116.2845,52.349437 116.42731,52.452259 C 116.5576,52.561213 116.6209,52.723242 116.6209,52.935193 L 116.6209,64.371807 z M 120.69426,53.090916 L 120.04331,55.648696 C 119.97032,55.969425 119.76086,56.131454 119.42111,56.131454 C 119.22751,56.131454 119.06883,56.06927 118.94506,55.947705 C 118.80842,55.832445 118.74177,55.686006 118.74177,55.51154 L 118.77033,55.337074 L 119.42111,52.779295 C 119.4941,52.45839 119.70374,52.296536 120.04331,52.296536 C 120.23073,52.296536 120.38307,52.35872 120.51019,52.480286 C 120.64983,52.589239 120.72282,52.738831 120.72282,52.925734 L 120.69426,53.090916 L 120.69426,53.090916 z "
   class="fil2" /><path
   style="fill:black;fill-rule:nonzero;display:inline"
   id="path154"
   d="M 167.07354,56.589739 C 167.07354,57.287602 166.81947,57.888949 166.31151,58.39045 C 165.80356,58.891951 165.18752,59.144366 164.4701,59.144366 L 159.91117,59.144366 C 159.47621,59.144366 159.2604,58.93259 159.2604,58.505709 L 159.2604,47.003759 C 159.2604,46.576878 159.47621,46.365102 159.91117,46.365102 L 164.4701,46.365102 C 165.19404,46.365102 165.8099,46.614189 166.31469,47.112712 C 166.81947,47.611236 167.07354,48.21556 167.07354,48.919729 L 167.07354,56.589739 L 167.07354,56.589739 z M 165.77182,56.589739 L 165.77182,48.919729 C 165.77182,48.561338 165.64787,48.259176 165.4035,48.013067 C 165.15895,47.766959 164.84794,47.642415 164.4701,47.642415 L 160.56194,47.642415 L 160.56194,57.867053 L 164.4701,57.867053 C 164.82872,57.867053 165.13692,57.74864 165.39081,57.511815 C 165.6447,57.275165 165.77182,56.966697 165.77182,56.589739 L 165.77182,56.589739 z M 171.1372,47.159482 L 170.48625,49.717261 C 170.41326,50.037991 170.2038,50.20002 169.86405,50.20002 C 169.67045,50.20002 169.51177,50.137836 169.388,50.01627 C 169.25136,49.901011 169.18471,49.754572 169.18471,49.580106 L 169.21327,49.40564 L 169.86405,46.847861 C 169.93704,46.526956 170.14667,46.365102 170.48625,46.365102 C 170.67367,46.365102 170.82601,46.427286 170.95313,46.548852 C 171.09277,46.657805 171.16576,46.807397 171.16576,46.9943 L 171.1372,47.159482 L 171.1372,47.159482 z "
   class="fil2" /><path
   style="fill:black;fill-rule:nonzero;display:inline"
   id="path13718"
   d="M -56.70029,264.54823 L -54.319182,268.03439 L -54.227146,268.2276 L -54.227146,268.39891 C -54.227146,268.56409 -54.293793,268.71351 -54.430435,268.84751 L -54.535165,268.93159 L -54.674805,268.99395 L -54.916002,269.03126 C -55.093901,269.03126 -55.268451,268.9379 -55.43683,268.74784 L -57.490878,265.70713 L -59.544925,268.73856 C -59.675044,268.93475 -59.855941,269.03126 -60.084619,269.03126 C -60.221085,269.03126 -60.37342,268.96592 -60.541799,268.83823 C -60.684612,268.71036 -60.754432,268.55779 -60.754432,268.38332 C -60.754432,268.27437 -60.716349,268.1528 -60.643355,268.02511 L -58.281465,264.54508 L -60.659223,261.06522 L -60.754432,260.87219 L -60.754432,260.69772 C -60.754432,260.53569 -60.687786,260.38925 -60.557667,260.26156 C -60.427372,260.13369 -60.265516,260.06835 -60.065577,260.06835 C -59.887854,260.06835 -59.713304,260.16189 -59.544925,260.35177 L -57.490878,263.38933 L -55.43683,260.36123 C -55.306711,260.16486 -55.125638,260.06835 -54.89696,260.06835 C -54.766841,260.06835 -54.611333,260.13071 -54.430435,260.2584 C -54.293793,260.39241 -54.227146,260.54498 -54.227146,260.71629 C -54.227146,260.82542 -54.26523,260.94383 -54.338224,261.07153 L -56.70029,264.54823 L -56.70029,264.54823 z "
   class="fil2"
   sodipodi:nodetypes="cccccccccccssscccccsscccscsccc" /><path
   style="fill:black;fill-rule:nonzero;display:inline"
   id="path13723"
   d="M 77.092017,166.4054 L 80.358922,166.4054 C 80.536645,166.4054 80.69233,166.47092 80.819275,166.60176 C 80.946221,166.73261 81.009693,166.87905 81.009693,167.04406 C 81.009693,167.1968 80.955741,167.34009 80.844664,167.47707 C 80.736761,167.61423 80.574729,167.68272 80.358922,167.68272 L 77.092017,167.68272 L 77.092017,172.79512 L 81.660465,172.79512 C 81.838365,172.79512 81.994049,172.86063 82.120818,172.99131 C 82.247764,173.12216 82.311413,173.2686 82.311413,173.43378 C 82.311413,173.58635 82.257461,173.72981 82.149381,173.86679 C 82.03848,174.00395 81.876272,174.07244 81.660465,174.07244 L 76.441246,174.07244 C 76.006281,174.07244 75.790474,173.8731 75.790474,173.47109 L 75.790474,161.93183 C 75.790474,161.50495 76.006281,161.29317 76.441246,161.29317 L 81.660465,161.29317 C 81.838365,161.29317 81.994049,161.35851 82.120818,161.48936 C 82.247764,161.62021 82.311413,161.76665 82.311413,161.93183 C 82.311413,162.0844 82.257461,162.22768 82.149381,162.36484 C 82.03848,162.50182 81.876272,162.57049 81.660465,162.57049 L 77.092017,162.57049 L 77.092017,166.4054 L 77.092017,166.4054 z "
   class="fil2"
   sodipodi:nodetypes="ccsssccccsssccccccssscccc" /><g
   style="fill-rule:evenodd;display:inline"
   id="g13729"
   transform="matrix(2.518758,0,0,2.502377,-199.2915,-213.3598)"><path
     class="fil2"
     d="M 168.0557,144.93558 L 166.76245,144.93558 C 166.48266,144.93558 166.23934,144.83597 166.03515,144.63801 C 165.83103,144.44005 165.7289,144.19855 165.7289,143.9147 L 165.7289,140.84961 C 165.7289,140.56569 165.8297,140.32419 166.03011,140.12623 C 166.23059,139.92827 166.4751,139.82873 166.76245,139.82873 L 168.0557,139.82873 C 168.12626,139.82873 168.188,139.85484 168.23847,139.90713 C 168.28887,139.95942 168.31407,140.01794 168.31407,140.08395 C 168.31407,140.1424 168.29258,140.19973 168.24981,140.25573 C 168.20564,140.31173 168.14138,140.33917 168.0557,140.33917 L 166.76245,140.33917 C 166.61755,140.33917 166.494,140.38768 166.39313,140.48477 C 166.34399,140.53335 166.30738,140.58935 166.28225,140.65165 C 166.25824,140.71262 166.24564,140.77989 166.24564,140.84961 L 166.24564,143.9147 C 166.24564,144.05785 166.29485,144.17986 166.39313,144.27947 C 166.44479,144.32308 166.5003,144.35913 166.55952,144.38902 C 166.63386,144.41268 166.70064,144.42514 166.76245,144.42514 L 168.0557,144.42514 C 168.12626,144.42514 168.188,144.45132 168.23847,144.50354 C 168.28887,144.55583 168.31407,144.61435 168.31407,144.68036 C 168.31407,144.73888 168.29258,144.79614 168.24981,144.85214 C 168.20564,144.90821 168.14138,144.93558 168.0557,144.93558 z "
     id="path13725"
     style="opacity:1;fill:black;fill-rule:nonzero;display:inline" /><path
     sodipodi:nodetypes="ccsscccssccc"
     class="fil2"
     d="M 170.54583,139.65369 L 170.28739,140.67583 C 170.25841,140.804 170.17525,140.86875 170.04036,140.86875 C 169.9635,140.86875 169.9005,140.8439 169.85136,140.79532 C 169.79711,140.74926 169.77065,140.69074 169.77065,140.62102 L 169.78199,140.5513 L 170.04036,139.52916 C 170.06934,139.40092 170.15257,139.33624 170.28739,139.33624 C 170.3618,139.33624 170.42228,139.36109 170.47275,139.40967 C 170.52819,139.45321 170.55717,139.51299 170.55717,139.58768 L 170.54583,139.65369 L 170.54583,139.65369 z "
     id="path13727"
     style="opacity:1;fill:black;fill-rule:nonzero;display:inline" /></g><path
   id="path21010"
   class="fil0 str6"
   d="M 14.814688,99.854511 L 54.166617,73.17612"
   style="fill:none;stroke:black;stroke-width:1.49622166;stroke-linecap:round;stroke-linejoin:round;marker-start:none;marker-end:none;stroke-miterlimit:4;stroke-dasharray:none"
   sodipodi:nodetypes="cc" /><path
   style="fill:black;fill-rule:nonzero"
   d="M 35.261152,71.042693 C 35.357179,71.104302 35.432634,71.193261 35.487523,71.309572 C 35.542389,71.398531 35.569828,71.501154 35.569838,71.617464 C 35.569828,71.78172 35.496086,71.947628 35.34861,72.115262 C 35.201117,72.282921 35.034773,72.366726 34.849569,72.366701 C 34.698645,72.366726 34.554592,72.31883 34.417406,72.223014 C 33.491336,71.566165 32.476095,71.237728 31.371691,71.237703 C 30.678856,71.237728 30.034041,71.388271 29.437249,71.689307 C 29.176575,71.833019 28.957063,72.028029 28.778715,72.274338 L 28.603792,72.62332 C 28.562631,72.725967 28.54205,72.859394 28.542055,73.023575 C 28.54205,73.358893 28.682675,73.625747 28.963927,73.82416 L 34.30422,77.765404 C 34.729515,78.059634 35.07936,78.478732 35.353759,79.022698 C 35.628137,79.56669 35.765331,80.119215 35.765342,80.680273 C 35.765331,81.275563 35.640139,81.822958 35.389772,82.322458 C 35.139382,82.821957 34.750093,83.211978 34.221905,83.492519 C 33.776014,83.704646 33.275257,83.903059 32.719624,84.08781 C 32.205135,84.210977 31.721528,84.27256 31.268794,84.27256 C 30.603399,84.27256 29.962012,84.166509 29.344642,83.954383 C 28.994794,83.844904 28.691248,83.720035 28.434013,83.579752 C 28.176769,83.439494 27.84922,83.239354 27.45136,82.979332 C 27.23185,82.835645 27.12209,82.640635 27.122092,82.394301 C 27.12209,82.189056 27.188973,82.012839 27.322739,81.865724 C 27.456503,81.718609 27.622849,81.645064 27.821783,81.645064 C 27.945258,81.645064 28.079022,81.686128 28.223077,81.768231 C 28.737553,82.096668 29.248602,82.354964 29.756225,82.543117 C 30.26384,82.731296 30.778317,82.825386 31.299662,82.825386 C 32.026787,82.825386 32.784784,82.623519 33.573659,82.21981 C 33.800023,82.096668 33.988665,81.894827 34.139589,81.61426 C 34.208175,81.470574 34.263056,81.323484 34.30422,81.172941 C 34.345372,81.022398 34.365947,80.868452 34.365957,80.711077 C 34.365947,80.389472 34.293921,80.054203 34.149876,79.705247 C 34.019532,79.452081 33.803453,79.198891 33.50163,78.945725 L 28.15105,75.004482 C 27.856079,74.799212 27.617706,74.51354 27.435925,74.147442 C 27.254141,73.78142 27.163251,73.403361 27.163251,73.013315 C 27.163251,72.500153 27.286724,72.017769 27.533675,71.56614 C 27.780624,71.114561 28.195638,70.734801 28.778715,70.426883 C 29.560719,70.030056 30.428474,69.831618 31.381977,69.831593 C 32.067943,69.831618 32.74191,69.93424 33.403882,70.13951 C 34.065837,70.34478 34.684925,70.645866 35.261152,71.042693 L 35.261152,71.042693 z "
   id="path1956"
   class="fil2" /><path
   sodipodi:type="arc"
   style="fill:none;fill-opacity:1;fill-rule:evenodd;stroke:black;stroke-width:1.20881438;stroke-linecap:round;stroke-linejoin:round;stroke-miterlimit:4;stroke-dasharray:none;stroke-dashoffset:0;stroke-opacity:1"
   id="path2022"
   sodipodi:cx="54.166618"
   sodipodi:cy="73.176117"
   sodipodi:rx="0"
   sodipodi:ry="0"
   d="M 54.166618,73.176117 A 0,0 0 0 0 54.166618,73.176117 L 54.166618,73.176117 z"
   sodipodi:start="0"
   sodipodi:end="-1.#IND" /><path
   sodipodi:type="arc"
   style="fill:none;fill-opacity:1;fill-rule:evenodd;stroke:black;stroke-width:1.20881438;stroke-linecap:round;stroke-linejoin:round;stroke-miterlimit:4;stroke-dasharray:none;stroke-dashoffset:0;stroke-opacity:1"
   id="path2028"
   sodipodi:cx="54.166618"
   sodipodi:cy="73.176117"
   sodipodi:rx="0"
   sodipodi:ry="0"
   d="M 54.166618,73.176117 A 0,0 0 0 0 54.166618,73.176117 L 54.166618,73.176117 z"
   sodipodi:start="0"
   sodipodi:end="-1.#IND" /><path
   style="fill:black;fill-opacity:1;fill-rule:evenodd;stroke:black;stroke-width:0.74811041;stroke-linecap:butt;stroke-linejoin:miter;stroke-miterlimit:4;stroke-dasharray:none;stroke-opacity:1"
   d="M 54.160602,73.17001 L 43.453531,84.041119 C 43.453531,84.041119 43.852724,81.96314 43.01333,80.724554 C 42.173936,79.485968 40.095956,79.086776 40.095956,79.086776 L 54.160602,73.17001 z "
   id="path21684"
   sodipodi:nodetypes="cczcc" /><path
   style="fill:black;fill-opacity:1;fill-rule:evenodd;stroke:black;stroke-width:0.7481094;stroke-linecap:butt;stroke-linejoin:miter;stroke-miterlimit:4;stroke-dasharray:none;stroke-opacity:1"
   d="M 145.46751,40.373386 L 151.4339,48.889648 C 151.4339,48.889648 150.10022,48.372957 149.17891,48.791628 C 148.25761,49.210298 147.74868,50.564329 147.74868,50.564329 L 145.46751,40.373386 z "
   id="path20462"
   sodipodi:nodetypes="cczcc" /><path
   style="fill:black;fill-opacity:1;fill-rule:evenodd;stroke:black;stroke-width:0.7481094;stroke-linecap:butt;stroke-linejoin:miter;stroke-miterlimit:4;stroke-dasharray:none;stroke-opacity:1"
   d="M 131.55366,143.31622 L 140.71375,138.39509 C 140.71375,138.39509 140.04348,139.65858 140.35066,140.62281 C 140.65783,141.58703 141.94245,142.252 141.94245,142.252 L 131.55366,143.31622 z "
   id="path20470"
   sodipodi:nodetypes="cczcc"
   inkscape:transform-center-x="-7.4987816"
   inkscape:transform-center-y="-3.7266274" /><path
   style="fill:black;fill-opacity:1;fill-rule:evenodd;stroke:black;stroke-width:0.74810922;stroke-linecap:butt;stroke-linejoin:miter;stroke-miterlimit:4;stroke-dasharray:none;stroke-opacity:1"
   d="M 98.074128,265.18005 L 87.997863,262.61228 C 87.997863,262.61228 89.345997,262.13457 89.771634,261.21645 C 90.19727,260.29835 89.700414,258.93983 89.700414,258.93983 L 98.074128,265.18005 z "
   id="path21357"
   sodipodi:nodetypes="cczcc"
   inkscape:transform-center-x="7.4395832"
   inkscape:transform-center-y="-4.2239935" /><path
   style="fill:black;fill-opacity:1;fill-rule:evenodd;stroke:black;stroke-width:0.7481097;stroke-linecap:butt;stroke-linejoin:miter;stroke-miterlimit:4;stroke-dasharray:none;stroke-opacity:1"
   d="M -57.636294,273.5138 L -49.222052,267.40435 C -49.222052,267.40435 -49.716133,268.74657 -49.281946,269.66067 C -48.84777,270.57477 -47.485326,271.06075 -47.485326,271.06075 L -57.636294,273.5138 z "
   id="path23129"
   sodipodi:nodetypes="cczcc"
   inkscape:transform-center-x="-7.275677"
   inkscape:transform-center-y="-4.5914859" /><path
   style="fill:black;fill-opacity:1;fill-rule:evenodd;stroke:black;stroke-width:0.74811;stroke-linecap:butt;stroke-linejoin:miter;stroke-miterlimit:4;stroke-dasharray:none;stroke-opacity:1"
   d="M 29.223239,111.3675 L 31.226828,121.57096 C 31.226828,121.57096 30.216932,120.55815 29.204989,120.56758 C 28.193069,120.57699 27.179102,121.60864 27.179102,121.60864 L 29.223239,111.3675 z "
   id="path24016"
   sodipodi:nodetypes="cczcc"
   inkscape:transform-center-y="6.8446944"
   inkscape:transform-center-x="0.027132343" /><path
   style="fill:black;fill-opacity:1;fill-rule:evenodd;stroke:black;stroke-width:0.7481094;stroke-linecap:butt;stroke-linejoin:miter;stroke-miterlimit:4;stroke-dasharray:none;stroke-opacity:1"
   d="M 231.83424,165.62376 L 222.59011,160.86234 C 222.59011,160.86234 224.01103,160.69904 224.63166,159.89972 C 225.25229,159.10041 225.07265,157.66508 225.07265,157.66508 L 231.83424,165.62376 z "
   id="path24903"
   sodipodi:nodetypes="cczcc"
   inkscape:transform-center-x="6.8535437"
   inkscape:transform-center-y="-5.5290542" /></svg>