<?xml version="1.0" encoding="UTF-8"?>
<svg width="368" height="481" version="1.1" viewBox="-640 -480 736 962" xmlns="http://www.w3.org/2000/svg">
	<rect x="-639" y="-479" width="734" height="960" rx="0" ry="0" fill="#fff" fill-opacity=".071" stop-color="#000000" stroke="#000" stroke-linecap="round" stroke-linejoin="round" stroke-width="2" style="paint-order:stroke markers fill"/>
	<g transform="translate(-1126 -681)" stroke-linecap="square" stroke-miterlimit="10">
		<clipPath id="clip895d0752-d7f4-4970-a9e0-872ba779760d">
			<path d="m487 202v482h642v-482z"/>
		</clipPath>
		<g clip-path="url(#clip6)">
			<g fill="#a0a0a0" fill-opacity=".25" fill-rule="evenodd">
				<path d="m854 566 3.4-229 119-97-10 214z"/>
				<title>Quadrilateral pane_{poly}</title>
				<desc>Quadrilateral pane_{poly}: Polygon pane_A, pane_D, pane_C, pane_B</desc>
			</g>
		</g>
		<clipPath>
			<path d="m487 202v482h642v-482z"/>
		</clipPath>
		<g clip-path="url(#clip7)">
			<g fill="#a0a0a0" fill-rule="evenodd">
				<path d="m508 495 196-144 394 107-157 179z"/>
				<title>Quadrilateral base_{poly}</title>
				<desc>Quadrilateral base_{poly}: Polygon base_D, base_C, base_B, base_A</desc>
			</g>
		</g>
		<clipPath>
			<path d="m487 202v482h642v-482z"/>
		</clipPath>
		<g clip-path="url(#clip8)">
			<g fill="#808080" fill-rule="evenodd">
				<path d="m620 489 34-26 49 15-33 27z"/>
				<title>Quadrilateral shad_{poly}</title>
				<desc>Quadrilateral shad_{poly}: Polygon shad_E, shad_F, shad_B, shad_A</desc>
			</g>
		</g>
		<clipPath id="clipd19dbc9b-dfa7-426f-a787-84815f69bb3b">
			<path d="m487 202v482h642v-482z"/>
		</clipPath>
		<g clip-path="url(#clip9)">
			<g fill="#09f" fill-rule="evenodd">
				<path d="m617 432 34-26 50 15 1.6 52-33 27-50-16z"/>
				<title>Hexagon cube_{poly}</title>
				<desc>Hexagon cube_{poly}: Polygon cube_H, cube_G, cube_C, cube_B, cube_A, cube_E</desc>
			</g>
		</g>
		<clipPath>
			<path d="m487 202v482h642v-482z"/>
		</clipPath>
		<g clip-path="url(#clip10)">
			<g fill="none" stroke="#000" stroke-linecap="round" stroke-linejoin="round" stroke-width="3">
				<path d="m906 400 6.4-14"/>
				<title>Segment proj_l</title>
				<desc>Segment proj_l: Segment proj_D, proj_H</desc>
			</g>
		</g>
		<clipPath>
			<path d="m487 202v482h642v-482z"/>
		</clipPath>
		<g clip-path="url(#clip11)">
			<g fill="none" stroke="#000" stroke-linecap="round" stroke-linejoin="round" stroke-width="3">
				<path d="m913 387 14-12"/>
				<title>Segment proj_m</title>
				<desc>Segment proj_m: Segment proj_H, proj_G</desc>
			</g>
		</g>
		<clipPath>
			<path d="m487 202v482h642v-482z"/>
		</clipPath>
		<g clip-path="url(#clip12)">
			<g fill="none" stroke="#000" stroke-linecap="round" stroke-linejoin="round" stroke-width="3">
				<path d="m926 375-4.5 12"/>
				<title>Segment proj_n</title>
				<desc>Segment proj_n: Segment proj_G, proj_C</desc>
			</g>
		</g>
		<clipPath>
			<path d="m487 202v482h642v-482z"/>
		</clipPath>
		<g clip-path="url(#clip13)">
			<g fill="none" stroke="#000" stroke-linecap="round" stroke-linejoin="round" stroke-width="3">
				<path d="m922 386-15 14"/>
				<title>Segment proj_p</title>
				<desc>Segment proj_p: Segment proj_C, proj_D</desc>
			</g>
		</g>
		<clipPath id="clip28f864fb-05a4-4ca6-9013-206cbb022faf">
			<path d="m487 202v482h642v-482z"/>
		</clipPath>
		<g clip-path="url(#clip14)">
			<g fill="none" stroke="#000" stroke-linecap="round" stroke-linejoin="round" stroke-width="3">
				<path d="m926 375-.91 26"/>
				<title>Segment proj_q</title>
				<desc>Segment proj_q: Segment proj_G, proj_F</desc>
			</g>
		</g>
		<clipPath>
			<path d="m487 202v482h642v-482z"/>
		</clipPath>
		<g clip-path="url(#clip15)">
			<g fill="none" stroke="#000" stroke-linecap="round" stroke-linejoin="round" stroke-width="3">
				<path d="m925 401-4.5 15"/>
				<title>Segment proj_r</title>
				<desc>Segment proj_r: Segment proj_F, proj_B</desc>
			</g>
		</g>
		<clipPath>
			<path d="m487 202v482h642v-482z"/>
		</clipPath>
		<g clip-path="url(#clip16)">
			<g fill="none" stroke="#000" stroke-linecap="round" stroke-linejoin="round" stroke-width="3">
				<path d="m921 416 .99-29"/>
				<title>Segment proj_s</title>
				<desc>Segment proj_s: Segment proj_B, proj_C</desc>
			</g>
		</g>
		<clipPath id="clip6f20c4fc-e288-4d53-a77b-df040968f48f">
			<path d="m487 202v482h642v-482z"/>
		</clipPath>
		<g clip-path="url(#clip17)">
			<g fill="none" stroke="#000" stroke-linecap="round" stroke-linejoin="round" stroke-width="3">
				<path d="m921 416-15 14"/>
				<title>Segment proj_t</title>
				<desc>Segment proj_t: Segment proj_B, proj_A</desc>
			</g>
		</g>
		<clipPath id="clip931ce32e-d03a-474b-83c0-57a2053a17cc">
			<path d="m487 202v482h642v-482z"/>
		</clipPath>
		<g clip-path="url(#clip18)">
			<g fill="none" stroke="#000" stroke-linecap="round" stroke-linejoin="round" stroke-width="3">
				<path d="m905 430 .87-30"/>
				<title>Segment proj_f</title>
				<desc>Segment proj_f: Segment proj_A, proj_D</desc>
			</g>
		</g>
		<clipPath>
			<path d="m487 202v482h642v-482z"/>
		</clipPath>
		<g clip-path="url(#clip23)">
			<g fill="none" stroke="#000" stroke-linecap="round" stroke-linejoin="round">
				<path d="m940 637 157-179"/>
				<title>Segment base_a</title>
				<desc>Segment base_a: Segment base_A, base_B</desc>
			</g>
		</g>
		<clipPath>
			<path d="m487 202v482h642v-482z"/>
		</clipPath>
		<g clip-path="url(#clip24)">
			<g fill="none" stroke="#000" stroke-linecap="round" stroke-linejoin="round">
				<path d="m1098 458-394-107"/>
				<title>Segment base_c</title>
				<desc>Segment base_c: Segment base_B, base_C</desc>
			</g>
		</g>
		<clipPath id="clip8e7065e8-2737-4243-a6ea-05cd92b6536c">
			<path d="m487 202v482h642v-482z"/>
		</clipPath>
		<g clip-path="url(#clip25)">
			<g fill="none" stroke="#000" stroke-linecap="round" stroke-linejoin="round">
				<path d="m620 489 50 16"/>
				<title>Segment shad_m</title>
				<desc>Segment shad_m: Segment shad_E, shad_A</desc>
			</g>
		</g>
		<clipPath id="clip6fa24452-fba1-4de6-84c2-9e28b7a104ea">
			<path d="m487 202v482h642v-482z"/>
		</clipPath>
		<g clip-path="url(#clip26)">
			<g fill="none" stroke="#000" stroke-linecap="round" stroke-linejoin="round">
				<path d="m670 505 33-27"/>
				<title>Segment shad_n</title>
				<desc>Segment shad_n: Segment shad_A, shad_B</desc>
			</g>
		</g>
		<clipPath id="clip68c5f122-aeb7-476c-9684-2e7a0df0123c">
			<path d="m487 202v482h642v-482z"/>
		</clipPath>
		<g clip-path="url(#clip27)">
			<g fill="none" stroke="#000" stroke-linecap="round" stroke-linejoin="round">
				<path d="m617 432 3 52"/>
				<title>Segment cube_m</title>
				<desc>Segment cube_m: Segment cube_H, cube_E</desc>
			</g>
		</g>
		<clipPath>
			<path d="m487 202v482h642v-482z"/>
		</clipPath>
		<g clip-path="url(#clip28)">
			<g fill="none" stroke="#000" stroke-linecap="round" stroke-linejoin="round">
				<path d="m620 484 50 16"/>
				<title>Segment cube_n</title>
				<desc>Segment cube_n: Segment cube_E, cube_A</desc>
			</g>
		</g>
		<clipPath>
			<path d="m487 202v482h642v-482z"/>
		</clipPath>
		<g clip-path="url(#clip29)">
			<g fill="none" stroke="#000" stroke-linecap="round" stroke-linejoin="round">
				<path d="m670 500 33-27"/>
				<title>Segment cube_o</title>
				<desc>Segment cube_o: Segment cube_A, cube_B</desc>
			</g>
		</g>
		<clipPath id="clip0450dbaa-2aad-431d-9e8c-89451f7cd38c">
			<path d="m487 202v482h642v-482z"/>
		</clipPath>
		<g clip-path="url(#clip30)">
			<g fill="none" stroke="#000" stroke-linecap="round" stroke-linejoin="round">
				<path d="m703 473-1.6-52"/>
				<title>Segment cube_p</title>
				<desc>Segment cube_p: Segment cube_B, cube_C</desc>
			</g>
		</g>
		<clipPath>
			<path d="m487 202v482h642v-482z"/>
		</clipPath>
		<g clip-path="url(#clip31)">
			<g fill="none" stroke="#000" stroke-linecap="round" stroke-linejoin="round">
				<path d="m701 421-50-15"/>
				<title>Segment cube_q</title>
				<desc>Segment cube_q: Segment cube_C, cube_G</desc>
			</g>
		</g>
		<clipPath id="clip32fa3cb6-a5e7-4ced-a964-c080e425c83a">
			<path d="m487 202v482h642v-482z"/>
		</clipPath>
		<g clip-path="url(#clip32)">
			<g fill="none" stroke="#000" stroke-linecap="round" stroke-linejoin="round">
				<path d="m651 406-34 26"/>
				<title>Segment cube_r</title>
				<desc>Segment cube_r: Segment cube_G, cube_H</desc>
			</g>
		</g>
		<clipPath>
			<path d="m487 202v482h642v-482z"/>
		</clipPath>
		<g clip-path="url(#clip33)">
			<g fill="none" stroke="#000" stroke-linecap="round" stroke-linejoin="round">
				<path d="m617 432 51 15"/>
				<title>Segment cube_s</title>
				<desc>Segment cube_s: Segment cube_H, cube_D</desc>
			</g>
		</g>
		<clipPath id="clipda84d5e9-5820-4e46-a811-5620b96cdced">
			<path d="m487 202v482h642v-482z"/>
		</clipPath>
		<g clip-path="url(#clip34)">
			<g fill="none" stroke="#000" stroke-linecap="round" stroke-linejoin="round">
				<path d="m668 447 2.2 53"/>
				<title>Segment cube_t</title>
				<desc>Segment cube_t: Segment cube_D, cube_A</desc>
			</g>
		</g>
		<clipPath>
			<path d="m487 202v482h642v-482z"/>
		</clipPath>
		<g clip-path="url(#clip35)">
			<g fill="none" stroke="#000" stroke-linecap="round" stroke-linejoin="round">
				<path d="m668 447 34-26"/>
				<title>Segment cube_l</title>
				<desc>Segment cube_l: Segment cube_D, cube_C</desc>
			</g>
		</g>
		<clipPath>
			<path d="m487 202v482h642v-482z"/>
		</clipPath>
		<g clip-path="url(#clip36)">
			<g fill="none" stroke="#000" stroke-linecap="round" stroke-linejoin="round">
				<path d="m620 489 3.9-3.1"/>
				<title>Segment shad_o</title>
				<desc>Segment shad_o: Segment shad_E, shad_L</desc>
			</g>
		</g>
		<clipPath>
			<path d="m487 202v482h642v-482z"/>
		</clipPath>
		<g clip-path="url(#clip37)">
			<g fill="none" stroke="#000" stroke-linecap="round" stroke-linejoin="round">
				<path d="m699 476 4 1.2"/>
				<title>Segment shad_p</title>
				<desc>Segment shad_p: Segment shad_M, shad_B</desc>
			</g>
		</g>
		<clipPath id="clip8f5a177f-6177-403e-b1a9-4e293f2c4b6e">
			<path d="m487 202v482h642v-482z"/>
		</clipPath>
		<g clip-path="url(#clip38)">
			<g fill="none" stroke="#000" stroke-linecap="round" stroke-linejoin="round">
				<path d="m858 337 119-97"/>
				<title>Segment pane_a</title>
				<desc>Segment pane_a: Segment pane_D, pane_C</desc>
			</g>
		</g>
		<clipPath id="clip9a14bc8f-0bd6-49f7-a058-8de63058f47e">
			<path d="m487 202v482h642v-482z"/>
		</clipPath>
		<g clip-path="url(#clip39)">
			<g fill="none" stroke="#000" stroke-linecap="round" stroke-linejoin="round">
				<path d="m977 240-10 214"/>
				<title>Segment pane_b</title>
				<desc>Segment pane_b: Segment pane_C, pane_B</desc>
			</g>
		</g>
		<clipPath>
			<path d="m487 202v482h642v-482z"/>
		</clipPath>
		<g clip-path="url(#clip40)">
			<g fill="none" stroke="#000" stroke-linecap="round" stroke-linejoin="round">
				<path d="m966 454-112 112"/>
				<title>Segment pane_c</title>
				<desc>Segment pane_c: Segment pane_B, pane_A</desc>
			</g>
		</g>
		<clipPath>
			<path d="m487 202v482h642v-482z"/>
		</clipPath>
		<g clip-path="url(#clip41)">
			<g fill="none" stroke="#000" stroke-linecap="round" stroke-linejoin="round">
				<path d="m854 566 3.4-229"/>
				<title>Segment pane_d</title>
				<desc>Segment pane_d: Segment pane_A, pane_D</desc>
			</g>
		</g>
		<clipPath>
			<path d="m487 202v482h642v-482z"/>
		</clipPath>
		<g clip-path="url(#clip42)">
			<g fill="none" stroke="#000" stroke-dasharray="1, 3" stroke-linecap="butt" stroke-linejoin="round">
				<path d="m701 421 496-78"/>
				<title>Segment vect_c</title>
				<desc>Segment vect_c: Segment cube_C, cent_X</desc>
			</g>
		</g>
		<clipPath id="clip0bf765a7-981a-4bd2-915b-68d263ef472a">
			<path d="m487 202v482h642v-482z"/>
		</clipPath>
		<g clip-path="url(#clip43)">
			<g fill="none" stroke="#000" stroke-dasharray="1, 3" stroke-linecap="butt" stroke-linejoin="round">
				<path d="m703 473 494-130"/>
				<title>Segment vect_d</title>
				<desc>Segment vect_d: Segment cube_B, cent_X</desc>
			</g>
		</g>
		<clipPath id="clip19ae7735-ed0e-44f1-82ff-fd3cfc71daeb">
			<path d="m487 202v482h642v-482z"/>
		</clipPath>
		<g clip-path="url(#clip44)">
			<g fill="none" stroke="#000" stroke-dasharray="1, 3" stroke-linecap="butt" stroke-linejoin="round">
				<path d="m670 500 527-157"/>
				<title>Segment vect_e</title>
				<desc>Segment vect_e: Segment cube_A, cent_X</desc>
			</g>
		</g>
		<clipPath>
			<path d="m487 202v482h642v-482z"/>
		</clipPath>
		<g clip-path="url(#clip45)">
			<g fill="none" stroke="#000" stroke-dasharray="1, 3" stroke-linecap="butt" stroke-linejoin="round">
				<path d="m702 448 495-104"/>
				<title>Segment vect_j</title>
				<desc>Segment vect_j: Segment vect_A, cent_X</desc>
			</g>
		</g>
		<clipPath>
			<path d="m487 202v482h642v-482z"/>
		</clipPath>
		<g clip-path="url(#clip46)">
			<g fill="none" stroke="#000" stroke-dasharray="1, 3" stroke-linecap="butt" stroke-linejoin="round">
				<path d="m617 432 580-89"/>
				<title>Segment vect_u</title>
				<desc>Segment vect_u: Segment cube_H, cent_X</desc>
			</g>
		</g>
		<clipPath>
			<path d="m487 202v482h642v-482z"/>
		</clipPath>
		<g clip-path="url(#clip47)">
			<g fill="none" stroke="#000" stroke-dasharray="1, 3" stroke-linecap="butt" stroke-linejoin="round">
				<path d="m651 406 546-63"/>
				<title>Segment vect_v</title>
				<desc>Segment vect_v: Segment cube_G, cent_X</desc>
			</g>
		</g>
		<clipPath>
			<path d="m487 202v482h642v-482z"/>
		</clipPath>
		<g clip-path="url(#clip48)">
			<g fill="none" stroke="#000" stroke-dasharray="1, 3" stroke-linecap="butt" stroke-linejoin="round">
				<path d="m668 447 529-104"/>
				<title>Segment vect_w</title>
				<desc>Segment vect_w: Segment cube_D, cent_X</desc>
			</g>
		</g>
		<clipPath>
			<path d="m487 202v482h642v-482z"/>
		</clipPath>
		<g clip-path="url(#clip49)">
			<g fill="none" stroke="#000" stroke-linecap="round" stroke-linejoin="round">
				<path d="m508 495 196-144"/>
				<title>Segment base_d</title>
				<desc>Segment base_d: Segment base_D, base_C</desc>
			</g>
		</g>
		<clipPath id="clip0e4a671e-d283-41d9-97cb-d9f44d90d3ce">
			<path d="m487 202v482h642v-482z"/>
		</clipPath>
		<g clip-path="url(#clip50)">
			<g fill="none" stroke="#000" stroke-linecap="round" stroke-linejoin="round">
				<path d="m508 495 433 142"/>
				<title>Segment base_b</title>
				<desc>Segment base_b: Segment base_D, base_A</desc>
			</g>
		</g>
		<clipPath>
			<path d="m487 202v482h642v-482z"/>
		</clipPath>
		<g clip-path="url(#clip51)">
			<g>
				<path d="m1202 343c0 2.8-2.3 5-5 5-2.8 0-5-2.2-5-5s2.2-5 5-5c2.7 0 5 2.2 5 5z"/>
				<title>Point cent_X</title>
				<desc>Point cent_X: Point({1108.81775, 528.855})</desc>
			</g>
		</g>
		<clipPath id="clipbbca4491-b62f-4ecc-8d0e-8ff8683c213f">
			<path d="m487 202v482h642v-482z"/>
		</clipPath>
		<g clip-path="url(#clip52)">
			<g fill="none" stroke="#000" stroke-linecap="round" stroke-linejoin="round">
				<path d="m1202 343c0 2.8-2.3 5-5 5-2.8 0-5-2.2-5-5s2.2-5 5-5c2.7 0 5 2.2 5 5z"/>
				<title>Point cent_X</title>
				<desc>Point cent_X: Point({1108.81775, 528.855})</desc>
			</g>
		</g>
		<clipPath>
			<path d="m487 202v482h642v-482z"/>
		</clipPath>
		<g clip-path="url(#clip53)">
			<g>
				<path d="m522 250h-2.4l2.4-11h4.6q1.2 0 2 .29.72.28 1.1.96t.42 1.6q0 .86-.33 1.7-.34.82-.82 1.3-.49.5-1 .75-.56.26-1.5.39-.57.07-2.1.07h-1.5zm1.3-6.3h.74q1.9 0 2.5-.23.63-.23.99-.75t.36-1.1q0-.41-.18-.67-.18-.27-.52-.39-.34-.13-1.5-.13h-1.7zm7 6.3 2.4-11h8.5l-.41 1.9h-6.1l-.55 2.6h5.9l-.39 1.9h-5.9l-.71 3.1h6.7l-.41 1.9zm13 0h-2.4l2.4-11h5.1q1.3 0 2 .26.73.27 1.2.99.44.72.44 1.8 0 1.4-.87 2.4-.88.96-2.6 1.2.45.41.84 1.1.8 1.4 1.8 3.8h-2.5q-.32-.97-1.2-3-.48-1.1-1-1.5-.33-.23-1.2-.23h-.95zm1.4-6.5h1.2q1.9 0 2.5-.23.63-.22.98-.71.35-.48.35-1 0-.63-.52-.94-.31-.19-1.3-.19h-2.6zm8.1 2.8 2.2-.11q.05 1.1.36 1.4.52.61 1.9.61 1.2 0 1.7-.42.52-.41.52-.99 0-.51-.42-.86-.3-.26-1.6-.84t-2-.96q-.61-.38-.96-1-.36-.62-.36-1.4 0-1.4 1-2.4 1-.96 3-.96 2 0 3.1.95 1.1.94 1.2 2.5l-2.3.1q-.08-.82-.58-1.2-.51-.44-1.5-.44-.97 0-1.4.34-.43.35-.43.86 0 .5.4.81.37.33 1.7.91 2 .84 2.5 1.4.81.78.81 2 0 1.5-1.2 2.6-1.2 1.1-3.4 1.1-1.5 0-2.6-.5t-1.5-1.4q-.45-.88-.42-2zm13 3.7h-2.4l2.4-11h4.6q1.2 0 2 .29.72.28 1.1.96t.42 1.6q0 .86-.33 1.7-.34.82-.82 1.3-.49.5-1 .75-.56.26-1.5.39-.57.07-2.1.07h-1.5zm1.3-6.3h.74q1.9 0 2.5-.23.63-.23.99-.75t.36-1.1q0-.41-.18-.67-.18-.27-.52-.39-.34-.13-1.5-.13h-1.7zm7 6.3 2.4-11h8.5l-.41 1.9h-6.1l-.55 2.6h5.9l-.39 1.9h-5.9l-.71 3.1h6.7l-.41 1.9zm19-4.1 2.4.35q-.69 1.9-2.1 3t-3.3 1q-2.1 0-3.3-1.3-1.2-1.3-1.2-3.7 0-2 .8-3.6.79-1.6 2.2-2.5t3.1-.86q1.9 0 3 1t1.4 2.7l-2.3.22q-.19-1-.72-1.4t-1.4-.45q-.99 0-1.8.59-.85.59-1.4 1.9-.51 1.3-.51 2.5 0 1.4.65 2.1.66.75 1.6.75.93 0 1.7-.6.76-.59 1.1-1.7zm8.2 4.1h-2.4l2-9.6h-3.4l.41-1.9h9l-.39 1.9h-3.3zm4.7 0 2.4-11h2.4l-2.4 11zm10 0h-2.5l-2.1-11h2.4l1.4 8.6 4.7-8.6h2.3zm4.9 0 2.4-11h8.5l-.41 1.9h-6.1l-.55 2.6h5.9l-.39 1.9h-5.9l-.72 3.1h6.7l-.41 1.9z"/>
				<title>PERSPECTIVE</title>
				<desc>text16 = “PERSPECTIVE”</desc>
			</g>
		</g>
	</g>
	<g transform="translate(-1087 -125)" stroke-linecap="square" stroke-miterlimit="10">
		<clipPath>
			<path d="m448 126v482h642v-482z"/>
		</clipPath>
		<g clip-path="url(#clip6)">
			<g fill="#a0a0a0" fill-opacity=".25" fill-rule="evenodd">
				<path d="m815 490 3.4-229 119-97-10 214z"/>
				<title>Quadrilateral pane_{poly}</title>
				<desc>Quadrilateral pane_{poly}: Polygon pane_A, pane_D, pane_C, pane_B</desc>
			</g>
		</g>
		<clipPath>
			<path d="m448 126v482h642v-482z"/>
		</clipPath>
		<g clip-path="url(#clip7)">
			<g fill="#a0a0a0" fill-rule="evenodd">
				<path d="m468 418 196-144 394 107-157 179z"/>
				<title>Quadrilateral base_{poly}</title>
				<desc>Quadrilateral base_{poly}: Polygon base_D, base_C, base_B, base_A</desc>
			</g>
		</g>
		<clipPath id="clipc4072261-d2f9-4043-a7f3-497429beeb7d">
			<path d="m448 126v482h642v-482z"/>
		</clipPath>
		<g clip-path="url(#clip8)">
			<g fill="#808080" fill-rule="evenodd">
				<path d="m626 358 5.2 26 28 8.7 51-9.7-7-26-28-8.1z"/>
				<title>Hexagon shad_{poly}</title>
				<desc>Hexagon shad_{poly}: Polygon shad_E, shad_A, shad_D, shad_C, shad_G, shad_F</desc>
			</g>
		</g>
		<clipPath>
			<path d="m448 126v482h642v-482z"/>
		</clipPath>
		<g clip-path="url(#clip9)">
			<g fill="#09f" fill-rule="evenodd">
				<path d="m621 255 27-36 52 14 7.6 46-28 35-53-12z"/>
				<title>Hexagon cube_{poly}</title>
				<desc>Hexagon cube_{poly}: Polygon cube_E, cube_H, cube_G, cube_C, cube_B, cube_A</desc>
			</g>
		</g>
		<clipPath>
			<path d="m448 126v482h642v-482z"/>
		</clipPath>
		<g clip-path="url(#clip10)">
			<g fill="none" stroke="#000" stroke-linecap="round" stroke-linejoin="round" stroke-width="3">
				<path d="m857 320 22-42"/>
				<title>Segment proj_l</title>
				<desc>Segment proj_l: Segment proj_D, proj_H</desc>
			</g>
		</g>
		<clipPath>
			<path d="m448 126v482h642v-482z"/>
		</clipPath>
		<g clip-path="url(#clip11)">
			<g fill="none" stroke="#000" stroke-linecap="round" stroke-linejoin="round" stroke-width="3">
				<path d="m878 279 19 5"/>
				<title>Segment proj_m</title>
				<desc>Segment proj_m: Segment proj_H, proj_G</desc>
			</g>
		</g>
		<clipPath>
			<path d="m448 126v482h642v-482z"/>
		</clipPath>
		<g clip-path="url(#clip12)">
			<g fill="none" stroke="#000" stroke-linecap="round" stroke-linejoin="round" stroke-width="3">
				<path d="m898 284-21 41"/>
				<title>Segment proj_n</title>
				<desc>Segment proj_n: Segment proj_G, proj_C</desc>
			</g>
		</g>
		<clipPath>
			<path d="m448 126v482h642v-482z"/>
		</clipPath>
		<g clip-path="url(#clip13)">
			<g fill="none" stroke="#000" stroke-linecap="round" stroke-linejoin="round" stroke-width="3">
				<path d="m877 324-20-4.1"/>
				<title>Segment proj_p</title>
				<desc>Segment proj_p: Segment proj_C, proj_D</desc>
			</g>
		</g>
		<clipPath id="clip0535f6cd-5981-41bb-943e-2bdcc4ae63da">
			<path d="m448 126v482h642v-482z"/>
		</clipPath>
		<g clip-path="url(#clip14)">
			<g fill="none" stroke="#000" stroke-linecap="round" stroke-linejoin="round" stroke-width="3">
				<path d="m898 284-1.7 45"/>
				<title>Segment proj_q</title>
				<desc>Segment proj_q: Segment proj_G, proj_F</desc>
			</g>
		</g>
		<clipPath id="clip9763f4ae-4b98-48e8-9291-94981f0d56da">
			<path d="m448 126v482h642v-482z"/>
		</clipPath>
		<g clip-path="url(#clip15)">
			<g fill="none" stroke="#000" stroke-linecap="round" stroke-linejoin="round" stroke-width="3">
				<path d="m896 328-21 41"/>
				<title>Segment proj_r</title>
				<desc>Segment proj_r: Segment proj_F, proj_B</desc>
			</g>
		</g>
		<clipPath id="clipfed44a59-50df-4542-923c-75879703bd1e">
			<path d="m448 126v482h642v-482z"/>
		</clipPath>
		<g clip-path="url(#clip16)">
			<g fill="none" stroke="#000" stroke-linecap="round" stroke-linejoin="round" stroke-width="3">
				<path d="m875 369 1.4-45"/>
				<title>Segment proj_s</title>
				<desc>Segment proj_s: Segment proj_B, proj_C</desc>
			</g>
		</g>
		<clipPath id="clipe5928e25-2d94-4e56-83aa-035c4ca4d90d">
			<path d="m448 126v482h642v-482z"/>
		</clipPath>
		<g clip-path="url(#clip17)">
			<g fill="none" stroke="#000" stroke-linecap="round" stroke-linejoin="round" stroke-width="3">
				<path d="m875 369-20-2.9"/>
				<title>Segment proj_t</title>
				<desc>Segment proj_t: Segment proj_B, proj_A</desc>
			</g>
		</g>
		<clipPath>
			<path d="m448 126v482h642v-482z"/>
		</clipPath>
		<g clip-path="url(#clip18)">
			<g fill="none" stroke="#000" stroke-linecap="round" stroke-linejoin="round" stroke-width="3">
				<path d="m855 366 1.2-46"/>
				<title>Segment proj_f</title>
				<desc>Segment proj_f: Segment proj_A, proj_D</desc>
			</g>
		</g>
		<clipPath id="clip2a13c59b-a5c0-4cf7-aed8-8a71914fe8ac">
			<path d="m448 126v482h642v-482z"/>
		</clipPath>
		<g clip-path="url(#clip23)">
			<g fill="none" stroke="#000" stroke-linecap="round" stroke-linejoin="round">
				<path d="m621 255 27-36"/>
				<title>Segment cube_n</title>
				<desc>Segment cube_n: Segment cube_E, cube_H</desc>
			</g>
		</g>
		<clipPath>
			<path d="m448 126v482h642v-482z"/>
		</clipPath>
		<g clip-path="url(#clip24)">
			<g fill="none" stroke="#000" stroke-linecap="round" stroke-linejoin="round">
				<path d="m648 219 52 14"/>
				<title>Segment cube_o</title>
				<desc>Segment cube_o: Segment cube_H, cube_G</desc>
			</g>
		</g>
		<clipPath>
			<path d="m448 126v482h642v-482z"/>
		</clipPath>
		<g clip-path="url(#clip25)">
			<g fill="none" stroke="#000" stroke-linecap="round" stroke-linejoin="round">
				<path d="m701 233 7.6 46"/>
				<title>Segment cube_q</title>
				<desc>Segment cube_q: Segment cube_G, cube_C</desc>
			</g>
		</g>
		<clipPath id="clipb76d98ec-9e24-4fb4-ba03-321ecf03cc0a">
			<path d="m448 126v482h642v-482z"/>
		</clipPath>
		<g clip-path="url(#clip26)">
			<g fill="none" stroke="#000" stroke-linecap="round" stroke-linejoin="round">
				<path d="m708 279-28 35"/>
				<title>Segment cube_s</title>
				<desc>Segment cube_s: Segment cube_C, cube_B</desc>
			</g>
		</g>
		<clipPath id="clip742b9db5-9258-4c79-9012-de7b0ab1014d">
			<path d="m448 126v482h642v-482z"/>
		</clipPath>
		<g clip-path="url(#clip27)">
			<g fill="none" stroke="#000" stroke-linecap="round" stroke-linejoin="round">
				<path d="m680 314-53-12"/>
				<title>Segment cube_l</title>
				<desc>Segment cube_l: Segment cube_B, cube_A</desc>
			</g>
		</g>
		<clipPath>
			<path d="m448 126v482h642v-482z"/>
		</clipPath>
		<g clip-path="url(#clip28)">
			<g fill="none" stroke="#000" stroke-linecap="round" stroke-linejoin="round">
				<path d="m628 302-6.2-46"/>
				<title>Segment cube_m</title>
				<desc>Segment cube_m: Segment cube_A, cube_E</desc>
			</g>
		</g>
		<clipPath>
			<path d="m448 126v482h642v-482z"/>
		</clipPath>
		<g clip-path="url(#clip29)">
			<g fill="none" stroke="#000" stroke-linecap="round" stroke-linejoin="round">
				<path d="m818 261 119-97"/>
				<title>Segment pane_m</title>
				<desc>Segment pane_m: Segment pane_D, pane_C</desc>
			</g>
		</g>
		<clipPath>
			<path d="m448 126v482h642v-482z"/>
		</clipPath>
		<g clip-path="url(#clip30)">
			<g fill="none" stroke="#000" stroke-linecap="round" stroke-linejoin="round">
				<path d="m937 164-10 214"/>
				<title>Segment pane_n</title>
				<desc>Segment pane_n: Segment pane_C, pane_B</desc>
			</g>
		</g>
		<clipPath>
			<path d="m448 126v482h642v-482z"/>
		</clipPath>
		<g clip-path="url(#clip31)">
			<g fill="none" stroke="#000" stroke-linecap="round" stroke-linejoin="round">
				<path d="m927 378-112 112"/>
				<title>Segment pane_o</title>
				<desc>Segment pane_o: Segment pane_B, pane_A</desc>
			</g>
		</g>
		<clipPath>
			<path d="m448 126v482h642v-482z"/>
		</clipPath>
		<g clip-path="url(#clip32)">
			<g fill="none" stroke="#000" stroke-linecap="round" stroke-linejoin="round">
				<path d="m815 490 3.4-229"/>
				<title>Segment pane_p</title>
				<desc>Segment pane_p: Segment pane_A, pane_D</desc>
			</g>
		</g>
		<clipPath id="clip37277681-800a-4e9f-985f-065a9f7d850e">
			<path d="m448 126v482h642v-482z"/>
		</clipPath>
		<g clip-path="url(#clip33)">
			<g fill="none" stroke="#000" stroke-linecap="round" stroke-linejoin="round">
				<path d="m626 358 50-9.1"/>
				<title>Segment shad_m</title>
				<desc>Segment shad_m: Segment shad_E, shad_F</desc>
			</g>
		</g>
		<clipPath>
			<path d="m448 126v482h642v-482z"/>
		</clipPath>
		<g clip-path="url(#clip34)">
			<g fill="none" stroke="#000" stroke-linecap="round" stroke-linejoin="round">
				<path d="m675 349 28 8.1"/>
				<title>Segment shad_n</title>
				<desc>Segment shad_n: Segment shad_F, shad_G</desc>
			</g>
		</g>
		<clipPath>
			<path d="m448 126v482h642v-482z"/>
		</clipPath>
		<g clip-path="url(#clip35)">
			<g fill="none" stroke="#000" stroke-linecap="round" stroke-linejoin="round">
				<path d="m703 357 7 26"/>
				<title>Segment shad_o</title>
				<desc>Segment shad_o: Segment shad_G, shad_C</desc>
			</g>
		</g>
		<clipPath>
			<path d="m448 126v482h642v-482z"/>
		</clipPath>
		<g clip-path="url(#clip36)">
			<g fill="none" stroke="#000" stroke-linecap="round" stroke-linejoin="round">
				<path d="m710 383-51 9.7"/>
				<title>Segment shad_p</title>
				<desc>Segment shad_p: Segment shad_C, shad_D</desc>
			</g>
		</g>
		<clipPath>
			<path d="m448 126v482h642v-482z"/>
		</clipPath>
		<g clip-path="url(#clip37)">
			<g fill="none" stroke="#000" stroke-linecap="round" stroke-linejoin="round">
				<path d="m659 392-28-8.7"/>
				<title>Segment shad_q</title>
				<desc>Segment shad_q: Segment shad_D, shad_A</desc>
			</g>
		</g>
		<clipPath>
			<path d="m448 126v482h642v-482z"/>
		</clipPath>
		<g clip-path="url(#clip38)">
			<g fill="none" stroke="#000" stroke-linecap="round" stroke-linejoin="round">
				<path d="m631 384-5.2-26"/>
				<title>Segment shad_r</title>
				<desc>Segment shad_r: Segment shad_A, shad_E</desc>
			</g>
		</g>
		<clipPath>
			<path d="m448 126v482h642v-482z"/>
		</clipPath>
		<g clip-path="url(#clip39)">
			<g fill="none" stroke="#000" stroke-linecap="round" stroke-linejoin="round">
				<path d="m468 418 159-117"/>
				<title>Segment base_a</title>
				<desc>Segment base_a: Segment base_D, base_E</desc>
			</g>
		</g>
		<clipPath>
			<path d="m448 126v482h642v-482z"/>
		</clipPath>
		<g clip-path="url(#clip40)">
			<g fill="none" stroke="#000" stroke-linecap="round" stroke-linejoin="round">
				<path d="m703 285 355 97"/>
				<title>Segment base_b</title>
				<desc>Segment base_b: Segment base_F, base_B</desc>
			</g>
		</g>
		<clipPath>
			<path d="m448 126v482h642v-482z"/>
		</clipPath>
		<g clip-path="url(#clip41)">
			<g fill="none" stroke="#000" stroke-linecap="round" stroke-linejoin="round">
				<path d="m1058 382-157 179"/>
				<title>Segment base_c</title>
				<desc>Segment base_c: Segment base_B, base_A</desc>
			</g>
		</g>
		<clipPath>
			<path d="m448 126v482h642v-482z"/>
		</clipPath>
		<g clip-path="url(#clip42)">
			<g fill="none" stroke="#000" stroke-linecap="round" stroke-linejoin="round">
				<path d="m901 560-433-142"/>
				<title>Segment base_d</title>
				<desc>Segment base_d: Segment base_A, base_D</desc>
			</g>
		</g>
		<clipPath>
			<path d="m448 126v482h642v-482z"/>
		</clipPath>
		<g clip-path="url(#clip43)">
			<g fill="none" stroke="#000" stroke-linecap="round" stroke-linejoin="round">
				<path d="m648 219 6.8 47"/>
				<title>Segment cube_r</title>
				<desc>Segment cube_r: Segment cube_H, cube_D</desc>
			</g>
		</g>
		<clipPath>
			<path d="m448 126v482h642v-482z"/>
		</clipPath>
		<g clip-path="url(#clip44)">
			<g fill="none" stroke="#000" stroke-linecap="round" stroke-linejoin="round">
				<path d="m655 266-28 36"/>
				<title>Segment cube_t</title>
				<desc>Segment cube_t: Segment cube_D, cube_A</desc>
			</g>
		</g>
		<clipPath id="clip647ef359-ed63-4f01-a562-00c03f2445fe">
			<path d="m448 126v482h642v-482z"/>
		</clipPath>
		<g clip-path="url(#clip45)">
			<g fill="none" stroke="#000" stroke-linecap="round" stroke-linejoin="round">
				<path d="m655 266 53 13"/>
				<title>Segment cube_u</title>
				<desc>Segment cube_u: Segment cube_D, cube_C</desc>
			</g>
		</g>
		<clipPath>
			<path d="m448 126v482h642v-482z"/>
		</clipPath>
		<g clip-path="url(#clip46)">
			<g fill="none" stroke="#000" stroke-dasharray="1, 3" stroke-linecap="butt" stroke-linejoin="round">
				<path d="m708 278 188 51"/>
				<title>Segment vect_a</title>
				<desc>Segment vect_a: Segment vect_A, proj_F</desc>
			</g>
		</g>
		<clipPath>
			<path d="m448 126v482h642v-482z"/>
		</clipPath>
		<g clip-path="url(#clip47)">
			<g fill="none" stroke="#000" stroke-dasharray="1, 3" stroke-linecap="butt" stroke-linejoin="round">
				<path d="m708 279 168 46"/>
				<title>Segment vect_c</title>
				<desc>Segment vect_c: Segment cube_C, proj_C</desc>
			</g>
		</g>
		<clipPath id="clip053254e4-b399-495d-92b4-79a2c6b6354f">
			<path d="m448 126v482h642v-482z"/>
		</clipPath>
		<g clip-path="url(#clip48)">
			<g fill="none" stroke="#000" stroke-dasharray="1, 3" stroke-linecap="butt" stroke-linejoin="round">
				<path d="m680 314 195 55"/>
				<title>Segment vect_d</title>
				<desc>Segment vect_d: Segment cube_B, proj_B</desc>
			</g>
		</g>
		<clipPath>
			<path d="m448 126v482h642v-482z"/>
		</clipPath>
		<g clip-path="url(#clip49)">
			<g fill="none" stroke="#000" stroke-dasharray="1, 3" stroke-linecap="butt" stroke-linejoin="round">
				<path d="m628 302 228 64"/>
				<title>Segment vect_e</title>
				<desc>Segment vect_e: Segment cube_A, proj_A</desc>
			</g>
		</g>
		<clipPath id="clipf8d9bd55-f805-40ec-b9f2-4d3b0f277a8d">
			<path d="m448 126v482h642v-482z"/>
		</clipPath>
		<g clip-path="url(#clip50)">
			<g fill="none" stroke="#000" stroke-dasharray="1, 3" stroke-linecap="butt" stroke-linejoin="round">
				<path d="m648 219 230 59"/>
				<title>Segment vect_u</title>
				<desc>Segment vect_u: Segment cube_H, proj_H</desc>
			</g>
		</g>
		<clipPath>
			<path d="m448 126v482h642v-482z"/>
		</clipPath>
		<g clip-path="url(#clip51)">
			<g fill="none" stroke="#000" stroke-dasharray="1, 3" stroke-linecap="butt" stroke-linejoin="round">
				<path d="m701 233 197 51"/>
				<title>Segment vect_v</title>
				<desc>Segment vect_v: Segment cube_G, proj_G</desc>
			</g>
		</g>
		<clipPath>
			<path d="m448 126v482h642v-482z"/>
		</clipPath>
		<g clip-path="url(#clip52)">
			<g fill="none" stroke="#000" stroke-dasharray="1, 3" stroke-linecap="butt" stroke-linejoin="round">
				<path d="m655 266 201 55"/>
				<title>Segment vect_w</title>
				<desc>Segment vect_w: Segment cube_D, proj_D</desc>
			</g>
		</g>
		<clipPath id="clip03c8180c-ff05-43e9-90f4-26fcce0cc08b">
			<path d="m448 126v482h642v-482z"/>
		</clipPath>
		<g clip-path="url(#clip53)">
			<g>
				<path d="m481 174 2.4-11h2.4l-2.4 11zm4.9-3.7 2.2-.11q.05 1.1.36 1.4.52.61 1.9.61 1.2 0 1.7-.42.51-.41.51-.99 0-.51-.42-.86-.29-.26-1.6-.84t-2-.96-.97-1-.35-1.4q0-1.4 1-2.4 1-.96 3-.96 2 0 3.1.95 1.1.94 1.2 2.5l-2.3.1q-.08-.82-.59-1.2-.51-.44-1.5-.44-.96 0-1.4.34-.42.35-.42.86 0 .5.39.81.38.33 1.7.91 2 .84 2.5 1.4.81.78.81 2 0 1.5-1.2 2.6-1.2 1.1-3.3 1.1-1.5 0-2.6-.5-1.1-.5-1.5-1.4-.45-.88-.42-2zm11-.78q0-1 .3-2.1.41-1.5 1.2-2.6t2-1.8q1.2-.65 2.8-.65 2.1 0 3.4 1.3 1.3 1.3 1.3 3.5 0 1.8-.85 3.5t-2.3 2.6-3.3.91q-1.6 0-2.7-.72-1.1-.73-1.5-1.8-.46-1.1-.46-2.2zm2.3-.05q0 1.2.72 2 .72.79 1.9.79.95 0 1.8-.63.87-.63 1.4-1.9.58-1.3.58-2.5 0-1.3-.73-2.1-.72-.78-1.8-.78-1.7 0-2.8 1.6t-1.1 3.5zm16 4.6h-2.2l-.42-9.6-1.8 9.6h-2.1l2.4-11h3.4l.34 8 3.9-8h3.4l-2.4 11h-2.1l2.2-9.5zm6.7 0 2.4-11h8.5l-.41 1.9h-6.1l-.55 2.6h5.9l-.39 1.9h-5.9l-.72 3.1h6.7l-.41 1.9zm16 0h-2.4l2-9.6h-3.4l.41-1.9h9l-.39 1.9h-3.3zm7.2 0h-2.4l2.4-11h5.1q1.3 0 2 .26.73.27 1.2.99t.45 1.8q0 1.4-.88 2.4-.87.96-2.6 1.2.45.41.84 1.1.8 1.4 1.8 3.8h-2.5q-.31-.97-1.2-3-.48-1.1-1-1.5-.32-.23-1.2-.23h-.95zm1.4-6.5h1.2q1.9 0 2.5-.23.63-.22.98-.71.35-.48.35-1 0-.63-.51-.94-.32-.19-1.4-.19h-2.6zm7.7 6.5 2.4-11h2.4l-2.4 11zm13-4.1 2.4.35q-.68 1.9-2.1 3t-3.3 1q-2.1 0-3.3-1.3-1.2-1.3-1.2-3.7 0-2 .8-3.6.8-1.6 2.2-2.5 1.4-.86 3.1-.86 1.9 0 3 1t1.4 2.7l-2.3.22q-.19-1-.72-1.4t-1.4-.45q-.99 0-1.8.59t-1.4 1.9q-.51 1.3-.51 2.5 0 1.4.66 2.1.65.75 1.6.75.92 0 1.7-.6.75-.59 1.1-1.7z"/>
				<title>ISOMETRIC
(ORTHOGRAPHIC)</title>
				<desc>text1 = “ISOMETRIC
(ORTHOGRAPHIC)”</desc>
			</g>
		</g>
		<clipPath id="clip1b32284a-0780-4064-87c2-71eef4cf4e5f">
			<path d="m448 126v482h642v-482z"/>
		</clipPath>
		<g clip-path="url(#clip54)">
			<g>
				<path d="m484 201h-1.5q-.64-1.5-.94-3-.31-1.5-.31-2.8 0-1.6.51-3.2t1.6-3.3q.66-1.1 2.1-2.7h1.7q-1.5 1.8-2.3 3.3t-1.2 3.4q-.4 1.8-.4 3.6 0 1.2.18 2.3t.6 2.6zm2.9-7.9q0-1 .3-2.1.41-1.5 1.2-2.6t2-1.8q1.2-.65 2.8-.65 2.1 0 3.4 1.3 1.3 1.3 1.3 3.5 0 1.8-.86 3.5-.85 1.7-2.3 2.6t-3.3.91q-1.6 0-2.7-.72-1.1-.73-1.5-1.8-.46-1.1-.46-2.2zm2.3-.05q0 1.2.72 2 .72.79 1.9.79.95 0 1.8-.63t1.4-1.9q.58-1.3.58-2.5 0-1.3-.73-2.1-.72-.78-1.8-.78-1.7 0-2.8 1.6t-1.1 3.5zm12 4.6h-2.4l2.4-11h5.1q1.3 0 2 .26.73.27 1.2.99.44.72.44 1.8 0 1.4-.87 2.4-.88.96-2.6 1.2.45.41.84 1.1.8 1.4 1.8 3.8h-2.5q-.32-.97-1.2-3-.48-1.1-1-1.5-.33-.23-1.2-.23h-.95zm1.4-6.5h1.2q1.9 0 2.5-.23.63-.22.98-.71.35-.48.35-1 0-.63-.52-.94-.31-.19-1.3-.19h-2.6zm13 6.5h-2.4l2-9.6h-3.4l.41-1.9h9l-.39 1.9h-3.3zm13-5.1h-4.4l-1.1 5.1h-2.4l2.4-11h2.4l-.92 4.4h4.4l.94-4.4h2.4l-2.4 11h-2.4zm4.4.62q0-1 .3-2.1.41-1.5 1.2-2.6t2-1.8q1.2-.65 2.8-.65 2.1 0 3.4 1.3 1.3 1.3 1.3 3.5 0 1.8-.85 3.5t-2.3 2.6-3.3.91q-1.6 0-2.7-.72-1.1-.73-1.5-1.8-.46-1.1-.46-2.2zm2.3-.05q0 1.2.72 2 .72.79 1.9.79.95 0 1.8-.63.87-.63 1.4-1.9.58-1.3.58-2.5 0-1.3-.73-2.1-.72-.78-1.8-.78-1.7 0-2.8 1.6t-1.1 3.5zm16-1.6h5.1l-1 4.9q-.91.58-2.2.99t-2.7.41q-2.1 0-3.2-.97-1.6-1.3-1.6-3.8 0-1.7.66-3.2.8-1.8 2.3-2.9 1.5-1 3.4-1 2 0 3.2.93 1.2.92 1.6 2.7l-2.2.25q-.28-.97-.93-1.5t-1.6-.49q-1.1 0-2.1.59-.96.6-1.5 1.8t-.54 2.7q0 1.4.66 2.1t1.9.69q.75 0 1.6-.21t1.4-.51l.36-1.7h-2.9zm8.5 6.1h-2.4l2.4-11h5.1q1.3 0 2 .26.74.27 1.2.99.45.72.45 1.8 0 1.4-.88 2.4-.87.96-2.6 1.2.45.41.84 1.1.8 1.4 1.8 3.8h-2.5q-.31-.97-1.2-3-.49-1.1-1-1.5-.32-.23-1.2-.23h-.95zm1.4-6.5h1.2q1.9 0 2.5-.23.63-.22.98-.71.35-.48.35-1 0-.63-.51-.94-.32-.19-1.4-.19h-2.6zm15 3.9h-4.5l-1.4 2.5h-2.4l6.5-11h2.6l1.9 11h-2.2zm-.28-1.9-.68-4.6-2.8 4.6zm6.7 4.4h-2.4l2.4-11h4.7q1.2 0 2 .29.72.28 1.1.96t.42 1.6q0 .86-.34 1.7-.33.82-.82 1.3-.48.5-1 .75-.57.26-1.5.39-.56.07-2.1.07h-1.5zm1.3-6.3h.73q1.9 0 2.5-.23.62-.23.98-.75t.36-1.1q0-.41-.18-.67-.18-.27-.51-.39-.34-.13-1.5-.13h-1.7zm15 1.2h-4.4l-1.1 5.1h-2.4l2.4-11h2.4l-.92 4.4h4.4l.94-4.4h2.3l-2.4 11h-2.4zm3.6 5.1 2.4-11h2.4l-2.4 11zm13-4.1 2.4.35q-.69 1.9-2.1 3t-3.3 1q-2.1 0-3.3-1.3-1.2-1.3-1.2-3.7 0-2 .8-3.6.8-1.6 2.2-2.5 1.4-.86 3.1-.86 1.9 0 3 1 1.2 1 1.4 2.7l-2.3.22q-.19-1-.72-1.4t-1.4-.45q-.98 0-1.8.59-.84.59-1.4 1.9-.51 1.3-.51 2.5 0 1.4.66 2.1.65.75 1.6.75.92 0 1.7-.6.76-.59 1.1-1.7zm4.5-7.5h1.5q.64 1.5.95 3t.31 2.8q0 1.6-.51 3.2-.52 1.6-1.6 3.3-.68 1.1-2.1 2.7h-1.7q1.5-1.8 2.3-3.3.81-1.5 1.2-3.4.4-1.8.4-3.6 0-1.2-.17-2.3t-.6-2.6z"/>
				<title>ISOMETRIC
(ORTHOGRAPHIC)</title>
				<desc>text1 = “ISOMETRIC
(ORTHOGRAPHIC)”</desc>
			</g>
		</g>
	</g>
	<path d="m95 1h-734" fill="#fff" fill-opacity=".071" stop-color="#000000" stroke="#000" stroke-linecap="round" stroke-linejoin="round" stroke-width="2" style="paint-order:stroke markers fill"/>
</svg>
