<?xml version="1.0" encoding="UTF-8" standalone="no"?>
<!-- Created with Inkscape (http://www.inkscape.org/) -->

<svg
   width="169.47928mm"
   height="29.975798mm"
   viewBox="0 0 169.47927 29.975798"
   version="1.1"
   id="svg1"
   inkscape:version="1.4 (e7c3feb100, 2024-10-09)"
   sodipodi:docname="required_component.svg"
   xmlns:inkscape="http://www.inkscape.org/namespaces/inkscape"
   xmlns:sodipodi="http://sodipodi.sourceforge.net/DTD/sodipodi-0.dtd"
   xmlns="http://www.w3.org/2000/svg"
   xmlns:svg="http://www.w3.org/2000/svg">
  <sodipodi:namedview
     id="namedview1"
     pagecolor="#ffffff"
     bordercolor="#000000"
     borderopacity="0.25"
     inkscape:showpageshadow="2"
     inkscape:pageopacity="0.0"
     inkscape:pagecheckerboard="0"
     inkscape:deskcolor="#d1d1d1"
     inkscape:document-units="mm"
     inkscape:zoom="1.5508832"
     inkscape:cx="417.18165"
     inkscape:cy="138.95308"
     inkscape:window-width="3440"
     inkscape:window-height="1440"
     inkscape:window-x="0"
     inkscape:window-y="0"
     inkscape:window-maximized="1"
     inkscape:current-layer="layer1" />
  <defs
     id="defs1">
    <marker
       style="overflow:visible"
       id="marker16"
       refX="0"
       refY="0"
       orient="auto-start-reverse"
       inkscape:stockid="Rounded arrow"
       markerWidth="1"
       markerHeight="1"
       viewBox="0 0 1 1"
       inkscape:isstock="true"
       inkscape:collect="always"
       preserveAspectRatio="xMidYMid">
      <path
         transform="scale(0.7)"
         d="m -0.21114562,-4.1055728 6.42229122,3.21114561 a 1,1 90 0 1 0,1.78885438 L -0.21114562,4.1055728 A 1.236068,1.236068 31.717474 0 1 -2,3 v -6 a 1.236068,1.236068 148.28253 0 1 1.78885438,-1.1055728 z"
         style="fill:context-stroke;fill-rule:evenodd;stroke:none"
         id="path16" />
    </marker>
    <marker
       style="overflow:visible"
       id="marker15"
       refX="0"
       refY="0"
       orient="auto-start-reverse"
       inkscape:stockid="Rounded arrow"
       markerWidth="1"
       markerHeight="1"
       viewBox="0 0 1 1"
       inkscape:isstock="true"
       inkscape:collect="always"
       preserveAspectRatio="xMidYMid">
      <path
         transform="scale(0.7)"
         d="m -0.21114562,-4.1055728 6.42229122,3.21114561 a 1,1 90 0 1 0,1.78885438 L -0.21114562,4.1055728 A 1.236068,1.236068 31.717474 0 1 -2,3 v -6 a 1.236068,1.236068 148.28253 0 1 1.78885438,-1.1055728 z"
         style="fill:context-stroke;fill-rule:evenodd;stroke:none"
         id="path15" />
    </marker>
    <marker
       style="overflow:visible"
       id="marker14"
       refX="0"
       refY="0"
       orient="auto-start-reverse"
       inkscape:stockid="Rounded arrow"
       markerWidth="1"
       markerHeight="1"
       viewBox="0 0 1 1"
       inkscape:isstock="true"
       inkscape:collect="always"
       preserveAspectRatio="xMidYMid">
      <path
         transform="scale(0.7)"
         d="m -0.21114562,-4.1055728 6.42229122,3.21114561 a 1,1 90 0 1 0,1.78885438 L -0.21114562,4.1055728 A 1.236068,1.236068 31.717474 0 1 -2,3 v -6 a 1.236068,1.236068 148.28253 0 1 1.78885438,-1.1055728 z"
         style="fill:context-stroke;fill-rule:evenodd;stroke:none"
         id="path14" />
    </marker>
    <marker
       style="overflow:visible"
       id="marker13"
       refX="0"
       refY="0"
       orient="auto-start-reverse"
       inkscape:stockid="Rounded arrow"
       markerWidth="1"
       markerHeight="1"
       viewBox="0 0 1 1"
       inkscape:isstock="true"
       inkscape:collect="always"
       preserveAspectRatio="xMidYMid">
      <path
         transform="scale(0.7)"
         d="m -0.21114562,-4.1055728 6.42229122,3.21114561 a 1,1 90 0 1 0,1.78885438 L -0.21114562,4.1055728 A 1.236068,1.236068 31.717474 0 1 -2,3 v -6 a 1.236068,1.236068 148.28253 0 1 1.78885438,-1.1055728 z"
         style="fill:context-stroke;fill-rule:evenodd;stroke:none"
         id="path13" />
    </marker>
    <marker
       style="overflow:visible"
       id="RoundedArrow"
       refX="0"
       refY="0"
       orient="auto-start-reverse"
       inkscape:stockid="Rounded arrow"
       markerWidth="1"
       markerHeight="1"
       viewBox="0 0 1 1"
       inkscape:isstock="true"
       inkscape:collect="always"
       preserveAspectRatio="xMidYMid">
      <path
         transform="scale(0.7)"
         d="m -0.21114562,-4.1055728 6.42229122,3.21114561 a 1,1 90 0 1 0,1.78885438 L -0.21114562,4.1055728 A 1.236068,1.236068 31.717474 0 1 -2,3 v -6 a 1.236068,1.236068 148.28253 0 1 1.78885438,-1.1055728 z"
         style="fill:context-stroke;fill-rule:evenodd;stroke:none"
         id="path8" />
    </marker>
  </defs>
  <g
     inkscape:label="Layer 1"
     inkscape:groupmode="layer"
     id="layer1"
     transform="translate(-12.395932,-107.45523)">
    <rect
       style="fill:#5d93e6;fill-opacity:1;stroke:#f2f2f2;stroke-width:1.265;stroke-dasharray:none;stroke-opacity:1"
       id="rect1"
       width="59.593014"
       height="28.710798"
       x="13.028432"
       y="108.08773"
       ry="9.8919573" />
    <rect
       style="fill:#5d93e6;fill-opacity:1;stroke:#f2f2f2;stroke-width:1.265;stroke-dasharray:none;stroke-opacity:1"
       id="rect1-8"
       width="59.593014"
       height="28.710798"
       x="121.6497"
       y="108.08773"
       ry="9.8919573" />
    <path
       style="font-weight:600;font-size:11.2889px;font-family:Sans;-inkscape-font-specification:'Sans, Semi-Bold';fill:#f2f2f2;stroke-width:0.264583"
       d="m 31.885989,124.18884 q 0,1.07245 -0.778934,1.71591 -0.767645,0.63218 -2.190047,0.63218 -1.275645,0 -2.280358,-0.48542 v -1.59174 q 0.575734,0.24836 1.185335,0.46285 0.62089,0.2032 1.23049,0.2032 0.632179,0 0.891823,-0.23707 0.270934,-0.24835 0.270934,-0.62089 0,-0.3048 -0.214489,-0.51929 -0.2032,-0.21449 -0.553156,-0.39511 -0.349956,-0.19191 -0.801512,-0.4064 -0.282223,-0.13547 -0.609601,-0.31609 -0.327378,-0.19191 -0.632178,-0.46284 -0.293512,-0.28223 -0.485423,-0.67734 -0.191911,-0.39511 -0.191911,-0.94827 0,-1.08373 0.733778,-1.68204 0.733779,-0.6096 1.998136,-0.6096 0.632178,0 1.196623,0.14675 0.575734,0.14676 1.196623,0.41769 l -0.553156,1.33209 q -0.553156,-0.22577 -0.993423,-0.34995 -0.440267,-0.12418 -0.903112,-0.12418 -0.485423,0 -0.745067,0.22578 -0.259645,0.22578 -0.259645,0.58702 0,0.42898 0.383823,0.67733 0.383822,0.24836 1.140178,0.6096 0.62089,0.29352 1.049868,0.60961 0.440267,0.31608 0.677334,0.74506 0.237067,0.42898 0.237067,1.06116 z m 4.730056,-4.04143 q 1.061157,0 1.682046,0.8128 0.632179,0.80152 0.632179,2.37067 0,1.58045 -0.666045,2.39325 -0.654756,0.8128 -1.693335,0.8128 -0.677334,0 -1.083735,-0.23707 -0.395111,-0.24835 -0.620889,-0.54186 h -0.06773 q 0.02258,0.2032 0.04516,0.47413 0.02258,0.25965 0.02258,0.54187 v 2.35938 h -1.704624 v -8.87308 h 1.388535 l 0.237066,0.80151 h 0.07902 q 0.248356,-0.37253 0.654756,-0.64346 0.4064,-0.27094 1.095023,-0.27094 z m -0.564445,1.35467 q -0.654756,0 -0.914401,0.4064 -0.248355,0.4064 -0.270933,1.23049 v 0.18062 q 0,0.89183 0.248356,1.36596 0.259644,0.47413 0.948267,0.47413 0.575734,0 0.857957,-0.47413 0.282222,-0.47413 0.282222,-1.37724 0,-1.80623 -1.151468,-1.80623 z m 7.653875,-1.35467 q 0.169334,0 0.361245,0.0226 0.191911,0.0226 0.316089,0.0452 l -0.169333,1.59173 q -0.124178,-0.0339 -0.293512,-0.0452 -0.169333,-0.0226 -0.4064,-0.0226 -0.349956,0 -0.699912,0.14675 -0.349956,0.14676 -0.587023,0.48543 -0.225778,0.33866 -0.225778,0.92569 v 3.12702 h -1.704624 v -6.16374 h 1.298224 l 0.248356,1.03858 h 0.07902 q 0.270933,-0.47413 0.733778,-0.8128 0.474134,-0.33867 1.049868,-0.33867 z m 2.506142,-2.31422 q 0.372534,0 0.643467,0.18062 0.282223,0.16933 0.282223,0.65476 0,0.46284 -0.282223,0.64346 -0.270933,0.18063 -0.643467,0.18063 -0.383823,0 -0.654756,-0.18063 -0.270934,-0.18062 -0.270934,-0.64346 0,-0.48543 0.270934,-0.65476 0.270933,-0.18062 0.654756,-0.18062 z m 0.846668,2.42711 v 6.16374 h -1.704624 v -6.16374 z m 4.312356,4.93325 q 0.282222,0 0.541867,-0.0564 0.259645,-0.0565 0.51929,-0.13547 v 1.25307 q -0.270934,0.11289 -0.677334,0.19191 -0.395112,0.0903 -0.869246,0.0903 -0.553156,0 -0.993423,-0.18062 -0.428978,-0.18062 -0.688623,-0.62089 -0.248356,-0.45156 -0.248356,-1.24178 v -2.96898 h -0.801512 v -0.7112 l 0.92569,-0.56445 0.485423,-1.29822 h 1.072445 v 1.30951 h 1.727202 v 1.26436 h -1.727202 v 2.96898 q 0,0.34996 0.203201,0.53058 0.2032,0.16933 0.530578,0.16933 z m 4.876806,-5.04614 q 1.286934,0 2.020713,0.72249 0.745067,0.72249 0.745067,2.07716 v 0.82409 h -3.962404 q 0.03387,0.69991 0.428978,1.10631 0.406401,0.39511 1.162757,0.39511 0.575734,0 1.049868,-0.11289 0.474134,-0.11288 0.970845,-0.33866 v 1.27564 q -0.451556,0.22578 -0.959556,0.32738 -0.508001,0.11289 -1.241779,0.11289 -0.914401,0 -1.625602,-0.33867 -0.699912,-0.34995 -1.106312,-1.04986 -0.406401,-0.69992 -0.406401,-1.76107 0,-1.61432 0.801512,-2.42712 0.812801,-0.8128 2.122314,-0.8128 z m 0.04516,1.20792 q -0.508,0 -0.835378,0.32737 -0.31609,0.31609 -0.361245,0.94827 h 2.325513 q -0.01129,-0.55315 -0.293511,-0.9144 -0.270934,-0.36124 -0.835379,-0.36124 z"
       id="text1"
       aria-label="Sprite" />
    <path
       style="font-weight:600;font-size:6.35px;font-family:Sans;-inkscape-font-specification:'Sans, Semi-Bold';fill:#f2f2f2;stroke-width:0.264583"
       d="m 83.822722,117.0452 q 1.77165,0 1.77165,1.3208 0,0.46355 -0.23495,0.75565 -0.23495,0.2921 -0.5842,0.4572 l 1.28905,2.00025 h -1.11125 l -1.00965,-1.7399 h -0.53975 v 1.7399 h -0.97155 v -4.5339 z m -0.01905,0.75565 h -0.40005 v 1.28905 h 0.40005 q 0.38735,0 0.5969,-0.15875 0.20955,-0.15875 0.20955,-0.5207 0,-0.3048 -0.19685,-0.4572 -0.1905,-0.1524 -0.6096,-0.1524 z m 4.197351,0.24765 q 0.7239,0 1.13665,0.4064 0.4191,0.4064 0.4191,1.1684 v 0.46355 h -2.22885 q 0.01905,0.3937 0.2413,0.6223 0.2286,0.22225 0.65405,0.22225 0.32385,0 0.59055,-0.0635 0.2667,-0.0635 0.5461,-0.1905 v 0.71755 q -0.254,0.127 -0.53975,0.18415 -0.28575,0.0635 -0.6985,0.0635 -0.51435,0 -0.9144,-0.1905 -0.3937,-0.19685 -0.6223,-0.59055 -0.2286,-0.3937 -0.2286,-0.9906 0,-0.90805 0.45085,-1.36525 0.4572,-0.4572 1.1938,-0.4572 z m 0.0254,0.67945 q -0.28575,0 -0.4699,0.18415 -0.1778,0.1778 -0.2032,0.5334 h 1.3081 q -0.0063,-0.31115 -0.1651,-0.51435 -0.1524,-0.2032 -0.4699,-0.2032 z m 4.413251,2.921 q 0,-0.12065 0.0064,-0.26035 0.0063,-0.1397 0.0254,-0.26035 h -0.0381 q -0.13335,0.2159 -0.3683,0.3683 -0.2286,0.14605 -0.6096,0.14605 -0.5842,0 -0.94615,-0.45085 -0.36195,-0.4572 -0.36195,-1.33985 0,-0.889 0.3683,-1.3462 0.3683,-0.4572 0.95885,-0.4572 0.381,0 0.61595,0.14605 0.23495,0.14605 0.381,0.36195 h 0.0254 l 0.0889,-0.4445 h 0.8128 v 4.9911 h -0.95885 z m -0.64135,-0.762 q 0.38735,0 0.53975,-0.22225 0.15875,-0.2286 0.15875,-0.69215 v -0.13335 q 0,-0.50165 -0.1524,-0.76835 -0.14605,-0.27305 -0.56515,-0.27305 -0.3302,0 -0.4953,0.2794 -0.15875,0.2794 -0.15875,0.7874 0,1.02235 0.6731,1.02235 z m 5.72135,-2.77495 v 3.4671 h -0.7366 l -0.12065,-0.4445 h -0.05715 q -0.1651,0.2667 -0.45085,0.38735 -0.28575,0.12065 -0.61595,0.12065 -0.55245,0 -0.89535,-0.29845 -0.33655,-0.3048 -0.33655,-0.97155 v -2.2606 h 0.9652 v 2.0193 q 0,0.3683 0.127,0.5588 0.13335,0.18415 0.4191,0.18415 0.4318,0 0.5842,-0.2921 0.15875,-0.2921 0.15875,-0.84455 v -1.6256 z m 1.422397,-1.36525 q 0.20955,0 0.36195,0.1016 0.15875,0.0952 0.15875,0.3683 0,0.26035 -0.15875,0.36195 -0.1524,0.1016 -0.36195,0.1016 -0.2159,0 -0.3683,-0.1016 -0.1524,-0.1016 -0.1524,-0.36195 0,-0.27305 0.1524,-0.3683 0.1524,-0.1016 0.3683,-0.1016 z m 0.47625,1.36525 v 3.4671 h -0.95885 v -3.4671 z m 2.851149,-0.0635 q 0.0952,0 0.2032,0.0127 0.10795,0.0127 0.1778,0.0254 l -0.0953,0.89535 q -0.0699,-0.0191 -0.1651,-0.0254 -0.0953,-0.0127 -0.2286,-0.0127 -0.19685,0 -0.3937,0.0825 -0.19685,0.0825 -0.3302,0.27305 -0.127,0.1905 -0.127,0.5207 v 1.75895 h -0.95885 v -3.4671 h 0.73025 l 0.1397,0.5842 h 0.0444 q 0.1524,-0.2667 0.41275,-0.4572 0.2667,-0.1905 0.59055,-0.1905 z m 2.2733,0 q 0.7239,0 1.13665,0.4064 0.4191,0.4064 0.4191,1.1684 v 0.46355 h -2.22885 q 0.019,0.3937 0.2413,0.6223 0.2286,0.22225 0.65405,0.22225 0.32385,0 0.59055,-0.0635 0.2667,-0.0635 0.5461,-0.1905 v 0.71755 q -0.254,0.127 -0.53975,0.18415 -0.28575,0.0635 -0.6985,0.0635 -0.51435,0 -0.9144,-0.1905 -0.3937,-0.19685 -0.6223,-0.59055 -0.2286,-0.3937 -0.2286,-0.9906 0,-0.90805 0.45085,-1.36525 0.4572,-0.4572 1.1938,-0.4572 z m 0.0254,0.67945 q -0.28575,0 -0.4699,0.18415 -0.1778,0.1778 -0.2032,0.5334 h 1.3081 q -0.006,-0.31115 -0.1651,-0.51435 -0.1524,-0.2032 -0.4699,-0.2032 z m 4.74345,1.8288 q 0,0.4953 -0.3556,0.79375 -0.34925,0.2921 -1.0795,0.2921 -0.3683,0 -0.6477,-0.0508 -0.2794,-0.0444 -0.53975,-0.1524 v -0.79375 q 0.2794,0.13335 0.5969,0.20955 0.32385,0.0762 0.56515,0.0762 0.2921,0 0.4191,-0.0825 0.13335,-0.0826 0.13335,-0.22225 0,-0.0953 -0.0698,-0.17145 -0.0635,-0.0762 -0.23495,-0.15875 -0.1651,-0.0825 -0.47625,-0.2032 -0.46355,-0.18415 -0.70485,-0.4064 -0.23495,-0.2286 -0.23495,-0.6604 0,-0.4826 0.37465,-0.73025 0.381,-0.24765 1.0033,-0.24765 0.3302,0 0.6223,0.0699 0.2921,0.0699 0.59055,0.19685 l -0.2794,0.65405 q -0.2413,-0.10795 -0.4953,-0.1778 -0.254,-0.0699 -0.45085,-0.0699 -0.4572,0 -0.4572,0.254 0,0.0953 0.0635,0.1651 0.0699,0.0635 0.23495,0.1397 0.17145,0.0762 0.47625,0.19685 0.31115,0.127 0.5207,0.26035 0.2159,0.13335 0.3175,0.3302 0.10795,0.1905 0.10795,0.48895 z"
       id="text1-6"
       aria-label="Requires" />
    <path
       style="font-weight:600;font-size:11.2889px;font-family:'Fira Sans';-inkscape-font-specification:'Fira Sans, Semi-Bold';fill:#f2f2f2;stroke-width:0.264583"
       d="m 131.57777,118.33122 h -5.89281 v 1.29823 h 2.07716 v 6.51369 h 1.65947 v -6.51369 h 1.97556 z m 3.54471,1.65947 c -0.68862,0 -1.27565,0.49671 -1.55787,1.33209 l -0.13547,-1.16275 h -1.39982 v 5.98311 h 1.60303 v -3.05929 c 0.2032,-0.98213 0.55315,-1.53529 1.28693,-1.53529 0.2032,0 0.34996,0.0339 0.54187,0.079 l 0.25964,-1.54658 c -0.19191,-0.0564 -0.38382,-0.0903 -0.59831,-0.0903 z m 5.66703,4.49298 v -2.41582 c 0,-1.35467 -0.72249,-2.08845 -2.38196,-2.08845 -0.67733,0 -1.46755,0.14676 -2.21262,0.44027 l 0.37253,1.07245 c 0.59831,-0.2032 1.18534,-0.31609 1.58045,-0.31609 0.74507,0 1.06116,0.23706 1.06116,0.98213 v 0.29351 h -0.68863 c -1.76107,0 -2.75449,0.7112 -2.75449,2.02072 0,1.08373 0.74507,1.85138 1.94169,1.85138 0.7112,0 1.36596,-0.24836 1.79494,-0.89183 0.24835,0.58702 0.69991,0.80151 1.37724,0.86925 l 0.33867,-1.06116 c -0.28222,-0.1016 -0.42898,-0.27093 -0.42898,-0.75636 z m -2.63031,0.68863 c -0.508,0 -0.77894,-0.3048 -0.77894,-0.83538 0,-0.65476 0.42898,-0.97085 1.30952,-0.97085 h 0.51929 v 1.14018 c -0.23707,0.42898 -0.59832,0.66605 -1.04987,0.66605 z m 7.55227,-5.1929 c -0.75635,0 -1.34338,0.33867 -1.81751,0.93698 l -0.12418,-0.75635 h -1.39982 v 5.98311 h 1.60302 v -4.13173 c 0.33867,-0.53058 0.69991,-0.83538 1.16276,-0.83538 0.39511,0 0.65475,0.19191 0.65475,0.88053 v 4.08658 h 1.60303 v -4.35751 c 0,-1.12889 -0.63218,-1.80623 -1.68205,-1.80623 z m 5.15904,0 c -1.44498,0 -2.37067,0.76765 -2.37067,1.78365 0,0.90311 0.56445,1.50142 1.77236,1.84009 1.10631,0.3048 1.3208,0.45156 1.3208,0.90311 0,0.4064 -0.38382,0.65476 -0.98214,0.65476 -0.59831,0 -1.15146,-0.23707 -1.60302,-0.58702 l -0.79022,0.88053 c 0.56444,0.51929 1.39982,0.86925 2.4384,0.86925 1.4224,0 2.58516,-0.69992 2.58516,-1.9417 0,-1.06115 -0.67734,-1.55786 -1.87396,-1.88524 -1.04987,-0.3048 -1.25307,-0.46285 -1.25307,-0.8128 0,-0.32738 0.29351,-0.54187 0.82409,-0.54187 0.51929,0 1.00471,0.16933 1.49014,0.47413 l 0.6096,-0.9144 c -0.56445,-0.45155 -1.29823,-0.72249 -2.16747,-0.72249 z m 5.96053,-1.18533 c 0.28222,0 0.6096,0.0564 0.97084,0.22578 l 0.44027,-1.06116 c -0.44027,-0.21449 -0.97084,-0.36124 -1.58044,-0.36124 -1.45627,0 -2.19005,0.85795 -2.19005,1.96426 v 0.59832 h -0.94827 v 1.12889 h 0.94827 v 4.85422 h 1.60302 v -4.85422 h 1.24178 l 0.18062,-1.12889 h -1.4224 v -0.55316 c 0,-0.56445 0.21449,-0.8128 0.75636,-0.8128 z m 3.80436,1.18533 c -1.80623,0 -2.87867,1.26436 -2.87867,3.17218 0,1.98685 1.08373,3.17219 2.86738,3.17219 1.79493,0 2.86738,-1.27565 2.86738,-3.17219 0,-1.98684 -1.07245,-3.17218 -2.85609,-3.17218 z m 0,1.19663 c 0.77893,0 1.18533,0.59831 1.18533,1.97555 0,1.36596 -0.4064,1.97556 -1.19662,1.97556 -0.79023,0 -1.19663,-0.59831 -1.19663,-1.97556 0,-1.36595 0.4064,-1.97555 1.20792,-1.97555 z m 7.14587,-1.18534 c -0.68863,0 -1.27565,0.49671 -1.55787,1.33209 l -0.13547,-1.16275 h -1.39982 v 5.98311 h 1.60302 v -3.05929 c 0.2032,-0.98213 0.55316,-1.53529 1.28694,-1.53529 0.2032,0 0.34995,0.0339 0.54186,0.079 l 0.25965,-1.54658 c -0.19191,-0.0564 -0.38382,-0.0903 -0.59831,-0.0903 z m 7.84578,-0.0113 c -0.76765,0 -1.3208,0.34996 -1.78365,0.98214 -0.23706,-0.63218 -0.75635,-0.98214 -1.43369,-0.98214 -0.74506,0 -1.29822,0.33867 -1.73849,0.93698 l -0.11289,-0.75635 h -1.39982 v 5.98311 h 1.60302 v -4.13173 c 0.29351,-0.53058 0.59831,-0.83538 1.03858,-0.83538 0.31609,0 0.58702,0.19191 0.58702,0.88053 v 4.08658 h 1.60303 v -4.13173 c 0.29351,-0.53058 0.58702,-0.83538 1.02729,-0.83538 0.31609,0 0.58702,0.19191 0.58702,0.88053 v 4.08658 h 1.60303 v -4.35751 c 0,-1.12889 -0.64347,-1.80623 -1.58045,-1.80623 z"
       id="text1-0"
       aria-label="Transform" />
    <g
       id="path2"
       style="fill:#4d4d4d;fill-opacity:1;stroke:none;stroke-opacity:1">
      <path
         style="fill:#4d4d4d;fill-opacity:1;stroke:none;stroke-opacity:1"
         d="m 72.66284,124.13201 h 45.21691"
         id="path11" />
      <path
         style="fill:#f2f2f2;fill-opacity:1;stroke:none;stroke-opacity:1"
         d="m 72.662109,123.37046 v 1.36523 h 45.216801 v -1.36523 z"
         id="path12" />
      <g
         id="g10"
         style="fill:#f2f2f2;fill-opacity:1;stroke:none;stroke-opacity:1"
         transform="matrix(0.72886163,0,0,0.72886163,31.582129,33.578015)">
        <path
           d="m 117.73195,121.25811 4.4956,2.2478 a 0.7,0.7 0 0 1 0,1.2522 l -4.4956,2.2478 a 0.8652476,0.8652476 0 0 1 -1.2522,-0.7739 v -4.2 a 0.8652476,0.8652476 0 0 1 1.2522,-0.7739 z"
           style="fill:#f2f2f2;fill-opacity:1;fill-rule:evenodd;stroke:none;stroke-width:0.7;stroke-opacity:1"
           id="path10" />
      </g>
    </g>
  </g>
</svg>
