<?xml version="1.0" encoding="UTF-8" standalone="no"?>
<svg
   xmlns:dc="http://purl.org/dc/elements/1.1/"
   xmlns:cc="http://creativecommons.org/ns#"
   xmlns:rdf="http://www.w3.org/1999/02/22-rdf-syntax-ns#"
   xmlns:svg="http://www.w3.org/2000/svg"
   xmlns="http://www.w3.org/2000/svg"
   xmlns:sodipodi="http://sodipodi.sourceforge.net/DTD/sodipodi-0.dtd"
   xmlns:inkscape="http://www.inkscape.org/namespaces/inkscape"
   inkscape:version="1.0 (4035a4fb49, 2020-05-01)"
   sodipodi:docname="bevy_tutor_icon_.svg"
   id="svg907"
   version="1.1"
   viewBox="0 0 624.17356 567.455"
   height="119.4388mm"
   width="131.37701mm">
  <title
     id="title933">Bevy Tutorial Icon</title>
  <metadata
     id="metadata913">
    <rdf:RDF>
      <cc:Work
         rdf:about="">
        <dc:format>image/svg+xml</dc:format>
        <dc:type
           rdf:resource="http://purl.org/dc/dcmitype/StillImage" />
        <dc:title>Bevy Tutorial Icon</dc:title>
        <dc:date>2020/08/28</dc:date>
        <dc:creator>
          <cc:Agent>
            <dc:title>Paul Desmond Parker</dc:title>
          </cc:Agent>
        </dc:creator>
        <dc:rights>
          <cc:Agent>
            <dc:title></dc:title>
          </cc:Agent>
        </dc:rights>
        <dc:contributor>
          <cc:Agent>
            <dc:title>Carter Anderson</dc:title>
          </cc:Agent>
        </dc:contributor>
        <cc:license
           rdf:resource="http://creativecommons.org/licenses/by-nc-sa/4.0/" />
      </cc:Work>
      <cc:License
         rdf:about="http://creativecommons.org/licenses/by-nc-sa/4.0/">
        <cc:permits
           rdf:resource="http://creativecommons.org/ns#Reproduction" />
        <cc:permits
           rdf:resource="http://creativecommons.org/ns#Distribution" />
        <cc:requires
           rdf:resource="http://creativecommons.org/ns#Notice" />
        <cc:requires
           rdf:resource="http://creativecommons.org/ns#Attribution" />
        <cc:prohibits
           rdf:resource="http://creativecommons.org/ns#CommercialUse" />
        <cc:permits
           rdf:resource="http://creativecommons.org/ns#DerivativeWorks" />
        <cc:requires
           rdf:resource="http://creativecommons.org/ns#ShareAlike" />
      </cc:License>
    </rdf:RDF>
  </metadata>
  <defs
     id="defs911" />
  <sodipodi:namedview
     inkscape:current-layer="svg907"
     inkscape:window-maximized="1"
     inkscape:window-y="0"
     inkscape:window-x="0"
     inkscape:cy="225.28752"
     inkscape:cx="247.47602"
     inkscape:zoom="1.6186784"
     showgrid="false"
     id="namedview909"
     inkscape:window-height="1016"
     inkscape:window-width="1920"
     inkscape:pageshadow="2"
     inkscape:pageopacity="0"
     guidetolerance="10"
     gridtolerance="10"
     objecttolerance="10"
     borderopacity="1"
     bordercolor="#666666"
     pagecolor="#ffffff" />
  <path
     d="m 539.70681,100.57501 c 0,0 17.38,3.5 17.38,21.62 1.12,19.5 -14,24.88 -14,24.88 0,0 24.38,99.37 26,105.29 -3,-0.05 -5.38,-0.05 -8.25,-0.09 -3.87,-6.08 -9.25,-16.33 -13.25,-22.75 -2.75,9.29 -4.62,13.79 -7,22.38 -2.88,-9.83 -6.25,-21.21 -9.83,-34.38 -1.67,11.34 -3.92,23.29 -5.67,34 -3.88,0.05 -8.5,0.17 -16.33,0.34 3.66,-16 18.33,-104.67 18.33,-104.67 0,0 -15.75,-4.75 -15.75,-23 0.87,-21.38 18.13,-23.62 18.13,-23.62 2.35,-0.56 7.62,-0.5 10.24,0 z m -13.37,-12.380003 c 26.25,-5 38.25,15.250003 40.02,21.890003 28.33,-9.12 45.4,-13.560003 45.4,-13.560003 0,0 -291.34,-96.00000023 -291.34,-96.00000023 0,0 -310.6600045,96.67000023 -310.6600045,96.67000023 0,0 133.1600045,35.670003 154.5000045,42.330003 22.24,-6.54 78.67,-27.83 148.45,-27.24 60.88,-1.09 139.21,17.91 157.21,29.24 8.22,-2.6 11.5,-3.48 30.96,-9.73 -2.79,-19.35 6.71,-39.100003 25.46,-43.600003 z m -211.25,133.000003 c -68.73,0.16 -115.33,16 -142.67,43.33 0,0 0,-90 0,-115.33 22.24,-6.54 77.17,-25 140.79,-24.62 72.48,1.25 131.88,15.29 149.88,26.62 0.67,16.67 0.67,111.33 0.67,111.33 -17.34,-16 -72.46,-41.5 -148.67,-41.33 z m -2,67 c -49.23,0.02 -98.87,10.5 -107.5,6.26 -16.49,-8.11 -39.61,-13.73 -58,-13.55 0,0 -16,0 -16,0 -27.21,4.1 -44.660005,8.27 -68.000005,24.13 -20.62,14.02 -37.01,32.29 -48.19,54.66 -28.49,56.97 -15.21999951,128.17 32.19,170.83 22.23,20.01 50.41,32.24 80.000005,35.88 0,0 15,0.55 15,0.55 0,0 8,0 8,0 16.02,-0.89 25.78,-2.81 41,-7.93 17.04,-5.73 33.7,-15.2 47,-27.33 15.83,-14.43 26.75,-28.47 35.69,-48 23.51,-51.33 13.91,-114.03 -23.86,-156 -12.86,-14.29 136.2,-14.29 123.34,0 -37.77,41.97 -47.37,104.67 -23.86,156 8.94,19.53 19.86,33.57 35.69,48 13.3,12.13 29.96,21.6 47,27.33 15.22,5.12 24.98,7.04 41,7.93 0,0 8,0 8,0 0,0 15,-0.55 15,-0.55 29.59,-3.64 57.77,-15.87 80,-35.88 47.41,-42.66 60.68,-113.86 32.19,-170.83 -11.18,-22.37 -27.57,-40.64 -48.19,-54.66 -23.34,-15.86 -40.79,-20.03 -68,-24.13 0,0 -16,0 -16,0 -18.39,-0.18 -41.51,5.44 -58,13.55 -8.54,4.2 -56.82,-6.28 -105.5,-6.26 z"
     stroke-width="1"
     stroke="#000000"
     fill="#000000"
     id="Bevy_Tutor_Hat_and_Glasses" />
  <g
     transform="translate(-13.913195,-41.804993)"
     viewbox="0 0 200 200"
     height="200"
     width="200"
     id="bevy">
    <path
       d="m 137.5,397.5 c 0,-6.29 -0.53,-10.95 1.71,-17 4.45,-12.02 18.46,-22.16 31.29,-22.91 5.65,-0.33 12.12,1.65 17,4.44 3.01,1.72 5.59,4.35 9,5.16 0,0 12,0.6 12,0.6 7.2,0.94 9.76,2.43 16,5.71 -1.51,7.4 -7.34,12.97 -12.67,18 -2.72,2.58 -7.45,6.19 -8.07,10 -0.61,3.74 3.42,12.59 5.23,16 5.92,11.16 14.35,19.74 14.51,33 0.09,8.15 -0.76,16.11 -2.92,24 -1.61,5.87 -5.01,12.75 -8.09,18 -13.77,23.51 -32.2,33.08 -56.99,41.33 -12.13,4.04 -24.35,7.08 -37,8.94 -8.16,1.2 -16.76,2.63 -25,2.73 -4.8,0.05 -17.97,0.44 -21.85,-1.15 -4.55,-1.85 -3.73,-8.58 0,-10.83 0,0 18.85,-4.25 18.85,-4.25 11.16,-2.68 29.64,-8.81 39,-15.13 6.76,-4.56 15.8,-13.51 12.15,-22.64 -4.19,-10.46 -19.31,-13.85 -29.15,-15.8 -11.67,-2.32 -25.08,-2.22 -37,-2.2 0,0 -15,1 -15,1 0,0 -33,2 -33,2 9.92,-15.63 35.68,-33.6 53,-40.55 0,0 25,-8.45 25,-8.45 0,0 -30,-13.28 -30,-13.28 -4.56,-1.97 -10.28,-3.34 -13,-7.72 0,0 11,-3.57 11,-3.57 9.6,-2.93 24.06,-6.38 34,-6.43 0,0 17,0 17,0 0,0 13,1 13,1 z m 35.11,-23.19 c -6.22,3.75 -4.74,11.92 1.9,13.21 8.25,1.6 11.3,-9.3 4.86,-13.21 -2.31,-1.11 -4.35,-0.71 -6.76,0 z"
       stroke="none"
       fill="#ececec"
       id="Bevy_Big_Bird" />
    <path
       d="m 197.5,517.5 c 0,0 14.79,-18 14.79,-18 9.4,-13.37 15.19,-29.59 15.21,-46 0.01,-12.36 -1.96,-15.56 -8.42,-26 -3.61,-5.83 -10.76,-17.2 -11.23,-23.96 -0.54,-7.87 11.76,-13.37 18.65,-12.95 8.86,0.54 16.11,4.63 21.2,11.91 2.74,3.91 3.17,8.09 6.93,11.22 4.38,3.64 15.56,8.8 15.21,15.68 -0.17,3.43 -4.59,4.99 -7.34,5.88 -5.47,1.78 -16.9,2.26 -19.7,7.28 -3.49,6.24 -3.29,21.62 -3.3,28.94 -0.01,4.91 0.04,7.26 -1.71,12 -5.49,14.85 -24.97,30.4 -40.29,34 z m 34.01,-110.46 c -9.8,3.64 -4.68,13.43 1.97,12.1 6.33,-1.25 7.23,-11.85 -1.97,-12.1 z"
       stroke="none"
       fill="#b2b2b2"
       id="Bevy_Med_Bird" />
    <path
       d="m 177.5,529.5 c 0,0 10,-4.9 10,-4.9 5.04,-1.78 7.79,-1.24 17,-5.27 15.3,-6.68 34.63,-22.83 38.47,-39.83 0.6,-2.66 0.53,-5.3 0.53,-8 0.01,-6.16 -0.65,-20.74 2.57,-25.7 1.79,-2.77 4.7,-1.87 7.43,-1.28 6.9,1.48 13.67,5.12 17.75,11.02 6.59,9.52 3.27,16.53 4.17,21.96 0.83,5.04 4.69,7.87 5.01,16 0,0 0,3.98 0,3.98 -0.66,5.47 -3.42,5.13 -7.93,4.13 -4.56,-1 -15.24,-5.5 -19,-3.42 -7.51,4.15 -14.13,19.93 -19.21,25.13 -6.71,6.86 -25.24,12.1 -34.79,12.1 -5.35,0 -16.68,-2.38 -22,-3.92 0,0 0,-2 0,-2 z m 78.15,-64.38 c -5.96,4.08 -2.03,11.36 3.75,9.4 5.52,-1.87 4.96,-10.67 -3.75,-9.4 z"
       stroke="none"
       fill="#787878"
       id="Bevy_Small_Bird" />
  </g>
  <g
     transform="matrix(-1,0,0,1,635.86178,-44.439524)"
     id="bevy-3"
     width="200"
     height="200"
     viewbox="0 0 200 200">
    <path
       id="Bevy_Big_Bird-6"
       fill="#ececec"
       stroke="none"
       d="m 137.5,397.5 c 0,-6.29 -0.53,-10.95 1.71,-17 4.45,-12.02 18.46,-22.16 31.29,-22.91 5.65,-0.33 12.12,1.65 17,4.44 3.01,1.72 5.59,4.35 9,5.16 0,0 12,0.6 12,0.6 7.2,0.94 9.76,2.43 16,5.71 -1.51,7.4 -7.34,12.97 -12.67,18 -2.72,2.58 -7.45,6.19 -8.07,10 -0.61,3.74 3.42,12.59 5.23,16 5.92,11.16 14.35,19.74 14.51,33 0.09,8.15 -0.76,16.11 -2.92,24 -1.61,5.87 -5.01,12.75 -8.09,18 -13.77,23.51 -32.2,33.08 -56.99,41.33 -12.13,4.04 -24.35,7.08 -37,8.94 -8.16,1.2 -16.76,2.63 -25,2.73 -4.8,0.05 -17.97,0.44 -21.85,-1.15 -4.55,-1.85 -3.73,-8.58 0,-10.83 0,0 18.85,-4.25 18.85,-4.25 11.16,-2.68 29.64,-8.81 39,-15.13 6.76,-4.56 15.8,-13.51 12.15,-22.64 -4.19,-10.46 -19.31,-13.85 -29.15,-15.8 -11.67,-2.32 -25.08,-2.22 -37,-2.2 0,0 -15,1 -15,1 0,0 -33,2 -33,2 9.92,-15.63 35.68,-33.6 53,-40.55 0,0 25,-8.45 25,-8.45 0,0 -30,-13.28 -30,-13.28 -4.56,-1.97 -10.28,-3.34 -13,-7.72 0,0 11,-3.57 11,-3.57 9.6,-2.93 24.06,-6.38 34,-6.43 0,0 17,0 17,0 0,0 13,1 13,1 z m 35.11,-23.19 c -6.22,3.75 -4.74,11.92 1.9,13.21 8.25,1.6 11.3,-9.3 4.86,-13.21 -2.31,-1.11 -4.35,-0.71 -6.76,0 z" />
    <path
       id="Bevy_Med_Bird-7"
       fill="#b2b2b2"
       stroke="none"
       d="m 197.5,517.5 c 0,0 14.79,-18 14.79,-18 9.4,-13.37 15.19,-29.59 15.21,-46 0.01,-12.36 -1.96,-15.56 -8.42,-26 -3.61,-5.83 -10.76,-17.2 -11.23,-23.96 -0.54,-7.87 11.76,-13.37 18.65,-12.95 8.86,0.54 16.11,4.63 21.2,11.91 2.74,3.91 3.17,8.09 6.93,11.22 4.38,3.64 15.56,8.8 15.21,15.68 -0.17,3.43 -4.59,4.99 -7.34,5.88 -5.47,1.78 -16.9,2.26 -19.7,7.28 -3.49,6.24 -3.29,21.62 -3.3,28.94 -0.01,4.91 0.04,7.26 -1.71,12 -5.49,14.85 -24.97,30.4 -40.29,34 z m 34.01,-110.46 c -9.8,3.64 -4.68,13.43 1.97,12.1 6.33,-1.25 7.23,-11.85 -1.97,-12.1 z" />
    <path
       id="Bevy_Small_Bird-5"
       fill="#787878"
       stroke="none"
       d="m 177.5,529.5 c 0,0 10,-4.9 10,-4.9 5.04,-1.78 7.79,-1.24 17,-5.27 15.3,-6.68 34.63,-22.83 38.47,-39.83 0.6,-2.66 0.53,-5.3 0.53,-8 0.01,-6.16 -0.65,-20.74 2.57,-25.7 1.79,-2.77 4.7,-1.87 7.43,-1.28 6.9,1.48 13.67,5.12 17.75,11.02 6.59,9.52 3.27,16.53 4.17,21.96 0.83,5.04 4.69,7.87 5.01,16 0,0 0,3.98 0,3.98 -0.66,5.47 -3.42,5.13 -7.93,4.13 -4.56,-1 -15.24,-5.5 -19,-3.42 -7.51,4.15 -14.13,19.93 -19.21,25.13 -6.71,6.86 -25.24,12.1 -34.79,12.1 -5.35,0 -16.68,-2.38 -22,-3.92 0,0 0,-2 0,-2 z m 78.15,-64.38 c -5.96,4.08 -2.03,11.36 3.75,9.4 5.52,-1.87 4.96,-10.67 -3.75,-9.4 z" />
  </g>
</svg>
