<?xml version="1.0" encoding="UTF-8" standalone="no"?>
<svg
   xmlns:dc="http://purl.org/dc/elements/1.1/"
   xmlns:cc="http://creativecommons.org/ns#"
   xmlns:rdf="http://www.w3.org/1999/02/22-rdf-syntax-ns#"
   xmlns:svg="http://www.w3.org/2000/svg"
   xmlns="http://www.w3.org/2000/svg"
   xmlns:sodipodi="http://sodipodi.sourceforge.net/DTD/sodipodi-0.dtd"
   xmlns:inkscape="http://www.inkscape.org/namespaces/inkscape"
   width="105.71632mm"
   height="89.507263mm"
   viewBox="0 0 105.71632 89.507263"
   version="1.1"
   id="svg8"
   inkscape:version="1.0 (4035a4fb49, 2020-05-01)"
   sodipodi:docname="ecs.svg">
  <defs
     id="defs2" />
  <sodipodi:namedview
     id="base"
     pagecolor="#ffffff"
     bordercolor="#666666"
     borderopacity="1.0"
     inkscape:pageopacity="0.0"
     inkscape:pageshadow="2"
     inkscape:zoom="1.979899"
     inkscape:cx="171.08538"
     inkscape:cy="95.803008"
     inkscape:document-units="mm"
     inkscape:current-layer="layer1"
     inkscape:document-rotation="0"
     showgrid="false"
     fit-margin-top="0"
     fit-margin-left="0"
     fit-margin-right="0"
     fit-margin-bottom="0"
     inkscape:window-width="3440"
     inkscape:window-height="1440"
     inkscape:window-x="0"
     inkscape:window-y="0"
     inkscape:window-maximized="1" />
  <metadata
     id="metadata5">
    <rdf:RDF>
      <cc:Work
         rdf:about="">
        <dc:format>image/svg+xml</dc:format>
        <dc:type
           rdf:resource="http://purl.org/dc/dcmitype/StillImage" />
        <dc:title></dc:title>
      </cc:Work>
    </rdf:RDF>
  </metadata>
  <g
     inkscape:label="Layer 1"
     inkscape:groupmode="layer"
     id="layer1"
     transform="translate(-26.352768,-106.08544)">
    <g
       style="font-style:normal;font-weight:normal;font-size:10.5833px;line-height:1.25;font-family:sans-serif;letter-spacing:0px;word-spacing:0px;fill:#000000;fill-opacity:1;stroke:none;stroke-width:0.264583"
       id="text835"
       aria-label="struct Component;

fn system(
  e: Entity,
  c: &amp;Component
) {
}">
      <path
         id="path862"
         style="fill:#c594c5;fill-opacity:1"
         d="m 29.326675,112.77409 c -0.656164,0 -1.238246,-0.254 -1.672161,-0.60325 l -0.624415,0.71967 c 0.518582,0.44449 1.259413,0.78316 2.296576,0.78316 1.280579,0 2.465909,-0.51858 2.465909,-1.73566 0,-1.05833 -0.719664,-1.43933 -1.809744,-1.73566 -1.111247,-0.30692 -1.418162,-0.46567 -1.418162,-0.889 0,-0.37042 0.296332,-0.61383 1.05833,-0.61383 0.656164,0 1.153579,0.21167 1.587494,0.49741 l 0.507999,-0.75141 c -0.507999,-0.37042 -1.18533,-0.64558 -2.127243,-0.64558 -1.375829,0 -2.233077,0.64558 -2.233077,1.60866 0,0.97366 0.730248,1.36525 1.841495,1.65099 1.153579,0.29634 1.333495,0.508 1.333495,0.96309 0,0.46566 -0.465665,0.75141 -1.206496,0.75141 z" />
      <path
         id="path864"
         style="fill:#c594c5;fill-opacity:1"
         d="m 38.31188,113.23975 -0.423332,-0.78316 c -0.285749,0.15875 -0.634998,0.26458 -1.037163,0.26458 -0.687914,0 -0.973663,-0.28575 -0.973663,-0.88899 v -3.01624 h 1.756827 l 0.137583,-0.86784 h -1.89441 v -1.38641 l -1.18533,0.13759 v 1.24882 h -1.238246 v 0.86784 h 1.238246 v 3.02682 c 0,1.10066 0.687914,1.83091 1.98966,1.83091 0.624415,0 1.21708,-0.16933 1.629828,-0.43392 z" />
      <path
         id="path866"
         style="fill:#c594c5;fill-opacity:1"
         d="m 43.952763,107.81052 c -0.96308,0 -1.545162,0.49742 -1.968494,1.42875 l -0.211666,-1.29117 h -1.725078 v 0.84667 h 0.825498 v 3.89465 h -0.825498 v 0.84667 h 3.132657 v -0.84667 h -1.12183 v -2.07432 c 0.328083,-1.09008 0.899581,-1.72508 1.693328,-1.74625 v 1.143 h 0.846664 l 0.201083,-2.06375 c -0.253999,-0.0847 -0.507998,-0.13758 -0.846664,-0.13758 z" />
      <path
         id="path868"
         style="fill:#c594c5;fill-opacity:1"
         d="m 47.529902,107.9481 h -1.18533 v 4.05341 c 0,1.04775 0.518582,1.67216 1.608662,1.67216 0.656164,0 1.344079,-0.29633 1.756827,-0.85725 l 0.07408,0.71967 h 1.02658 v -5.58799 h -1.18533 v 4.04283 c -0.275166,0.43391 -0.783164,0.78316 -1.301746,0.78316 -0.529165,0 -0.793747,-0.26458 -0.793747,-0.92075 z" />
      <path
         id="path870"
         style="fill:#c594c5;fill-opacity:1"
         d="m 55.393278,112.70001 c -0.867831,0 -1.502829,-0.52917 -1.502829,-1.92616 0,-1.397 0.613832,-2.02141 1.502829,-2.02141 0.476248,0 0.93133,0.16933 1.365245,0.46566 l 0.550332,-0.74083 c -0.539748,-0.4445 -1.174746,-0.67733 -1.936744,-0.67733 -1.725078,0 -2.741075,1.26999 -2.741075,2.97391 0,1.74624 0.994831,2.89982 2.719908,2.89982 0.740831,0 1.471079,-0.27517 1.957911,-0.68791 l -0.539748,-0.762 c -0.412749,0.27516 -0.857248,0.47625 -1.375829,0.47625 z" />
      <path
         id="path872"
         style="fill:#c594c5;fill-opacity:1"
         d="m 63.711736,113.23975 -0.423332,-0.78316 c -0.28575,0.15875 -0.634998,0.26458 -1.037164,0.26458 -0.687914,0 -0.973663,-0.28575 -0.973663,-0.88899 v -3.01624 h 1.756827 l 0.137583,-0.86784 h -1.89441 v -1.38641 l -1.18533,0.13759 v 1.24882 h -1.238246 v 0.86784 h 1.238246 v 3.02682 c 0,1.10066 0.687915,1.83091 1.98966,1.83091 0.624415,0 1.21708,-0.16933 1.629829,-0.43392 z" />
      <path
         id="path874"
         style="fill:#cccece;fill-opacity:1"
         d="m 74.591334,106.08544 c -1.777994,0 -3.238489,1.3335 -3.238489,3.78883 0,2.47649 1.396995,3.7994 3.259656,3.7994 1.068913,0 1.799161,-0.39158 2.285993,-0.86783 l -0.592665,-0.75141 c -0.402165,0.31749 -0.867831,0.62441 -1.650995,0.62441 -1.153579,0 -2.02141,-0.78316 -2.02141,-2.80457 0,-2.06375 0.920747,-2.82575 2.010827,-2.82575 0.571498,0 1.068913,0.17992 1.513412,0.53975 l 0.634998,-0.76199 c -0.592665,-0.47625 -1.206496,-0.74084 -2.201327,-0.74084 z" />
      <path
         id="path876"
         style="fill:#cccece;fill-opacity:1"
         d="m 80.33805,107.79994 c -1.629828,0 -2.539991,1.19591 -2.539991,2.94216 0,1.80974 0.89958,2.93157 2.529408,2.93157 1.619245,0 2.529409,-1.16416 2.529409,-2.94216 0,-1.77799 -0.888997,-2.93157 -2.518826,-2.93157 z m 0,0.92075 c 0.846664,0 1.269996,0.63499 1.269996,2.01082 0,1.397 -0.423332,2.032 -1.280579,2.032 -0.857247,0 -1.280579,-0.635 -1.280579,-2.02141 0,-1.38642 0.433915,-2.02141 1.291162,-2.02141 z" />
      <path
         id="path878"
         style="fill:#cccece;fill-opacity:1"
         d="m 88.296676,107.79994 c -0.539748,0 -0.910164,0.28575 -1.227663,0.70908 -0.158749,-0.52917 -0.529165,-0.70908 -0.952497,-0.70908 -0.539748,0 -0.878413,0.30691 -1.195912,0.75141 l -0.08467,-0.60325 H 83.94694 v 5.58799 h 1.05833 v -4.25449 c 0.275166,-0.40216 0.539748,-0.56091 0.825497,-0.56091 0.328083,0 0.370416,0.24341 0.370416,0.82549 v 3.98991 h 0.96308 v -4.25449 c 0.275166,-0.40216 0.550332,-0.56091 0.825497,-0.56091 0.328083,0 0.370416,0.24341 0.370416,0.82549 v 3.98991 h 1.047747 v -4.14866 c 0,-1.23824 -0.476249,-1.58749 -1.111247,-1.58749 z" />
      <path
         id="path880"
         style="fill:#cccece;fill-opacity:1"
         d="m 93.524811,107.79994 c -0.624415,0 -1.206497,0.29633 -1.629829,0.86783 l -0.07408,-0.71967 h -1.02658 v 7.87398 l 1.18533,-0.13758 v -2.62466 c 0.359832,0.41275 0.83608,0.61383 1.418162,0.61383 1.418162,0 2.158993,-1.23825 2.158993,-2.94216 0,-1.77799 -0.560915,-2.93157 -2.031993,-2.93157 z m -0.328083,0.91016 c 0.740831,0 1.111247,0.59267 1.111247,2.032 0,1.39699 -0.423332,2.01082 -1.227663,2.01082 -0.455082,0 -0.836081,-0.22225 -1.100663,-0.62441 v -2.61408 c 0.275166,-0.43391 0.687914,-0.80433 1.217079,-0.80433 z" />
      <path
         id="path882"
         style="fill:#cccece;fill-opacity:1"
         d="m 99.387943,107.79994 c -1.629828,0 -2.539992,1.19591 -2.539992,2.94216 0,1.80974 0.89958,2.93157 2.529409,2.93157 1.61924,0 2.52941,-1.16416 2.52941,-2.94216 0,-1.77799 -0.889,-2.93157 -2.518827,-2.93157 z m 0,0.92075 c 0.846667,0 1.269997,0.63499 1.269997,2.01082 0,1.397 -0.42333,2.032 -1.28058,2.032 -0.857248,0 -1.28058,-0.635 -1.28058,-2.02141 0,-1.38642 0.433916,-2.02141 1.291163,-2.02141 z" />
      <path
         id="path884"
         style="fill:#cccece;fill-opacity:1"
         d="m 103.49424,113.53609 h 1.18533 v -4.01107 c 0.29634,-0.42334 0.762,-0.81492 1.31233,-0.81492 0.67733,0 0.79375,0.37042 0.79375,1.34408 v 3.48191 h 1.18533 v -4.07457 c 0,-1.04775 -0.51858,-1.66158 -1.55575,-1.66158 -0.67733,0 -1.34407,0.30691 -1.80974,0.87841 l -0.0847,-0.73025 h -1.02658 z" />
      <path
         id="path886"
         style="fill:#cccece;fill-opacity:1"
         d="m 110.82846,111.12309 h 3.70415 c 0.0212,-0.13758 0.0317,-0.33866 0.0317,-0.52916 0,-1.73566 -0.93133,-2.79399 -2.41299,-2.79399 -1.58749,0 -2.55057,1.26999 -2.55057,2.94216 0,1.74624 0.95249,2.93157 2.69874,2.93157 0.78316,0 1.51341,-0.26458 2.03199,-0.68791 l -0.508,-0.71967 c -0.47625,0.3175 -0.93133,0.48683 -1.47108,0.48683 -0.80433,0 -1.44991,-0.48683 -1.52399,-1.62983 z m 1.33349,-2.44474 c 0.79375,0 1.22767,0.58208 1.24883,1.64041 h -2.5929 c 0.0741,-1.12183 0.60324,-1.64041 1.34407,-1.64041 z" />
      <path
         id="path888"
         style="fill:#cccece;fill-opacity:1"
         d="m 116.19417,113.53609 h 1.18533 v -4.01107 c 0.29633,-0.42334 0.762,-0.81492 1.31233,-0.81492 0.67733,0 0.79375,0.37042 0.79375,1.34408 v 3.48191 h 1.18533 v -4.07457 c 0,-1.04775 -0.51858,-1.66158 -1.55575,-1.66158 -0.67733,0 -1.34408,0.30691 -1.80974,0.87841 l -0.0847,-0.73025 h -1.02658 z" />
      <path
         id="path890"
         style="fill:#cccece;fill-opacity:1"
         d="m 127.21138,113.23975 -0.42334,-0.78316 c -0.28575,0.15875 -0.63499,0.26458 -1.03716,0.26458 -0.68791,0 -0.97366,-0.28575 -0.97366,-0.88899 v -3.01624 h 1.75682 l 0.13759,-0.86784 h -1.89441 v -1.38641 l -1.18533,0.13759 v 1.24882 h -1.23825 v 0.86784 h 1.23825 v 3.02682 c 0,1.10066 0.68791,1.83091 1.98966,1.83091 0.62441,0 1.21708,-0.16933 1.62983,-0.43392 z" />
      <path
         id="path892"
         style="fill:#5fb3b3;fill-opacity:1"
         d="m 131.11659,108.0116 c -0.52916,0 -0.94191,0.43392 -0.94191,0.9525 0,0.51858 0.41275,0.9525 0.94191,0.9525 0.55033,0 0.9525,-0.43392 0.9525,-0.9525 0,-0.51858 -0.40217,-0.9525 -0.9525,-0.9525 z m 0,3.64066 c -0.53975,0 -0.94191,0.42333 -0.94191,0.9525 0,0.3175 0.14817,0.61383 0.39158,0.78316 l -0.508,2.12724 h 0.91017 l 0.81491,-1.86266 c 0.20108,-0.45508 0.28575,-0.74083 0.28575,-1.04774 0,-0.52917 -0.40217,-0.9525 -0.9525,-0.9525 z" />
      <path
         id="path894"
         style="fill:#c594c5;fill-opacity:1"
         d="m 30.691921,132.43577 c -1.291163,0 -2.14841,0.71966 -2.14841,1.77799 v 1.00541 h -1.269996 v 0.87842 h 1.269996 v 4.3074 h 1.18533 v -4.3074 h 1.735661 l 0.137583,-0.87842 h -1.873244 v -0.99483 c 0,-0.59266 0.349248,-0.86783 1.079496,-0.86783 0.412749,0 0.825497,0.0741 1.195913,0.23284 l 0.359832,-0.8255 c -0.465665,-0.20108 -0.984247,-0.32808 -1.672161,-0.32808 z" />
      <path
         id="path896"
         style="fill:#c594c5;fill-opacity:1"
         d="m 33.644645,140.40499 h 1.18533 v -4.01107 c 0.296332,-0.42333 0.761997,-0.81491 1.312329,-0.81491 0.677331,0 0.793747,0.37041 0.793747,1.34407 v 3.48191 h 1.18533 v -4.07457 c 0,-1.04775 -0.518582,-1.66158 -1.555745,-1.66158 -0.677331,0 -1.344079,0.30692 -1.809744,0.87842 l -0.08467,-0.73025 h -1.02658 z" />
      <path
         id="path898"
         style="fill:#6699cc;fill-opacity:1"
         d="m 48.376566,139.64299 c -0.656165,0 -1.238246,-0.254 -1.672162,-0.60325 l -0.624414,0.71967 c 0.518581,0.4445 1.259412,0.78316 2.296576,0.78316 1.280579,0 2.465908,-0.51858 2.465908,-1.73566 0,-1.05833 -0.719664,-1.43933 -1.809744,-1.73566 -1.111246,-0.30691 -1.418162,-0.46566 -1.418162,-0.889 0,-0.37041 0.296332,-0.61383 1.05833,-0.61383 0.656165,0 1.15358,0.21167 1.587495,0.49742 l 0.507998,-0.75142 c -0.507998,-0.37041 -1.185329,-0.64558 -2.127243,-0.64558 -1.375829,0 -2.233076,0.64558 -2.233076,1.60866 0,0.97367 0.730248,1.36525 1.841494,1.651 1.15358,0.29633 1.333496,0.508 1.333496,0.96308 0,0.46566 -0.465665,0.75141 -1.206496,0.75141 z" />
      <path
         id="path900"
         style="fill:#6699cc;fill-opacity:1"
         d="m 57.584021,134.81701 h -1.21708 l -1.428745,4.76248 -1.407579,-4.76248 h -1.259413 l 1.883828,5.58798 h 0.402165 c -0.296332,0.80433 -0.656165,1.21708 -1.788578,1.397 l 0.148167,0.88899 c 1.566328,-0.13758 2.317742,-0.99483 2.741074,-2.26482 z" />
      <path
         id="path902"
         style="fill:#6699cc;fill-opacity:1"
         d="m 61.076494,139.64299 c -0.656165,0 -1.238246,-0.254 -1.672161,-0.60325 l -0.624415,0.71967 c 0.518582,0.4445 1.259413,0.78316 2.296576,0.78316 1.280579,0 2.465909,-0.51858 2.465909,-1.73566 0,-1.05833 -0.719665,-1.43933 -1.809744,-1.73566 -1.111247,-0.30691 -1.418163,-0.46566 -1.418163,-0.889 0,-0.37041 0.296333,-0.61383 1.05833,-0.61383 0.656165,0 1.15358,0.21167 1.587495,0.49742 l 0.507999,-0.75142 c -0.507999,-0.37041 -1.18533,-0.64558 -2.127244,-0.64558 -1.375829,0 -2.233076,0.64558 -2.233076,1.60866 0,0.97367 0.730248,1.36525 1.841494,1.651 1.15358,0.29633 1.333496,0.508 1.333496,0.96308 0,0.46566 -0.465665,0.75141 -1.206496,0.75141 z" />
      <path
         id="path904"
         style="fill:#6699cc;fill-opacity:1"
         d="m 70.061698,140.10866 -0.423332,-0.78317 c -0.285749,0.15875 -0.634998,0.26459 -1.037164,0.26459 -0.687914,0 -0.973663,-0.28575 -0.973663,-0.889 v -3.01624 h 1.756828 l 0.137583,-0.86783 h -1.894411 v -1.38641 l -1.18533,0.13758 v 1.24883 h -1.238246 v 0.86783 h 1.238246 v 3.02682 c 0,1.10067 0.687915,1.83091 1.989661,1.83091 0.624414,0 1.217079,-0.16933 1.629828,-0.43391 z" />
      <path
         id="path906"
         style="fill:#6699cc;fill-opacity:1"
         d="m 72.728674,137.992 h 3.704155 c 0.02117,-0.13759 0.03175,-0.33867 0.03175,-0.52917 0,-1.73566 -0.93133,-2.79399 -2.412992,-2.79399 -1.587495,0 -2.550575,1.27 -2.550575,2.94216 0,1.74624 0.952497,2.93157 2.698741,2.93157 0.783164,0 1.513412,-0.26458 2.031994,-0.68791 l -0.507999,-0.71967 c -0.476248,0.3175 -0.93133,0.48684 -1.471078,0.48684 -0.804331,0 -1.449912,-0.48684 -1.523995,-1.62983 z m 1.333495,-2.44474 c 0.793748,0 1.227663,0.58208 1.24883,1.64041 H 72.71809 c 0.07408,-1.12183 0.603248,-1.64041 1.344079,-1.64041 z" />
      <path
         id="path908"
         style="fill:#6699cc;fill-opacity:1"
         d="m 81.946712,134.66884 c -0.539748,0 -0.910164,0.28575 -1.227663,0.70908 -0.158749,-0.52916 -0.529165,-0.70908 -0.952497,-0.70908 -0.539748,0 -0.878414,0.30692 -1.195913,0.75142 l -0.08467,-0.60325 h -0.888997 v 5.58798 h 1.05833 v -4.25449 c 0.275166,-0.40216 0.539748,-0.56091 0.825497,-0.56091 0.328082,0 0.370416,0.24341 0.370416,0.8255 v 3.9899 h 0.96308 v -4.25449 c 0.275166,-0.40216 0.550332,-0.56091 0.825497,-0.56091 0.328083,0 0.370416,0.24341 0.370416,0.8255 v 3.9899 h 1.047746 v -4.14865 c 0,-1.23825 -0.476248,-1.5875 -1.111246,-1.5875 z" />
      <path
         id="path910"
         style="fill:#5fb3b3;fill-opacity:1"
         d="m 85.947184,136.70084 c 0,-2.04258 0.677331,-3.19616 2.158993,-4.62491 l -0.645582,-0.63499 c -1.703911,1.41816 -2.730491,2.87865 -2.730491,5.2599 0,2.38124 1.02658,3.84173 2.730491,5.2599 l 0.645582,-0.635 c -1.513412,-1.4605 -2.158993,-2.59291 -2.158993,-4.6249 z" />
      <path
         id="path912"
         style="fill:#cccece;fill-opacity:1"
         d="m 40.978856,151.42645 h 3.704155 c 0.02117,-0.13758 0.03175,-0.33867 0.03175,-0.52917 0,-1.73566 -0.931331,-2.79399 -2.412993,-2.79399 -1.587495,0 -2.550575,1.27 -2.550575,2.94216 0,1.74625 0.952497,2.93157 2.698741,2.93157 0.783165,0 1.513412,-0.26458 2.031994,-0.68791 l -0.507998,-0.71966 c -0.476249,0.31749 -0.931331,0.48683 -1.471079,0.48683 -0.804331,0 -1.449912,-0.48683 -1.523995,-1.62983 z m 1.333496,-2.44474 c 0.793747,0 1.227662,0.58208 1.248829,1.64041 h -2.592908 c 0.07408,-1.12183 0.603248,-1.64041 1.344079,-1.64041 z" />
      <path
         id="path914"
         style="fill:#5fb3b3;fill-opacity:1"
         d="m 47.625151,149.26746 c 0,0.51858 0.412749,0.95249 0.941914,0.95249 0.550332,0 0.952497,-0.43391 0.952497,-0.95249 0,-0.51859 -0.402165,-0.9525 -0.952497,-0.9525 -0.529165,0 -0.941914,0.43391 -0.941914,0.9525 z m 0,3.75707 c 0,0.52916 0.412749,0.95249 0.941914,0.95249 0.550332,0 0.952497,-0.42333 0.952497,-0.95249 0,-0.51858 -0.402165,-0.94192 -0.952497,-0.94192 -0.529165,0 -0.941914,0.42334 -0.941914,0.94192 z" />
      <path
         id="path916"
         style="fill:#cccece;fill-opacity:1"
         d="m 60.526162,147.4683 h 3.026824 l 0.137583,-0.93133 H 59.2985 v 7.30247 h 4.455569 v -0.93133 h -3.227907 v -2.31774 h 2.645825 v -0.92075 h -2.645825 z" />
      <path
         id="path918"
         style="fill:#cccece;fill-opacity:1"
         d="m 65.394463,153.83944 h 1.185329 v -4.01107 c 0.296333,-0.42333 0.761998,-0.81491 1.312329,-0.81491 0.677332,0 0.793748,0.37041 0.793748,1.34408 v 3.4819 h 1.185329 v -4.07457 c 0,-1.04775 -0.518581,-1.66158 -1.555745,-1.66158 -0.677331,0 -1.344079,0.30692 -1.809744,0.87842 l -0.08467,-0.73025 h -1.02658 z" />
      <path
         id="path920"
         style="fill:#cccece;fill-opacity:1"
         d="m 76.411662,153.54311 -0.423332,-0.78316 c -0.285749,0.15874 -0.634998,0.26458 -1.037163,0.26458 -0.687915,0 -0.973664,-0.28575 -0.973664,-0.889 v -3.01624 h 1.756828 l 0.137583,-0.86783 h -1.894411 v -1.38641 l -1.18533,0.13758 v 1.24883 h -1.238246 v 0.86783 h 1.238246 v 3.02682 c 0,1.10067 0.687915,1.83091 1.989661,1.83091 0.624414,0 1.217079,-0.16933 1.629828,-0.43391 z" />
      <path
         id="path922"
         style="fill:#cccece;fill-opacity:1"
         d="m 80.327467,145.51038 c -0.465665,0 -0.772581,0.32809 -0.772581,0.75142 0,0.42333 0.306916,0.74083 0.772581,0.74083 0.455082,0 0.772581,-0.3175 0.772581,-0.74083 0,-0.42333 -0.317499,-0.75142 -0.772581,-0.75142 z m 0.814914,2.74108 H 78.34839 v 0.86783 h 1.608662 v 3.85232 h -1.661578 v 0.86783 h 4.370902 v -0.86783 h -1.523995 z" />
      <path
         id="path924"
         style="fill:#cccece;fill-opacity:1"
         d="m 89.11159,153.54311 -0.423332,-0.78316 c -0.285749,0.15874 -0.634998,0.26458 -1.037163,0.26458 -0.687915,0 -0.973664,-0.28575 -0.973664,-0.889 v -3.01624 h 1.756828 l 0.137583,-0.86783 h -1.894411 v -1.38641 l -1.185329,0.13758 v 1.24883 h -1.238246 v 0.86783 h 1.238246 v 3.02682 c 0,1.10067 0.687914,1.83091 1.98966,1.83091 0.624415,0 1.21708,-0.16933 1.629828,-0.43391 z" />
      <path
         id="path926"
         style="fill:#cccece;fill-opacity:1"
         d="m 95.683804,148.25146 h -1.21708 l -1.428745,4.76248 -1.407579,-4.76248 h -1.259413 l 1.883828,5.58798 h 0.402165 c -0.296332,0.80433 -0.656165,1.21708 -1.788578,1.397 l 0.148167,0.88899 c 1.566328,-0.13758 2.317742,-0.99483 2.741074,-2.26482 z" />
      <path
         id="path928"
         style="fill:#5fb3b3;fill-opacity:1"
         d="m 99.37736,151.93445 c -0.539749,0 -0.963081,0.42333 -0.963081,0.95249 0,0.32809 0.15875,0.62442 0.402166,0.79375 l -0.507999,2.14841 h 0.920747 l 0.814917,-1.87324 c 0.21166,-0.46567 0.30691,-0.74083 0.30691,-1.06892 0,-0.52916 -0.423329,-0.95249 -0.97366,-0.95249 z" />
      <path
         id="path930"
         style="fill:#cccece;fill-opacity:1"
         d="m 42.69335,166.43781 c -0.86783,0 -1.502828,-0.52916 -1.502828,-1.92616 0,-1.39699 0.613831,-2.02141 1.502828,-2.02141 0.476249,0 0.931331,0.16933 1.365246,0.46567 l 0.550332,-0.74083 c -0.539749,-0.4445 -1.174747,-0.67734 -1.936744,-0.67734 -1.725078,0 -2.741075,1.27 -2.741075,2.97391 0,1.74625 0.99483,2.89983 2.719908,2.89983 0.740831,0 1.471079,-0.27517 1.957911,-0.68792 l -0.539749,-0.762 c -0.412748,0.27517 -0.857247,0.47625 -1.375829,0.47625 z" />
      <path
         id="path932"
         style="fill:#5fb3b3;fill-opacity:1"
         d="m 47.625151,162.70191 c 0,0.51858 0.412749,0.95249 0.941914,0.95249 0.550332,0 0.952497,-0.43391 0.952497,-0.95249 0,-0.51858 -0.402165,-0.9525 -0.952497,-0.9525 -0.529165,0 -0.941914,0.43392 -0.941914,0.9525 z m 0,3.75707 c 0,0.52916 0.412749,0.9525 0.941914,0.9525 0.550332,0 0.952497,-0.42334 0.952497,-0.9525 0,-0.51858 -0.402165,-0.94191 -0.952497,-0.94191 -0.529165,0 -0.941914,0.42333 -0.941914,0.94191 z" />
      <path
         id="path934"
         style="fill:#5fb3b3;fill-opacity:1"
         d="m 61.055327,159.83383 c -1.248829,0 -2.074326,0.79375 -2.074326,1.75683 0,0.71967 0.359832,1.32291 1.259412,1.54516 v 0.0318 c -1.037163,0.23284 -1.629828,0.91017 -1.629828,2.032 0,1.16416 0.783164,2.21191 2.434159,2.21191 1.238246,0 1.926161,-0.52917 2.296576,-0.9525 v -2.83633 h 0.846664 v -0.84666 H 61.31991 c -0.687915,0 -1.18533,-0.49741 -1.18533,-1.11125 0,-0.58208 0.328083,-0.98424 0.984247,-0.98424 0.486832,0 0.793748,0.17991 1.142997,0.56091 l 0.666747,-0.60325 c -0.571498,-0.62441 -1.153579,-0.80433 -1.873244,-0.80433 z m 1.195913,3.78882 v 2.43416 c -0.243416,0.28575 -0.656164,0.45509 -1.153579,0.45509 -0.920748,0 -1.333496,-0.635 -1.333496,-1.37583 0,-0.71967 0.433915,-1.51342 1.428745,-1.51342 z" />
      <path
         id="path936"
         style="fill:#cccece;fill-opacity:1"
         d="m 68.24137,159.82325 c -1.777994,0 -3.238489,1.3335 -3.238489,3.78882 0,2.47649 1.396995,3.79941 3.259656,3.79941 1.068913,0 1.799161,-0.39159 2.285993,-0.86783 l -0.592665,-0.75142 c -0.402166,0.3175 -0.867831,0.62442 -1.650995,0.62442 -1.15358,0 -2.02141,-0.78317 -2.02141,-2.80458 0,-2.06374 0.920747,-2.82574 2.010827,-2.82574 0.571498,0 1.068913,0.17992 1.513412,0.53975 l 0.634998,-0.762 c -0.592665,-0.47625 -1.206497,-0.74083 -2.201327,-0.74083 z" />
      <path
         id="path938"
         style="fill:#cccece;fill-opacity:1"
         d="m 73.988086,161.53774 c -1.629828,0 -2.539992,1.19592 -2.539992,2.94216 0,1.80975 0.899581,2.93158 2.529409,2.93158 1.619245,0 2.529409,-1.16417 2.529409,-2.94216 0,-1.778 -0.888998,-2.93158 -2.518826,-2.93158 z m 0,0.92075 c 0.846664,0 1.269996,0.635 1.269996,2.01083 0,1.39699 -0.423332,2.03199 -1.280579,2.03199 -0.857247,0 -1.280579,-0.635 -1.280579,-2.02141 0,-1.38641 0.433915,-2.02141 1.291162,-2.02141 z" />
      <path
         id="path940"
         style="fill:#cccece;fill-opacity:1"
         d="m 81.946712,161.53774 c -0.539748,0 -0.910164,0.28575 -1.227663,0.70909 -0.158749,-0.52917 -0.529165,-0.70909 -0.952497,-0.70909 -0.539748,0 -0.878414,0.30692 -1.195913,0.75142 l -0.08467,-0.60325 h -0.888997 v 5.58798 h 1.05833 v -4.25448 c 0.275166,-0.40217 0.539748,-0.56092 0.825497,-0.56092 0.328082,0 0.370416,0.24342 0.370416,0.8255 v 3.9899 h 0.96308 v -4.25448 c 0.275166,-0.40217 0.550332,-0.56092 0.825497,-0.56092 0.328083,0 0.370416,0.24342 0.370416,0.8255 v 3.9899 h 1.047746 v -4.14865 c 0,-1.23825 -0.476248,-1.5875 -1.111246,-1.5875 z" />
      <path
         id="path942"
         style="fill:#cccece;fill-opacity:1"
         d="m 87.174846,161.53774 c -0.624414,0 -1.206496,0.29634 -1.629828,0.86784 l -0.07408,-0.71967 h -1.02658 v 7.87398 l 1.18533,-0.13759 v -2.62466 c 0.359832,0.41275 0.83608,0.61384 1.418162,0.61384 1.418162,0 2.158993,-1.23825 2.158993,-2.94216 0,-1.778 -0.560915,-2.93158 -2.031994,-2.93158 z m -0.328082,0.91017 c 0.740831,0 1.111247,0.59266 1.111247,2.03199 0,1.397 -0.423332,2.01083 -1.227663,2.01083 -0.455082,0 -0.836081,-0.22225 -1.100663,-0.62442 v -2.61407 c 0.275165,-0.43392 0.687914,-0.80433 1.217079,-0.80433 z" />
      <path
         id="path944"
         style="fill:#cccece;fill-opacity:1"
         d="m 93.037979,161.53774 c -1.629828,0 -2.539992,1.19592 -2.539992,2.94216 0,1.80975 0.89958,2.93158 2.529408,2.93158 1.619245,0 2.529409,-1.16417 2.529409,-2.94216 0,-1.778 -0.888997,-2.93158 -2.518825,-2.93158 z m 0,0.92075 c 0.846664,0 1.269996,0.635 1.269996,2.01083 0,1.39699 -0.423332,2.03199 -1.28058,2.03199 -0.857247,0 -1.280579,-0.635 -1.280579,-2.02141 0,-1.38641 0.433915,-2.02141 1.291163,-2.02141 z" />
      <path
         id="path946"
         style="fill:#cccece;fill-opacity:1"
         d="m 97.144283,167.27389 h 1.18533 v -4.01107 c 0.296332,-0.42333 0.761997,-0.81491 1.312329,-0.81491 0.677328,0 0.793748,0.37041 0.793748,1.34408 v 3.4819 h 1.18533 v -4.07457 c 0,-1.04774 -0.51858,-1.66158 -1.55575,-1.66158 -0.677327,0 -1.344075,0.30692 -1.80974,0.87842 l -0.08467,-0.73025 h -1.02658 z" />
      <path
         id="path948"
         style="fill:#cccece;fill-opacity:1"
         d="m 104.47849,164.8609 h 3.70416 c 0.0212,-0.13758 0.0318,-0.33866 0.0318,-0.52916 0,-1.73567 -0.93134,-2.794 -2.413,-2.794 -1.58749,0 -2.55057,1.27 -2.55057,2.94216 0,1.74625 0.95249,2.93158 2.69874,2.93158 0.78316,0 1.51341,-0.26459 2.03199,-0.68792 l -0.508,-0.71966 c -0.47624,0.3175 -0.93133,0.48683 -1.47107,0.48683 -0.80434,0 -1.44992,-0.48683 -1.524,-1.62983 z m 1.3335,-2.44474 c 0.79374,0 1.22766,0.58208 1.24883,1.64041 h -2.59291 c 0.0741,-1.12183 0.60325,-1.64041 1.34408,-1.64041 z" />
      <path
         id="path950"
         style="fill:#cccece;fill-opacity:1"
         d="m 109.84421,167.27389 h 1.18533 v -4.01107 c 0.29633,-0.42333 0.762,-0.81491 1.31233,-0.81491 0.67733,0 0.79375,0.37041 0.79375,1.34408 v 3.4819 h 1.18533 v -4.07457 c 0,-1.04774 -0.51858,-1.66158 -1.55575,-1.66158 -0.67733,0 -1.34408,0.30692 -1.80974,0.87842 l -0.0847,-0.73025 h -1.02658 z" />
      <path
         id="path952"
         style="fill:#cccece;fill-opacity:1"
         d="m 120.86141,166.97756 -0.42333,-0.78316 c -0.28575,0.15875 -0.635,0.26458 -1.03717,0.26458 -0.68791,0 -0.97366,-0.28575 -0.97366,-0.889 v -3.01624 h 1.75683 l 0.13758,-0.86783 h -1.89441 v -1.38641 l -1.18533,0.13758 v 1.24883 h -1.23825 v 0.86783 h 1.23825 v 3.02683 c 0,1.10066 0.68791,1.83091 1.98966,1.83091 0.62441,0 1.21708,-0.16934 1.62983,-0.43392 z" />
      <path
         id="path954"
         style="fill:#5fb3b3;fill-opacity:1"
         d="m 30.258006,177.00419 c 0,2.03199 -0.645582,3.16441 -2.158994,4.6249 l 0.645582,0.635 c 1.703911,-1.41816 2.730491,-2.87866 2.730491,-5.2599 0,-2.38124 -1.02658,-3.84174 -2.730491,-5.2599 l -0.645582,0.635 c 1.481662,1.42874 2.158994,2.58232 2.158994,4.6249 z" />
      <path
         id="path956"
         style="fill:#5fb3b3;fill-opacity:1"
         d="m 43.889263,171.85012 c -1.471078,0 -2.434159,0.41275 -2.296576,1.76741 l 0.201083,1.83092 c 0.07408,0.75141 -0.328082,1.07949 -1.545162,1.07949 v 0.9525 c 1.227663,0 1.619245,0.33866 1.545162,1.09008 l -0.201083,1.83091 c -0.137583,1.34408 0.825498,1.75683 2.296576,1.75683 v -0.87842 c -0.719664,0 -1.259412,-0.15875 -1.195913,-0.77258 l 0.1905,-1.94732 c 0.105833,-1.02658 -0.338666,-1.40758 -1.227663,-1.55575 0.857247,-0.14817 1.333496,-0.56091 1.227663,-1.55574 l -0.1905,-1.94733 c -0.0635,-0.60325 0.465666,-0.77258 1.195913,-0.77258 z" />
      <path
         id="path958"
         style="font-style:normal;font-variant:normal;font-weight:500;font-stretch:normal;font-size:10.5833px;font-family:'Fira Mono';-inkscape-font-specification:'Fira Mono, Medium';font-variant-ligatures:normal;font-variant-caps:normal;font-variant-numeric:normal;font-variant-east-asian:normal;fill:#5fb3b3;fill-opacity:1;stroke-width:0.264583"
         d="m 27.86618,185.28457 v 0.87842 c 0.719664,0 1.259412,0.16933 1.195913,0.77258 l -0.1905,1.94733 c -0.105833,1.00541 0.359832,1.40758 1.301746,1.56632 -0.941914,0.13759 -1.407579,0.51859 -1.301746,1.54517 l 0.1905,1.94732 c 0.0635,0.61384 -0.465666,0.77258 -1.195913,0.77258 v 0.87842 c 1.471078,0 2.434159,-0.41275 2.296576,-1.76741 l -0.201083,-1.82033 c -0.07408,-0.75141 0.402166,-1.09008 1.545162,-1.09008 v -0.9525 c -1.142996,0 -1.619245,-0.32808 -1.545162,-1.07949 l 0.201083,-1.8415 c 0.137583,-1.34408 -0.825498,-1.75683 -2.296576,-1.75683 z" />
    </g>
  </g>
</svg>
