<?xml version="1.0" encoding="UTF-8" standalone="no"?>
<svg
   xmlns:dc="http://purl.org/dc/elements/1.1/"
   xmlns:cc="http://creativecommons.org/ns#"
   xmlns:rdf="http://www.w3.org/1999/02/22-rdf-syntax-ns#"
   xmlns:svg="http://www.w3.org/2000/svg"
   xmlns="http://www.w3.org/2000/svg"
   xmlns:sodipodi="http://sodipodi.sourceforge.net/DTD/sodipodi-0.dtd"
   xmlns:inkscape="http://www.inkscape.org/namespaces/inkscape"
   width="125.58137mm"
   height="62.744316mm"
   version="1.1"
   viewBox="0 0 251.17413 125.48864"
   id="svg140"
   sodipodi:docname="ecs.svg"
   inkscape:version="1.0.1 (3bc2e813f5, 2020-09-07, custom)">
  <metadata
     id="metadata146">
    <rdf:RDF>
      <cc:Work
         rdf:about="">
        <dc:format>image/svg+xml</dc:format>
        <dc:type
           rdf:resource="http://purl.org/dc/dcmitype/StillImage" />
        <dc:title></dc:title>
      </cc:Work>
    </rdf:RDF>
  </metadata>
  <defs
     id="defs144" />
  <sodipodi:namedview
     pagecolor="#ffffff"
     bordercolor="#666666"
     borderopacity="1"
     objecttolerance="10"
     gridtolerance="10"
     guidetolerance="10"
     inkscape:pageopacity="0"
     inkscape:pageshadow="2"
     inkscape:window-width="3440"
     inkscape:window-height="1440"
     id="namedview142"
     showgrid="false"
     fit-margin-top="0"
     fit-margin-left="0"
     fit-margin-right="0"
     fit-margin-bottom="0"
     inkscape:zoom="1.1906414"
     inkscape:cx="93.910448"
     inkscape:cy="114.25059"
     inkscape:window-x="0"
     inkscape:window-y="0"
     inkscape:window-maximized="1"
     inkscape:current-layer="g136" />
  <g
     transform="translate(-142.28198,13.58639)"
     id="g138">
    <text
       font-family="'Fira Mono'"
       font-size="5.6444px"
       letter-spacing="0px"
       word-spacing="0px"
       style="line-height:1.25;white-space:pre;shape-inside:url(#rect835);"
       xml:space="preserve"
       id="text2" />
    <text
       x="70.681549"
       y="45.735119"
       font-family="'Fira Mono'"
       font-size="5.6444px"
       letter-spacing="0px"
       stroke-width="0.26458"
       word-spacing="0px"
       style="line-height:1.25"
       xml:space="preserve"
       id="text6"><tspan
         x="70.681549"
         y="45.735119"
         font-family="'Fira Mono'"
         stroke-width="0.26458"
         id="tspan4" /></text>
    <g
       shape-rendering="auto"
       id="g136">
      <g
         aria-label="struct Component;

fn system(q: Query&lt;(
  Entity, &amp;Component
)&gt;) {}"
         id="text973"
         style="font-style:normal;font-weight:normal;font-size:21.1676px;line-height:1.25;font-family:sans-serif;letter-spacing:0px;word-spacing:0px;fill:#000000;fill-opacity:1;stroke:none;stroke-width:0.529191"
         transform="translate(1.759958,1.3199781)">
        <path
           d="m 145.11539,-1.5305514 c -1.31239,0 -2.47661,-0.5080224 -3.34448,-1.2065532 l -1.24889,1.4393968 c 1.03722,0.88903927 2.51895,1.56640249 4.59337,1.56640249 2.56128,0 4.93205,-1.03721243 4.93205,-3.47148649 0,-2.1167601 -1.43939,-2.8787937 -3.61966,-3.4714865 -2.22259,-0.6138604 -2.83645,-0.9313744 -2.83645,-1.7780785 0,-0.740866 0.59269,-1.2277208 2.11676,-1.2277208 1.31239,0 2.30726,0.423352 3.17514,0.9948772 l 1.01604,-1.5028996 c -1.01604,-0.740866 -2.37077,-1.291224 -4.25469,-1.291224 -2.75178,0 -4.46636,1.291224 -4.46636,3.2174756 0,1.9474193 1.46056,2.7306205 3.68316,3.3021457 2.30727,0.5926929 2.66712,1.0160449 2.66712,1.9262517 0,0.9313744 -0.93137,1.5028996 -2.41311,1.5028996 z"
           style="font-style:normal;font-variant:normal;font-weight:500;font-stretch:normal;font-size:21.1676px;font-family:'Fira Mono';-inkscape-font-specification:'Fira Mono, Medium';font-variant-ligatures:normal;font-variant-caps:normal;font-variant-numeric:normal;font-variant-east-asian:normal;fill:#c594c5;fill-opacity:1;stroke-width:0.529191"
           id="path1013" />
        <path
           d="m 163.08665,-0.59917694 -0.8467,-1.56640246 c -0.57153,0.317514 -1.27006,0.52919 -2.07443,0.52919 -1.37589,0 -1.94741,-0.5715252 -1.94741,-1.7780784 V -9.447234 h 3.51382 l 0.27518,-1.735743 h -3.789 v -2.772956 l -2.37078,0.275179 v 2.497777 h -2.4766 v 1.735743 h 2.4766 v 6.0539338 c 0,2.2014304 1.3759,3.66199489 3.97951,3.66199489 1.24889,0 2.43428,-0.33868161 3.25981,-0.86787163 z"
           style="font-style:normal;font-variant:normal;font-weight:500;font-stretch:normal;font-size:21.1676px;font-family:'Fira Mono';-inkscape-font-specification:'Fira Mono, Medium';font-variant-ligatures:normal;font-variant-caps:normal;font-variant-numeric:normal;font-variant-east-asian:normal;fill:#c594c5;fill-opacity:1;stroke-width:0.529191"
           id="path1015" />
        <path
           d="m 174.36895,-11.458156 c -1.92625,0 -3.09047,0.994877 -3.93717,2.857626 l -0.42335,-2.582447 h -3.45032 v 1.6934078 h 1.65107 v 7.789677 h -1.65107 v 1.69340808 h 6.26561 V -1.6998922 h -2.24377 v -4.1488497 c 0.6562,-2.1802629 1.79925,-3.4503189 3.38682,-3.4926541 v 2.2861009 h 1.69341 l 0.40218,-4.1276819 c -0.50802,-0.169341 -1.01604,-0.275179 -1.69341,-0.275179 z"
           style="font-style:normal;font-variant:normal;font-weight:500;font-stretch:normal;font-size:21.1676px;font-family:'Fira Mono';-inkscape-font-specification:'Fira Mono, Medium';font-variant-ligatures:normal;font-variant-caps:normal;font-variant-numeric:normal;font-variant-east-asian:normal;fill:#c594c5;fill-opacity:1;stroke-width:0.529191"
           id="path1017" />
        <path
           d="m 181.52357,-11.182977 h -2.37077 v 8.1071908 c 0,2.09559245 1.03721,3.34448089 3.21747,3.34448089 1.3124,0 2.68829,-0.59269282 3.51383,-1.71457569 l 0.14817,1.43939688 h 2.05326 V -11.182977 h -2.37077 v 8.0860232 c -0.55036,0.8678716 -1.56641,1.5664024 -2.60362,1.5664024 -1.05838,0 -1.58757,-0.52919 -1.58757,-1.8415812 z"
           style="font-style:normal;font-variant:normal;font-weight:500;font-stretch:normal;font-size:21.1676px;font-family:'Fira Mono';-inkscape-font-specification:'Fira Mono, Medium';font-variant-ligatures:normal;font-variant-caps:normal;font-variant-numeric:normal;font-variant-east-asian:normal;fill:#c594c5;fill-opacity:1;stroke-width:0.529191"
           id="path1019" />
        <path
           d="m 197.25106,-1.6787246 c -1.73574,0 -3.00579,-1.05838 -3.00579,-3.8525033 0,-2.7941233 1.22772,-4.0430117 3.00579,-4.0430117 0.95255,0 1.86275,0.3386816 2.73063,0.9313744 l 1.10071,-1.4817318 c -1.07955,-0.889039 -2.3496,-1.354727 -3.87367,-1.354727 -3.45032,0 -5.48241,2.5401124 -5.48241,5.9480961 0,3.4926541 1.98976,5.79992259 5.44007,5.79992259 1.48174,0 2.9423,-0.55035762 3.91601,-1.37589409 l -1.07955,-1.5240672 c -0.82553,0.5503576 -1.71457,0.952542 -2.75179,0.952542 z"
           style="font-style:normal;font-variant:normal;font-weight:500;font-stretch:normal;font-size:21.1676px;font-family:'Fira Mono';-inkscape-font-specification:'Fira Mono, Medium';font-variant-ligatures:normal;font-variant-caps:normal;font-variant-numeric:normal;font-variant-east-asian:normal;fill:#c594c5;fill-opacity:1;stroke-width:0.529191"
           id="path1021" />
        <path
           d="m 213.88877,-0.59917694 -0.84671,-1.56640246 c -0.57152,0.317514 -1.27005,0.52919 -2.07442,0.52919 -1.3759,0 -1.94742,-0.5715252 -1.94742,-1.7780784 V -9.447234 h 3.51382 l 0.27518,-1.735743 h -3.789 v -2.772956 l -2.37077,0.275179 v 2.497777 h -2.47661 v 1.735743 h 2.47661 v 6.0539338 c 0,2.2014304 1.37589,3.66199489 3.9795,3.66199489 1.24889,0 2.43428,-0.33868161 3.25982,-0.86787163 z"
           style="font-style:normal;font-variant:normal;font-weight:500;font-stretch:normal;font-size:21.1676px;font-family:'Fira Mono';-inkscape-font-specification:'Fira Mono, Medium';font-variant-ligatures:normal;font-variant-caps:normal;font-variant-numeric:normal;font-variant-east-asian:normal;fill:#c594c5;fill-opacity:1;stroke-width:0.529191"
           id="path1023" />
        <path
           d="m 235.64899,-14.908475 c -3.55615,0 -6.47728,2.667118 -6.47728,7.5780011 0,4.9532185 2.79412,7.59916859 6.51962,7.59916859 2.13793,0 3.59849,-0.78320122 4.5722,-1.73574329 l -1.18539,-1.5028996 c -0.80436,0.635028 -1.73574,1.2488884 -3.30214,1.2488884 -2.30727,0 -4.04301,-1.5664024 -4.04301,-5.6094141 0,-4.1276821 1.84158,-5.6517491 4.02184,-5.6517491 1.14305,0 2.13793,0.359849 3.02697,1.079547 l 1.27005,-1.524067 c -1.18538,-0.952542 -2.4131,-1.481732 -4.40286,-1.481732 z"
           style="font-style:normal;font-variant:normal;font-weight:500;font-stretch:normal;font-size:21.1676px;font-family:'Fira Mono';-inkscape-font-specification:'Fira Mono, Medium';font-variant-ligatures:normal;font-variant-caps:normal;font-variant-numeric:normal;font-variant-east-asian:normal;fill:#cccece;fill-opacity:1;stroke-width:0.529191"
           id="path1025" />
        <path
           d="m 247.14297,-11.479324 c -3.25981,0 -5.08022,2.3919392 -5.08022,5.8845933 0,3.6196597 1.79924,5.86342539 5.05905,5.86342539 3.23865,0 5.05906,-2.32843609 5.05906,-5.88459299 0,-3.5561569 -1.77808,-5.8634257 -5.03789,-5.8634257 z m 0,1.8415816 c 1.69341,0 2.54011,1.270056 2.54011,4.0218441 0,2.7941233 -0.8467,4.0641793 -2.56128,4.0641793 -1.71457,0 -2.56128,-1.270056 -2.56128,-4.0430117 0,-2.7729557 0.86787,-4.0430117 2.58245,-4.0430117 z"
           style="font-style:normal;font-variant:normal;font-weight:500;font-stretch:normal;font-size:21.1676px;font-family:'Fira Mono';-inkscape-font-specification:'Fira Mono, Medium';font-variant-ligatures:normal;font-variant-caps:normal;font-variant-numeric:normal;font-variant-east-asian:normal;fill:#cccece;fill-opacity:1;stroke-width:0.529191"
           id="path1027" />
        <path
           d="m 263.06098,-11.479324 c -1.07955,0 -1.82042,0.571526 -2.45545,1.41823 -0.31751,-1.05838 -1.05838,-1.41823 -1.90508,-1.41823 -1.07955,0 -1.75691,0.613861 -2.39194,1.5029 l -0.16934,-1.206553 h -1.77808 v 11.17649288 h 2.11676 V -8.5158596 c 0.55036,-0.8043688 1.07955,-1.1218828 1.65108,-1.1218828 0.65619,0 0.74086,0.4868548 0.74086,1.6510728 v 7.98018548 h 1.92625 V -8.5158596 c 0.55036,-0.8043688 1.10072,-1.1218828 1.65108,-1.1218828 0.65619,0 0.74086,0.4868548 0.74086,1.6510728 v 7.98018548 h 2.09559 V -8.3041836 c 0,-2.4766094 -0.95254,-3.1751404 -2.22259,-3.1751404 z"
           style="font-style:normal;font-variant:normal;font-weight:500;font-stretch:normal;font-size:21.1676px;font-family:'Fira Mono';-inkscape-font-specification:'Fira Mono, Medium';font-variant-ligatures:normal;font-variant-caps:normal;font-variant-numeric:normal;font-variant-east-asian:normal;fill:#cccece;fill-opacity:1;stroke-width:0.529191"
           id="path1029" />
        <path
           d="m 273.51773,-11.479324 c -1.24888,0 -2.4131,0.592693 -3.25981,1.7357436 l -0.14817,-1.4393966 h -2.05326 V 4.5657176 l 2.37077,-0.2751788 v -5.24956495 c 0.7197,0.82553643 1.67225,1.22772084 2.83646,1.22772084 2.83646,0 4.31819,-2.47660929 4.31819,-5.88459299 0,-3.5561569 -1.12188,-5.8634257 -4.06418,-5.8634257 z m -0.65619,1.820414 c 1.48173,0 2.2226,1.1853856 2.2226,4.0641793 0,2.7941233 -0.84671,4.0218441 -2.45544,4.0218441 -0.91021,0 -1.67225,-0.4445196 -2.20144,-1.2488884 v -5.2283974 c 0.55036,-0.8678716 1.3759,-1.6087376 2.43428,-1.6087376 z"
           style="font-style:normal;font-variant:normal;font-weight:500;font-stretch:normal;font-size:21.1676px;font-family:'Fira Mono';-inkscape-font-specification:'Fira Mono, Medium';font-variant-ligatures:normal;font-variant-caps:normal;font-variant-numeric:normal;font-variant-east-asian:normal;fill:#cccece;fill-opacity:1;stroke-width:0.529191"
           id="path1031" />
        <path
           d="m 285.24456,-11.479324 c -3.25981,0 -5.08023,2.3919392 -5.08023,5.8845933 0,3.6196597 1.79925,5.86342539 5.05906,5.86342539 3.23864,0 5.05905,-2.32843609 5.05905,-5.88459299 0,-3.5561569 -1.77807,-5.8634257 -5.03788,-5.8634257 z m 0,1.8415816 c 1.6934,0 2.54011,1.270056 2.54011,4.0218441 0,2.7941233 -0.84671,4.0641793 -2.56128,4.0641793 -1.71458,0 -2.56128,-1.270056 -2.56128,-4.0430117 0,-2.7729557 0.86787,-4.0430117 2.58245,-4.0430117 z"
           style="font-style:normal;font-variant:normal;font-weight:500;font-stretch:normal;font-size:21.1676px;font-family:'Fira Mono';-inkscape-font-specification:'Fira Mono, Medium';font-variant-ligatures:normal;font-variant-caps:normal;font-variant-numeric:normal;font-variant-east-asian:normal;fill:#cccece;fill-opacity:1;stroke-width:0.529191"
           id="path1033" />
        <path
           d="m 293.45756,-0.00648412 h 2.37077 V -8.0290048 c 0.59269,-0.846704 1.52406,-1.6299052 2.62478,-1.6299052 1.35473,0 1.58757,0.740866 1.58757,2.6882853 v 6.96414058 h 2.37077 V -8.1560104 c 0,-2.0955926 -1.03721,-3.3233136 -3.11164,-3.3233136 -1.35472,0 -2.68828,0.613861 -3.61966,1.7569112 l -0.16934,-1.4605642 h -2.05325 z"
           style="font-style:normal;font-variant:normal;font-weight:500;font-stretch:normal;font-size:21.1676px;font-family:'Fira Mono';-inkscape-font-specification:'Fira Mono, Medium';font-variant-ligatures:normal;font-variant-caps:normal;font-variant-numeric:normal;font-variant-east-asian:normal;fill:#cccece;fill-opacity:1;stroke-width:0.529191"
           id="path1035" />
        <path
           d="m 308.12667,-4.8326971 h 7.40866 c 0.0423,-0.2751788 0.0635,-0.6773632 0.0635,-1.05838 0,-3.4714865 -1.86275,-5.5882469 -4.82622,-5.5882469 -3.17514,0 -5.10139,2.5401124 -5.10139,5.8845933 0,3.4926541 1.90509,5.86342539 5.39774,5.86342539 1.5664,0 3.02697,-0.52919002 4.06418,-1.37589409 l -1.01605,-1.4393968 c -0.95254,0.635028 -1.86274,0.9737096 -2.94229,0.9737096 -1.60874,0 -2.89996,-0.9737096 -3.04814,-3.2598105 z m 2.66712,-4.8897157 c 1.58757,0 2.45544,1.164218 2.49778,3.2809781 h -5.18606 c 0.14817,-2.2437657 1.20655,-3.2809781 2.68828,-3.2809781 z"
           style="font-style:normal;font-variant:normal;font-weight:500;font-stretch:normal;font-size:21.1676px;font-family:'Fira Mono';-inkscape-font-specification:'Fira Mono, Medium';font-variant-ligatures:normal;font-variant-caps:normal;font-variant-numeric:normal;font-variant-east-asian:normal;fill:#cccece;fill-opacity:1;stroke-width:0.529191"
           id="path1037" />
        <path
           d="m 318.8586,-0.00648412 h 2.37077 V -8.0290048 c 0.5927,-0.846704 1.52407,-1.6299052 2.62479,-1.6299052 1.35472,0 1.58757,0.740866 1.58757,2.6882853 v 6.96414058 h 2.37077 V -8.1560104 c 0,-2.0955926 -1.03722,-3.3233136 -3.11164,-3.3233136 -1.35473,0 -2.68829,0.613861 -3.61966,1.7569112 l -0.16934,-1.4605642 h -2.05326 z"
           style="font-style:normal;font-variant:normal;font-weight:500;font-stretch:normal;font-size:21.1676px;font-family:'Fira Mono';-inkscape-font-specification:'Fira Mono, Medium';font-variant-ligatures:normal;font-variant-caps:normal;font-variant-numeric:normal;font-variant-east-asian:normal;fill:#cccece;fill-opacity:1;stroke-width:0.529191"
           id="path1039" />
        <path
           d="m 340.89405,-0.59917694 -0.84671,-1.56640246 c -0.57152,0.317514 -1.27006,0.52919 -2.07442,0.52919 -1.3759,0 -1.94742,-0.5715252 -1.94742,-1.7780784 V -9.447234 h 3.51382 l 0.27518,-1.735743 h -3.789 v -2.772956 l -2.37077,0.275179 v 2.497777 h -2.47661 v 1.735743 h 2.47661 v 6.0539338 c 0,2.2014304 1.37589,3.66199489 3.9795,3.66199489 1.24889,0 2.43428,-0.33868161 3.25982,-0.86787163 z"
           style="font-style:normal;font-variant:normal;font-weight:500;font-stretch:normal;font-size:21.1676px;font-family:'Fira Mono';-inkscape-font-specification:'Fira Mono, Medium';font-variant-ligatures:normal;font-variant-caps:normal;font-variant-numeric:normal;font-variant-east-asian:normal;fill:#cccece;fill-opacity:1;stroke-width:0.529191"
           id="path1041" />
        <path
           d="m 348.70486,-11.055972 c -1.05838,0 -1.88392,0.867872 -1.88392,1.9050844 0,1.0372124 0.82554,1.9050841 1.88392,1.9050841 1.10072,0 1.90508,-0.8678717 1.90508,-1.9050841 0,-1.0372124 -0.80436,-1.9050844 -1.90508,-1.9050844 z m 0,7.281655 c -1.07955,0 -1.88392,0.846704 -1.88392,1.905084 0,0.635028 0.29635,1.22772086 0.78321,1.56640247 L 346.5881,3.9518572 h 1.82041 l 1.62991,-3.72549771 c 0.40218,-0.91020683 0.57152,-1.48173209 0.57152,-2.09559249 0,-1.05838 -0.80436,-1.905084 -1.90508,-1.905084 z"
           style="font-style:normal;font-variant:normal;font-weight:500;font-stretch:normal;font-size:21.1676px;font-family:'Fira Mono';-inkscape-font-specification:'Fira Mono, Medium';font-variant-ligatures:normal;font-variant-caps:normal;font-variant-numeric:normal;font-variant-east-asian:normal;fill:#5fb3b3;fill-opacity:1;stroke-width:0.529191"
           id="path1043" />
        <path
           d="m 147.84601,37.794661 c -2.58244,0 -4.29702,1.439397 -4.29702,3.556157 v 2.010922 h -2.54011 v 1.756911 h 2.54011 v 8.615213 h 2.37077 v -8.615213 h 3.47149 l 0.27518,-1.756911 h -3.74667 v -1.989754 c 0,-1.185386 0.69853,-1.735744 2.1591,-1.735744 0.82553,0 1.65107,0.148174 2.39194,0.465688 l 0.71969,-1.651073 c -0.93137,-0.402185 -1.96858,-0.656196 -3.34448,-0.656196 z"
           style="font-style:normal;font-variant:normal;font-weight:500;font-stretch:normal;font-size:21.1676px;font-family:'Fira Mono';-inkscape-font-specification:'Fira Mono, Medium';font-variant-ligatures:normal;font-variant-caps:normal;font-variant-numeric:normal;font-variant-east-asian:normal;fill:#c594c5;fill-opacity:1;stroke-width:0.529191"
           id="path1045" />
        <path
           d="m 153.75174,53.733864 h 2.37077 v -8.02252 c 0.5927,-0.846704 1.52407,-1.629905 2.62479,-1.629905 1.35472,0 1.58757,0.740866 1.58757,2.688285 v 6.96414 h 2.37077 v -8.149526 c 0,-2.095592 -1.03722,-3.323313 -3.11164,-3.323313 -1.35473,0 -2.68829,0.61386 -3.61966,1.756911 L 155.805,42.557371 h -2.05326 z"
           style="font-style:normal;font-variant:normal;font-weight:500;font-stretch:normal;font-size:21.1676px;font-family:'Fira Mono';-inkscape-font-specification:'Fira Mono, Medium';font-variant-ligatures:normal;font-variant-caps:normal;font-variant-numeric:normal;font-variant-east-asian:normal;fill:#c594c5;fill-opacity:1;stroke-width:0.529191"
           id="path1047" />
        <path
           d="m 183.21698,52.209797 c -1.31239,0 -2.47661,-0.508022 -3.34448,-1.206553 l -1.24889,1.439397 c 1.03721,0.889039 2.51894,1.566402 4.59337,1.566402 2.56128,0 4.93205,-1.037212 4.93205,-3.471486 0,-2.11676 -1.4394,-2.878794 -3.61966,-3.471487 -2.2226,-0.61386 -2.83646,-0.931374 -2.83646,-1.778078 0,-0.740866 0.59269,-1.227721 2.11676,-1.227721 1.31239,0 2.30727,0.423352 3.17514,0.994877 l 1.01605,-1.502899 c -1.01605,-0.740866 -2.37077,-1.291224 -4.25469,-1.291224 -2.75179,0 -4.46637,1.291224 -4.46637,3.217475 0,1.947419 1.46057,2.730621 3.68317,3.302146 2.30727,0.592693 2.66712,1.016045 2.66712,1.926252 0,0.931374 -0.93138,1.502899 -2.41311,1.502899 z"
           style="font-style:normal;font-variant:normal;font-weight:500;font-stretch:normal;font-size:21.1676px;font-family:'Fira Mono';-inkscape-font-specification:'Fira Mono, Medium';font-variant-ligatures:normal;font-variant-caps:normal;font-variant-numeric:normal;font-variant-east-asian:normal;fill:#6699cc;fill-opacity:1;stroke-width:0.529191"
           id="path1049" />
        <path
           d="m 201.63276,42.557371 h -2.43428 l -2.85762,9.525421 -2.81529,-9.525421 h -2.51895 l 3.76784,11.176493 h 0.80436 c -0.59269,1.608738 -1.31239,2.434275 -3.57732,2.794124 l 0.29635,1.778078 c 3.1328,-0.275179 4.6357,-1.989754 5.4824,-4.529866 z"
           style="font-style:normal;font-variant:normal;font-weight:500;font-stretch:normal;font-size:21.1676px;font-family:'Fira Mono';-inkscape-font-specification:'Fira Mono, Medium';font-variant-ligatures:normal;font-variant-caps:normal;font-variant-numeric:normal;font-variant-east-asian:normal;fill:#6699cc;fill-opacity:1;stroke-width:0.529191"
           id="path1051" />
        <path
           d="m 208.61803,52.209797 c -1.31239,0 -2.47661,-0.508022 -3.34448,-1.206553 l -1.24889,1.439397 c 1.03722,0.889039 2.51895,1.566402 4.59337,1.566402 2.56128,0 4.93205,-1.037212 4.93205,-3.471486 0,-2.11676 -1.43939,-2.878794 -3.61966,-3.471487 -2.22259,-0.61386 -2.83645,-0.931374 -2.83645,-1.778078 0,-0.740866 0.59269,-1.227721 2.11676,-1.227721 1.31239,0 2.30726,0.423352 3.17514,0.994877 l 1.01604,-1.502899 c -1.01604,-0.740866 -2.37077,-1.291224 -4.25469,-1.291224 -2.75179,0 -4.46636,1.291224 -4.46636,3.217475 0,1.947419 1.46056,2.730621 3.68316,3.302146 2.30727,0.592693 2.66712,1.016045 2.66712,1.926252 0,0.931374 -0.93138,1.502899 -2.41311,1.502899 z"
           style="font-style:normal;font-variant:normal;font-weight:500;font-stretch:normal;font-size:21.1676px;font-family:'Fira Mono';-inkscape-font-specification:'Fira Mono, Medium';font-variant-ligatures:normal;font-variant-caps:normal;font-variant-numeric:normal;font-variant-east-asian:normal;fill:#6699cc;fill-opacity:1;stroke-width:0.529191"
           id="path1053" />
        <path
           d="m 226.5893,53.141172 -0.84671,-1.566403 c -0.57152,0.317514 -1.27005,0.52919 -2.07442,0.52919 -1.3759,0 -1.94742,-0.571525 -1.94742,-1.778078 v -6.032766 h 3.51382 l 0.27518,-1.735744 h -3.789 v -2.772955 l -2.37077,0.275178 v 2.497777 h -2.47661 v 1.735744 h 2.47661 v 6.053933 c 0,2.201431 1.37589,3.661995 3.97951,3.661995 1.24888,0 2.43427,-0.338681 3.25981,-0.867871 z"
           style="font-style:normal;font-variant:normal;font-weight:500;font-stretch:normal;font-size:21.1676px;font-family:'Fira Mono';-inkscape-font-specification:'Fira Mono, Medium';font-variant-ligatures:normal;font-variant-caps:normal;font-variant-numeric:normal;font-variant-east-asian:normal;fill:#6699cc;fill-opacity:1;stroke-width:0.529191"
           id="path1055" />
        <path
           d="m 231.92349,48.907652 h 7.40867 c 0.0423,-0.275179 0.0635,-0.677364 0.0635,-1.058381 0,-3.471486 -1.86275,-5.588246 -4.82622,-5.588246 -3.17514,0 -5.10139,2.540112 -5.10139,5.884593 0,3.492654 1.90509,5.863425 5.39774,5.863425 1.5664,0 3.02697,-0.52919 4.06418,-1.375894 l -1.01604,-1.439397 c -0.95255,0.635028 -1.86275,0.97371 -2.9423,0.97371 -1.60874,0 -2.89996,-0.97371 -3.04814,-3.25981 z m 2.66712,-4.889716 c 1.58757,0 2.45544,1.164218 2.49778,3.280978 h -5.18606 c 0.14817,-2.243766 1.20655,-3.280978 2.68828,-3.280978 z"
           style="font-style:normal;font-variant:normal;font-weight:500;font-stretch:normal;font-size:21.1676px;font-family:'Fira Mono';-inkscape-font-specification:'Fira Mono, Medium';font-variant-ligatures:normal;font-variant-caps:normal;font-variant-numeric:normal;font-variant-east-asian:normal;fill:#6699cc;fill-opacity:1;stroke-width:0.529191"
           id="path1057" />
        <path
           d="m 250.36045,42.261025 c -1.07955,0 -1.82042,0.571525 -2.45545,1.418229 -0.31751,-1.05838 -1.05838,-1.418229 -1.90508,-1.418229 -1.07955,0 -1.75691,0.61386 -2.39194,1.5029 l -0.16934,-1.206554 h -1.77808 v 11.176493 h 2.11676 v -8.509375 c 0.55036,-0.804369 1.07955,-1.121883 1.65107,-1.121883 0.6562,0 0.74087,0.486855 0.74087,1.651073 v 7.980185 h 1.92625 v -8.509375 c 0.55036,-0.804369 1.10072,-1.121883 1.65108,-1.121883 0.65619,0 0.74086,0.486855 0.74086,1.651073 v 7.980185 h 2.09559 v -8.297699 c 0,-2.476609 -0.95254,-3.17514 -2.22259,-3.17514 z"
           style="font-style:normal;font-variant:normal;font-weight:500;font-stretch:normal;font-size:21.1676px;font-family:'Fira Mono';-inkscape-font-specification:'Fira Mono, Medium';font-variant-ligatures:normal;font-variant-caps:normal;font-variant-numeric:normal;font-variant-east-asian:normal;fill:#6699cc;fill-opacity:1;stroke-width:0.529191"
           id="path1059" />
        <path
           d="m 258.36177,46.325204 c 0,-4.085347 1.35473,-6.392615 4.31819,-9.250241 l -1.29122,-1.270056 c -3.40799,2.836458 -5.46124,5.757587 -5.46124,10.520297 0,4.76271 2.05325,7.683839 5.46124,10.520298 l 1.29122,-1.270056 c -3.02697,-2.921129 -4.31819,-5.186062 -4.31819,-9.250242 z"
           style="font-style:normal;font-variant:normal;font-weight:500;font-stretch:normal;font-size:21.1676px;font-family:'Fira Mono';-inkscape-font-specification:'Fira Mono, Medium';font-variant-ligatures:normal;font-variant-caps:normal;font-variant-numeric:normal;font-variant-east-asian:normal;fill:#5fb3b3;fill-opacity:1;stroke-width:0.529191"
           id="path1061" />
        <path
           d="m 271.82433,42.261025 c -2.81529,0 -4.36053,2.476609 -4.36053,5.884593 0,3.556157 1.16422,5.863425 4.10652,5.863425 1.27005,0 2.2861,-0.508022 3.04813,-1.502899 v 5.524743 l 2.37077,0.275179 V 42.557371 h -2.05326 l -0.14817,1.100716 c -0.7197,-0.910207 -1.71458,-1.397062 -2.96346,-1.397062 z m 0.59269,1.820414 c 0.93137,0 1.67224,0.465687 2.20143,1.248888 v 5.270733 c -0.55036,0.889039 -1.35473,1.566402 -2.41311,1.566402 -1.46056,0 -2.24376,-1.164218 -2.24376,-4.021844 0,-2.794123 0.8467,-4.064179 2.45544,-4.064179 z"
           style="font-style:normal;font-variant:normal;font-weight:500;font-stretch:normal;font-size:21.1676px;font-family:'Fira Mono';-inkscape-font-specification:'Fira Mono, Medium';font-variant-ligatures:normal;font-variant-caps:normal;font-variant-numeric:normal;font-variant-east-asian:normal;fill:#cccece;fill-opacity:1;stroke-width:0.529191"
           id="path1063" />
        <path
           d="m 283.3183,44.589461 c 0,1.037212 0.82554,1.905084 1.88392,1.905084 1.10072,0 1.90508,-0.867872 1.90508,-1.905084 0,-1.037212 -0.80436,-1.905084 -1.90508,-1.905084 -1.05838,0 -1.88392,0.867872 -1.88392,1.905084 z m 0,7.514498 c 0,1.05838 0.82554,1.905084 1.88392,1.905084 1.10072,0 1.90508,-0.846704 1.90508,-1.905084 0,-1.037212 -0.80436,-1.883916 -1.90508,-1.883916 -1.05838,0 -1.88392,0.846704 -1.88392,1.883916 z"
           style="font-style:normal;font-variant:normal;font-weight:500;font-stretch:normal;font-size:21.1676px;font-family:'Fira Mono';-inkscape-font-specification:'Fira Mono, Medium';font-variant-ligatures:normal;font-variant-caps:normal;font-variant-numeric:normal;font-variant-east-asian:normal;fill:#5fb3b3;fill-opacity:1;stroke-width:0.529191"
           id="path1065" />
        <path
           d="m 316.17036,46.431042 c 0,-4.593369 -1.86275,-7.599168 -5.52474,-7.599168 -3.662,0 -5.52475,3.111637 -5.52475,7.620336 0,4.593369 1.82042,7.514498 5.2919,7.514498 2.54012,0 3.55616,1.206553 4.46637,3.429151 l 2.26493,-0.846704 c -0.74086,-2.222598 -1.88392,-3.090469 -4.02184,-3.492654 2.26493,-1.206553 3.04813,-3.619659 3.04813,-6.625459 z m -2.56128,0 c 0,3.767833 -0.80437,5.672917 -2.96346,5.672917 -2.09559,0 -2.96347,-1.883916 -2.96347,-5.651749 0,-3.767833 0.80437,-5.694085 2.96347,-5.694085 2.15909,0 2.96346,1.905084 2.96346,5.672917 z"
           style="font-style:normal;font-variant:normal;font-weight:500;font-stretch:normal;font-size:21.1676px;font-family:'Fira Mono';-inkscape-font-specification:'Fira Mono, Medium';font-variant-ligatures:normal;font-variant-caps:normal;font-variant-numeric:normal;font-variant-east-asian:normal;fill:#cccece;fill-opacity:1;stroke-width:0.529191"
           id="path1067" />
        <path
           d="m 321.22937,42.557371 h -2.37077 v 8.107191 c 0,2.095593 1.03721,3.344481 3.21748,3.344481 1.31239,0 2.68828,-0.592693 3.51382,-1.714575 l 0.14817,1.439396 h 2.05326 V 42.557371 h -2.37077 v 8.086024 c -0.55036,0.867871 -1.5664,1.566402 -2.60362,1.566402 -1.05838,0 -1.58757,-0.52919 -1.58757,-1.841581 z"
           style="font-style:normal;font-variant:normal;font-weight:500;font-stretch:normal;font-size:21.1676px;font-family:'Fira Mono';-inkscape-font-specification:'Fira Mono, Medium';font-variant-ligatures:normal;font-variant-caps:normal;font-variant-numeric:normal;font-variant-east-asian:normal;fill:#cccece;fill-opacity:1;stroke-width:0.529191"
           id="path1069" />
        <path
           d="m 333.52772,48.907652 h 7.40866 c 0.0423,-0.275179 0.0635,-0.677364 0.0635,-1.058381 0,-3.471486 -1.86275,-5.588246 -4.82621,-5.588246 -3.17514,0 -5.10139,2.540112 -5.10139,5.884593 0,3.492654 1.90508,5.863425 5.39774,5.863425 1.5664,0 3.02696,-0.52919 4.06418,-1.375894 l -1.01605,-1.439397 c -0.95254,0.635028 -1.86275,0.97371 -2.9423,0.97371 -1.60873,0 -2.89996,-0.97371 -3.04813,-3.25981 z m 2.66712,-4.889716 c 1.58757,0 2.45544,1.164218 2.49777,3.280978 h -5.18606 c 0.14818,-2.243766 1.20656,-3.280978 2.68829,-3.280978 z"
           style="font-style:normal;font-variant:normal;font-weight:500;font-stretch:normal;font-size:21.1676px;font-family:'Fira Mono';-inkscape-font-specification:'Fira Mono, Medium';font-variant-ligatures:normal;font-variant-caps:normal;font-variant-numeric:normal;font-variant-east-asian:normal;fill:#cccece;fill-opacity:1;stroke-width:0.529191"
           id="path1071" />
        <path
           d="m 352.17635,42.282193 c -1.92625,0 -3.09047,0.994877 -3.93718,2.857626 l -0.42335,-2.582448 h -3.45032 v 1.693408 h 1.65107 v 7.789677 h -1.65107 v 1.693408 h 6.26561 v -1.693408 h -2.24376 v -4.148849 c 0.65619,-2.180263 1.79924,-3.450319 3.38681,-3.492654 v 2.2861 h 1.69341 l 0.40218,-4.127682 c -0.50802,-0.16934 -1.01604,-0.275178 -1.6934,-0.275178 z"
           style="font-style:normal;font-variant:normal;font-weight:500;font-stretch:normal;font-size:21.1676px;font-family:'Fira Mono';-inkscape-font-specification:'Fira Mono, Medium';font-variant-ligatures:normal;font-variant-caps:normal;font-variant-numeric:normal;font-variant-east-asian:normal;fill:#cccece;fill-opacity:1;stroke-width:0.529191"
           id="path1073" />
        <path
           d="m 366.73963,42.557371 h -2.43428 l -2.85762,9.525421 -2.81529,-9.525421 h -2.51895 l 3.76783,11.176493 h 0.80437 c -0.59269,1.608738 -1.31239,2.434275 -3.57732,2.794124 l 0.29634,1.778078 c 3.13281,-0.275179 4.63571,-1.989754 5.48241,-4.529866 z"
           style="font-style:normal;font-variant:normal;font-weight:500;font-stretch:normal;font-size:21.1676px;font-family:'Fira Mono';-inkscape-font-specification:'Fira Mono, Medium';font-variant-ligatures:normal;font-variant-caps:normal;font-variant-numeric:normal;font-variant-east-asian:normal;fill:#cccece;fill-opacity:1;stroke-width:0.529191"
           id="path1075" />
        <path
           d="m 377.68325,41.012136 -8.19186,5.059057 v 2.053257 l 8.12835,5.059057 1.16422,-1.714576 -7.26048,-4.360526 7.26048,-4.381693 z"
           style="font-style:normal;font-variant:normal;font-weight:500;font-stretch:normal;font-size:21.1676px;font-family:'Fira Mono';-inkscape-font-specification:'Fira Mono, Medium';font-variant-ligatures:normal;font-variant-caps:normal;font-variant-numeric:normal;font-variant-east-asian:normal;fill:#5fb3b3;fill-opacity:1;stroke-width:0.529191"
           id="path1077" />
        <path
           d="m 385.36704,46.325204 c 0,-4.085347 1.35473,-6.392615 4.31819,-9.250241 l -1.29122,-1.270056 c -3.40799,2.836458 -5.46124,5.757587 -5.46124,10.520297 0,4.76271 2.05325,7.683839 5.46124,10.520298 l 1.29122,-1.270056 c -3.02697,-2.921129 -4.31819,-5.186062 -4.31819,-9.250242 z"
           style="font-style:normal;font-variant:normal;font-weight:500;font-stretch:normal;font-size:21.1676px;font-family:'Fira Mono';-inkscape-font-specification:'Fira Mono, Medium';font-variant-ligatures:normal;font-variant-caps:normal;font-variant-numeric:normal;font-variant-east-asian:normal;fill:#5fb3b3;fill-opacity:1;stroke-width:0.529191"
           id="path1079" />
        <path
           d="m 169.41573,67.861143 h 6.05394 l 0.27518,-1.862749 h -8.78456 v 14.605645 h 8.91156 V 78.74129 h -6.45612 v -4.635705 h 5.2919 v -1.841581 h -5.2919 z"
           style="font-style:normal;font-variant:normal;font-weight:500;font-stretch:normal;font-size:21.1676px;font-family:'Fira Mono';-inkscape-font-specification:'Fira Mono, Medium';font-variant-ligatures:normal;font-variant-caps:normal;font-variant-numeric:normal;font-variant-east-asian:normal;fill:#cccece;fill-opacity:1;stroke-width:0.529191"
           id="path1081" />
        <path
           d="m 179.1528,80.604039 h 2.37077 v -8.022521 c 0.59269,-0.846704 1.52407,-1.629905 2.62478,-1.629905 1.35473,0 1.58757,0.740866 1.58757,2.688285 v 6.964141 h 2.37077 v -8.149526 c 0,-2.095593 -1.03721,-3.323314 -3.11163,-3.323314 -1.35473,0 -2.68829,0.613861 -3.61966,1.756911 l -0.16934,-1.460564 h -2.05326 z"
           style="font-style:normal;font-variant:normal;font-weight:500;font-stretch:normal;font-size:21.1676px;font-family:'Fira Mono';-inkscape-font-specification:'Fira Mono, Medium';font-variant-ligatures:normal;font-variant-caps:normal;font-variant-numeric:normal;font-variant-east-asian:normal;fill:#cccece;fill-opacity:1;stroke-width:0.529191"
           id="path1083" />
        <path
           d="m 201.18824,80.011346 -0.84671,-1.566403 c -0.57152,0.317515 -1.27005,0.529191 -2.07442,0.529191 -1.37589,0 -1.94742,-0.571526 -1.94742,-1.778079 v -6.032766 h 3.51382 l 0.27518,-1.735743 h -3.789 V 66.65459 l -2.37077,0.275179 v 2.497777 h -2.47661 v 1.735743 h 2.47661 v 6.053934 c 0,2.20143 1.37589,3.661995 3.97951,3.661995 1.24889,0 2.43427,-0.338682 3.25981,-0.867872 z"
           style="font-style:normal;font-variant:normal;font-weight:500;font-stretch:normal;font-size:21.1676px;font-family:'Fira Mono';-inkscape-font-specification:'Fira Mono, Medium';font-variant-ligatures:normal;font-variant-caps:normal;font-variant-numeric:normal;font-variant-east-asian:normal;fill:#cccece;fill-opacity:1;stroke-width:0.529191"
           id="path1085" />
        <path
           d="m 209.02022,63.945137 c -0.93138,0 -1.54524,0.656196 -1.54524,1.5029 0,0.846704 0.61386,1.481732 1.54524,1.481732 0.9102,0 1.54523,-0.635028 1.54523,-1.481732 0,-0.846704 -0.63503,-1.5029 -1.54523,-1.5029 z m 1.6299,5.482409 h -5.58824 v 1.735743 h 3.21747 v 7.705007 h -3.32331 v 1.735743 h 8.74222 v -1.735743 h -3.04814 z"
           style="font-style:normal;font-variant:normal;font-weight:500;font-stretch:normal;font-size:21.1676px;font-family:'Fira Mono';-inkscape-font-specification:'Fira Mono, Medium';font-variant-ligatures:normal;font-variant-caps:normal;font-variant-numeric:normal;font-variant-east-asian:normal;fill:#cccece;fill-opacity:1;stroke-width:0.529191"
           id="path1087" />
        <path
           d="m 226.5893,80.011346 -0.84671,-1.566403 c -0.57152,0.317515 -1.27005,0.529191 -2.07442,0.529191 -1.3759,0 -1.94742,-0.571526 -1.94742,-1.778079 v -6.032766 h 3.51382 l 0.27518,-1.735743 h -3.789 V 66.65459 l -2.37077,0.275179 v 2.497777 h -2.47661 v 1.735743 h 2.47661 v 6.053934 c 0,2.20143 1.37589,3.661995 3.97951,3.661995 1.24888,0 2.43427,-0.338682 3.25981,-0.867872 z"
           style="font-style:normal;font-variant:normal;font-weight:500;font-stretch:normal;font-size:21.1676px;font-family:'Fira Mono';-inkscape-font-specification:'Fira Mono, Medium';font-variant-ligatures:normal;font-variant-caps:normal;font-variant-numeric:normal;font-variant-east-asian:normal;fill:#cccece;fill-opacity:1;stroke-width:0.529191"
           id="path1089" />
        <path
           d="m 239.73434,69.427546 h -2.43427 l -2.85763,9.52542 -2.81529,-9.52542 h -2.51895 l 3.76784,11.176493 h 0.80437 c -0.5927,1.608737 -1.3124,2.434274 -3.57733,2.794123 l 0.29635,1.778078 c 3.1328,-0.275178 4.6357,-1.989754 5.48241,-4.529866 z"
           style="font-style:normal;font-variant:normal;font-weight:500;font-stretch:normal;font-size:21.1676px;font-family:'Fira Mono';-inkscape-font-specification:'Fira Mono, Medium';font-variant-ligatures:normal;font-variant-caps:normal;font-variant-numeric:normal;font-variant-east-asian:normal;fill:#cccece;fill-opacity:1;stroke-width:0.529191"
           id="path1091" />
        <path
           d="m 247.1218,76.793871 c -1.07954,0 -1.92625,0.846704 -1.92625,1.905084 0,0.656195 0.31752,1.248888 0.80437,1.58757 l -1.01604,4.297023 h 1.84158 l 1.6299,-3.746666 c 0.42335,-0.931374 0.61386,-1.481732 0.61386,-2.137927 0,-1.05838 -0.8467,-1.905084 -1.94742,-1.905084 z"
           style="font-style:normal;font-variant:normal;font-weight:500;font-stretch:normal;font-size:21.1676px;font-family:'Fira Mono';-inkscape-font-specification:'Fira Mono, Medium';font-variant-ligatures:normal;font-variant-caps:normal;font-variant-numeric:normal;font-variant-east-asian:normal;fill:#5fb3b3;fill-opacity:1;stroke-width:0.529191"
           id="path1093" />
        <path
           d="m 272.07834,65.723216 c -2.49778,0 -4.14885,1.58757 -4.14885,3.513821 0,1.439397 0.7197,2.64595 2.51894,3.09047 v 0.0635 c -2.07442,0.465687 -3.25981,1.820413 -3.25981,4.064179 0,2.328436 1.5664,4.424029 4.86855,4.424029 2.47661,0 3.8525,-1.05838 4.59337,-1.905084 v -5.672917 h 1.69341 v -1.693409 h -5.73642 c -1.3759,0 -2.37077,-0.994877 -2.37077,-2.222598 0,-1.164218 0.65619,-1.968586 1.96858,-1.968586 0.97371,0 1.58757,0.359849 2.2861,1.121882 L 275.825,67.33195 c -1.14305,-1.248888 -2.30727,-1.608737 -3.74666,-1.608737 z m 2.39194,7.578001 v 4.868548 c -0.48686,0.571525 -1.31239,0.910207 -2.30727,0.910207 -1.84158,0 -2.66712,-1.270057 -2.66712,-2.751789 0,-1.439396 0.86787,-3.026966 2.85763,-3.026966 z"
           style="font-style:normal;font-variant:normal;font-weight:500;font-stretch:normal;font-size:21.1676px;font-family:'Fira Mono';-inkscape-font-specification:'Fira Mono, Medium';font-variant-ligatures:normal;font-variant-caps:normal;font-variant-numeric:normal;font-variant-east-asian:normal;fill:#5fb3b3;fill-opacity:1;stroke-width:0.529191"
           id="path1095" />
        <path
           d="m 286.45111,65.702048 c -3.55616,0 -6.47729,2.667118 -6.47729,7.578001 0,4.953218 2.79413,7.599169 6.51962,7.599169 2.13793,0 3.5985,-0.783202 4.57221,-1.735744 l -1.18539,-1.502899 c -0.80437,0.635028 -1.73574,1.248888 -3.30215,1.248888 -2.30726,0 -4.04301,-1.566402 -4.04301,-5.609414 0,-4.127682 1.84158,-5.651749 4.02185,-5.651749 1.14305,0 2.13792,0.359849 3.02696,1.079547 l 1.27006,-1.524067 c -1.18539,-0.952542 -2.41311,-1.481732 -4.40286,-1.481732 z"
           style="font-style:normal;font-variant:normal;font-weight:500;font-stretch:normal;font-size:21.1676px;font-family:'Fira Mono';-inkscape-font-specification:'Fira Mono, Medium';font-variant-ligatures:normal;font-variant-caps:normal;font-variant-numeric:normal;font-variant-east-asian:normal;fill:#cccece;fill-opacity:1;stroke-width:0.529191"
           id="path1097" />
        <path
           d="m 297.94509,69.131199 c -3.25981,0 -5.08023,2.391939 -5.08023,5.884593 0,3.61966 1.79925,5.863426 5.05906,5.863426 3.23864,0 5.05906,-2.328437 5.05906,-5.884593 0,-3.556157 -1.77808,-5.863426 -5.03789,-5.863426 z m 0,1.841581 c 1.6934,0 2.54011,1.270057 2.54011,4.021845 0,2.794123 -0.84671,4.064179 -2.56128,4.064179 -1.71458,0 -2.56128,-1.270056 -2.56128,-4.043012 0,-2.772955 0.86787,-4.043012 2.58245,-4.043012 z"
           style="font-style:normal;font-variant:normal;font-weight:500;font-stretch:normal;font-size:21.1676px;font-family:'Fira Mono';-inkscape-font-specification:'Fira Mono, Medium';font-variant-ligatures:normal;font-variant-caps:normal;font-variant-numeric:normal;font-variant-east-asian:normal;fill:#cccece;fill-opacity:1;stroke-width:0.529191"
           id="path1099" />
        <path
           d="m 313.86309,69.131199 c -1.07954,0 -1.82041,0.571525 -2.45544,1.418229 -0.31751,-1.05838 -1.05838,-1.418229 -1.90508,-1.418229 -1.07955,0 -1.75691,0.613861 -2.39194,1.5029 l -0.16934,-1.206553 h -1.77808 v 11.176493 h 2.11676 v -8.509376 c 0.55036,-0.804369 1.07955,-1.121883 1.65107,-1.121883 0.6562,0 0.74087,0.486855 0.74087,1.651073 v 7.980186 h 1.92625 v -8.509376 c 0.55036,-0.804369 1.10071,-1.121883 1.65107,-1.121883 0.6562,0 0.74087,0.486855 0.74087,1.651073 v 7.980186 h 2.09559 v -8.2977 c 0,-2.476609 -0.95254,-3.17514 -2.2226,-3.17514 z"
           style="font-style:normal;font-variant:normal;font-weight:500;font-stretch:normal;font-size:21.1676px;font-family:'Fira Mono';-inkscape-font-specification:'Fira Mono, Medium';font-variant-ligatures:normal;font-variant-caps:normal;font-variant-numeric:normal;font-variant-east-asian:normal;fill:#cccece;fill-opacity:1;stroke-width:0.529191"
           id="path1101" />
        <path
           d="m 324.31984,69.131199 c -1.24889,0 -2.4131,0.592693 -3.25981,1.735743 l -0.14817,-1.439396 H 318.8586 V 85.17624 l 2.37077,-0.275178 v -5.249565 c 0.7197,0.825536 1.67224,1.227721 2.83646,1.227721 2.83646,0 4.31819,-2.47661 4.31819,-5.884593 0,-3.556157 -1.12188,-5.863426 -4.06418,-5.863426 z m -0.65619,1.820414 c 1.48173,0 2.2226,1.185386 2.2226,4.064179 0,2.794123 -0.84671,4.021844 -2.45545,4.021844 -0.9102,0 -1.67224,-0.444519 -2.20143,-1.248888 v -5.228397 c 0.55036,-0.867872 1.3759,-1.608738 2.43428,-1.608738 z"
           style="font-style:normal;font-variant:normal;font-weight:500;font-stretch:normal;font-size:21.1676px;font-family:'Fira Mono';-inkscape-font-specification:'Fira Mono, Medium';font-variant-ligatures:normal;font-variant-caps:normal;font-variant-numeric:normal;font-variant-east-asian:normal;fill:#cccece;fill-opacity:1;stroke-width:0.529191"
           id="path1103" />
        <path
           d="m 336.04666,69.131199 c -3.25981,0 -5.08022,2.391939 -5.08022,5.884593 0,3.61966 1.79925,5.863426 5.05906,5.863426 3.23864,0 5.05905,-2.328437 5.05905,-5.884593 0,-3.556157 -1.77808,-5.863426 -5.03789,-5.863426 z m 0,1.841581 c 1.69341,0 2.54012,1.270057 2.54012,4.021845 0,2.794123 -0.84671,4.064179 -2.56128,4.064179 -1.71458,0 -2.56128,-1.270056 -2.56128,-4.043012 0,-2.772955 0.86787,-4.043012 2.58244,-4.043012 z"
           style="font-style:normal;font-variant:normal;font-weight:500;font-stretch:normal;font-size:21.1676px;font-family:'Fira Mono';-inkscape-font-specification:'Fira Mono, Medium';font-variant-ligatures:normal;font-variant-caps:normal;font-variant-numeric:normal;font-variant-east-asian:normal;fill:#cccece;fill-opacity:1;stroke-width:0.529191"
           id="path1105" />
        <path
           d="m 344.25966,80.604039 h 2.37078 v -8.022521 c 0.59269,-0.846704 1.52406,-1.629905 2.62478,-1.629905 1.35472,0 1.58757,0.740866 1.58757,2.688285 v 6.964141 h 2.37077 v -8.149526 c 0,-2.095593 -1.03721,-3.323314 -3.11164,-3.323314 -1.35472,0 -2.68828,0.613861 -3.61966,1.756911 l -0.16934,-1.460564 h -2.05326 z"
           style="font-style:normal;font-variant:normal;font-weight:500;font-stretch:normal;font-size:21.1676px;font-family:'Fira Mono';-inkscape-font-specification:'Fira Mono, Medium';font-variant-ligatures:normal;font-variant-caps:normal;font-variant-numeric:normal;font-variant-east-asian:normal;fill:#cccece;fill-opacity:1;stroke-width:0.529191"
           id="path1107" />
        <path
           d="m 358.92878,75.777826 h 7.40866 c 0.0423,-0.275179 0.0635,-0.677363 0.0635,-1.05838 0,-3.471487 -1.86275,-5.588247 -4.82622,-5.588247 -3.17514,0 -5.10139,2.540112 -5.10139,5.884593 0,3.492654 1.90508,5.863426 5.39774,5.863426 1.5664,0 3.02697,-0.52919 4.06418,-1.375894 l -1.01605,-1.439397 c -0.95254,0.635028 -1.86275,0.973709 -2.94229,0.973709 -1.60874,0 -2.89996,-0.973709 -3.04814,-3.25981 z m 2.66712,-4.889716 c 1.58757,0 2.45544,1.164218 2.49778,3.280978 h -5.18607 c 0.14818,-2.243766 1.20656,-3.280978 2.68829,-3.280978 z"
           style="font-style:normal;font-variant:normal;font-weight:500;font-stretch:normal;font-size:21.1676px;font-family:'Fira Mono';-inkscape-font-specification:'Fira Mono, Medium';font-variant-ligatures:normal;font-variant-caps:normal;font-variant-numeric:normal;font-variant-east-asian:normal;fill:#cccece;fill-opacity:1;stroke-width:0.529191"
           id="path1109" />
        <path
           d="m 369.66073,80.604039 h 2.37077 v -8.022521 c 0.59269,-0.846704 1.52406,-1.629905 2.62478,-1.629905 1.35473,0 1.58757,0.740866 1.58757,2.688285 v 6.964141 h 2.37077 v -8.149526 c 0,-2.095593 -1.03721,-3.323314 -3.11164,-3.323314 -1.35472,0 -2.68828,0.613861 -3.61966,1.756911 l -0.16934,-1.460564 h -2.05325 z"
           style="font-style:normal;font-variant:normal;font-weight:500;font-stretch:normal;font-size:21.1676px;font-family:'Fira Mono';-inkscape-font-specification:'Fira Mono, Medium';font-variant-ligatures:normal;font-variant-caps:normal;font-variant-numeric:normal;font-variant-east-asian:normal;fill:#cccece;fill-opacity:1;stroke-width:0.529191"
           id="path1111" />
        <path
           d="m 391.69615,80.011346 -0.8467,-1.566403 c -0.57153,0.317515 -1.27006,0.529191 -2.07443,0.529191 -1.37589,0 -1.94741,-0.571526 -1.94741,-1.778079 v -6.032766 h 3.51382 l 0.27518,-1.735743 h -3.789 V 66.65459 l -2.37078,0.275179 v 2.497777 h -2.4766 v 1.735743 h 2.4766 v 6.053934 c 0,2.20143 1.3759,3.661995 3.97951,3.661995 1.24889,0 2.43428,-0.338682 3.25981,-0.867872 z"
           style="font-style:normal;font-variant:normal;font-weight:500;font-stretch:normal;font-size:21.1676px;font-family:'Fira Mono';-inkscape-font-specification:'Fira Mono, Medium';font-variant-ligatures:normal;font-variant-caps:normal;font-variant-numeric:normal;font-variant-east-asian:normal;fill:#cccece;fill-opacity:1;stroke-width:0.529191"
           id="path1113" />
        <path
           d="m 146.97814,100.06555 c 0,4.06418 -1.29122,6.32912 -4.31819,9.25024 l 1.29123,1.27006 c 3.40798,-2.83646 5.46124,-5.75759 5.46124,-10.5203 0,-4.762707 -2.05326,-7.683836 -5.46124,-10.520295 l -1.29123,1.270056 c 2.96347,2.857626 4.31819,5.164895 4.31819,9.250239 z"
           style="font-style:normal;font-variant:normal;font-weight:500;font-stretch:normal;font-size:21.1676px;font-family:'Fira Mono';-inkscape-font-specification:'Fira Mono, Medium';font-variant-ligatures:normal;font-variant-caps:normal;font-variant-numeric:normal;font-variant-east-asian:normal;fill:#5fb3b3;fill-opacity:1;stroke-width:0.529191"
           id="path1115" />
        <path
           d="m 154.68312,94.752485 -1.10072,1.756911 7.23932,4.339354 -7.23932,4.3817 1.16422,1.69341 8.12836,-5.05906 v -2.053258 z"
           style="font-style:normal;font-variant:normal;font-weight:500;font-stretch:normal;font-size:21.1676px;font-family:'Fira Mono';-inkscape-font-specification:'Fira Mono, Medium';font-variant-ligatures:normal;font-variant-caps:normal;font-variant-numeric:normal;font-variant-east-asian:normal;fill:#5fb3b3;fill-opacity:1;stroke-width:0.529191"
           id="path1117" />
        <path
           d="m 172.3792,100.06555 c 0,4.06418 -1.29123,6.32912 -4.31819,9.25024 l 1.29122,1.27006 c 3.40799,-2.83646 5.46124,-5.75759 5.46124,-10.5203 0,-4.762707 -2.05325,-7.683836 -5.46124,-10.520295 l -1.29122,1.270056 c 2.96346,2.857626 4.31819,5.164895 4.31819,9.250239 z"
           style="font-style:normal;font-variant:normal;font-weight:500;font-stretch:normal;font-size:21.1676px;font-family:'Fira Mono';-inkscape-font-specification:'Fira Mono, Medium';font-variant-ligatures:normal;font-variant-caps:normal;font-variant-numeric:normal;font-variant-east-asian:normal;fill:#5fb3b3;fill-opacity:1;stroke-width:0.529191"
           id="path1119" />
        <path
           d="m 199.643,89.756931 c -2.94229,0 -4.86854,0.825537 -4.59337,3.53499 l 0.40219,3.661995 c 0.14817,1.502899 -0.6562,2.159095 -3.09047,2.159095 v 1.905079 c 2.45544,0 3.23864,0.67737 3.09047,2.18027 l -0.40219,3.66199 c -0.27517,2.68829 1.65108,3.51382 4.59337,3.51382 v -1.75691 c -1.43939,0 -2.51894,-0.31751 -2.39194,-1.54523 l 0.38102,-3.89484 c 0.21168,-2.05326 -0.67736,-2.81529 -2.45544,-3.11164 1.71458,-0.296344 2.66712,-1.12188 2.45544,-3.111634 l -0.38102,-3.894839 c -0.127,-1.206553 0.93138,-1.545235 2.39194,-1.545235 z"
           style="font-style:normal;font-variant:normal;font-weight:500;font-stretch:normal;font-size:21.1676px;font-family:'Fira Mono';-inkscape-font-specification:'Fira Mono, Medium';font-variant-ligatures:normal;font-variant-caps:normal;font-variant-numeric:normal;font-variant-east-asian:normal;fill:#5fb3b3;fill-opacity:1;stroke-width:0.529191"
           id="path1121" />
        <path
           d="m 205.6969,89.756931 v 1.756911 c 1.4394,0 2.51895,0.338682 2.39194,1.545235 l -0.38101,3.894839 c -0.21168,2.010922 0.71969,2.81529 2.60361,3.132804 -1.88392,0.27518 -2.81529,1.03721 -2.60361,3.09047 l 0.38101,3.89484 c 0.12701,1.22772 -0.93137,1.54523 -2.39194,1.54523 v 1.75691 c 2.9423,0 4.86855,-0.82553 4.59337,-3.53498 l -0.40218,-3.64083 c -0.14817,-1.5029 0.80437,-2.18027 3.09047,-2.18027 v -1.905079 c -2.2861,0 -3.23864,-0.656196 -3.09047,-2.159095 l 0.40218,-3.683163 c 0.27518,-2.688285 -1.65107,-3.513822 -4.59337,-3.513822 z"
           style="font-style:normal;font-variant:normal;font-weight:500;font-stretch:normal;font-size:21.1676px;font-family:'Fira Mono';-inkscape-font-specification:'Fira Mono, Medium';font-variant-ligatures:normal;font-variant-caps:normal;font-variant-numeric:normal;font-variant-east-asian:normal;fill:#5fb3b3;fill-opacity:1;stroke-width:0.529191"
           id="path1123" />
      </g>
    </g>
  </g>
</svg>
