<?xml version="1.0" encoding="UTF-8" standalone="no"?>
<svg
   id="a"
   data-name="Layer 1"
   viewBox="0 0 465 83.999999"
   version="1.1"
   width="465"
   height="84"
   xmlns:xlink="http://www.w3.org/1999/xlink"
   xmlns="http://www.w3.org/2000/svg"
   xmlns:svg="http://www.w3.org/2000/svg">
  <defs
     id="defs4">
    <style
       id="style1">&#10;      .h {&#10;        fill: url(#g);&#10;      }&#10;&#10;      .i {&#10;        fill: url(#f);&#10;      }&#10;&#10;      .j {&#10;        fill: url(#d);&#10;      }&#10;&#10;      .k {&#10;        fill: url(#e);&#10;      }&#10;&#10;      .l {&#10;        fill: url(#c);&#10;      }&#10;&#10;      .m {&#10;        fill: url(#b);&#10;      }&#10;&#10;      .n {&#10;        fill: #fff;&#10;      }&#10;    </style>
    <linearGradient
       id="b"
       x1="33.060001"
       y1="94.25"
       x2="52.82"
       y2="60.029999"
       gradientUnits="userSpaceOnUse">
      <stop
         offset="0"
         stop-color="blue"
         id="stop1" />
      <stop
         offset="1"
         stop-color="#a0f"
         id="stop2" />
    </linearGradient>
    <linearGradient
       id="c"
       x1="115.87"
       y1="68.800003"
       x2="144.13"
       y2="19.860001"
       gradientUnits="userSpaceOnUse">
      <stop
         offset="0"
         stop-color="red"
         id="stop3" />
      <stop
         offset="1"
         stop-color="#fa0"
         id="stop4" />
    </linearGradient>
    <linearGradient
       id="d"
       x1="46.439999"
       y1="67.980003"
       x2="74.699997"
       y2="19.030001"
       xlink:href="#b" />
    <linearGradient
       id="e"
       x1="81.870003"
       y1="102.8"
       x2="110.13"
       y2="53.860001"
       xlink:href="#c" />
    <linearGradient
       id="f"
       x1="165.19"
       y1="92.010002"
       x2="199.67"
       y2="32.290001"
       xlink:href="#b" />
    <linearGradient
       id="g"
       x1="139.17999"
       y1="96.629997"
       x2="158.94"
       y2="62.41"
       xlink:href="#b" />
    <linearGradient
       xlink:href="#b"
       id="linearGradient30"
       gradientUnits="userSpaceOnUse"
       x1="33.060001"
       y1="94.25"
       x2="52.82"
       y2="60.029999" />
    <linearGradient
       xlink:href="#c"
       id="linearGradient31"
       gradientUnits="userSpaceOnUse"
       x1="115.87"
       y1="68.800003"
       x2="144.13"
       y2="19.860001" />
  </defs>
  <g
     id="g9"
     transform="translate(-20,-19.32)">
    <path
       class="m"
       d="m 32,63.33 h 26 c 1.1,0 2,0.9 2,2 v 13 c 0,8.28 -6.72,15 -15,15 H 32 c -1.1,0 -2,-0.9 -2,-2 v -26 c 0,-1.1 0.9,-2 2,-2 z"
       id="path4"
       style="fill:url(#linearGradient30)" />
    <path
       class="l"
       d="m 113,29.33 h 47 c 1.1,0 2,0.9 2,2 v 13 c 0,8.28 -6.72,15 -15,15 h -47 c -1.1,0 -2,-0.9 -2,-2 v -13 c 0,-8.28 6.72,-15 15,-15 z"
       id="path5"
       style="fill:url(#linearGradient31)" />
    <path
       class="j"
       d="m 36,29.33 h 56 c 1.1,0 2,0.9 2,2 v 13 c 0,8.28 -6.72,15 -15,15 H 32 c -1.1,0 -2,-0.9 -2,-2 v -22 c 0,-3.31 2.69,-6 6,-6 z"
       id="path6"
       style="fill:url(#d)" />
    <path
       class="k"
       d="m 79,63.33 h 47 c 1.1,0 2,0.9 2,2 v 13 c 0,8.28 -6.72,15 -15,15 H 66 c -1.1,0 -2,-0.9 -2,-2 v -13 c 0,-8.28 6.72,-15 15,-15 z"
       id="path7"
       style="fill:url(#e)" />
    <path
       class="i"
       d="m 181,29.33 h 13 c 1.1,0 2,0.9 2,2 v 56 c 0,3.31 -2.69,6 -6,6 h -22 c -1.1,0 -2,-0.9 -2,-2 v -47 c 0,-8.28 6.72,-15 15,-15 z"
       id="path8"
       style="fill:url(#f)" />
    <path
       class="h"
       d="m 147,63.33 h 13 c 1.1,0 2,0.9 2,2 v 26 c 0,1.1 -0.9,2 -2,2 h -26 c -1.1,0 -2,-0.9 -2,-2 v -13 c 0,-8.28 6.72,-15 15,-15 z"
       id="path9"
       style="fill:url(#g)" />
  </g>
  <g
     id="g30"
     transform="translate(-20,-19.32)">
    <g
       id="g18">
      <path
         class="n"
         d="m 229.83,30 h 18.41 v 5.2 h -12.45 v 9.02 h 11.53 v 5.12 h -11.53 v 12.12 h -5.96 V 30.01 Z"
         id="path10" />
      <path
         class="n"
         d="m 252.85,45.73 c 0,-9.56 6.67,-16.4 16.02,-16.4 9.35,0 16.02,6.84 16.02,16.4 0,9.56 -6.67,16.4 -16.02,16.4 -9.35,0 -16.02,-6.84 -16.02,-16.4 z m 25.96,-0.04 c 0,-6.5 -3.94,-11.03 -9.94,-11.03 -6,0 -9.94,4.53 -9.94,11.03 0,6.5 3.94,11.07 9.94,11.07 6,0 9.94,-4.49 9.94,-11.07 z"
         id="path11" />
      <path
         class="n"
         d="m 300.82,49.29 h -3.1 v 12.16 h -5.96 V 30 h 11.99 c 6.12,0 10.57,4.24 10.57,9.69 0,4.44 -2.89,7.97 -7.21,9.14 l 7.72,12.62 h -6.75 z m 7.51,-9.52 c 0,-2.56 -1.97,-4.57 -5.16,-4.57 h -5.45 v 9.18 h 5.45 c 3.19,0 5.16,-2.14 5.16,-4.61 z"
         id="path12" />
      <path
         class="n"
         d="m 321.41,30 h 18.37 v 5.2 h -12.41 v 7.84 h 11.57 v 5.07 h -11.57 v 8.09 h 12.62 v 5.24 H 321.41 V 29.99 Z"
         id="path13" />
      <path
         class="n"
         d="m 354.87,41.07 5.79,3.52 c 2.98,1.8 5.41,4.32 5.41,8.51 0,5.45 -4.15,9.02 -10.15,9.02 -6.5,0 -9.77,-3.98 -10.48,-9.06 l 5.24,-1.93 c 0.29,2.52 1.93,5.66 5.41,5.66 2.56,0 3.94,-1.59 3.94,-3.52 0,-1.43 -0.59,-2.77 -2.56,-3.94 l -5.24,-3.1 c -2.85,-1.68 -5.7,-3.56 -5.7,-8.39 0,-4.53 3.52,-8.51 9.35,-8.51 5.49,0 8.6,2.77 9.85,7.3 l -5.12,1.85 c -1.01,-2.89 -2.73,-3.94 -4.91,-3.94 -1.97,0 -3.35,1.17 -3.35,2.98 0,1.81 0.88,2.6 2.52,3.57 z"
         id="path14" />
      <path
         class="n"
         d="m 373.07,30 h 5.96 v 31.45 h -5.96 z"
         id="path15" />
      <path
         class="n"
         d="m 400.62,44.43 h 16.36 c 0.13,0.38 0.21,1.09 0.21,2.47 -0.04,8.89 -5.79,15.22 -15.27,15.22 -9.48,0 -16.02,-6.84 -16.02,-16.4 0,-9.56 6.71,-16.4 16.02,-16.4 5.62,0 10.15,2.47 12.83,6.5 l -4.03,3.35 c -1.89,-2.89 -5.12,-4.61 -8.81,-4.61 -5.96,0 -9.98,4.57 -9.98,11.11 0,6.54 3.98,11.11 9.98,11.11 5.2,0 8.47,-2.85 9.31,-7.17 h -10.61 v -5.2 z"
         id="path16" />
      <path
         class="n"
         d="m 423.76,30 h 5.96 v 13.08 h 12.25 V 30 h 5.96 v 31.45 h -5.96 V 48.28 h -12.25 v 13.17 h -5.96 z"
         id="path17" />
      <path
         class="n"
         d="m 461.75,35.2 h -7.88 V 30 h 21.72 v 5.2 h -7.88 v 26.25 h -5.96 z"
         id="path18" />
    </g>
    <g
       id="g29">
      <path
         class="n"
         d="m 235.03,81.91 2.81,1.66 c 2.15,1.27 3.39,2.71 3.39,4.83 0,2.98 -2.17,4.93 -5.57,4.93 -3.56,0 -5.47,-2.32 -5.83,-5.32 l 1.78,-0.51 c 0.27,2.03 1.56,4 4.15,4 2.17,0 3.42,-1.25 3.42,-3.05 0,-1.2 -0.66,-2.27 -2.42,-3.27 l -2.61,-1.54 c -2.1,-1.22 -3.64,-2.34 -3.64,-4.88 0,-2.54 1.9,-4.52 5.1,-4.52 3.03,0 4.83,1.59 5.42,4.27 l -1.73,0.51 c -0.49,-2 -1.83,-3 -3.76,-3 -1.93,0 -3.03,1.1 -3.03,2.64 0,1.54 0.85,2.32 2.51,3.25 z"
         id="path19" />
      <path
         class="n"
         d="m 265.76,80.32 c 0,3.27 -2.46,5.69 -5.98,5.69 h -4.69 v 6.93 h -2 V 74.63 h 6.69 c 3.51,0 5.98,2.39 5.98,5.69 z m -2.05,0.02 c 0,-2.32 -1.66,-3.95 -4.13,-3.95 h -4.49 v 7.88 h 4.49 c 2.46,0 4.13,-1.68 4.13,-3.93 z"
         id="path20" />
      <path
         class="n"
         d="m 280.36,74.63 h 2.54 l 6.37,18.31 h -2.15 l -1.68,-5.03 h -7.69 l -1.68,5.03 h -2.08 z m -2,11.52 h 6.49 l -3.17,-9.57 h -0.1 z"
         id="path21" />
      <path
         class="n"
         d="m 301.96,76.39 h -5.15 v -1.76 h 12.25 v 1.76 h -5.1 v 16.55 h -2 z"
         id="path22" />
      <path
         class="n"
         d="m 320.04,74.63 h 2 v 18.31 h -2 z"
         id="path23" />
      <path
         class="n"
         d="m 339.54,74.63 h 2.54 l 6.37,18.31 h -2.15 l -1.68,-5.03 h -7.69 l -1.68,5.03 h -2.08 z m -2,11.52 h 6.49 l -3.17,-9.57 h -0.1 z"
         id="path24" />
      <path
         class="n"
         d="m 359.58,74.63 h 2 v 16.53 h 7.88 v 1.78 h -9.89 V 74.63 Z"
         id="path25" />
      <path
         class="n"
         d="m 394.46,74.63 h 2 v 16.53 h 7.88 v 1.78 h -9.89 V 74.63 Z"
         id="path26" />
      <path
         class="n"
         d="m 420.02,74.63 h 2.54 l 6.37,18.31 h -2.15 l -1.68,-5.03 h -7.69 l -1.68,5.03 h -2.08 z m -2,11.52 h 6.49 l -3.17,-9.57 h -0.1 z"
         id="path27" />
      <path
         class="n"
         d="m 446.74,92.94 h -6.69 V 74.63 h 6.35 c 3.1,0 5.2,2 5.2,4.71 0,1.86 -1.15,3.59 -3.05,4.15 2.32,0.59 3.52,2.49 3.52,4.61 0,2.66 -2.15,4.83 -5.32,4.83 z m -4.69,-10.15 h 4.27 c 1.88,0 3.25,-1.44 3.25,-3.17 0,-1.73 -1.29,-3.22 -3.39,-3.22 h -4.12 v 6.4 z m 7.96,5.05 c 0,-1.81 -1.42,-3.32 -3.34,-3.32 h -4.61 v 6.66 h 4.47 c 2.12,0 3.49,-1.49 3.49,-3.34 z"
         id="path28" />
      <path
         class="n"
         d="m 467.93,81.91 2.81,1.66 c 2.15,1.27 3.39,2.71 3.39,4.83 0,2.98 -2.17,4.93 -5.57,4.93 -3.56,0 -5.47,-2.32 -5.83,-5.32 l 1.78,-0.51 c 0.27,2.03 1.56,4 4.15,4 2.17,0 3.42,-1.25 3.42,-3.05 0,-1.2 -0.66,-2.27 -2.42,-3.27 l -2.61,-1.54 c -2.1,-1.22 -3.64,-2.34 -3.64,-4.88 0,-2.54 1.9,-4.52 5.1,-4.52 3.03,0 4.83,1.59 5.42,4.27 l -1.73,0.51 c -0.49,-2 -1.83,-3 -3.76,-3 -1.93,0 -3.03,1.1 -3.03,2.64 0,1.54 0.85,2.32 2.51,3.25 z"
         id="path29" />
    </g>
  </g>
  <rect
     style="fill:none;stroke-width:0.9941"
     id="rect8"
     width="465"
     height="84"
     x="0"
     y="0" />
</svg>
