<?xml version="1.0" encoding="UTF-8" standalone="no"?>
<svg
   width="75"
   height="79"
   viewBox="0 0 75 79"
   fill="none"
   version="1.1"
   id="svg13"
   sodipodi:docname="mastodon-logo-purple.svg"
   inkscape:version="1.2.2 (b0a8486541, 2022-12-01)"
   xmlns:inkscape="http://www.inkscape.org/namespaces/inkscape"
   xmlns:sodipodi="http://sodipodi.sourceforge.net/DTD/sodipodi-0.dtd"
   xmlns="http://www.w3.org/2000/svg"
   xmlns:svg="http://www.w3.org/2000/svg">
  <sodipodi:namedview
     id="namedview15"
     pagecolor="#ffffff"
     bordercolor="#000000"
     borderopacity="0.25"
     inkscape:showpageshadow="2"
     inkscape:pageopacity="0.0"
     inkscape:pagecheckerboard="0"
     inkscape:deskcolor="#d1d1d1"
     showgrid="false"
     inkscape:zoom="13"
     inkscape:cx="37.461538"
     inkscape:cy="39.5"
     inkscape:window-width="3440"
     inkscape:window-height="1440"
     inkscape:window-x="0"
     inkscape:window-y="0"
     inkscape:window-maximized="1"
     inkscape:current-layer="svg13" />
  <path
     id="path2"
     style="fill:#5a45da;fill-opacity:1"
     d="M 36.361328 0 C 23.371841 0 20.585067 0.79660022 19.105469 1.015625 C 10.579877 2.2759237 2.793288 8.2863286 0.90429688 16.875 C -0.0042844564 21.104796 -0.10042886 25.794107 0.068359375 30.095703 C 0.30897173 36.264297 0.35578419 42.422912 0.91601562 48.566406 C 1.3033152 52.647302 1.978591 56.696145 2.9375 60.681641 C 4.7331182 68.042433 12.001654 74.167018 19.123047 76.666016 C 26.747539 79.272213 34.948195 79.705314 42.804688 77.916016 C 43.668987 77.714916 44.522435 77.482497 45.365234 77.216797 C 47.275732 76.609997 49.511452 75.93028 51.15625 74.738281 C 51.17885 74.721481 51.197938 74.700581 51.210938 74.675781 C 51.224037 74.650881 51.231522 74.623803 51.232422 74.595703 L 51.232422 68.640625 C 51.232022 68.614425 51.226544 68.589906 51.214844 68.566406 C 51.203144 68.542906 51.186716 68.522059 51.166016 68.505859 C 51.145316 68.489659 51.121303 68.478356 51.095703 68.472656 C 51.070103 68.466956 51.043078 68.466756 51.017578 68.472656 C 45.983983 69.674755 40.825585 70.277078 35.650391 70.267578 C 26.7441 70.267578 24.348109 66.042601 23.662109 64.283203 C 23.11081 62.762605 22.761094 61.175752 22.621094 59.564453 C 22.619594 59.537353 22.623766 59.511128 22.634766 59.486328 C 22.645666 59.461528 22.662594 59.438975 22.683594 59.421875 C 22.704594 59.404675 22.729359 59.392519 22.755859 59.386719 C 22.782359 59.380919 22.809638 59.381872 22.835938 59.388672 C 27.785633 60.582671 32.86133 61.184994 37.953125 61.183594 C 39.177724 61.183594 40.398448 61.184644 41.623047 61.152344 C 46.744142 61.008744 52.141193 60.745518 57.179688 59.761719 C 57.305387 59.736519 57.431363 59.715894 57.539062 59.683594 C 65.486455 58.157495 73.04986 53.367369 73.818359 41.238281 C 73.847059 40.760782 73.917969 36.235734 73.917969 35.740234 C 73.921469 34.056236 74.461143 23.795328 73.839844 17.490234 C 72.697845 9.0020929 65.299088 2.3118337 56.529297 1.015625 C 55.049698 0.79660022 49.444871 7.4014794e-17 36.458984 0 L 36.361328 0 z M 25.527344 12.925781 C 29.804539 12.925781 33.036608 14.570072 35.191406 17.855469 L 37.269531 21.345703 L 39.353516 17.855469 C 41.508213 14.570072 44.73977 12.925781 49.009766 12.925781 C 52.701562 12.925781 55.67818 14.226415 57.955078 16.757812 C 60.152876 19.29281 61.250447 22.714295 61.248047 27.025391 L 61.248047 48.113281 L 52.890625 48.113281 L 52.890625 27.648438 C 52.890625 23.339742 51.095656 21.140625 47.443359 21.140625 C 43.428363 21.140625 41.417969 23.740405 41.417969 28.875 L 41.417969 40.078125 L 33.111328 40.078125 L 33.111328 28.875 C 33.111328 23.740405 31.097027 21.140625 27.082031 21.140625 C 23.451235 21.140625 21.636719 23.339742 21.636719 27.648438 L 21.636719 48.113281 L 13.283203 48.113281 L 13.283203 27.025391 C 13.283203 22.716695 14.383687 19.29521 16.583984 16.757812 C 18.853582 14.226415 21.832047 12.925781 25.527344 12.925781 z " />
  <defs
     id="defs11">
    <linearGradient
       id="paint0_linear_549_34"
       x1="37.0692"
       y1="0"
       x2="37.0692"
       y2="79"
       gradientUnits="userSpaceOnUse">
      <stop
         stop-color="#6364FF"
         id="stop6" />
      <stop
         offset="1"
         stop-color="#563ACC"
         id="stop8" />
    </linearGradient>
  </defs>
</svg>
