<?xml version="1.0" encoding="UTF-8" standalone="no"?>
<!-- Created with Inkscape (http://www.inkscape.org/) -->

<svg
   width="297mm"
   height="210mm"
   viewBox="0 0 297 210"
   version="1.1"
   id="svg5"
   inkscape:version="1.2.2 (b0a8486541, 2022-12-01)"
   sodipodi:docname="migration-guides.svg"
   xml:space="preserve"
   xmlns:inkscape="http://www.inkscape.org/namespaces/inkscape"
   xmlns:sodipodi="http://sodipodi.sourceforge.net/DTD/sodipodi-0.dtd"
   xmlns="http://www.w3.org/2000/svg"
   xmlns:svg="http://www.w3.org/2000/svg"><sodipodi:namedview
     id="namedview7"
     pagecolor="#000000"
     bordercolor="#000000"
     borderopacity="0.25"
     inkscape:showpageshadow="2"
     inkscape:pageopacity="0"
     inkscape:pagecheckerboard="0"
     inkscape:deskcolor="#d1d1d1"
     inkscape:document-units="mm"
     showgrid="false"
     inkscape:zoom="0.46071034"
     inkscape:cx="281.08768"
     inkscape:cy="262.63791"
     inkscape:window-width="1504"
     inkscape:window-height="715"
     inkscape:window-x="0"
     inkscape:window-y="32"
     inkscape:window-maximized="0"
     inkscape:current-layer="text111" /><defs
     id="defs2"><rect
       x="185.50113"
       y="66.590151"
       width="789.56893"
       height="661.14507"
       id="rect113" /></defs><g
     inkscape:label="Layer 1"
     inkscape:groupmode="layer"
     id="layer1"><g
       aria-label="-0.X +0.Y"
       transform="matrix(0.37145092,0,0,0.34672752,-71.366003,-20.777663)"
       id="text111"
       style="font-size:250px;font-family:'Fira Mono';-inkscape-font-specification:'Fira Mono';text-align:center;white-space:pre;shape-inside:url(#rect113);fill:#ffffff"
       inkscape:label="text111"><path
         d="m 361.39755,205.38151 h 87.5 v 18 h -87.5 z"
         style="fill:#f85149;fill-opacity:1"
         id="path596" /><path
         d="m 555.14716,117.63151 q 27.5,0 41.75,23 14.5,22.75 14.5,65.75 0,43.25 -14.5,66.25 -14.25,22.75 -41.75,22.75 -27.5,0 -42,-22.75 -14.25,-23 -14.25,-66.25 0,-43 14.25,-65.75 14.5,-23 42,-23 z m 0,17 q -34.25,0 -34.25,71.75 0,72 34.25,72 34.25,0 34.25,-72 0,-71.75 -34.25,-71.75 z m 0,55.5 q 7,0 11.75,4.75 4.75,4.75 4.75,11.5 0,7 -4.75,11.75 -4.75,4.75 -11.75,4.75 -7,0 -11.75,-4.75 -4.5,-4.75 -4.5,-11.75 0,-6.75 4.5,-11.5 4.75,-4.75 11.75,-4.75 z"
         style="fill:#f85149;fill-opacity:1"
         id="path598" /><path
         d="m 633.03613,273.38151 q 0,-9.25 6.25,-15.5 6.5,-6.5 15.75,-6.5 9.5,0 15.75,6.5 6.25,6.25 6.25,15.5 0,9.5 -6.25,15.75 -6.25,6.25 -15.75,6.25 -9.25,0 -15.75,-6.25 -6.25,-6.5 -6.25,-15.75 z"
         style="fill:#f85149;fill-opacity:1"
         id="path600" /><path
         d="m 724.79792,120.38151 37.75,66.25 38,-66.25 h 23.25 l -48.75,79.25 54.75,93 h -25 l -42.75,-77.75 -43.5,77.75 h -23.25 l 54,-91.75 -49.5,-80.5 z"
         style="fill:#f85149;fill-opacity:1"
         id="path602" /><path
         d="m 414.64755,518.63151 h 36.5 v 17.5 h -36.5 v 37.25 h -19.5 v -37.25 h -36 v -17.5 h 36 v -37.25 h 19.5 z"
         style="fill:#2ea043;fill-opacity:1"
         id="path604" /><path
         d="m 555.14716,430.13151 q 27.5,0 41.75,23 14.5,22.75 14.5,65.75 0,43.25 -14.5,66.25 -14.25,22.75 -41.75,22.75 -27.5,0 -42,-22.75 -14.25,-23 -14.25,-66.25 0,-43 14.25,-65.75 14.5,-23 42,-23 z m 0,17 q -34.25,0 -34.25,71.75 0,72 34.25,72 34.25,0 34.25,-72 0,-71.75 -34.25,-71.75 z m 0,55.5 q 7,0 11.75,4.75 4.75,4.75 4.75,11.5 0,7 -4.75,11.75 -4.75,4.75 -11.75,4.75 -7,0 -11.75,-4.75 -4.5,-4.75 -4.5,-11.75 0,-6.75 4.5,-11.5 4.75,-4.75 11.75,-4.75 z"
         style="fill:#2ea043;fill-opacity:1"
         id="path606" /><path
         d="m 633.03613,585.88151 q 0,-9.25 6.25,-15.5 6.5,-6.5 15.75,-6.5 9.5,0 15.75,6.5 6.25,6.25 6.25,15.5 0,9.5 -6.25,15.75 -6.25,6.25 -15.75,6.25 -9.25,0 -15.75,-6.25 -6.25,-6.5 -6.25,-15.75 z"
         style="fill:#2ea043;fill-opacity:1"
         id="path608" /><path
         d="m 773.54792,605.13151 h -22 v -66.25 l -58.25,-106 h 24 l 45.75,86.5 46.25,-86.5 h 22.5 l -58.25,105.75 z"
         id="path610"
         style="fill:#2ea043;fill-opacity:1" /></g></g></svg>
