<?xml version="1.0" encoding="UTF-8" standalone="no"?>
<svg
   width="125.3852mm"
   height="63.88311mm"
   version="1.1"
   viewBox="0 0 250.78178 127.76623"
   id="svg140"
   sodipodi:docname="ecs.svg"
   inkscape:version="1.1.2 (b8e25be833, 2022-02-05)"
   xmlns:inkscape="http://www.inkscape.org/namespaces/inkscape"
   xmlns:sodipodi="http://sodipodi.sourceforge.net/DTD/sodipodi-0.dtd"
   xmlns="http://www.w3.org/2000/svg"
   xmlns:svg="http://www.w3.org/2000/svg"
   xmlns:rdf="http://www.w3.org/1999/02/22-rdf-syntax-ns#"
   xmlns:cc="http://creativecommons.org/ns#"
   xmlns:dc="http://purl.org/dc/elements/1.1/">
  <metadata
     id="metadata146">
    <rdf:RDF>
      <cc:Work
         rdf:about="">
        <dc:format>image/svg+xml</dc:format>
        <dc:type
           rdf:resource="http://purl.org/dc/dcmitype/StillImage" />
      </cc:Work>
    </rdf:RDF>
  </metadata>
  <defs
     id="defs144">
    <rect
       x="81.956444"
       y="256.5593"
       width="3.5633235"
       height="133.03075"
       id="rect86364" />
  </defs>
  <sodipodi:namedview
     pagecolor="#ffffff"
     bordercolor="#666666"
     borderopacity="1"
     objecttolerance="10"
     gridtolerance="10"
     guidetolerance="10"
     inkscape:pageopacity="0"
     inkscape:pageshadow="2"
     inkscape:window-width="1920"
     inkscape:window-height="1057"
     id="namedview142"
     showgrid="false"
     fit-margin-top="0"
     fit-margin-left="0"
     fit-margin-right="0"
     fit-margin-bottom="0"
     inkscape:zoom="1.1906415"
     inkscape:cx="180.99487"
     inkscape:cy="188.97376"
     inkscape:window-x="-8"
     inkscape:window-y="-8"
     inkscape:window-maximized="1"
     inkscape:current-layer="svg140"
     inkscape:pagecheckerboard="0"
     inkscape:document-units="mm"
     inkscape:snap-bbox="false"
     inkscape:snap-global="true" />
  <g
     aria-label="#[derive(Component)]
struct Player;

fn system(
 q: Query&lt;(Entity, &amp;Player)&gt;
) {
}"
     id="text24444"
     style="font-size:14.9356px;line-height:1.25;font-family:'Fira Mono';-inkscape-font-specification:'Fira Mono, Normal';font-variant-ligatures:none;stroke:none;stroke-width:1.05804801;stroke-miterlimit:4;stroke-dasharray:none">
    <path
       d="M 7.1456609,9.5922109 H 8.2508953 V 10.787059 H 6.9813693 L 6.6677217,13.176755 H 5.2787109 L 5.5923585,10.787059 H 3.6955373 L 3.3818897,13.176755 H 1.9779432 L 2.2915908,10.787059 H 1.2162276 V 9.5922109 H 2.4409468 L 2.8740792,6.4258636 H 1.7688448 V 5.21608 H 3.0383709 L 3.3520185,2.8711908 H 4.7559649 L 4.4273817,5.21608 H 6.3242029 L 6.6378505,2.8711908 H 8.0417969 L 7.7132137,5.21608 H 8.8035126 V 6.4258636 H 7.5638577 Z m -1.4039464,0 0.4331324,-3.1663473 H 4.2630901 L 3.8448933,9.5922109 Z"
       style="fill:#5fb3b3;stroke:none;stroke-width:1.05804801;stroke-miterlimit:4;stroke-dasharray:none"
       id="path14952" />
    <path
       d="m 12.074415,0.95943392 h 4.077418 V 2.2887023 H 13.657588 V 13.624823 h 2.494245 v 1.314333 h -4.077418 z"
       style="fill:#5fb3b3;stroke:none;stroke-width:1.05804801;stroke-miterlimit:4;stroke-dasharray:none"
       id="path14954" />
    <path
       d="M 26.084013,2.1244107 V 13.176755 h -1.478624 l -0.119485,-0.970814 q -0.388326,0.567553 -0.955879,0.866265 -0.567552,0.298712 -1.25459,0.298712 -1.478624,0 -2.225404,-1.105235 -0.74678,-1.105234 -0.74678,-3.0319265 0,-1.2097836 0.37339,-2.1507265 0.388325,-0.9409428 1.090298,-1.4636888 0.701974,-0.5376816 1.657852,-0.5376816 1.209784,0 1.986435,0.8662648 V 1.9302479 Z m -3.22609,4.2417105 q -0.866264,0 -1.329268,0.7169088 -0.448068,0.7019733 -0.448068,2.1507265 0,2.8676355 1.642916,2.8676355 0.98575,0 1.687723,-1.135106 V 7.2473216 Q 23.798866,6.3661212 22.857923,6.3661212 Z"
       style="fill:#c594c5;stroke:none;stroke-width:1.05804801;stroke-miterlimit:4;stroke-dasharray:none"
       id="path14956" />
    <path
       d="m 30.131567,9.7714381 q 0.07468,1.1500409 0.657167,1.7325299 0.597424,0.567553 1.49356,0.567553 0.552617,0 1.045492,-0.164292 0.50781,-0.179227 1.030556,-0.522746 l 0.716909,1.015621 q -0.552617,0.463003 -1.299397,0.716909 -0.74678,0.253905 -1.568238,0.253905 -1.807208,0 -2.807893,-1.12017 -1.000685,-1.135106 -1.000685,-3.0169915 0,-1.1799124 0.433132,-2.1208553 0.433132,-0.9558784 1.254591,-1.49356 0.821458,-0.5376816 1.911756,-0.5376816 1.568238,0 2.47931,1.0604276 0.926007,1.045492 0.926007,2.8825709 0,0.448068 -0.04481,0.74678 z m 1.881886,-3.4501237 q -0.806522,0 -1.314333,0.5824884 -0.50781,0.5824884 -0.582488,1.7325297 h 3.659222 Q 33.745983,7.5161624 33.297915,6.9187384 32.849847,6.3213144 32.013453,6.3213144 Z"
       style="fill:#c594c5;stroke:none;stroke-width:1.05804801;stroke-miterlimit:4;stroke-dasharray:none"
       id="path14958" />
    <path
       d="m 43.289836,5.0965952 q 0.612359,0 1.194848,0.1941628 L 44.200907,8.2032001 H 43.006059 V 6.5901552 q -0.821458,0.014936 -1.433817,0.6571664 -0.597424,0.6422309 -0.955879,1.8072077 v 2.9273777 h 1.583174 v 1.194848 h -4.420938 v -1.194848 h 1.164977 V 6.485606 H 37.778599 V 5.290758 h 2.434503 l 0.298712,1.8221432 q 0.463004,-1.0156208 1.12017,-1.5084956 0.672102,-0.5078104 1.657852,-0.5078104 z"
       style="fill:#c594c5;stroke:none;stroke-width:1.05804801;stroke-miterlimit:4;stroke-dasharray:none"
       id="path14960" />
    <path
       d="m 49.816698,1.4224375 q 0.477939,0 0.776651,0.3136476 0.313647,0.298712 0.313647,0.7467801 0,0.448068 -0.313647,0.74678 -0.298712,0.298712 -0.776651,0.298712 -0.492875,0 -0.791587,-0.298712 -0.298712,-0.298712 -0.298712,-0.74678 0,-0.4630037 0.298712,-0.7617157 0.313647,-0.298712 0.791587,-0.298712 z m 1.150041,10.5295985 h 2.150726 v 1.224719 h -6.168403 v -1.224719 h 2.34489 V 6.5154772 H 47.02374 V 5.290758 h 3.942999 z"
       style="fill:#c594c5;stroke:none;stroke-width:1.05804801;stroke-miterlimit:4;stroke-dasharray:none"
       id="path14962" />
    <path
       d="M 59.74888,13.176755 H 57.807252 L 55.014295,5.290758 h 1.807208 l 1.986434,6.496986 2.016306,-6.496986 h 1.717594 z"
       style="fill:#c594c5;stroke:none;stroke-width:1.05804801;stroke-miterlimit:4;stroke-dasharray:none"
       id="path14964" />
    <path
       d="m 65.97703,9.7714381 q 0.07468,1.1500409 0.657167,1.7325299 0.597424,0.567553 1.49356,0.567553 0.552617,0 1.045492,-0.164292 0.50781,-0.179227 1.030556,-0.522746 l 0.716909,1.015621 q -0.552617,0.463003 -1.299397,0.716909 -0.74678,0.253905 -1.568238,0.253905 -1.807208,0 -2.807893,-1.12017 Q 64.2445,11.115642 64.2445,9.2337565 q 0,-1.1799124 0.433133,-2.1208553 0.433132,-0.9558784 1.25459,-1.49356 0.821458,-0.5376816 1.911757,-0.5376816 1.568238,0 2.47931,1.0604276 0.926007,1.045492 0.926007,2.8825709 0,0.448068 -0.04481,0.74678 z m 1.881886,-3.4501237 q -0.806523,0 -1.314333,0.5824884 -0.50781,0.5824884 -0.582488,1.7325297 h 3.659222 q -0.02987,-1.1201701 -0.47794,-1.7175941 -0.448068,-0.597424 -1.284461,-0.597424 z"
       style="fill:#c594c5;stroke:none;stroke-width:1.05804801;stroke-miterlimit:4;stroke-dasharray:none"
       id="path14966" />
    <path
       d="m 75.670239,7.9492949 q 0,1.418882 0.313648,2.4942451 0.313647,1.075363 0.955878,2.016306 0.657167,0.940943 1.777337,2.016306 l -0.911072,0.896136 q -1.941628,-1.613045 -2.897506,-3.315703 -0.955879,-1.717594 -0.955879,-4.1072901 0,-2.3896961 0.955879,-4.0923545 0.955878,-1.7175941 2.897506,-3.33063889 L 78.717102,1.4224375 Q 77.611867,2.4828652 76.954701,3.423808 76.31247,4.3498152 75.983887,5.440114 75.670239,6.5304128 75.670239,7.9492949 Z"
       style="fill:#5fb3b3;stroke:none;stroke-width:1.05804801;stroke-miterlimit:4;stroke-dasharray:none"
       id="path14968" />
    <path
       d="m 86.528425,2.6620924 q 1.015621,0 1.73253,0.2539052 0.716909,0.2539052 1.374075,0.7915868 L 88.738894,4.7829476 Q 87.797951,4.021232 86.603103,4.021232 q -1.25459,0 -2.046177,0.970814 -0.791587,0.9558784 -0.791587,3.0169913 0,2.0312417 0.776651,3.0020557 0.776652,0.955878 2.076049,0.955878 0.74678,0 1.269526,-0.224034 0.537681,-0.238969 1.060427,-0.657166 l 0.836394,1.060428 q -1.25459,1.224719 -3.22609,1.224719 -1.329268,0 -2.37476,-0.61236 -1.045492,-0.627295 -1.642916,-1.837079 -0.582488,-1.2097833 -0.582488,-2.9124417 0,-1.6727873 0.597424,-2.8825709 0.612359,-1.2097836 1.657851,-1.8370788 1.045492,-0.6272952 2.315018,-0.6272952 z"
       style="fill:#cccece;stroke:none;stroke-width:1.05804801;stroke-miterlimit:4;stroke-dasharray:none"
       id="path14970" />
    <path
       d="m 94.638461,5.0816596 q 1.702658,0 2.628665,1.12017 0.926008,1.1052344 0.926008,3.0169913 0,1.9117571 -0.940943,3.0319271 -0.940943,1.12017 -2.628666,1.12017 -1.702658,0 -2.643601,-1.090299 -0.926007,-1.105234 -0.926007,-3.0468625 0,-1.8818857 0.940943,-3.0169913 0.955878,-1.1351056 2.643601,-1.1351056 z m 0,1.2993972 q -0.911072,0 -1.374075,0.7019732 -0.448068,0.7019733 -0.448068,2.1507265 0,1.4636885 0.448068,2.1656625 0.448068,0.687037 1.359139,0.687037 0.911072,0 1.35914,-0.701973 0.448068,-0.701973 0.448068,-2.1656621 0,-1.4487533 -0.448068,-2.1357909 -0.448068,-0.7019732 -1.344204,-0.7019732 z"
       style="fill:#cccece;stroke:none;stroke-width:1.05804801;stroke-miterlimit:4;stroke-dasharray:none"
       id="path14972" />
    <path
       d="m 105.87004,5.0816596 q 0.73184,0 1.15004,0.5078104 0.41819,0.5078104 0.41819,1.7325296 v 5.8547554 h -1.47862 V 7.5460336 q 0,-0.6571664 -0.10455,-0.9110716 -0.0896,-0.2539052 -0.4182,-0.2539052 -0.62729,0 -1.16497,0.7915868 v 6.0041114 h -1.35914 V 7.5460336 q 0,-0.6571664 -0.10455,-0.9110716 -0.0896,-0.2539052 -0.4182,-0.2539052 -0.62729,0 -1.16497,0.7915868 V 13.176755 H 99.731505 V 5.290758 h 1.254595 l 0.11948,0.8513292 q 0.37339,-0.522746 0.76172,-0.7915868 0.38832,-0.2688408 0.926,-0.2688408 1.0455,0 1.34421,1.0006852 0.35845,-0.4779392 0.77665,-0.7318444 0.4182,-0.2688408 0.95588,-0.2688408 z"
       style="fill:#cccece;stroke:none;stroke-width:1.05804801;stroke-miterlimit:4;stroke-dasharray:none"
       id="path14974" />
    <path
       d="m 113.24824,5.0816596 q 2.86763,0 2.86763,4.1371613 0,1.8669501 -0.79159,3.0169911 -0.79158,1.135106 -2.25527,1.135106 -1.23966,0 -2.00137,-0.866265 v 3.704029 l -1.67279,0.194163 V 5.290758 h 1.44875 l 0.10455,1.0156208 q 0.44807,-0.597424 1.03056,-0.9110716 0.59742,-0.3136476 1.26953,-0.3136476 z m -0.46301,1.2844616 q -0.52274,0 -0.95588,0.3136476 -0.43313,0.3136476 -0.76171,0.821458 V 11.19032 q 0.58249,0.881201 1.5533,0.881201 0.86627,0 1.2994,-0.687038 0.43313,-0.687038 0.43313,-2.1507265 0,-1.5084957 -0.38833,-2.1805977 -0.38832,-0.6870376 -1.17991,-0.6870376 z"
       style="fill:#cccece;stroke:none;stroke-width:1.05804801;stroke-miterlimit:4;stroke-dasharray:none"
       id="path14976" />
    <path
       d="m 121.52256,5.0816596 q 1.70266,0 2.62867,1.12017 0.92601,1.1052344 0.92601,3.0169913 0,1.9117571 -0.94095,3.0319271 -0.94094,1.12017 -2.62866,1.12017 -1.70266,0 -2.6436,-1.090299 -0.92601,-1.105234 -0.92601,-3.0468625 0,-1.8818857 0.94094,-3.0169913 0.95588,-1.1351056 2.6436,-1.1351056 z m 0,1.2993972 q -0.91107,0 -1.37407,0.7019732 -0.44807,0.7019733 -0.44807,2.1507265 0,1.4636885 0.44807,2.1656625 0.44807,0.687037 1.35914,0.687037 0.91107,0 1.35914,-0.701973 0.44806,-0.701973 0.44806,-2.1656621 0,-1.4487533 -0.44806,-2.1357909 -0.44807,-0.7019732 -1.34421,-0.7019732 z"
       style="fill:#cccece;stroke:none;stroke-width:1.05804801;stroke-miterlimit:4;stroke-dasharray:none"
       id="path14978" />
    <path
       d="m 127.31758,5.290758 h 1.44875 l 0.11949,1.0305564 q 0.49287,-0.597424 1.15004,-0.9110716 0.6721,-0.3285832 1.40395,-0.3285832 1.09029,0 1.64291,0.6123596 0.55262,0.6123596 0.55262,1.7325296 v 5.7502062 h -1.67279 V 8.2629425 q 0,-0.7318445 -0.0896,-1.1201701 -0.0747,-0.4032612 -0.31365,-0.5824884 -0.23897,-0.1941628 -0.71691,-0.1941628 -0.53768,0 -1.03055,0.3285832 -0.47794,0.3285832 -0.82146,0.821458 v 5.6605926 h -1.67279 z"
       style="fill:#cccece;stroke:none;stroke-width:1.05804801;stroke-miterlimit:4;stroke-dasharray:none"
       id="path14980" />
    <path
       d="m 137.66796,9.7714381 q 0.0747,1.1500409 0.65716,1.7325299 0.59743,0.567553 1.49356,0.567553 0.55262,0 1.04549,-0.164292 0.50781,-0.179227 1.03056,-0.522746 l 0.71691,1.015621 q -0.55262,0.463003 -1.2994,0.716909 -0.74678,0.253905 -1.56824,0.253905 -1.8072,0 -2.80789,-1.12017 -1.00068,-1.135106 -1.00068,-3.0169915 0,-1.1799124 0.43313,-2.1208553 0.43313,-0.9558784 1.25459,-1.49356 0.82146,-0.5376816 1.91176,-0.5376816 1.56823,0 2.47931,1.0604276 0.926,1.045492 0.926,2.8825709 0,0.448068 -0.0448,0.74678 z m 1.88188,-3.4501237 q -0.80652,0 -1.31433,0.5824884 -0.50781,0.5824884 -0.58249,1.7325297 h 3.65922 q -0.0299,-1.1201701 -0.47794,-1.7175941 -0.44807,-0.597424 -1.28446,-0.597424 z"
       style="fill:#cccece;stroke:none;stroke-width:1.05804801;stroke-miterlimit:4;stroke-dasharray:none"
       id="path14982" />
    <path
       d="m 145.24031,5.290758 h 1.44875 l 0.11949,1.0305564 q 0.49287,-0.597424 1.15004,-0.9110716 0.6721,-0.3285832 1.40395,-0.3285832 1.09029,0 1.64291,0.6123596 0.55262,0.6123596 0.55262,1.7325296 v 5.7502062 h -1.67279 V 8.2629425 q 0,-0.7318445 -0.0896,-1.1201701 -0.0747,-0.4032612 -0.31365,-0.5824884 -0.23897,-0.1941628 -0.71691,-0.1941628 -0.53768,0 -1.03056,0.3285832 -0.47793,0.3285832 -0.82145,0.821458 v 5.6605926 h -1.67279 z"
       style="fill:#cccece;stroke:none;stroke-width:1.05804801;stroke-miterlimit:4;stroke-dasharray:none"
       id="path14984" />
    <path
       d="m 160.78827,12.758558 q -0.44806,0.283777 -1.04549,0.448068 -0.59742,0.164292 -1.25459,0.164292 -1.3442,0 -2.07605,-0.687038 -0.73184,-0.701973 -0.73184,-1.896821 V 6.5154772 h -1.74747 V 5.290758 h 1.74747 V 3.5283572 l 1.67279,-0.1941628 V 5.290758 h 2.67347 l -0.19416,1.2247192 h -2.47931 v 4.2566458 q 0,0.642231 0.32858,0.955879 0.32858,0.298712 1.04549,0.298712 0.79159,0 1.46369,-0.37339 z"
       style="fill:#cccece;stroke:none;stroke-width:1.05804801;stroke-miterlimit:4;stroke-dasharray:none"
       id="path14986" />
    <path
       d="m 167.34501,7.9492949 q 0,-1.4188821 -0.32859,-2.5091809 -0.31364,-1.0902988 -0.97081,-2.016306 -0.64223,-0.9409428 -1.74747,-2.0013705 l 0.91108,-0.89613599 q 1.94162,1.61304479 2.8975,3.33063889 0.95588,1.7026584 0.95588,4.0923545 0,2.3896961 -0.95588,4.1072901 -0.95588,1.702658 -2.8975,3.315703 l -0.91108,-0.896136 q 1.12017,-1.075363 1.76241,-2.016306 0.65716,-0.940943 0.97081,-2.016306 0.31365,-1.0753631 0.31365,-2.4942451 z"
       style="fill:#5fb3b3;stroke:none;stroke-width:1.05804801;stroke-miterlimit:4;stroke-dasharray:none"
       id="path14988" />
    <path
       d="m 177.17264,14.939156 h -4.07742 v -1.329269 h 2.49424 V 2.2887023 h -2.49424 V 0.95943392 h 4.07742 z"
       style="fill:#5fb3b3;stroke:none;stroke-width:1.05804801;stroke-miterlimit:4;stroke-dasharray:none"
       id="path14990" />
    <path
       d="m 4.7260937,30.770892 q 0.7915868,0 1.2396548,-0.283776 0.4630036,-0.283777 0.4630036,-0.776652 0,-0.343518 -0.1344204,-0.552617 Q 6.1599113,28.933813 5.7566501,28.754586 5.3533889,28.560423 4.5468665,28.351325 3.2474693,28.022742 2.5903028,27.514931 1.948072,26.992185 1.948072,26.021371 q 0,-1.030556 0.8513292,-1.642916 0.8513293,-0.627295 2.3000825,-0.627295 1.7474652,0 3.0020556,0.911072 l -0.7169088,1.060427 q -1.0604276,-0.701973 -2.24034,-0.701973 -1.49356,0 -1.49356,0.866265 0,0.298712 0.1642916,0.492875 0.1792272,0.194162 0.597424,0.37339 0.4181968,0.164291 1.2396548,0.388325 1.2844616,0.358455 1.9117568,0.881201 0.6422308,0.522746 0.6422308,1.568238 0,1.209783 -1.0006852,1.837078 -1.0006852,0.61236 -2.4793096,0.61236 -1.9565637,0 -3.2410253,-1.105234 l 0.8812004,-1.015621 q 0.4928748,0.388325 1.0902989,0.627295 0.6123596,0.224034 1.269526,0.224034 z"
       style="fill:#c594c5;stroke:none;stroke-width:1.05804801;stroke-miterlimit:4;stroke-dasharray:none"
       id="path14992" />
    <path
       d="m 17.406424,31.428058 q -0.448068,0.283777 -1.045492,0.448069 -0.597424,0.164291 -1.254591,0.164291 -1.344204,0 -2.076048,-0.687038 -0.731844,-0.701973 -0.731844,-1.896821 v -4.271581 h -1.747466 v -1.22472 h 1.747466 v -1.7624 l 1.672787,-0.194163 v 1.956563 h 2.673472 l -0.194163,1.22472 h -2.479309 v 4.256646 q 0,0.64223 0.328583,0.955878 0.328583,0.298712 1.045492,0.298712 0.791587,0 1.463689,-0.37339 z"
       style="fill:#c594c5;stroke:none;stroke-width:1.05804801;stroke-miterlimit:4;stroke-dasharray:none"
       id="path14994" />
    <path
       d="m 25.367104,23.766096 q 0.61236,0 1.194848,0.194162 L 26.278176,26.8727 h -1.194848 v -1.613044 q -0.821458,0.01494 -1.433818,0.657166 -0.597424,0.642231 -0.955878,1.807208 v 2.927377 h 1.583174 v 1.194848 h -4.420938 v -1.194848 h 1.164977 v -5.496301 h -1.164977 v -1.194848 h 2.434503 l 0.298712,1.822144 q 0.463003,-1.015621 1.12017,-1.508496 0.672102,-0.50781 1.657851,-0.50781 z"
       style="fill:#c594c5;stroke:none;stroke-width:1.05804801;stroke-miterlimit:4;stroke-dasharray:none"
       id="path14996" />
    <path
       d="m 30.415344,29.471495 q 0,0.687037 0.268841,1.000685 0.283776,0.298712 0.851329,0.298712 0.537681,0 1.030556,-0.313648 0.507811,-0.313647 0.806523,-0.791586 v -5.7054 h 1.672787 v 7.885997 h -1.448753 l -0.10455,-1.015621 q -0.418196,0.582489 -1.090298,0.896137 -0.672102,0.313647 -1.389011,0.313647 -1.135106,0 -1.702659,-0.61236 -0.567553,-0.612359 -0.567553,-1.747465 v -5.720335 h 1.672788 z"
       style="fill:#c594c5;stroke:none;stroke-width:1.05804801;stroke-miterlimit:4;stroke-dasharray:none"
       id="path14998" />
    <path
       d="m 41.512499,30.666343 q 0.940943,0 1.941628,-0.672102 l 0.761716,1.075363 q -0.522746,0.448068 -1.25459,0.716909 -0.731845,0.253905 -1.508496,0.253905 -1.807208,0 -2.822829,-1.105234 -1.01562,-1.12017 -1.01562,-2.98712 0,-1.209784 0.463003,-2.150727 0.463004,-0.955878 1.329269,-1.49356 0.8812,-0.552617 2.076048,-0.552617 1.568238,0 2.733215,0.955878 l -0.776651,1.045492 q -0.955879,-0.657166 -1.926693,-0.657166 -0.985749,0 -1.553302,0.716909 -0.567553,0.701973 -0.567553,2.135791 0,1.403946 0.567553,2.061112 0.567553,0.657167 1.553302,0.657167 z"
       style="fill:#c594c5;stroke:none;stroke-width:1.05804801;stroke-miterlimit:4;stroke-dasharray:none"
       id="path15000" />
    <path
       d="m 53.251886,31.428058 q -0.448068,0.283777 -1.045492,0.448069 -0.597424,0.164291 -1.254591,0.164291 -1.344204,0 -2.076048,-0.687038 -0.731845,-0.701973 -0.731845,-1.896821 v -4.271581 h -1.747465 v -1.22472 h 1.747465 v -1.7624 l 1.672788,-0.194163 v 1.956563 h 2.673472 l -0.194163,1.22472 h -2.479309 v 4.256646 q 0,0.64223 0.328583,0.955878 0.328583,0.298712 1.045492,0.298712 0.791587,0 1.463689,-0.37339 z"
       style="fill:#c594c5;stroke:none;stroke-width:1.05804801;stroke-miterlimit:4;stroke-dasharray:none"
       id="path15002" />
    <path
       d="m 71.682429,24.781716 q 0,1.73253 -1.075363,2.568924 -1.075363,0.821458 -2.942313,0.821458 h -1.25459 v 3.674157 H 64.692568 V 21.540691 h 2.8527 q 1.986435,0 3.061798,0.821458 1.075363,0.806523 1.075363,2.419567 z m -1.807207,0 q 0,-1.941628 -2.210469,-1.941628 h -1.25459 v 4.017677 h 1.269526 q 1.045492,0 1.613044,-0.477939 0.582489,-0.47794 0.582489,-1.59811 z"
       style="fill:#cccece;stroke:none;stroke-width:1.05804801;stroke-miterlimit:4;stroke-dasharray:none"
       id="path15004" />
    <path
       d="m 77.014443,29.695529 q 0,1.000685 1.194848,1.000685 0.597424,0 1.254591,-0.268841 l 0.418197,1.164977 q -0.821458,0.448068 -2.031242,0.448068 -1.179913,0 -1.852015,-0.657166 -0.657166,-0.672102 -0.657166,-1.837079 V 22.01863 h -2.37476 v -1.224719 h 4.047547 z"
       style="fill:#cccece;stroke:none;stroke-width:1.05804801;stroke-miterlimit:4;stroke-dasharray:none"
       id="path15006" />
    <path
       d="m 88.544731,29.919563 q 0,0.448068 0.134421,0.672102 0.13442,0.209098 0.463003,0.313647 l -0.388325,1.135106 q -1.239655,-0.149356 -1.627981,-1.090299 -0.433132,0.537682 -1.090299,0.821458 -0.64223,0.268841 -1.418882,0.268841 -1.194848,0 -1.896821,-0.672102 -0.701973,-0.672102 -0.701973,-1.777336 0,-1.239655 0.970814,-1.911757 0.98575,-0.672102 2.778022,-0.672102 h 1.12017 V 26.49931 q 0,-0.74678 -0.448068,-1.090298 -0.448068,-0.343519 -1.299398,-0.343519 -0.418196,0 -0.970814,0.104549 -0.552617,0.104549 -1.12017,0.298712 l -0.418196,-1.179912 q 1.418882,-0.537682 2.763086,-0.537682 1.568238,0 2.359824,0.687038 0.791587,0.687037 0.791587,1.956563 z m -3.435188,0.896136 q 0.522746,0 1.000685,-0.268841 0.492875,-0.268841 0.776652,-0.74678 v -1.747465 h -0.926008 q -1.135105,0 -1.657851,0.388325 -0.522746,0.37339 -0.522746,1.090299 0,0.627295 0.328583,0.955879 0.343519,0.328583 1.000685,0.328583 z"
       style="fill:#cccece;stroke:none;stroke-width:1.05804801;stroke-miterlimit:4;stroke-dasharray:none"
       id="path15008" />
    <path
       d="m 95.654082,31.876127 q -0.47794,1.433817 -1.389011,2.24034 -0.896136,0.821458 -2.47931,0.955878 l -0.209098,-1.25459 q 0.776651,-0.119485 1.25459,-0.37339 0.477939,-0.23897 0.761716,-0.61236 0.283776,-0.37339 0.50781,-0.98575 H 93.533226 L 90.87469,23.960258 h 1.777336 l 1.986435,6.72102 2.016306,-6.72102 h 1.717594 z"
       style="fill:#cccece;stroke:none;stroke-width:1.05804801;stroke-miterlimit:4;stroke-dasharray:none"
       id="path15010" />
    <path
       d="m 101.82249,28.440938 q 0.0747,1.150042 0.65717,1.73253 0.59742,0.567553 1.49356,0.567553 0.55261,0 1.04549,-0.164292 0.50781,-0.179227 1.03055,-0.522746 l 0.71691,1.015621 q -0.55261,0.463004 -1.29939,0.716909 -0.74678,0.253905 -1.56824,0.253905 -1.80721,0 -2.8079,-1.12017 -1.00068,-1.135106 -1.00068,-3.016991 0,-1.179913 0.43313,-2.120855 0.43313,-0.955879 1.25459,-1.49356 0.82146,-0.537682 1.91176,-0.537682 1.56824,0 2.47931,1.060428 0.92601,1.045492 0.92601,2.88257 0,0.448068 -0.0448,0.74678 z m 1.88188,-3.450123 q -0.80652,0 -1.31433,0.582488 -0.50781,0.582489 -0.58249,1.73253 h 3.65923 q -0.0299,-1.12017 -0.47794,-1.717594 -0.44807,-0.597424 -1.28447,-0.597424 z"
       style="fill:#cccece;stroke:none;stroke-width:1.05804801;stroke-miterlimit:4;stroke-dasharray:none"
       id="path15012" />
    <path
       d="m 114.98077,23.766096 q 0.61235,0 1.19484,0.194162 l -0.28377,2.912442 h -1.19485 v -1.613044 q -0.82146,0.01494 -1.43382,0.657166 -0.59742,0.642231 -0.95588,1.807208 v 2.927377 h 1.58318 v 1.194848 h -4.42094 v -1.194848 h 1.16498 v -5.496301 h -1.16498 v -1.194848 h 2.4345 l 0.29871,1.822144 q 0.46301,-1.015621 1.12017,-1.508496 0.67211,-0.50781 1.65786,-0.50781 z"
       style="fill:#cccece;stroke:none;stroke-width:1.05804801;stroke-miterlimit:4;stroke-dasharray:none"
       id="path15014" />
    <path
       d="m 121.49269,24.049872 q 0.56755,0 0.95588,0.403261 0.38833,0.388326 0.38833,0.940943 0,0.552617 -0.38833,0.955878 -0.38833,0.388326 -0.95588,0.388326 -0.55262,0 -0.94094,-0.388326 -0.38833,-0.403261 -0.38833,-0.955878 0,-0.552617 0.38833,-0.940943 0.38832,-0.403261 0.94094,-0.403261 z m 0,5.137846 q 0.58249,0 0.95588,0.388326 0.38833,0.388326 0.38833,0.955878 0,0.313648 -0.0896,0.657167 -0.0896,0.328583 -0.31365,0.821458 l -1.15004,2.628666 h -1.28446 l 0.71691,-3.002056 q -0.2539,-0.179227 -0.40326,-0.477939 -0.14936,-0.298712 -0.14936,-0.627296 0,-0.567552 0.37339,-0.955878 0.38833,-0.388326 0.95588,-0.388326 z"
       style="fill:#5fb3b3;stroke:none;stroke-width:1.05804801;stroke-miterlimit:4;stroke-dasharray:none"
       id="path15016" />
    <path
       d="m 6.6527861,57.938749 q 1.2844616,0 2.3598249,0.463004 l -0.5078104,1.164976 q -0.7617157,-0.328583 -1.6877229,-0.328583 -0.7766512,0 -1.1500412,0.298712 -0.37339,0.298712 -0.37339,0.926007 v 1.403947 H 7.9372477 L 7.7430849,63.106467 H 5.2936465 v 6.078789 H 3.6208593 V 63.106467 H 1.8285872 V 61.866812 H 3.6208593 V 60.44793 q 0,-0.74678 0.37339,-1.314333 0.3883256,-0.567553 1.0753632,-0.8812 0.6870376,-0.313648 1.5831736,-0.313648 z"
       style="fill:#c594c5;stroke:none;stroke-width:1.05804801;stroke-miterlimit:4;stroke-dasharray:none"
       id="path15018" />
    <path
       d="m 10.819824,61.299259 h 1.448753 l 0.119485,1.030556 q 0.492875,-0.597424 1.150041,-0.911071 0.672102,-0.328583 1.403947,-0.328583 1.090299,0 1.642916,0.612359 0.552617,0.61236 0.552617,1.73253 v 5.750206 h -1.672787 v -4.913812 q 0,-0.731845 -0.08961,-1.120171 -0.07468,-0.403261 -0.313647,-0.582488 -0.23897,-0.194163 -0.716909,-0.194163 -0.537682,0 -1.030557,0.328583 -0.477939,0.328584 -0.821458,0.821458 v 5.660593 h -1.672787 z"
       style="fill:#c594c5;stroke:none;stroke-width:1.05804801;stroke-miterlimit:4;stroke-dasharray:none"
       id="path15020" />
    <path
       d="m 31.610192,68.109893 q 0.791587,0 1.239655,-0.283777 0.463003,-0.283776 0.463003,-0.776651 0,-0.343519 -0.13442,-0.552617 -0.134421,-0.224034 -0.537682,-0.403261 -0.403261,-0.194163 -1.209783,-0.403261 -1.299398,-0.328584 -1.956564,-0.836394 -0.642231,-0.522746 -0.642231,-1.49356 0,-1.030557 0.851329,-1.642916 0.85133,-0.627295 2.300083,-0.627295 1.747465,0 3.002055,0.911071 l -0.716908,1.060428 q -1.060428,-0.701973 -2.24034,-0.701973 -1.49356,0 -1.49356,0.866264 0,0.298712 0.164291,0.492875 0.179227,0.194163 0.597424,0.37339 0.418197,0.164292 1.239655,0.388326 1.284462,0.358454 1.911757,0.8812 0.642231,0.522746 0.642231,1.568238 0,1.209784 -1.000686,1.837079 -1.000685,0.61236 -2.479309,0.61236 -1.956564,0 -3.241026,-1.105235 l 0.881201,-1.01562 q 0.492875,0.388325 1.090299,0.627295 0.612359,0.224034 1.269526,0.224034 z"
       style="fill:#6699cc;stroke:none;stroke-width:1.05804801;stroke-miterlimit:4;stroke-dasharray:none"
       id="path15022" />
    <path
       d="m 41.885889,69.215127 q -0.477939,1.433818 -1.389011,2.24034 -0.896136,0.821458 -2.479309,0.955879 L 37.80847,71.156755 q 0.776652,-0.119485 1.254591,-0.37339 0.477939,-0.238969 0.761715,-0.612359 0.283777,-0.37339 0.507811,-0.98575 h -0.567553 l -2.658537,-7.885997 h 1.777337 l 1.986434,6.72102 2.016307,-6.72102 h 1.717594 z"
       style="fill:#6699cc;stroke:none;stroke-width:1.05804801;stroke-miterlimit:4;stroke-dasharray:none"
       id="path15024" />
    <path
       d="m 49.532921,68.109893 q 0.791587,0 1.239655,-0.283777 0.463004,-0.283776 0.463004,-0.776651 0,-0.343519 -0.134421,-0.552617 -0.13442,-0.224034 -0.537681,-0.403261 -0.403262,-0.194163 -1.209784,-0.403261 -1.299397,-0.328584 -1.956564,-0.836394 -0.64223,-0.522746 -0.64223,-1.49356 0,-1.030557 0.851329,-1.642916 0.851329,-0.627295 2.300082,-0.627295 1.747465,0 3.002056,0.911071 l -0.716909,1.060428 q -1.060428,-0.701973 -2.24034,-0.701973 -1.49356,0 -1.49356,0.866264 0,0.298712 0.164292,0.492875 0.179227,0.194163 0.597424,0.37339 0.418196,0.164292 1.239654,0.388326 1.284462,0.358454 1.911757,0.8812 0.642231,0.522746 0.642231,1.568238 0,1.209784 -1.000685,1.837079 -1.000685,0.61236 -2.47931,0.61236 -1.956563,0 -3.241025,-1.105235 l 0.8812,-1.01562 q 0.492875,0.388325 1.090299,0.627295 0.61236,0.224034 1.269526,0.224034 z"
       style="fill:#6699cc;stroke:none;stroke-width:1.05804801;stroke-miterlimit:4;stroke-dasharray:none"
       id="path15026" />
    <path
       d="m 62.213254,68.767059 q -0.448068,0.283777 -1.045492,0.448068 -0.597424,0.164292 -1.25459,0.164292 -1.344204,0 -2.076049,-0.687038 -0.731844,-0.701973 -0.731844,-1.896821 v -4.271582 h -1.747465 v -1.224719 h 1.747465 v -1.762401 l 1.672787,-0.194163 v 1.956564 h 2.673473 l -0.194163,1.224719 h -2.47931 v 4.256646 q 0,0.642231 0.328583,0.955879 0.328584,0.298712 1.045492,0.298712 0.791587,0 1.463689,-0.37339 z"
       style="fill:#6699cc;stroke:none;stroke-width:1.05804801;stroke-miterlimit:4;stroke-dasharray:none"
       id="path15028" />
    <path
       d="m 65.97703,65.779939 q 0.07468,1.150041 0.657167,1.73253 0.597424,0.567553 1.49356,0.567553 0.552617,0 1.045492,-0.164292 0.50781,-0.179227 1.030556,-0.522746 l 0.716909,1.015621 q -0.552617,0.463003 -1.299397,0.716909 -0.74678,0.253905 -1.568238,0.253905 -1.807208,0 -2.807893,-1.12017 -1.000686,-1.135106 -1.000686,-3.016991 0,-1.179913 0.433133,-2.120856 0.433132,-0.955878 1.25459,-1.49356 0.821458,-0.537681 1.911757,-0.537681 1.568238,0 2.47931,1.060427 0.926007,1.045492 0.926007,2.882571 0,0.448068 -0.04481,0.74678 z m 1.881886,-3.450124 q -0.806523,0 -1.314333,0.582489 -0.50781,0.582488 -0.582488,1.73253 h 3.659222 q -0.02987,-1.120171 -0.47794,-1.717595 -0.448068,-0.597424 -1.284461,-0.597424 z"
       style="fill:#6699cc;stroke:none;stroke-width:1.05804801;stroke-miterlimit:4;stroke-dasharray:none"
       id="path15030" />
    <path
       d="m 78.985943,61.090161 q 0.731844,0 1.150041,0.50781 0.418197,0.50781 0.418197,1.73253 v 5.854755 h -1.478625 v -5.630721 q 0,-0.657167 -0.104549,-0.911072 -0.08961,-0.253905 -0.418197,-0.253905 -0.627295,0 -1.164977,0.791587 v 6.004111 h -1.359139 v -5.630721 q 0,-0.657167 -0.10455,-0.911072 -0.08961,-0.253905 -0.418196,-0.253905 -0.627296,0 -1.164977,0.791587 v 6.004111 h -1.49356 v -7.885997 h 1.25459 l 0.119485,0.851329 q 0.37339,-0.522746 0.761716,-0.791587 0.388325,-0.26884 0.926007,-0.26884 1.045492,0 1.344204,1.000685 0.358454,-0.477939 0.776651,-0.731845 0.418197,-0.26884 0.955879,-0.26884 z"
       style="fill:#6699cc;stroke:none;stroke-width:1.05804801;stroke-miterlimit:4;stroke-dasharray:none"
       id="path15032" />
    <path
       d="m 84.631604,63.957796 q 0,1.418882 0.313648,2.494245 0.313647,1.075363 0.955878,2.016306 0.657166,0.940943 1.777336,2.016306 l -0.911071,0.896136 q -1.941628,-1.613045 -2.897507,-3.315703 -0.955878,-1.717594 -0.955878,-4.10729 0,-2.389696 0.955878,-4.092355 0.955879,-1.717594 2.897507,-3.330638 l 0.911071,0.896136 q -1.105234,1.060427 -1.7624,2.00137 -0.642231,0.926007 -0.970814,2.016306 -0.313648,1.090299 -0.313648,2.509181 z"
       style="fill:#5fb3b3;stroke:none;stroke-width:1.05804801;stroke-miterlimit:4;stroke-dasharray:none"
       id="path15034" />
    <path
       d="m 13.478361,79.759661 q 1.314333,0 2.090984,0.98575 l 0.104549,-0.776652 h 1.448753 V 91.080846 L 15.44986,90.886683 v -3.898191 q -0.806522,1.060427 -2.150726,1.060427 -1.49356,0 -2.195533,-1.075363 -0.701974,-1.090299 -0.701974,-3.061798 0,-1.852015 0.806523,-3.002056 0.821458,-1.150041 2.270211,-1.150041 z m 0.418197,1.284462 q -1.73253,0 -1.73253,2.867635 0,1.478624 0.388326,2.165662 0.403261,0.672102 1.194848,0.672102 0.537681,0 0.955878,-0.298712 0.433133,-0.298712 0.74678,-0.806522 v -3.718965 q -0.597424,-0.8812 -1.553302,-0.8812 z"
       style="fill:#cccece;stroke:none;stroke-width:1.05804801;stroke-miterlimit:4;stroke-dasharray:none"
       id="path15036" />
    <path
       d="m 21.588397,81.402577 q 0,-0.552617 0.388326,-0.940943 0.388326,-0.403261 0.940943,-0.403261 0.567553,0 0.955878,0.403261 0.388326,0.388326 0.388326,0.940943 0,0.552617 -0.388326,0.955878 -0.388325,0.388326 -0.955878,0.388326 -0.552617,0 -0.940943,-0.388326 -0.388326,-0.403261 -0.388326,-0.955878 z m 0,5.302138 q 0,-0.552617 0.388326,-0.940943 0.388326,-0.388325 0.940943,-0.388325 0.582488,0 0.955878,0.388325 0.388326,0.388326 0.388326,0.940943 0,0.567553 -0.388326,0.955879 -0.37339,0.388325 -0.955878,0.388325 -0.552617,0 -0.940943,-0.388325 -0.388326,-0.388326 -0.388326,-0.955879 z"
       style="fill:#5fb3b3;stroke:none;stroke-width:1.05804801;stroke-miterlimit:4;stroke-dasharray:none"
       id="path15038" />
    <path
       d="m 44.76846,82.701974 q 0,1.687723 -0.50781,2.882571 -0.492875,1.179913 -1.642916,1.792272 1.150041,0.224034 1.792272,0.761716 0.657166,0.552617 1.045492,1.702658 l -1.598109,0.597424 Q 43.51387,89.587286 43.125544,89.06454 42.737219,88.55673 42.15473,88.287889 q -0.582488,-0.268841 -1.448753,-0.268841 -1.807208,0 -2.778022,-1.403946 -0.955878,-1.418882 -0.955878,-3.898192 0,-2.464374 1.000685,-3.913127 1.015621,-1.463689 2.897506,-1.463689 1.896822,0 2.897507,1.433817 1.000685,1.433818 1.000685,3.928063 z m -1.807207,0 q 0,-2.046177 -0.492875,-3.016991 -0.477939,-0.98575 -1.59811,-0.98575 -1.12017,0 -1.613044,0.98575 -0.47794,0.98575 -0.47794,3.031927 0,2.031241 0.492875,3.016991 0.507811,0.970814 1.598109,0.970814 1.120171,0 1.59811,-0.970814 0.492875,-0.98575 0.492875,-3.031927 z"
       style="fill:#cccece;stroke:none;stroke-width:1.05804801;stroke-miterlimit:4;stroke-dasharray:none"
       id="path15040" />
    <path
       d="m 48.338073,85.479996 q 0,0.687038 0.268841,1.000685 0.283776,0.298712 0.851329,0.298712 0.537682,0 1.030557,-0.313647 0.50781,-0.313648 0.806522,-0.791587 v -5.7054 h 1.672787 v 7.885997 h -1.448753 l -0.104549,-1.01562 q -0.418197,0.582488 -1.090299,0.896136 -0.672102,0.313647 -1.389011,0.313647 -1.135105,0 -1.702658,-0.612359 -0.567553,-0.61236 -0.567553,-1.747466 v -5.720335 h 1.672787 z"
       style="fill:#cccece;stroke:none;stroke-width:1.05804801;stroke-miterlimit:4;stroke-dasharray:none"
       id="path15042" />
    <path
       d="m 57.015665,84.449439 q 0.07468,1.150042 0.657167,1.73253 0.597424,0.567553 1.49356,0.567553 0.552617,0 1.045492,-0.164292 0.50781,-0.179227 1.030556,-0.522746 l 0.716909,1.015621 q -0.552617,0.463004 -1.299397,0.716909 -0.74678,0.253905 -1.568238,0.253905 -1.807208,0 -2.807893,-1.12017 -1.000685,-1.135105 -1.000685,-3.016991 0,-1.179913 0.433132,-2.120855 0.433133,-0.955879 1.254591,-1.49356 0.821458,-0.537682 1.911756,-0.537682 1.568238,0 2.47931,1.060428 0.926007,1.045492 0.926007,2.88257 0,0.448068 -0.04481,0.74678 z m 1.881886,-3.450123 q -0.806522,0 -1.314333,0.582488 -0.50781,0.582489 -0.582488,1.73253 h 3.659222 q -0.02987,-1.12017 -0.477939,-1.717594 -0.448068,-0.597424 -1.284462,-0.597424 z"
       style="fill:#cccece;stroke:none;stroke-width:1.05804801;stroke-miterlimit:4;stroke-dasharray:none"
       id="path15044" />
    <path
       d="m 70.173934,79.774597 q 0.612359,0 1.194848,0.194162 l -0.283777,2.912442 h -1.194848 v -1.613044 q -0.821458,0.01493 -1.433817,0.657166 -0.597424,0.642231 -0.955879,1.807208 v 2.927377 h 1.583174 v 1.194848 h -4.420938 v -1.194848 h 1.164977 V 81.163607 H 64.662697 V 79.968759 H 67.0972 l 0.298712,1.822144 q 0.463004,-1.015621 1.12017,-1.508496 0.672102,-0.50781 1.657852,-0.50781 z"
       style="fill:#cccece;stroke:none;stroke-width:1.05804801;stroke-miterlimit:4;stroke-dasharray:none"
       id="path15046" />
    <path
       d="m 77.731352,87.884628 q -0.477939,1.433817 -1.389011,2.24034 -0.896136,0.821458 -2.479309,0.955878 l -0.209099,-1.25459 q 0.776651,-0.119485 1.254591,-0.37339 0.477939,-0.23897 0.761715,-0.61236 0.283777,-0.37339 0.507811,-0.98575 H 75.610497 L 72.95196,79.968759 h 1.777336 l 1.986435,6.721021 2.016306,-6.721021 h 1.717594 z"
       style="fill:#cccece;stroke:none;stroke-width:1.05804801;stroke-miterlimit:4;stroke-dasharray:none"
       id="path15048" />
    <path
       d="m 88.947992,80.088244 -5.12291,3.091669 5.12291,3.076734 -0.821458,1.209784 -5.73527,-3.569609 v -1.448753 l 5.780077,-3.569608 z"
       style="fill:#5fb3b3;stroke:none;stroke-width:1.05804801;stroke-miterlimit:4;stroke-dasharray:none"
       id="path15050" />
    <path
       d="m 93.592969,82.627296 q 0,1.418882 0.313647,2.494246 0.313648,1.075363 0.955879,2.016306 0.657166,0.940942 1.777336,2.016306 L 95.72876,90.05029 q -1.941628,-1.613045 -2.897507,-3.315704 -0.955878,-1.717594 -0.955878,-4.10729 0,-2.389696 0.955878,-4.092354 0.955879,-1.717594 2.897507,-3.330639 l 0.911071,0.896136 q -1.105234,1.060428 -1.762401,2.00137 -0.64223,0.926008 -0.970814,2.016306 -0.313647,1.090299 -0.313647,2.509181 z"
       style="fill:#5fb3b3;stroke:none;stroke-width:1.05804801;stroke-miterlimit:4;stroke-dasharray:none"
       id="path15052" />
    <path
       d="m 102.52446,81.97013 h 3.7339 v 1.299397 h -3.7339 v 3.270897 h 4.55536 v 1.314332 h -6.28789 V 77.549192 h 6.19828 l -0.19417,1.314333 h -4.27158 z"
       style="fill:#cccece;stroke:none;stroke-width:1.05804801;stroke-miterlimit:4;stroke-dasharray:none"
       id="path15054" />
    <path
       d="m 109.39485,79.968759 h 1.44875 l 0.11949,1.030557 q 0.49287,-0.597424 1.15004,-0.911072 0.6721,-0.328583 1.40395,-0.328583 1.0903,0 1.64291,0.61236 0.55262,0.612359 0.55262,1.732529 v 5.750206 h -1.67279 v -4.913812 q 0,-0.731845 -0.0896,-1.12017 -0.0747,-0.403261 -0.31365,-0.582489 -0.23897,-0.194162 -0.71691,-0.194162 -0.53768,0 -1.03055,0.328583 -0.47794,0.328583 -0.82146,0.821458 v 5.660592 h -1.67279 z"
       style="fill:#cccece;stroke:none;stroke-width:1.05804801;stroke-miterlimit:4;stroke-dasharray:none"
       id="path15056" />
    <path
       d="m 124.94282,87.43656 q -0.44807,0.283776 -1.0455,0.448068 -0.59742,0.164291 -1.25459,0.164291 -1.3442,0 -2.07605,-0.687037 -0.73184,-0.701974 -0.73184,-1.896822 v -4.271581 h -1.74747 v -1.22472 h 1.74747 v -1.7624 l 1.67279,-0.194163 v 1.956563 h 2.67347 l -0.19416,1.22472 h -2.47931 v 4.256646 q 0,0.642231 0.32858,0.955878 0.32858,0.298712 1.04549,0.298712 0.79159,0 1.46369,-0.37339 z"
       style="fill:#cccece;stroke:none;stroke-width:1.05804801;stroke-miterlimit:4;stroke-dasharray:none"
       id="path15058" />
    <path
       d="m 130.46899,76.100439 q 0.47794,0 0.77665,0.313648 0.31365,0.298712 0.31365,0.74678 0,0.448068 -0.31365,0.74678 -0.29871,0.298712 -0.77665,0.298712 -0.49287,0 -0.79159,-0.298712 -0.29871,-0.298712 -0.29871,-0.74678 0,-0.463004 0.29871,-0.761716 0.31365,-0.298712 0.79159,-0.298712 z m 1.15004,10.529598 h 2.15073 v 1.224719 h -6.1684 v -1.224719 h 2.34489 v -5.436558 h -2.27022 v -1.22472 h 3.943 z"
       style="fill:#cccece;stroke:none;stroke-width:1.05804801;stroke-miterlimit:4;stroke-dasharray:none"
       id="path15060" />
    <path
       d="m 142.86554,87.43656 q -0.44806,0.283776 -1.04549,0.448068 -0.59742,0.164291 -1.25459,0.164291 -1.3442,0 -2.07605,-0.687037 -0.73184,-0.701974 -0.73184,-1.896822 v -4.271581 h -1.74747 v -1.22472 h 1.74747 v -1.7624 l 1.67279,-0.194163 v 1.956563 h 2.67347 l -0.19416,1.22472 h -2.47931 v 4.256646 q 0,0.642231 0.32858,0.955878 0.32858,0.298712 1.04549,0.298712 0.79159,0 1.46369,-0.37339 z"
       style="fill:#cccece;stroke:none;stroke-width:1.05804801;stroke-miterlimit:4;stroke-dasharray:none"
       id="path15062" />
    <path
       d="m 149.42228,87.884628 q -0.47794,1.433817 -1.38901,2.24034 -0.89614,0.821458 -2.47931,0.955878 l -0.2091,-1.25459 q 0.77665,-0.119485 1.25459,-0.37339 0.47794,-0.23897 0.76171,-0.61236 0.28378,-0.37339 0.50782,-0.98575 h -0.56756 l -2.65853,-7.885997 h 1.77733 l 1.98644,6.721021 2.0163,-6.721021 h 1.7176 z"
       style="fill:#cccece;stroke:none;stroke-width:1.05804801;stroke-miterlimit:4;stroke-dasharray:none"
       id="path15064" />
    <path
       d="m 157.35309,85.166348 q 0.58248,0 0.97081,0.388326 0.40326,0.388326 0.40326,0.955878 0,0.328584 -0.10455,0.657167 -0.0896,0.328583 -0.32858,0.851329 l -1.15004,2.643601 h -1.2994 l 0.71691,-3.031927 q -0.25391,-0.179227 -0.4182,-0.477939 -0.14935,-0.298712 -0.14935,-0.642231 0,-0.567552 0.38832,-0.955878 0.40326,-0.388326 0.97082,-0.388326 z"
       style="fill:#5fb3b3;stroke:none;stroke-width:1.05804801;stroke-miterlimit:4;stroke-dasharray:none"
       id="path15066" />
    <path
       d="m 174.96217,77.355029 q 0.80652,0 1.43382,0.253906 0.62729,0.253905 1.20978,0.8812 l -0.94094,0.851329 q -0.38833,-0.418197 -0.76172,-0.597424 -0.35845,-0.194163 -0.85133,-0.194163 -0.6721,0 -1.03055,0.37339 -0.35846,0.37339 -0.35846,1.015621 0,0.657167 0.47794,1.12017 0.47794,0.448068 1.19485,0.448068 h 4.04755 v 1.194848 h -1.19485 v 4.002741 q -1.17991,1.344204 -3.24103,1.344204 -1.12017,0 -1.89682,-0.418197 -0.77665,-0.433132 -1.16498,-1.135105 -0.37339,-0.716909 -0.37339,-1.568238 0,-1.164977 0.58249,-1.881886 0.59743,-0.731844 1.7176,-0.98575 v -0.04481 q -0.91107,-0.224034 -1.34421,-0.791587 -0.43313,-0.582489 -0.43313,-1.389011 0,-0.687038 0.35845,-1.239655 0.37339,-0.567553 1.03056,-0.896136 0.6721,-0.343519 1.53837,-0.343519 z m 0.19416,5.346945 q -0.6721,0 -1.12017,0.313648 -0.44807,0.313647 -0.6721,0.806522 -0.22404,0.477939 -0.22404,1.015621 0,0.836394 0.47794,1.389011 0.47794,0.552617 1.40395,0.552617 0.52275,0 0.94094,-0.164291 0.43314,-0.179228 0.68704,-0.47794 v -3.435188 z"
       style="fill:#5fb3b3;stroke:none;stroke-width:1.05804801;stroke-miterlimit:4;stroke-dasharray:none"
       id="path15068" />
    <path
       d="m 188.18018,80.790217 q 0,1.73253 -1.07536,2.568924 -1.07537,0.821458 -2.94232,0.821458 h -1.25459 v 3.674157 h -1.71759 V 77.549192 h 2.8527 q 1.98643,0 3.0618,0.821458 1.07536,0.806523 1.07536,2.419567 z m -1.80721,0 q 0,-1.941628 -2.21047,-1.941628 h -1.25459 v 4.017677 h 1.26953 q 1.04549,0 1.61304,-0.477939 0.58249,-0.47794 0.58249,-1.59811 z"
       style="fill:#cccece;stroke:none;stroke-width:1.05804801;stroke-miterlimit:4;stroke-dasharray:none"
       id="path15070" />
    <path
       d="m 193.51219,85.70403 q 0,1.000685 1.19485,1.000685 0.59742,0 1.25459,-0.268841 l 0.4182,1.164977 q -0.82146,0.448068 -2.03124,0.448068 -1.17992,0 -1.85202,-0.657166 -0.65716,-0.672102 -0.65716,-1.837079 v -7.527543 h -2.37477 v -1.224719 h 4.04755 z"
       style="fill:#cccece;stroke:none;stroke-width:1.05804801;stroke-miterlimit:4;stroke-dasharray:none"
       id="path15072" />
    <path
       d="m 205.04248,85.928064 q 0,0.448068 0.13442,0.672102 0.13442,0.209098 0.463,0.313648 l -0.38832,1.135105 q -1.23966,-0.149356 -1.62798,-1.090299 -0.43313,0.537682 -1.0903,0.821458 -0.64223,0.268841 -1.41888,0.268841 -1.19485,0 -1.89682,-0.672102 -0.70198,-0.672102 -0.70198,-1.777336 0,-1.239655 0.97082,-1.911757 0.98575,-0.672102 2.77802,-0.672102 h 1.12017 v -0.507811 q 0,-0.74678 -0.44807,-1.090298 -0.44807,-0.343519 -1.2994,-0.343519 -0.41819,0 -0.97081,0.104549 -0.55262,0.104549 -1.12017,0.298712 l -0.4182,-1.179912 q 1.41888,-0.537682 2.76309,-0.537682 1.56824,0 2.35982,0.687038 0.79159,0.687037 0.79159,1.956563 z m -3.43519,0.896136 q 0.52275,0 1.00069,-0.268841 0.49287,-0.268841 0.77665,-0.74678 v -1.747465 h -0.92601 q -1.1351,0 -1.65785,0.388325 -0.52275,0.37339 -0.52275,1.090299 0,0.627296 0.32859,0.955879 0.34352,0.328583 1.00068,0.328583 z"
       style="fill:#cccece;stroke:none;stroke-width:1.05804801;stroke-miterlimit:4;stroke-dasharray:none"
       id="path15074" />
    <path
       d="m 212.15183,87.884628 q -0.47794,1.433817 -1.38901,2.24034 -0.89614,0.821458 -2.47931,0.955878 l -0.2091,-1.25459 q 0.77665,-0.119485 1.25459,-0.37339 0.47794,-0.23897 0.76172,-0.61236 0.28377,-0.37339 0.50781,-0.98575 h -0.56755 l -2.65854,-7.885997 h 1.77734 l 1.98643,6.721021 2.01631,-6.721021 h 1.71759 z"
       style="fill:#cccece;stroke:none;stroke-width:1.05804801;stroke-miterlimit:4;stroke-dasharray:none"
       id="path15076" />
    <path
       d="m 218.32025,84.449439 q 0.0747,1.150042 0.65717,1.73253 0.59742,0.567553 1.49356,0.567553 0.55262,0 1.04549,-0.164292 0.50781,-0.179227 1.03056,-0.522746 l 0.71691,1.015621 q -0.55262,0.463004 -1.2994,0.716909 -0.74678,0.253905 -1.56824,0.253905 -1.80721,0 -2.80789,-1.12017 -1.00069,-1.135105 -1.00069,-3.016991 0,-1.179913 0.43314,-2.120855 0.43313,-0.955879 1.25459,-1.49356 0.82145,-0.537682 1.91175,-0.537682 1.56824,0 2.47931,1.060428 0.92601,1.045492 0.92601,2.88257 0,0.448068 -0.0448,0.74678 z m 1.88189,-3.450123 q -0.80652,0 -1.31433,0.582488 -0.50781,0.582489 -0.58249,1.73253 h 3.65922 q -0.0299,-1.12017 -0.47794,-1.717594 -0.44807,-0.597424 -1.28446,-0.597424 z"
       style="fill:#cccece;stroke:none;stroke-width:1.05804801;stroke-miterlimit:4;stroke-dasharray:none"
       id="path15078" />
    <path
       d="m 231.47852,79.774597 q 0.61236,0 1.19485,0.194162 l -0.28378,2.912442 h -1.19484 v -1.613044 q -0.82146,0.01493 -1.43382,0.657166 -0.59743,0.642231 -0.95588,1.807208 v 2.927377 h 1.58317 v 1.194848 h -4.42093 v -1.194848 h 1.16497 v -5.496301 h -1.16497 v -1.194848 h 2.4345 l 0.29871,1.822144 q 0.463,-1.015621 1.12017,-1.508496 0.6721,-0.50781 1.65785,-0.50781 z"
       style="fill:#cccece;stroke:none;stroke-width:1.05804801;stroke-miterlimit:4;stroke-dasharray:none"
       id="path15080" />
    <path
       d="m 239.03594,82.627296 q 0,-1.418882 -0.32858,-2.509181 -0.31365,-1.090298 -0.97082,-2.016306 -0.64223,-0.940942 -1.74746,-2.00137 l 0.91107,-0.896136 q 1.94163,1.613045 2.89751,3.330639 0.95587,1.702658 0.95587,4.092354 0,2.389696 -0.95587,4.10729 -0.95588,1.702659 -2.89751,3.315704 l -0.91107,-0.896136 q 1.12017,-1.075364 1.7624,-2.016306 0.65717,-0.940943 0.97081,-2.016306 0.31365,-1.075364 0.31365,-2.494246 z"
       style="fill:#5fb3b3;stroke:none;stroke-width:1.05804801;stroke-miterlimit:4;stroke-dasharray:none"
       id="path15082" />
    <path
       d="m 250.25258,82.448069 v 1.448753 l -5.73527,3.569609 -0.82146,-1.194848 5.10798,-3.09167 -5.10798,-3.061798 0.77665,-1.239654 z"
       style="fill:#5fb3b3;stroke:none;stroke-width:1.05804801;stroke-miterlimit:4;stroke-dasharray:none"
       id="path15084" />
    <path
       d="m 6.0404265,101.2968 q 0,-1.418885 -0.3285832,-2.509184 Q 5.3981957,97.697317 4.7410293,96.77131 4.0987985,95.830367 2.9935641,94.769939 l 0.9110716,-0.896136 q 1.941628,1.613045 2.8975064,3.330639 0.9558784,1.702659 0.9558784,4.092358 0,2.38969 -0.9558784,4.10729 -0.9558784,1.70266 -2.8975064,3.3157 l -0.9110716,-0.89614 q 1.12017,-1.07536 1.7624008,-2.0163 0.6571664,-0.94094 0.970814,-2.01631 0.3136476,-1.07536 0.3136476,-2.49424 z"
       style="font-weight:500;-inkscape-font-specification:'Fira Mono Medium';fill:#5fb3b3;stroke:none;stroke-width:1.05804801;stroke-miterlimit:4;stroke-dasharray:none"
       id="path15086" />
    <path
       d="m 25.277491,95.262814 q -0.851329,0 -1.299397,0.253905 -0.448069,0.23897 -0.388326,0.836394 l 0.268841,2.74815 q 0.01493,0.134421 0.01493,0.37339 0,0.821457 -0.448068,1.254587 -0.433132,0.4182 -1.299397,0.56756 0.896136,0.14935 1.314333,0.55261 0.433132,0.40327 0.433132,1.23966 0,0.26884 -0.01493,0.40326 l -0.268841,2.74815 q -0.05974,0.61236 0.388326,0.85133 0.448068,0.23897 1.299397,0.23897 v 1.23965 q -1.568238,0 -2.419568,-0.49287 -0.836393,-0.47794 -0.836393,-1.64292 0,-0.22403 0.01494,-0.34352 l 0.283777,-2.58385 q 0.01494,-0.0747 0.01494,-0.23897 0,-0.68704 -0.50781,-0.98575 -0.50781,-0.31365 -1.687723,-0.31365 v -1.34421 q 1.179913,0 1.687723,-0.29871 0.50781,-0.31365 0.50781,-1.000683 0,-0.149356 -0.01494,-0.224034 l -0.283777,-2.583858 q -0.01494,-0.119485 -0.01494,-0.343519 0,-1.164977 0.836393,-1.657852 0.85133,-0.492875 2.419568,-0.492875 z"
       style="font-weight:500;-inkscape-font-specification:'Fira Mono Medium';fill:#5fb3b3;stroke:none;stroke-width:1.05804801;stroke-miterlimit:4;stroke-dasharray:none"
       id="path15088" />
    <path
       d="m 2.6649808,112.69266 q 1.5682381,0 2.4046317,0.49287 0.8513292,0.47794 0.8513292,1.64292 0,0.22403 -0.014936,0.34352 l -0.2837764,2.59879 -0.014936,0.2091 q 0,0.68704 0.522746,1.00069 0.5376816,0.31364 1.6727872,0.31364 v 1.34421 q -1.1351056,0 -1.6727872,0.32858 -0.522746,0.31365 -0.522746,1.00069 l 0.014936,0.2091 0.2837764,2.56892 q 0.014936,0.11948 0.014936,0.34352 0,1.16497 -0.8513292,1.65785 -0.8363936,0.49287 -2.4046317,0.49287 v -1.23965 q 0.8513293,0 1.2993973,-0.23897 0.448068,-0.23897 0.3883256,-0.85133 l -0.2688408,-2.74815 q -0.014936,-0.13442 -0.014936,-0.38833 0,-0.83639 0.448068,-1.23965 0.448068,-0.4182 1.4039464,-0.55262 -0.9409428,-0.16429 -1.4039464,-0.58249 -0.448068,-0.41819 -0.448068,-1.25459 0,-0.23897 0.014936,-0.37339 l 0.2688408,-2.74815 q 0.059742,-0.59742 -0.4032612,-0.83639 -0.448068,-0.25391 -1.2844617,-0.25391 z"
       style="font-weight:500;-inkscape-font-specification:'Fira Mono Medium';fill:#5fb3b3;stroke:none;stroke-width:1.05804801;stroke-miterlimit:4;stroke-dasharray:none"
       id="path15090" />
  </g>
</svg>
