<?xml version="1.0" encoding="UTF-8" standalone="no"?>
<svg
   xmlns:dc="http://purl.org/dc/elements/1.1/"
   xmlns:cc="http://creativecommons.org/ns#"
   xmlns:rdf="http://www.w3.org/1999/02/22-rdf-syntax-ns#"
   xmlns:svg="http://www.w3.org/2000/svg"
   xmlns="http://www.w3.org/2000/svg"
   xmlns:sodipodi="http://sodipodi.sourceforge.net/DTD/sodipodi-0.dtd"
   xmlns:inkscape="http://www.inkscape.org/namespaces/inkscape"
   inkscape:version="1.0 (4035a4fb49, 2020-05-01)"
   sodipodi:docname="bevy_tasks_1.svg"
   id="svg985"
   xml:space="preserve"
   stroke-linejoin="round"
   stroke-width="28.222"
   version="1.1"
   viewBox="0 0 16000 9000"
   height="90mm"
   width="160mm"><metadata
   id="metadata991"><rdf:RDF><cc:Work
       rdf:about=""><dc:format>image/svg+xml</dc:format><dc:type
         rdf:resource="http://purl.org/dc/dcmitype/StillImage" /><dc:title></dc:title></cc:Work></rdf:RDF></metadata><defs
   id="defs989" /><sodipodi:namedview
   inkscape:current-layer="svg985"
   inkscape:window-maximized="1"
   inkscape:window-y="0"
   inkscape:window-x="0"
   inkscape:cy="171.79954"
   inkscape:cx="304.83048"
   inkscape:zoom="2.5901387"
   showgrid="false"
   id="namedview987"
   inkscape:window-height="1440"
   inkscape:window-width="3440"
   inkscape:pageshadow="2"
   inkscape:pageopacity="0"
   guidetolerance="10"
   gridtolerance="10"
   objecttolerance="10"
   borderopacity="1"
   bordercolor="#666666"
   pagecolor="#ffffff" />
 <path
   style="fill:#4a96dc;fill-opacity:1"
   id="path899"
   d="M 11994,8171 L 14450,8171 14450,5573 11994,5573 11994,8171 Z"
   stroke="none"
   fill="rgb(0,69,134)" /><path
   style="fill:#474747;fill-opacity:1"
   id="path901"
   d="M 7082,8171 L 9537,8171 9537,2976 7082,2976 7082,8171 Z"
   stroke="none"
   fill="rgb(0,69,134)" /><path
   style="fill:#474747;fill-opacity:1"
   id="path903"
   d="M 2169,8171 L 4625,8171 4625,1677 2169,1677 2169,8171 Z"
   stroke="none"
   fill="rgb(0,69,134)" />
 
 <path
   style="fill:#ececec;fill-opacity:1;stroke:#ececec;stroke-opacity:1"
   id="path837"
   d="M 15679,8171 L 941,8171"
   stroke-linejoin="round"
   stroke="rgb(179,179,179)"
   fill="none" />
 
 
 
 
 
 
 <path
   style="fill:#ececec;fill-opacity:1;stroke:#ececec;stroke-opacity:1"
   id="path851"
   d="M 941,8321 L 941,8171"
   stroke-linejoin="round"
   stroke="rgb(179,179,179)"
   fill="none" />
 <path
   style="fill:#ececec;fill-opacity:1;stroke:#ececec;stroke-opacity:1"
   id="path853"
   d="M 941,8321 L 941,8171"
   stroke-linejoin="round"
   stroke="rgb(179,179,179)"
   fill="none" />
 <path
   style="fill:#ececec;fill-opacity:1;stroke:#ececec;stroke-opacity:1"
   id="path855"
   d="M 5854,8321 L 5854,8171"
   stroke-linejoin="round"
   stroke="rgb(179,179,179)"
   fill="none" />
 <path
   style="fill:#ececec;fill-opacity:1;stroke:#ececec;stroke-opacity:1"
   id="path857"
   d="M 5854,8321 L 5854,8171"
   stroke-linejoin="round"
   stroke="rgb(179,179,179)"
   fill="none" />
 <path
   style="fill:#ececec;fill-opacity:1;stroke:#ececec;stroke-opacity:1"
   id="path859"
   d="M 10766,8321 L 10766,8171"
   stroke-linejoin="round"
   stroke="rgb(179,179,179)"
   fill="none" />
 <path
   style="fill:#ececec;fill-opacity:1;stroke:#ececec;stroke-opacity:1"
   id="path861"
   d="M 10766,8321 L 10766,8171"
   stroke-linejoin="round"
   stroke="rgb(179,179,179)"
   fill="none" />
 <path
   style="fill:#ececec;fill-opacity:1;stroke:#ececec;stroke-opacity:1"
   id="path863"
   d="M 15679,8321 L 15679,8171"
   stroke-linejoin="round"
   stroke="rgb(179,179,179)"
   fill="none" />
 <path
   style="fill:#ececec;fill-opacity:1;stroke:#ececec;stroke-opacity:1"
   id="path865"
   d="M 15679,8321 L 15679,8171"
   stroke-linejoin="round"
   stroke="rgb(179,179,179)"
   fill="none" />
 <path
   style="fill:#ececec;fill-opacity:1;stroke:#ececec;stroke-opacity:1"
   id="path867"
   d="M 941,8171 L 15679,8171"
   stroke-linejoin="round"
   stroke="rgb(179,179,179)"
   fill="none" />
 <path
   style="fill:#ececec;fill-opacity:1;stroke:#ececec;stroke-opacity:1"
   id="path869"
   d="M 791,8171 L 941,8171"
   stroke-linejoin="round"
   stroke="rgb(179,179,179)"
   fill="none" />
 <path
   style="fill:#ececec;fill-opacity:1;stroke:#ececec;stroke-opacity:1"
   id="path871"
   d="M 791,8171 L 941,8171"
   stroke-linejoin="round"
   stroke="rgb(179,179,179)"
   fill="none" />
 <path
   style="fill:#ececec;fill-opacity:1;stroke:#ececec;stroke-opacity:1"
   id="path873"
   d="M 791,6872 L 941,6872"
   stroke-linejoin="round"
   stroke="rgb(179,179,179)"
   fill="none" />
 <path
   style="fill:#ececec;fill-opacity:1;stroke:#ececec;stroke-opacity:1"
   id="path875"
   d="M 791,6872 L 941,6872"
   stroke-linejoin="round"
   stroke="rgb(179,179,179)"
   fill="none" />
 <path
   style="fill:#ececec;fill-opacity:1;stroke:#ececec;stroke-opacity:1"
   id="path877"
   d="M 791,5573 L 941,5573"
   stroke-linejoin="round"
   stroke="rgb(179,179,179)"
   fill="none" />
 <path
   style="fill:#ececec;fill-opacity:1;stroke:#ececec;stroke-opacity:1"
   id="path879"
   d="M 791,5573 L 941,5573"
   stroke-linejoin="round"
   stroke="rgb(179,179,179)"
   fill="none" />
 <path
   style="fill:#ececec;fill-opacity:1;stroke:#ececec;stroke-opacity:1"
   id="path881"
   d="M 791,4275 L 941,4275"
   stroke-linejoin="round"
   stroke="rgb(179,179,179)"
   fill="none" />
 <path
   style="fill:#ececec;fill-opacity:1;stroke:#ececec;stroke-opacity:1"
   id="path883"
   d="M 791,4275 L 941,4275"
   stroke-linejoin="round"
   stroke="rgb(179,179,179)"
   fill="none" />
 <path
   style="fill:#ececec;fill-opacity:1;stroke:#ececec;stroke-opacity:1"
   id="path885"
   d="M 791,2976 L 941,2976"
   stroke-linejoin="round"
   stroke="rgb(179,179,179)"
   fill="none" />
 <path
   style="fill:#ececec;fill-opacity:1;stroke:#ececec;stroke-opacity:1"
   id="path887"
   d="M 791,2976 L 941,2976"
   stroke-linejoin="round"
   stroke="rgb(179,179,179)"
   fill="none" />
 <path
   style="fill:#ececec;fill-opacity:1;stroke:#ececec;stroke-opacity:1"
   id="path889"
   d="M 791,1677 L 941,1677"
   stroke-linejoin="round"
   stroke="rgb(179,179,179)"
   fill="none" />
 <path
   style="fill:#ececec;fill-opacity:1;stroke:#ececec;stroke-opacity:1"
   id="path891"
   d="M 791,1677 L 941,1677"
   stroke-linejoin="round"
   stroke="rgb(179,179,179)"
   fill="none" />
 <path
   style="fill:#ececec;fill-opacity:1;stroke:#ececec;stroke-opacity:1"
   id="path893"
   d="M 791,378 L 941,378"
   stroke-linejoin="round"
   stroke="rgb(179,179,179)"
   fill="none" />
 <path
   style="fill:#ececec;fill-opacity:1;stroke:#ececec;stroke-opacity:1"
   id="path895"
   d="M 791,378 L 941,378"
   stroke-linejoin="round"
   stroke="rgb(179,179,179)"
   fill="none" />
 <path
   style="fill:#ececec;fill-opacity:1;stroke:#ececec;stroke-opacity:1"
   id="path897"
   d="M 941,8171 L 941,378"
   stroke-linejoin="round"
   stroke="rgb(179,179,179)"
   fill="none" />
 
 
 
 <g
   style="fill:#ececec;fill-opacity:1"
   class="TextShape"
   id="text911"
   aria-label="rayon 1.3"><path
     id="path1026"
     style="fill:#ececec;stroke:none;fill-opacity:1"
     d="m 2706.4756,8739 v -143.0615 q 0,-19.6494 -1.0342,-43.4356 h 29.3018 q 1.3789,31.7149 1.3789,38.0923 h 0.6894 q 7.4116,-23.9585 17.064,-32.749 9.6523,-8.7905 27.2334,-8.7905 6.2051,0 12.5825,1.7236 v 28.4399 q -6.2051,-1.7236 -16.5469,-1.7236 -19.3047,0 -29.4741,16.7192 -10.1694,16.5469 -10.1694,47.5723 V 8739 Z" /><path
     id="path1028"
     style="fill:#ececec;stroke:none;fill-opacity:1"
     d="m 2870.9102,8742.4473 q -28.0953,0 -42.229,-14.8233 -14.1338,-14.8232 -14.1338,-40.6777 0,-28.957 18.9599,-44.4697 19.1323,-15.5127 61.5337,-16.5469 l 41.8843,-0.6895 v -10.1694 q 0,-22.752 -9.6524,-32.5767 -9.6523,-9.8247 -30.3359,-9.8247 -20.8559,0 -30.3359,7.0669 -9.48,7.0669 -11.376,22.5796 l -32.4043,-2.9302 q 7.9287,-50.33 74.8057,-50.33 35.1621,0 52.9155,16.2021 17.7534,16.0298 17.7534,46.5381 v 80.3213 q 0,13.7891 3.6196,20.8559 3.6197,6.8946 13.7891,6.8946 4.4814,0 10.1694,-1.2066 v 19.3047 q -11.7207,2.7578 -23.9585,2.7578 -17.2363,0 -25.165,-8.9629 -7.7563,-9.1352 -8.7905,-28.4399 h -1.0342 q -11.8931,21.373 -27.7505,30.3359 -15.6851,8.7906 -38.2646,8.7906 z m 7.0669,-23.2691 q 17.0639,0 30.3359,-7.7563 13.272,-7.7564 20.8559,-21.2007 7.7564,-13.6167 7.7564,-27.9229 v -15.3403 l -33.9556,0.6895 q -21.8901,0.3447 -33.2661,4.4814 -11.2036,4.1367 -17.2363,12.7549 -6.0327,8.6182 -6.0327,22.5796 0,15.1679 8.101,23.4414 8.2735,8.2734 23.4415,8.2734 z" /><path
     id="path1030"
     style="fill:#ececec;stroke:none;fill-opacity:1"
     d="m 3028.7949,8812.2544 q -12.7549,0 -21.373,-1.896 v -23.269 q 6.5498,1.0341 14.4785,1.0341 28.957,0 45.8486,-42.5737 l 2.9302,-7.4116 -73.9438,-185.6353 h 33.0937 l 39.2988,103.0733 q 0.8618,2.4131 2.0684,5.8603 1.2065,3.2749 7.7563,22.4073 6.5498,19.1323 7.0669,21.373 l 12.0655,-33.9556 40.8501,-118.7583 h 32.749 L 3099.981,8739 q -11.5484,29.8188 -21.5455,44.2974 -9.997,14.6508 -22.2348,21.7177 -12.0654,7.2393 -27.4058,7.2393 z" /><path
     id="path1032"
     style="fill:#ececec;stroke:none;fill-opacity:1"
     d="m 3353.8721,8645.5791 q 0,48.9512 -21.5454,72.9097 -21.5454,23.9585 -62.5679,23.9585 -40.8501,0 -61.7061,-24.8203 -20.8559,-24.9927 -20.8559,-72.0479 0,-96.5234 83.5962,-96.5234 42.7461,0 62.9126,23.6137 20.1665,23.4414 20.1665,72.9097 z m -32.5767,0 q 0,-38.6094 -11.5483,-56.0181 -11.376,-17.581 -38.437,-17.581 -27.2334,0 -39.4712,17.9258 -12.0655,17.7534 -12.0655,55.6733 0,36.8857 11.8931,55.501 12.0654,18.4428 37.7476,18.4428 27.9228,0 39.8159,-17.9257 12.0654,-17.9258 12.0654,-56.0181 z" /><path
     id="path1034"
     style="fill:#ececec;stroke:none;fill-opacity:1"
     d="m 3510.895,8739 v -118.2412 q 0,-18.4429 -3.6196,-28.6123 -3.6196,-10.1694 -11.5483,-14.6509 -7.9288,-4.4814 -23.2691,-4.4814 -22.4072,0 -35.3345,15.3403 -12.9272,15.3403 -12.9272,42.5737 V 8739 h -31.0254 v -146.6812 q 0,-32.5766 -1.0342,-39.8159 h 29.3018 q 0.1723,0.8618 0.3447,4.6538 0.1724,3.792 0.3447,8.7906 0.3448,4.8261 0.6895,18.4428 h 0.5171 q 10.6865,-19.3047 24.6479,-27.2334 14.1338,-8.101 34.9898,-8.101 30.6806,0 44.8144,15.3403 14.3062,15.168 14.3062,50.3301 V 8739 Z" /><path
     id="path1036"
     style="fill:#ececec;stroke:none;fill-opacity:1"
     d="m 3689.9805,8739 v -26.3716 h 61.8784 v -186.8418 l -54.8115,39.1265 v -29.3018 l 57.3969,-39.4712 h 28.6123 v 216.4883 h 59.1206 V 8739 Z" /><path
     id="path1038"
     style="fill:#ececec;stroke:none;fill-opacity:1"
     d="m 3891.6455,8739 v -37.7476 h 33.6108 V 8739 Z" /><path
     id="path1040"
     style="fill:#ececec;stroke:none;fill-opacity:1"
     d="m 4138.2974,8671.9507 q 0,33.6108 -21.3731,52.0537 -21.373,18.4429 -61.0166,18.4429 -36.8857,0 -58.9482,-16.5469 -21.8902,-16.7192 -26.0269,-49.2959 l 32.0596,-2.9302 q 6.2051,43.0908 52.9155,43.0908 23.4414,0 36.7134,-11.5483 13.4443,-11.5483 13.4443,-34.3003 0,-19.8218 -15.3403,-30.853 -15.168,-11.2036 -43.9526,-11.2036 h -17.5811 v -26.8887 h 16.8916 q 25.5098,0 39.4712,-11.0313 14.1338,-11.2036 14.1338,-30.853 0,-19.477 -11.5484,-30.6806 -11.3759,-11.376 -33.9555,-11.376 -20.5112,0 -33.2661,10.5141 -12.5826,10.5142 -14.6509,29.6465 l -31.1978,-2.4131 q 3.4473,-29.8188 24.648,-46.5381 21.373,-16.7192 54.8115,-16.7192 36.541,0 56.7075,17.064 20.3389,16.8916 20.3389,47.2275 0,23.2691 -13.0996,37.9199 -12.9273,14.4785 -37.7476,19.6494 v 0.6895 q 27.2334,2.9302 42.4014,18.2705 15.168,15.3403 15.168,38.6094 z" /></g>
 <g
   style="fill:#ececec;fill-opacity:1"
   class="TextShape"
   id="text919"
   aria-label="rayon 1.4"><path
     id="path1043"
     style="fill:#ececec;stroke:none;fill-opacity:1"
     d="m 7619.4756,8739 v -143.0615 q 0,-19.6494 -1.0342,-43.4356 h 29.3018 q 1.3789,31.7149 1.3789,38.0923 h 0.6894 q 7.4116,-23.9585 17.064,-32.749 9.6523,-8.7905 27.2334,-8.7905 6.2051,0 12.5825,1.7236 v 28.4399 q -6.2051,-1.7236 -16.5469,-1.7236 -19.3047,0 -29.4741,16.7192 -10.1694,16.5469 -10.1694,47.5723 V 8739 Z" /><path
     id="path1045"
     style="fill:#ececec;stroke:none;fill-opacity:1"
     d="m 7783.9102,8742.4473 q -28.0953,0 -42.229,-14.8233 -14.1338,-14.8232 -14.1338,-40.6777 0,-28.957 18.9599,-44.4697 19.1323,-15.5127 61.5337,-16.5469 l 41.8843,-0.6895 v -10.1694 q 0,-22.752 -9.6524,-32.5767 -9.6523,-9.8247 -30.3359,-9.8247 -20.8559,0 -30.3359,7.0669 -9.48,7.0669 -11.376,22.5796 l -32.4043,-2.9302 q 7.9287,-50.33 74.8057,-50.33 35.1621,0 52.9155,16.2021 17.7534,16.0298 17.7534,46.5381 v 80.3213 q 0,13.7891 3.6196,20.8559 3.6197,6.8946 13.7891,6.8946 4.4814,0 10.1694,-1.2066 v 19.3047 q -11.7207,2.7578 -23.9585,2.7578 -17.2363,0 -25.165,-8.9629 -7.7563,-9.1352 -8.7905,-28.4399 h -1.0342 q -11.8931,21.373 -27.7505,30.3359 -15.6851,8.7906 -38.2646,8.7906 z m 7.0669,-23.2691 q 17.0639,0 30.3359,-7.7563 13.272,-7.7564 20.8559,-21.2007 7.7564,-13.6167 7.7564,-27.9229 v -15.3403 l -33.9556,0.6895 q -21.8901,0.3447 -33.2661,4.4814 -11.2036,4.1367 -17.2363,12.7549 -6.0327,8.6182 -6.0327,22.5796 0,15.1679 8.101,23.4414 8.2735,8.2734 23.4415,8.2734 z" /><path
     id="path1047"
     style="fill:#ececec;stroke:none;fill-opacity:1"
     d="m 7941.7949,8812.2544 q -12.7549,0 -21.373,-1.896 v -23.269 q 6.5498,1.0341 14.4785,1.0341 28.957,0 45.8486,-42.5737 l 2.9302,-7.4116 -73.9438,-185.6353 h 33.0937 l 39.2988,103.0733 q 0.8618,2.4131 2.0684,5.8603 1.2065,3.2749 7.7563,22.4073 6.5498,19.1323 7.0669,21.373 l 12.0655,-33.9556 40.8501,-118.7583 h 32.749 L 8012.981,8739 q -11.5484,29.8188 -21.5455,44.2974 -9.997,14.6508 -22.2348,21.7177 -12.0654,7.2393 -27.4058,7.2393 z" /><path
     id="path1049"
     style="fill:#ececec;stroke:none;fill-opacity:1"
     d="m 8266.8721,8645.5791 q 0,48.9512 -21.5454,72.9097 -21.5454,23.9585 -62.5679,23.9585 -40.8501,0 -61.7061,-24.8203 -20.8559,-24.9927 -20.8559,-72.0479 0,-96.5234 83.5962,-96.5234 42.7461,0 62.9126,23.6137 20.1665,23.4414 20.1665,72.9097 z m -32.5767,0 q 0,-38.6094 -11.5483,-56.0181 -11.376,-17.581 -38.437,-17.581 -27.2334,0 -39.4712,17.9258 -12.0655,17.7534 -12.0655,55.6733 0,36.8857 11.8931,55.501 12.0654,18.4428 37.7476,18.4428 27.9228,0 39.8159,-17.9257 12.0654,-17.9258 12.0654,-56.0181 z" /><path
     id="path1051"
     style="fill:#ececec;stroke:none;fill-opacity:1"
     d="m 8423.895,8739 v -118.2412 q 0,-18.4429 -3.6196,-28.6123 -3.6196,-10.1694 -11.5483,-14.6509 -7.9288,-4.4814 -23.2691,-4.4814 -22.4072,0 -35.3345,15.3403 -12.9272,15.3403 -12.9272,42.5737 V 8739 h -31.0254 v -146.6812 q 0,-32.5766 -1.0342,-39.8159 h 29.3018 q 0.1723,0.8618 0.3447,4.6538 0.1724,3.792 0.3447,8.7906 0.3448,4.8261 0.6895,18.4428 h 0.5171 q 10.6865,-19.3047 24.6479,-27.2334 14.1338,-8.101 34.9898,-8.101 30.6806,0 44.8144,15.3403 14.3062,15.168 14.3062,50.3301 V 8739 Z" /><path
     id="path1053"
     style="fill:#ececec;stroke:none;fill-opacity:1"
     d="m 8602.9805,8739 v -26.3716 h 61.8784 v -186.8418 l -54.8115,39.1265 v -29.3018 l 57.3969,-39.4712 h 28.6123 v 216.4883 h 59.1206 V 8739 Z" /><path
     id="path1055"
     style="fill:#ececec;stroke:none;fill-opacity:1"
     d="m 8804.6455,8739 v -37.7476 h 33.6108 V 8739 Z" /><path
     id="path1057"
     style="fill:#ececec;stroke:none;fill-opacity:1"
     d="M 9022.3403,8684.0161 V 8739 h -29.3017 v -54.9839 h -114.4492 v -24.1308 l 111.1743,-163.7452 h 32.5766 v 163.4004 h 34.128 v 24.4756 z m -29.3017,-152.8862 q -0.3448,1.0342 -4.8262,9.1352 -4.4814,8.1011 -6.7222,11.376 l -62.2231,91.6973 -9.3076,12.7549 -2.7578,3.4472 h 85.8369 z" /></g>
 <g
   style="fill:#ececec;fill-opacity:1"
   class="TextShape"
   id="text927"
   aria-label="bevy_tasks"><path
     id="path1060"
     style="fill:#ececec;stroke:none;fill-opacity:1"
     d="m 12517.499,8644.8896 q 0,97.5577 -68.601,97.5577 -21.201,0 -35.335,-7.584 -13.961,-7.7564 -22.751,-24.8203 h -0.345 q 0,5.3432 -0.69,16.3745 -0.689,10.8589 -1.034,12.5825 h -29.991 q 1.034,-9.3076 1.034,-38.437 v -217.3501 h 31.026 v 72.9097 q 0,11.2036 -0.69,26.3715 h 0.69 q 8.618,-17.9257 22.751,-25.6821 14.307,-7.7563 35.335,-7.7563 35.334,0 51.881,23.7861 16.72,23.7861 16.72,72.0478 z m -32.577,1.0342 q 0,-39.1264 -10.342,-56.018 -10.342,-16.8916 -33.611,-16.8916 -26.199,0 -38.264,17.9257 -11.893,17.9258 -11.893,56.8799 0,36.7134 11.72,54.2945 11.721,17.4086 38.093,17.4086 23.441,0 33.783,-17.2363 10.514,-17.4087 10.514,-56.3628 z" /><path
     id="path1062"
     style="fill:#ececec;stroke:none;fill-opacity:1"
     d="m 12579.894,8652.3013 q 0,32.0595 13.272,49.4682 13.272,17.4087 38.782,17.4087 20.166,0 32.232,-8.1011 12.237,-8.101 16.547,-20.5112 l 27.233,7.7564 q -16.719,44.125 -76.012,44.125 -41.367,0 -63.085,-24.648 -21.546,-24.6479 -21.546,-73.2544 0,-46.1933 21.546,-70.8413 21.718,-24.6479 61.878,-24.6479 82.217,0 82.217,99.1089 v 4.1367 z m 101.005,-23.7862 q -2.586,-29.4741 -14.996,-42.9184 -12.41,-13.6167 -35.679,-13.6167 -22.579,0 -35.851,15.1679 -13.1,14.9957 -14.134,41.3672 z" /><path
     id="path1064"
     style="fill:#ececec;stroke:none;fill-opacity:1"
     d="m 12834.302,8739 h -36.713 l -67.739,-186.4971 h 33.094 l 41.022,121.3438 q 2.241,6.8945 11.893,40.8501 l 6.033,-20.1665 6.722,-20.3389 42.402,-121.6885 h 32.921 z" /><path
     id="path1066"
     style="fill:#ececec;stroke:none;fill-opacity:1"
     d="m 12938.065,8812.2544 q -12.755,0 -21.373,-1.896 v -23.269 q 6.55,1.0341 14.478,1.0341 28.957,0 45.849,-42.5737 l 2.93,-7.4116 -73.944,-185.6353 h 33.094 l 39.299,103.0733 q 0.862,2.4131 2.068,5.8603 1.207,3.2749 7.757,22.4073 6.549,19.1323 7.067,21.373 l 12.065,-33.9556 40.85,-118.7583 h 32.749 L 13009.251,8739 q -11.548,29.8188 -21.545,44.2974 -9.998,14.6508 -22.235,21.7177 -12.066,7.2393 -27.406,7.2393 z" /><path
     id="path1068"
     style="fill:#ececec;stroke:none;fill-opacity:1"
     d="m 13076.3,8809.1519 v -22.4073 h 205.63 v 22.4073 z" /><path
     id="path1070"
     style="fill:#ececec;stroke:none;fill-opacity:1"
     d="m 13373.455,8737.6211 q -15.341,4.1367 -31.371,4.1367 -37.23,0 -37.23,-42.229 v -124.4463 h -21.545 v -22.5796 h 22.752 l 9.135,-41.7119 h 20.683 v 41.7119 h 34.473 v 22.5796 h -34.473 v 117.7241 q 0,13.4444 4.309,18.96 4.482,5.3433 15.341,5.3433 6.205,0 17.926,-2.4131 z" /><path
     id="path1072"
     style="fill:#ececec;stroke:none;fill-opacity:1"
     d="m 13447.398,8742.4473 q -28.095,0 -42.229,-14.8233 -14.133,-14.8232 -14.133,-40.6777 0,-28.957 18.96,-44.4697 19.132,-15.5127 61.533,-16.5469 l 41.885,-0.6895 v -10.1694 q 0,-22.752 -9.653,-32.5767 -9.652,-9.8247 -30.336,-9.8247 -20.856,0 -30.336,7.0669 -9.48,7.0669 -11.376,22.5796 l -32.404,-2.9302 q 7.929,-50.33 74.806,-50.33 35.162,0 52.915,16.2021 17.754,16.0298 17.754,46.5381 v 80.3213 q 0,13.7891 3.619,20.8559 3.62,6.8946 13.789,6.8946 4.482,0 10.17,-1.2066 v 19.3047 q -11.721,2.7578 -23.959,2.7578 -17.236,0 -25.165,-8.9629 -7.756,-9.1352 -8.79,-28.4399 h -1.034 q -11.893,21.373 -27.751,30.3359 -15.685,8.7906 -38.265,8.7906 z m 7.067,-23.2691 q 17.064,0 30.336,-7.7563 13.272,-7.7564 20.856,-21.2007 7.757,-13.6167 7.757,-27.9229 v -15.3403 l -33.956,0.6895 q -21.89,0.3447 -33.266,4.4814 -11.204,4.1367 -17.236,12.7549 -6.033,8.6182 -6.033,22.5796 0,15.1679 8.101,23.4414 8.273,8.2734 23.441,8.2734 z" /><path
     id="path1074"
     style="fill:#ececec;stroke:none;fill-opacity:1"
     d="m 13736.107,8687.4634 q 0,26.3716 -19.994,40.6777 -19.822,14.3062 -55.674,14.3062 -34.817,0 -53.777,-11.376 -18.787,-11.5484 -24.475,-35.8516 l 27.405,-5.3432 q 3.965,14.9956 16.375,22.0625 12.41,6.8945 34.472,6.8945 23.614,0 34.473,-7.2393 11.031,-7.2392 11.031,-21.7177 0,-11.0313 -7.584,-17.9258 -7.584,-6.8945 -24.475,-11.376 l -22.235,-5.8603 q -26.716,-6.8946 -38.092,-13.4444 -11.204,-6.7221 -17.581,-16.2021 -6.378,-9.48 -6.378,-23.2691 0,-25.5097 18.098,-38.7817 18.271,-13.4443 53.088,-13.4443 30.853,0 48.951,10.8588 18.271,10.8589 23.097,34.8174 l -27.923,3.4473 q -2.585,-12.4102 -13.961,-18.96 -11.204,-6.7221 -30.164,-6.7221 -21.028,0 -31.025,6.3774 -9.997,6.3774 -9.997,19.3047 0,7.9287 4.136,13.0996 4.137,5.1709 12.238,8.7905 8.101,3.6197 34.128,9.9971 24.648,6.2051 35.507,11.5483 10.859,5.1709 17.064,11.5484 6.377,6.3774 9.825,14.8232 3.447,8.2735 3.447,18.96 z" /><path
     id="path1076"
     style="fill:#ececec;stroke:none;fill-opacity:1"
     d="m 13889.51,8739 -63.085,-85.1475 -22.752,18.7876 V 8739 h -31.025 v -255.7871 h 31.025 v 159.7808 l 81.873,-90.4908 h 36.369 l -75.668,80.149 79.632,106.3481 z" /><path
     id="path1078"
     style="fill:#ececec;stroke:none;fill-opacity:1"
     d="m 14089.107,8687.4634 q 0,26.3716 -19.994,40.6777 -19.822,14.3062 -55.674,14.3062 -34.817,0 -53.777,-11.376 -18.787,-11.5484 -24.475,-35.8516 l 27.405,-5.3432 q 3.965,14.9956 16.375,22.0625 12.41,6.8945 34.472,6.8945 23.614,0 34.473,-7.2393 11.031,-7.2392 11.031,-21.7177 0,-11.0313 -7.584,-17.9258 -7.584,-6.8945 -24.475,-11.376 l -22.235,-5.8603 q -26.716,-6.8946 -38.092,-13.4444 -11.204,-6.7221 -17.581,-16.2021 -6.378,-9.48 -6.378,-23.2691 0,-25.5097 18.098,-38.7817 18.271,-13.4443 53.088,-13.4443 30.853,0 48.951,10.8588 18.271,10.8589 23.097,34.8174 l -27.923,3.4473 q -2.585,-12.4102 -13.961,-18.96 -11.204,-6.7221 -30.164,-6.7221 -21.028,0 -31.025,6.3774 -9.997,6.3774 -9.997,19.3047 0,7.9287 4.136,13.0996 4.137,5.1709 12.238,8.7905 8.101,3.6197 34.128,9.9971 24.648,6.2051 35.507,11.5483 10.859,5.1709 17.064,11.5484 6.377,6.3774 9.825,14.8232 3.447,8.2735 3.447,18.96 z" /></g>
 <g
   style="fill:#ececec;fill-opacity:1;stroke:#ececec;stroke-opacity:1"
   class="TextShape"
   id="text935"
   aria-label="0"><path
     id="path1023"
     style="fill:#ececec;stroke:#ececec;fill-opacity:1;stroke-opacity:1"
     d="m 688.53271,8170.4839 q 0,60.8442 -21.54541,92.9038 -21.37304,32.0596 -63.25732,32.0596 -41.88428,0 -62.9126,-31.8872 -21.02832,-31.8872 -21.02832,-93.0762 0,-62.5679 20.33887,-93.7656 20.51123,-31.1978 64.63623,-31.1978 42.91846,0 63.25732,31.5425 20.51123,31.5425 20.51123,93.4209 z m -31.54248,0 q 0,-52.5708 -12.23779,-76.1846 -12.06543,-23.6138 -39.98828,-23.6138 -28.6123,0 -41.19482,23.2691 -12.41016,23.269 -12.41016,76.5293 0,51.709 12.58252,75.6675 12.75488,23.9585 40.33301,23.9585 27.40576,0 40.16064,-24.4756 12.75488,-24.4756 12.75488,-75.1504 z" /></g>
 <g
   style="fill:#ececec;fill-opacity:1"
   class="TextShape"
   id="text943"
   aria-label="10"><path
     id="path1018"
     style="fill:#ececec;stroke:none;fill-opacity:1"
     d="m 347.88867,6993 v -26.3716 h 61.87842 v -186.8418 l -54.81152,39.1265 v -29.3018 l 57.39697,-39.4712 h 28.6123 v 216.4883 h 59.12061 V 6993 Z" /><path
     id="path1020"
     style="fill:#ececec;stroke:none;fill-opacity:1"
     d="m 699.85449,6871.4839 q 0,60.8442 -21.54541,92.9038 -21.37304,32.0596 -63.25732,32.0596 -41.88428,0 -62.9126,-31.8872 -21.02832,-31.8872 -21.02832,-93.0762 0,-62.5679 20.33887,-93.7656 20.51123,-31.1978 64.63623,-31.1978 42.91845,0 63.25732,31.5425 20.51123,31.5425 20.51123,93.4209 z m -31.54248,0 q 0,-52.5708 -12.23779,-76.1846 -12.06543,-23.6138 -39.98828,-23.6138 -28.61231,0 -41.19483,23.2691 -12.41015,23.269 -12.41015,76.5293 0,51.709 12.58252,75.6675 12.75488,23.9585 40.333,23.9585 27.40577,0 40.16065,-24.4756 12.75488,-24.4756 12.75488,-75.1504 z" /></g>
 <g
   style="fill:#ececec;fill-opacity:1"
   class="TextShape"
   id="text951"
   aria-label="20"><path
     id="path1013"
     style="fill:#ececec;stroke:none;fill-opacity:1"
     d="m 338.75342,5694 v -21.8901 q 8.79053,-20.1665 21.37304,-35.5069 12.75489,-15.5127 26.71631,-27.9228 13.96143,-12.5825 27.57813,-23.2691 13.78906,-10.6865 24.82031,-21.373 11.03125,-10.6865 17.75342,-22.4072 6.89453,-11.7207 6.89453,-26.544 0,-19.9941 -11.7207,-31.0254 -11.72071,-11.0312 -32.57666,-11.0312 -19.82178,0 -32.74903,10.8589 -12.75488,10.6865 -14.9956,30.1635 l -31.71485,-2.9301 q 3.44727,-29.1294 24.64795,-46.3658 21.37305,-17.2363 54.81153,-17.2363 36.71338,0 56.36279,17.4087 19.82178,17.2363 19.82178,49.1235 0,14.1338 -6.54981,28.0952 -6.37744,13.9615 -19.13232,27.9229 -12.75488,13.9614 -48.77881,43.2632 -19.82178,16.2021 -31.54248,29.3017 -11.7207,12.9273 -16.8916,24.9927 H 499.56836 V 5694 Z" /><path
     id="path1015"
     style="fill:#ececec;stroke:none;fill-opacity:1"
     d="m 699.85449,5572.4839 q 0,60.8442 -21.54541,92.9038 -21.37304,32.0596 -63.25732,32.0596 -41.88428,0 -62.9126,-31.8872 -21.02832,-31.8872 -21.02832,-93.0762 0,-62.5679 20.33887,-93.7656 20.51123,-31.1978 64.63623,-31.1978 42.91845,0 63.25732,31.5425 20.51123,31.5425 20.51123,93.4209 z m -31.54248,0 q 0,-52.5708 -12.23779,-76.1846 -12.06543,-23.6138 -39.98828,-23.6138 -28.61231,0 -41.19483,23.2691 -12.41015,23.269 -12.41015,76.5293 0,51.709 12.58252,75.6675 12.75488,23.9585 40.333,23.9585 27.40577,0 40.16065,-24.4756 12.75488,-24.4756 12.75488,-75.1504 z" /></g>
 <g
   style="fill:#ececec;fill-opacity:1"
   class="TextShape"
   id="text959"
   aria-label="30"><path
     id="path1008"
     style="fill:#ececec;stroke:none;fill-opacity:1"
     d="m 501.80908,4327.9507 q 0,33.6108 -21.37304,52.0537 -21.37305,18.4429 -61.01661,18.4429 -36.88574,0 -58.94824,-16.5469 -21.89014,-16.7192 -26.02685,-49.2959 l 32.05957,-2.9302 q 6.20507,43.0908 52.91552,43.0908 23.44141,0 36.71338,-11.5483 13.44434,-11.5483 13.44434,-34.3003 0,-19.8218 -15.34033,-30.853 -15.16797,-11.2036 -43.95264,-11.2036 h -17.58106 v -26.8887 h 16.89161 q 25.50976,0 39.47119,-11.0313 14.13379,-11.2036 14.13379,-30.853 0,-19.477 -11.54834,-30.6807 -11.37598,-11.3759 -33.95557,-11.3759 -20.51123,0 -33.26611,10.5141 -12.58252,10.5142 -14.65088,29.6465 l -31.19776,-2.4131 q 3.44727,-29.8188 24.64795,-46.5381 21.37305,-16.7192 54.81153,-16.7192 36.54101,0 56.70752,17.064 20.33886,16.8916 20.33886,47.2275 0,23.2691 -13.09961,37.9199 -12.92724,14.4785 -37.74755,19.6494 v 0.6895 q 27.23339,2.9302 42.40136,18.2705 15.16797,15.3403 15.16797,38.6094 z" /><path
     id="path1010"
     style="fill:#ececec;stroke:none;fill-opacity:1"
     d="m 699.85449,4273.4839 q 0,60.8442 -21.54541,92.9038 -21.37304,32.0596 -63.25732,32.0596 -41.88428,0 -62.9126,-31.8872 -21.02832,-31.8872 -21.02832,-93.0762 0,-62.5679 20.33887,-93.7656 20.51123,-31.1978 64.63623,-31.1978 42.91845,0 63.25732,31.5425 20.51123,31.5425 20.51123,93.4209 z m -31.54248,0 q 0,-52.5708 -12.23779,-76.1846 -12.06543,-23.6138 -39.98828,-23.6138 -28.61231,0 -41.19483,23.2691 -12.41015,23.269 -12.41015,76.5293 0,51.709 12.58252,75.6675 12.75488,23.9585 40.333,23.9585 27.40577,0 40.16065,-24.4756 12.75488,-24.4756 12.75488,-75.1504 z" /></g>
 <g
   style="fill:#ececec;fill-opacity:1"
   class="TextShape"
   id="text967"
   aria-label="40"><path
     id="path1003"
     style="fill:#ececec;stroke:none;fill-opacity:1"
     d="M 472.85205,3041.0161 V 3096 h -29.30176 v -54.9839 H 329.10107 v -24.1308 l 111.17432,-163.7452 h 32.57666 v 163.4004 h 34.12793 v 24.4756 z m -29.30176,-152.8862 q -0.34472,1.0342 -4.82617,9.1352 -4.48144,8.1011 -6.72217,11.376 l -62.22314,91.6973 -9.30762,12.7549 -2.75781,3.4472 h 85.83691 z" /><path
     id="path1005"
     style="fill:#ececec;stroke:none;fill-opacity:1"
     d="m 699.85449,2974.4839 q 0,60.8442 -21.54541,92.9038 -21.37304,32.0596 -63.25732,32.0596 -41.88428,0 -62.9126,-31.8872 -21.02832,-31.8872 -21.02832,-93.0762 0,-62.5679 20.33887,-93.7656 20.51123,-31.1978 64.63623,-31.1978 42.91845,0 63.25732,31.5425 20.51123,31.5425 20.51123,93.4209 z m -31.54248,0 q 0,-52.5708 -12.23779,-76.1846 -12.06543,-23.6138 -39.98828,-23.6138 -28.61231,0 -41.19483,23.2691 -12.41015,23.269 -12.41015,76.5293 0,51.709 12.58252,75.6675 12.75488,23.9585 40.333,23.9585 27.40577,0 40.16065,-24.4756 12.75488,-24.4756 12.75488,-75.1504 z" /></g>
 <g
   style="fill:#ececec;fill-opacity:1"
   class="TextShape"
   id="text975"
   aria-label="50"><path
     id="path998"
     style="fill:#ececec;stroke:none;fill-opacity:1"
     d="m 502.49854,1717.8853 q 0,38.437 -22.92432,60.4995 -22.75195,22.0625 -63.25733,22.0625 -33.95556,0 -54.81152,-14.8233 -20.85596,-14.8232 -26.37158,-42.9184 l 31.37012,-3.6197 q 9.8247,36.024 50.50244,36.024 24.99267,0 39.12646,-14.9956 14.13379,-15.168 14.13379,-41.5396 0,-22.9243 -14.30615,-37.0581 -14.13379,-14.1338 -38.26465,-14.1338 -12.58252,0 -23.44141,3.9644 -10.85888,3.9643 -21.71777,13.4443 h -30.33594 l 8.10108,-130.6514 h 138.06299 v 26.3716 H 378.56934 l -4.65381,77.0464 q 20.1665,-15.5127 50.15771,-15.5127 35.85156,0 57.05225,21.0283 21.37305,21.0284 21.37305,54.8116 z" /><path
     id="path1000"
     style="fill:#ececec;stroke:none;fill-opacity:1"
     d="m 699.85449,1675.4839 q 0,60.8442 -21.54541,92.9038 -21.37304,32.0596 -63.25732,32.0596 -41.88428,0 -62.9126,-31.8872 -21.02832,-31.8872 -21.02832,-93.0762 0,-62.5679 20.33887,-93.7656 20.51123,-31.1978 64.63623,-31.1978 42.91845,0 63.25732,31.5425 20.51123,31.5425 20.51123,93.4209 z m -31.54248,0 q 0,-52.5708 -12.23779,-76.1846 -12.06543,-23.6138 -39.98828,-23.6138 -28.61231,0 -41.19483,23.2691 -12.41015,23.269 -12.41015,76.5293 0,51.709 12.58252,75.6675 12.75488,23.9585 40.333,23.9585 27.40577,0 40.16065,-24.4756 12.75488,-24.4756 12.75488,-75.1504 z" /></g>
 <g
   style="fill:#ececec;fill-opacity:1"
   class="TextShape"
   id="text983"
   aria-label="60"><path
     id="path993"
     style="fill:#ececec;stroke:none;fill-opacity:1"
     d="m 501.80908,418.54053 q 0,38.43701 -20.85596,60.67187 -20.85595,22.23487 -57.56933,22.23487 -41.02246,0 -62.74024,-30.50831 -21.71777,-30.5083 -21.71777,-88.76709 0,-63.08496 22.57959,-96.86816 22.57959,-33.7832 64.2915,-33.7832 54.98389,0 69.29004,49.46826 l -29.64648,5.34326 q -9.13525,-29.64648 -39.98828,-29.64648 -26.54395,0 -41.19483,24.82031 -14.47851,24.64795 -14.47851,71.53076 8.4458,-15.68506 23.78613,-23.78613 15.34033,-8.27344 35.16211,-8.27344 33.61084,0 53.26025,21.02832 19.82178,21.02832 19.82178,56.53516 z m -31.54248,1.3789 q 0,-26.37158 -12.92724,-40.67773 -12.92725,-14.30615 -36.02393,-14.30615 -21.71777,0 -35.16211,12.75488 -13.27197,12.58252 -13.27197,34.81738 0,28.09522 13.78906,46.021 13.96143,17.92578 35.6792,17.92578 22.40723,0 35.16211,-14.99561 12.75488,-15.16796 12.75488,-41.53955 z" /><path
     id="path995"
     style="fill:#ececec;stroke:none;fill-opacity:1"
     d="m 699.85449,376.48389 q 0,60.84423 -21.54541,92.90381 -21.37304,32.05957 -63.25732,32.05957 -41.88428,0 -62.9126,-31.88721 -21.02832,-31.88721 -21.02832,-93.07617 0,-62.56787 20.33887,-93.76563 20.51123,-31.19775 64.63623,-31.19775 42.91845,0 63.25732,31.54248 20.51123,31.54248 20.51123,93.4209 z m -31.54248,0 q 0,-52.5708 -12.23779,-76.18457 -12.06543,-23.61377 -39.98828,-23.61377 -28.61231,0 -41.19483,23.26904 -12.41015,23.26904 -12.41015,76.5293 0,51.70898 12.58252,75.66748 12.75488,23.95849 40.333,23.95849 27.40577,0 40.16065,-24.47558 12.75488,-24.47559 12.75488,-75.15039 z" /></g>
</svg>
