<?xml version="1.0" encoding="UTF-8" standalone="no"?>
<svg
   xmlns:dc="http://purl.org/dc/elements/1.1/"
   xmlns:cc="http://creativecommons.org/ns#"
   xmlns:rdf="http://www.w3.org/1999/02/22-rdf-syntax-ns#"
   xmlns:svg="http://www.w3.org/2000/svg"
   xmlns="http://www.w3.org/2000/svg"
   xmlns:sodipodi="http://sodipodi.sourceforge.net/DTD/sodipodi-0.dtd"
   xmlns:inkscape="http://www.inkscape.org/namespaces/inkscape"
   inkscape:version="1.0 (4035a4fb49, 2020-05-01)"
   sodipodi:docname="bevy_tasks_2.svg"
   id="svg196"
   xml:space="preserve"
   stroke-linejoin="round"
   stroke-width="28.222"
   version="1.1"
   viewBox="0 0 10800 9000"
   height="90mm"
   width="108mm"><metadata
   id="metadata202"><rdf:RDF><cc:Work
       rdf:about=""><dc:format>image/svg+xml</dc:format><dc:type
         rdf:resource="http://purl.org/dc/dcmitype/StillImage" /><dc:title></dc:title></cc:Work></rdf:RDF></metadata><defs
   id="defs200" /><sodipodi:namedview
   inkscape:current-layer="svg196"
   inkscape:window-maximized="1"
   inkscape:window-y="0"
   inkscape:window-x="0"
   inkscape:cy="170.07874"
   inkscape:cx="204.09449"
   inkscape:zoom="3.01625"
   showgrid="false"
   id="namedview198"
   inkscape:window-height="1440"
   inkscape:window-width="3440"
   inkscape:pageshadow="2"
   inkscape:pageopacity="0"
   guidetolerance="10"
   gridtolerance="10"
   objecttolerance="10"
   borderopacity="1"
   bordercolor="#666666"
   pagecolor="#ffffff" />
 
 
 <path
   style="fill:#4a96dc;fill-opacity:1"
   id="path88"
   d="M 6976,8184 L 9358,8184 9358,7559 6976,7559 6976,8184 Z"
   stroke="none"
   fill="rgb(0,69,134)" /><path
   style="fill:#474747;fill-opacity:1"
   id="path90"
   d="M 2213,8184 L 4595,8184 4595,1159 2213,1159 2213,8184 Z"
   stroke="none"
   fill="rgb(0,69,134)" /><path
   style="fill:#ececec;fill-opacity:1;stroke:#ececec;stroke-opacity:1"
   id="path6"
   d="M 10549,8184 L 1022,8184"
   stroke-linejoin="round"
   stroke="rgb(179,179,179)"
   fill="none" />
 
 
 
 
 
 
 
 
 
 
 <path
   style="fill:#ececec;fill-opacity:1;stroke:#ececec;stroke-opacity:1"
   id="path28"
   d="M 1022,8334 L 1022,8184"
   stroke-linejoin="round"
   stroke="rgb(179,179,179)"
   fill="none" />
 <path
   style="fill:#ececec;fill-opacity:1;stroke:#ececec;stroke-opacity:1"
   id="path30"
   d="M 1022,8334 L 1022,8184"
   stroke-linejoin="round"
   stroke="rgb(179,179,179)"
   fill="none" />
 <path
   style="fill:#ececec;fill-opacity:1;stroke:#ececec;stroke-opacity:1"
   id="path32"
   d="M 5785,8334 L 5785,8184"
   stroke-linejoin="round"
   stroke="rgb(179,179,179)"
   fill="none" />
 <path
   style="fill:#ececec;fill-opacity:1;stroke:#ececec;stroke-opacity:1"
   id="path34"
   d="M 5785,8334 L 5785,8184"
   stroke-linejoin="round"
   stroke="rgb(179,179,179)"
   fill="none" />
 <path
   style="fill:#ececec;fill-opacity:1;stroke:#ececec;stroke-opacity:1"
   id="path36"
   d="M 10549,8334 L 10549,8184"
   stroke-linejoin="round"
   stroke="rgb(179,179,179)"
   fill="none" />
 <path
   style="fill:#ececec;fill-opacity:1;stroke:#ececec;stroke-opacity:1"
   id="path38"
   d="M 10549,8334 L 10549,8184"
   stroke-linejoin="round"
   stroke="rgb(179,179,179)"
   fill="none" />
 <path
   style="fill:#ececec;fill-opacity:1;stroke:#ececec;stroke-opacity:1"
   id="path40"
   d="M 1022,8184 L 10549,8184"
   stroke-linejoin="round"
   stroke="rgb(179,179,179)"
   fill="none" />
 <path
   style="fill:#ececec;fill-opacity:1;stroke:#ececec;stroke-opacity:1"
   id="path42"
   d="M 872,8184 L 1022,8184"
   stroke-linejoin="round"
   stroke="rgb(179,179,179)"
   fill="none" />
 <path
   style="fill:#ececec;fill-opacity:1;stroke:#ececec;stroke-opacity:1"
   id="path44"
   d="M 872,8184 L 1022,8184"
   stroke-linejoin="round"
   stroke="rgb(179,179,179)"
   fill="none" />
 <path
   style="fill:#ececec;fill-opacity:1;stroke:#ececec;stroke-opacity:1"
   id="path46"
   d="M 872,7403 L 1022,7403"
   stroke-linejoin="round"
   stroke="rgb(179,179,179)"
   fill="none" />
 <path
   style="fill:#ececec;fill-opacity:1;stroke:#ececec;stroke-opacity:1"
   id="path48"
   d="M 872,7403 L 1022,7403"
   stroke-linejoin="round"
   stroke="rgb(179,179,179)"
   fill="none" />
 <path
   style="fill:#ececec;fill-opacity:1;stroke:#ececec;stroke-opacity:1"
   id="path50"
   d="M 872,6622 L 1022,6622"
   stroke-linejoin="round"
   stroke="rgb(179,179,179)"
   fill="none" />
 <path
   style="fill:#ececec;fill-opacity:1;stroke:#ececec;stroke-opacity:1"
   id="path52"
   d="M 872,6622 L 1022,6622"
   stroke-linejoin="round"
   stroke="rgb(179,179,179)"
   fill="none" />
 <path
   style="fill:#ececec;fill-opacity:1;stroke:#ececec;stroke-opacity:1"
   id="path54"
   d="M 872,5842 L 1022,5842"
   stroke-linejoin="round"
   stroke="rgb(179,179,179)"
   fill="none" />
 <path
   style="fill:#ececec;fill-opacity:1;stroke:#ececec;stroke-opacity:1"
   id="path56"
   d="M 872,5842 L 1022,5842"
   stroke-linejoin="round"
   stroke="rgb(179,179,179)"
   fill="none" />
 <path
   style="fill:#ececec;fill-opacity:1;stroke:#ececec;stroke-opacity:1"
   id="path58"
   d="M 872,5061 L 1022,5061"
   stroke-linejoin="round"
   stroke="rgb(179,179,179)"
   fill="none" />
 <path
   style="fill:#ececec;fill-opacity:1;stroke:#ececec;stroke-opacity:1"
   id="path60"
   d="M 872,5061 L 1022,5061"
   stroke-linejoin="round"
   stroke="rgb(179,179,179)"
   fill="none" />
 <path
   style="fill:#ececec;fill-opacity:1;stroke:#ececec;stroke-opacity:1"
   id="path62"
   d="M 872,4282 L 1022,4282"
   stroke-linejoin="round"
   stroke="rgb(179,179,179)"
   fill="none" />
 <path
   style="fill:#ececec;fill-opacity:1;stroke:#ececec;stroke-opacity:1"
   id="path64"
   d="M 872,4282 L 1022,4282"
   stroke-linejoin="round"
   stroke="rgb(179,179,179)"
   fill="none" />
 <path
   style="fill:#ececec;fill-opacity:1;stroke:#ececec;stroke-opacity:1"
   id="path66"
   d="M 872,3501 L 1022,3501"
   stroke-linejoin="round"
   stroke="rgb(179,179,179)"
   fill="none" />
 <path
   style="fill:#ececec;fill-opacity:1;stroke:#ececec;stroke-opacity:1"
   id="path68"
   d="M 872,3501 L 1022,3501"
   stroke-linejoin="round"
   stroke="rgb(179,179,179)"
   fill="none" />
 <path
   style="fill:#ececec;fill-opacity:1;stroke:#ececec;stroke-opacity:1"
   id="path70"
   d="M 872,2720 L 1022,2720"
   stroke-linejoin="round"
   stroke="rgb(179,179,179)"
   fill="none" />
 <path
   style="fill:#ececec;fill-opacity:1;stroke:#ececec;stroke-opacity:1"
   id="path72"
   d="M 872,2720 L 1022,2720"
   stroke-linejoin="round"
   stroke="rgb(179,179,179)"
   fill="none" />
 <path
   style="fill:#ececec;fill-opacity:1;stroke:#ececec;stroke-opacity:1"
   id="path74"
   d="M 872,1940 L 1022,1940"
   stroke-linejoin="round"
   stroke="rgb(179,179,179)"
   fill="none" />
 <path
   style="fill:#ececec;fill-opacity:1;stroke:#ececec;stroke-opacity:1"
   id="path76"
   d="M 872,1940 L 1022,1940"
   stroke-linejoin="round"
   stroke="rgb(179,179,179)"
   fill="none" />
 <path
   style="fill:#ececec;fill-opacity:1;stroke:#ececec;stroke-opacity:1"
   id="path78"
   d="M 872,1159 L 1022,1159"
   stroke-linejoin="round"
   stroke="rgb(179,179,179)"
   fill="none" />
 <path
   style="fill:#ececec;fill-opacity:1;stroke:#ececec;stroke-opacity:1"
   id="path80"
   d="M 872,1159 L 1022,1159"
   stroke-linejoin="round"
   stroke="rgb(179,179,179)"
   fill="none" />
 <path
   style="fill:#ececec;fill-opacity:1;stroke:#ececec;stroke-opacity:1"
   id="path82"
   d="M 872,379 L 1022,379"
   stroke-linejoin="round"
   stroke="rgb(179,179,179)"
   fill="none" />
 <path
   style="fill:#ececec;fill-opacity:1;stroke:#ececec;stroke-opacity:1"
   id="path84"
   d="M 872,379 L 1022,379"
   stroke-linejoin="round"
   stroke="rgb(179,179,179)"
   fill="none" />
 <path
   style="fill:#ececec;fill-opacity:1;stroke:#ececec;stroke-opacity:1"
   id="path86"
   d="M 1022,8184 L 1022,379"
   stroke-linejoin="round"
   stroke="rgb(179,179,179)"
   fill="none" />
 
 
 <g
   style="fill:#ececec;fill-opacity:1"
   class="TextShape"
   id="text98"
   aria-label="rayon"><path
     id="path1098"
     style="fill:#ececec;stroke:none;fill-opacity:1"
     d="m 3004.4756,8752 v -143.0615 q 0,-19.6494 -1.0342,-43.4356 h 29.3018 q 1.3789,31.7149 1.3789,38.0923 h 0.6894 q 7.4116,-23.9585 17.064,-32.749 9.6523,-8.7905 27.2334,-8.7905 6.2051,0 12.5825,1.7236 v 28.4399 q -6.2051,-1.7236 -16.5469,-1.7236 -19.3047,0 -29.4741,16.7192 -10.1694,16.5469 -10.1694,47.5723 V 8752 Z" /><path
     id="path1100"
     style="fill:#ececec;stroke:none;fill-opacity:1"
     d="m 3168.9102,8755.4473 q -28.0953,0 -42.229,-14.8233 -14.1338,-14.8232 -14.1338,-40.6777 0,-28.957 18.9599,-44.4697 19.1323,-15.5127 61.5337,-16.5469 l 41.8843,-0.6895 v -10.1694 q 0,-22.752 -9.6524,-32.5767 -9.6523,-9.8247 -30.3359,-9.8247 -20.8559,0 -30.3359,7.0669 -9.48,7.0669 -11.376,22.5796 l -32.4043,-2.9302 q 7.9287,-50.33 74.8057,-50.33 35.1621,0 52.9155,16.2021 17.7534,16.0298 17.7534,46.5381 v 80.3213 q 0,13.7891 3.6196,20.8559 3.6197,6.8946 13.7891,6.8946 4.4814,0 10.1694,-1.2066 v 19.3047 q -11.7207,2.7578 -23.9585,2.7578 -17.2363,0 -25.165,-8.9629 -7.7563,-9.1352 -8.7905,-28.4399 h -1.0342 q -11.8931,21.373 -27.7505,30.3359 -15.6851,8.7906 -38.2646,8.7906 z m 7.0669,-23.2691 q 17.0639,0 30.3359,-7.7563 13.272,-7.7564 20.8559,-21.2007 7.7564,-13.6167 7.7564,-27.9229 v -15.3403 l -33.9556,0.6895 q -21.8901,0.3447 -33.2661,4.4814 -11.2036,4.1367 -17.2363,12.7549 -6.0327,8.6182 -6.0327,22.5796 0,15.1679 8.101,23.4414 8.2735,8.2734 23.4415,8.2734 z" /><path
     id="path1102"
     style="fill:#ececec;stroke:none;fill-opacity:1"
     d="m 3326.7949,8825.2544 q -12.7549,0 -21.373,-1.896 v -23.269 q 6.5498,1.0341 14.4785,1.0341 28.957,0 45.8486,-42.5737 l 2.9302,-7.4116 -73.9438,-185.6353 h 33.0937 l 39.2988,103.0733 q 0.8618,2.4131 2.0684,5.8603 1.2065,3.2749 7.7563,22.4073 6.5498,19.1323 7.0669,21.373 l 12.0655,-33.9556 40.8501,-118.7583 h 32.749 L 3397.981,8752 q -11.5484,29.8188 -21.5455,44.2974 -9.997,14.6508 -22.2348,21.7177 -12.0654,7.2393 -27.4058,7.2393 z" /><path
     id="path1104"
     style="fill:#ececec;stroke:none;fill-opacity:1"
     d="m 3651.8721,8658.5791 q 0,48.9512 -21.5454,72.9097 -21.5454,23.9585 -62.5679,23.9585 -40.8501,0 -61.7061,-24.8203 -20.8559,-24.9927 -20.8559,-72.0479 0,-96.5234 83.5962,-96.5234 42.7461,0 62.9126,23.6137 20.1665,23.4414 20.1665,72.9097 z m -32.5767,0 q 0,-38.6094 -11.5483,-56.0181 -11.376,-17.581 -38.437,-17.581 -27.2334,0 -39.4712,17.9258 -12.0655,17.7534 -12.0655,55.6733 0,36.8857 11.8931,55.501 12.0654,18.4428 37.7476,18.4428 27.9228,0 39.8159,-17.9257 12.0654,-17.9258 12.0654,-56.0181 z" /><path
     id="path1106"
     style="fill:#ececec;stroke:none;fill-opacity:1"
     d="m 3808.895,8752 v -118.2412 q 0,-18.4429 -3.6196,-28.6123 -3.6196,-10.1694 -11.5483,-14.6509 -7.9288,-4.4814 -23.2691,-4.4814 -22.4072,0 -35.3345,15.3403 -12.9272,15.3403 -12.9272,42.5737 V 8752 h -31.0254 v -146.6812 q 0,-32.5766 -1.0342,-39.8159 h 29.3018 q 0.1723,0.8618 0.3447,4.6538 0.1724,3.792 0.3447,8.7906 0.3448,4.8261 0.6895,18.4428 h 0.5171 q 10.6865,-19.3047 24.6479,-27.2334 14.1338,-8.101 34.9898,-8.101 30.6806,0 44.8144,15.3403 14.3062,15.168 14.3062,50.3301 V 8752 Z" /></g>
 <g
   style="fill:#ececec;fill-opacity:1"
   class="TextShape"
   id="text106"
   aria-label="bevy_tasks"><path
     id="path1109"
     style="fill:#ececec;stroke:none;fill-opacity:1"
     d="m 7462.4985,8657.8896 q 0,97.5577 -68.6006,97.5577 -21.2006,0 -35.3344,-7.584 -13.9614,-7.7564 -22.752,-24.8203 h -0.3447 q 0,5.3432 -0.6895,16.3745 -0.6894,10.8589 -1.0341,12.5825 h -29.9912 q 1.0341,-9.3076 1.0341,-38.437 v -217.3501 h 31.0254 v 72.9097 q 0,11.2036 -0.6894,26.3715 h 0.6894 q 8.6182,-17.9257 22.752,-25.6821 14.3061,-7.7563 35.3344,-7.7563 35.3345,0 51.8814,23.7861 16.7192,23.7861 16.7192,72.0478 z m -32.5766,1.0342 q 0,-39.1264 -10.3418,-56.018 -10.3418,-16.8916 -33.6109,-16.8916 -26.1992,0 -38.2646,17.9257 -11.8931,17.9258 -11.8931,56.8799 0,36.7134 11.7207,54.2945 11.7207,17.4086 38.0923,17.4086 23.4414,0 33.7832,-17.2363 10.5142,-17.4087 10.5142,-56.3628 z" /><path
     id="path1111"
     style="fill:#ececec;stroke:none;fill-opacity:1"
     d="m 7524.894,8665.3013 q 0,32.0595 13.272,49.4682 13.272,17.4087 38.7818,17.4087 20.1665,0 32.2319,-8.1011 12.2378,-8.101 16.5469,-20.5112 l 27.2334,7.7564 q -16.7193,44.125 -76.0122,44.125 -41.3672,0 -63.085,-24.648 -21.5454,-24.6479 -21.5454,-73.2544 0,-46.1933 21.5454,-70.8413 21.7178,-24.6479 61.8784,-24.6479 82.2173,0 82.2173,99.1089 v 4.1367 z m 101.0049,-23.7862 q -2.5854,-29.4741 -14.9956,-42.9184 -12.4101,-13.6167 -35.6792,-13.6167 -22.5796,0 -35.8515,15.1679 -13.0997,14.9957 -14.1338,41.3672 z" /><path
     id="path1113"
     style="fill:#ececec;stroke:none;fill-opacity:1"
     d="m 7779.3022,8752 h -36.7133 l -67.7388,-186.4971 h 33.0937 l 41.0225,121.3438 q 2.2407,6.8945 11.8931,40.8501 l 6.0327,-20.1665 6.7222,-20.3389 42.4013,-121.6885 h 32.9214 z" /><path
     id="path1115"
     style="fill:#ececec;stroke:none;fill-opacity:1"
     d="m 7883.0649,8825.2544 q -12.7548,0 -21.373,-1.896 v -23.269 q 6.5498,1.0341 14.4785,1.0341 28.957,0 45.8486,-42.5737 l 2.9302,-7.4116 -73.9438,-185.6353 h 33.0937 l 39.2988,103.0733 q 0.8619,2.4131 2.0684,5.8603 1.2066,3.2749 7.7564,22.4073 6.5498,19.1323 7.0669,21.373 l 12.0654,-33.9556 40.8501,-118.7583 h 32.749 L 7954.251,8752 q -11.5484,29.8188 -21.5454,44.2974 -9.9971,14.6508 -22.2349,21.7177 -12.0654,7.2393 -27.4058,7.2393 z" /><path
     id="path1117"
     style="fill:#ececec;stroke:none;fill-opacity:1"
     d="m 8021.3003,8822.1519 v -22.4073 h 205.6294 v 22.4073 z" /><path
     id="path1119"
     style="fill:#ececec;stroke:none;fill-opacity:1"
     d="m 8318.4546,8750.6211 q -15.3403,4.1367 -31.3701,4.1367 -37.2305,0 -37.2305,-42.229 v -124.4463 h -21.5454 v -22.5796 h 22.7519 l 9.1353,-41.7119 h 20.6836 v 41.7119 h 34.4727 v 22.5796 h -34.4727 v 117.7241 q 0,13.4444 4.3091,18.96 4.4814,5.3433 15.3403,5.3433 6.2051,0 17.9258,-2.4131 z" /><path
     id="path1121"
     style="fill:#ececec;stroke:none;fill-opacity:1"
     d="m 8392.3984,8755.4473 q -28.0952,0 -42.229,-14.8233 -14.1338,-14.8232 -14.1338,-40.6777 0,-28.957 18.96,-44.4697 19.1323,-15.5127 61.5337,-16.5469 l 41.8843,-0.6895 v -10.1694 q 0,-22.752 -9.6524,-32.5767 -9.6523,-9.8247 -30.3359,-9.8247 -20.856,0 -30.3359,7.0669 -9.48,7.0669 -11.376,22.5796 l -32.4043,-2.9302 q 7.9287,-50.33 74.8056,-50.33 35.1622,0 52.9156,16.2021 17.7534,16.0298 17.7534,46.5381 v 80.3213 q 0,13.7891 3.6196,20.8559 3.6196,6.8946 13.7891,6.8946 4.4814,0 10.1694,-1.2066 v 19.3047 q -11.7207,2.7578 -23.9585,2.7578 -17.2363,0 -25.165,-8.9629 -7.7564,-9.1352 -8.7905,-28.4399 h -1.0342 q -11.8931,21.373 -27.7505,30.3359 -15.6851,8.7906 -38.2647,8.7906 z m 7.0669,-23.2691 q 17.064,0 30.336,-7.7563 13.2719,-7.7564 20.8559,-21.2007 7.7564,-13.6167 7.7564,-27.9229 v -15.3403 l -33.9556,0.6895 q -21.8901,0.3447 -33.2661,4.4814 -11.2036,4.1367 -17.2363,12.7549 -6.0327,8.6182 -6.0327,22.5796 0,15.1679 8.101,23.4414 8.2735,8.2734 23.4414,8.2734 z" /><path
     id="path1123"
     style="fill:#ececec;stroke:none;fill-opacity:1"
     d="m 8681.1069,8700.4634 q 0,26.3716 -19.9941,40.6777 -19.8218,14.3062 -55.6733,14.3062 -34.8174,0 -53.7774,-11.376 -18.7876,-11.5484 -24.4756,-35.8516 l 27.4058,-5.3432 q 3.9643,14.9956 16.3745,22.0625 12.4102,6.8945 34.4727,6.8945 23.6137,0 34.4726,-7.2393 11.0313,-7.2392 11.0313,-21.7177 0,-11.0313 -7.584,-17.9258 -7.584,-6.8945 -24.4756,-11.376 l -22.2349,-5.8603 q -26.7163,-6.8946 -38.0923,-13.4444 -11.2036,-6.7221 -17.581,-16.2021 -6.3775,-9.48 -6.3775,-23.2691 0,-25.5097 18.0982,-38.7817 18.2705,-13.4443 53.0879,-13.4443 30.853,0 48.9512,10.8588 18.2705,10.8589 23.0966,34.8174 l -27.9228,3.4473 q -2.5855,-12.4102 -13.9614,-18.96 -11.2037,-6.7221 -30.1636,-6.7221 -21.0283,0 -31.0254,6.3774 -9.9971,6.3774 -9.9971,19.3047 0,7.9287 4.1367,13.0996 4.1368,5.1709 12.2378,8.7905 8.1011,3.6197 34.128,9.9971 24.6479,6.2051 35.5068,11.5483 10.8589,5.1709 17.064,11.5484 6.3774,6.3774 9.8247,14.8232 3.4472,8.2735 3.4472,18.96 z" /><path
     id="path1125"
     style="fill:#ececec;stroke:none;fill-opacity:1"
     d="m 8834.5103,8752 -63.085,-85.1475 -22.752,18.7876 V 8752 h -31.0254 v -255.7871 h 31.0254 v 159.7808 l 81.8726,-90.4908 h 36.3687 l -75.6675,80.149 79.6318,106.3481 z" /><path
     id="path1127"
     style="fill:#ececec;stroke:none;fill-opacity:1"
     d="m 9034.1069,8700.4634 q 0,26.3716 -19.9941,40.6777 -19.8218,14.3062 -55.6733,14.3062 -34.8174,0 -53.7774,-11.376 -18.7876,-11.5484 -24.4756,-35.8516 l 27.4058,-5.3432 q 3.9643,14.9956 16.3745,22.0625 12.4102,6.8945 34.4727,6.8945 23.6137,0 34.4726,-7.2393 11.0313,-7.2392 11.0313,-21.7177 0,-11.0313 -7.584,-17.9258 -7.584,-6.8945 -24.4756,-11.376 l -22.2349,-5.8603 q -26.7163,-6.8946 -38.0923,-13.4444 -11.2036,-6.7221 -17.581,-16.2021 -6.3775,-9.48 -6.3775,-23.2691 0,-25.5097 18.0982,-38.7817 18.2705,-13.4443 53.0879,-13.4443 30.853,0 48.9512,10.8588 18.2705,10.8589 23.0966,34.8174 l -27.9228,3.4473 q -2.5855,-12.4102 -13.9614,-18.96 -11.2037,-6.7221 -30.1636,-6.7221 -21.0283,0 -31.0254,6.3774 -9.9971,6.3774 -9.9971,19.3047 0,7.9287 4.1367,13.0996 4.1368,5.1709 12.2378,8.7905 8.1011,3.6197 34.128,9.9971 24.6479,6.2051 35.5068,11.5483 10.8589,5.1709 17.064,11.5484 6.3774,6.3774 9.8247,14.8232 3.4472,8.2735 3.4472,18.96 z" /></g>
 <g
   style="fill:#ececec;fill-opacity:1"
   class="TextShape"
   id="text114"
   aria-label="0"><path
     id="path1027"
     style="fill:#ececec;stroke:none;fill-opacity:1"
     d="m 769.53271,8183.4839 q 0,60.8442 -21.54541,92.9038 -21.37304,32.0596 -63.25732,32.0596 -41.88428,0 -62.9126,-31.8872 -21.02832,-31.8872 -21.02832,-93.0762 0,-62.5679 20.33887,-93.7656 20.51123,-31.1978 64.63623,-31.1978 42.91846,0 63.25732,31.5425 20.51123,31.5425 20.51123,93.4209 z m -31.54248,0 q 0,-52.5708 -12.23779,-76.1846 -12.06543,-23.6138 -39.98828,-23.6138 -28.6123,0 -41.19482,23.2691 -12.41016,23.269 -12.41016,76.5293 0,51.709 12.58252,75.6675 12.75488,23.9585 40.33301,23.9585 27.40576,0 40.16064,-24.4756 12.75488,-24.4756 12.75488,-75.1504 z" /></g>
 <g
   style="fill:#ececec;fill-opacity:1"
   class="TextShape"
   id="text122"
   aria-label="50"><path
     id="path1030"
     style="fill:#ececec;stroke:none;fill-opacity:1"
     d="m 583.49854,7444.8853 q 0,38.437 -22.92432,60.4995 -22.75195,22.0625 -63.25733,22.0625 -33.95556,0 -54.81152,-14.8233 -20.85596,-14.8232 -26.37158,-42.9184 l 31.37012,-3.6197 q 9.8247,36.024 50.50244,36.024 24.99267,0 39.12646,-14.9956 14.13379,-15.168 14.13379,-41.5396 0,-22.9243 -14.30615,-37.0581 -14.13379,-14.1338 -38.26465,-14.1338 -12.58252,0 -23.44141,3.9644 -10.85888,3.9643 -21.71777,13.4443 h -30.33594 l 8.10108,-130.6514 h 138.06299 v 26.3716 H 459.56934 l -4.65381,77.0464 q 20.1665,-15.5127 50.15771,-15.5127 35.85156,0 57.05225,21.0283 21.37305,21.0284 21.37305,54.8116 z" /><path
     id="path1032"
     style="fill:#ececec;stroke:none;fill-opacity:1"
     d="m 780.85449,7402.4839 q 0,60.8442 -21.54541,92.9038 -21.37304,32.0596 -63.25732,32.0596 -41.88428,0 -62.9126,-31.8872 -21.02832,-31.8872 -21.02832,-93.0762 0,-62.5679 20.33887,-93.7656 20.51123,-31.1978 64.63623,-31.1978 42.91845,0 63.25732,31.5425 20.51123,31.5425 20.51123,93.4209 z m -31.54248,0 q 0,-52.5708 -12.23779,-76.1846 -12.06543,-23.6138 -39.98828,-23.6138 -28.61231,0 -41.19483,23.2691 -12.41015,23.269 -12.41015,76.5293 0,51.709 12.58252,75.6675 12.75488,23.9585 40.333,23.9585 27.40577,0 40.16065,-24.4756 12.75488,-24.4756 12.75488,-75.1504 z" /></g>
 <g
   style="fill:#ececec;fill-opacity:1"
   class="TextShape"
   id="text130"
   aria-label="100"><path
     id="path1035"
     style="fill:#ececec;stroke:none;fill-opacity:1"
     d="m 242.88867,6743 v -26.3716 h 61.87842 v -186.8418 l -54.81152,39.1265 v -29.3018 l 57.39697,-39.4712 h 28.6123 v 216.4883 h 59.12061 V 6743 Z" /><path
     id="path1037"
     style="fill:#ececec;stroke:none;fill-opacity:1"
     d="m 594.85449,6621.4839 q 0,60.8442 -21.54541,92.9038 -21.37304,32.0596 -63.25732,32.0596 -41.88428,0 -62.9126,-31.8872 -21.02832,-31.8872 -21.02832,-93.0762 0,-62.5679 20.33887,-93.7656 20.51123,-31.1978 64.63623,-31.1978 42.91845,0 63.25732,31.5425 20.51123,31.5425 20.51123,93.4209 z m -31.54248,0 q 0,-52.5708 -12.23779,-76.1846 -12.06543,-23.6138 -39.98828,-23.6138 -28.61231,0 -41.19483,23.2691 -12.41015,23.269 -12.41015,76.5293 0,51.709 12.58252,75.6675 12.75488,23.9585 40.333,23.9585 27.40577,0 40.16065,-24.4756 12.75488,-24.4756 12.75488,-75.1504 z" /><path
     id="path1039"
     style="fill:#ececec;stroke:none;fill-opacity:1"
     d="m 791.17627,6621.4839 q 0,60.8442 -21.54541,92.9038 -21.37305,32.0596 -63.25732,32.0596 -41.88428,0 -62.9126,-31.8872 -21.02832,-31.8872 -21.02832,-93.0762 0,-62.5679 20.33886,-93.7656 20.51123,-31.1978 64.63623,-31.1978 42.91846,0 63.25733,31.5425 20.51123,31.5425 20.51123,93.4209 z m -31.54248,0 q 0,-52.5708 -12.23779,-76.1846 -12.06543,-23.6138 -39.98829,-23.6138 -28.6123,0 -41.19482,23.2691 -12.41016,23.269 -12.41016,76.5293 0,51.709 12.58252,75.6675 12.75489,23.9585 40.33301,23.9585 27.40576,0 40.16065,-24.4756 12.75488,-24.4756 12.75488,-75.1504 z" /></g>
 <g
   style="fill:#ececec;fill-opacity:1"
   class="TextShape"
   id="text138"
   aria-label="150"><path
     id="path1042"
     style="fill:#ececec;stroke:none;fill-opacity:1"
     d="m 242.88867,5963 v -26.3716 h 61.87842 v -186.8418 l -54.81152,39.1265 v -29.3018 l 57.39697,-39.4712 h 28.6123 v 216.4883 h 59.12061 V 5963 Z" /><path
     id="path1044"
     style="fill:#ececec;stroke:none;fill-opacity:1"
     d="m 593.82031,5883.8853 q 0,38.437 -22.92431,60.4995 -22.75196,22.0625 -63.25733,22.0625 -33.95556,0 -54.81152,-14.8233 -20.85596,-14.8232 -26.37158,-42.9184 l 31.37011,-3.6197 q 9.82471,36.024 50.50244,36.024 24.99268,0 39.12647,-14.9956 14.13379,-15.168 14.13379,-41.5396 0,-22.9243 -14.30615,-37.0581 -14.13379,-14.1338 -38.26465,-14.1338 -12.58252,0 -23.44141,3.9644 -10.85888,3.9643 -21.71777,13.4443 h -30.33594 l 8.10108,-130.6514 h 138.06298 v 26.3716 H 469.89111 l -4.65381,77.0464 q 20.16651,-15.5127 50.15772,-15.5127 35.85156,0 57.05225,21.0283 21.37304,21.0284 21.37304,54.8116 z" /><path
     id="path1046"
     style="fill:#ececec;stroke:none;fill-opacity:1"
     d="m 791.17627,5841.4839 q 0,60.8442 -21.54541,92.9038 -21.37305,32.0596 -63.25732,32.0596 -41.88428,0 -62.9126,-31.8872 -21.02832,-31.8872 -21.02832,-93.0762 0,-62.5679 20.33886,-93.7656 20.51123,-31.1978 64.63623,-31.1978 42.91846,0 63.25733,31.5425 20.51123,31.5425 20.51123,93.4209 z m -31.54248,0 q 0,-52.5708 -12.23779,-76.1846 -12.06543,-23.6138 -39.98829,-23.6138 -28.6123,0 -41.19482,23.2691 -12.41016,23.269 -12.41016,76.5293 0,51.709 12.58252,75.6675 12.75489,23.9585 40.33301,23.9585 27.40576,0 40.16065,-24.4756 12.75488,-24.4756 12.75488,-75.1504 z" /></g>
 <g
   style="fill:#ececec;fill-opacity:1"
   class="TextShape"
   id="text146"
   aria-label="200"><path
     id="path1049"
     style="fill:#ececec;stroke:none;fill-opacity:1"
     d="m 233.75342,5182 v -21.8901 q 8.79053,-20.1665 21.37304,-35.5069 12.75489,-15.5127 26.71631,-27.9228 13.96143,-12.5825 27.57813,-23.2691 13.78906,-10.6865 24.82031,-21.373 11.03125,-10.6865 17.75342,-22.4072 6.89453,-11.7207 6.89453,-26.544 0,-19.9941 -11.7207,-31.0254 -11.72071,-11.0312 -32.57666,-11.0312 -19.82178,0 -32.74903,10.8589 -12.75488,10.6865 -14.9956,30.1635 l -31.71485,-2.9301 q 3.44727,-29.1294 24.64795,-46.3658 21.37305,-17.2363 54.81153,-17.2363 36.71338,0 56.36279,17.4087 19.82178,17.2363 19.82178,49.1235 0,14.1338 -6.54981,28.0952 -6.37744,13.9615 -19.13232,27.9229 -12.75488,13.9614 -48.77881,43.2632 -19.82178,16.2021 -31.54248,29.3017 -11.7207,12.9273 -16.8916,24.9927 H 394.56836 V 5182 Z" /><path
     id="path1051"
     style="fill:#ececec;stroke:none;fill-opacity:1"
     d="m 594.85449,5060.4839 q 0,60.8442 -21.54541,92.9038 -21.37304,32.0596 -63.25732,32.0596 -41.88428,0 -62.9126,-31.8872 -21.02832,-31.8872 -21.02832,-93.0762 0,-62.5679 20.33887,-93.7656 20.51123,-31.1978 64.63623,-31.1978 42.91845,0 63.25732,31.5425 20.51123,31.5425 20.51123,93.4209 z m -31.54248,0 q 0,-52.5708 -12.23779,-76.1846 -12.06543,-23.6138 -39.98828,-23.6138 -28.61231,0 -41.19483,23.2691 -12.41015,23.269 -12.41015,76.5293 0,51.709 12.58252,75.6675 12.75488,23.9585 40.333,23.9585 27.40577,0 40.16065,-24.4756 12.75488,-24.4756 12.75488,-75.1504 z" /><path
     id="path1053"
     style="fill:#ececec;stroke:none;fill-opacity:1"
     d="m 791.17627,5060.4839 q 0,60.8442 -21.54541,92.9038 -21.37305,32.0596 -63.25732,32.0596 -41.88428,0 -62.9126,-31.8872 -21.02832,-31.8872 -21.02832,-93.0762 0,-62.5679 20.33886,-93.7656 20.51123,-31.1978 64.63623,-31.1978 42.91846,0 63.25733,31.5425 20.51123,31.5425 20.51123,93.4209 z m -31.54248,0 q 0,-52.5708 -12.23779,-76.1846 -12.06543,-23.6138 -39.98829,-23.6138 -28.6123,0 -41.19482,23.2691 -12.41016,23.269 -12.41016,76.5293 0,51.709 12.58252,75.6675 12.75489,23.9585 40.33301,23.9585 27.40576,0 40.16065,-24.4756 12.75488,-24.4756 12.75488,-75.1504 z" /></g>
 <g
   style="fill:#ececec;fill-opacity:1"
   class="TextShape"
   id="text154"
   aria-label="250"><path
     id="path1056"
     style="fill:#ececec;stroke:none;fill-opacity:1"
     d="m 233.75342,4402 v -21.8901 q 8.79053,-20.1665 21.37304,-35.5069 12.75489,-15.5127 26.71631,-27.9228 13.96143,-12.5825 27.57813,-23.2691 13.78906,-10.6865 24.82031,-21.373 11.03125,-10.6865 17.75342,-22.4072 6.89453,-11.7207 6.89453,-26.544 0,-19.9941 -11.7207,-31.0254 -11.72071,-11.0312 -32.57666,-11.0312 -19.82178,0 -32.74903,10.8589 -12.75488,10.6865 -14.9956,30.1635 l -31.71485,-2.9301 q 3.44727,-29.1294 24.64795,-46.3658 21.37305,-17.2363 54.81153,-17.2363 36.71338,0 56.36279,17.4087 19.82178,17.2363 19.82178,49.1235 0,14.1338 -6.54981,28.0952 -6.37744,13.9615 -19.13232,27.9229 -12.75488,13.9614 -48.77881,43.2632 -19.82178,16.2021 -31.54248,29.3017 -11.7207,12.9273 -16.8916,24.9927 H 394.56836 V 4402 Z" /><path
     id="path1058"
     style="fill:#ececec;stroke:none;fill-opacity:1"
     d="m 593.82031,4322.8853 q 0,38.437 -22.92431,60.4995 -22.75196,22.0625 -63.25733,22.0625 -33.95556,0 -54.81152,-14.8233 -20.85596,-14.8232 -26.37158,-42.9184 l 31.37011,-3.6197 q 9.82471,36.024 50.50244,36.024 24.99268,0 39.12647,-14.9956 14.13379,-15.168 14.13379,-41.5396 0,-22.9243 -14.30615,-37.0581 -14.13379,-14.1338 -38.26465,-14.1338 -12.58252,0 -23.44141,3.9644 -10.85888,3.9643 -21.71777,13.4443 h -30.33594 l 8.10108,-130.6514 h 138.06298 v 26.3716 H 469.89111 l -4.65381,77.0464 q 20.16651,-15.5127 50.15772,-15.5127 35.85156,0 57.05225,21.0283 21.37304,21.0284 21.37304,54.8116 z" /><path
     id="path1060"
     style="fill:#ececec;stroke:none;fill-opacity:1"
     d="m 791.17627,4280.4839 q 0,60.8442 -21.54541,92.9038 -21.37305,32.0596 -63.25732,32.0596 -41.88428,0 -62.9126,-31.8872 -21.02832,-31.8872 -21.02832,-93.0762 0,-62.5679 20.33886,-93.7656 20.51123,-31.1978 64.63623,-31.1978 42.91846,0 63.25733,31.5425 20.51123,31.5425 20.51123,93.4209 z m -31.54248,0 q 0,-52.5708 -12.23779,-76.1846 -12.06543,-23.6138 -39.98829,-23.6138 -28.6123,0 -41.19482,23.2691 -12.41016,23.269 -12.41016,76.5293 0,51.709 12.58252,75.6675 12.75489,23.9585 40.33301,23.9585 27.40576,0 40.16065,-24.4756 12.75488,-24.4756 12.75488,-75.1504 z" /></g>
 <g
   style="fill:#ececec;fill-opacity:1"
   class="TextShape"
   id="text162"
   aria-label="300"><path
     id="path1063"
     style="fill:#ececec;stroke:none;fill-opacity:1"
     d="m 396.80908,3553.9507 q 0,33.6108 -21.37304,52.0537 -21.37305,18.4429 -61.01661,18.4429 -36.88574,0 -58.94824,-16.5469 -21.89014,-16.7192 -26.02685,-49.2959 l 32.05957,-2.9302 q 6.20507,43.0908 52.91552,43.0908 23.44141,0 36.71338,-11.5483 13.44434,-11.5483 13.44434,-34.3003 0,-19.8218 -15.34033,-30.853 -15.16797,-11.2036 -43.95264,-11.2036 h -17.58106 v -26.8887 h 16.89161 q 25.50976,0 39.47119,-11.0313 14.13379,-11.2036 14.13379,-30.853 0,-19.477 -11.54834,-30.6806 -11.37598,-11.376 -33.95557,-11.376 -20.51123,0 -33.26611,10.5141 -12.58252,10.5142 -14.65088,29.6465 l -31.19776,-2.4131 q 3.44727,-29.8188 24.64795,-46.5381 21.37305,-16.7192 54.81153,-16.7192 36.54101,0 56.70752,17.064 20.33886,16.8916 20.33886,47.2275 0,23.2691 -13.09961,37.9199 -12.92724,14.4785 -37.74755,19.6494 v 0.6895 q 27.23339,2.9302 42.40136,18.2705 15.16797,15.3403 15.16797,38.6094 z" /><path
     id="path1065"
     style="fill:#ececec;stroke:none;fill-opacity:1"
     d="m 594.85449,3499.4839 q 0,60.8442 -21.54541,92.9038 -21.37304,32.0596 -63.25732,32.0596 -41.88428,0 -62.9126,-31.8872 -21.02832,-31.8872 -21.02832,-93.0762 0,-62.5679 20.33887,-93.7656 20.51123,-31.1978 64.63623,-31.1978 42.91845,0 63.25732,31.5425 20.51123,31.5425 20.51123,93.4209 z m -31.54248,0 q 0,-52.5708 -12.23779,-76.1846 -12.06543,-23.6138 -39.98828,-23.6138 -28.61231,0 -41.19483,23.2691 -12.41015,23.269 -12.41015,76.5293 0,51.709 12.58252,75.6675 12.75488,23.9585 40.333,23.9585 27.40577,0 40.16065,-24.4756 12.75488,-24.4756 12.75488,-75.1504 z" /><path
     id="path1067"
     style="fill:#ececec;stroke:none;fill-opacity:1"
     d="m 791.17627,3499.4839 q 0,60.8442 -21.54541,92.9038 -21.37305,32.0596 -63.25732,32.0596 -41.88428,0 -62.9126,-31.8872 -21.02832,-31.8872 -21.02832,-93.0762 0,-62.5679 20.33886,-93.7656 20.51123,-31.1978 64.63623,-31.1978 42.91846,0 63.25733,31.5425 20.51123,31.5425 20.51123,93.4209 z m -31.54248,0 q 0,-52.5708 -12.23779,-76.1846 -12.06543,-23.6138 -39.98829,-23.6138 -28.6123,0 -41.19482,23.2691 -12.41016,23.269 -12.41016,76.5293 0,51.709 12.58252,75.6675 12.75489,23.9585 40.33301,23.9585 27.40576,0 40.16065,-24.4756 12.75488,-24.4756 12.75488,-75.1504 z" /></g>
 <g
   style="fill:#ececec;fill-opacity:1"
   class="TextShape"
   id="text170"
   aria-label="350"><path
     id="path1070"
     style="fill:#ececec;stroke:none;fill-opacity:1"
     d="m 396.80908,2772.9507 q 0,33.6108 -21.37304,52.0537 -21.37305,18.4429 -61.01661,18.4429 -36.88574,0 -58.94824,-16.5469 -21.89014,-16.7192 -26.02685,-49.2959 l 32.05957,-2.9302 q 6.20507,43.0908 52.91552,43.0908 23.44141,0 36.71338,-11.5483 13.44434,-11.5483 13.44434,-34.3003 0,-19.8218 -15.34033,-30.853 -15.16797,-11.2036 -43.95264,-11.2036 h -17.58106 v -26.8887 h 16.89161 q 25.50976,0 39.47119,-11.0313 14.13379,-11.2036 14.13379,-30.853 0,-19.477 -11.54834,-30.6806 -11.37598,-11.376 -33.95557,-11.376 -20.51123,0 -33.26611,10.5141 -12.58252,10.5142 -14.65088,29.6465 l -31.19776,-2.4131 q 3.44727,-29.8188 24.64795,-46.5381 21.37305,-16.7192 54.81153,-16.7192 36.54101,0 56.70752,17.064 20.33886,16.8916 20.33886,47.2275 0,23.2691 -13.09961,37.9199 -12.92724,14.4785 -37.74755,19.6494 v 0.6895 q 27.23339,2.9302 42.40136,18.2705 15.16797,15.3403 15.16797,38.6094 z" /><path
     id="path1072"
     style="fill:#ececec;stroke:none;fill-opacity:1"
     d="m 593.82031,2760.8853 q 0,38.437 -22.92431,60.4995 -22.75196,22.0625 -63.25733,22.0625 -33.95556,0 -54.81152,-14.8233 -20.85596,-14.8232 -26.37158,-42.9184 l 31.37011,-3.6197 q 9.82471,36.024 50.50244,36.024 24.99268,0 39.12647,-14.9956 14.13379,-15.168 14.13379,-41.5396 0,-22.9243 -14.30615,-37.0581 -14.13379,-14.1338 -38.26465,-14.1338 -12.58252,0 -23.44141,3.9644 -10.85888,3.9643 -21.71777,13.4443 h -30.33594 l 8.10108,-130.6514 h 138.06298 v 26.3716 H 469.89111 l -4.65381,77.0464 q 20.16651,-15.5127 50.15772,-15.5127 35.85156,0 57.05225,21.0283 21.37304,21.0284 21.37304,54.8116 z" /><path
     id="path1074"
     style="fill:#ececec;stroke:none;fill-opacity:1"
     d="m 791.17627,2718.4839 q 0,60.8442 -21.54541,92.9038 -21.37305,32.0596 -63.25732,32.0596 -41.88428,0 -62.9126,-31.8872 -21.02832,-31.8872 -21.02832,-93.0762 0,-62.5679 20.33886,-93.7656 20.51123,-31.1978 64.63623,-31.1978 42.91846,0 63.25733,31.5425 20.51123,31.5425 20.51123,93.4209 z m -31.54248,0 q 0,-52.5708 -12.23779,-76.1846 -12.06543,-23.6138 -39.98829,-23.6138 -28.6123,0 -41.19482,23.2691 -12.41016,23.269 -12.41016,76.5293 0,51.709 12.58252,75.6675 12.75489,23.9585 40.33301,23.9585 27.40576,0 40.16065,-24.4756 12.75488,-24.4756 12.75488,-75.1504 z" /></g>
 <g
   style="fill:#ececec;fill-opacity:1"
   class="TextShape"
   id="text178"
   aria-label="400"><path
     id="path1077"
     style="fill:#ececec;stroke:none;fill-opacity:1"
     d="M 367.85205,2005.0161 V 2060 h -29.30176 v -54.9839 H 224.10107 v -24.1308 l 111.17432,-163.7452 h 32.57666 v 163.4004 h 34.12793 v 24.4756 z m -29.30176,-152.8862 q -0.34472,1.0342 -4.82617,9.1352 -4.48144,8.1011 -6.72217,11.376 l -62.22314,91.6973 -9.30762,12.7549 -2.75781,3.4472 h 85.83691 z" /><path
     id="path1079"
     style="fill:#ececec;stroke:none;fill-opacity:1"
     d="m 594.85449,1938.4839 q 0,60.8442 -21.54541,92.9038 -21.37304,32.0596 -63.25732,32.0596 -41.88428,0 -62.9126,-31.8872 -21.02832,-31.8872 -21.02832,-93.0762 0,-62.5679 20.33887,-93.7656 20.51123,-31.1978 64.63623,-31.1978 42.91845,0 63.25732,31.5425 20.51123,31.5425 20.51123,93.4209 z m -31.54248,0 q 0,-52.5708 -12.23779,-76.1846 -12.06543,-23.6138 -39.98828,-23.6138 -28.61231,0 -41.19483,23.2691 -12.41015,23.269 -12.41015,76.5293 0,51.709 12.58252,75.6675 12.75488,23.9585 40.333,23.9585 27.40577,0 40.16065,-24.4756 12.75488,-24.4756 12.75488,-75.1504 z" /><path
     id="path1081"
     style="fill:#ececec;stroke:none;fill-opacity:1"
     d="m 791.17627,1938.4839 q 0,60.8442 -21.54541,92.9038 -21.37305,32.0596 -63.25732,32.0596 -41.88428,0 -62.9126,-31.8872 -21.02832,-31.8872 -21.02832,-93.0762 0,-62.5679 20.33886,-93.7656 20.51123,-31.1978 64.63623,-31.1978 42.91846,0 63.25733,31.5425 20.51123,31.5425 20.51123,93.4209 z m -31.54248,0 q 0,-52.5708 -12.23779,-76.1846 -12.06543,-23.6138 -39.98829,-23.6138 -28.6123,0 -41.19482,23.2691 -12.41016,23.269 -12.41016,76.5293 0,51.709 12.58252,75.6675 12.75489,23.9585 40.33301,23.9585 27.40576,0 40.16065,-24.4756 12.75488,-24.4756 12.75488,-75.1504 z" /></g>
 <g
   style="fill:#ececec;fill-opacity:1"
   class="TextShape"
   id="text186"
   aria-label="450"><path
     id="path1084"
     style="fill:#ececec;stroke:none;fill-opacity:1"
     d="M 367.85205,1224.0161 V 1279 h -29.30176 v -54.9839 H 224.10107 v -24.1308 l 111.17432,-163.7452 h 32.57666 v 163.4004 h 34.12793 v 24.4756 z m -29.30176,-152.8862 q -0.34472,1.0342 -4.82617,9.1352 -4.48144,8.1011 -6.72217,11.376 l -62.22314,91.6973 -9.30762,12.7549 -2.75781,3.4472 h 85.83691 z" /><path
     id="path1086"
     style="fill:#ececec;stroke:none;fill-opacity:1"
     d="m 593.82031,1199.8853 q 0,38.437 -22.92431,60.4995 -22.75196,22.0625 -63.25733,22.0625 -33.95556,0 -54.81152,-14.8233 -20.85596,-14.8232 -26.37158,-42.9184 l 31.37011,-3.6197 q 9.82471,36.024 50.50244,36.024 24.99268,0 39.12647,-14.9956 14.13379,-15.168 14.13379,-41.5396 0,-22.9243 -14.30615,-37.0581 -14.13379,-14.1338 -38.26465,-14.1338 -12.58252,0 -23.44141,3.9644 -10.85888,3.9643 -21.71777,13.4443 h -30.33594 l 8.10108,-130.6514 h 138.06298 v 26.3716 H 469.89111 l -4.65381,77.0464 q 20.16651,-15.5127 50.15772,-15.5127 35.85156,0 57.05225,21.0283 21.37304,21.0284 21.37304,54.8116 z" /><path
     id="path1088"
     style="fill:#ececec;stroke:none;fill-opacity:1"
     d="m 791.17627,1157.4839 q 0,60.8442 -21.54541,92.9038 -21.37305,32.0596 -63.25732,32.0596 -41.88428,0 -62.9126,-31.8872 -21.02832,-31.8872 -21.02832,-93.0762 0,-62.5679 20.33886,-93.7656 20.51123,-31.1978 64.63623,-31.1978 42.91846,0 63.25733,31.5425 20.51123,31.5425 20.51123,93.4209 z m -31.54248,0 q 0,-52.5708 -12.23779,-76.1846 -12.06543,-23.6138 -39.98829,-23.6138 -28.6123,0 -41.19482,23.2691 -12.41016,23.269 -12.41016,76.5293 0,51.709 12.58252,75.6675 12.75489,23.9585 40.33301,23.9585 27.40576,0 40.16065,-24.4756 12.75488,-24.4756 12.75488,-75.1504 z" /></g>
 <g
   style="fill:#ececec;fill-opacity:1"
   class="TextShape"
   id="text194"
   aria-label="500"><path
     id="path1091"
     style="fill:#ececec;stroke:none;fill-opacity:1"
     d="m 397.49854,419.88525 q 0,38.43702 -22.92432,60.49952 -22.75195,22.0625 -63.25733,22.0625 -33.95556,0 -54.81152,-14.82325 -20.85596,-14.82324 -26.37158,-42.91845 l 31.37012,-3.61963 q 9.8247,36.02392 50.50244,36.02392 24.99267,0 39.12646,-14.9956 14.13379,-15.16797 14.13379,-41.53955 0,-22.92432 -14.30615,-37.05811 -14.13379,-14.13379 -38.26465,-14.13379 -12.58252,0 -23.44141,3.96436 -10.85888,3.96435 -21.71777,13.44433 h -30.33594 l 8.10108,-130.65136 h 138.06299 v 26.37158 H 273.56934 l -4.65381,77.04639 q 20.1665,-15.5127 50.15771,-15.5127 35.85156,0 57.05225,21.02832 21.37305,21.02832 21.37305,54.81152 z" /><path
     id="path1093"
     style="fill:#ececec;stroke:none;fill-opacity:1"
     d="m 594.85449,377.48389 q 0,60.84423 -21.54541,92.90381 -21.37304,32.05957 -63.25732,32.05957 -41.88428,0 -62.9126,-31.88721 -21.02832,-31.88721 -21.02832,-93.07617 0,-62.56787 20.33887,-93.76563 20.51123,-31.19775 64.63623,-31.19775 42.91845,0 63.25732,31.54248 20.51123,31.54248 20.51123,93.4209 z m -31.54248,0 q 0,-52.5708 -12.23779,-76.18457 -12.06543,-23.61377 -39.98828,-23.61377 -28.61231,0 -41.19483,23.26904 -12.41015,23.26904 -12.41015,76.5293 0,51.70898 12.58252,75.66748 12.75488,23.95849 40.333,23.95849 27.40577,0 40.16065,-24.47558 12.75488,-24.47559 12.75488,-75.15039 z" /><path
     id="path1095"
     style="fill:#ececec;stroke:none;fill-opacity:1"
     d="m 791.17627,377.48389 q 0,60.84423 -21.54541,92.90381 -21.37305,32.05957 -63.25732,32.05957 -41.88428,0 -62.9126,-31.88721 -21.02832,-31.88721 -21.02832,-93.07617 0,-62.56787 20.33886,-93.76563 20.51123,-31.19775 64.63623,-31.19775 42.91846,0 63.25733,31.54248 20.51123,31.54248 20.51123,93.4209 z m -31.54248,0 q 0,-52.5708 -12.23779,-76.18457 -12.06543,-23.61377 -39.98829,-23.61377 -28.6123,0 -41.19482,23.26904 -12.41016,23.26904 -12.41016,76.5293 0,51.70898 12.58252,75.66748 12.75489,23.95849 40.33301,23.95849 27.40576,0 40.16065,-24.47558 12.75488,-24.47559 12.75488,-75.15039 z" /></g>
</svg>
