<?xml version="1.0" encoding="UTF-8" standalone="no"?>
<svg
   xmlns:dc="http://purl.org/dc/elements/1.1/"
   xmlns:cc="http://creativecommons.org/ns#"
   xmlns:rdf="http://www.w3.org/1999/02/22-rdf-syntax-ns#"
   xmlns:svg="http://www.w3.org/2000/svg"
   xmlns="http://www.w3.org/2000/svg"
   xmlns:sodipodi="http://sodipodi.sourceforge.net/DTD/sodipodi-0.dtd"
   xmlns:inkscape="http://www.inkscape.org/namespaces/inkscape"
   inkscape:version="1.0 (4035a4fb49, 2020-05-01)"
   sodipodi:docname="get_component.svg"
   id="svg210"
   xml:space="preserve"
   stroke-linejoin="round"
   stroke-width="28.222"
   version="1.1"
   viewBox="0 0 16000 9000"
   height="90mm"
   width="160mm"><metadata
   id="metadata216"><rdf:RDF><cc:Work
       rdf:about=""><dc:format>image/svg+xml</dc:format><dc:type
         rdf:resource="http://purl.org/dc/dcmitype/StillImage" /><dc:title></dc:title></cc:Work></rdf:RDF></metadata><defs
   id="defs214" /><sodipodi:namedview
   inkscape:current-layer="svg210"
   inkscape:window-maximized="1"
   inkscape:window-y="0"
   inkscape:window-x="0"
   inkscape:cy="176.51266"
   inkscape:cx="305.50184"
   inkscape:zoom="2.3184115"
   showgrid="false"
   id="namedview212"
   inkscape:window-height="1440"
   inkscape:window-width="3440"
   inkscape:pageshadow="2"
   inkscape:pageopacity="0"
   guidetolerance="10"
   gridtolerance="10"
   objecttolerance="10"
   borderopacity="1"
   bordercolor="#666666"
   pagecolor="#ffffff" />
 
 
 <path
   style="stroke-width:28.23104167;stroke-miterlimit:4;stroke-dasharray:none;fill:#474747;fill-opacity:1"
   id="path90"
   d="M 12915,8171 L 14757,8171 14757,1567 12915,1567 12915,8171 Z"
   stroke="none"
   fill="rgb(0,69,134)" /><path
   style="stroke-width:28.23104167;stroke-miterlimit:4;stroke-dasharray:none;fill:#474747;fill-opacity:1"
   id="path92"
   d="M 9230,8171 L 11073,8171 11073,4712 9230,4712 9230,8171 Z"
   stroke="none"
   fill="rgb(0,69,134)" /><path
   style="stroke-width:28.23104167;stroke-miterlimit:4;stroke-dasharray:none;fill:#474747;fill-opacity:1"
   id="path94"
   d="M 5546,8171 L 7389,8171 7389,4999 5546,4999 5546,8171 Z"
   stroke="none"
   fill="rgb(0,69,134)" /><path
   style="fill:#4a96dc;fill-opacity:1"
   id="path96"
   d="M 1862,8171 L 3704,8171 3704,6437 1862,6437 1862,8171 Z"
   stroke="none"
   fill="rgb(0,69,134)" /><path
   style="stroke:#ececec;stroke-opacity:1"
   id="path6"
   d="M 15679,8171 L 941,8171"
   stroke-linejoin="round"
   stroke="rgb(179,179,179)"
   fill="none" />
 
 
 
 
 
 
 
 
 
 <path
   style="stroke:#ececec;stroke-opacity:1"
   id="path26"
   d="M 941,8321 L 941,8171"
   stroke-linejoin="round"
   stroke="rgb(179,179,179)"
   fill="none" />
 <path
   style="stroke:#ececec;stroke-opacity:1"
   id="path28"
   d="M 941,8321 L 941,8171"
   stroke-linejoin="round"
   stroke="rgb(179,179,179)"
   fill="none" />
 <path
   style="stroke:#ececec;stroke-opacity:1"
   id="path30"
   d="M 4625,8321 L 4625,8171"
   stroke-linejoin="round"
   stroke="rgb(179,179,179)"
   fill="none" />
 <path
   style="stroke:#ececec;stroke-opacity:1"
   id="path32"
   d="M 4625,8321 L 4625,8171"
   stroke-linejoin="round"
   stroke="rgb(179,179,179)"
   fill="none" />
 <path
   style="stroke:#ececec;stroke-opacity:1"
   id="path34"
   d="M 8309,8321 L 8309,8171"
   stroke-linejoin="round"
   stroke="rgb(179,179,179)"
   fill="none" />
 <path
   style="stroke:#ececec;stroke-opacity:1"
   id="path36"
   d="M 8309,8321 L 8309,8171"
   stroke-linejoin="round"
   stroke="rgb(179,179,179)"
   fill="none" />
 <path
   style="stroke:#ececec;stroke-opacity:1"
   id="path38"
   d="M 11994,8321 L 11994,8171"
   stroke-linejoin="round"
   stroke="rgb(179,179,179)"
   fill="none" />
 <path
   style="stroke:#ececec;stroke-opacity:1"
   id="path40"
   d="M 11994,8321 L 11994,8171"
   stroke-linejoin="round"
   stroke="rgb(179,179,179)"
   fill="none" />
 <path
   style="stroke:#ececec;stroke-opacity:1"
   id="path42"
   d="M 15679,8321 L 15679,8171"
   stroke-linejoin="round"
   stroke="rgb(179,179,179)"
   fill="none" />
 <path
   style="stroke:#ececec;stroke-opacity:1"
   id="path44"
   d="M 15679,8321 L 15679,8171"
   stroke-linejoin="round"
   stroke="rgb(179,179,179)"
   fill="none" />
 <path
   style="stroke:#ececec;stroke-opacity:1"
   id="path46"
   d="M 941,8171 L 15679,8171"
   stroke-linejoin="round"
   stroke="rgb(179,179,179)"
   fill="none" />
 <path
   style="stroke:#ececec;stroke-opacity:1"
   id="path48"
   d="M 791,8171 L 941,8171"
   stroke-linejoin="round"
   stroke="rgb(179,179,179)"
   fill="none" />
 <path
   style="stroke:#ececec;stroke-opacity:1"
   id="path50"
   d="M 791,8171 L 941,8171"
   stroke-linejoin="round"
   stroke="rgb(179,179,179)"
   fill="none" />
 <path
   style="stroke:#ececec;stroke-opacity:1"
   id="path52"
   d="M 791,7305 L 941,7305"
   stroke-linejoin="round"
   stroke="rgb(179,179,179)"
   fill="none" />
 <path
   style="stroke:#ececec;stroke-opacity:1"
   id="path54"
   d="M 791,7305 L 941,7305"
   stroke-linejoin="round"
   stroke="rgb(179,179,179)"
   fill="none" />
 <path
   style="stroke:#ececec;stroke-opacity:1"
   id="path56"
   d="M 791,6439 L 941,6439"
   stroke-linejoin="round"
   stroke="rgb(179,179,179)"
   fill="none" />
 <path
   style="stroke:#ececec;stroke-opacity:1"
   id="path58"
   d="M 791,6439 L 941,6439"
   stroke-linejoin="round"
   stroke="rgb(179,179,179)"
   fill="none" />
 <path
   style="stroke:#ececec;stroke-opacity:1"
   id="path60"
   d="M 791,5573 L 941,5573"
   stroke-linejoin="round"
   stroke="rgb(179,179,179)"
   fill="none" />
 <path
   style="stroke:#ececec;stroke-opacity:1"
   id="path62"
   d="M 791,5573 L 941,5573"
   stroke-linejoin="round"
   stroke="rgb(179,179,179)"
   fill="none" />
 <path
   style="stroke:#ececec;stroke-opacity:1"
   id="path64"
   d="M 791,4707 L 941,4707"
   stroke-linejoin="round"
   stroke="rgb(179,179,179)"
   fill="none" />
 <path
   style="stroke:#ececec;stroke-opacity:1"
   id="path66"
   d="M 791,4707 L 941,4707"
   stroke-linejoin="round"
   stroke="rgb(179,179,179)"
   fill="none" />
 <path
   style="stroke:#ececec;stroke-opacity:1"
   id="path68"
   d="M 791,3842 L 941,3842"
   stroke-linejoin="round"
   stroke="rgb(179,179,179)"
   fill="none" />
 <path
   style="stroke:#ececec;stroke-opacity:1"
   id="path70"
   d="M 791,3842 L 941,3842"
   stroke-linejoin="round"
   stroke="rgb(179,179,179)"
   fill="none" />
 <path
   style="stroke:#ececec;stroke-opacity:1"
   id="path72"
   d="M 791,2976 L 941,2976"
   stroke-linejoin="round"
   stroke="rgb(179,179,179)"
   fill="none" />
 <path
   style="stroke:#ececec;stroke-opacity:1"
   id="path74"
   d="M 791,2976 L 941,2976"
   stroke-linejoin="round"
   stroke="rgb(179,179,179)"
   fill="none" />
 <path
   style="stroke:#ececec;stroke-opacity:1"
   id="path76"
   d="M 791,2110 L 941,2110"
   stroke-linejoin="round"
   stroke="rgb(179,179,179)"
   fill="none" />
 <path
   style="stroke:#ececec;stroke-opacity:1"
   id="path78"
   d="M 791,2110 L 941,2110"
   stroke-linejoin="round"
   stroke="rgb(179,179,179)"
   fill="none" />
 <path
   style="stroke:#ececec;stroke-opacity:1"
   id="path80"
   d="M 791,1244 L 941,1244"
   stroke-linejoin="round"
   stroke="rgb(179,179,179)"
   fill="none" />
 <path
   style="stroke:#ececec;stroke-opacity:1"
   id="path82"
   d="M 791,1244 L 941,1244"
   stroke-linejoin="round"
   stroke="rgb(179,179,179)"
   fill="none" />
 <path
   style="stroke:#ececec;stroke-opacity:1"
   id="path84"
   d="M 791,378 L 941,378"
   stroke-linejoin="round"
   stroke="rgb(179,179,179)"
   fill="none" />
 <path
   style="stroke:#ececec;stroke-opacity:1"
   id="path86"
   d="M 791,378 L 941,378"
   stroke-linejoin="round"
   stroke="rgb(179,179,179)"
   fill="none" />
 <path
   style="stroke:#ececec;stroke-opacity:1"
   id="path88"
   d="M 941,8171 L 941,378"
   stroke-linejoin="round"
   stroke="rgb(179,179,179)"
   fill="none" />
 
 
 
 
 <g
   style="fill:#ececec;fill-opacity:1"
   class="TextShape"
   id="text104"
   aria-label="bevy-0.2"><path
     id="path1189"
     style="fill:#ececec;stroke:none;fill-opacity:1"
     d="m 2302.4985,8644.8896 q 0,97.5577 -68.6006,97.5577 -21.2006,0 -35.3344,-7.584 -13.9614,-7.7564 -22.752,-24.8203 h -0.3447 q 0,5.3432 -0.6895,16.3745 -0.6894,10.8589 -1.0341,12.5825 h -29.9912 q 1.0341,-9.3076 1.0341,-38.437 v -217.3501 h 31.0254 v 72.9097 q 0,11.2036 -0.6894,26.3715 h 0.6894 q 8.6182,-17.9257 22.752,-25.6821 14.3061,-7.7563 35.3344,-7.7563 35.3345,0 51.8814,23.7861 16.7192,23.7861 16.7192,72.0478 z m -32.5766,1.0342 q 0,-39.1264 -10.3418,-56.018 -10.3418,-16.8916 -33.6109,-16.8916 -26.1992,0 -38.2646,17.9257 -11.8931,17.9258 -11.8931,56.8799 0,36.7134 11.7207,54.2945 11.7207,17.4086 38.0923,17.4086 23.4414,0 33.7832,-17.2363 10.5142,-17.4087 10.5142,-56.3628 z" /><path
     id="path1191"
     style="fill:#ececec;stroke:none;fill-opacity:1"
     d="m 2364.894,8652.3013 q 0,32.0595 13.272,49.4682 13.272,17.4087 38.7818,17.4087 20.1665,0 32.2319,-8.1011 12.2378,-8.101 16.5469,-20.5112 l 27.2334,7.7564 q -16.7193,44.125 -76.0122,44.125 -41.3672,0 -63.085,-24.648 -21.5454,-24.6479 -21.5454,-73.2544 0,-46.1933 21.5454,-70.8413 21.7178,-24.6479 61.8784,-24.6479 82.2173,0 82.2173,99.1089 v 4.1367 z m 101.0049,-23.7862 q -2.5854,-29.4741 -14.9956,-42.9184 -12.4101,-13.6167 -35.6792,-13.6167 -22.5796,0 -35.8515,15.1679 -13.0997,14.9957 -14.1338,41.3672 z" /><path
     id="path1193"
     style="fill:#ececec;stroke:none;fill-opacity:1"
     d="m 2619.3022,8739 h -36.7133 l -67.7388,-186.4971 h 33.0937 l 41.0225,121.3438 q 2.2407,6.8945 11.8931,40.8501 l 6.0327,-20.1665 6.7222,-20.3389 42.4013,-121.6885 h 32.9214 z" /><path
     id="path1195"
     style="fill:#ececec;stroke:none;fill-opacity:1"
     d="m 2723.0649,8812.2544 q -12.7548,0 -21.373,-1.896 v -23.269 q 6.5498,1.0341 14.4785,1.0341 28.957,0 45.8486,-42.5737 l 2.9302,-7.4116 -73.9438,-185.6353 h 33.0937 l 39.2988,103.0733 q 0.8619,2.4131 2.0684,5.8603 1.2066,3.2749 7.7564,22.4073 6.5498,19.1323 7.0669,21.373 l 12.0654,-33.9556 40.8501,-118.7583 h 32.749 L 2794.251,8739 q -11.5484,29.8188 -21.5454,44.2974 -9.9971,14.6508 -22.2349,21.7177 -12.0654,7.2393 -27.4058,7.2393 z" /><path
     id="path1197"
     style="fill:#ececec;stroke:none;fill-opacity:1"
     d="m 2882.3286,8659.0234 v -27.5781 h 86.1817 v 27.5781 z" /><path
     id="path1199"
     style="fill:#ececec;stroke:none;fill-opacity:1"
     d="m 3166.728,8617.4839 q 0,60.8442 -21.5454,92.9038 -21.373,32.0596 -63.2573,32.0596 -41.8843,0 -62.9126,-31.8872 -21.0283,-31.8872 -21.0283,-93.0762 0,-62.5679 20.3388,-93.7656 20.5113,-31.1978 64.6363,-31.1978 42.9184,0 63.2573,31.5425 20.5112,31.5425 20.5112,93.4209 z m -31.5425,0 q 0,-52.5708 -12.2377,-76.1846 -12.0655,-23.6138 -39.9883,-23.6138 -28.6123,0 -41.1949,23.2691 -12.4101,23.269 -12.4101,76.5293 0,51.709 12.5825,75.6675 12.7549,23.9585 40.333,23.9585 27.4058,0 40.1607,-24.4756 12.7548,-24.4756 12.7548,-75.1504 z" /><path
     id="path1201"
     style="fill:#ececec;stroke:none;fill-opacity:1"
     d="m 3212.749,8739 v -37.7476 h 33.6109 V 8739 Z" /><path
     id="path1203"
     style="fill:#ececec;stroke:none;fill-opacity:1"
     d="m 3296.3452,8739 v -21.8901 q 8.7905,-20.1665 21.3731,-35.5069 12.7548,-15.5127 26.7163,-27.9228 13.9614,-12.5825 27.5781,-23.2691 13.7891,-10.6865 24.8203,-21.373 11.0313,-10.6865 17.7534,-22.4072 6.8946,-11.7207 6.8946,-26.544 0,-19.9941 -11.7207,-31.0254 -11.7207,-11.0312 -32.5767,-11.0312 -19.8218,0 -32.749,10.8589 -12.7549,10.6865 -14.9956,30.1635 l -31.7149,-2.9301 q 3.4473,-29.1294 24.648,-46.3658 21.373,-17.2363 54.8115,-17.2363 36.7134,0 56.3628,17.4087 19.8218,17.2363 19.8218,49.1235 0,14.1338 -6.5498,28.0952 -6.3775,13.9615 -19.1324,27.9229 -12.7548,13.9614 -48.7788,43.2632 -19.8218,16.2021 -31.5425,29.3017 -11.7207,12.9273 -16.8916,24.9927 h 126.6871 V 8739 Z" /></g>
 <g
   style="fill:#ececec;fill-opacity:1"
   class="TextShape"
   id="text112"
   aria-label="legion"><path
     id="path1206"
     style="fill:#ececec;stroke:none;fill-opacity:1"
     d="m 6041.7861,8739 v -255.7871 h 31.0254 V 8739 Z" /><path
     id="path1208"
     style="fill:#ececec;stroke:none;fill-opacity:1"
     d="m 6143.9976,8652.3013 q 0,32.0595 13.2719,49.4682 13.272,17.4087 38.7818,17.4087 20.1665,0 32.2319,-8.1011 12.2378,-8.101 16.5469,-20.5112 l 27.2334,7.7564 q -16.7193,44.125 -76.0122,44.125 -41.3672,0 -63.085,-24.648 -21.5454,-24.6479 -21.5454,-73.2544 0,-46.1933 21.5454,-70.8413 21.7178,-24.6479 61.8784,-24.6479 82.2173,0 82.2173,99.1089 v 4.1367 z m 101.0048,-23.7862 q -2.5854,-29.4741 -14.9956,-42.9184 -12.4101,-13.6167 -35.6792,-13.6167 -22.5796,0 -35.8515,15.1679 -13.0996,14.9957 -14.1338,41.3672 z" /><path
     id="path1210"
     style="fill:#ececec;stroke:none;fill-opacity:1"
     d="m 6387.2021,8812.2544 q -30.5083,0 -48.6064,-12.0654 -18.0981,-11.8931 -23.269,-33.9556 l 31.1977,-4.4814 q 3.1026,12.9272 13.6167,19.8217 10.6865,7.0669 27.9229,7.0669 46.3657,0 46.3657,-54.2944 v -29.9912 h -0.3447 q -8.7906,17.9258 -24.1309,27.061 -15.3403,8.9629 -35.8516,8.9629 -34.3003,0 -50.5024,-22.7519 -16.0298,-22.752 -16.0298,-71.5308 0,-49.4683 17.2363,-72.9097 17.4087,-23.6137 52.7432,-23.6137 19.8218,0 34.3003,9.1352 14.6509,8.9629 22.5796,25.6821 h 0.3447 q 0,-5.1709 0.6895,-17.9257 0.6894,-12.7549 1.3789,-13.9615 h 29.4741 q -1.0342,9.3076 -1.0342,38.6094 v 142.5444 q 0,78.5977 -78.0806,78.5977 z m 47.2276,-166.5029 q 0,-22.752 -6.2051,-39.1265 -6.2051,-16.5469 -17.581,-25.165 -11.2037,-8.7906 -25.5098,-8.7906 -23.7861,0 -34.645,17.2364 -10.8589,17.2363 -10.8589,55.8457 0,38.2646 10.1694,54.9839 10.1694,16.7192 34.8174,16.7192 14.6509,0 26.0269,-8.6182 11.3759,-8.6181 17.581,-24.6479 6.2051,-16.2022 6.2051,-38.437 z" /><path
     id="path1212"
     style="fill:#ececec;stroke:none;fill-opacity:1"
     d="m 6512.6826,8512.8594 v -29.6465 h 31.0254 v 29.6465 z m 0,226.1406 v -186.4971 h 31.0254 V 8739 Z" /><path
     id="path1214"
     style="fill:#ececec;stroke:none;fill-opacity:1"
     d="m 6748.9927,8645.5791 q 0,48.9512 -21.5454,72.9097 -21.5454,23.9585 -62.5679,23.9585 -40.8501,0 -61.7061,-24.8203 -20.8559,-24.9927 -20.8559,-72.0479 0,-96.5234 83.5962,-96.5234 42.7461,0 62.9126,23.6137 20.1665,23.4414 20.1665,72.9097 z m -32.5767,0 q 0,-38.6094 -11.5483,-56.0181 -11.376,-17.581 -38.437,-17.581 -27.2334,0 -39.4712,17.9258 -12.0655,17.7534 -12.0655,55.6733 0,36.8857 11.8931,55.501 12.0654,18.4428 37.7476,18.4428 27.9228,0 39.8159,-17.9257 12.0654,-17.9258 12.0654,-56.0181 z" /><path
     id="path1216"
     style="fill:#ececec;stroke:none;fill-opacity:1"
     d="m 6906.0156,8739 v -118.2412 q 0,-18.4429 -3.6196,-28.6123 -3.6196,-10.1694 -11.5483,-14.6509 -7.9288,-4.4814 -23.2691,-4.4814 -22.4072,0 -35.3345,15.3403 -12.9272,15.3403 -12.9272,42.5737 V 8739 h -31.0254 v -146.6812 q 0,-32.5766 -1.0342,-39.8159 h 29.3018 q 0.1723,0.8618 0.3447,4.6538 0.1724,3.792 0.3447,8.7906 0.3448,4.8261 0.6895,18.4428 h 0.5171 q 10.6865,-19.3047 24.6479,-27.2334 14.1338,-8.101 34.9898,-8.101 30.6806,0 44.8144,15.3403 14.3062,15.168 14.3062,50.3301 V 8739 Z" /></g>
 <g
   style="fill:#ececec;fill-opacity:1"
   class="TextShape"
   id="text120"
   aria-label="hecs"><path
     id="path1219"
     style="fill:#ececec;stroke:none;fill-opacity:1"
     d="m 9835.6392,8584.3901 q 9.997,-18.2705 23.9585,-26.7163 14.1337,-8.6181 35.6792,-8.6181 30.3359,0 44.642,15.1679 14.4786,14.9956 14.4786,50.5025 V 8739 h -31.1978 v -118.2412 q 0,-19.6494 -3.6196,-29.1294 -3.6197,-9.6523 -11.8931,-14.1338 -8.2734,-4.4814 -22.9243,-4.4814 -21.8901,0 -35.1621,15.1679 -13.0996,15.168 -13.0996,40.8501 V 8739 h -31.0254 v -255.7871 h 31.0254 v 66.5322 q 0,10.5142 -0.6895,21.7178 -0.5171,11.2036 -0.6894,12.9272 z" /><path
     id="path1221"
     style="fill:#ececec;stroke:none;fill-opacity:1"
     d="m 10024.894,8652.3013 q 0,32.0595 13.272,49.4682 13.272,17.4087 38.782,17.4087 20.166,0 32.232,-8.1011 12.237,-8.101 16.547,-20.5112 l 27.233,7.7564 q -16.719,44.125 -76.012,44.125 -41.367,0 -63.085,-24.648 -21.5456,-24.6479 -21.5456,-73.2544 0,-46.1933 21.5456,-70.8413 21.718,-24.6479 61.878,-24.6479 82.217,0 82.217,99.1089 v 4.1367 z m 101.005,-23.7862 q -2.586,-29.4741 -14.996,-42.9184 -12.41,-13.6167 -35.679,-13.6167 -22.579,0 -35.851,15.1679 -13.1,14.9957 -14.134,41.3672 z" /><path
     id="path1223"
     style="fill:#ececec;stroke:none;fill-opacity:1"
     d="m 10221.043,8644.8896 q 0,37.2305 11.721,55.1563 11.721,17.9258 35.335,17.9258 16.547,0 27.578,-8.9629 11.203,-8.9629 13.789,-27.5781 l 31.37,2.0683 q -3.62,26.8887 -22.924,42.9185 -19.305,16.0298 -48.952,16.0298 -39.126,0 -59.81,-24.648 -20.511,-24.8203 -20.511,-72.2202 0,-47.0552 20.684,-71.7031 20.683,-24.8203 59.293,-24.8203 28.612,0 47.4,14.8232 18.96,14.8232 23.786,40.8501 l -31.887,2.4131 q -2.414,-15.5127 -12.238,-24.648 -9.825,-9.1352 -27.923,-9.1352 -24.648,0 -35.679,16.3745 -11.032,16.3745 -11.032,55.1562 z" /><path
     id="path1225"
     style="fill:#ececec;stroke:none;fill-opacity:1"
     d="m 10513.889,8687.4634 q 0,26.3716 -19.994,40.6777 -19.822,14.3062 -55.674,14.3062 -34.817,0 -53.777,-11.376 -18.788,-11.5484 -24.476,-35.8516 l 27.406,-5.3432 q 3.964,14.9956 16.375,22.0625 12.41,6.8945 34.472,6.8945 23.614,0 34.473,-7.2393 11.031,-7.2392 11.031,-21.7177 0,-11.0313 -7.584,-17.9258 -7.584,-6.8945 -24.475,-11.376 l -22.235,-5.8603 q -26.717,-6.8946 -38.093,-13.4444 -11.203,-6.7221 -17.581,-16.2021 -6.377,-9.48 -6.377,-23.2691 0,-25.5097 18.098,-38.7817 18.271,-13.4443 53.088,-13.4443 30.853,0 48.951,10.8588 18.271,10.8589 23.097,34.8174 l -27.923,3.4473 q -2.586,-12.4102 -13.962,-18.96 -11.203,-6.7221 -30.163,-6.7221 -21.028,0 -31.025,6.3774 -9.998,6.3774 -9.998,19.3047 0,7.9287 4.137,13.0996 4.137,5.1709 12.238,8.7905 8.101,3.6197 34.128,9.9971 24.648,6.2051 35.507,11.5483 10.859,5.1709 17.064,11.5484 6.377,6.3774 9.824,14.8232 3.448,8.2735 3.448,18.96 z" /></g>
 <g
   style="fill:#ececec;fill-opacity:1"
   class="TextShape"
   id="text128"
   aria-label="bevy-0.1"><path
     id="path1228"
     style="fill:#ececec;stroke:none;fill-opacity:1"
     d="m 13356.499,8644.8896 q 0,97.5577 -68.601,97.5577 -21.201,0 -35.335,-7.584 -13.961,-7.7564 -22.751,-24.8203 h -0.345 q 0,5.3432 -0.69,16.3745 -0.689,10.8589 -1.034,12.5825 h -29.991 q 1.034,-9.3076 1.034,-38.437 v -217.3501 h 31.026 v 72.9097 q 0,11.2036 -0.69,26.3715 h 0.69 q 8.618,-17.9257 22.751,-25.6821 14.307,-7.7563 35.335,-7.7563 35.334,0 51.881,23.7861 16.72,23.7861 16.72,72.0478 z m -32.577,1.0342 q 0,-39.1264 -10.342,-56.018 -10.342,-16.8916 -33.611,-16.8916 -26.199,0 -38.264,17.9257 -11.893,17.9258 -11.893,56.8799 0,36.7134 11.72,54.2945 11.721,17.4086 38.093,17.4086 23.441,0 33.783,-17.2363 10.514,-17.4087 10.514,-56.3628 z" /><path
     id="path1230"
     style="fill:#ececec;stroke:none;fill-opacity:1"
     d="m 13418.894,8652.3013 q 0,32.0595 13.272,49.4682 13.272,17.4087 38.782,17.4087 20.166,0 32.232,-8.1011 12.237,-8.101 16.547,-20.5112 l 27.233,7.7564 q -16.719,44.125 -76.012,44.125 -41.367,0 -63.085,-24.648 -21.546,-24.6479 -21.546,-73.2544 0,-46.1933 21.546,-70.8413 21.718,-24.6479 61.878,-24.6479 82.217,0 82.217,99.1089 v 4.1367 z m 101.005,-23.7862 q -2.586,-29.4741 -14.996,-42.9184 -12.41,-13.6167 -35.679,-13.6167 -22.579,0 -35.851,15.1679 -13.1,14.9957 -14.134,41.3672 z" /><path
     id="path1232"
     style="fill:#ececec;stroke:none;fill-opacity:1"
     d="m 13673.302,8739 h -36.713 l -67.739,-186.4971 h 33.094 l 41.022,121.3438 q 2.241,6.8945 11.893,40.8501 l 6.033,-20.1665 6.722,-20.3389 42.402,-121.6885 h 32.921 z" /><path
     id="path1234"
     style="fill:#ececec;stroke:none;fill-opacity:1"
     d="m 13777.065,8812.2544 q -12.755,0 -21.373,-1.896 v -23.269 q 6.55,1.0341 14.478,1.0341 28.957,0 45.849,-42.5737 l 2.93,-7.4116 -73.944,-185.6353 h 33.094 l 39.299,103.0733 q 0.862,2.4131 2.068,5.8603 1.207,3.2749 7.757,22.4073 6.549,19.1323 7.067,21.373 l 12.065,-33.9556 40.85,-118.7583 h 32.749 L 13848.251,8739 q -11.548,29.8188 -21.545,44.2974 -9.998,14.6508 -22.235,21.7177 -12.066,7.2393 -27.406,7.2393 z" /><path
     id="path1236"
     style="fill:#ececec;stroke:none;fill-opacity:1"
     d="m 13936.329,8659.0234 v -27.5781 h 86.181 v 27.5781 z" /><path
     id="path1238"
     style="fill:#ececec;stroke:none;fill-opacity:1"
     d="m 14220.728,8617.4839 q 0,60.8442 -21.545,92.9038 -21.373,32.0596 -63.258,32.0596 -41.884,0 -62.912,-31.8872 -21.029,-31.8872 -21.029,-93.0762 0,-62.5679 20.339,-93.7656 20.511,-31.1978 64.636,-31.1978 42.919,0 63.258,31.5425 20.511,31.5425 20.511,93.4209 z m -31.542,0 q 0,-52.5708 -12.238,-76.1846 -12.066,-23.6138 -39.989,-23.6138 -28.612,0 -41.194,23.2691 -12.411,23.269 -12.411,76.5293 0,51.709 12.583,75.6675 12.755,23.9585 40.333,23.9585 27.406,0 40.161,-24.4756 12.755,-24.4756 12.755,-75.1504 z" /><path
     id="path1240"
     style="fill:#ececec;stroke:none;fill-opacity:1"
     d="m 14266.749,8739 v -37.7476 h 33.611 V 8739 Z" /><path
     id="path1242"
     style="fill:#ececec;stroke:none;fill-opacity:1"
     d="m 14359.48,8739 v -26.3716 h 61.879 v -186.8418 l -54.812,39.1265 v -29.3018 l 57.397,-39.4712 h 28.613 v 216.4883 h 59.12 V 8739 Z" /></g>
 <g
   style="fill:#ececec;fill-opacity:1"
   class="TextShape"
   id="text136"
   aria-label="0"><path
     id="path1143"
     style="fill:#ececec;stroke:none;fill-opacity:1"
     d="m 688.53271,8170.4839 q 0,60.8442 -21.54541,92.9038 -21.37304,32.0596 -63.25732,32.0596 -41.88428,0 -62.9126,-31.8872 -21.02832,-31.8872 -21.02832,-93.0762 0,-62.5679 20.33887,-93.7656 20.51123,-31.1978 64.63623,-31.1978 42.91846,0 63.25732,31.5425 20.51123,31.5425 20.51123,93.4209 z m -31.54248,0 q 0,-52.5708 -12.23779,-76.1846 -12.06543,-23.6138 -39.98828,-23.6138 -28.6123,0 -41.19482,23.2691 -12.41016,23.269 -12.41016,76.5293 0,51.709 12.58252,75.6675 12.75488,23.9585 40.33301,23.9585 27.40576,0 40.16064,-24.4756 12.75488,-24.4756 12.75488,-75.1504 z" /></g>
 <g
   style="fill:#ececec;fill-opacity:1"
   class="TextShape"
   id="text144"
   aria-label="5"><path
     id="path1146"
     style="fill:#ececec;stroke:none;fill-opacity:1"
     d="m 687.49854,7346.8853 q 0,38.437 -22.92432,60.4995 -22.75195,22.0625 -63.25733,22.0625 -33.95556,0 -54.81152,-14.8233 -20.85596,-14.8232 -26.37158,-42.9184 l 31.37012,-3.6197 q 9.8247,36.024 50.50244,36.024 24.99267,0 39.12646,-14.9956 14.13379,-15.168 14.13379,-41.5396 0,-22.9243 -14.30615,-37.0581 -14.13379,-14.1338 -38.26465,-14.1338 -12.58252,0 -23.44141,3.9644 -10.85888,3.9643 -21.71777,13.4443 h -30.33594 l 8.10108,-130.6514 h 138.06299 v 26.3716 H 563.56934 l -4.65381,77.0464 q 20.1665,-15.5127 50.15771,-15.5127 35.85156,0 57.05225,21.0283 21.37305,21.0284 21.37305,54.8116 z" /></g>
 <g
   style="fill:#ececec;fill-opacity:1"
   class="TextShape"
   id="text152"
   aria-label="10"><path
     id="path1149"
     style="fill:#ececec;stroke:none;fill-opacity:1"
     d="m 347.88867,6560 v -26.3716 h 61.87842 v -186.8418 l -54.81152,39.1265 v -29.3018 l 57.39697,-39.4712 h 28.6123 v 216.4883 h 59.12061 V 6560 Z" /><path
     id="path1151"
     style="fill:#ececec;stroke:none;fill-opacity:1"
     d="m 699.85449,6438.4839 q 0,60.8442 -21.54541,92.9038 -21.37304,32.0596 -63.25732,32.0596 -41.88428,0 -62.9126,-31.8872 -21.02832,-31.8872 -21.02832,-93.0762 0,-62.5679 20.33887,-93.7656 20.51123,-31.1978 64.63623,-31.1978 42.91845,0 63.25732,31.5425 20.51123,31.5425 20.51123,93.4209 z m -31.54248,0 q 0,-52.5708 -12.23779,-76.1846 -12.06543,-23.6138 -39.98828,-23.6138 -28.61231,0 -41.19483,23.2691 -12.41015,23.269 -12.41015,76.5293 0,51.709 12.58252,75.6675 12.75488,23.9585 40.333,23.9585 27.40577,0 40.16065,-24.4756 12.75488,-24.4756 12.75488,-75.1504 z" /></g>
 <g
   style="fill:#ececec;fill-opacity:1"
   class="TextShape"
   id="text160"
   aria-label="15"><path
     id="path1154"
     style="fill:#ececec;stroke:none;fill-opacity:1"
     d="m 347.88867,5694 v -26.3716 h 61.87842 v -186.8418 l -54.81152,39.1265 v -29.3018 l 57.39697,-39.4712 h 28.6123 v 216.4883 h 59.12061 V 5694 Z" /><path
     id="path1156"
     style="fill:#ececec;stroke:none;fill-opacity:1"
     d="m 698.82031,5614.8853 q 0,38.437 -22.92431,60.4995 -22.75196,22.0625 -63.25733,22.0625 -33.95556,0 -54.81152,-14.8233 -20.85596,-14.8232 -26.37158,-42.9184 l 31.37011,-3.6197 q 9.82471,36.024 50.50244,36.024 24.99268,0 39.12647,-14.9956 14.13379,-15.168 14.13379,-41.5396 0,-22.9243 -14.30615,-37.0581 -14.13379,-14.1338 -38.26465,-14.1338 -12.58252,0 -23.44141,3.9644 -10.85888,3.9643 -21.71777,13.4443 h -30.33594 l 8.10108,-130.6514 h 138.06298 v 26.3716 H 574.89111 l -4.65381,77.0464 q 20.16651,-15.5127 50.15772,-15.5127 35.85156,0 57.05225,21.0283 21.37304,21.0284 21.37304,54.8116 z" /></g>
 <g
   style="fill:#ececec;fill-opacity:1"
   class="TextShape"
   id="text168"
   aria-label="20"><path
     id="path1159"
     style="fill:#ececec;stroke:none;fill-opacity:1"
     d="m 338.75342,4828 v -21.8901 q 8.79053,-20.1665 21.37304,-35.5069 12.75489,-15.5127 26.71631,-27.9228 13.96143,-12.5825 27.57813,-23.2691 13.78906,-10.6865 24.82031,-21.373 11.03125,-10.6865 17.75342,-22.4072 6.89453,-11.7207 6.89453,-26.544 0,-19.9941 -11.7207,-31.0254 -11.72071,-11.0312 -32.57666,-11.0312 -19.82178,0 -32.74903,10.8589 -12.75488,10.6865 -14.9956,30.1635 l -31.71485,-2.9301 q 3.44727,-29.1294 24.64795,-46.3658 21.37305,-17.2363 54.81153,-17.2363 36.71338,0 56.36279,17.4087 19.82178,17.2363 19.82178,49.1235 0,14.1338 -6.54981,28.0952 -6.37744,13.9615 -19.13232,27.9229 -12.75488,13.9614 -48.77881,43.2632 -19.82178,16.2021 -31.54248,29.3017 -11.7207,12.9273 -16.8916,24.9927 H 499.56836 V 4828 Z" /><path
     id="path1161"
     style="fill:#ececec;stroke:none;fill-opacity:1"
     d="m 699.85449,4706.4839 q 0,60.8442 -21.54541,92.9038 -21.37304,32.0596 -63.25732,32.0596 -41.88428,0 -62.9126,-31.8872 -21.02832,-31.8872 -21.02832,-93.0762 0,-62.5679 20.33887,-93.7656 20.51123,-31.1978 64.63623,-31.1978 42.91845,0 63.25732,31.5425 20.51123,31.5425 20.51123,93.4209 z m -31.54248,0 q 0,-52.5708 -12.23779,-76.1846 -12.06543,-23.6138 -39.98828,-23.6138 -28.61231,0 -41.19483,23.2691 -12.41015,23.269 -12.41015,76.5293 0,51.709 12.58252,75.6675 12.75488,23.9585 40.333,23.9585 27.40577,0 40.16065,-24.4756 12.75488,-24.4756 12.75488,-75.1504 z" /></g>
 <g
   style="fill:#ececec;fill-opacity:1"
   class="TextShape"
   id="text176"
   aria-label="25"><path
     id="path1164"
     style="fill:#ececec;stroke:none;fill-opacity:1"
     d="m 338.75342,3962 v -21.8901 q 8.79053,-20.1665 21.37304,-35.5069 12.75489,-15.5127 26.71631,-27.9228 13.96143,-12.5825 27.57813,-23.2691 13.78906,-10.6865 24.82031,-21.373 11.03125,-10.6865 17.75342,-22.4072 6.89453,-11.7207 6.89453,-26.544 0,-19.9941 -11.7207,-31.0254 -11.72071,-11.0312 -32.57666,-11.0312 -19.82178,0 -32.74903,10.8589 -12.75488,10.6865 -14.9956,30.1635 l -31.71485,-2.9301 q 3.44727,-29.1294 24.64795,-46.3658 21.37305,-17.2363 54.81153,-17.2363 36.71338,0 56.36279,17.4087 19.82178,17.2363 19.82178,49.1235 0,14.1338 -6.54981,28.0952 -6.37744,13.9615 -19.13232,27.9229 -12.75488,13.9614 -48.77881,43.2632 -19.82178,16.2021 -31.54248,29.3017 -11.7207,12.9273 -16.8916,24.9927 H 499.56836 V 3962 Z" /><path
     id="path1166"
     style="fill:#ececec;stroke:none;fill-opacity:1"
     d="m 698.82031,3882.8853 q 0,38.437 -22.92431,60.4995 -22.75196,22.0625 -63.25733,22.0625 -33.95556,0 -54.81152,-14.8233 -20.85596,-14.8232 -26.37158,-42.9184 l 31.37011,-3.6197 q 9.82471,36.024 50.50244,36.024 24.99268,0 39.12647,-14.9956 14.13379,-15.168 14.13379,-41.5396 0,-22.9243 -14.30615,-37.0581 -14.13379,-14.1338 -38.26465,-14.1338 -12.58252,0 -23.44141,3.9644 -10.85888,3.9643 -21.71777,13.4443 h -30.33594 l 8.10108,-130.6514 h 138.06298 v 26.3716 H 574.89111 l -4.65381,77.0464 q 20.16651,-15.5127 50.15772,-15.5127 35.85156,0 57.05225,21.0283 21.37304,21.0284 21.37304,54.8116 z" /></g>
 <g
   style="fill:#ececec;fill-opacity:1"
   class="TextShape"
   id="text184"
   aria-label="30"><path
     id="path1169"
     style="fill:#ececec;stroke:none;fill-opacity:1"
     d="m 501.80908,3028.9507 q 0,33.6108 -21.37304,52.0537 -21.37305,18.4429 -61.01661,18.4429 -36.88574,0 -58.94824,-16.5469 -21.89014,-16.7192 -26.02685,-49.2959 l 32.05957,-2.9302 q 6.20507,43.0908 52.91552,43.0908 23.44141,0 36.71338,-11.5483 13.44434,-11.5483 13.44434,-34.3003 0,-19.8218 -15.34033,-30.853 -15.16797,-11.2036 -43.95264,-11.2036 h -17.58106 v -26.8887 h 16.89161 q 25.50976,0 39.47119,-11.0313 14.13379,-11.2036 14.13379,-30.853 0,-19.477 -11.54834,-30.6806 -11.37598,-11.376 -33.95557,-11.376 -20.51123,0 -33.26611,10.5141 -12.58252,10.5142 -14.65088,29.6465 l -31.19776,-2.4131 q 3.44727,-29.8188 24.64795,-46.5381 21.37305,-16.7192 54.81153,-16.7192 36.54101,0 56.70752,17.064 20.33886,16.8916 20.33886,47.2275 0,23.2691 -13.09961,37.9199 -12.92724,14.4785 -37.74755,19.6494 v 0.6895 q 27.23339,2.9302 42.40136,18.2705 15.16797,15.3403 15.16797,38.6094 z" /><path
     id="path1171"
     style="fill:#ececec;stroke:none;fill-opacity:1"
     d="m 699.85449,2974.4839 q 0,60.8442 -21.54541,92.9038 -21.37304,32.0596 -63.25732,32.0596 -41.88428,0 -62.9126,-31.8872 -21.02832,-31.8872 -21.02832,-93.0762 0,-62.5679 20.33887,-93.7656 20.51123,-31.1978 64.63623,-31.1978 42.91845,0 63.25732,31.5425 20.51123,31.5425 20.51123,93.4209 z m -31.54248,0 q 0,-52.5708 -12.23779,-76.1846 -12.06543,-23.6138 -39.98828,-23.6138 -28.61231,0 -41.19483,23.2691 -12.41015,23.269 -12.41015,76.5293 0,51.709 12.58252,75.6675 12.75488,23.9585 40.333,23.9585 27.40577,0 40.16065,-24.4756 12.75488,-24.4756 12.75488,-75.1504 z" /></g>
 <g
   style="fill:#ececec;fill-opacity:1"
   class="TextShape"
   id="text192"
   aria-label="35"><path
     id="path1174"
     style="fill:#ececec;stroke:none;fill-opacity:1"
     d="m 501.80908,2162.9507 q 0,33.6108 -21.37304,52.0537 -21.37305,18.4429 -61.01661,18.4429 -36.88574,0 -58.94824,-16.5469 -21.89014,-16.7192 -26.02685,-49.2959 l 32.05957,-2.9302 q 6.20507,43.0908 52.91552,43.0908 23.44141,0 36.71338,-11.5483 13.44434,-11.5483 13.44434,-34.3003 0,-19.8218 -15.34033,-30.853 -15.16797,-11.2036 -43.95264,-11.2036 h -17.58106 v -26.8887 h 16.89161 q 25.50976,0 39.47119,-11.0313 14.13379,-11.2036 14.13379,-30.853 0,-19.477 -11.54834,-30.6806 -11.37598,-11.376 -33.95557,-11.376 -20.51123,0 -33.26611,10.5141 -12.58252,10.5142 -14.65088,29.6465 l -31.19776,-2.4131 q 3.44727,-29.8188 24.64795,-46.5381 21.37305,-16.7192 54.81153,-16.7192 36.54101,0 56.70752,17.064 20.33886,16.8916 20.33886,47.2275 0,23.2691 -13.09961,37.9199 -12.92724,14.4785 -37.74755,19.6494 v 0.6895 q 27.23339,2.9302 42.40136,18.2705 15.16797,15.3403 15.16797,38.6094 z" /><path
     id="path1176"
     style="fill:#ececec;stroke:none;fill-opacity:1"
     d="m 698.82031,2150.8853 q 0,38.437 -22.92431,60.4995 -22.75196,22.0625 -63.25733,22.0625 -33.95556,0 -54.81152,-14.8233 -20.85596,-14.8232 -26.37158,-42.9184 l 31.37011,-3.6197 q 9.82471,36.024 50.50244,36.024 24.99268,0 39.12647,-14.9956 14.13379,-15.168 14.13379,-41.5396 0,-22.9243 -14.30615,-37.0581 -14.13379,-14.1338 -38.26465,-14.1338 -12.58252,0 -23.44141,3.9644 -10.85888,3.9643 -21.71777,13.4443 h -30.33594 l 8.10108,-130.6514 h 138.06298 v 26.3716 H 574.89111 l -4.65381,77.0464 q 20.16651,-15.5127 50.15772,-15.5127 35.85156,0 57.05225,21.0283 21.37304,21.0284 21.37304,54.8116 z" /></g>
 <g
   style="fill:#ececec;fill-opacity:1"
   class="TextShape"
   id="text200"
   aria-label="40"><path
     id="path1179"
     style="fill:#ececec;stroke:none;fill-opacity:1"
     d="M 472.85205,1309.0161 V 1364 h -29.30176 v -54.9839 H 329.10107 v -24.1308 l 111.17432,-163.7452 h 32.57666 v 163.4004 h 34.12793 v 24.4756 z m -29.30176,-152.8862 q -0.34472,1.0342 -4.82617,9.1352 -4.48144,8.1011 -6.72217,11.376 l -62.22314,91.6973 -9.30762,12.7549 -2.75781,3.4472 h 85.83691 z" /><path
     id="path1181"
     style="fill:#ececec;stroke:none;fill-opacity:1"
     d="m 699.85449,1242.4839 q 0,60.8442 -21.54541,92.9038 -21.37304,32.0596 -63.25732,32.0596 -41.88428,0 -62.9126,-31.8872 -21.02832,-31.8872 -21.02832,-93.0762 0,-62.5679 20.33887,-93.7656 20.51123,-31.1978 64.63623,-31.1978 42.91845,0 63.25732,31.5425 20.51123,31.5425 20.51123,93.4209 z m -31.54248,0 q 0,-52.5708 -12.23779,-76.1846 -12.06543,-23.6138 -39.98828,-23.6138 -28.61231,0 -41.19483,23.2691 -12.41015,23.269 -12.41015,76.5293 0,51.709 12.58252,75.6675 12.75488,23.9585 40.333,23.9585 27.40577,0 40.16065,-24.4756 12.75488,-24.4756 12.75488,-75.1504 z" /></g>
 <g
   style="fill:#ececec;fill-opacity:1"
   class="TextShape"
   id="text208"
   aria-label="45"><path
     id="path1184"
     style="fill:#ececec;stroke:none;fill-opacity:1"
     d="M 472.85205,443.01611 V 498 H 443.55029 V 443.01611 H 329.10107 V 418.88525 L 440.27539,255.14014 h 32.57666 v 163.40039 h 34.12793 v 24.47558 z M 443.55029,290.12988 q -0.34472,1.03418 -4.82617,9.13526 -4.48144,8.10107 -6.72217,11.37597 l -62.22314,91.69727 -9.30762,12.75488 -2.75781,3.44727 h 85.83691 z" /><path
     id="path1186"
     style="fill:#ececec;stroke:none;fill-opacity:1"
     d="m 698.82031,418.88525 q 0,38.43702 -22.92431,60.49952 -22.75196,22.0625 -63.25733,22.0625 -33.95556,0 -54.81152,-14.82325 -20.85596,-14.82324 -26.37158,-42.91845 l 31.37011,-3.61963 q 9.82471,36.02392 50.50244,36.02392 24.99268,0 39.12647,-14.9956 14.13379,-15.16797 14.13379,-41.53955 0,-22.92432 -14.30615,-37.05811 -14.13379,-14.13379 -38.26465,-14.13379 -12.58252,0 -23.44141,3.96436 -10.85888,3.96435 -21.71777,13.44433 h -30.33594 l 8.10108,-130.65136 h 138.06298 v 26.37158 H 574.89111 l -4.65381,77.04639 q 20.16651,-15.5127 50.15772,-15.5127 35.85156,0 57.05225,21.02832 21.37304,21.02832 21.37304,54.81152 z" /></g>
</svg>
