<?xml version="1.0" encoding="UTF-8" standalone="no"?>
<svg
   xmlns:dc="http://purl.org/dc/elements/1.1/"
   xmlns:cc="http://creativecommons.org/ns#"
   xmlns:rdf="http://www.w3.org/1999/02/22-rdf-syntax-ns#"
   xmlns:svg="http://www.w3.org/2000/svg"
   xmlns="http://www.w3.org/2000/svg"
   xmlns:sodipodi="http://sodipodi.sourceforge.net/DTD/sodipodi-0.dtd"
   xmlns:inkscape="http://www.inkscape.org/namespaces/inkscape"
   width="160mm"
   height="90mm"
   viewBox="0 0 16000 9000"
   version="1.1"
   stroke-width="28.222"
   stroke-linejoin="round"
   xml:space="preserve"
   id="svg216"
   sodipodi:docname="frag_iter.svg"
   inkscape:version="1.0.2 (e86c870879, 2021-01-15)"><metadata
   id="metadata222"><rdf:RDF><cc:Work
       rdf:about=""><dc:format>image/svg+xml</dc:format><dc:type
         rdf:resource="http://purl.org/dc/dcmitype/StillImage" /></cc:Work></rdf:RDF></metadata><defs
   id="defs220" /><sodipodi:namedview
   pagecolor="#ffffff"
   bordercolor="#666666"
   borderopacity="1"
   objecttolerance="10"
   gridtolerance="10"
   guidetolerance="10"
   inkscape:pageopacity="0"
   inkscape:pageshadow="2"
   inkscape:window-width="1440"
   inkscape:window-height="900"
   id="namedview218"
   showgrid="false"
   inkscape:zoom="1.4239526"
   inkscape:cx="277.41554"
   inkscape:cy="207.04192"
   inkscape:window-x="0"
   inkscape:window-y="0"
   inkscape:window-maximized="1"
   inkscape:current-layer="svg216" />
 
 
 <path
   fill="rgb(0,69,134)"
   stroke="none"
   d="M 13503,8176 L 14969,8176 14969,1118 13503,1118 13503,8176 Z"
   id="path78"
   style="fill:#474747;fill-opacity:1" /><path
   fill="rgb(0,69,134)"
   stroke="none"
   d="M 10572,8176 L 12038,8176 12038,4199 10572,4199 10572,8176 Z"
   id="path80"
   style="fill:#474747;fill-opacity:1" /><path
   fill="rgb(0,69,134)"
   stroke="none"
   d="M 7642,8176 L 9106,8176 9106,4637 7642,4637 7642,8176 Z"
   id="path82"
   style="fill:#474747;fill-opacity:1" /><path
   fill="rgb(0,69,134)"
   stroke="none"
   d="M 4711,8176 L 6176,8176 6176,4895 4711,4895 4711,8176 Z"
   id="path84"
   style="fill:#4a96dc;fill-opacity:1" /><path
   fill="rgb(0,69,134)"
   stroke="none"
   d="M 1779,8176 L 3245,8176 3245,6009 1779,6009 1779,8176 Z"
   id="path86"
   style="fill:#4a96dc;fill-opacity:1" /><path
   fill="none"
   stroke="rgb(179,179,179)"
   stroke-linejoin="round"
   d="M 1047,8326 L 1047,8176"
   id="path6"
   style="stroke:#ececec;stroke-opacity:1" />
 <path
   fill="none"
   stroke="rgb(179,179,179)"
   stroke-linejoin="round"
   d="M 1047,8326 L 1047,8176"
   id="path8"
   style="stroke:#ececec;stroke-opacity:1" />
 <path
   fill="none"
   stroke="rgb(179,179,179)"
   stroke-linejoin="round"
   d="M 3978,8326 L 3978,8176"
   id="path10"
   style="stroke:#ececec;stroke-opacity:1" />
 <path
   fill="none"
   stroke="rgb(179,179,179)"
   stroke-linejoin="round"
   d="M 3978,8326 L 3978,8176"
   id="path12"
   style="stroke:#ececec;stroke-opacity:1" />
 <path
   fill="none"
   stroke="rgb(179,179,179)"
   stroke-linejoin="round"
   d="M 6909,8326 L 6909,8176"
   id="path14"
   style="stroke:#ececec;stroke-opacity:1" />
 <path
   fill="none"
   stroke="rgb(179,179,179)"
   stroke-linejoin="round"
   d="M 6909,8326 L 6909,8176"
   id="path16"
   style="stroke:#ececec;stroke-opacity:1" />
 <path
   fill="none"
   stroke="rgb(179,179,179)"
   stroke-linejoin="round"
   d="M 9839,8326 L 9839,8176"
   id="path18"
   style="stroke:#ececec;stroke-opacity:1" />
 <path
   fill="none"
   stroke="rgb(179,179,179)"
   stroke-linejoin="round"
   d="M 9839,8326 L 9839,8176"
   id="path20"
   style="stroke:#ececec;stroke-opacity:1" />
 <path
   fill="none"
   stroke="rgb(179,179,179)"
   stroke-linejoin="round"
   d="M 12770,8326 L 12770,8176"
   id="path22"
   style="stroke:#ececec;stroke-opacity:1" />
 <path
   fill="none"
   stroke="rgb(179,179,179)"
   stroke-linejoin="round"
   d="M 12770,8326 L 12770,8176"
   id="path24"
   style="stroke:#ececec;stroke-opacity:1" />
 <path
   fill="none"
   stroke="rgb(179,179,179)"
   stroke-linejoin="round"
   d="M 15701,8326 L 15701,8176"
   id="path26"
   style="stroke:#ececec;stroke-opacity:1" />
 <path
   fill="none"
   stroke="rgb(179,179,179)"
   stroke-linejoin="round"
   d="M 15701,8326 L 15701,8176"
   id="path28"
   style="stroke:#ececec;stroke-opacity:1" />
 <path
   fill="none"
   stroke="rgb(179,179,179)"
   stroke-linejoin="round"
   d="M 1047,8176 L 15701,8176"
   id="path30"
   style="stroke:#ececec;stroke-opacity:1" />
 <path
   fill="none"
   stroke="rgb(179,179,179)"
   stroke-linejoin="round"
   d="M 897,8176 L 1047,8176"
   id="path32"
   style="stroke:#ececec;stroke-opacity:1" />
 <path
   fill="none"
   stroke="rgb(179,179,179)"
   stroke-linejoin="round"
   d="M 897,8176 L 1047,8176"
   id="path34"
   style="stroke:#ececec;stroke-opacity:1" />
 <path
   fill="none"
   stroke="rgb(179,179,179)"
   stroke-linejoin="round"
   d="M 897,7396 L 1047,7396"
   id="path36"
   style="stroke:#ececec;stroke-opacity:1" />
 <path
   fill="none"
   stroke="rgb(179,179,179)"
   stroke-linejoin="round"
   d="M 897,7396 L 1047,7396"
   id="path38"
   style="stroke:#ececec;stroke-opacity:1" />
 <path
   fill="none"
   stroke="rgb(179,179,179)"
   stroke-linejoin="round"
   d="M 897,6616 L 1047,6616"
   id="path40"
   style="stroke:#ececec;stroke-opacity:1" />
 <path
   fill="none"
   stroke="rgb(179,179,179)"
   stroke-linejoin="round"
   d="M 897,6616 L 1047,6616"
   id="path42"
   style="stroke:#ececec;stroke-opacity:1" />
 <path
   fill="none"
   stroke="rgb(179,179,179)"
   stroke-linejoin="round"
   d="M 897,5836 L 1047,5836"
   id="path44"
   style="stroke:#ececec;stroke-opacity:1" />
 <path
   fill="none"
   stroke="rgb(179,179,179)"
   stroke-linejoin="round"
   d="M 897,5836 L 1047,5836"
   id="path46"
   style="stroke:#ececec;stroke-opacity:1" />
 <path
   fill="none"
   stroke="rgb(179,179,179)"
   stroke-linejoin="round"
   d="M 897,5056 L 1047,5056"
   id="path48"
   style="stroke:#ececec;stroke-opacity:1" />
 <path
   fill="none"
   stroke="rgb(179,179,179)"
   stroke-linejoin="round"
   d="M 897,5056 L 1047,5056"
   id="path50"
   style="stroke:#ececec;stroke-opacity:1" />
 <path
   fill="none"
   stroke="rgb(179,179,179)"
   stroke-linejoin="round"
   d="M 897,4277 L 1047,4277"
   id="path52"
   style="stroke:#ececec;stroke-opacity:1" />
 <path
   fill="none"
   stroke="rgb(179,179,179)"
   stroke-linejoin="round"
   d="M 897,4277 L 1047,4277"
   id="path54"
   style="stroke:#ececec;stroke-opacity:1" />
 <path
   fill="none"
   stroke="rgb(179,179,179)"
   stroke-linejoin="round"
   d="M 897,3497 L 1047,3497"
   id="path56"
   style="stroke:#ececec;stroke-opacity:1" />
 <path
   fill="none"
   stroke="rgb(179,179,179)"
   stroke-linejoin="round"
   d="M 897,3497 L 1047,3497"
   id="path58"
   style="stroke:#ececec;stroke-opacity:1" />
 <path
   fill="none"
   stroke="rgb(179,179,179)"
   stroke-linejoin="round"
   d="M 897,2717 L 1047,2717"
   id="path60"
   style="stroke:#ececec;stroke-opacity:1" />
 <path
   fill="none"
   stroke="rgb(179,179,179)"
   stroke-linejoin="round"
   d="M 897,2717 L 1047,2717"
   id="path62"
   style="stroke:#ececec;stroke-opacity:1" />
 <path
   fill="none"
   stroke="rgb(179,179,179)"
   stroke-linejoin="round"
   d="M 897,1937 L 1047,1937"
   id="path64"
   style="stroke:#ececec;stroke-opacity:1" />
 <path
   fill="none"
   stroke="rgb(179,179,179)"
   stroke-linejoin="round"
   d="M 897,1937 L 1047,1937"
   id="path66"
   style="stroke:#ececec;stroke-opacity:1" />
 <path
   fill="none"
   stroke="rgb(179,179,179)"
   stroke-linejoin="round"
   d="M 897,1157 L 1047,1157"
   id="path68"
   style="stroke:#ececec;stroke-opacity:1" />
 <path
   fill="none"
   stroke="rgb(179,179,179)"
   stroke-linejoin="round"
   d="M 897,1157 L 1047,1157"
   id="path70"
   style="stroke:#ececec;stroke-opacity:1" />
 <path
   fill="none"
   stroke="rgb(179,179,179)"
   stroke-linejoin="round"
   d="M 897,378 L 1047,378"
   id="path72"
   style="stroke:#ececec;stroke-opacity:1" />
 <path
   fill="none"
   stroke="rgb(179,179,179)"
   stroke-linejoin="round"
   d="M 897,378 L 1047,378"
   id="path74"
   style="stroke:#ececec;stroke-opacity:1" />
 <path
   fill="none"
   stroke="rgb(179,179,179)"
   stroke-linejoin="round"
   d="M 1047,8176 L 1047,378"
   id="path76"
   style="stroke:#ececec;stroke-opacity:1" />
 
 
 
 
 
 <g
   aria-label="Bevy 0.5 (for_each)"
   id="text94"
   class="TextShape"
   style="fill:#ececec;fill-opacity:1"><path
     d="m 1220.833,8675.5718 q 0,32.4043 -23.6138,50.5024 Q 1173.6055,8744 1131.5488,8744 h -98.5918 v -242.8599 h 88.25 q 85.4922,0 85.4922,58.9483 0,21.5454 -12.0654,36.1963 -12.0654,14.6508 -34.1279,19.6494 28.957,3.4472 44.642,19.477 15.6851,15.8575 15.6851,40.1607 z m -47.2275,-111.5191 q 0,-19.6494 -13.4444,-28.0952 -13.4443,-8.4458 -38.9541,-8.4458 h -55.3286 v 76.874 h 55.3286 q 26.3716,0 39.2989,-9.8247 13.0996,-9.997 13.0996,-30.5083 z m 13.9614,108.9336 q 0,-42.9184 -60.3272,-42.9184 h -61.3613 v 87.5605 h 63.9468 q 30.1636,0 43.9526,-11.2036 13.7891,-11.2036 13.7891,-33.4385 z"
     style="fill:#ececec;stroke:none;fill-opacity:1"
     id="path2103" /><path
     d="m 1287.0205,8657.3013 q 0,32.0595 13.272,49.4682 13.272,17.4087 38.7817,17.4087 20.1665,0 32.232,-8.1011 12.2377,-8.101 16.5468,-20.5112 l 27.2334,7.7564 q -16.7192,44.125 -76.0122,44.125 -41.3672,0 -63.0849,-24.648 -21.5455,-24.6479 -21.5455,-73.2544 0,-46.1933 21.5455,-70.8413 21.7177,-24.6479 61.8784,-24.6479 82.2173,0 82.2173,99.1089 v 4.1367 z m 101.0049,-23.7862 q -2.5855,-29.4741 -14.9956,-42.9184 -12.4102,-13.6167 -35.6792,-13.6167 -22.5796,0 -35.8516,15.1679 -13.0996,14.9957 -14.1338,41.3672 z"
     style="fill:#ececec;stroke:none;fill-opacity:1"
     id="path2105" /><path
     d="m 1541.4287,8744 h -36.7134 l -67.7387,-186.4971 h 33.0937 l 41.0225,121.3438 q 2.2407,6.8945 11.893,40.8501 l 6.0328,-20.1665 6.7221,-20.3389 42.4014,-121.6885 h 32.9214 z"
     style="fill:#ececec;stroke:none;fill-opacity:1"
     id="path2107" /><path
     d="m 1645.1914,8817.2544 q -12.7549,0 -21.373,-1.896 v -23.269 q 6.5498,1.0341 14.4785,1.0341 28.957,0 45.8486,-42.5737 l 2.9302,-7.4116 -73.9439,-185.6353 h 33.0938 l 39.2988,103.0733 q 0.8618,2.4131 2.0684,5.8603 1.2065,3.2749 7.7563,22.4073 6.5498,19.1323 7.0669,21.373 l 12.0654,-33.9556 40.8501,-118.7583 h 32.7491 L 1716.3774,8744 q -11.5483,29.8188 -21.5454,44.2974 -9.997,14.6508 -22.2348,21.7177 -12.0655,7.2393 -27.4058,7.2393 z"
     style="fill:#ececec;stroke:none;fill-opacity:1"
     id="path2109" /><path
     d="m 2069.3774,8622.4839 q 0,60.8442 -21.5454,92.9038 -21.373,32.0596 -63.2573,32.0596 -41.8843,0 -62.9126,-31.8872 -21.0283,-31.8872 -21.0283,-93.0762 0,-62.5679 20.3389,-93.7656 20.5112,-31.1978 64.6362,-31.1978 42.9184,0 63.2573,31.5425 20.5112,31.5425 20.5112,93.4209 z m -31.5424,0 q 0,-52.5708 -12.2378,-76.1846 -12.0655,-23.6138 -39.9883,-23.6138 -28.6123,0 -41.1948,23.2691 -12.4102,23.269 -12.4102,76.5293 0,51.709 12.5825,75.6675 12.7549,23.9585 40.333,23.9585 27.4058,0 40.1607,-24.4756 12.7549,-24.4756 12.7549,-75.1504 z"
     style="fill:#ececec;stroke:none;fill-opacity:1"
     id="path2111" /><path
     d="m 2115.3984,8744 v -37.7476 h 33.6109 V 8744 Z"
     style="fill:#ececec;stroke:none;fill-opacity:1"
     id="path2113" /><path
     d="m 2362.7397,8664.8853 q 0,38.437 -22.9243,60.4995 -22.7519,22.0625 -63.2573,22.0625 -33.9556,0 -54.8115,-14.8233 -20.856,-14.8232 -26.3716,-42.9184 l 31.3701,-3.6197 q 9.8247,36.024 50.5025,36.024 24.9926,0 39.1264,-14.9956 14.1338,-15.168 14.1338,-41.5396 0,-22.9243 -14.3061,-37.0581 -14.1338,-14.1338 -38.2647,-14.1338 -12.5825,0 -23.4414,3.9644 -10.8589,3.9643 -21.7178,13.4443 h -30.3359 l 8.1011,-130.6514 h 138.063 v 26.3716 h -109.7955 l -4.6538,77.0464 q 20.1665,-15.5127 50.1578,-15.5127 35.8515,0 57.0522,21.0283 21.373,21.0284 21.373,54.8116 z"
     style="fill:#ececec;stroke:none;fill-opacity:1"
     id="path2115" /><path
     d="m 2497.5278,8652.3027 q 0,-49.813 15.5127,-89.4565 15.6851,-39.6436 48.0894,-74.6333 h 29.9912 q -32.2319,35.8516 -47.3999,76.1846 -14.9956,40.333 -14.9956,88.25 0,47.7446 14.8232,87.9052 14.9956,40.1607 47.5723,76.5293 h -29.9912 q -32.5767,-35.1621 -48.0894,-74.8056 -15.5127,-39.816 -15.5127,-89.2842 z"
     style="fill:#ececec;stroke:none;fill-opacity:1"
     id="path2117" /><path
     d="M 2655.4126,8580.0825 V 8744 h -31.0254 v -163.9175 h -26.1992 v -22.5796 h 26.1992 v -21.0283 q 0,-25.5098 11.2036,-36.7134 11.2036,-11.2036 34.3003,-11.2036 12.9273,0 21.8902,2.0684 v 23.6137 q -7.7564,-1.3789 -13.7891,-1.3789 -11.8931,0 -17.2363,6.0328 -5.3433,6.0327 -5.3433,21.8901 v 16.7192 h 36.3687 v 22.5796 z"
     style="fill:#ececec;stroke:none;fill-opacity:1"
     id="path2119" /><path
     d="m 2872.7627,8650.5791 q 0,48.9512 -21.5454,72.9097 -21.5454,23.9585 -62.5679,23.9585 -40.8501,0 -61.706,-24.8203 -20.856,-24.9927 -20.856,-72.0479 0,-96.5234 83.5962,-96.5234 42.7461,0 62.9126,23.6137 20.1665,23.4414 20.1665,72.9097 z m -32.5767,0 q 0,-38.6094 -11.5483,-56.0181 -11.376,-17.581 -38.437,-17.581 -27.2334,0 -39.4712,17.9258 -12.0654,17.7534 -12.0654,55.6733 0,36.8857 11.893,55.501 12.0655,18.4428 37.7476,18.4428 27.9228,0 39.8159,-17.9257 12.0654,-17.9258 12.0654,-56.0181 z"
     style="fill:#ececec;stroke:none;fill-opacity:1"
     id="path2121" /><path
     d="m 2912.0615,8744 v -143.0615 q 0,-19.6494 -1.0342,-43.4356 h 29.3018 q 1.3789,31.7149 1.3789,38.0923 h 0.6895 q 7.4116,-23.9585 17.0639,-32.749 9.6524,-8.7905 27.2334,-8.7905 6.2051,0 12.5825,1.7236 v 28.4399 q -6.205,-1.7236 -16.5468,-1.7236 -19.3047,0 -29.4742,16.7192 -10.1694,16.5469 -10.1694,47.5723 V 8744 Z"
     style="fill:#ececec;stroke:none;fill-opacity:1"
     id="path2123" /><path
     d="m 2999.7944,8814.1519 v -22.4073 h 205.6294 v 22.4073 z"
     style="fill:#ececec;stroke:none;fill-opacity:1"
     id="path2125" /><path
     d="m 3249.0317,8657.3013 q 0,32.0595 13.272,49.4682 13.272,17.4087 38.7817,17.4087 20.1666,0 32.232,-8.1011 12.2378,-8.101 16.5469,-20.5112 l 27.2334,7.7564 q -16.7193,44.125 -76.0123,44.125 -41.3671,0 -63.0849,-24.648 -21.5454,-24.6479 -21.5454,-73.2544 0,-46.1933 21.5454,-70.8413 21.7178,-24.6479 61.8784,-24.6479 82.2173,0 82.2173,99.1089 v 4.1367 z m 101.0049,-23.7862 q -2.5854,-29.4741 -14.9956,-42.9184 -12.4101,-13.6167 -35.6792,-13.6167 -22.5796,0 -35.8515,15.1679 -13.0997,14.9957 -14.1338,41.3672 z"
     style="fill:#ececec;stroke:none;fill-opacity:1"
     id="path2127" /><path
     d="m 3469.1396,8747.4473 q -28.0952,0 -42.229,-14.8233 -14.1337,-14.8232 -14.1337,-40.6777 0,-28.957 18.9599,-44.4697 19.1323,-15.5127 61.5337,-16.5469 l 41.8843,-0.6895 v -10.1694 q 0,-22.752 -9.6524,-32.5767 -9.6523,-9.8247 -30.3359,-9.8247 -20.856,0 -30.3359,7.0669 -9.48,7.0669 -11.376,22.5796 l -32.4043,-2.9302 q 7.9287,-50.33 74.8057,-50.33 35.1621,0 52.9155,16.2021 17.7534,16.0298 17.7534,46.5381 v 80.3213 q 0,13.7891 3.6196,20.8559 3.6197,6.8946 13.7891,6.8946 4.4814,0 10.1694,-1.2066 v 19.3047 q -11.7207,2.7578 -23.9585,2.7578 -17.2363,0 -25.165,-8.9629 -7.7564,-9.1352 -8.7905,-28.4399 h -1.0342 q -11.8931,21.373 -27.7505,30.3359 -15.6851,8.7906 -38.2647,8.7906 z m 7.0669,-23.2691 q 17.064,0 30.336,-7.7563 13.272,-7.7564 20.8559,-21.2007 7.7564,-13.6167 7.7564,-27.9229 v -15.3403 l -33.9556,0.6895 q -21.8901,0.3447 -33.2661,4.4814 -11.2036,4.1367 -17.2363,12.7549 -6.0327,8.6182 -6.0327,22.5796 0,15.1679 8.101,23.4414 8.2735,8.2734 23.4414,8.2734 z"
     style="fill:#ececec;stroke:none;fill-opacity:1"
     id="path2129" /><path
     d="m 3641.5029,8649.8896 q 0,37.2305 11.7207,55.1563 11.7207,17.9258 35.3345,17.9258 16.5469,0 27.5781,-8.9629 11.2036,-8.9629 13.7891,-27.5781 l 31.3701,2.0683 q -3.6196,26.8887 -22.9243,42.9185 -19.3047,16.0298 -48.9512,16.0298 -39.1264,0 -59.81,-24.648 -20.5113,-24.8203 -20.5113,-72.2202 0,-47.0552 20.6836,-71.7031 20.6836,-24.8203 59.293,-24.8203 28.6123,0 47.3999,14.8232 18.96,14.8232 23.7861,40.8501 l -31.8872,2.4131 q -2.4131,-15.5127 -12.2378,-24.648 -9.8247,-9.1352 -27.9228,-9.1352 -24.648,0 -35.6792,16.3745 -11.0313,16.3745 -11.0313,55.1562 z"
     style="fill:#ececec;stroke:none;fill-opacity:1"
     id="path2131" /><path
     d="m 3825.2422,8589.3901 q 9.9971,-18.2705 23.9585,-26.7163 14.1338,-8.6181 35.6792,-8.6181 30.3359,0 44.6421,15.1679 14.4785,14.9956 14.4785,50.5025 V 8744 h -31.1978 v -118.2412 q 0,-19.6494 -3.6196,-29.1294 -3.6196,-9.6523 -11.8931,-14.1338 -8.2734,-4.4814 -22.9243,-4.4814 -21.8901,0 -35.1621,15.1679 -13.0996,15.168 -13.0996,40.8501 V 8744 h -31.0254 v -255.7871 h 31.0254 v 66.5322 q 0,10.5142 -0.6894,21.7178 -0.5171,11.2036 -0.6895,12.9272 z"
     style="fill:#ececec;stroke:none;fill-opacity:1"
     id="path2133" /><path
     d="m 4062.5864,8652.9922 q 0,49.813 -15.685,89.4565 -15.5127,39.6436 -47.917,74.6333 h -29.9912 q 32.4043,-36.1963 47.3999,-76.1845 14.9956,-40.1607 14.9956,-88.25 0,-48.0894 -15.168,-88.25 -14.9956,-40.1607 -47.2275,-76.1846 h 29.9912 q 32.5766,35.1621 48.0893,74.978 15.5127,39.6436 15.5127,89.1118 z"
     style="fill:#ececec;stroke:none;fill-opacity:1"
     id="path2135" /></g>
 <g
   aria-label="Bevy 0.5 (iterator)"
   id="text102"
   class="TextShape"
   style="fill:#ececec;fill-opacity:1"><path
     d="m 4283.833,8675.5718 q 0,32.4043 -23.6138,50.5024 Q 4236.6055,8744 4194.5488,8744 h -98.5918 v -242.8599 h 88.25 q 85.4922,0 85.4922,58.9483 0,21.5454 -12.0654,36.1963 -12.0654,14.6508 -34.1279,19.6494 28.957,3.4472 44.642,19.477 15.6851,15.8575 15.6851,40.1607 z m -47.2275,-111.5191 q 0,-19.6494 -13.4444,-28.0952 -13.4443,-8.4458 -38.9541,-8.4458 h -55.3286 v 76.874 h 55.3286 q 26.3716,0 39.2989,-9.8247 13.0996,-9.997 13.0996,-30.5083 z m 13.9614,108.9336 q 0,-42.9184 -60.3272,-42.9184 h -61.3613 v 87.5605 h 63.9468 q 30.1636,0 43.9526,-11.2036 13.7891,-11.2036 13.7891,-33.4385 z"
     style="fill:#ececec;stroke:none;fill-opacity:1"
     id="path2138" /><path
     d="m 4350.0205,8657.3013 q 0,32.0595 13.272,49.4682 13.272,17.4087 38.7817,17.4087 20.1665,0 32.232,-8.1011 12.2377,-8.101 16.5468,-20.5112 l 27.2334,7.7564 q -16.7192,44.125 -76.0122,44.125 -41.3672,0 -63.0849,-24.648 -21.5455,-24.6479 -21.5455,-73.2544 0,-46.1933 21.5455,-70.8413 21.7177,-24.6479 61.8784,-24.6479 82.2173,0 82.2173,99.1089 v 4.1367 z m 101.0049,-23.7862 q -2.5855,-29.4741 -14.9956,-42.9184 -12.4102,-13.6167 -35.6792,-13.6167 -22.5796,0 -35.8516,15.1679 -13.0996,14.9957 -14.1338,41.3672 z"
     style="fill:#ececec;stroke:none;fill-opacity:1"
     id="path2140" /><path
     d="m 4604.4287,8744 h -36.7134 l -67.7387,-186.4971 h 33.0937 l 41.0225,121.3438 q 2.2407,6.8945 11.893,40.8501 l 6.0328,-20.1665 6.7221,-20.3389 42.4014,-121.6885 h 32.9214 z"
     style="fill:#ececec;stroke:none;fill-opacity:1"
     id="path2142" /><path
     d="m 4708.1914,8817.2544 q -12.7549,0 -21.373,-1.896 v -23.269 q 6.5498,1.0341 14.4785,1.0341 28.957,0 45.8486,-42.5737 l 2.9302,-7.4116 -73.9439,-185.6353 h 33.0938 l 39.2988,103.0733 q 0.8618,2.4131 2.0684,5.8603 1.2065,3.2749 7.7563,22.4073 6.5498,19.1323 7.0669,21.373 l 12.0654,-33.9556 40.8501,-118.7583 h 32.7491 L 4779.3774,8744 q -11.5483,29.8188 -21.5454,44.2974 -9.997,14.6508 -22.2348,21.7177 -12.0655,7.2393 -27.4058,7.2393 z"
     style="fill:#ececec;stroke:none;fill-opacity:1"
     id="path2144" /><path
     d="m 5132.3774,8622.4839 q 0,60.8442 -21.5454,92.9038 -21.373,32.0596 -63.2573,32.0596 -41.8843,0 -62.9126,-31.8872 -21.0283,-31.8872 -21.0283,-93.0762 0,-62.5679 20.3389,-93.7656 20.5112,-31.1978 64.6362,-31.1978 42.9184,0 63.2573,31.5425 20.5112,31.5425 20.5112,93.4209 z m -31.5424,0 q 0,-52.5708 -12.2378,-76.1846 -12.0655,-23.6138 -39.9883,-23.6138 -28.6123,0 -41.1948,23.2691 -12.4102,23.269 -12.4102,76.5293 0,51.709 12.5825,75.6675 12.7549,23.9585 40.333,23.9585 27.4058,0 40.1607,-24.4756 12.7549,-24.4756 12.7549,-75.1504 z"
     style="fill:#ececec;stroke:none;fill-opacity:1"
     id="path2146" /><path
     d="m 5178.3984,8744 v -37.7476 h 33.6109 V 8744 Z"
     style="fill:#ececec;stroke:none;fill-opacity:1"
     id="path2148" /><path
     d="m 5425.7397,8664.8853 q 0,38.437 -22.9243,60.4995 -22.7519,22.0625 -63.2573,22.0625 -33.9556,0 -54.8115,-14.8233 -20.856,-14.8232 -26.3716,-42.9184 l 31.3701,-3.6197 q 9.8247,36.024 50.5025,36.024 24.9926,0 39.1264,-14.9956 14.1338,-15.168 14.1338,-41.5396 0,-22.9243 -14.3061,-37.0581 -14.1338,-14.1338 -38.2647,-14.1338 -12.5825,0 -23.4414,3.9644 -10.8589,3.9643 -21.7178,13.4443 h -30.3359 l 8.1011,-130.6514 h 138.063 v 26.3716 h -109.7955 l -4.6538,77.0464 q 20.1665,-15.5127 50.1578,-15.5127 35.8515,0 57.0522,21.0283 21.373,21.0284 21.373,54.8116 z"
     style="fill:#ececec;stroke:none;fill-opacity:1"
     id="path2150" /><path
     d="m 5560.5278,8652.3027 q 0,-49.813 15.5127,-89.4565 15.6851,-39.6436 48.0894,-74.6333 h 29.9912 q -32.2319,35.8516 -47.3999,76.1846 -14.9956,40.333 -14.9956,88.25 0,47.7446 14.8232,87.9052 14.9956,40.1607 47.5723,76.5293 h -29.9912 q -32.5767,-35.1621 -48.0894,-74.8056 -15.5127,-39.816 -15.5127,-89.2842 z"
     style="fill:#ececec;stroke:none;fill-opacity:1"
     id="path2152" /><path
     d="m 5679.8032,8517.8594 v -29.6465 h 31.0254 v 29.6465 z m 0,226.1406 v -186.4971 h 31.0254 V 8744 Z"
     style="fill:#ececec;stroke:none;fill-opacity:1"
     id="path2154" /><path
     d="m 5830.104,8742.6211 q -15.3403,4.1367 -31.3701,4.1367 -37.2305,0 -37.2305,-42.229 v -124.4463 h -21.5454 v -22.5796 h 22.752 l 9.1352,-41.7119 h 20.6836 v 41.7119 h 34.4727 v 22.5796 h -34.4727 v 117.7241 q 0,13.4444 4.3091,18.96 4.4814,5.3433 15.3403,5.3433 6.2051,0 17.9258,-2.4131 z"
     style="fill:#ececec;stroke:none;fill-opacity:1"
     id="path2156" /><path
     d="m 5880.2617,8657.3013 q 0,32.0595 13.272,49.4682 13.272,17.4087 38.7817,17.4087 20.1665,0 32.232,-8.1011 12.2378,-8.101 16.5468,-20.5112 l 27.2334,7.7564 q -16.7192,44.125 -76.0122,44.125 -41.3672,0 -63.0849,-24.648 -21.5454,-24.6479 -21.5454,-73.2544 0,-46.1933 21.5454,-70.8413 21.7177,-24.6479 61.8784,-24.6479 82.2173,0 82.2173,99.1089 v 4.1367 z m 101.0049,-23.7862 q -2.5854,-29.4741 -14.9956,-42.9184 -12.4102,-13.6167 -35.6792,-13.6167 -22.5796,0 -35.8516,15.1679 -13.0996,14.9957 -14.1338,41.3672 z"
     style="fill:#ececec;stroke:none;fill-opacity:1"
     id="path2158" /><path
     d="m 6053.4868,8744 v -143.0615 q 0,-19.6494 -1.0342,-43.4356 h 29.3018 q 1.3789,31.7149 1.3789,38.0923 h 0.6895 q 7.4116,-23.9585 17.0639,-32.749 9.6524,-8.7905 27.2334,-8.7905 6.2051,0 12.5825,1.7236 v 28.4399 q -6.205,-1.7236 -16.5468,-1.7236 -19.3047,0 -29.4742,16.7192 -10.1694,16.5469 -10.1694,47.5723 V 8744 Z"
     style="fill:#ececec;stroke:none;fill-opacity:1"
     id="path2160" /><path
     d="m 6217.9214,8747.4473 q -28.0952,0 -42.229,-14.8233 -14.1338,-14.8232 -14.1338,-40.6777 0,-28.957 18.96,-44.4697 19.1323,-15.5127 61.5336,-16.5469 l 41.8843,-0.6895 v -10.1694 q 0,-22.752 -9.6523,-32.5767 -9.6524,-9.8247 -30.336,-9.8247 -20.8559,0 -30.3359,7.0669 -9.48,7.0669 -11.376,22.5796 l -32.4043,-2.9302 q 7.9287,-50.33 74.8057,-50.33 35.1621,0 52.9155,16.2021 17.7534,16.0298 17.7534,46.5381 v 80.3213 q 0,13.7891 3.6197,20.8559 3.6196,6.8946 13.789,6.8946 4.4815,0 10.1695,-1.2066 v 19.3047 q -11.7207,2.7578 -23.9585,2.7578 -17.2364,0 -25.1651,-8.9629 -7.7563,-9.1352 -8.7905,-28.4399 h -1.0342 q -11.893,21.373 -27.7505,30.3359 -15.685,8.7906 -38.2646,8.7906 z m 7.0669,-23.2691 q 17.0639,0 30.3359,-7.7563 13.272,-7.7564 20.856,-21.2007 7.7563,-13.6167 7.7563,-27.9229 v -15.3403 l -33.9555,0.6895 q -21.8902,0.3447 -33.2662,4.4814 -11.2036,4.1367 -17.2363,12.7549 -6.0327,8.6182 -6.0327,22.5796 0,15.1679 8.1011,23.4414 8.2734,8.2734 23.4414,8.2734 z"
     style="fill:#ececec;stroke:none;fill-opacity:1"
     id="path2162" /><path
     d="m 6438.374,8742.6211 q -15.3403,4.1367 -31.3701,4.1367 -37.2305,0 -37.2305,-42.229 v -124.4463 h -21.5454 v -22.5796 h 22.752 l 9.1352,-41.7119 h 20.6836 v 41.7119 h 34.4727 v 22.5796 h -34.4727 v 117.7241 q 0,13.4444 4.3091,18.96 4.4815,5.3433 15.3403,5.3433 6.2051,0 17.9258,-2.4131 z"
     style="fill:#ececec;stroke:none;fill-opacity:1"
     id="path2164" /><path
     d="m 6622.458,8650.5791 q 0,48.9512 -21.5454,72.9097 -21.5454,23.9585 -62.5679,23.9585 -40.8501,0 -61.706,-24.8203 -20.856,-24.9927 -20.856,-72.0479 0,-96.5234 83.5962,-96.5234 42.7461,0 62.9126,23.6137 20.1665,23.4414 20.1665,72.9097 z m -32.5767,0 q 0,-38.6094 -11.5483,-56.0181 -11.376,-17.581 -38.437,-17.581 -27.2334,0 -39.4712,17.9258 -12.0654,17.7534 -12.0654,55.6733 0,36.8857 11.893,55.501 12.0655,18.4428 37.7476,18.4428 27.9229,0 39.8159,-17.9257 12.0654,-17.9258 12.0654,-56.0181 z"
     style="fill:#ececec;stroke:none;fill-opacity:1"
     id="path2166" /><path
     d="m 6661.7568,8744 v -143.0615 q 0,-19.6494 -1.0341,-43.4356 h 29.3017 q 1.3789,31.7149 1.3789,38.0923 h 0.6895 q 7.4116,-23.9585 17.0639,-32.749 9.6524,-8.7905 27.2334,-8.7905 6.2051,0 12.5826,1.7236 v 28.4399 q -6.2051,-1.7236 -16.5469,-1.7236 -19.3047,0 -29.4741,16.7192 -10.1695,16.5469 -10.1695,47.5723 V 8744 Z"
     style="fill:#ececec;stroke:none;fill-opacity:1"
     id="path2168" /><path
     d="m 6850.4946,8652.9922 q 0,49.813 -15.685,89.4565 -15.5127,39.6436 -47.917,74.6333 h -29.9912 q 32.4043,-36.1963 47.3999,-76.1845 14.9956,-40.1607 14.9956,-88.25 0,-48.0894 -15.168,-88.25 -14.9956,-40.1607 -47.2275,-76.1846 h 29.9912 q 32.5766,35.1621 48.0893,74.978 15.5127,39.6436 15.5127,89.1118 z"
     style="fill:#ececec;stroke:none;fill-opacity:1"
     id="path2170" /></g>
 <g
   aria-label="Legion (for_each)"
   id="text110"
   class="TextShape"
   style="fill:#ececec;fill-opacity:1"><path
     d="m 7079.957,8744 v -242.8599 h 32.9214 v 215.9712 h 122.7227 V 8744 Z"
     style="fill:#ececec;stroke:none;fill-opacity:1"
     id="path2173" /><path
     d="m 7294.894,8657.3013 q 0,32.0595 13.272,49.4682 13.272,17.4087 38.7818,17.4087 20.1665,0 32.2319,-8.1011 12.2378,-8.101 16.5469,-20.5112 l 27.2334,7.7564 q -16.7193,44.125 -76.0122,44.125 -41.3672,0 -63.085,-24.648 -21.5454,-24.6479 -21.5454,-73.2544 0,-46.1933 21.5454,-70.8413 21.7178,-24.6479 61.8784,-24.6479 82.2173,0 82.2173,99.1089 v 4.1367 z m 101.0049,-23.7862 q -2.5854,-29.4741 -14.9956,-42.9184 -12.4101,-13.6167 -35.6792,-13.6167 -22.5796,0 -35.8515,15.1679 -13.0997,14.9957 -14.1338,41.3672 z"
     style="fill:#ececec;stroke:none;fill-opacity:1"
     id="path2175" /><path
     d="m 7538.0986,8817.2544 q -30.5083,0 -48.6064,-12.0654 -18.0982,-11.8931 -23.2691,-33.9556 l 31.1978,-4.4814 q 3.1025,12.9272 13.6167,19.8217 10.6865,7.0669 27.9228,7.0669 46.3658,0 46.3658,-54.2944 v -29.9912 h -0.3448 q -8.7905,17.9258 -24.1308,27.061 -15.3403,8.9629 -35.8516,8.9629 -34.3003,0 -50.5024,-22.7519 -16.0298,-22.752 -16.0298,-71.5308 0,-49.4683 17.2363,-72.9097 17.4087,-23.6137 52.7432,-23.6137 19.8218,0 34.3003,9.1352 14.6509,8.9629 22.5796,25.6821 h 0.3447 q 0,-5.1709 0.6895,-17.9257 0.6894,-12.7549 1.3789,-13.9615 h 29.4741 q -1.0342,9.3076 -1.0342,38.6094 v 142.5444 q 0,78.5977 -78.0806,78.5977 z m 47.2276,-166.5029 q 0,-22.752 -6.2051,-39.1265 -6.2051,-16.5469 -17.5811,-25.165 -11.2036,-8.7906 -25.5097,-8.7906 -23.7862,0 -34.645,17.2364 -10.8589,17.2363 -10.8589,55.8457 0,38.2646 10.1694,54.9839 10.1694,16.7192 34.8174,16.7192 14.6509,0 26.0268,-8.6182 11.376,-8.6181 17.5811,-24.6479 6.2051,-16.2022 6.2051,-38.437 z"
     style="fill:#ececec;stroke:none;fill-opacity:1"
     id="path2177" /><path
     d="m 7663.5791,8517.8594 v -29.6465 h 31.0254 v 29.6465 z m 0,226.1406 v -186.4971 h 31.0254 V 8744 Z"
     style="fill:#ececec;stroke:none;fill-opacity:1"
     id="path2179" /><path
     d="m 7899.8892,8650.5791 q 0,48.9512 -21.5455,72.9097 -21.5454,23.9585 -62.5678,23.9585 -40.8501,0 -61.7061,-24.8203 -20.8559,-24.9927 -20.8559,-72.0479 0,-96.5234 83.5962,-96.5234 42.7461,0 62.9126,23.6137 20.1665,23.4414 20.1665,72.9097 z m -32.5767,0 q 0,-38.6094 -11.5483,-56.0181 -11.376,-17.581 -38.4371,-17.581 -27.2334,0 -39.4711,17.9258 -12.0655,17.7534 -12.0655,55.6733 0,36.8857 11.8931,55.501 12.0654,18.4428 37.7476,18.4428 27.9228,0 39.8159,-17.9257 12.0654,-17.9258 12.0654,-56.0181 z"
     style="fill:#ececec;stroke:none;fill-opacity:1"
     id="path2181" /><path
     d="m 8056.9121,8744 v -118.2412 q 0,-18.4429 -3.6196,-28.6123 -3.6196,-10.1694 -11.5484,-14.6509 -7.9287,-4.4814 -23.269,-4.4814 -22.4072,0 -35.3345,15.3403 -12.9272,15.3403 -12.9272,42.5737 V 8744 h -31.0254 v -146.6812 q 0,-32.5766 -1.0342,-39.8159 h 29.3018 q 0.1723,0.8618 0.3447,4.6538 0.1724,3.792 0.3447,8.7906 0.3447,4.8261 0.6895,18.4428 h 0.5171 q 10.6865,-19.3047 24.6479,-27.2334 14.1338,-8.101 34.9898,-8.101 30.6806,0 44.8144,15.3403 14.3062,15.168 14.3062,50.3301 V 8744 Z"
     style="fill:#ececec;stroke:none;fill-opacity:1"
     id="path2183" /><path
     d="m 8230.999,8652.3027 q 0,-49.813 15.5127,-89.4565 15.6851,-39.6436 48.0894,-74.6333 h 29.9912 q -32.2319,35.8516 -47.3999,76.1846 -14.9956,40.333 -14.9956,88.25 0,47.7446 14.8232,87.9052 14.9956,40.1607 47.5723,76.5293 h -29.9912 q -32.5767,-35.1621 -48.0894,-74.8056 -15.5127,-39.816 -15.5127,-89.2842 z"
     style="fill:#ececec;stroke:none;fill-opacity:1"
     id="path2185" /><path
     d="M 8388.8838,8580.0825 V 8744 h -31.0254 v -163.9175 h -26.1992 v -22.5796 h 26.1992 v -21.0283 q 0,-25.5098 11.2036,-36.7134 11.2036,-11.2036 34.3003,-11.2036 12.9273,0 21.8901,2.0684 v 23.6137 q -7.7563,-1.3789 -13.789,-1.3789 -11.8931,0 -17.2363,6.0328 -5.3433,6.0327 -5.3433,21.8901 v 16.7192 h 36.3686 v 22.5796 z"
     style="fill:#ececec;stroke:none;fill-opacity:1"
     id="path2187" /><path
     d="m 8606.2339,8650.5791 q 0,48.9512 -21.5454,72.9097 -21.5454,23.9585 -62.5679,23.9585 -40.8501,0 -61.706,-24.8203 -20.856,-24.9927 -20.856,-72.0479 0,-96.5234 83.5962,-96.5234 42.7461,0 62.9126,23.6137 20.1665,23.4414 20.1665,72.9097 z m -32.5767,0 q 0,-38.6094 -11.5483,-56.0181 -11.376,-17.581 -38.437,-17.581 -27.2334,0 -39.4712,17.9258 -12.0654,17.7534 -12.0654,55.6733 0,36.8857 11.893,55.501 12.0655,18.4428 37.7476,18.4428 27.9228,0 39.8159,-17.9257 12.0654,-17.9258 12.0654,-56.0181 z"
     style="fill:#ececec;stroke:none;fill-opacity:1"
     id="path2189" /><path
     d="m 8645.5327,8744 v -143.0615 q 0,-19.6494 -1.0342,-43.4356 h 29.3018 q 1.3789,31.7149 1.3789,38.0923 h 0.6895 q 7.4116,-23.9585 17.0639,-32.749 9.6524,-8.7905 27.2334,-8.7905 6.2051,0 12.5825,1.7236 v 28.4399 q -6.205,-1.7236 -16.5468,-1.7236 -19.3047,0 -29.4742,16.7192 -10.1694,16.5469 -10.1694,47.5723 V 8744 Z"
     style="fill:#ececec;stroke:none;fill-opacity:1"
     id="path2191" /><path
     d="m 8733.2656,8814.1519 v -22.4073 h 205.6294 v 22.4073 z"
     style="fill:#ececec;stroke:none;fill-opacity:1"
     id="path2193" /><path
     d="m 8982.5029,8657.3013 q 0,32.0595 13.272,49.4682 13.272,17.4087 38.7817,17.4087 20.1665,0 32.232,-8.1011 12.2378,-8.101 16.5468,-20.5112 l 27.2334,7.7564 q -16.7192,44.125 -76.0122,44.125 -41.3671,0 -63.0849,-24.648 -21.5454,-24.6479 -21.5454,-73.2544 0,-46.1933 21.5454,-70.8413 21.7178,-24.6479 61.8784,-24.6479 82.2173,0 82.2173,99.1089 v 4.1367 z m 101.0049,-23.7862 q -2.5854,-29.4741 -14.9956,-42.9184 -12.4101,-13.6167 -35.6792,-13.6167 -22.5796,0 -35.8516,15.1679 -13.0996,14.9957 -14.1337,41.3672 z"
     style="fill:#ececec;stroke:none;fill-opacity:1"
     id="path2195" /><path
     d="m 9202.6108,8747.4473 q -28.0952,0 -42.229,-14.8233 -14.1338,-14.8232 -14.1338,-40.6777 0,-28.957 18.96,-44.4697 19.1323,-15.5127 61.5337,-16.5469 l 41.8843,-0.6895 v -10.1694 q 0,-22.752 -9.6524,-32.5767 -9.6523,-9.8247 -30.3359,-9.8247 -20.856,0 -30.3359,7.0669 -9.48,7.0669 -11.376,22.5796 l -32.4043,-2.9302 q 7.9287,-50.33 74.8056,-50.33 35.1622,0 52.9156,16.2021 17.7534,16.0298 17.7534,46.5381 v 80.3213 q 0,13.7891 3.6196,20.8559 3.6197,6.8946 13.7891,6.8946 4.4814,0 10.1694,-1.2066 v 19.3047 q -11.7207,2.7578 -23.9585,2.7578 -17.2363,0 -25.165,-8.9629 -7.7564,-9.1352 -8.7905,-28.4399 h -1.0342 q -11.8931,21.373 -27.7505,30.3359 -15.6851,8.7906 -38.2647,8.7906 z m 7.0669,-23.2691 q 17.064,0 30.336,-7.7563 13.2719,-7.7564 20.8559,-21.2007 7.7564,-13.6167 7.7564,-27.9229 v -15.3403 l -33.9556,0.6895 q -21.8901,0.3447 -33.2661,4.4814 -11.2036,4.1367 -17.2363,12.7549 -6.0327,8.6182 -6.0327,22.5796 0,15.1679 8.101,23.4414 8.2735,8.2734 23.4414,8.2734 z"
     style="fill:#ececec;stroke:none;fill-opacity:1"
     id="path2197" /><path
     d="m 9374.9741,8649.8896 q 0,37.2305 11.7207,55.1563 11.7207,17.9258 35.3345,17.9258 16.5469,0 27.5781,-8.9629 11.2036,-8.9629 13.7891,-27.5781 l 31.3701,2.0683 q -3.6196,26.8887 -22.9243,42.9185 -19.3047,16.0298 -48.9512,16.0298 -39.1265,0 -59.81,-24.648 -20.5113,-24.8203 -20.5113,-72.2202 0,-47.0552 20.6836,-71.7031 20.6836,-24.8203 59.293,-24.8203 28.6123,0 47.3999,14.8232 18.96,14.8232 23.7861,40.8501 l -31.8872,2.4131 q -2.4131,-15.5127 -12.2378,-24.648 -9.8247,-9.1352 -27.9228,-9.1352 -24.648,0 -35.6792,16.3745 -11.0313,16.3745 -11.0313,55.1562 z"
     style="fill:#ececec;stroke:none;fill-opacity:1"
     id="path2199" /><path
     d="m 9558.7134,8589.3901 q 9.997,-18.2705 23.9585,-26.7163 14.1338,-8.6181 35.6792,-8.6181 30.3359,0 44.6421,15.1679 14.4785,14.9956 14.4785,50.5025 V 8744 h -31.1978 v -118.2412 q 0,-19.6494 -3.6196,-29.1294 -3.6196,-9.6523 -11.8931,-14.1338 -8.2734,-4.4814 -22.9243,-4.4814 -21.8901,0 -35.1621,15.1679 -13.0996,15.168 -13.0996,40.8501 V 8744 h -31.0254 v -255.7871 h 31.0254 v 66.5322 q 0,10.5142 -0.6895,21.7178 -0.517,11.2036 -0.6894,12.9272 z"
     style="fill:#ececec;stroke:none;fill-opacity:1"
     id="path2201" /><path
     d="m 9796.0576,8652.9922 q 0,49.813 -15.685,89.4565 -15.5127,39.6436 -47.917,74.6333 h -29.9912 q 32.4043,-36.1963 47.3999,-76.1845 14.9956,-40.1607 14.9956,-88.25 0,-48.0894 -15.168,-88.25 -14.9956,-40.1607 -47.2275,-76.1846 h 29.9912 q 32.5766,35.1621 48.0893,74.978 15.5127,39.6436 15.5127,89.1118 z"
     style="fill:#ececec;stroke:none;fill-opacity:1"
     id="path2203" /></g>
 <g
   aria-label="Bevy 0.4 (iterator)"
   id="text118"
   class="TextShape"
   style="fill:#ececec;fill-opacity:1"><path
     d="m 10146.833,8675.5718 q 0,32.4043 -23.614,50.5024 -23.614,17.9258 -65.67,17.9258 h -98.592 v -242.8599 h 88.25 q 85.492,0 85.492,58.9483 0,21.5454 -12.065,36.1963 -12.066,14.6508 -34.128,19.6494 28.957,3.4472 44.642,19.477 15.685,15.8575 15.685,40.1607 z m -47.228,-111.5191 q 0,-19.6494 -13.444,-28.0952 -13.444,-8.4458 -38.954,-8.4458 h -55.3286 v 76.874 h 55.3286 q 26.372,0 39.299,-9.8247 13.099,-9.997 13.099,-30.5083 z m 13.962,108.9336 q 0,-42.9184 -60.327,-42.9184 h -61.3616 v 87.5605 h 63.9466 q 30.164,0 43.953,-11.2036 13.789,-11.2036 13.789,-33.4385 z"
     style="fill:#ececec;stroke:none;fill-opacity:1"
     id="path2206" /><path
     d="m 10213.021,8657.3013 q 0,32.0595 13.271,49.4682 13.272,17.4087 38.782,17.4087 20.167,0 32.232,-8.1011 12.238,-8.101 16.547,-20.5112 l 27.233,7.7564 q -16.719,44.125 -76.012,44.125 -41.367,0 -63.085,-24.648 -21.545,-24.6479 -21.545,-73.2544 0,-46.1933 21.545,-70.8413 21.718,-24.6479 61.879,-24.6479 82.217,0 82.217,99.1089 v 4.1367 z m 101.004,-23.7862 q -2.585,-29.4741 -14.995,-42.9184 -12.41,-13.6167 -35.679,-13.6167 -22.58,0 -35.852,15.1679 -13.1,14.9957 -14.134,41.3672 z"
     style="fill:#ececec;stroke:none;fill-opacity:1"
     id="path2208" /><path
     d="m 10467.429,8744 h -36.714 l -67.738,-186.4971 h 33.093 l 41.023,121.3438 q 2.24,6.8945 11.893,40.8501 l 6.033,-20.1665 6.722,-20.3389 42.401,-121.6885 h 32.921 z"
     style="fill:#ececec;stroke:none;fill-opacity:1"
     id="path2210" /><path
     d="m 10571.191,8817.2544 q -12.754,0 -21.373,-1.896 v -23.269 q 6.55,1.0341 14.479,1.0341 28.957,0 45.849,-42.5737 l 2.93,-7.4116 -73.944,-185.6353 h 33.094 l 39.298,103.0733 q 0.862,2.4131 2.069,5.8603 1.206,3.2749 7.756,22.4073 6.55,19.1323 7.067,21.373 l 12.065,-33.9556 40.851,-118.7583 h 32.749 L 10642.377,8744 q -11.548,29.8188 -21.545,44.2974 -9.997,14.6508 -22.235,21.7177 -12.065,7.2393 -27.406,7.2393 z"
     style="fill:#ececec;stroke:none;fill-opacity:1"
     id="path2212" /><path
     d="m 10995.377,8622.4839 q 0,60.8442 -21.545,92.9038 -21.373,32.0596 -63.257,32.0596 -41.885,0 -62.913,-31.8872 -21.028,-31.8872 -21.028,-93.0762 0,-62.5679 20.339,-93.7656 20.511,-31.1978 64.636,-31.1978 42.918,0 63.257,31.5425 20.511,31.5425 20.511,93.4209 z m -31.542,0 q 0,-52.5708 -12.238,-76.1846 -12.065,-23.6138 -39.988,-23.6138 -28.612,0 -41.195,23.2691 -12.41,23.269 -12.41,76.5293 0,51.709 12.582,75.6675 12.755,23.9585 40.333,23.9585 27.406,0 40.161,-24.4756 12.755,-24.4756 12.755,-75.1504 z"
     style="fill:#ececec;stroke:none;fill-opacity:1"
     id="path2214" /><path
     d="m 11041.398,8744 v -37.7476 h 33.611 V 8744 Z"
     style="fill:#ececec;stroke:none;fill-opacity:1"
     id="path2216" /><path
     d="M 11259.093,8689.0161 V 8744 h -29.301 v -54.9839 h -114.45 v -24.1308 l 111.175,-163.7452 h 32.576 v 163.4004 h 34.128 v 24.4756 z m -29.301,-152.8862 q -0.345,1.0342 -4.827,9.1352 -4.481,8.1011 -6.722,11.376 l -62.223,91.6973 -9.308,12.7549 -2.757,3.4472 h 85.837 z"
     style="fill:#ececec;stroke:none;fill-opacity:1"
     id="path2218" /><path
     d="m 11423.528,8652.3027 q 0,-49.813 15.513,-89.4565 15.685,-39.6436 48.089,-74.6333 h 29.991 q -32.232,35.8516 -47.4,76.1846 -14.995,40.333 -14.995,88.25 0,47.7446 14.823,87.9052 14.995,40.1607 47.572,76.5293 h -29.991 q -32.577,-35.1621 -48.089,-74.8056 -15.513,-39.816 -15.513,-89.2842 z"
     style="fill:#ececec;stroke:none;fill-opacity:1"
     id="path2220" /><path
     d="m 11542.803,8517.8594 v -29.6465 h 31.026 v 29.6465 z m 0,226.1406 v -186.4971 h 31.026 V 8744 Z"
     style="fill:#ececec;stroke:none;fill-opacity:1"
     id="path2222" /><path
     d="m 11693.104,8742.6211 q -15.34,4.1367 -31.37,4.1367 -37.231,0 -37.231,-42.229 v -124.4463 h -21.545 v -22.5796 h 22.752 l 9.135,-41.7119 h 20.684 v 41.7119 h 34.472 v 22.5796 h -34.472 v 117.7241 q 0,13.4444 4.309,18.96 4.481,5.3433 15.34,5.3433 6.205,0 17.926,-2.4131 z"
     style="fill:#ececec;stroke:none;fill-opacity:1"
     id="path2224" /><path
     d="m 11743.262,8657.3013 q 0,32.0595 13.272,49.4682 13.272,17.4087 38.781,17.4087 20.167,0 32.232,-8.1011 12.238,-8.101 16.547,-20.5112 l 27.234,7.7564 q -16.72,44.125 -76.013,44.125 -41.367,0 -63.085,-24.648 -21.545,-24.6479 -21.545,-73.2544 0,-46.1933 21.545,-70.8413 21.718,-24.6479 61.879,-24.6479 82.217,0 82.217,99.1089 v 4.1367 z m 101.005,-23.7862 q -2.586,-29.4741 -14.996,-42.9184 -12.41,-13.6167 -35.679,-13.6167 -22.58,0 -35.852,15.1679 -13.099,14.9957 -14.134,41.3672 z"
     style="fill:#ececec;stroke:none;fill-opacity:1"
     id="path2226" /><path
     d="m 11916.487,8744 v -143.0615 q 0,-19.6494 -1.034,-43.4356 h 29.301 q 1.379,31.7149 1.379,38.0923 h 0.69 q 7.411,-23.9585 17.064,-32.749 9.652,-8.7905 27.233,-8.7905 6.205,0 12.583,1.7236 v 28.4399 q -6.205,-1.7236 -16.547,-1.7236 -19.305,0 -29.474,16.7192 -10.17,16.5469 -10.17,47.5723 V 8744 Z"
     style="fill:#ececec;stroke:none;fill-opacity:1"
     id="path2228" /><path
     d="m 12080.921,8747.4473 q -28.095,0 -42.229,-14.8233 -14.133,-14.8232 -14.133,-40.6777 0,-28.957 18.96,-44.4697 19.132,-15.5127 61.533,-16.5469 l 41.885,-0.6895 v -10.1694 q 0,-22.752 -9.653,-32.5767 -9.652,-9.8247 -30.336,-9.8247 -20.856,0 -30.336,7.0669 -9.48,7.0669 -11.376,22.5796 l -32.404,-2.9302 q 7.929,-50.33 74.806,-50.33 35.162,0 52.915,16.2021 17.754,16.0298 17.754,46.5381 v 80.3213 q 0,13.7891 3.619,20.8559 3.62,6.8946 13.789,6.8946 4.482,0 10.17,-1.2066 v 19.3047 q -11.721,2.7578 -23.959,2.7578 -17.236,0 -25.165,-8.9629 -7.756,-9.1352 -8.79,-28.4399 h -1.034 q -11.894,21.373 -27.751,30.3359 -15.685,8.7906 -38.265,8.7906 z m 7.067,-23.2691 q 17.064,0 30.336,-7.7563 13.272,-7.7564 20.856,-21.2007 7.757,-13.6167 7.757,-27.9229 v -15.3403 l -33.956,0.6895 q -21.89,0.3447 -33.266,4.4814 -11.204,4.1367 -17.236,12.7549 -6.033,8.6182 -6.033,22.5796 0,15.1679 8.101,23.4414 8.273,8.2734 23.441,8.2734 z"
     style="fill:#ececec;stroke:none;fill-opacity:1"
     id="path2230" /><path
     d="m 12301.374,8742.6211 q -15.34,4.1367 -31.37,4.1367 -37.231,0 -37.231,-42.229 v -124.4463 h -21.545 v -22.5796 h 22.752 l 9.135,-41.7119 h 20.684 v 41.7119 h 34.472 v 22.5796 h -34.472 v 117.7241 q 0,13.4444 4.309,18.96 4.481,5.3433 15.34,5.3433 6.205,0 17.926,-2.4131 z"
     style="fill:#ececec;stroke:none;fill-opacity:1"
     id="path2232" /><path
     d="m 12485.458,8650.5791 q 0,48.9512 -21.545,72.9097 -21.546,23.9585 -62.568,23.9585 -40.85,0 -61.706,-24.8203 -20.856,-24.9927 -20.856,-72.0479 0,-96.5234 83.596,-96.5234 42.746,0 62.913,23.6137 20.166,23.4414 20.166,72.9097 z m -32.577,0 q 0,-38.6094 -11.548,-56.0181 -11.376,-17.581 -38.437,-17.581 -27.233,0 -39.471,17.9258 -12.066,17.7534 -12.066,55.6733 0,36.8857 11.893,55.501 12.066,18.4428 37.748,18.4428 27.923,0 39.816,-17.9257 12.065,-17.9258 12.065,-56.0181 z"
     style="fill:#ececec;stroke:none;fill-opacity:1"
     id="path2234" /><path
     d="m 12524.757,8744 v -143.0615 q 0,-19.6494 -1.034,-43.4356 h 29.301 q 1.379,31.7149 1.379,38.0923 h 0.69 q 7.411,-23.9585 17.064,-32.749 9.652,-8.7905 27.233,-8.7905 6.205,0 12.583,1.7236 v 28.4399 q -6.205,-1.7236 -16.547,-1.7236 -19.305,0 -29.474,16.7192 -10.17,16.5469 -10.17,47.5723 V 8744 Z"
     style="fill:#ececec;stroke:none;fill-opacity:1"
     id="path2236" /><path
     d="m 12713.495,8652.9922 q 0,49.813 -15.685,89.4565 -15.513,39.6436 -47.917,74.6333 h -29.992 q 32.405,-36.1963 47.4,-76.1845 14.996,-40.1607 14.996,-88.25 0,-48.0894 -15.168,-88.25 -14.996,-40.1607 -47.228,-76.1846 h 29.992 q 32.576,35.1621 48.089,74.978 15.513,39.6436 15.513,89.1118 z"
     style="fill:#ececec;stroke:none;fill-opacity:1"
     id="path2238" /></g>
 <g
   aria-label="Legion (iterator)"
   id="text126"
   class="TextShape"
   style="fill:#ececec;fill-opacity:1"><path
     d="m 13074.957,8744 v -242.8599 h 32.921 v 215.9712 h 122.723 V 8744 Z"
     style="fill:#ececec;stroke:none;fill-opacity:1"
     id="path2241" /><path
     d="m 13289.894,8657.3013 q 0,32.0595 13.272,49.4682 13.272,17.4087 38.782,17.4087 20.166,0 32.232,-8.1011 12.237,-8.101 16.547,-20.5112 l 27.233,7.7564 q -16.719,44.125 -76.012,44.125 -41.367,0 -63.085,-24.648 -21.546,-24.6479 -21.546,-73.2544 0,-46.1933 21.546,-70.8413 21.718,-24.6479 61.878,-24.6479 82.217,0 82.217,99.1089 v 4.1367 z m 101.005,-23.7862 q -2.586,-29.4741 -14.996,-42.9184 -12.41,-13.6167 -35.679,-13.6167 -22.579,0 -35.851,15.1679 -13.1,14.9957 -14.134,41.3672 z"
     style="fill:#ececec;stroke:none;fill-opacity:1"
     id="path2243" /><path
     d="m 13533.099,8817.2544 q -30.509,0 -48.607,-12.0654 -18.098,-11.8931 -23.269,-33.9556 l 31.198,-4.4814 q 3.102,12.9272 13.617,19.8217 10.686,7.0669 27.922,7.0669 46.366,0 46.366,-54.2944 v -29.9912 h -0.345 q -8.79,17.9258 -24.13,27.061 -15.341,8.9629 -35.852,8.9629 -34.3,0 -50.502,-22.7519 -16.03,-22.752 -16.03,-71.5308 0,-49.4683 17.236,-72.9097 17.409,-23.6137 52.743,-23.6137 19.822,0 34.301,9.1352 14.65,8.9629 22.579,25.6821 h 0.345 q 0,-5.1709 0.689,-17.9257 0.69,-12.7549 1.379,-13.9615 h 29.474 q -1.034,9.3076 -1.034,38.6094 v 142.5444 q 0,78.5977 -78.08,78.5977 z m 47.227,-166.5029 q 0,-22.752 -6.205,-39.1265 -6.205,-16.5469 -17.581,-25.165 -11.204,-8.7906 -25.51,-8.7906 -23.786,0 -34.645,17.2364 -10.859,17.2363 -10.859,55.8457 0,38.2646 10.17,54.9839 10.169,16.7192 34.817,16.7192 14.651,0 26.027,-8.6182 11.376,-8.6181 17.581,-24.6479 6.205,-16.2022 6.205,-38.437 z"
     style="fill:#ececec;stroke:none;fill-opacity:1"
     id="path2245" /><path
     d="m 13658.579,8517.8594 v -29.6465 h 31.025 v 29.6465 z m 0,226.1406 v -186.4971 h 31.025 V 8744 Z"
     style="fill:#ececec;stroke:none;fill-opacity:1"
     id="path2247" /><path
     d="m 13894.889,8650.5791 q 0,48.9512 -21.545,72.9097 -21.546,23.9585 -62.568,23.9585 -40.85,0 -61.706,-24.8203 -20.856,-24.9927 -20.856,-72.0479 0,-96.5234 83.596,-96.5234 42.746,0 62.913,23.6137 20.166,23.4414 20.166,72.9097 z m -32.576,0 q 0,-38.6094 -11.549,-56.0181 -11.376,-17.581 -38.437,-17.581 -27.233,0 -39.471,17.9258 -12.065,17.7534 -12.065,55.6733 0,36.8857 11.893,55.501 12.065,18.4428 37.747,18.4428 27.923,0 39.816,-17.9257 12.066,-17.9258 12.066,-56.0181 z"
     style="fill:#ececec;stroke:none;fill-opacity:1"
     id="path2249" /><path
     d="m 14051.912,8744 v -118.2412 q 0,-18.4429 -3.62,-28.6123 -3.619,-10.1694 -11.548,-14.6509 -7.929,-4.4814 -23.269,-4.4814 -22.407,0 -35.334,15.3403 -12.928,15.3403 -12.928,42.5737 V 8744 h -31.025 v -146.6812 q 0,-32.5766 -1.034,-39.8159 h 29.302 q 0.172,0.8618 0.344,4.6538 0.173,3.792 0.345,8.7906 0.345,4.8261 0.689,18.4428 h 0.518 q 10.686,-19.3047 24.648,-27.2334 14.133,-8.101 34.989,-8.101 30.681,0 44.815,15.3403 14.306,15.168 14.306,50.3301 V 8744 Z"
     style="fill:#ececec;stroke:none;fill-opacity:1"
     id="path2251" /><path
     d="m 14225.999,8652.3027 q 0,-49.813 15.513,-89.4565 15.685,-39.6436 48.089,-74.6333 h 29.991 q -32.232,35.8516 -47.4,76.1846 -14.995,40.333 -14.995,88.25 0,47.7446 14.823,87.9052 14.996,40.1607 47.572,76.5293 h -29.991 q -32.577,-35.1621 -48.089,-74.8056 -15.513,-39.816 -15.513,-89.2842 z"
     style="fill:#ececec;stroke:none;fill-opacity:1"
     id="path2253" /><path
     d="m 14345.274,8517.8594 v -29.6465 h 31.026 v 29.6465 z m 0,226.1406 v -186.4971 h 31.026 V 8744 Z"
     style="fill:#ececec;stroke:none;fill-opacity:1"
     id="path2255" /><path
     d="m 14495.575,8742.6211 q -15.34,4.1367 -31.37,4.1367 -37.23,0 -37.23,-42.229 v -124.4463 h -21.546 v -22.5796 h 22.752 l 9.135,-41.7119 H 14458 v 41.7119 h 34.473 v 22.5796 H 14458 v 117.7241 q 0,13.4444 4.309,18.96 4.482,5.3433 15.34,5.3433 6.205,0 17.926,-2.4131 z"
     style="fill:#ececec;stroke:none;fill-opacity:1"
     id="path2257" /><path
     d="m 14545.733,8657.3013 q 0,32.0595 13.272,49.4682 13.272,17.4087 38.782,17.4087 20.166,0 32.232,-8.1011 12.237,-8.101 16.546,-20.5112 l 27.234,7.7564 q -16.719,44.125 -76.012,44.125 -41.368,0 -63.085,-24.648 -21.546,-24.6479 -21.546,-73.2544 0,-46.1933 21.546,-70.8413 21.717,-24.6479 61.878,-24.6479 82.217,0 82.217,99.1089 v 4.1367 z m 101.005,-23.7862 q -2.586,-29.4741 -14.996,-42.9184 -12.41,-13.6167 -35.679,-13.6167 -22.58,0 -35.852,15.1679 -13.099,14.9957 -14.133,41.3672 z"
     style="fill:#ececec;stroke:none;fill-opacity:1"
     id="path2259" /><path
     d="m 14718.958,8744 v -143.0615 q 0,-19.6494 -1.034,-43.4356 h 29.302 q 1.378,31.7149 1.378,38.0923 h 0.69 q 7.412,-23.9585 17.064,-32.749 9.652,-8.7905 27.233,-8.7905 6.205,0 12.583,1.7236 v 28.4399 q -6.205,-1.7236 -16.547,-1.7236 -19.305,0 -29.474,16.7192 -10.17,16.5469 -10.17,47.5723 V 8744 Z"
     style="fill:#ececec;stroke:none;fill-opacity:1"
     id="path2261" /><path
     d="m 14883.393,8747.4473 q -28.096,0 -42.229,-14.8233 -14.134,-14.8232 -14.134,-40.6777 0,-28.957 18.96,-44.4697 19.132,-15.5127 61.533,-16.5469 l 41.885,-0.6895 v -10.1694 q 0,-22.752 -9.653,-32.5767 -9.652,-9.8247 -30.336,-9.8247 -20.856,0 -30.336,7.0669 -9.479,7.0669 -11.375,22.5796 l -32.405,-2.9302 q 7.929,-50.33 74.806,-50.33 35.162,0 52.915,16.2021 17.754,16.0298 17.754,46.5381 v 80.3213 q 0,13.7891 3.619,20.8559 3.62,6.8946 13.79,6.8946 4.481,0 10.169,-1.2066 v 19.3047 q -11.721,2.7578 -23.959,2.7578 -17.236,0 -25.165,-8.9629 -7.756,-9.1352 -8.79,-28.4399 h -1.034 q -11.893,21.373 -27.751,30.3359 -15.685,8.7906 -38.264,8.7906 z m 7.066,-23.2691 q 17.064,0 30.336,-7.7563 13.272,-7.7564 20.856,-21.2007 7.757,-13.6167 7.757,-27.9229 v -15.3403 l -33.956,0.6895 q -21.89,0.3447 -33.266,4.4814 -11.204,4.1367 -17.236,12.7549 -6.033,8.6182 -6.033,22.5796 0,15.1679 8.101,23.4414 8.274,8.2734 23.441,8.2734 z"
     style="fill:#ececec;stroke:none;fill-opacity:1"
     id="path2263" /><path
     d="m 15103.845,8742.6211 q -15.34,4.1367 -31.37,4.1367 -37.23,0 -37.23,-42.229 v -124.4463 h -21.546 v -22.5796 h 22.752 l 9.135,-41.7119 h 20.684 v 41.7119 h 34.473 v 22.5796 h -34.473 v 117.7241 q 0,13.4444 4.309,18.96 4.482,5.3433 15.34,5.3433 6.206,0 17.926,-2.4131 z"
     style="fill:#ececec;stroke:none;fill-opacity:1"
     id="path2265" /><path
     d="m 15287.929,8650.5791 q 0,48.9512 -21.545,72.9097 -21.546,23.9585 -62.568,23.9585 -40.85,0 -61.706,-24.8203 -20.856,-24.9927 -20.856,-72.0479 0,-96.5234 83.596,-96.5234 42.746,0 62.913,23.6137 20.166,23.4414 20.166,72.9097 z m -32.576,0 q 0,-38.6094 -11.549,-56.0181 -11.376,-17.581 -38.437,-17.581 -27.233,0 -39.471,17.9258 -12.065,17.7534 -12.065,55.6733 0,36.8857 11.893,55.501 12.065,18.4428 37.747,18.4428 27.923,0 39.816,-17.9257 12.066,-17.9258 12.066,-56.0181 z"
     style="fill:#ececec;stroke:none;fill-opacity:1"
     id="path2267" /><path
     d="m 15327.228,8744 v -143.0615 q 0,-19.6494 -1.034,-43.4356 h 29.302 q 1.379,31.7149 1.379,38.0923 h 0.689 q 7.412,-23.9585 17.064,-32.749 9.652,-8.7905 27.233,-8.7905 6.205,0 12.583,1.7236 v 28.4399 q -6.205,-1.7236 -16.547,-1.7236 -19.305,0 -29.474,16.7192 -10.17,16.5469 -10.17,47.5723 V 8744 Z"
     style="fill:#ececec;stroke:none;fill-opacity:1"
     id="path2269" /><path
     d="m 15515.966,8652.9922 q 0,49.813 -15.685,89.4565 -15.513,39.6436 -47.917,74.6333 h -29.991 q 32.404,-36.1963 47.399,-76.1845 14.996,-40.1607 14.996,-88.25 0,-48.0894 -15.168,-88.25 -14.996,-40.1607 -47.227,-76.1846 h 29.991 q 32.576,35.1621 48.089,74.978 15.513,39.6436 15.513,89.1118 z"
     style="fill:#ececec;stroke:none;fill-opacity:1"
     id="path2271" /></g>
 <g
   aria-label="0"
   id="text134"
   class="TextShape"
   style="fill:#ececec;fill-opacity:1"><path
     d="m 794.53271,8175.4839 q 0,60.8442 -21.54541,92.9038 -21.37304,32.0596 -63.25732,32.0596 -41.88428,0 -62.9126,-31.8872 -21.02832,-31.8872 -21.02832,-93.0762 0,-62.5679 20.33887,-93.7656 20.51123,-31.1978 64.63623,-31.1978 42.91846,0 63.25732,31.5425 20.51123,31.5425 20.51123,93.4209 z m -31.54248,0 q 0,-52.5708 -12.23779,-76.1846 -12.06543,-23.6138 -39.98828,-23.6138 -28.6123,0 -41.19482,23.2691 -12.41016,23.269 -12.41016,76.5293 0,51.709 12.58252,75.6675 12.75488,23.9585 40.33301,23.9585 27.40576,0 40.16064,-24.4756 12.75488,-24.4756 12.75488,-75.1504 z"
     style="fill:#ececec;stroke:none;fill-opacity:1"
     id="path2034" /></g>
 <g
   aria-label="0.1"
   id="text142"
   class="TextShape"
   style="fill:#ececec;fill-opacity:1"><path
     d="m 503.53271,7395.4839 q 0,60.8442 -21.54541,92.9038 -21.37304,32.0596 -63.25732,32.0596 -41.88428,0 -62.9126,-31.8872 -21.02832,-31.8872 -21.02832,-93.0762 0,-62.5679 20.33887,-93.7656 20.51123,-31.1978 64.63623,-31.1978 42.91846,0 63.25732,31.5425 20.51123,31.5425 20.51123,93.4209 z m -31.54248,0 q 0,-52.5708 -12.23779,-76.1846 -12.06543,-23.6138 -39.98828,-23.6138 -28.6123,0 -41.19482,23.2691 -12.41016,23.269 -12.41016,76.5293 0,51.709 12.58252,75.6675 12.75488,23.9585 40.33301,23.9585 27.40576,0 40.16064,-24.4756 12.75488,-24.4756 12.75488,-75.1504 z"
     style="fill:#ececec;stroke:none;fill-opacity:1"
     id="path2037" /><path
     d="m 549.55371,7517 v -37.7476 h 33.61084 V 7517 Z"
     style="fill:#ececec;stroke:none;fill-opacity:1"
     id="path2039" /><path
     d="m 642.28516,7517 v -26.3716 h 61.87841 v -186.8418 l -54.81152,39.1265 v -29.3018 l 57.39697,-39.4712 h 28.61231 v 216.4883 h 59.1206 V 7517 Z"
     style="fill:#ececec;stroke:none;fill-opacity:1"
     id="path2041" /></g>
 <g
   aria-label="0.2"
   id="text150"
   class="TextShape"
   style="fill:#ececec;fill-opacity:1"><path
     d="m 503.53271,6615.4839 q 0,60.8442 -21.54541,92.9038 -21.37304,32.0596 -63.25732,32.0596 -41.88428,0 -62.9126,-31.8872 -21.02832,-31.8872 -21.02832,-93.0762 0,-62.5679 20.33887,-93.7656 20.51123,-31.1978 64.63623,-31.1978 42.91846,0 63.25732,31.5425 20.51123,31.5425 20.51123,93.4209 z m -31.54248,0 q 0,-52.5708 -12.23779,-76.1846 -12.06543,-23.6138 -39.98828,-23.6138 -28.6123,0 -41.19482,23.2691 -12.41016,23.269 -12.41016,76.5293 0,51.709 12.58252,75.6675 12.75488,23.9585 40.33301,23.9585 27.40576,0 40.16064,-24.4756 12.75488,-24.4756 12.75488,-75.1504 z"
     style="fill:#ececec;stroke:none;fill-opacity:1"
     id="path2044" /><path
     d="m 549.55371,6737 v -37.7476 h 33.61084 V 6737 Z"
     style="fill:#ececec;stroke:none;fill-opacity:1"
     id="path2046" /><path
     d="m 633.1499,6737 v -21.8901 q 8.79053,-20.1665 21.37305,-35.5069 12.75488,-15.5127 26.71631,-27.9228 13.96142,-12.5825 27.57812,-23.2691 13.78907,-10.6865 24.82032,-21.373 11.03125,-10.6865 17.75341,-22.4072 6.89453,-11.7207 6.89453,-26.544 0,-19.9941 -11.7207,-31.0254 -11.7207,-11.0312 -32.57666,-11.0312 -19.82178,0 -32.74902,10.8589 -12.75489,10.6865 -14.99561,30.1635 l -31.71484,-2.9301 q 3.44726,-29.1294 24.64795,-46.3658 21.37304,-17.2363 54.81152,-17.2363 36.71338,0 56.36279,17.4087 19.82178,17.2363 19.82178,49.1235 0,14.1338 -6.5498,28.0952 -6.37744,13.9615 -19.13233,27.9229 -12.75488,13.9614 -48.77881,43.2632 -19.82177,16.2021 -31.54248,29.3017 -11.7207,12.9273 -16.8916,24.9927 H 793.96484 V 6737 Z"
     style="fill:#ececec;stroke:none;fill-opacity:1"
     id="path2048" /></g>
 <g
   aria-label="0.3"
   id="text158"
   class="TextShape"
   style="fill:#ececec;fill-opacity:1"><path
     d="m 503.53271,5835.4839 q 0,60.8442 -21.54541,92.9038 -21.37304,32.0596 -63.25732,32.0596 -41.88428,0 -62.9126,-31.8872 -21.02832,-31.8872 -21.02832,-93.0762 0,-62.5679 20.33887,-93.7656 20.51123,-31.1978 64.63623,-31.1978 42.91846,0 63.25732,31.5425 20.51123,31.5425 20.51123,93.4209 z m -31.54248,0 q 0,-52.5708 -12.23779,-76.1846 -12.06543,-23.6138 -39.98828,-23.6138 -28.6123,0 -41.19482,23.2691 -12.41016,23.269 -12.41016,76.5293 0,51.709 12.58252,75.6675 12.75488,23.9585 40.33301,23.9585 27.40576,0 40.16064,-24.4756 12.75488,-24.4756 12.75488,-75.1504 z"
     style="fill:#ececec;stroke:none;fill-opacity:1"
     id="path2051" /><path
     d="m 549.55371,5957 v -37.7476 h 33.61084 V 5957 Z"
     style="fill:#ececec;stroke:none;fill-opacity:1"
     id="path2053" /><path
     d="m 796.20557,5889.9507 q 0,33.6108 -21.37305,52.0537 -21.37305,18.4429 -61.0166,18.4429 -36.88574,0 -58.94824,-16.5469 -21.89014,-16.7192 -26.02686,-49.2959 l 32.05957,-2.9302 q 6.20508,43.0908 52.91553,43.0908 23.4414,0 36.71338,-11.5483 13.44433,-11.5483 13.44433,-34.3003 0,-19.8218 -15.34033,-30.853 -15.16797,-11.2036 -43.95264,-11.2036 h -17.58105 v -26.8887 h 16.8916 q 25.50977,0 39.47119,-11.0313 14.13379,-11.2036 14.13379,-30.853 0,-19.477 -11.54834,-30.6807 -11.37598,-11.3759 -33.95556,-11.3759 -20.51124,0 -33.26612,10.5141 -12.58252,10.5142 -14.65088,29.6465 l -31.19775,-2.4131 q 3.44726,-29.8188 24.64795,-46.5381 21.37305,-16.7192 54.81152,-16.7192 36.54102,0 56.70752,17.064 20.33887,16.8916 20.33887,47.2275 0,23.2691 -13.09961,37.9199 -12.92725,14.4785 -37.74756,19.6494 v 0.6895 q 27.2334,2.9302 42.40137,18.2705 15.16797,15.3403 15.16797,38.6094 z"
     style="fill:#ececec;stroke:none;fill-opacity:1"
     id="path2055" /></g>
 <g
   aria-label="0.4"
   id="text166"
   class="TextShape"
   style="fill:#ececec;fill-opacity:1"><path
     d="m 503.53271,5055.4839 q 0,60.8442 -21.54541,92.9038 -21.37304,32.0596 -63.25732,32.0596 -41.88428,0 -62.9126,-31.8872 -21.02832,-31.8872 -21.02832,-93.0762 0,-62.5679 20.33887,-93.7656 20.51123,-31.1978 64.63623,-31.1978 42.91846,0 63.25732,31.5425 20.51123,31.5425 20.51123,93.4209 z m -31.54248,0 q 0,-52.5708 -12.23779,-76.1846 -12.06543,-23.6138 -39.98828,-23.6138 -28.6123,0 -41.19482,23.2691 -12.41016,23.269 -12.41016,76.5293 0,51.709 12.58252,75.6675 12.75488,23.9585 40.33301,23.9585 27.40576,0 40.16064,-24.4756 12.75488,-24.4756 12.75488,-75.1504 z"
     style="fill:#ececec;stroke:none;fill-opacity:1"
     id="path2058" /><path
     d="m 549.55371,5177 v -37.7476 h 33.61084 V 5177 Z"
     style="fill:#ececec;stroke:none;fill-opacity:1"
     id="path2060" /><path
     d="M 767.24854,5122.0161 V 5177 h -29.30176 v -54.9839 H 623.49756 v -24.1308 l 111.17431,-163.7452 h 32.57667 v 163.4004 h 34.12792 v 24.4756 z m -29.30176,-152.8862 q -0.34473,1.0342 -4.82617,9.1352 -4.48145,8.1011 -6.72217,11.376 l -62.22315,91.6973 -9.30761,12.7549 -2.75782,3.4472 h 85.83692 z"
     style="fill:#ececec;stroke:none;fill-opacity:1"
     id="path2062" /></g>
 <g
   aria-label="0.5"
   id="text174"
   class="TextShape"
   style="fill:#ececec;fill-opacity:1"><path
     d="m 503.53271,4275.4839 q 0,60.8442 -21.54541,92.9038 -21.37304,32.0596 -63.25732,32.0596 -41.88428,0 -62.9126,-31.8872 -21.02832,-31.8872 -21.02832,-93.0762 0,-62.5679 20.33887,-93.7656 20.51123,-31.1978 64.63623,-31.1978 42.91846,0 63.25732,31.5425 20.51123,31.5425 20.51123,93.4209 z m -31.54248,0 q 0,-52.5708 -12.23779,-76.1846 -12.06543,-23.6138 -39.98828,-23.6138 -28.6123,0 -41.19482,23.2691 -12.41016,23.269 -12.41016,76.5293 0,51.709 12.58252,75.6675 12.75488,23.9585 40.33301,23.9585 27.40576,0 40.16064,-24.4756 12.75488,-24.4756 12.75488,-75.1504 z"
     style="fill:#ececec;stroke:none;fill-opacity:1"
     id="path2065" /><path
     d="m 549.55371,4397 v -37.7476 h 33.61084 V 4397 Z"
     style="fill:#ececec;stroke:none;fill-opacity:1"
     id="path2067" /><path
     d="m 796.89502,4317.8853 q 0,38.437 -22.92432,60.4995 -22.75195,22.0625 -63.25732,22.0625 -33.95557,0 -54.81152,-14.8233 -20.85596,-14.8232 -26.37159,-42.9184 l 31.37012,-3.6197 q 9.82471,36.024 50.50244,36.024 24.99268,0 39.12647,-14.9956 14.13379,-15.168 14.13379,-41.5396 0,-22.9243 -14.30616,-37.0581 -14.13379,-14.1338 -38.26464,-14.1338 -12.58252,0 -23.44141,3.9644 -10.85889,3.9643 -21.71777,13.4443 h -30.33594 l 8.10107,-130.6514 h 138.06299 v 26.3716 H 672.96582 l -4.65381,77.0464 q 20.16651,-15.5127 50.15772,-15.5127 35.85156,0 57.05224,21.0283 21.37305,21.0284 21.37305,54.8116 z"
     style="fill:#ececec;stroke:none;fill-opacity:1"
     id="path2069" /></g>
 <g
   aria-label="0.6"
   id="text182"
   class="TextShape"
   style="fill:#ececec;fill-opacity:1"><path
     d="m 503.53271,3495.4839 q 0,60.8442 -21.54541,92.9038 -21.37304,32.0596 -63.25732,32.0596 -41.88428,0 -62.9126,-31.8872 -21.02832,-31.8872 -21.02832,-93.0762 0,-62.5679 20.33887,-93.7656 20.51123,-31.1978 64.63623,-31.1978 42.91846,0 63.25732,31.5425 20.51123,31.5425 20.51123,93.4209 z m -31.54248,0 q 0,-52.5708 -12.23779,-76.1846 -12.06543,-23.6138 -39.98828,-23.6138 -28.6123,0 -41.19482,23.2691 -12.41016,23.269 -12.41016,76.5293 0,51.709 12.58252,75.6675 12.75488,23.9585 40.33301,23.9585 27.40576,0 40.16064,-24.4756 12.75488,-24.4756 12.75488,-75.1504 z"
     style="fill:#ececec;stroke:none;fill-opacity:1"
     id="path2072" /><path
     d="m 549.55371,3617 v -37.7476 h 33.61084 V 3617 Z"
     style="fill:#ececec;stroke:none;fill-opacity:1"
     id="path2074" /><path
     d="m 796.20557,3537.5405 q 0,38.437 -20.85596,60.6719 -20.85596,22.2349 -57.56934,22.2349 -41.02246,0 -62.74023,-30.5083 -21.71777,-30.5083 -21.71777,-88.7671 0,-63.085 22.57959,-96.8682 22.57959,-33.7832 64.2915,-33.7832 54.98389,0 69.29004,49.4683 l -29.64649,5.3432 q -9.13525,-29.6465 -39.98828,-29.6465 -26.54394,0 -41.19482,24.8204 -14.47852,24.6479 -14.47852,71.5307 8.4458,-15.685 23.78614,-23.7861 15.34033,-8.2734 35.16211,-8.2734 33.61083,0 53.26025,21.0283 19.82178,21.0283 19.82178,56.5351 z m -31.54248,1.3789 q 0,-26.3715 -12.92725,-40.6777 -12.92725,-14.3062 -36.02393,-14.3062 -21.71777,0 -35.16211,12.7549 -13.27197,12.5825 -13.27197,34.8174 0,28.0952 13.78906,46.021 13.96143,17.9258 35.6792,17.9258 22.40723,0 35.16211,-14.9956 12.75489,-15.168 12.75489,-41.5396 z"
     style="fill:#ececec;stroke:none;fill-opacity:1"
     id="path2076" /></g>
 <g
   aria-label="0.7"
   id="text190"
   class="TextShape"
   style="fill:#ececec;fill-opacity:1"><path
     d="m 503.53271,2715.4839 q 0,60.8442 -21.54541,92.9038 -21.37304,32.0596 -63.25732,32.0596 -41.88428,0 -62.9126,-31.8872 -21.02832,-31.8872 -21.02832,-93.0762 0,-62.5679 20.33887,-93.7656 20.51123,-31.1978 64.63623,-31.1978 42.91846,0 63.25732,31.5425 20.51123,31.5425 20.51123,93.4209 z m -31.54248,0 q 0,-52.5708 -12.23779,-76.1846 -12.06543,-23.6138 -39.98828,-23.6138 -28.6123,0 -41.19482,23.2691 -12.41016,23.269 -12.41016,76.5293 0,51.709 12.58252,75.6675 12.75488,23.9585 40.33301,23.9585 27.40576,0 40.16064,-24.4756 12.75488,-24.4756 12.75488,-75.1504 z"
     style="fill:#ececec;stroke:none;fill-opacity:1"
     id="path2079" /><path
     d="m 549.55371,2837 v -37.7476 h 33.61084 V 2837 Z"
     style="fill:#ececec;stroke:none;fill-opacity:1"
     id="path2081" /><path
     d="m 793.96484,2619.3052 q -37.23047,56.8799 -52.5708,89.1118 -15.34033,32.2319 -23.09668,63.602 -7.58398,31.3702 -7.58398,64.981 h -32.4043 q 0,-46.5381 19.64942,-97.9023 19.82177,-51.5367 66.01513,-118.586 h -130.479 v -26.3716 h 160.47021 z"
     style="fill:#ececec;stroke:none;fill-opacity:1"
     id="path2083" /></g>
 <g
   aria-label="0.8"
   id="text198"
   class="TextShape"
   style="fill:#ececec;fill-opacity:1"><path
     d="m 503.53271,1935.4839 q 0,60.8442 -21.54541,92.9038 -21.37304,32.0596 -63.25732,32.0596 -41.88428,0 -62.9126,-31.8872 -21.02832,-31.8872 -21.02832,-93.0762 0,-62.5679 20.33887,-93.7656 20.51123,-31.1978 64.63623,-31.1978 42.91846,0 63.25732,31.5425 20.51123,31.5425 20.51123,93.4209 z m -31.54248,0 q 0,-52.5708 -12.23779,-76.1846 -12.06543,-23.6138 -39.98828,-23.6138 -28.6123,0 -41.19482,23.2691 -12.41016,23.269 -12.41016,76.5293 0,51.709 12.58252,75.6675 12.75488,23.9585 40.33301,23.9585 27.40576,0 40.16064,-24.4756 12.75488,-24.4756 12.75488,-75.1504 z"
     style="fill:#ececec;stroke:none;fill-opacity:1"
     id="path2086" /><path
     d="m 549.55371,2057 v -37.7476 h 33.61084 V 2057 Z"
     style="fill:#ececec;stroke:none;fill-opacity:1"
     id="path2088" /><path
     d="m 796.37793,1989.2612 q 0,33.6109 -21.37305,52.3985 -21.37304,18.7876 -61.36133,18.7876 -38.9541,0 -61.0166,-18.4429 -21.89013,-18.4429 -21.89013,-52.3984 0,-23.7862 13.6167,-39.9883 13.61669,-16.2022 34.81738,-19.6494 v -0.6895 q -19.82178,-4.6538 -31.37012,-20.1665 -11.37598,-15.5127 -11.37598,-36.3686 0,-27.7505 20.6836,-44.9869 20.85596,-17.2363 55.8457,-17.2363 35.85156,0 56.53516,16.8916 20.85595,16.8916 20.85595,45.6763 0,20.8559 -11.54834,36.3686 -11.54833,15.5127 -31.54248,19.4771 v 0.6894 q 23.26905,3.792 36.19629,19.8218 12.92725,15.8574 12.92725,39.8159 z M 758.11328,1874.812 q 0,-41.1948 -45.15918,-41.1948 -21.89014,0 -33.43848,10.3418 -11.37597,10.3418 -11.37597,30.853 0,20.856 11.7207,31.8872 11.89307,10.8589 33.43848,10.8589 21.89013,0 33.26611,-9.9971 11.54834,-10.1694 11.54834,-32.749 z m 6.03272,111.5191 q 0,-22.5796 -13.44434,-33.9556 -13.44434,-11.5484 -37.74756,-11.5484 -23.61377,0 -36.88574,12.4102 -13.27197,12.2378 -13.27197,33.7832 0,50.1577 51.19189,50.1577 25.3374,0 37.74756,-12.0654 12.41016,-12.2378 12.41016,-38.7817 z"
     style="fill:#ececec;stroke:none;fill-opacity:1"
     id="path2090" /></g>
 <g
   aria-label="0.9"
   id="text206"
   class="TextShape"
   style="fill:#ececec;fill-opacity:1"><path
     d="m 503.53271,1155.4839 q 0,60.8442 -21.54541,92.9038 -21.37304,32.0596 -63.25732,32.0596 -41.88428,0 -62.9126,-31.8872 -21.02832,-31.8872 -21.02832,-93.0762 0,-62.5679 20.33887,-93.7656 20.51123,-31.1978 64.63623,-31.1978 42.91846,0 63.25732,31.5425 20.51123,31.5425 20.51123,93.4209 z m -31.54248,0 q 0,-52.5708 -12.23779,-76.1846 -12.06543,-23.6138 -39.98828,-23.6138 -28.6123,0 -41.19482,23.2691 -12.41016,23.269 -12.41016,76.5293 0,51.709 12.58252,75.6675 12.75488,23.9585 40.33301,23.9585 27.40576,0 40.16064,-24.4756 12.75488,-24.4756 12.75488,-75.1504 z"
     style="fill:#ececec;stroke:none;fill-opacity:1"
     id="path2093" /><path
     d="m 549.55371,1277 v -37.7476 h 33.61084 V 1277 Z"
     style="fill:#ececec;stroke:none;fill-opacity:1"
     id="path2095" /><path
     d="m 794.99902,1150.6577 q 0,62.5679 -22.92431,96.1787 -22.75196,33.6109 -64.98096,33.6109 -28.43994,0 -45.67627,-11.8931 -17.06396,-12.0654 -24.47559,-38.7817 l 29.64649,-4.6538 q 9.30762,30.3359 41.02246,30.3359 26.71631,0 41.36719,-24.8203 14.65088,-24.8203 15.34033,-70.8413 -6.89453,15.5127 -23.61377,24.9926 -16.71924,9.3077 -36.71338,9.3077 -32.74902,0 -52.39844,-22.4073 -19.64941,-22.4072 -19.64941,-59.4653 0,-38.0923 21.37305,-59.8101 21.37304,-21.8901 59.46533,-21.8901 40.50537,0 61.36133,29.9912 20.85595,29.9912 20.85595,90.146 z m -33.7832,-29.9912 q 0,-29.3018 -13.44434,-47.0552 -13.44433,-17.9258 -36.02392,-17.9258 -22.40723,0 -35.33447,15.3404 -12.92725,15.1679 -12.92725,41.1948 0,26.5439 12.92725,42.0566 12.92724,15.3404 34.98974,15.3404 13.44434,0 24.99268,-6.0327 11.54834,-6.2051 18.09814,-17.4087 6.72217,-11.2036 6.72217,-25.5098 z"
     style="fill:#ececec;stroke:none;fill-opacity:1"
     id="path2097" /></g>
 <g
   aria-label="1"
   id="text214"
   class="TextShape"
   style="fill:#ececec;fill-opacity:1"><path
     d="m 638.88867,498 v -26.37158 h 61.87842 v -186.8418 l -54.81152,39.12647 v -29.30176 l 57.39697,-39.47119 h 28.6123 v 216.48828 h 59.12061 V 498 Z"
     style="fill:#ececec;stroke:none;fill-opacity:1"
     id="path2100" /></g>
</svg>
