<?xml version="1.0" encoding="UTF-8"?>
<!-- Created with Inkscape (http://www.inkscape.org/) -->
<svg width="720" height="720" version="1.1" viewBox="0 0 190.5 190.5" xmlns="http://www.w3.org/2000/svg" xmlns:cc="http://creativecommons.org/ns#" xmlns:dc="http://purl.org/dc/elements/1.1/" xmlns:rdf="http://www.w3.org/1999/02/22-rdf-syntax-ns#">
 <title>Favicon</title>
 <rect transform="rotate(90)" x=".17601" y="-190.32" width="190.15" height="190.15" fill="#333" stroke="#000" stroke-linejoin="round" stroke-miterlimit="10" stroke-width=".35202"/>
 <text x="124.03712" y="88.204178" dominant-baseline="auto" fill="#93e9be" font-family="Exo" stop-color="#000000" stroke-width=".19918" style="-inkscape-stroke:none;font-feature-settings:normal;font-variant-alternates:normal;font-variant-caps:normal;font-variant-east-asian:normal;font-variant-ligatures:normal;font-variant-numeric:normal;font-variant-position:normal;font-variation-settings:normal;inline-size:0;line-height:0.82;shape-margin:0;shape-padding:0;text-decoration-color:#000000;text-decoration-line:none;text-decoration-style:solid;text-indent:0;text-orientation:mixed;text-transform:none;white-space:normal" xml:space="preserve"><tspan dominant-baseline="auto" fill="#93e9be" font-family="Exo" stop-color="#000000" style="-inkscape-stroke:none;font-feature-settings:normal;font-variant-alternates:normal;font-variant-caps:normal;font-variant-east-asian:normal;font-variant-ligatures:normal;font-variant-numeric:normal;font-variant-position:normal;font-variation-settings:normal;inline-size:0;line-height:0.82;shape-margin:0;shape-padding:0;text-decoration-color:#000000;text-decoration-line:none;text-decoration-style:solid;text-indent:0;text-orientation:mixed;text-transform:none;white-space:normal"/></text>
 <g transform="matrix(5.055 0 0 5.055 -537.97 -266.55)" stop-color="#000000" stroke-width=".75282" aria-label="g">
  <path d="m128.24 88.988-3.7641-0.33124 0.63236-4.0351h5.2396q1.0238 0 1.7465-0.15056 0.7227-0.12045 1.1443-0.54202 0.45169-0.42158 0.57214-1.2045l0.36135-2.2886q-0.39146 0.42158-1.1443 0.84315-0.7227 0.39146-1.596 0.66248-0.84315 0.2409-1.6261 0.2409-1.5056 0-2.4391-0.81304-0.90338-0.84315-1.2948-2.138-0.39146-1.325-0.39146-2.7402 0-0.78292 0.15056-1.8971 0.15056-1.1142 0.27101-2.0175 0.33124-2.138 1.1744-3.493 0.84315-1.3852 2.0175-2.138 1.2045-0.75281 2.5596-1.0539 1.3852-0.30112 2.8005-0.30112 2.409 0 4.3663 0.39146 1.9573 0.39146 3.1618 0.81304l-2.68 16.833q-0.27101 1.6562-1.0238 2.8005t-2.1079 1.7766q-1.3551 0.66248-3.3726 0.84315-1.9874 0.18068-4.7578-0.06023zm4.6373-11.473q0.60225 0 1.084-0.27101 0.4818-0.27101 0.78293-0.60225l0.99371-6.1731q-0.30112-0.12045-0.66247-0.15056-0.36135-0.06023-0.69259-0.06023-0.51191 0-1.0539 0.30112-0.51191 0.27101-0.93349 0.93349-0.39146 0.63236-0.60225 1.7465-0.15056 0.93349-0.21078 1.325-0.0602 0.39146-0.0602 0.90338 0 1.0238 0.33124 1.5357 0.36135 0.51191 1.0238 0.51191z" fill="#93e9be" stop-color="#000000"/>
 </g>
 <g stroke-width="3.8054" aria-label="h">
  <path d="m10.338 123.53 18.418-116.14h29.53l-6.6976 42.012q3.9577-3.3488 10.503-6.0887 6.6976-2.7399 15.526-2.7399 9.5897 0 14.765 4.7188 5.3276 4.7188 5.3276 15.983 0 4.5665-0.91331 10.503l-8.2198 51.754h-29.53l7.6109-48.405q0.15222-0.60887 0.15222-1.0655 0-0.60887 0-1.2177 0-3.501-1.8266-4.5665-1.8266-1.2177-4.4143-1.2177-3.8054 0-7.002 1.5222t-5.6321 4.1099l-8.0676 50.841z" fill="#c8a2c8"/>
 </g>
 <metadata>
  <rdf:RDF>
   <cc:Work rdf:about="">
    <dc:title>Favicon</dc:title>
    <dc:creator>
     <cc:Agent>
      <dc:title>Gio Genre De Asis</dc:title>
     </cc:Agent>
    </dc:creator>
   </cc:Work>
  </rdf:RDF>
 </metadata>
</svg>
