<?xml version="1.0" encoding="UTF-8"?>
<svg width="720.8" height="256.9" version="1.0" xmlns="http://www.w3.org/2000/svg">
	<rect x="607.5" y="-3.683e-7" width="113.2" height="256.9" fill="#fff" fill-opacity=".1279" stop-color="#000000" style="paint-order:stroke markers fill"/>
	<g transform="translate(-5.409 -10.85)" fill="none" stroke="#000">
		<path d="m634.3 78.99 45.4-4.885 24.39 23.73-50.59 5.234" stroke-width="1.191px"/>
		<g transform="matrix(1.027 0 0 1.382 3.052 -476.6)" stroke-width="1px">
			<path d="m614.6 402.2.8316 52.61 16.92 16.16 1.01-51.77z"/>
			<path d="m633.1 470.8 48.99-3.536v-51.01"/>
		</g>
	</g>
	<rect x="121.5" y="-3.683e-7" width="113.2" height="256.9" fill="#fff" fill-opacity=".1279" stop-color="#000000" style="paint-order:stroke markers fill"/>
	<g transform="translate(-5.409 -10.85)" fill="none" stroke="#000" stroke-width="1.191px">
		<path d="m171.1 80.73 50.85-5.583"/>
		<path d="m164.9 91.2.5189 69.79"/>
		<path d="m173.2 159.6 49.81-77.47"/>
		<path d="m231.3 84.22v73.98"/>
		<path d="m232.3 60.49-24.91-34.9"/>
		<path d="m201.7 23.85-62.53 8.026"/>
		<path d="m140.5 45.14 22.05 30.01"/>
		<path d="m167.2 72.01 14.27-18.84"/>
		<path d="m181.2 47.58-33.47-9.771"/>
		<path d="m188.2 45.83 14.53-17.1"/>
		<path d="m191.6 50.37 34.77 10.12"/>
		<path d="m135.8 61.89-.2594 80.61"/>
		<path d="m142.6 127.8 17.12-41.18"/>
		<path d="m141.8 171.5 60.71-8.026"/>
		<path d="m208.5 164.1 25.69 36.29"/>
		<path d="m224.3 210.2-52.41 5.932"/>
		<path d="m168 210.5c-.0865 0-.173 0 0 0z"/>
		<path d="m162 214-21.27-30.36"/>
		<path d="m168.8 210.5 13.23-18.84"/>
		<path d="m193.2 189.9 33.72 10.24"/>
		<path d="m189.5 184.7 14.79-17.8"/>
		<path d="m181.7 185.4-32.95-8.375"/>
	</g>
	<text transform="scale(.8623 1.16)" x="187.34174" y="213.48656" fill="#008000" font-family="'DejaVu Sans'" font-size="15px" stroke-width="1px" xml:space="preserve"><tspan x="187.34174" y="213.48656" font-family="'DejaVu Sans'" font-size="15px">edges</tspan></text>
	<rect x="243" y="-3.683e-7" width="113.2" height="256.9" fill="#fff" fill-opacity=".1279" stop-color="#000000" style="paint-order:stroke markers fill"/>
	<g transform="matrix(1.027 0 0 1.382 -43.87 -487.4)" fill="none" stroke="#000" stroke-width="1px">
		<path d="m321.5 496.8 43.69-3.536-31.82-7.829z"/>
		<path d="m337.4 481.4 10.86-9.849 20.2 15.91z"/>
		<path d="m331.3 479.4 10.86-9.344-39.4 3.536z"/>
		<path d="m313.7 495 13.13-12.37-29.8-5.303z"/>
		<path d="m302.5 465.5.2525-51.52-18.18 34.09z"/>
		<path d="m283.3 393 18.44 17.43-18.44 34.6z"/>
		<path d="m315.9 403.3 11.36-11.36 32.07 7.324z"/>
		<path d="m308.6 401.6 11.87-11.62-28.79-4.798z"/>
		<path d="m325.3 386.4 12.12-9.596-40.41 3.536z"/>
		<path d="m331.1 387.9 11.11-9.344 21.97 16.67z"/>
		<path d="m310.9 464.7c-.0842-.0842-.1684-.1684 0 0z"/>
		<path d="m311.1 465.7v-51.01l49.24-4.293z"/>
		<path d="m314.9 467.2 47.98-55.56.2525 52.28z"/>
		<path d="m367.2 442.5 17.43-34.09.2525 49.24z"/>
		<path d="m365.9 436.9 17.93-32.58-17.43-17.43z"/>
	</g>
	<text transform="scale(.8623 1.16)" x="326.40256" y="214.31267" fill="#d52626" font-family="'DejaVu Sans'" font-size="15px" stroke-width="1px" xml:space="preserve"><tspan x="326.40256" y="214.31267" fill="#d52626" font-family="'DejaVu Sans'" font-size="15px">faces</tspan></text>
	<rect x="364.5" y="-3.683e-7" width="113.2" height="256.9" fill="#fff" fill-opacity=".1279" stop-color="#000000" style="paint-order:stroke markers fill"/>
	<text transform="scale(.8623 1.16)" x="462.69653" y="214.31267" fill="#34d1d1" font-family="'DejaVu Sans'" font-size="15px" stroke-width="1px" xml:space="preserve"><tspan x="462.69653" y="214.31267" font-family="'DejaVu Sans'" font-size="15px">polygons</tspan></text>
	<g transform="translate(-5.409 -10.85)">
		<path d="m429.8 175.6-19.04 25.62" fill="#808080" fill-rule="evenodd" opacity=".7407" stroke="#110f0f" stroke-width=".2383"/>
		<path d="m428.4 61.1-24.75 27.99" fill="#808080" fill-rule="evenodd" opacity=".7407" stroke="#110f0f" stroke-width=".2383"/>
		<g fill="none" stroke="#000" stroke-width="1.191px">
			<path d="m407 173.2-14.79 2.443 18.68 25.47 49.81-7.328-21.27-19.19"/>
			<path d="m407.2 178.1.2594-71.54 50.85-5.932-.5189 72.23z"/>
			<path d="m400.5 172.2v-72.58l-17.9-23.38-.5189 73.28z"/>
			<path d="m403.6 89.8 49.55-5.932-24.65-23.03-45.14 3.838z"/>
			<path d="m458.6 151.2 12.45 17.45.7783-71.88-18.16-23.38-.2594 27.92"/>
		</g>
		<g fill="#808080" fill-rule="evenodd" stroke="#110f0f" stroke-width=".2383">
			<path d="m458.1 101-50.69 76.57" opacity=".7407"/>
			<path d="m400.1 100.6-17.96 48.72" opacity=".7407"/>
			<path d="m453.2 83.06-69.7-18.15" opacity=".7407"/>
			<path d="m460.1 192.7-66.78-16.95" opacity=".7407"/>
			<path d="m471.5 97.48-13.85 29.11" opacity=".6178"/>
		</g>
	</g>
	<rect x="486" y="-3.683e-7" width="113.2" height="256.9" fill="#fff" fill-opacity=".1279" stop-color="#000000" style="paint-order:stroke markers fill"/>
	<text transform="scale(.8623 1.16)" x="601.45264" y="214.31267" fill="#ff06ff" font-family="'DejaVu Sans'" font-size="15px" stroke-width="1px" xml:space="preserve"><tspan x="601.45264" y="214.31267" fill="#ff06ff" font-family="'DejaVu Sans'" font-size="15px">surfaces</tspan></text>
	<g transform="translate(-5.131 -10.85)">
		<g transform="matrix(1.027 0 0 1.382 -10.98 -476.6)" fill="none" stroke="#000" stroke-width="1px">
			<path d="m509.1 403.8-.2525 52.02 18.44 16.92v-51.27z"/>
			<path d="m527.3 421.8 49.75-4.293-.5051 52.02-48.99 3.536z"/>
			<path d="m577 417.7-25.51-17.68-42.17 3.03"/>
			<path d="m551 400.6.2525 18.94"/>
			<path d="m578.6 494.8c.4209.2525.8418.5051 1.263.7576l-47.73 4.293-17.93-18.18 42.17-3.283 23.49 16.92"/>
			<path d="m528.3 387.9-17.17-17.93 41.67-3.03 21.13 16.41z"/>
		</g>
		<g fill="#808080" fill-rule="evenodd" stroke="#110f0f" stroke-width=".2383">
			<path d="m581.5 101.5-50.69 76.57" opacity=".6178"/>
			<path d="m530.9 105.5-19.06 46.74" opacity=".7407"/>
			<path d="m578.2 52.36-63.99-17.46" opacity=".7407"/>
			<path d="m557.1 31.09-24.75 27.99" opacity=".7407"/>
			<path d="m581.3 206.1-63.26-15.98" opacity=".7407"/>
			<path d="m560.2 184.8-24.02 29.96" opacity=".7407"/>
			<path d="m555 77.28-23.91 29.69" opacity=".7407"/>
		</g>
	</g>
	<rect x="1.072e-8" y="-3.683e-7" width="113.2" height="256.9" fill="#fff" fill-opacity=".1279" stop-color="#000000" style="paint-order:stroke markers fill"/>
	<g transform="translate(-5.409 -10.85)" stroke="#000" stroke-width=".7901">
		<path d="m42.99 198.6a1.423 1.791 0 11-2.846 0 1.423 1.791 0 112.846 0z"/>
		<path d="m19.14 160.8a1.423 1.791 0 11-2.846 0 1.423 1.791 0 112.846 0z"/>
		<path d="m62.8 171.9a1.423 1.791 0 11-2.846 0 1.423 1.791 0 112.846 0z"/>
		<path d="m86.1 155.4a1.423 1.791 0 11-2.846 0 1.423 1.791 0 112.846 0z"/>
		<path d="m108.3 193.9a1.423 1.791 0 11-2.846 0 1.423 1.791 0 112.846 0z"/>
		<path d="m38.58 88.05a1.423 1.791 0 11-2.846 0 1.423 1.791 0 112.846 0z"/>
		<path d="m58.76 61.89a1.423 1.791 0 11-2.846 0 1.423 1.791 0 112.846 0z"/>
		<path d="m104.1 84.1a1.423 1.791 0 11-2.846 0 1.423 1.791 0 112.846 0z"/>
		<path d="m81.33 45.85a1.423 1.791 0 11-2.846 0 1.423 1.791 0 112.846 0z"/>
		<path d="m15.29 50.05a1.423 1.791 0 11-2.846 0 1.423 1.791 0 112.846 0z"/>
	</g>
	<text transform="scale(.8623 1.16)" x="36.657734" y="214.31267" fill="#8686d5" font-family="'DejaVu Sans'" font-size="15px" stroke-width="1px" xml:space="preserve"><tspan x="36.657734" y="214.31267" fill="#8686d5" font-family="'DejaVu Sans'" font-size="15px">vertices</tspan></text>
</svg>
