<?xml version="1.0" encoding="UTF-8" standalone="no"?>
<svg
   xmlns:dc="http://purl.org/dc/elements/1.1/"
   xmlns:cc="http://creativecommons.org/ns#"
   xmlns:rdf="http://www.w3.org/1999/02/22-rdf-syntax-ns#"
   xmlns:svg="http://www.w3.org/2000/svg"
   xmlns="http://www.w3.org/2000/svg"
   version="1.0"
   id="svg5212"
   height="271"
   width="720">
  <defs
     id="defs5214" />
  <metadata
     id="metadata5217">
    <rdf:RDF>
      <cc:Work
         rdf:about="">
        <dc:format>image/svg+xml</dc:format>
        <dc:type
           rdf:resource="http://purl.org/dc/dcmitype/StillImage" />
        <dc:title></dc:title>
      </cc:Work>
    </rdf:RDF>
  </metadata>
  <g
     id="layer1">
    <path
       id="path3813"
       d="M 466.10943,175.64462 L 447.07034,201.26463"
       style="opacity:0.74074073;fill:#808080;fill-rule:evenodd;stroke:#110f0f;stroke-width:0.23829247;stroke-linecap:butt;stroke-linejoin:miter;stroke-miterlimit:4;stroke-dasharray:none;stroke-opacity:1" />
    <path
       style="opacity:0.74074073;fill:#808080;fill-rule:evenodd;stroke:#110f0f;stroke-width:0.23829247;stroke-linecap:butt;stroke-linejoin:miter;stroke-miterlimit:4;stroke-dasharray:none;stroke-opacity:1"
       d="M 464.72428,61.10341 L 439.97335,89.09156"
       id="path3809" />
    <path
       transform="matrix(0.7043699,0,0,0.8863127,15.429598,-235.44194)"
       d="M 52.022857,489.70721 A 2.0203052,2.0203052 0 1 1 47.982247,489.70721 A 2.0203052,2.0203052 0 1 1 52.022857,489.70721 z"
       id="path2580"
       style="fill:#000000;fill-opacity:1;stroke:#000000;stroke-opacity:1" />
    <path
       style="fill:#000000;fill-opacity:1;stroke:#000000;stroke-opacity:1"
       id="path2584"
       d="M 52.022857,489.70721 A 2.0203052,2.0203052 0 1 1 47.982247,489.70721 A 2.0203052,2.0203052 0 1 1 52.022857,489.70721 z"
       transform="matrix(0.7043699,0,0,0.8863127,-8.4196104,-273.1944)" />
    <path
       transform="matrix(0.7043699,0,0,0.8863127,35.242785,-262.09075)"
       d="M 52.022857,489.70721 A 2.0203052,2.0203052 0 1 1 47.982247,489.70721 A 2.0203052,2.0203052 0 1 1 52.022857,489.70721 z"
       id="path2586"
       style="fill:#000000;fill-opacity:1;stroke:#000000;stroke-opacity:1" />
    <path
       style="fill:#000000;fill-opacity:1;stroke:#000000;stroke-opacity:1"
       id="path2588"
       d="M 52.022857,489.70721 A 2.0203052,2.0203052 0 1 1 47.982247,489.70721 A 2.0203052,2.0203052 0 1 1 52.022857,489.70721 z"
       transform="matrix(0.7043699,0,0,0.8863127,58.541627,-278.62289)" />
    <path
       transform="matrix(0.7043699,0,0,0.8863127,80.739734,-240.13017)"
       d="M 52.022857,489.70721 A 2.0203052,2.0203052 0 1 1 47.982247,489.70721 A 2.0203052,2.0203052 0 1 1 52.022857,489.70721 z"
       id="path2590"
       style="fill:#000000;fill-opacity:1;stroke:#000000;stroke-opacity:1" />
    <path
       transform="matrix(0.7043699,0,0,0.8863127,11.026671,-345.98514)"
       d="M 52.022857,489.70721 A 2.0203052,2.0203052 0 1 1 47.982247,489.70721 A 2.0203052,2.0203052 0 1 1 52.022857,489.70721 z"
       id="path2592"
       style="fill:#000000;fill-opacity:1;stroke:#000000;stroke-opacity:1" />
    <path
       style="fill:#000000;fill-opacity:1;stroke:#000000;stroke-opacity:1"
       id="path2594"
       d="M 52.022857,489.70721 A 2.0203052,2.0203052 0 1 1 47.982247,489.70721 A 2.0203052,2.0203052 0 1 1 52.022857,489.70721 z"
       transform="matrix(0.7043699,0,0,0.8863127,31.20677,-372.14045)" />
    <path
       transform="matrix(0.7043699,0,0,0.8863127,76.520258,-349.93312)"
       d="M 52.022857,489.70721 A 2.0203052,2.0203052 0 1 1 47.982247,489.70721 A 2.0203052,2.0203052 0 1 1 52.022857,489.70721 z"
       id="path2596"
       style="fill:#000000;fill-opacity:1;stroke:#000000;stroke-opacity:1" />
    <path
       transform="matrix(0.7043699,0,0,0.8863127,53.771787,-388.17909)"
       d="M 52.022857,489.70721 A 2.0203052,2.0203052 0 1 1 47.982247,489.70721 A 2.0203052,2.0203052 0 1 1 52.022857,489.70721 z"
       id="path2598"
       style="fill:#000000;fill-opacity:1;stroke:#000000;stroke-opacity:1" />
    <path
       transform="matrix(0.7043699,0,0,0.8863127,-12.272176,-383.98436)"
       d="M 52.022857,489.70721 A 2.0203052,2.0203052 0 1 1 47.982247,489.70721 A 2.0203052,2.0203052 0 1 1 52.022857,489.70721 z"
       id="path2600"
       style="fill:#000000;fill-opacity:1;stroke:#000000;stroke-opacity:1" />
    <g
       transform="matrix(1.0273505,0,0,1.3817898,-7.8162233e-2,-476.60014)"
       id="g2802">
      <path
         style="fill:none;fill-rule:evenodd;stroke:#000000;stroke-width:1px;stroke-linecap:butt;stroke-linejoin:miter;stroke-opacity:1"
         d="M 188.39345,403.33917 L 237.89092,399.29856"
         id="path2602" />
      <path
         style="fill:none;fill-rule:evenodd;stroke:#000000;stroke-width:1px;stroke-linecap:butt;stroke-linejoin:miter;stroke-opacity:1"
         d="M 182.33253,410.91532 L 182.83761,461.42294"
         id="path2604" />
      <path
         style="fill:none;fill-rule:evenodd;stroke:#000000;stroke-width:1px;stroke-linecap:butt;stroke-linejoin:miter;stroke-opacity:1"
         d="M 190.41375,460.41279 L 238.90108,404.34932"
         id="path2606" />
      <path
         style="fill:none;fill-rule:evenodd;stroke:#000000;stroke-width:1px;stroke-linecap:butt;stroke-linejoin:miter;stroke-opacity:1"
         d="M 246.9823,405.86455 L 246.9823,459.40264"
         id="path2608" />
      <path
         style="fill:none;fill-rule:evenodd;stroke:#000000;stroke-width:1px;stroke-linecap:butt;stroke-linejoin:miter;stroke-opacity:1"
         d="M 247.99245,388.69196 L 223.74879,363.43815"
         id="path2610" />
      <path
         style="fill:none;fill-rule:evenodd;stroke:#000000;stroke-width:1px;stroke-linecap:butt;stroke-linejoin:miter;stroke-opacity:1"
         d="M 218.19295,362.17546 L 157.33126,367.98383"
         id="path2614" />
      <path
         style="fill:none;fill-rule:evenodd;stroke:#000000;stroke-width:1px;stroke-linecap:butt;stroke-linejoin:miter;stroke-opacity:1"
         d="M 158.59395,377.58028 L 180.05969,399.29856"
         id="path2616" />
      <path
         style="fill:none;fill-rule:evenodd;stroke:#000000;stroke-width:1px;stroke-linecap:butt;stroke-linejoin:miter;stroke-opacity:1"
         d="M 184.60538,397.02572 L 198.49498,383.38866"
         id="path2618" />
      <path
         style="fill:none;fill-rule:evenodd;stroke:#000000;stroke-width:1px;stroke-linecap:butt;stroke-linejoin:miter;stroke-opacity:1"
         d="M 198.24244,379.34805 L 165.66502,372.27698"
         id="path2620" />
      <path
         style="fill:none;fill-rule:evenodd;stroke:#000000;stroke-width:1px;stroke-linecap:butt;stroke-linejoin:miter;stroke-opacity:1"
         d="M 205.06097,378.08536 L 219.2031,365.71099"
         id="path2622" />
      <path
         style="fill:none;fill-rule:evenodd;stroke:#000000;stroke-width:1px;stroke-linecap:butt;stroke-linejoin:miter;stroke-opacity:1"
         d="M 208.34396,381.36835 L 242.18407,388.69196"
         id="path2624" />
      <path
         style="fill:none;fill-rule:evenodd;stroke:#000000;stroke-width:1px;stroke-linecap:butt;stroke-linejoin:miter;stroke-opacity:1"
         d="M 154.04826,389.70211 L 153.79573,448.03842"
         id="path2626" />
      <path
         style="fill:none;fill-rule:evenodd;stroke:#000000;stroke-width:1px;stroke-linecap:butt;stroke-linejoin:miter;stroke-opacity:1"
         d="M 160.61425,437.43182 L 177.28177,407.63232"
         id="path2628" />
      <path
         style="fill:none;fill-rule:evenodd;stroke:#000000;stroke-width:1px;stroke-linecap:butt;stroke-linejoin:miter;stroke-opacity:1"
         d="M 159.85664,468.99909 L 218.95056,463.19071"
         id="path2630" />
      <path
         style="fill:none;fill-rule:evenodd;stroke:#000000;stroke-width:1px;stroke-linecap:butt;stroke-linejoin:miter;stroke-opacity:1"
         d="M 224.75894,463.69579 L 249.76022,489.95975"
         id="path2632" />
      <path
         style="fill:none;fill-rule:evenodd;stroke:#000000;stroke-width:1px;stroke-linecap:butt;stroke-linejoin:miter;stroke-opacity:1"
         d="M 240.16377,497.03082 L 189.15106,501.32397"
         id="path2634" />
      <path
         style="fill:none;fill-rule:evenodd;stroke:#000000;stroke-width:1px;stroke-linecap:butt;stroke-linejoin:miter;stroke-opacity:1"
         d="M 185.36299,497.28336 C 185.27881,497.28336 185.19463,497.28336 185.36299,497.28336 z"
         id="path2636" />
      <path
         style="fill:none;fill-rule:evenodd;stroke:#000000;stroke-width:1px;stroke-linecap:butt;stroke-linejoin:miter;stroke-opacity:1"
         d="M 179.55462,499.80874 L 158.84649,477.83792"
         id="path2638" />
      <path
         style="fill:none;fill-rule:evenodd;stroke:#000000;stroke-width:1px;stroke-linecap:butt;stroke-linejoin:miter;stroke-opacity:1"
         d="M 186.12061,497.28336 L 199.00005,483.6463"
         id="path2640" />
      <path
         style="fill:none;fill-rule:evenodd;stroke:#000000;stroke-width:1px;stroke-linecap:butt;stroke-linejoin:miter;stroke-opacity:1"
         d="M 209.86261,482.3401 L 242.68572,489.75071"
         id="path2642" />
      <path
         style="fill:none;fill-rule:evenodd;stroke:#000000;stroke-width:1px;stroke-linecap:butt;stroke-linejoin:miter;stroke-opacity:1"
         d="M 206.32366,478.59554 L 220.71833,465.71609"
         id="path2644" />
      <path
         style="fill:none;fill-rule:evenodd;stroke:#000000;stroke-width:1px;stroke-linecap:butt;stroke-linejoin:miter;stroke-opacity:1"
         d="M 198.74751,479.10061 L 166.67517,473.0397"
         id="path2646" />
    </g>
    <g
       transform="matrix(1.0273505,0,0,1.3817898,-7.8162233e-2,-476.60014)"
       id="g2766">
      <path
         style="fill:none;fill-rule:evenodd;stroke:#000000;stroke-width:1px;stroke-linecap:butt;stroke-linejoin:miter;stroke-opacity:1"
         d="M 321.48105,496.77828 L 365.17014,493.24275 L 333.35034,485.41407 L 321.48105,496.77828 z"
         id="path2648" />
      <path
         style="fill:none;fill-rule:evenodd;stroke:#000000;stroke-width:1px;stroke-linecap:butt;stroke-linejoin:miter;stroke-opacity:1"
         d="M 337.39095,481.37346 L 348.25009,471.52447 L 368.45314,487.43437 L 337.39095,481.37346 z"
         id="path2650" />
      <path
         style="fill:none;fill-rule:evenodd;stroke:#000000;stroke-width:1px;stroke-linecap:butt;stroke-linejoin:miter;stroke-opacity:1"
         d="M 331.33004,479.35315 L 342.18918,470.00924 L 302.79322,473.54477 L 331.33004,479.35315 z"
         id="path2652" />
      <path
         style="fill:none;fill-rule:evenodd;stroke:#000000;stroke-width:1px;stroke-linecap:butt;stroke-linejoin:miter;stroke-opacity:1"
         d="M 313.65237,495.01052 L 326.78434,482.63615 L 296.98485,477.33285 L 313.65237,495.01052 z"
         id="path2654" />
      <path
         style="fill:none;fill-rule:evenodd;stroke:#000000;stroke-width:1px;stroke-linecap:butt;stroke-linejoin:miter;stroke-opacity:1"
         d="M 302.54069,465.46355 L 302.79323,413.94577 L 284.61048,448.03842 L 302.54069,465.46355 z"
         id="path2656" />
      <path
         style="fill:none;fill-rule:evenodd;stroke:#000000;stroke-width:1px;stroke-linecap:butt;stroke-linejoin:miter;stroke-opacity:1"
         d="M 283.34779,392.98511 L 301.78307,410.41024 L 283.34779,445.00796 L 283.34779,392.98511 z"
         id="path2658" />
      <path
         style="fill:none;fill-rule:evenodd;stroke:#000000;stroke-width:1px;stroke-linecap:butt;stroke-linejoin:miter;stroke-opacity:1"
         d="M 315.92521,403.33917 L 327.28943,391.97496 L 359.36177,399.29856 L 315.92521,403.33917 z"
         id="path2660" />
      <path
         style="fill:none;fill-rule:evenodd;stroke:#000000;stroke-width:1px;stroke-linecap:butt;stroke-linejoin:miter;stroke-opacity:1"
         d="M 308.6016,401.5714 L 320.4709,389.95465 L 291.68155,385.15643 L 308.6016,401.5714 z"
         id="path2662" />
      <path
         style="fill:none;fill-rule:evenodd;stroke:#000000;stroke-width:1px;stroke-linecap:butt;stroke-linejoin:miter;stroke-opacity:1"
         d="M 325.26912,386.41912 L 337.39095,376.82267 L 296.98484,380.3582 L 325.26912,386.41912 z"
         id="path2664" />
      <path
         style="fill:none;fill-rule:evenodd;stroke:#000000;stroke-width:1px;stroke-linecap:butt;stroke-linejoin:miter;stroke-opacity:1"
         d="M 331.0775,387.93435 L 342.18918,378.59043 L 364.15999,395.25795 L 331.0775,387.93435 z"
         id="path2666" />
      <path
         style="fill:none;fill-rule:evenodd;stroke:#000000;stroke-width:1px;stroke-linecap:butt;stroke-linejoin:miter;stroke-opacity:1"
         d="M 310.87445,464.70594 C 310.79027,464.62176 310.70609,464.53758 310.87445,464.70594 z"
         id="path2668" />
      <path
         style="fill:none;fill-rule:evenodd;stroke:#000000;stroke-width:1px;stroke-linecap:butt;stroke-linejoin:miter;stroke-opacity:1"
         d="M 311.12698,465.71609 L 311.12698,414.70339 L 360.37192,410.41024 L 311.12698,465.71609 z"
         id="path2670" />
      <path
         style="fill:none;fill-rule:evenodd;stroke:#000000;stroke-width:1px;stroke-linecap:butt;stroke-linejoin:miter;stroke-opacity:1"
         d="M 314.91506,467.23132 L 362.8973,411.67293 L 363.14984,463.94832 L 314.91506,467.23132 z"
         id="path2672" />
      <path
         style="fill:none;fill-rule:evenodd;stroke:#000000;stroke-width:1px;stroke-linecap:butt;stroke-linejoin:miter;stroke-opacity:1"
         d="M 367.19045,442.48258 L 384.61558,408.38993 L 384.86812,457.63487 L 367.19045,442.48258 z"
         id="path2674" />
      <path
         style="fill:none;fill-rule:evenodd;stroke:#000000;stroke-width:1px;stroke-linecap:butt;stroke-linejoin:miter;stroke-opacity:1"
         d="M 365.92776,436.92674 L 383.85797,404.34932 L 366.43284,386.92419 L 365.92776,436.92674 z"
         id="path2676" />
    </g>
    <path
       id="path2678"
       d="M 443.31367,173.20282 L 428.52528,175.6455 L 447.20534,201.11919 L 497.01881,193.79116 L 475.7443,174.59864"
       style="fill:none;fill-rule:evenodd;stroke:#000000;stroke-width:1.1914624px;stroke-linecap:butt;stroke-linejoin:miter;stroke-opacity:1" />
    <path
       id="path2682"
       d="M 443.57311,178.08818 L 443.83255,106.55247 L 494.6838,100.62028 L 494.16492,172.85386 L 443.57311,178.08818 z"
       style="fill:none;fill-rule:evenodd;stroke:#000000;stroke-width:1.1914624px;stroke-linecap:butt;stroke-linejoin:miter;stroke-opacity:1" />
    <path
       id="path2684"
       d="M 436.82753,172.15596 L 436.82753,99.573377 L 418.92582,76.19343 L 418.40692,149.4739 L 436.82753,172.15596 z"
       style="fill:none;fill-rule:evenodd;stroke:#000000;stroke-width:1.1914624px;stroke-linecap:butt;stroke-linejoin:miter;stroke-opacity:1" />
    <path
       id="path2686"
       d="M 439.94087,89.80266 L 489.49491,83.87044 L 464.84762,60.83942 L 419.70416,64.67792 L 439.94087,89.80266 z"
       style="fill:none;fill-rule:evenodd;stroke:#000000;stroke-width:1.1914624px;stroke-linecap:butt;stroke-linejoin:miter;stroke-opacity:1" />
    <path
       id="path2688"
       d="M 494.94325,151.21869 L 507.39663,168.66641 L 508.17496,96.781747 L 490.0138,73.40179 L 489.75435,101.31816"
       style="fill:none;fill-rule:evenodd;stroke:#000000;stroke-width:1.1914624px;stroke-linecap:butt;stroke-linejoin:miter;stroke-opacity:1" />
    <g
       transform="matrix(1.0273505,0,0,1.3817898,-7.8162233e-2,-476.60014)"
       id="g2790">
      <path
         style="fill:none;fill-rule:evenodd;stroke:#000000;stroke-width:1px;stroke-linecap:butt;stroke-linejoin:miter;stroke-opacity:1"
         d="M 509.11688,403.84424 L 508.86435,455.8671 L 527.29963,472.78716 L 527.29963,421.52191 L 509.11688,403.84424 z"
         id="path2690" />
      <path
         style="fill:none;fill-rule:evenodd;stroke:#000000;stroke-width:1px;stroke-linecap:butt;stroke-linejoin:miter;stroke-opacity:1"
         d="M 527.29963,421.77446 L 577.04964,417.48131 L 576.54457,469.50416 L 527.55217,473.0397 L 527.29963,421.77446 z"
         id="path2694" />
      <path
         style="fill:none;fill-rule:evenodd;stroke:#000000;stroke-width:1px;stroke-linecap:butt;stroke-linejoin:miter;stroke-opacity:1"
         d="M 577.04964,417.73385 L 551.54329,400.05618 L 509.36942,403.08663"
         id="path2696" />
      <path
         style="fill:none;fill-rule:evenodd;stroke:#000000;stroke-width:1px;stroke-linecap:butt;stroke-linejoin:miter;stroke-opacity:1"
         d="M 551.03822,400.56125 L 551.29075,419.50161"
         id="path2698" />
      <path
         style="fill:none;fill-rule:evenodd;stroke:#000000;stroke-width:1px;stroke-linecap:butt;stroke-linejoin:miter;stroke-opacity:1"
         d="M 578.56487,494.75798 C 578.98577,495.01051 579.40666,495.26305 579.82756,495.51559 L 532.09785,499.80874 L 514.16765,481.62599 L 556.34151,478.343 L 579.82756,495.26305"
         id="path2700" />
      <path
         style="fill:none;fill-rule:evenodd;stroke:#000000;stroke-width:1px;stroke-linecap:butt;stroke-linejoin:miter;stroke-opacity:1"
         d="M 528.30978,387.93435 L 511.13719,370.00414 L 552.80598,366.97368 L 573.93996,383.38866 L 528.30978,387.93435 z"
         id="path2702" />
    </g>
    <path
       id="path2706"
       d="M 631.15199,78.98505 L 676.55489,74.09972 L 700.94274,97.828627 L 650.35092,103.06294"
       style="fill:none;fill-rule:evenodd;stroke:#000000;stroke-width:1.1914624px;stroke-linecap:butt;stroke-linejoin:miter;stroke-opacity:1" />
    <g
       transform="matrix(1.0273505,0,0,1.3817898,-7.8162233e-2,-476.60014)"
       id="g2798">
      <path
         style="fill:none;fill-rule:evenodd;stroke:#000000;stroke-width:1px;stroke-linecap:butt;stroke-linejoin:miter;stroke-opacity:1"
         d="M 614.60386,402.24236 L 615.43544,454.85695 L 632.35549,471.01939 L 633.36564,419.24908 L 614.60386,402.24236 z"
         id="path2704" />
      <path
         style="fill:none;fill-rule:evenodd;stroke:#000000;stroke-width:1px;stroke-linecap:butt;stroke-linejoin:miter;stroke-opacity:1"
         d="M 633.11311,470.76685 L 682.10551,467.23132 L 682.10551,416.21862"
         id="path2708" />
    </g>
    <text
       transform="scale(0.8622601,1.1597428)"
       id="text2838"
       y="222.83949"
       x="219.55879"
       style="font-size:15.00000043px;font-style:normal;font-weight:normal;fill:#008000;fill-opacity:1;stroke:none;stroke-width:1px;stroke-linecap:butt;stroke-linejoin:miter;stroke-opacity:1;font-family:'DejaVu Sans';-inkscape-font-specification:'DejaVu Sans';font-stretch:normal;font-variant:normal;"
       xml:space="preserve"><tspan
         style="font-style:normal;font-variant:normal;font-weight:normal;font-stretch:normal;font-family:'DejaVu Sans';-inkscape-font-specification:'DejaVu Sans';font-size:15.00000043px;"
         y="222.83949"
         x="219.55879"
         id="tspan2840">edges</tspan></text>
    <text
       transform="scale(0.8622601,1.1597428)"
       xml:space="preserve"
       style="font-size:15.00000043px;font-style:normal;font-variant:normal;font-weight:normal;font-stretch:normal;fill:#000080;fill-opacity:1;stroke:none;stroke-width:1px;stroke-linecap:butt;stroke-linejoin:miter;stroke-opacity:1;font-family:'DejaVu Sans';-inkscape-font-specification:'DejaVu Sans';"
       x="53.467724"
       y="223.6656"
       id="text2842"><tspan
         style="-inkscape-font-specification:'DejaVu Sans';font-family:'DejaVu Sans';font-weight:normal;font-style:normal;font-stretch:normal;font-variant:normal;font-size:15.00000043px;"
         id="tspan2844"
         x="53.467724"
         y="223.6656">vertices</tspan></text>
    <text
       transform="scale(0.8622601,1.1597428)"
       id="text2850"
       y="223.6656"
       x="377.18787"
       style="font-size:15.00000043px;font-style:normal;font-weight:normal;fill:#b50303;fill-opacity:1;stroke:none;stroke-width:1px;stroke-linecap:butt;stroke-linejoin:miter;stroke-opacity:1;font-family:'DejaVu Sans';-inkscape-font-specification:'DejaVu Sans';font-stretch:normal;font-variant:normal;"
       xml:space="preserve"><tspan
         style="font-style:normal;font-variant:normal;font-weight:normal;font-stretch:normal;font-family:'DejaVu Sans';-inkscape-font-specification:'DejaVu Sans';font-size:15.00000043px;"
         y="223.6656"
         x="377.18787"
         id="tspan2852">faces</tspan></text>
    <text
       transform="scale(0.8622601,1.1597428)"
       xml:space="preserve"
       style="font-size:15.00000043px;font-style:normal;font-weight:normal;fill:#34d1d1;fill-opacity:1;stroke:none;stroke-width:1px;stroke-linecap:butt;stroke-linejoin:miter;stroke-opacity:1;font-family:'DejaVu Sans';-inkscape-font-specification:'DejaVu Sans';font-stretch:normal;font-variant:normal;"
       x="511.10815"
       y="223.6656"
       id="text2854"><tspan
         style="font-style:normal;font-variant:normal;font-weight:normal;font-stretch:normal;font-family:'DejaVu Sans';-inkscape-font-specification:'DejaVu Sans';font-size:15.00000043px;"
         id="tspan2856"
         x="511.10815"
         y="223.6656">polygons</tspan></text>
    <text
       transform="scale(0.8622601,1.1597428)"
       id="text2858"
       y="223.6656"
       x="620.36517"
       style="font-size:15.00000043px;font-style:normal;font-weight:normal;fill:#800080;fill-opacity:1;stroke:none;stroke-width:1px;stroke-linecap:butt;stroke-linejoin:miter;stroke-opacity:1;font-family:'DejaVu Sans';-inkscape-font-specification:'DejaVu Sans';font-stretch:normal;font-variant:normal;"
       xml:space="preserve"><tspan
         style="font-style:normal;font-variant:normal;font-weight:normal;font-stretch:normal;font-family:'DejaVu Sans';-inkscape-font-specification:'DejaVu Sans';font-size:15.00000043px;"
         y="223.6656"
         x="620.36517"
         id="tspan2860">surfaces</tspan></text>
    <path
       style="opacity:0.74074073;fill:#808080;fill-rule:evenodd;stroke:#110f0f;stroke-width:0.23829247;stroke-linecap:butt;stroke-linejoin:miter;stroke-miterlimit:4;stroke-dasharray:none;stroke-opacity:1"
       d="M 494.38895,100.96832 L 443.69755,177.53572"
       id="path3803" />
    <path
       id="path3807"
       d="M 436.47213,100.58313 L 418.50906,149.29813"
       style="opacity:0.74074073;fill:#808080;fill-rule:evenodd;stroke:#110f0f;stroke-width:0.23829247;stroke-linecap:butt;stroke-linejoin:miter;stroke-miterlimit:4;stroke-dasharray:none;stroke-opacity:1" />
    <path
       id="path3811"
       d="M 489.49077,83.064 L 419.79325,64.91024"
       style="opacity:0.74074073;fill:#808080;fill-rule:evenodd;stroke:#110f0f;stroke-width:0.23829247;stroke-linecap:butt;stroke-linejoin:miter;stroke-miterlimit:4;stroke-dasharray:none;stroke-opacity:1" />
    <path
       style="opacity:0.74074073;fill:#808080;fill-rule:evenodd;stroke:#110f0f;stroke-width:0.23829247;stroke-linecap:butt;stroke-linejoin:miter;stroke-miterlimit:4;stroke-dasharray:none;stroke-opacity:1"
       d="M 496.46451,192.74338 L 429.68752,175.79094"
       id="path3815" />
    <path
       id="path3817"
       d="M 507.88009,97.478787 L 494.02993,126.58833"
       style="opacity:0.61777775;fill:#808080;fill-rule:evenodd;stroke:#110f0f;stroke-width:0.23829247;stroke-linecap:butt;stroke-linejoin:miter;stroke-miterlimit:4;stroke-dasharray:none;stroke-opacity:1" />
    <path
       id="path3819"
       d="M 592.35416,101.46182 L 541.66276,178.02921"
       style="opacity:0.61777775;fill:#808080;fill-rule:evenodd;stroke:#110f0f;stroke-width:0.23829247;stroke-linecap:butt;stroke-linejoin:miter;stroke-miterlimit:4;stroke-dasharray:none;stroke-opacity:1" />
    <path
       style="opacity:0.74074073;fill:#808080;fill-rule:evenodd;stroke:#110f0f;stroke-width:0.23829247;stroke-linecap:butt;stroke-linejoin:miter;stroke-miterlimit:4;stroke-dasharray:none;stroke-opacity:1"
       d="M 541.77556,105.51809 L 522.71176,152.2591"
       id="path3821" />
    <path
       style="opacity:0.74074073;fill:#808080;fill-rule:evenodd;stroke:#110f0f;stroke-width:0.23829247;stroke-linecap:butt;stroke-linejoin:miter;stroke-miterlimit:4;stroke-dasharray:none;stroke-opacity:1"
       d="M 589.11772,52.35598 L 525.128,34.900127"
       id="path3827" />
    <path
       id="path3829"
       d="M 567.98347,31.093297 L 543.23254,59.08148"
       style="opacity:0.74074073;fill:#808080;fill-rule:evenodd;stroke:#110f0f;stroke-width:0.23829247;stroke-linecap:butt;stroke-linejoin:miter;stroke-miterlimit:4;stroke-dasharray:none;stroke-opacity:1" />
    <path
       id="path3831"
       d="M 592.23646,206.0801 L 528.98056,190.10475"
       style="opacity:0.74074073;fill:#808080;fill-rule:evenodd;stroke:#110f0f;stroke-width:0.23829247;stroke-linecap:butt;stroke-linejoin:miter;stroke-miterlimit:4;stroke-dasharray:none;stroke-opacity:1" />
    <path
       style="opacity:0.74074073;fill:#808080;fill-rule:evenodd;stroke:#110f0f;stroke-width:0.23829247;stroke-linecap:butt;stroke-linejoin:miter;stroke-miterlimit:4;stroke-dasharray:none;stroke-opacity:1"
       d="M 571.1022,184.81743 L 547.0851,214.77956"
       id="path3833" />
    <path
       style="opacity:0.74074073;fill:#808080;fill-rule:evenodd;stroke:#110f0f;stroke-width:0.23829247;stroke-linecap:butt;stroke-linejoin:miter;stroke-miterlimit:4;stroke-dasharray:none;stroke-opacity:1"
       d="M 565.93656,77.28051 L 542.02968,106.96573"
       id="path3835" />
  </g>
</svg>
