<?xml version="1.0" encoding="UTF-8" standalone="no"?>
<svg
   xmlns:dc="http://purl.org/dc/elements/1.1/"
   xmlns:cc="http://creativecommons.org/ns#"
   xmlns:rdf="http://www.w3.org/1999/02/22-rdf-syntax-ns#"
   xmlns:svg="http://www.w3.org/2000/svg"
   xmlns="http://www.w3.org/2000/svg"
   xmlns:sodipodi="http://sodipodi.sourceforge.net/DTD/sodipodi-0.dtd"
   xmlns:inkscape="http://www.inkscape.org/namespaces/inkscape"
   width="160mm"
   height="90mm"
   viewBox="0 0 16000 9000"
   version="1.1"
   stroke-width="28.222"
   stroke-linejoin="round"
   xml:space="preserve"
   id="svg178"
   sodipodi:docname="add_remove_big.svg"
   inkscape:version="1.0.2 (e86c870879, 2021-01-15)"><metadata
   id="metadata184"><rdf:RDF><cc:Work
       rdf:about=""><dc:format>image/svg+xml</dc:format><dc:type
         rdf:resource="http://purl.org/dc/dcmitype/StillImage" /></cc:Work></rdf:RDF></metadata><defs
   id="defs182" /><sodipodi:namedview
   pagecolor="#ffffff"
   bordercolor="#666666"
   borderopacity="1"
   objecttolerance="10"
   gridtolerance="10"
   guidetolerance="10"
   inkscape:pageopacity="0"
   inkscape:pageshadow="2"
   inkscape:window-width="1440"
   inkscape:window-height="900"
   id="namedview180"
   showgrid="false"
   inkscape:zoom="2.8479053"
   inkscape:cx="212.58899"
   inkscape:cy="377.04108"
   inkscape:window-x="0"
   inkscape:window-y="0"
   inkscape:window-maximized="1"
   inkscape:current-layer="svg178" />
 
 
 <path
   fill="rgb(0,69,134)"
   stroke="none"
   d="M 12899,8177 L 14767,8177 14767,3133 12899,3133 12899,8177 Z"
   id="path66"
   style="fill:#474747;fill-opacity:1" /><path
   fill="rgb(0,69,134)"
   stroke="none"
   d="M 9162,8177 L 11031,8177 11031,1595 9162,1595 9162,8177 Z"
   id="path68"
   style="fill:#474747;fill-opacity:1" /><path
   fill="rgb(0,69,134)"
   stroke="none"
   d="M 5426,8177 L 7295,8177 7295,5968 5426,5968 5426,8177 Z"
   id="path70"
   style="fill:#4a96dc;fill-opacity:1" /><path
   fill="rgb(0,69,134)"
   stroke="none"
   d="M 1690,8177 L 3558,8177 3558,7135 1690,7135 1690,8177 Z"
   id="path72"
   style="fill:#4a96dc;fill-opacity:1" /><path
   fill="none"
   stroke="rgb(179,179,179)"
   stroke-linejoin="round"
   d="M 756,8327 L 756,8177"
   id="path6"
   style="stroke:#ececec;stroke-opacity:1" />
 <path
   fill="none"
   stroke="rgb(179,179,179)"
   stroke-linejoin="round"
   d="M 756,8327 L 756,8177"
   id="path8"
   style="stroke:#ececec;stroke-opacity:1" />
 <path
   fill="none"
   stroke="rgb(179,179,179)"
   stroke-linejoin="round"
   d="M 4492,8327 L 4492,8177"
   id="path10"
   style="stroke:#ececec;stroke-opacity:1" />
 <path
   fill="none"
   stroke="rgb(179,179,179)"
   stroke-linejoin="round"
   d="M 4492,8327 L 4492,8177"
   id="path12"
   style="stroke:#ececec;stroke-opacity:1" />
 <path
   fill="none"
   stroke="rgb(179,179,179)"
   stroke-linejoin="round"
   d="M 8228,8327 L 8228,8177"
   id="path14"
   style="stroke:#ececec;stroke-opacity:1" />
 <path
   fill="none"
   stroke="rgb(179,179,179)"
   stroke-linejoin="round"
   d="M 8228,8327 L 8228,8177"
   id="path16"
   style="stroke:#ececec;stroke-opacity:1" />
 <path
   fill="none"
   stroke="rgb(179,179,179)"
   stroke-linejoin="round"
   d="M 11965,8327 L 11965,8177"
   id="path18"
   style="stroke:#ececec;stroke-opacity:1" />
 <path
   fill="none"
   stroke="rgb(179,179,179)"
   stroke-linejoin="round"
   d="M 11965,8327 L 11965,8177"
   id="path20"
   style="stroke:#ececec;stroke-opacity:1" />
 <path
   fill="none"
   stroke="rgb(179,179,179)"
   stroke-linejoin="round"
   d="M 15702,8327 L 15702,8177"
   id="path22"
   style="stroke:#ececec;stroke-opacity:1" />
 <path
   fill="none"
   stroke="rgb(179,179,179)"
   stroke-linejoin="round"
   d="M 15702,8327 L 15702,8177"
   id="path24"
   style="stroke:#ececec;stroke-opacity:1" />
 <path
   fill="none"
   stroke="rgb(179,179,179)"
   stroke-linejoin="round"
   d="M 756,8177 L 15702,8177"
   id="path26"
   style="stroke:#ececec;stroke-opacity:1" />
 <path
   fill="none"
   stroke="rgb(179,179,179)"
   stroke-linejoin="round"
   d="M 606,8177 L 756,8177"
   id="path28"
   style="stroke:#ececec;stroke-opacity:1" />
 <path
   fill="none"
   stroke="rgb(179,179,179)"
   stroke-linejoin="round"
   d="M 606,8177 L 756,8177"
   id="path30"
   style="stroke:#ececec;stroke-opacity:1" />
 <path
   fill="none"
   stroke="rgb(179,179,179)"
   stroke-linejoin="round"
   d="M 606,7202 L 756,7202"
   id="path32"
   style="stroke:#ececec;stroke-opacity:1" />
 <path
   fill="none"
   stroke="rgb(179,179,179)"
   stroke-linejoin="round"
   d="M 606,7202 L 756,7202"
   id="path34"
   style="stroke:#ececec;stroke-opacity:1" />
 <path
   fill="none"
   stroke="rgb(179,179,179)"
   stroke-linejoin="round"
   d="M 606,6227 L 756,6227"
   id="path36"
   style="stroke:#ececec;stroke-opacity:1" />
 <path
   fill="none"
   stroke="rgb(179,179,179)"
   stroke-linejoin="round"
   d="M 606,6227 L 756,6227"
   id="path38"
   style="stroke:#ececec;stroke-opacity:1" />
 <path
   fill="none"
   stroke="rgb(179,179,179)"
   stroke-linejoin="round"
   d="M 606,5252 L 756,5252"
   id="path40"
   style="stroke:#ececec;stroke-opacity:1" />
 <path
   fill="none"
   stroke="rgb(179,179,179)"
   stroke-linejoin="round"
   d="M 606,5252 L 756,5252"
   id="path42"
   style="stroke:#ececec;stroke-opacity:1" />
 <path
   fill="none"
   stroke="rgb(179,179,179)"
   stroke-linejoin="round"
   d="M 606,4278 L 756,4278"
   id="path44"
   style="stroke:#ececec;stroke-opacity:1" />
 <path
   fill="none"
   stroke="rgb(179,179,179)"
   stroke-linejoin="round"
   d="M 606,4278 L 756,4278"
   id="path46"
   style="stroke:#ececec;stroke-opacity:1" />
 <path
   fill="none"
   stroke="rgb(179,179,179)"
   stroke-linejoin="round"
   d="M 606,3303 L 756,3303"
   id="path48"
   style="stroke:#ececec;stroke-opacity:1" />
 <path
   fill="none"
   stroke="rgb(179,179,179)"
   stroke-linejoin="round"
   d="M 606,3303 L 756,3303"
   id="path50"
   style="stroke:#ececec;stroke-opacity:1" />
 <path
   fill="none"
   stroke="rgb(179,179,179)"
   stroke-linejoin="round"
   d="M 606,2328 L 756,2328"
   id="path52"
   style="stroke:#ececec;stroke-opacity:1" />
 <path
   fill="none"
   stroke="rgb(179,179,179)"
   stroke-linejoin="round"
   d="M 606,2328 L 756,2328"
   id="path54"
   style="stroke:#ececec;stroke-opacity:1" />
 <path
   fill="none"
   stroke="rgb(179,179,179)"
   stroke-linejoin="round"
   d="M 606,1353 L 756,1353"
   id="path56"
   style="stroke:#ececec;stroke-opacity:1" />
 <path
   fill="none"
   stroke="rgb(179,179,179)"
   stroke-linejoin="round"
   d="M 606,1353 L 756,1353"
   id="path58"
   style="stroke:#ececec;stroke-opacity:1" />
 <path
   fill="none"
   stroke="rgb(179,179,179)"
   stroke-linejoin="round"
   d="M 606,378 L 756,378"
   id="path60"
   style="stroke:#ececec;stroke-opacity:1" />
 <path
   fill="none"
   stroke="rgb(179,179,179)"
   stroke-linejoin="round"
   d="M 606,378 L 756,378"
   id="path62"
   style="stroke:#ececec;stroke-opacity:1" />
 <path
   fill="none"
   stroke="rgb(179,179,179)"
   stroke-linejoin="round"
   d="M 756,8177 L 756,378"
   id="path64"
   style="stroke:#ececec;stroke-opacity:1" />
 
 
 
 
 <g
   aria-label="Bevy 0.5 (Sparse)"
   id="text80"
   class="TextShape"><path
     d="m 1451.833,8676.5718 q 0,32.4043 -23.6138,50.5024 Q 1404.6055,8745 1362.5488,8745 h -98.5918 v -242.8599 h 88.25 q 85.4922,0 85.4922,58.9483 0,21.5454 -12.0654,36.1963 -12.0654,14.6508 -34.1279,19.6494 28.957,3.4472 44.642,19.477 15.6851,15.8575 15.6851,40.1607 z m -47.2275,-111.5191 q 0,-19.6494 -13.4444,-28.0952 -13.4443,-8.4458 -38.9541,-8.4458 h -55.3286 v 76.874 h 55.3286 q 26.3716,0 39.2989,-9.8247 13.0996,-9.997 13.0996,-30.5083 z m 13.9614,108.9336 q 0,-42.9184 -60.3272,-42.9184 h -61.3613 v 87.5605 h 63.9468 q 30.1636,0 43.9526,-11.2036 13.7891,-11.2036 13.7891,-33.4385 z"
     style="fill:#ececec;stroke:none;fill-opacity:1"
     id="path1036" /><path
     d="m 1518.0205,8658.3013 q 0,32.0595 13.272,49.4682 13.272,17.4087 38.7817,17.4087 20.1665,0 32.232,-8.1011 12.2377,-8.101 16.5468,-20.5112 l 27.2334,7.7564 q -16.7192,44.125 -76.0122,44.125 -41.3672,0 -63.0849,-24.648 -21.5455,-24.6479 -21.5455,-73.2544 0,-46.1933 21.5455,-70.8413 21.7177,-24.6479 61.8784,-24.6479 82.2173,0 82.2173,99.1089 v 4.1367 z m 101.0049,-23.7862 q -2.5855,-29.4741 -14.9956,-42.9184 -12.4102,-13.6167 -35.6792,-13.6167 -22.5796,0 -35.8516,15.1679 -13.0996,14.9957 -14.1338,41.3672 z"
     style="fill:#ececec;stroke:none;fill-opacity:1"
     id="path1038" /><path
     d="m 1772.4287,8745 h -36.7134 l -67.7387,-186.4971 h 33.0937 l 41.0225,121.3438 q 2.2407,6.8945 11.893,40.8501 l 6.0328,-20.1665 6.7221,-20.3389 42.4014,-121.6885 h 32.9214 z"
     style="fill:#ececec;stroke:none;fill-opacity:1"
     id="path1040" /><path
     d="m 1876.1914,8818.2544 q -12.7549,0 -21.373,-1.896 v -23.269 q 6.5498,1.0341 14.4785,1.0341 28.957,0 45.8486,-42.5737 l 2.9302,-7.4116 -73.9439,-185.6353 h 33.0938 l 39.2988,103.0733 q 0.8618,2.4131 2.0684,5.8603 1.2065,3.2749 7.7563,22.4073 6.5498,19.1323 7.0669,21.373 l 12.0654,-33.9556 40.8501,-118.7583 h 32.7491 L 1947.3774,8745 q -11.5483,29.8188 -21.5454,44.2974 -9.997,14.6508 -22.2348,21.7177 -12.0655,7.2393 -27.4058,7.2393 z"
     style="fill:#ececec;stroke:none;fill-opacity:1"
     id="path1042" /><path
     d="m 2300.3774,8623.4839 q 0,60.8442 -21.5454,92.9038 -21.373,32.0596 -63.2573,32.0596 -41.8843,0 -62.9126,-31.8872 -21.0283,-31.8872 -21.0283,-93.0762 0,-62.5679 20.3389,-93.7656 20.5112,-31.1978 64.6362,-31.1978 42.9184,0 63.2573,31.5425 20.5112,31.5425 20.5112,93.4209 z m -31.5424,0 q 0,-52.5708 -12.2378,-76.1846 -12.0655,-23.6138 -39.9883,-23.6138 -28.6123,0 -41.1948,23.2691 -12.4102,23.269 -12.4102,76.5293 0,51.709 12.5825,75.6675 12.7549,23.9585 40.333,23.9585 27.4058,0 40.1607,-24.4756 12.7549,-24.4756 12.7549,-75.1504 z"
     style="fill:#ececec;stroke:none;fill-opacity:1"
     id="path1044" /><path
     d="m 2346.3984,8745 v -37.7476 h 33.6109 V 8745 Z"
     style="fill:#ececec;stroke:none;fill-opacity:1"
     id="path1046" /><path
     d="m 2593.7397,8665.8853 q 0,38.437 -22.9243,60.4995 -22.7519,22.0625 -63.2573,22.0625 -33.9556,0 -54.8115,-14.8233 -20.856,-14.8232 -26.3716,-42.9184 l 31.3701,-3.6197 q 9.8247,36.024 50.5025,36.024 24.9926,0 39.1264,-14.9956 14.1338,-15.168 14.1338,-41.5396 0,-22.9243 -14.3061,-37.0581 -14.1338,-14.1338 -38.2647,-14.1338 -12.5825,0 -23.4414,3.9644 -10.8589,3.9643 -21.7178,13.4443 h -30.3359 l 8.1011,-130.6514 h 138.063 v 26.3716 h -109.7955 l -4.6538,77.0464 q 20.1665,-15.5127 50.1578,-15.5127 35.8515,0 57.0522,21.0283 21.373,21.0284 21.373,54.8116 z"
     style="fill:#ececec;stroke:none;fill-opacity:1"
     id="path1048" /><path
     d="m 2728.5278,8653.3027 q 0,-49.813 15.5127,-89.4565 15.6851,-39.6436 48.0894,-74.6333 h 29.9912 q -32.2319,35.8516 -47.3999,76.1846 -14.9956,40.333 -14.9956,88.25 0,47.7446 14.8232,87.9052 14.9956,40.1607 47.5723,76.5293 h -29.9912 q -32.5767,-35.1621 -48.0894,-74.8056 -15.5127,-39.816 -15.5127,-89.2842 z"
     style="fill:#ececec;stroke:none;fill-opacity:1"
     id="path1050" /><path
     d="m 3043.4355,8677.9507 q 0,33.6108 -26.3715,52.0537 -26.1993,18.4429 -73.9439,18.4429 -88.7671,0 -102.9009,-61.7061 l 31.8872,-6.3774 q 5.5157,21.8901 23.4415,32.2319 17.9257,10.1694 48.7788,10.1694 31.8872,0 49.1235,-10.8588 17.4087,-11.0313 17.4087,-32.232 0,-11.893 -5.5156,-19.3047 -5.3433,-7.4116 -15.168,-12.2378 -9.8247,-4.8261 -23.4414,-8.101 -13.6167,-3.2749 -30.1636,-7.0669 -28.7847,-6.3775 -43.7803,-12.7549 -14.8232,-6.3775 -23.4414,-14.1338 -8.6181,-7.9287 -13.2719,-18.4429 -4.4815,-10.5141 -4.4815,-24.1308 0,-31.1978 23.7861,-48.0894 23.9585,-16.8916 68.4283,-16.8916 41.3672,0 63.2573,12.7549 21.8901,12.5825 30.6807,43.0908 l -32.4043,5.688 q -5.3433,-19.3047 -20.3389,-27.9229 -14.9956,-8.7905 -41.5396,-8.7905 -29.1294,0 -44.4697,9.6524 -15.3403,9.6523 -15.3403,28.7846 0,11.2036 5.8603,18.6153 6.0328,7.2392 17.2364,12.4101 11.2036,4.9986 44.6421,12.4102 11.2036,2.5854 22.2348,5.3432 11.2036,2.5855 21.3731,6.3775 10.1694,3.6196 18.9599,8.6181 8.9629,4.9986 15.5127,12.2378 6.5498,7.2393 10.1695,17.064 3.7919,9.8247 3.7919,23.0967 z"
     style="fill:#ececec;stroke:none;fill-opacity:1"
     id="path1052" /><path
     d="m 3241.1362,8650.8896 q 0,97.5577 -68.6006,97.5577 -43.0908,0 -57.914,-32.4043 h -0.8618 q 0.6894,1.3789 0.6894,29.3017 v 72.9097 h -31.0254 v -221.6592 q 0,-28.7847 -1.0342,-38.0923 h 29.9913 q 0.1723,0.6895 0.517,4.9986 0.3448,4.1367 0.6895,12.9272 0.5171,8.7905 0.5171,12.0654 h 0.6894 q 8.2735,-17.2363 21.8902,-25.165 13.6167,-8.1011 35.8515,-8.1011 34.4727,0 51.5367,23.0967 17.0639,23.0967 17.0639,72.5649 z m -32.5766,0.6895 q 0,-38.9541 -10.5142,-55.6733 -10.5141,-16.7193 -33.4385,-16.7193 -18.4428,0 -28.957,7.7564 -10.3418,7.7563 -15.8574,24.3032 -5.3433,16.3745 -5.3433,42.7461 0,36.7134 11.7207,54.1221 11.7207,17.4086 38.0923,17.4086 23.0967,0 33.6108,-16.8916 10.6866,-17.0639 10.6866,-57.0522 z"
     style="fill:#ececec;stroke:none;fill-opacity:1"
     id="path1054" /><path
     d="m 3327.3179,8748.4473 q -28.0952,0 -42.229,-14.8233 -14.1338,-14.8232 -14.1338,-40.6777 0,-28.957 18.9599,-44.4697 19.1324,-15.5127 61.5337,-16.5469 l 41.8843,-0.6895 v -10.1694 q 0,-22.752 -9.6523,-32.5767 -9.6524,-9.8247 -30.336,-9.8247 -20.8559,0 -30.3359,7.0669 -9.48,7.0669 -11.376,22.5796 l -32.4043,-2.9302 q 7.9287,-50.33 74.8057,-50.33 35.1621,0 52.9155,16.2021 17.7534,16.0298 17.7534,46.5381 v 80.3213 q 0,13.7891 3.6197,20.8559 3.6196,6.8946 13.789,6.8946 4.4815,0 10.1695,-1.2066 v 19.3047 q -11.7208,2.7578 -23.9585,2.7578 -17.2364,0 -25.1651,-8.9629 -7.7563,-9.1352 -8.7905,-28.4399 h -1.0342 q -11.8931,21.373 -27.7505,30.3359 -15.685,8.7906 -38.2646,8.7906 z m 7.0669,-23.2691 q 17.0639,0 30.3359,-7.7563 13.272,-7.7564 20.856,-21.2007 7.7563,-13.6167 7.7563,-27.9229 v -15.3403 l -33.9556,0.6895 q -21.8901,0.3447 -33.2661,4.4814 -11.2036,4.1367 -17.2363,12.7549 -6.0327,8.6182 -6.0327,22.5796 0,15.1679 8.1011,23.4414 8.2734,8.2734 23.4414,8.2734 z"
     style="fill:#ececec;stroke:none;fill-opacity:1"
     id="path1056" /><path
     d="m 3476.7568,8745 v -143.0615 q 0,-19.6494 -1.0341,-43.4356 h 29.3017 q 1.3789,31.7149 1.3789,38.0923 h 0.6895 q 7.4116,-23.9585 17.0639,-32.749 9.6524,-8.7905 27.2334,-8.7905 6.2051,0 12.5826,1.7236 v 28.4399 q -6.2051,-1.7236 -16.5469,-1.7236 -19.3047,0 -29.4741,16.7192 -10.1695,16.5469 -10.1695,47.5723 V 8745 Z"
     style="fill:#ececec;stroke:none;fill-opacity:1"
     id="path1058" /><path
     d="m 3733.5781,8693.4634 q 0,26.3716 -19.9941,40.6777 -19.8218,14.3062 -55.6734,14.3062 -34.8173,0 -53.7773,-11.376 -18.7876,-11.5484 -24.4756,-35.8516 l 27.4058,-5.3432 q 3.9643,14.9956 16.3745,22.0625 12.4101,6.8945 34.4726,6.8945 23.6138,0 34.4727,-7.2393 11.0313,-7.2392 11.0313,-21.7177 0,-11.0313 -7.584,-17.9258 -7.584,-6.8945 -24.4756,-11.376 l -22.2349,-5.8603 q -26.7163,-6.8946 -38.0923,-13.4444 -11.2036,-6.7221 -17.581,-16.2021 -6.3775,-9.48 -6.3775,-23.2691 0,-25.5097 18.0982,-38.7817 18.2705,-13.4443 53.0879,-13.4443 30.853,0 48.9511,10.8588 18.2706,10.8589 23.0967,34.8174 l -27.9228,3.4473 q -2.5855,-12.4102 -13.9615,-18.96 -11.2036,-6.7221 -30.1635,-6.7221 -21.0283,0 -31.0254,6.3774 -9.9971,6.3774 -9.9971,19.3047 0,7.9287 4.1367,13.0996 4.1367,5.1709 12.2378,8.7905 8.1011,3.6197 34.128,9.9971 24.6479,6.2051 35.5068,11.5483 10.8589,5.1709 17.064,11.5484 6.3774,6.3774 9.8247,14.8232 3.4472,8.2735 3.4472,18.96 z"
     style="fill:#ececec;stroke:none;fill-opacity:1"
     id="path1060" /><path
     d="m 3793.9053,8658.3013 q 0,32.0595 13.2719,49.4682 13.272,17.4087 38.7818,17.4087 20.1665,0 32.2319,-8.1011 12.2378,-8.101 16.5469,-20.5112 l 27.2334,7.7564 q -16.7192,44.125 -76.0122,44.125 -41.3672,0 -63.085,-24.648 -21.5454,-24.6479 -21.5454,-73.2544 0,-46.1933 21.5454,-70.8413 21.7178,-24.6479 61.8784,-24.6479 82.2173,0 82.2173,99.1089 v 4.1367 z m 101.0049,-23.7862 q -2.5855,-29.4741 -14.9956,-42.9184 -12.4102,-13.6167 -35.6792,-13.6167 -22.5796,0 -35.8516,15.1679 -13.0996,14.9957 -14.1338,41.3672 z"
     style="fill:#ececec;stroke:none;fill-opacity:1"
     id="path1062" /><path
     d="m 4038.3164,8653.9922 q 0,49.813 -15.6851,89.4565 -15.5126,39.6436 -47.9169,74.6333 h -29.9913 q 32.4043,-36.1963 47.3999,-76.1845 14.9957,-40.1607 14.9957,-88.25 0,-48.0894 -15.168,-88.25 -14.9956,-40.1607 -47.2276,-76.1846 h 29.9913 q 32.5766,35.1621 48.0893,74.978 15.5127,39.6436 15.5127,89.1118 z"
     style="fill:#ececec;stroke:none;fill-opacity:1"
     id="path1064" /></g>
 <g
   aria-label="Bevy 0.5 (Table)"
   id="text88"
   class="TextShape"
   style="fill:#ececec;fill-opacity:1"><path
     d="m 5307.833,8676.5718 q 0,32.4043 -23.6138,50.5024 Q 5260.6055,8745 5218.5488,8745 h -98.5918 v -242.8599 h 88.25 q 85.4922,0 85.4922,58.9483 0,21.5454 -12.0654,36.1963 -12.0654,14.6508 -34.1279,19.6494 28.957,3.4472 44.642,19.477 15.6851,15.8575 15.6851,40.1607 z m -47.2275,-111.5191 q 0,-19.6494 -13.4444,-28.0952 -13.4443,-8.4458 -38.9541,-8.4458 h -55.3286 v 76.874 h 55.3286 q 26.3716,0 39.2989,-9.8247 13.0996,-9.997 13.0996,-30.5083 z m 13.9614,108.9336 q 0,-42.9184 -60.3272,-42.9184 h -61.3613 v 87.5605 h 63.9468 q 30.1636,0 43.9526,-11.2036 13.7891,-11.2036 13.7891,-33.4385 z"
     style="fill:#ececec;stroke:none;fill-opacity:1"
     id="path1067" /><path
     d="m 5374.0205,8658.3013 q 0,32.0595 13.272,49.4682 13.272,17.4087 38.7817,17.4087 20.1665,0 32.232,-8.1011 12.2377,-8.101 16.5468,-20.5112 l 27.2334,7.7564 q -16.7192,44.125 -76.0122,44.125 -41.3672,0 -63.0849,-24.648 -21.5455,-24.6479 -21.5455,-73.2544 0,-46.1933 21.5455,-70.8413 21.7177,-24.6479 61.8784,-24.6479 82.2173,0 82.2173,99.1089 v 4.1367 z m 101.0049,-23.7862 q -2.5855,-29.4741 -14.9956,-42.9184 -12.4102,-13.6167 -35.6792,-13.6167 -22.5796,0 -35.8516,15.1679 -13.0996,14.9957 -14.1338,41.3672 z"
     style="fill:#ececec;stroke:none;fill-opacity:1"
     id="path1069" /><path
     d="m 5628.4287,8745 h -36.7134 l -67.7387,-186.4971 h 33.0937 l 41.0225,121.3438 q 2.2407,6.8945 11.893,40.8501 l 6.0328,-20.1665 6.7221,-20.3389 42.4014,-121.6885 h 32.9214 z"
     style="fill:#ececec;stroke:none;fill-opacity:1"
     id="path1071" /><path
     d="m 5732.1914,8818.2544 q -12.7549,0 -21.373,-1.896 v -23.269 q 6.5498,1.0341 14.4785,1.0341 28.957,0 45.8486,-42.5737 l 2.9302,-7.4116 -73.9439,-185.6353 h 33.0938 l 39.2988,103.0733 q 0.8618,2.4131 2.0684,5.8603 1.2065,3.2749 7.7563,22.4073 6.5498,19.1323 7.0669,21.373 l 12.0654,-33.9556 40.8501,-118.7583 h 32.7491 L 5803.3774,8745 q -11.5483,29.8188 -21.5454,44.2974 -9.997,14.6508 -22.2348,21.7177 -12.0655,7.2393 -27.4058,7.2393 z"
     style="fill:#ececec;stroke:none;fill-opacity:1"
     id="path1073" /><path
     d="m 6156.3774,8623.4839 q 0,60.8442 -21.5454,92.9038 -21.373,32.0596 -63.2573,32.0596 -41.8843,0 -62.9126,-31.8872 -21.0283,-31.8872 -21.0283,-93.0762 0,-62.5679 20.3389,-93.7656 20.5112,-31.1978 64.6362,-31.1978 42.9184,0 63.2573,31.5425 20.5112,31.5425 20.5112,93.4209 z m -31.5424,0 q 0,-52.5708 -12.2378,-76.1846 -12.0655,-23.6138 -39.9883,-23.6138 -28.6123,0 -41.1948,23.2691 -12.4102,23.269 -12.4102,76.5293 0,51.709 12.5825,75.6675 12.7549,23.9585 40.333,23.9585 27.4058,0 40.1607,-24.4756 12.7549,-24.4756 12.7549,-75.1504 z"
     style="fill:#ececec;stroke:none;fill-opacity:1"
     id="path1075" /><path
     d="m 6202.3984,8745 v -37.7476 h 33.6109 V 8745 Z"
     style="fill:#ececec;stroke:none;fill-opacity:1"
     id="path1077" /><path
     d="m 6449.7397,8665.8853 q 0,38.437 -22.9243,60.4995 -22.7519,22.0625 -63.2573,22.0625 -33.9556,0 -54.8115,-14.8233 -20.856,-14.8232 -26.3716,-42.9184 l 31.3701,-3.6197 q 9.8247,36.024 50.5025,36.024 24.9926,0 39.1264,-14.9956 14.1338,-15.168 14.1338,-41.5396 0,-22.9243 -14.3061,-37.0581 -14.1338,-14.1338 -38.2647,-14.1338 -12.5825,0 -23.4414,3.9644 -10.8589,3.9643 -21.7178,13.4443 h -30.3359 l 8.1011,-130.6514 h 138.063 v 26.3716 h -109.7955 l -4.6538,77.0464 q 20.1665,-15.5127 50.1578,-15.5127 35.8515,0 57.0522,21.0283 21.373,21.0284 21.373,54.8116 z"
     style="fill:#ececec;stroke:none;fill-opacity:1"
     id="path1079" /><path
     d="m 6584.5278,8653.3027 q 0,-49.813 15.5127,-89.4565 15.6851,-39.6436 48.0894,-74.6333 h 29.9912 q -32.2319,35.8516 -47.3999,76.1846 -14.9956,40.333 -14.9956,88.25 0,47.7446 14.8232,87.9052 14.9956,40.1607 47.5723,76.5293 h -29.9912 q -32.5767,-35.1621 -48.0894,-74.8056 -15.5127,-39.816 -15.5127,-89.2842 z"
     style="fill:#ececec;stroke:none;fill-opacity:1"
     id="path1081" /><path
     d="M 6804.291,8529.0288 V 8745 h -32.749 v -215.9712 h -83.4238 v -26.8887 h 199.5966 v 26.8887 z"
     style="fill:#ececec;stroke:none;fill-opacity:1"
     id="path1083" /><path
     d="m 6928.0479,8748.4473 q -28.0953,0 -42.2291,-14.8233 -14.1337,-14.8232 -14.1337,-40.6777 0,-28.957 18.9599,-44.4697 19.1323,-15.5127 61.5337,-16.5469 l 41.8843,-0.6895 v -10.1694 q 0,-22.752 -9.6524,-32.5767 -9.6523,-9.8247 -30.3359,-9.8247 -20.856,0 -30.3359,7.0669 -9.48,7.0669 -11.376,22.5796 l -32.4043,-2.9302 q 7.9287,-50.33 74.8057,-50.33 35.1621,0 52.9155,16.2021 17.7534,16.0298 17.7534,46.5381 v 80.3213 q 0,13.7891 3.6196,20.8559 3.6197,6.8946 13.7891,6.8946 4.4814,0 10.1694,-1.2066 v 19.3047 q -11.7207,2.7578 -23.9585,2.7578 -17.2363,0 -25.165,-8.9629 -7.7564,-9.1352 -8.7905,-28.4399 h -1.0342 q -11.8931,21.373 -27.7505,30.3359 -15.6851,8.7906 -38.2646,8.7906 z m 7.0668,-23.2691 q 17.064,0 30.336,-7.7563 13.272,-7.7564 20.8559,-21.2007 7.7564,-13.6167 7.7564,-27.9229 v -15.3403 l -33.9556,0.6895 q -21.8901,0.3447 -33.2661,4.4814 -11.2036,4.1367 -17.2363,12.7549 -6.0327,8.6182 -6.0327,22.5796 0,15.1679 8.101,23.4414 8.2735,8.2734 23.4414,8.2734 z"
     style="fill:#ececec;stroke:none;fill-opacity:1"
     id="path1085" /><path
     d="m 7234.5098,8650.8896 q 0,97.5577 -68.6006,97.5577 -21.2007,0 -35.3345,-7.584 -13.9614,-7.7564 -22.7519,-24.8203 h -0.3448 q 0,5.3432 -0.6894,16.3745 -0.6895,10.8589 -1.0342,12.5825 h -29.9912 q 1.0342,-9.3076 1.0342,-38.437 v -217.3501 h 31.0254 v 72.9097 q 0,11.2036 -0.6895,26.3715 h 0.6895 q 8.6181,-17.9257 22.7519,-25.6821 14.3062,-7.7563 35.3345,-7.7563 35.3345,0 51.8813,23.7861 16.7193,23.7861 16.7193,72.0478 z m -32.5767,1.0342 q 0,-39.1264 -10.3418,-56.018 -10.3418,-16.8916 -33.6108,-16.8916 -26.1993,0 -38.2647,17.9257 -11.893,17.9258 -11.893,56.8799 0,36.7134 11.7207,54.2945 11.7207,17.4086 38.0922,17.4086 23.4414,0 33.7832,-17.2363 10.5142,-17.4087 10.5142,-56.3628 z"
     style="fill:#ececec;stroke:none;fill-opacity:1"
     id="path1087" /><path
     d="m 7273.1191,8745 v -255.7871 h 31.0254 V 8745 Z"
     style="fill:#ececec;stroke:none;fill-opacity:1"
     id="path1089" /><path
     d="m 7375.3306,8658.3013 q 0,32.0595 13.2719,49.4682 13.272,17.4087 38.7818,17.4087 20.1665,0 32.2319,-8.1011 12.2378,-8.101 16.5469,-20.5112 l 27.2334,7.7564 q -16.7193,44.125 -76.0122,44.125 -41.3672,0 -63.085,-24.648 -21.5454,-24.6479 -21.5454,-73.2544 0,-46.1933 21.5454,-70.8413 21.7178,-24.6479 61.8784,-24.6479 82.2173,0 82.2173,99.1089 v 4.1367 z m 101.0048,-23.7862 q -2.5854,-29.4741 -14.9956,-42.9184 -12.4101,-13.6167 -35.6792,-13.6167 -22.5795,0 -35.8515,15.1679 -13.0996,14.9957 -14.1338,41.3672 z"
     style="fill:#ececec;stroke:none;fill-opacity:1"
     id="path1091" /><path
     d="m 7619.7417,8653.9922 q 0,49.813 -15.6851,89.4565 -15.5127,39.6436 -47.917,74.6333 h -29.9912 q 32.4043,-36.1963 47.3999,-76.1845 14.9956,-40.1607 14.9956,-88.25 0,-48.0894 -15.1679,-88.25 -14.9956,-40.1607 -47.2276,-76.1846 h 29.9912 q 32.5767,35.1621 48.0894,74.978 15.5127,39.6436 15.5127,89.1118 z"
     style="fill:#ececec;stroke:none;fill-opacity:1"
     id="path1093" /></g>
 <g
   aria-label="Bevy 0.4"
   id="text96"
   class="TextShape"
   style="fill:#ececec;fill-opacity:1"><path
     d="m 9625.833,8676.5718 q 0,32.4043 -23.6138,50.5024 Q 9578.6055,8745 9536.5488,8745 h -98.5918 v -242.8599 h 88.25 q 85.4922,0 85.4922,58.9483 0,21.5454 -12.0654,36.1963 -12.0654,14.6508 -34.1279,19.6494 28.957,3.4472 44.642,19.477 15.6851,15.8575 15.6851,40.1607 z m -47.2275,-111.5191 q 0,-19.6494 -13.4444,-28.0952 -13.4443,-8.4458 -38.9541,-8.4458 h -55.3286 v 76.874 h 55.3286 q 26.3716,0 39.2989,-9.8247 13.0996,-9.997 13.0996,-30.5083 z m 13.9614,108.9336 q 0,-42.9184 -60.3272,-42.9184 h -61.3613 v 87.5605 h 63.9468 q 30.1636,0 43.9526,-11.2036 13.7891,-11.2036 13.7891,-33.4385 z"
     style="fill:#ececec;stroke:none;fill-opacity:1"
     id="path1096" /><path
     d="m 9692.0205,8658.3013 q 0,32.0595 13.272,49.4682 13.272,17.4087 38.7817,17.4087 20.1665,0 32.232,-8.1011 12.2377,-8.101 16.5468,-20.5112 l 27.2334,7.7564 q -16.7192,44.125 -76.0122,44.125 -41.3672,0 -63.0849,-24.648 -21.5455,-24.6479 -21.5455,-73.2544 0,-46.1933 21.5455,-70.8413 21.7177,-24.6479 61.8784,-24.6479 82.2173,0 82.2173,99.1089 v 4.1367 z m 101.0049,-23.7862 q -2.5855,-29.4741 -14.9956,-42.9184 -12.4102,-13.6167 -35.6792,-13.6167 -22.5796,0 -35.8516,15.1679 -13.0996,14.9957 -14.1338,41.3672 z"
     style="fill:#ececec;stroke:none;fill-opacity:1"
     id="path1098" /><path
     d="m 9946.4287,8745 h -36.7134 l -67.7387,-186.4971 h 33.0937 l 41.0225,121.3438 q 2.2407,6.8945 11.893,40.8501 l 6.0328,-20.1665 6.7221,-20.3389 42.4014,-121.6885 h 32.9209 z"
     style="fill:#ececec;stroke:none;fill-opacity:1"
     id="path1100" /><path
     d="m 10050.191,8818.2544 q -12.754,0 -21.373,-1.896 v -23.269 q 6.55,1.0341 14.479,1.0341 28.957,0 45.849,-42.5737 l 2.93,-7.4116 -73.944,-185.6353 h 33.094 l 39.298,103.0733 q 0.862,2.4131 2.069,5.8603 1.206,3.2749 7.756,22.4073 6.55,19.1323 7.067,21.373 l 12.065,-33.9556 40.851,-118.7583 h 32.749 L 10121.377,8745 q -11.548,29.8188 -21.545,44.2974 -9.997,14.6508 -22.235,21.7177 -12.065,7.2393 -27.406,7.2393 z"
     style="fill:#ececec;stroke:none;fill-opacity:1"
     id="path1102" /><path
     d="m 10474.377,8623.4839 q 0,60.8442 -21.545,92.9038 -21.373,32.0596 -63.257,32.0596 -41.885,0 -62.913,-31.8872 -21.028,-31.8872 -21.028,-93.0762 0,-62.5679 20.339,-93.7656 20.511,-31.1978 64.636,-31.1978 42.918,0 63.257,31.5425 20.511,31.5425 20.511,93.4209 z m -31.542,0 q 0,-52.5708 -12.238,-76.1846 -12.065,-23.6138 -39.988,-23.6138 -28.612,0 -41.195,23.2691 -12.41,23.269 -12.41,76.5293 0,51.709 12.582,75.6675 12.755,23.9585 40.333,23.9585 27.406,0 40.161,-24.4756 12.755,-24.4756 12.755,-75.1504 z"
     style="fill:#ececec;stroke:none;fill-opacity:1"
     id="path1104" /><path
     d="m 10520.398,8745 v -37.7476 h 33.611 V 8745 Z"
     style="fill:#ececec;stroke:none;fill-opacity:1"
     id="path1106" /><path
     d="M 10738.093,8690.0161 V 8745 h -29.301 v -54.9839 h -114.45 v -24.1308 l 111.175,-163.7452 h 32.576 v 163.4004 h 34.128 v 24.4756 z m -29.301,-152.8862 q -0.345,1.0342 -4.827,9.1352 -4.481,8.1011 -6.722,11.376 l -62.223,91.6973 -9.308,12.7549 -2.757,3.4472 h 85.837 z"
     style="fill:#ececec;stroke:none;fill-opacity:1"
     id="path1108" /></g>
 <g
   aria-label="Legion"
   id="text104"
   class="TextShape"
   style="fill:#ececec;fill-opacity:1"><path
     d="m 13359.957,8745 v -242.8599 h 32.921 v 215.9712 h 122.723 V 8745 Z"
     style="fill:#ececec;stroke:none;fill-opacity:1"
     id="path1111" /><path
     d="m 13574.894,8658.3013 q 0,32.0595 13.272,49.4682 13.272,17.4087 38.782,17.4087 20.166,0 32.232,-8.1011 12.237,-8.101 16.547,-20.5112 l 27.233,7.7564 q -16.719,44.125 -76.012,44.125 -41.367,0 -63.085,-24.648 -21.546,-24.6479 -21.546,-73.2544 0,-46.1933 21.546,-70.8413 21.718,-24.6479 61.878,-24.6479 82.217,0 82.217,99.1089 v 4.1367 z m 101.005,-23.7862 q -2.586,-29.4741 -14.996,-42.9184 -12.41,-13.6167 -35.679,-13.6167 -22.579,0 -35.851,15.1679 -13.1,14.9957 -14.134,41.3672 z"
     style="fill:#ececec;stroke:none;fill-opacity:1"
     id="path1113" /><path
     d="m 13818.099,8818.2544 q -30.509,0 -48.607,-12.0654 -18.098,-11.8931 -23.269,-33.9556 l 31.198,-4.4814 q 3.102,12.9272 13.617,19.8217 10.686,7.0669 27.922,7.0669 46.366,0 46.366,-54.2944 v -29.9912 h -0.345 q -8.79,17.9258 -24.13,27.061 -15.341,8.9629 -35.852,8.9629 -34.3,0 -50.502,-22.7519 -16.03,-22.752 -16.03,-71.5308 0,-49.4683 17.236,-72.9097 17.409,-23.6137 52.743,-23.6137 19.822,0 34.301,9.1352 14.65,8.9629 22.579,25.6821 h 0.345 q 0,-5.1709 0.689,-17.9257 0.69,-12.7549 1.379,-13.9615 h 29.474 q -1.034,9.3076 -1.034,38.6094 v 142.5444 q 0,78.5977 -78.08,78.5977 z m 47.227,-166.5029 q 0,-22.752 -6.205,-39.1265 -6.205,-16.5469 -17.581,-25.165 -11.204,-8.7906 -25.51,-8.7906 -23.786,0 -34.645,17.2364 -10.859,17.2363 -10.859,55.8457 0,38.2646 10.17,54.9839 10.169,16.7192 34.817,16.7192 14.651,0 26.027,-8.6182 11.376,-8.6181 17.581,-24.6479 6.205,-16.2022 6.205,-38.437 z"
     style="fill:#ececec;stroke:none;fill-opacity:1"
     id="path1115" /><path
     d="m 13943.579,8518.8594 v -29.6465 h 31.025 v 29.6465 z m 0,226.1406 v -186.4971 h 31.025 V 8745 Z"
     style="fill:#ececec;stroke:none;fill-opacity:1"
     id="path1117" /><path
     d="m 14179.889,8651.5791 q 0,48.9512 -21.545,72.9097 -21.546,23.9585 -62.568,23.9585 -40.85,0 -61.706,-24.8203 -20.856,-24.9927 -20.856,-72.0479 0,-96.5234 83.596,-96.5234 42.746,0 62.913,23.6137 20.166,23.4414 20.166,72.9097 z m -32.576,0 q 0,-38.6094 -11.549,-56.0181 -11.376,-17.581 -38.437,-17.581 -27.233,0 -39.471,17.9258 -12.065,17.7534 -12.065,55.6733 0,36.8857 11.893,55.501 12.065,18.4428 37.747,18.4428 27.923,0 39.816,-17.9257 12.066,-17.9258 12.066,-56.0181 z"
     style="fill:#ececec;stroke:none;fill-opacity:1"
     id="path1119" /><path
     d="m 14336.912,8745 v -118.2412 q 0,-18.4429 -3.62,-28.6123 -3.619,-10.1694 -11.548,-14.6509 -7.929,-4.4814 -23.269,-4.4814 -22.407,0 -35.334,15.3403 -12.928,15.3403 -12.928,42.5737 V 8745 h -31.025 v -146.6812 q 0,-32.5766 -1.034,-39.8159 h 29.302 q 0.172,0.8618 0.344,4.6538 0.173,3.792 0.345,8.7906 0.345,4.8261 0.689,18.4428 h 0.518 q 10.686,-19.3047 24.648,-27.2334 14.133,-8.101 34.989,-8.101 30.681,0 44.815,15.3403 14.306,15.168 14.306,50.3301 V 8745 Z"
     style="fill:#ececec;stroke:none;fill-opacity:1"
     id="path1121" /></g>
 <g
   aria-label="0"
   id="text112"
   class="TextShape"
   style="fill:#ececec;fill-opacity:1"><path
     d="m 503.53271,8176.4839 q 0,60.8442 -21.54541,92.9038 -21.37304,32.0596 -63.25732,32.0596 -41.88428,0 -62.9126,-31.8872 -21.02832,-31.8872 -21.02832,-93.0762 0,-62.5679 20.33887,-93.7656 20.51123,-31.1978 64.63623,-31.1978 42.91846,0 63.25732,31.5425 20.51123,31.5425 20.51123,93.4209 z m -31.54248,0 q 0,-52.5708 -12.23779,-76.1846 -12.06543,-23.6138 -39.98828,-23.6138 -28.6123,0 -41.19482,23.2691 -12.41016,23.269 -12.41016,76.5293 0,51.709 12.58252,75.6675 12.75488,23.9585 40.33301,23.9585 27.40576,0 40.16064,-24.4756 12.75488,-24.4756 12.75488,-75.1504 z"
     style="fill:#ececec;stroke:none;fill-opacity:1"
     id="path1009" /></g>
 <g
   aria-label="1"
   id="text120"
   class="TextShape"
   style="fill:#ececec;fill-opacity:1"><path
     d="m 347.88867,7323 v -26.3716 h 61.87842 v -186.8418 l -54.81152,39.1265 v -29.3018 l 57.39697,-39.4712 h 28.6123 v 216.4883 h 59.12061 V 7323 Z"
     style="fill:#ececec;stroke:none;fill-opacity:1"
     id="path1012" /></g>
 <g
   aria-label="2"
   id="text128"
   class="TextShape"
   style="fill:#ececec;fill-opacity:1"><path
     d="m 338.75342,6348 v -21.8901 q 8.79053,-20.1665 21.37304,-35.5069 12.75489,-15.5127 26.71631,-27.9228 13.96143,-12.5825 27.57813,-23.2691 13.78906,-10.6865 24.82031,-21.373 11.03125,-10.6865 17.75342,-22.4072 6.89453,-11.7207 6.89453,-26.544 0,-19.9941 -11.7207,-31.0254 -11.72071,-11.0312 -32.57666,-11.0312 -19.82178,0 -32.74903,10.8589 -12.75488,10.6865 -14.9956,30.1635 l -31.71485,-2.9301 q 3.44727,-29.1294 24.64795,-46.3658 21.37305,-17.2363 54.81153,-17.2363 36.71338,0 56.36279,17.4087 19.82178,17.2363 19.82178,49.1235 0,14.1338 -6.54981,28.0952 -6.37744,13.9615 -19.13232,27.9229 -12.75488,13.9614 -48.77881,43.2632 -19.82178,16.2021 -31.54248,29.3017 -11.7207,12.9273 -16.8916,24.9927 H 499.56836 V 6348 Z"
     style="fill:#ececec;stroke:none;fill-opacity:1"
     id="path1015" /></g>
 <g
   aria-label="3"
   id="text136"
   class="TextShape"
   style="fill:#ececec;fill-opacity:1"><path
     d="m 501.80908,5305.9507 q 0,33.6108 -21.37304,52.0537 -21.37305,18.4429 -61.01661,18.4429 -36.88574,0 -58.94824,-16.5469 -21.89014,-16.7192 -26.02685,-49.2959 l 32.05957,-2.9302 q 6.20507,43.0908 52.91552,43.0908 23.44141,0 36.71338,-11.5483 13.44434,-11.5483 13.44434,-34.3003 0,-19.8218 -15.34033,-30.853 -15.16797,-11.2036 -43.95264,-11.2036 h -17.58106 v -26.8887 h 16.89161 q 25.50976,0 39.47119,-11.0313 14.13379,-11.2036 14.13379,-30.853 0,-19.477 -11.54834,-30.6807 -11.37598,-11.3759 -33.95557,-11.3759 -20.51123,0 -33.26611,10.5141 -12.58252,10.5142 -14.65088,29.6465 l -31.19776,-2.4131 q 3.44727,-29.8188 24.64795,-46.5381 21.37305,-16.7192 54.81153,-16.7192 36.54101,0 56.70752,17.064 20.33886,16.8916 20.33886,47.2275 0,23.2691 -13.09961,37.9199 -12.92724,14.4785 -37.74755,19.6494 v 0.6895 q 27.23339,2.9302 42.40136,18.2705 15.16797,15.3403 15.16797,38.6094 z"
     style="fill:#ececec;stroke:none;fill-opacity:1"
     id="path1018" /></g>
 <g
   aria-label="4"
   id="text144"
   class="TextShape"
   style="fill:#ececec;fill-opacity:1"><path
     d="M 472.85205,4343.0161 V 4398 h -29.30176 v -54.9839 H 329.10107 v -24.1308 l 111.17432,-163.7452 h 32.57666 v 163.4004 h 34.12793 v 24.4756 z m -29.30176,-152.8862 q -0.34472,1.0342 -4.82617,9.1352 -4.48144,8.1011 -6.72217,11.376 l -62.22314,91.6973 -9.30762,12.7549 -2.75781,3.4472 h 85.83691 z"
     style="fill:#ececec;stroke:none;fill-opacity:1"
     id="path1021" /></g>
 <g
   aria-label="5"
   id="text152"
   class="TextShape"
   style="fill:#ececec;fill-opacity:1"><path
     d="m 502.49854,3343.8853 q 0,38.437 -22.92432,60.4995 -22.75195,22.0625 -63.25733,22.0625 -33.95556,0 -54.81152,-14.8233 -20.85596,-14.8232 -26.37158,-42.9184 l 31.37012,-3.6197 q 9.8247,36.024 50.50244,36.024 24.99267,0 39.12646,-14.9956 14.13379,-15.168 14.13379,-41.5396 0,-22.9243 -14.30615,-37.0581 -14.13379,-14.1338 -38.26465,-14.1338 -12.58252,0 -23.44141,3.9644 -10.85888,3.9643 -21.71777,13.4443 h -30.33594 l 8.10108,-130.6514 h 138.06299 v 26.3716 H 378.56934 l -4.65381,77.0464 q 20.1665,-15.5127 50.15771,-15.5127 35.85156,0 57.05225,21.0283 21.37305,21.0284 21.37305,54.8116 z"
     style="fill:#ececec;stroke:none;fill-opacity:1"
     id="path1024" /></g>
 <g
   aria-label="6"
   id="text160"
   class="TextShape"
   style="fill:#ececec;fill-opacity:1"><path
     d="m 501.80908,2368.5405 q 0,38.437 -20.85596,60.6719 -20.85595,22.2349 -57.56933,22.2349 -41.02246,0 -62.74024,-30.5083 -21.71777,-30.5083 -21.71777,-88.7671 0,-63.085 22.57959,-96.8682 22.57959,-33.7832 64.2915,-33.7832 54.98389,0 69.29004,49.4683 l -29.64648,5.3432 q -9.13525,-29.6465 -39.98828,-29.6465 -26.54395,0 -41.19483,24.8204 -14.47851,24.6479 -14.47851,71.5307 8.4458,-15.685 23.78613,-23.7861 15.34033,-8.2734 35.16211,-8.2734 33.61084,0 53.26025,21.0283 19.82178,21.0283 19.82178,56.5351 z m -31.54248,1.3789 q 0,-26.3715 -12.92724,-40.6777 -12.92725,-14.3062 -36.02393,-14.3062 -21.71777,0 -35.16211,12.7549 -13.27197,12.5825 -13.27197,34.8174 0,28.0952 13.78906,46.021 13.96143,17.9258 35.6792,17.9258 22.40723,0 35.16211,-14.9956 12.75488,-15.168 12.75488,-41.5396 z"
     style="fill:#ececec;stroke:none;fill-opacity:1"
     id="path1027" /></g>
 <g
   aria-label="7"
   id="text168"
   class="TextShape"
   style="fill:#ececec;fill-opacity:1"><path
     d="m 499.56836,1255.3052 q -37.23047,56.8799 -52.5708,89.1118 -15.34033,32.2319 -23.09668,63.602 -7.58399,31.3702 -7.58399,64.981 H 383.9126 q 0,-46.5381 19.64941,-97.9023 19.82178,-51.5367 66.01514,-118.586 H 339.09814 v -26.3716 h 160.47022 z"
     style="fill:#ececec;stroke:none;fill-opacity:1"
     id="path1030" /></g>
 <g
   aria-label="8"
   id="text176"
   class="TextShape"
   style="fill:#ececec;fill-opacity:1"><path
     d="m 501.98145,430.26123 q 0,33.61084 -21.37305,52.39844 -21.37305,18.7876 -61.36133,18.7876 -38.9541,0 -61.0166,-18.44288 -21.89014,-18.44287 -21.89014,-52.39843 0,-23.78614 13.6167,-39.98828 13.6167,-16.20215 34.81738,-19.64942 v -0.68945 Q 364.95264,365.625 353.4043,350.1123 q -11.37598,-15.51269 -11.37598,-36.36865 0,-27.75049 20.68359,-44.98681 20.85596,-17.23633 55.84571,-17.23633 35.85156,0 56.53515,16.8916 20.85596,16.8916 20.85596,45.67627 0,20.85596 -11.54834,36.36865 -11.54834,15.5127 -31.54248,19.47705 v 0.68946 q 23.26904,3.79199 36.19629,19.82177 12.92725,15.85742 12.92725,39.81592 z M 463.7168,315.81201 q 0,-41.19482 -45.15918,-41.19482 -21.89014,0 -33.43848,10.34179 -11.37598,10.3418 -11.37598,30.85303 0,20.85596 11.72071,31.88721 11.89306,10.85889 33.43847,10.85889 21.89014,0 33.26612,-9.99707 11.54834,-10.16944 11.54834,-32.74903 z m 6.03271,111.51904 q 0,-22.57959 -13.44433,-33.95556 -13.44434,-11.54834 -37.74756,-11.54834 -23.61377,0 -36.88575,12.41015 -13.27197,12.2378 -13.27197,33.78321 0,50.15771 51.1919,50.15771 25.3374,0 37.74756,-12.06543 12.41015,-12.23779 12.41015,-38.78174 z"
     style="fill:#ececec;stroke:none;fill-opacity:1"
     id="path1033" /></g>
</svg>
