<?xml version="1.0" encoding="UTF-8" standalone="no"?>
<!-- Created with Inkscape (http://www.inkscape.org/) -->

<svg
   width="400mm"
   height="27.012821mm"
   viewBox="0 0 399.99999 27.012821"
   version="1.1"
   id="svg5"
   inkscape:export-filename="/home/carter/code/bevy-website/content/news/2021-12-30-bevy-0.6/pipelined_rendering.png"
   inkscape:export-xdpi="62.383938"
   inkscape:export-ydpi="62.383938"
   sodipodi:docname="pipelined_rendering.svg"
   inkscape:version="1.1.1 (3bf5ae0d25, 2021-09-20, custom)"
   xmlns:inkscape="http://www.inkscape.org/namespaces/inkscape"
   xmlns:sodipodi="http://sodipodi.sourceforge.net/DTD/sodipodi-0.dtd"
   xmlns="http://www.w3.org/2000/svg"
   xmlns:svg="http://www.w3.org/2000/svg">
  <sodipodi:namedview
     id="namedview7"
     pagecolor="#ffffff"
     bordercolor="#666666"
     borderopacity="1.0"
     inkscape:pageshadow="2"
     inkscape:pageopacity="0.0"
     inkscape:pagecheckerboard="0"
     inkscape:document-units="mm"
     showgrid="false"
     inkscape:snap-text-baseline="false"
     fit-margin-top="0"
     fit-margin-left="0"
     fit-margin-right="0"
     fit-margin-bottom="0"
     inkscape:zoom="0.48228655"
     inkscape:cx="292.35731"
     inkscape:cy="-102.63608"
     inkscape:window-width="1440"
     inkscape:window-height="900"
     inkscape:window-x="0"
     inkscape:window-y="0"
     inkscape:window-maximized="1"
     inkscape:current-layer="layer1"
     width="400mm" />
  <defs
     id="defs2" />
  <g
     inkscape:label="Layer 1"
     inkscape:groupmode="layer"
     id="layer1"
     transform="translate(-39.51704,-57.964699)">
    <path
       id="rect31"
       style="fill:#4a96dc;stroke-width:0.228914"
       d="m 42.383085,57.964699 h 40.265431 c 1.587789,0 2.866045,1.278256 2.866045,2.866045 v 7.782746 c 0,1.587789 -1.278256,2.866045 -2.866045,2.866045 H 42.383085 c -1.587789,0 -2.866045,-1.278256 -2.866045,-2.866045 v -7.782746 c 0,-1.587789 1.278256,-2.866045 2.866045,-2.866045 z" />
    <g
       aria-label="Update 1"
       id="text4713"
       style="font-size:10.5833px;line-height:52.9167px;letter-spacing:0px;word-spacing:0px;fill:#ececec;stroke-width:0.264583px"
       transform="matrix(0.76552575,0,0,0.76552575,9.2657286,13.59123)">
      <path
         d="m 49.603813,62.32712 h -1.785592 v 4.341866 c 0,1.351406 -0.151966,2.040677 -1.014912,2.040677 -0.862946,0 -1.014911,-0.689271 -1.014911,-2.040677 V 62.32712 h -1.785593 v 5.004001 c 0,1.60649 0.922647,2.702812 2.800504,2.702812 1.867003,0 2.800504,-1.16145 2.800504,-2.702812 z"
         style="font-weight:bold;font-family:'Fira Code';-inkscape-font-specification:'Fira Code, Bold'"
         id="path1669" />
      <path
         d="m 54.010812,63.895619 c -0.542733,0 -1.128885,0.238803 -1.595636,0.835809 l -0.07598,-0.645852 H 50.81954 v 8.168136 l 1.715038,-0.179102 v -2.643111 c 0.347349,0.396195 0.803245,0.602434 1.367688,0.602434 1.405679,0 2.214352,-1.30256 2.214352,-3.082726 0,-1.872429 -0.602434,-3.055588 -2.105806,-3.055588 z m -0.531878,1.264569 c 0.542733,0 0.868373,0.379913 0.868373,1.812729 0,1.297132 -0.358204,1.801874 -0.966065,1.801874 -0.363632,0 -0.607862,-0.16282 -0.846664,-0.515596 V 65.82775 c 0.249657,-0.412478 0.54816,-0.667562 0.944356,-0.667562 z"
         style="font-weight:bold;font-family:'Fira Code';-inkscape-font-specification:'Fira Code, Bold'"
         id="path1671" />
      <path
         d="m 60.610454,61.616139 v 2.811359 c -0.347349,-0.34735 -0.79239,-0.531879 -1.307987,-0.531879 -1.421961,0 -2.295762,1.280851 -2.295762,3.055588 0,1.856148 0.683844,3.082726 2.11666,3.082726 0.754399,0 1.275423,-0.369059 1.595636,-0.819528 l 0.08684,0.634998 h 1.519653 v -8.054162 z m -0.846664,3.533194 c 0.352777,0 0.607862,0.173675 0.846664,0.472178 v 2.485718 c -0.249657,0.412478 -0.559015,0.667562 -0.944356,0.667562 -0.521024,0 -0.890082,-0.390768 -0.890082,-1.812729 0,-1.297132 0.390768,-1.812729 0.987774,-1.812729 z"
         style="font-weight:bold;font-family:'Fira Code';-inkscape-font-specification:'Fira Code, Bold'"
         id="path1673" />
      <path
         d="m 68.697186,68.188639 v -2.25777 c 0,-1.318842 -0.803245,-2.03525 -2.518283,-2.03525 -0.640425,0 -1.503371,0.146538 -2.246916,0.428759 l 0.396196,1.13974 c 0.575297,-0.195384 1.210295,-0.30393 1.579354,-0.30393 0.743544,0 1.13974,0.282221 1.13974,0.884655 v 0.217093 h -0.776109 c -1.780165,0 -2.805931,0.710981 -2.805931,1.959267 0,1.063758 0.759826,1.81273 1.948412,1.81273 0.716408,0 1.454526,-0.249658 1.899567,-0.781536 0.265939,0.477605 0.73269,0.694698 1.411106,0.759826 l 0.352777,-1.128885 c -0.271367,-0.09769 -0.379913,-0.260512 -0.379913,-0.694699 z m -2.691957,0.618716 c -0.48846,0 -0.770682,-0.260512 -0.770682,-0.705553 0,-0.564443 0.434187,-0.862946 1.389398,-0.862946 h 0.423332 v 0.933501 c -0.211666,0.40705 -0.67299,0.634998 -1.042048,0.634998 z"
         style="font-weight:bold;font-family:'Fira Code';-inkscape-font-specification:'Fira Code, Bold'"
         id="path1675" />
      <path
         d="m 75.546484,69.512909 -0.569869,-1.090894 c -0.271367,0.151965 -0.607862,0.260512 -1.009484,0.260512 -0.56987,0 -0.819528,-0.222521 -0.819528,-0.797818 v -2.615975 h 1.687901 l 0.168247,-1.183158 H 73.147603 V 62.63105 l -1.715037,0.206239 v 1.248287 h -1.210295 v 1.183158 h 1.210295 v 2.615975 c 0,1.324269 0.716408,2.149224 2.225207,2.149224 0.797818,0 1.438243,-0.227948 1.888711,-0.521024 z"
         style="font-weight:bold;font-family:'Fira Code';-inkscape-font-specification:'Fira Code, Bold'"
         id="path1677" />
      <path
         d="m 78.357847,67.466804 h 3.734006 c 0.02171,-0.173675 0.03256,-0.417905 0.03256,-0.613289 0,-1.856147 -1.05833,-2.957896 -2.702812,-2.957896 -1.81273,0 -2.811359,1.373115 -2.811359,3.077298 0,1.79102 1.014911,3.061016 2.995888,3.061016 0.982347,0 1.758456,-0.32564 2.301189,-0.792391 l -0.689271,-0.933501 c -0.455896,0.293076 -0.949783,0.477605 -1.476235,0.477605 -0.73269,0 -1.269996,-0.374486 -1.38397,-1.318842 z m 1.063758,-2.42059 c 0.73269,0 1.020338,0.553588 1.031193,1.389397 h -2.11666 c 0.07598,-0.966065 0.472178,-1.389397 1.085467,-1.389397 z"
         style="font-weight:bold;font-family:'Fira Code';-inkscape-font-specification:'Fira Code, Bold'"
         id="path1679" />
      <path
         d="M 93.711781,68.552271 V 62.32712 h -1.519653 l -2.426018,1.476234 0.727263,1.177732 1.54679,-0.966066 v 4.537251 h -1.81273 v 1.297132 h 4.890028 v -1.297132 z"
         style="font-weight:bold;font-family:'Fira Code';-inkscape-font-specification:'Fira Code, Bold'"
         id="path1681" />
    </g>
    <path
       id="rect31-4"
       style="fill:#4a9674;stroke-width:0.228914"
       d="m 88.38061,71.462685 h 50.87084 c 1.58779,0 2.86604,1.278256 2.86604,2.866045 v 7.782746 c 0,1.587789 -1.27825,2.866045 -2.86604,2.866045 H 88.38061 c -1.587789,0 -2.866045,-1.278256 -2.866045,-2.866045 V 74.32873 c 0,-1.587789 1.278256,-2.866045 2.866045,-2.866045 z" />
    <g
       aria-label="Render 1"
       id="text4713-4"
       style="font-size:10.5833px;line-height:52.9167px;letter-spacing:0px;word-spacing:0px;fill:#ececec;stroke-width:0.264583px"
       transform="matrix(0.76552575,0,0,0.76552575,14.50196,13.59123)">
      <path
         d="m 109.72798,82.244336 c 0,-1.557645 -1.0529,-2.284907 -3.099,-2.284907 h -2.36632 v 7.522283 h 1.78016 v -2.876486 h 0.50475 l 1.6282,2.876486 h 2.01354 l -1.97013,-3.17499 c 0.84124,-0.331067 1.5088,-0.982347 1.5088,-2.062386 z m -1.83444,0 c 0,0.797818 -0.4179,1.13974 -1.18858,1.13974 h -0.66214 v -2.176361 h 0.59158 c 0.83038,0 1.25914,0.314786 1.25914,1.036621 z"
         style="font-weight:bold;font-family:'Fira Code';-inkscape-font-specification:'Fira Code, Bold'"
         id="path1729" />
      <path
         d="m 112.39281,85.099113 h 3.734 c 0.0217,-0.173675 0.0326,-0.417905 0.0326,-0.613289 0,-1.856147 -1.05833,-2.957896 -2.70282,-2.957896 -1.81272,0 -2.81135,1.373115 -2.81135,3.077298 0,1.79102 1.01491,3.061016 2.99588,3.061016 0.98235,0 1.75846,-0.32564 2.30119,-0.792391 l -0.68927,-0.933501 c -0.45589,0.293076 -0.94978,0.477605 -1.47623,0.477605 -0.73269,0 -1.27,-0.374486 -1.38397,-1.318842 z m 1.06375,-2.42059 c 0.73269,0 1.02034,0.553587 1.0312,1.389397 h -2.11666 c 0.076,-0.966066 0.47218,-1.389397 1.08546,-1.389397 z"
         style="font-weight:bold;font-family:'Fira Code';-inkscape-font-specification:'Fira Code, Bold'"
         id="path1731" />
      <path
         d="m 117.41852,87.481712 h 1.71504 v -4.032508 c 0.32564,-0.412478 0.64585,-0.656707 1.00948,-0.656707 0.42334,0 0.55359,0.244229 0.55359,0.949783 v 3.739432 h 1.71504 v -4.23332 c 0,-1.090893 -0.60243,-1.720464 -1.58478,-1.720464 -0.73269,0 -1.28085,0.282221 -1.79102,0.857519 l -0.1194,-0.667562 h -1.49795 z"
         style="font-weight:bold;font-family:'Fira Code';-inkscape-font-specification:'Fira Code, Bold'"
         id="path1733" />
      <path
         d="m 127.20944,79.248448 v 2.811359 c -0.34735,-0.34735 -0.79239,-0.531879 -1.30799,-0.531879 -1.42196,0 -2.29576,1.280851 -2.29576,3.055588 0,1.856148 0.68384,3.082726 2.11666,3.082726 0.7544,0 1.27542,-0.369059 1.59563,-0.819528 l 0.0868,0.634998 h 1.51965 V 79.42755 Z m -0.84667,3.533194 c 0.35278,0 0.60786,0.173674 0.84667,0.472178 v 2.485718 c -0.24966,0.412478 -0.55902,0.667562 -0.94436,0.667562 -0.52102,0 -0.89008,-0.390768 -0.89008,-1.812729 0,-1.297133 0.39077,-1.812729 0.98777,-1.812729 z"
         style="font-weight:bold;font-family:'Fira Code';-inkscape-font-specification:'Fira Code, Bold'"
         id="path1735" />
      <path
         d="m 131.93122,85.099113 h 3.73401 c 0.0217,-0.173675 0.0326,-0.417905 0.0326,-0.613289 0,-1.856147 -1.05833,-2.957896 -2.70281,-2.957896 -1.81273,0 -2.81136,1.373115 -2.81136,3.077298 0,1.79102 1.01491,3.061016 2.99589,3.061016 0.98235,0 1.75845,-0.32564 2.30119,-0.792391 l -0.68927,-0.933501 c -0.4559,0.293076 -0.94979,0.477605 -1.47624,0.477605 -0.73269,0 -1.26999,-0.374486 -1.38397,-1.318842 z m 1.06376,-2.42059 c 0.73269,0 1.02034,0.553587 1.03119,1.389397 h -2.11666 c 0.076,-0.966066 0.47218,-1.389397 1.08547,-1.389397 z"
         style="font-weight:bold;font-family:'Fira Code';-inkscape-font-specification:'Fira Code, Bold'"
         id="path1737" />
      <path
         d="m 141.3585,81.54421 c -0.92807,0 -1.55221,0.483033 -1.96469,1.470807 l -0.31479,-1.297132 h -2.06781 v 1.139739 h 0.75983 v 3.473494 h -0.75983 v 1.150594 h 3.6146 v -1.150594 h -1.13974 v -1.64991 c 0.27137,-0.857518 0.77611,-1.497944 1.42739,-1.617345 v 1.063757 h 1.07461 l 0.32022,-2.409735 c -0.27137,-0.108547 -0.55902,-0.173675 -0.94979,-0.173675 z"
         style="font-weight:bold;font-family:'Fira Code';-inkscape-font-specification:'Fira Code, Bold'"
         id="path1739" />
      <path
         d="m 153.79796,86.18458 v -6.225151 h -1.51965 l -2.42602,1.476234 0.72726,1.177732 1.54679,-0.966066 v 4.537251 h -1.81273 v 1.297132 h 4.89003 V 86.18458 Z"
         style="font-weight:bold;font-family:'Fira Code';-inkscape-font-specification:'Fira Code, Bold'"
         id="path1741" />
    </g>
    <path
       id="rect31-96"
       style="fill:#4a96dc;stroke-width:0.228914"
       d="m 96.919786,57.964699 h 40.265434 c 1.58779,0 2.86604,1.278256 2.86604,2.866045 v 7.782746 c 0,1.587789 -1.27825,2.866045 -2.86604,2.866045 H 96.919786 c -1.587788,0 -2.866045,-1.278256 -2.866045,-2.866045 v -7.782746 c 0,-1.587789 1.278257,-2.866045 2.866045,-2.866045 z" />
    <g
       aria-label="Update 2"
       id="text4713-2"
       style="font-size:10.5833px;line-height:52.9167px;letter-spacing:0px;word-spacing:0px;fill:#ececec;stroke-width:0.264583px"
       transform="matrix(0.76552575,0,0,0.76552575,9.2657286,13.59123)">
      <path
         d="m 120.84466,62.32712 h -1.78559 v 4.341866 c 0,1.351406 -0.15197,2.040677 -1.01491,2.040677 -0.86295,0 -1.01491,-0.689271 -1.01491,-2.040677 V 62.32712 h -1.7856 v 5.004001 c 0,1.60649 0.92265,2.702812 2.80051,2.702812 1.867,0 2.8005,-1.16145 2.8005,-2.702812 z"
         style="font-weight:bold;font-family:'Fira Code';-inkscape-font-specification:'Fira Code, Bold'"
         id="path1684" />
      <path
         d="m 125.25166,63.895619 c -0.54273,0 -1.12888,0.238803 -1.59564,0.835809 l -0.076,-0.645852 h -1.51965 v 8.168136 l 1.71504,-0.179102 v -2.643111 c 0.34735,0.396195 0.80324,0.602434 1.36768,0.602434 1.40568,0 2.21436,-1.30256 2.21436,-3.082726 0,-1.872429 -0.60244,-3.055588 -2.10581,-3.055588 z m -0.53188,1.264569 c 0.54274,0 0.86838,0.379913 0.86838,1.812729 0,1.297132 -0.35821,1.801874 -0.96607,1.801874 -0.36363,0 -0.60786,-0.16282 -0.84666,-0.515596 V 65.82775 c 0.24965,-0.412478 0.54816,-0.667562 0.94435,-0.667562 z"
         style="font-weight:bold;font-family:'Fira Code';-inkscape-font-specification:'Fira Code, Bold'"
         id="path1686" />
      <path
         d="m 131.8513,61.616139 v 2.811359 c -0.34735,-0.34735 -0.79239,-0.531879 -1.30798,-0.531879 -1.42197,0 -2.29577,1.280851 -2.29577,3.055588 0,1.856148 0.68385,3.082726 2.11666,3.082726 0.7544,0 1.27543,-0.369059 1.59564,-0.819528 l 0.0868,0.634998 h 1.51965 v -8.054162 z m -0.84666,3.533194 c 0.35278,0 0.60786,0.173675 0.84666,0.472178 v 2.485718 c -0.24965,0.412478 -0.55901,0.667562 -0.94435,0.667562 -0.52103,0 -0.89009,-0.390768 -0.89009,-1.812729 0,-1.297132 0.39077,-1.812729 0.98778,-1.812729 z"
         style="font-weight:bold;font-family:'Fira Code';-inkscape-font-specification:'Fira Code, Bold'"
         id="path1688" />
      <path
         d="m 139.93803,68.188639 v -2.25777 c 0,-1.318842 -0.80324,-2.03525 -2.51828,-2.03525 -0.64042,0 -1.50337,0.146538 -2.24691,0.428759 l 0.39619,1.13974 c 0.5753,-0.195384 1.2103,-0.30393 1.57936,-0.30393 0.74354,0 1.13974,0.282221 1.13974,0.884655 v 0.217093 h -0.77611 c -1.78017,0 -2.80593,0.710981 -2.80593,1.959267 0,1.063758 0.75982,1.81273 1.94841,1.81273 0.71641,0 1.45452,-0.249658 1.89956,-0.781536 0.26594,0.477605 0.73269,0.694698 1.41111,0.759826 l 0.35278,-1.128885 c -0.27137,-0.09769 -0.37992,-0.260512 -0.37992,-0.694699 z m -2.69195,0.618716 c -0.48846,0 -0.77068,-0.260512 -0.77068,-0.705553 0,-0.564443 0.43418,-0.862946 1.38939,-0.862946 h 0.42334 v 0.933501 c -0.21167,0.40705 -0.67299,0.634998 -1.04205,0.634998 z"
         style="font-weight:bold;font-family:'Fira Code';-inkscape-font-specification:'Fira Code, Bold'"
         id="path1690" />
      <path
         d="m 146.78733,69.512909 -0.56987,-1.090894 c -0.27136,0.151965 -0.60786,0.260512 -1.00948,0.260512 -0.56987,0 -0.81953,-0.222521 -0.81953,-0.797818 v -2.615975 h 1.6879 l 0.16825,-1.183158 h -1.85615 V 62.63105 l -1.71504,0.206239 v 1.248287 h -1.21029 v 1.183158 h 1.21029 v 2.615975 c 0,1.324269 0.71641,2.149224 2.22521,2.149224 0.79782,0 1.43824,-0.227948 1.88871,-0.521024 z"
         style="font-weight:bold;font-family:'Fira Code';-inkscape-font-specification:'Fira Code, Bold'"
         id="path1692" />
      <path
         d="m 149.5987,67.466804 h 3.734 c 0.0217,-0.173675 0.0326,-0.417905 0.0326,-0.613289 0,-1.856147 -1.05833,-2.957896 -2.70282,-2.957896 -1.81273,0 -2.81136,1.373115 -2.81136,3.077298 0,1.79102 1.01492,3.061016 2.99589,3.061016 0.98235,0 1.75846,-0.32564 2.30119,-0.792391 l -0.68927,-0.933501 c -0.4559,0.293076 -0.94978,0.477605 -1.47623,0.477605 -0.73269,0 -1.27,-0.374486 -1.38397,-1.318842 z m 1.06375,-2.42059 c 0.73269,0 1.02034,0.553588 1.0312,1.389397 h -2.11666 c 0.076,-0.966065 0.47217,-1.389397 1.08546,-1.389397 z"
         style="font-weight:bold;font-family:'Fira Code';-inkscape-font-specification:'Fira Code, Bold'"
         id="path1694" />
      <path
         d="m 163.37328,62.137163 c -1.2103,0 -2.00269,0.504742 -2.56713,1.286278 l 1.0529,0.792391 c 0.39077,-0.531879 0.78154,-0.759827 1.35141,-0.759827 0.64585,0 1.00948,0.379913 1.00948,0.987775 0,0.89551 -0.78696,1.796447 -3.26183,4.189901 v 1.215722 h 4.99858 l 0.18453,-1.307987 h -3.21299 c 2.28491,-2.046105 3.03931,-3.028452 3.03931,-4.249602 0,-1.150594 -0.87923,-2.154651 -2.59426,-2.154651 z"
         style="font-weight:bold;font-family:'Fira Code';-inkscape-font-specification:'Fira Code, Bold'"
         id="path1696" />
    </g>
    <path
       id="rect31-4-7"
       style="fill:#4a9674;stroke-width:0.228914"
       d="m 144.98354,71.462685 h 46.44103 c 1.58779,0 2.86605,1.278256 2.86605,2.866045 v 7.782746 c 0,1.587789 -1.27826,2.866045 -2.86605,2.866045 h -46.44103 c -1.58779,0 -2.86605,-1.278256 -2.86605,-2.866045 V 74.32873 c 0,-1.587789 1.27826,-2.866045 2.86605,-2.866045 z" />
    <g
       aria-label="Render 2"
       id="text4713-4-8"
       style="font-size:10.5833px;line-height:52.9167px;letter-spacing:0px;word-spacing:0px;fill:#ececec;stroke-width:0.264583px"
       transform="matrix(0.76552575,0,0,0.76552575,12.370154,13.59123)">
      <path
         d="m 183.66792,82.244336 c 0,-1.557645 -1.0529,-2.284907 -3.099,-2.284907 h -2.36632 v 7.522283 h 1.78016 v -2.876486 h 0.50475 l 1.6282,2.876486 h 2.01354 l -1.97012,-3.17499 c 0.84123,-0.331067 1.50879,-0.982347 1.50879,-2.062386 z m -1.83443,0 c 0,0.797818 -0.41791,1.13974 -1.18859,1.13974 h -0.66214 v -2.176361 h 0.59158 c 0.83039,0 1.25915,0.314786 1.25915,1.036621 z"
         style="font-weight:bold;font-family:'Fira Code';-inkscape-font-specification:'Fira Code, Bold'"
         id="path1714" />
      <path
         d="m 186.33275,85.099113 h 3.734 c 0.0217,-0.173675 0.0326,-0.417905 0.0326,-0.613289 0,-1.856147 -1.05833,-2.957896 -2.70281,-2.957896 -1.81273,0 -2.81136,1.373115 -2.81136,3.077298 0,1.79102 1.01491,3.061016 2.99589,3.061016 0.98234,0 1.75845,-0.32564 2.30118,-0.792391 l -0.68927,-0.933501 c -0.45589,0.293076 -0.94978,0.477605 -1.47623,0.477605 -0.73269,0 -1.27,-0.374486 -1.38397,-1.318842 z m 1.06376,-2.42059 c 0.73269,0 1.02033,0.553587 1.03119,1.389397 h -2.11666 c 0.076,-0.966066 0.47218,-1.389397 1.08547,-1.389397 z"
         style="font-weight:bold;font-family:'Fira Code';-inkscape-font-specification:'Fira Code, Bold'"
         id="path1716" />
      <path
         d="m 191.35846,87.481712 h 1.71504 v -4.032508 c 0.32564,-0.412478 0.64585,-0.656707 1.00949,-0.656707 0.42333,0 0.55358,0.244229 0.55358,0.949783 v 3.739432 h 1.71504 v -4.23332 c 0,-1.090893 -0.60243,-1.720464 -1.58478,-1.720464 -0.73269,0 -1.28085,0.282221 -1.79102,0.857519 l -0.1194,-0.667562 h -1.49795 z"
         style="font-weight:bold;font-family:'Fira Code';-inkscape-font-specification:'Fira Code, Bold'"
         id="path1718" />
      <path
         d="m 201.14938,79.248448 v 2.811359 c -0.34735,-0.34735 -0.79239,-0.531879 -1.30799,-0.531879 -1.42196,0 -2.29576,1.280851 -2.29576,3.055588 0,1.856148 0.68384,3.082726 2.11666,3.082726 0.7544,0 1.27542,-0.369059 1.59564,-0.819528 l 0.0868,0.634998 h 1.51966 V 79.42755 Z m -0.84667,3.533194 c 0.35278,0 0.60787,0.173674 0.84667,0.472178 v 2.485718 c -0.24966,0.412478 -0.55902,0.667562 -0.94436,0.667562 -0.52102,0 -0.89008,-0.390768 -0.89008,-1.812729 0,-1.297133 0.39077,-1.812729 0.98777,-1.812729 z"
         style="font-weight:bold;font-family:'Fira Code';-inkscape-font-specification:'Fira Code, Bold'"
         id="path1720" />
      <path
         d="m 205.87116,85.099113 h 3.73401 c 0.0217,-0.173675 0.0326,-0.417905 0.0326,-0.613289 0,-1.856147 -1.05833,-2.957896 -2.70281,-2.957896 -1.81273,0 -2.81136,1.373115 -2.81136,3.077298 0,1.79102 1.01491,3.061016 2.99589,3.061016 0.98235,0 1.75846,-0.32564 2.30119,-0.792391 l -0.68927,-0.933501 c -0.4559,0.293076 -0.94979,0.477605 -1.47624,0.477605 -0.73269,0 -1.26999,-0.374486 -1.38397,-1.318842 z m 1.06376,-2.42059 c 0.73269,0 1.02034,0.553587 1.03119,1.389397 h -2.11666 c 0.076,-0.966066 0.47218,-1.389397 1.08547,-1.389397 z"
         style="font-weight:bold;font-family:'Fira Code';-inkscape-font-specification:'Fira Code, Bold'"
         id="path1722" />
      <path
         d="m 215.29844,81.54421 c -0.92807,0 -1.55221,0.483033 -1.96469,1.470807 l -0.31479,-1.297132 h -2.06781 v 1.139739 h 0.75983 v 3.473494 h -0.75983 v 1.150594 h 3.6146 v -1.150594 h -1.13974 v -1.64991 c 0.27137,-0.857518 0.77611,-1.497944 1.42739,-1.617345 v 1.063757 h 1.07462 l 0.32021,-2.409735 c -0.27137,-0.108547 -0.55902,-0.173675 -0.94979,-0.173675 z"
         style="font-weight:bold;font-family:'Fira Code';-inkscape-font-specification:'Fira Code, Bold'"
         id="path1724" />
      <path
         d="m 226.15855,79.769472 c -1.2103,0 -2.00269,0.504742 -2.56713,1.286278 l 1.0529,0.792391 c 0.39077,-0.531879 0.78154,-0.759827 1.35141,-0.759827 0.64585,0 1.00948,0.379913 1.00948,0.987775 0,0.895509 -0.78696,1.796447 -3.26183,4.189901 v 1.215722 h 4.99858 l 0.18453,-1.307987 h -3.21298 c 2.2849,-2.046105 3.0393,-3.028452 3.0393,-4.249602 0,-1.150594 -0.87923,-2.154651 -2.59426,-2.154651 z"
         style="font-weight:bold;font-family:'Fira Code';-inkscape-font-specification:'Fira Code, Bold'"
         id="path1726" />
    </g>
    <path
       id="rect31-96-7"
       style="fill:#4a96dc;stroke-width:0.228914"
       d="m 149.76323,57.964699 h 40.26543 c 1.58779,0 2.86605,1.278256 2.86605,2.866045 v 7.782746 c 0,1.587789 -1.27826,2.866045 -2.86605,2.866045 h -40.26543 c -1.58779,0 -2.86604,-1.278256 -2.86604,-2.866045 v -7.782746 c 0,-1.587789 1.27825,-2.866045 2.86604,-2.866045 z" />
    <g
       aria-label="Update 3"
       id="text4713-2-5"
       style="font-size:10.5833px;line-height:52.9167px;letter-spacing:0px;word-spacing:0px;fill:#ececec;stroke-width:0.264583px"
       transform="matrix(0.76552575,0,0,0.76552575,9.3529721,13.59123)">
      <path
         d="m 189.87362,62.32712 h -1.7856 v 4.341866 c 0,1.351406 -0.15196,2.040677 -1.01491,2.040677 -0.86294,0 -1.01491,-0.689271 -1.01491,-2.040677 V 62.32712 h -1.78559 v 5.004001 c 0,1.60649 0.92264,2.702812 2.8005,2.702812 1.867,0 2.80051,-1.16145 2.80051,-2.702812 z"
         style="font-weight:bold;font-family:'Fira Code';-inkscape-font-specification:'Fira Code, Bold'"
         id="path1699" />
      <path
         d="m 194.28061,63.895619 c -0.54273,0 -1.12888,0.238803 -1.59563,0.835809 l -0.076,-0.645852 h -1.51966 v 8.168136 l 1.71504,-0.179102 v -2.643111 c 0.34735,0.396195 0.80325,0.602434 1.36769,0.602434 1.40568,0 2.21435,-1.30256 2.21435,-3.082726 0,-1.872429 -0.60243,-3.055588 -2.10581,-3.055588 z m -0.53187,1.264569 c 0.54273,0 0.86837,0.379913 0.86837,1.812729 0,1.297132 -0.3582,1.801874 -0.96607,1.801874 -0.36363,0 -0.60786,-0.16282 -0.84666,-0.515596 V 65.82775 c 0.24966,-0.412478 0.54816,-0.667562 0.94436,-0.667562 z"
         style="font-weight:bold;font-family:'Fira Code';-inkscape-font-specification:'Fira Code, Bold'"
         id="path1701" />
      <path
         d="m 200.88026,61.616139 v 2.811359 c -0.34735,-0.34735 -0.79239,-0.531879 -1.30799,-0.531879 -1.42196,0 -2.29576,1.280851 -2.29576,3.055588 0,1.856148 0.68384,3.082726 2.11666,3.082726 0.7544,0 1.27542,-0.369059 1.59563,-0.819528 l 0.0868,0.634998 h 1.51965 v -8.054162 z m -0.84667,3.533194 c 0.35278,0 0.60786,0.173675 0.84667,0.472178 v 2.485718 c -0.24966,0.412478 -0.55902,0.667562 -0.94436,0.667562 -0.52102,0 -0.89008,-0.390768 -0.89008,-1.812729 0,-1.297132 0.39077,-1.812729 0.98777,-1.812729 z"
         style="font-weight:bold;font-family:'Fira Code';-inkscape-font-specification:'Fira Code, Bold'"
         id="path1703" />
      <path
         d="m 208.96699,68.188639 v -2.25777 c 0,-1.318842 -0.80325,-2.03525 -2.51828,-2.03525 -0.64043,0 -1.50338,0.146538 -2.24692,0.428759 l 0.39619,1.13974 c 0.5753,-0.195384 1.2103,-0.30393 1.57936,-0.30393 0.74354,0 1.13974,0.282221 1.13974,0.884655 v 0.217093 h -0.77611 c -1.78017,0 -2.80593,0.710981 -2.80593,1.959267 0,1.063758 0.75983,1.81273 1.94841,1.81273 0.71641,0 1.45453,-0.249658 1.89957,-0.781536 0.26594,0.477605 0.73269,0.694698 1.4111,0.759826 l 0.35278,-1.128885 c -0.27137,-0.09769 -0.37991,-0.260512 -0.37991,-0.694699 z m -2.69196,0.618716 c -0.48846,0 -0.77068,-0.260512 -0.77068,-0.705553 0,-0.564443 0.43419,-0.862946 1.3894,-0.862946 h 0.42333 v 0.933501 c -0.21167,0.40705 -0.67299,0.634998 -1.04205,0.634998 z"
         style="font-weight:bold;font-family:'Fira Code';-inkscape-font-specification:'Fira Code, Bold'"
         id="path1705" />
      <path
         d="m 215.81629,69.512909 -0.56987,-1.090894 c -0.27137,0.151965 -0.60786,0.260512 -1.00949,0.260512 -0.56987,0 -0.81952,-0.222521 -0.81952,-0.797818 v -2.615975 h 1.6879 l 0.16824,-1.183158 h -1.85614 V 62.63105 l -1.71504,0.206239 v 1.248287 h -1.2103 v 1.183158 h 1.2103 v 2.615975 c 0,1.324269 0.71641,2.149224 2.2252,2.149224 0.79782,0 1.43825,-0.227948 1.88872,-0.521024 z"
         style="font-weight:bold;font-family:'Fira Code';-inkscape-font-specification:'Fira Code, Bold'"
         id="path1707" />
      <path
         d="m 218.62765,67.466804 h 3.734 c 0.0217,-0.173675 0.0326,-0.417905 0.0326,-0.613289 0,-1.856147 -1.05833,-2.957896 -2.70281,-2.957896 -1.81273,0 -2.81136,1.373115 -2.81136,3.077298 0,1.79102 1.01491,3.061016 2.99589,3.061016 0.98234,0 1.75845,-0.32564 2.30119,-0.792391 l -0.68928,-0.933501 c -0.45589,0.293076 -0.94978,0.477605 -1.47623,0.477605 -0.73269,0 -1.27,-0.374486 -1.38397,-1.318842 z m 1.06376,-2.42059 c 0.73269,0 1.02034,0.553588 1.03119,1.389397 h -2.11666 c 0.076,-0.966065 0.47218,-1.389397 1.08547,-1.389397 z"
         style="font-weight:bold;font-family:'Fira Code';-inkscape-font-specification:'Fira Code, Bold'"
         id="path1709" />
      <path
         d="m 232.35881,62.137163 c -1.03662,0 -1.88871,0.352777 -2.57256,1.014911 l 0.87923,0.911792 c 0.42876,-0.401622 0.90094,-0.65128 1.50337,-0.65128 0.64043,0 1.0909,0.34735 1.0909,0.911792 0,0.656708 -0.47218,0.982348 -1.13431,0.982348 h -0.48846 l -0.19539,1.183158 h 0.68385 c 0.80867,0 1.27542,0.32564 1.27542,1.123458 0,0.716408 -0.52103,1.107176 -1.26457,1.107176 -0.59158,0 -1.13431,-0.217093 -1.5685,-0.716408 l -0.96606,0.900937 c 0.62957,0.716408 1.52508,1.128886 2.64853,1.128886 1.80731,0 2.90905,-1.031194 2.90905,-2.30119 0,-1.215722 -0.73811,-1.725891 -1.77473,-1.867002 0.92807,-0.265939 1.53593,-0.846664 1.53593,-1.801875 0,-1.052902 -0.93893,-1.926703 -2.5617,-1.926703 z"
         style="font-weight:bold;font-family:'Fira Code';-inkscape-font-specification:'Fira Code, Bold'"
         id="path1711" />
    </g>
  </g>
</svg>
