<?xml version="1.0" encoding="UTF-8" standalone="no"?>
<!-- Created with Inkscape (http://www.inkscape.org/) -->

<svg
   width="400mm"
   height="26.166479mm"
   viewBox="0 0 399.99999 26.166479"
   version="1.1"
   id="svg5"
   inkscape:export-filename="/home/carter/code/bevy-website/content/news/2021-12-30-bevy-0.6/pipelined_rendering.png"
   inkscape:export-xdpi="62.383938"
   inkscape:export-ydpi="62.383938"
   sodipodi:docname="pipelined_rendering_stages.svg"
   inkscape:version="1.1.1 (3bf5ae0d25, 2021-09-20, custom)"
   xmlns:inkscape="http://www.inkscape.org/namespaces/inkscape"
   xmlns:sodipodi="http://sodipodi.sourceforge.net/DTD/sodipodi-0.dtd"
   xmlns="http://www.w3.org/2000/svg"
   xmlns:svg="http://www.w3.org/2000/svg">
  <sodipodi:namedview
     id="namedview7"
     pagecolor="#ffffff"
     bordercolor="#666666"
     borderopacity="1.0"
     inkscape:pageshadow="2"
     inkscape:pageopacity="0.0"
     inkscape:pagecheckerboard="0"
     inkscape:document-units="mm"
     showgrid="false"
     inkscape:snap-text-baseline="false"
     fit-margin-top="0"
     fit-margin-left="0"
     fit-margin-right="0"
     fit-margin-bottom="0"
     inkscape:zoom="0.64594592"
     inkscape:cx="442.76153"
     inkscape:cy="121.5272"
     inkscape:window-width="1440"
     inkscape:window-height="900"
     inkscape:window-x="0"
     inkscape:window-y="0"
     inkscape:window-maximized="1"
     inkscape:current-layer="layer1" />
  <defs
     id="defs2" />
  <g
     inkscape:label="Layer 1"
     inkscape:groupmode="layer"
     id="layer1"
     transform="translate(-37.546162,-205.10861)">
    <rect
       style="fill:#4a96dc;fill-opacity:1;stroke:none;stroke-width:0.221262"
       id="rect31-43"
       width="44.459778"
       height="13.063061"
       x="37.546162"
       y="205.10861"
       ry="2.7702386"
       inkscape:export-filename="/home/carter/code/bevy-website/content/news/2021-12-30-bevy-0.6/pipelined_rendering_stages.png"
       inkscape:export-xdpi="70.989998"
       inkscape:export-ydpi="70.989998" />
    <g
       aria-label="Update 1"
       id="text4713-3"
       style="font-size:10.5833px;line-height:52.9167px;letter-spacing:0px;word-spacing:0px;fill:#ececec;stroke-width:0.264583px"
       transform="matrix(0.73993567,0,0,0.73993567,9.7644172,53.341432)">
      <path
         d="m 47.632935,209.47103 h -1.785593 v 4.34187 c 0,1.35141 -0.151965,2.04068 -1.014911,2.04068 -0.862946,0 -1.014912,-0.68927 -1.014912,-2.04068 v -4.34187 h -1.785592 v 5.004 c 0,1.60649 0.922646,2.70282 2.800504,2.70282 1.867002,0 2.800504,-1.16145 2.800504,-2.70282 z"
         style="font-weight:bold;font-family:'Fira Code';-inkscape-font-specification:'Fira Code, Bold'"
         id="path2864" />
      <path
         d="m 52.039934,211.03953 c -0.542734,0 -1.128886,0.2388 -1.595636,0.83581 l -0.07598,-0.64585 h -1.519653 v 8.16814 l 1.715037,-0.17911 v -2.64311 c 0.347349,0.3962 0.803245,0.60244 1.367688,0.60244 1.405679,0 2.214352,-1.30256 2.214352,-3.08273 0,-1.87243 -0.602434,-3.05559 -2.105805,-3.05559 z m -0.531879,1.26457 c 0.542733,0 0.868373,0.37991 0.868373,1.81273 0,1.29713 -0.358204,1.80187 -0.966065,1.80187 -0.363631,0 -0.607861,-0.16282 -0.846664,-0.51559 v -2.43145 c 0.249657,-0.41247 0.548161,-0.66756 0.944356,-0.66756 z"
         style="font-weight:bold;font-family:'Fira Code';-inkscape-font-specification:'Fira Code, Bold'"
         id="path2866" />
      <path
         d="m 58.639576,208.76005 v 2.81136 c -0.34735,-0.34735 -0.792391,-0.53188 -1.307988,-0.53188 -1.421961,0 -2.295762,1.28085 -2.295762,3.05559 0,1.85615 0.683844,3.08273 2.11666,3.08273 0.7544,0 1.275424,-0.36906 1.595636,-0.81953 l 0.08684,0.635 h 1.519653 v -8.05417 z m -0.846664,3.5332 c 0.352776,0 0.607861,0.17367 0.846664,0.47217 v 2.48572 c -0.249658,0.41248 -0.559016,0.66756 -0.944356,0.66756 -0.521024,0 -0.890083,-0.39076 -0.890083,-1.81272 0,-1.29714 0.390768,-1.81273 0.987775,-1.81273 z"
         style="font-weight:bold;font-family:'Fira Code';-inkscape-font-specification:'Fira Code, Bold'"
         id="path2868" />
      <path
         d="m 66.726307,215.33255 v -2.25777 c 0,-1.31884 -0.803245,-2.03525 -2.518282,-2.03525 -0.640426,0 -1.503372,0.14654 -2.246916,0.42876 l 0.396195,1.13974 c 0.575297,-0.19538 1.210295,-0.30393 1.579354,-0.30393 0.743545,0 1.13974,0.28222 1.13974,0.88466 v 0.21709 h -0.776109 c -1.780165,0 -2.805931,0.71098 -2.805931,1.95927 0,1.06375 0.759827,1.81273 1.948413,1.81273 0.716408,0 1.454525,-0.24966 1.899566,-0.78154 0.26594,0.47761 0.73269,0.6947 1.411107,0.75983 l 0.352777,-1.12889 c -0.271367,-0.0977 -0.379914,-0.26051 -0.379914,-0.6947 z m -2.691957,0.61872 c -0.48846,0 -0.770681,-0.26051 -0.770681,-0.70555 0,-0.56445 0.434186,-0.86295 1.389397,-0.86295 h 0.423332 v 0.9335 c -0.211666,0.40705 -0.672989,0.635 -1.042048,0.635 z"
         style="font-weight:bold;font-family:'Fira Code';-inkscape-font-specification:'Fira Code, Bold'"
         id="path2870" />
      <path
         d="m 73.575606,216.65682 -0.56987,-1.09089 c -0.271367,0.15196 -0.607861,0.26051 -1.009484,0.26051 -0.56987,0 -0.819527,-0.22252 -0.819527,-0.79782 v -2.61597 h 1.6879 l 0.168248,-1.18316 h -1.856148 v -1.45453 l -1.715038,0.20624 v 1.24829 h -1.210295 v 1.18316 h 1.210295 v 2.61597 c 0,1.32427 0.716408,2.14923 2.225207,2.14923 0.797818,0 1.438243,-0.22795 1.888712,-0.52103 z"
         style="font-weight:bold;font-family:'Fira Code';-inkscape-font-specification:'Fira Code, Bold'"
         id="path2872" />
      <path
         d="m 76.386969,214.61072 h 3.734005 c 0.02171,-0.17368 0.03256,-0.41791 0.03256,-0.61329 0,-1.85615 -1.05833,-2.9579 -2.702812,-2.9579 -1.812729,0 -2.811359,1.37312 -2.811359,3.0773 0,1.79102 1.014912,3.06102 2.995888,3.06102 0.982348,0 1.758456,-0.32564 2.30119,-0.79239 l -0.689272,-0.93351 c -0.455896,0.29308 -0.949783,0.47761 -1.476234,0.47761 -0.73269,0 -1.269996,-0.37449 -1.38397,-1.31884 z m 1.063757,-2.42059 c 0.73269,0 1.020339,0.55358 1.031193,1.38939 h -2.11666 c 0.07598,-0.96606 0.472178,-1.38939 1.085467,-1.38939 z"
         style="font-weight:bold;font-family:'Fira Code';-inkscape-font-specification:'Fira Code, Bold'"
         id="path2874" />
      <path
         d="m 91.740903,215.69618 v -6.22515 h -1.519654 l -2.426017,1.47624 0.727262,1.17773 1.54679,-0.96607 v 4.53725 h -1.812729 v 1.29714 h 4.890027 v -1.29714 z"
         style="font-weight:bold;font-family:'Fira Code';-inkscape-font-specification:'Fira Code, Bold'"
         id="path2876" />
    </g>
    <rect
       style="fill:#4a96dc;fill-opacity:1;stroke:none;stroke-width:0.221262"
       id="rect31-43-5"
       width="44.459911"
       height="13.063061"
       x="120.89683"
       y="205.10861"
       ry="2.7702386"
       inkscape:export-filename="/home/carter/code/bevy-website/content/news/2021-12-30-bevy-0.6/pipelined_rendering_stages.png"
       inkscape:export-xdpi="70.989998"
       inkscape:export-ydpi="70.989998" />
    <g
       aria-label="Update 2"
       id="text4713-3-9"
       style="font-size:10.5833px;line-height:52.9167px;letter-spacing:0px;word-spacing:0px;fill:#ececec;stroke-width:0.264583px"
       transform="matrix(0.73993567,0,0,0.73993567,9.7644172,53.341432)">
      <path
         d="m 160.3873,209.47103 h -1.78559 v 4.34187 c 0,1.35141 -0.15197,2.04068 -1.01491,2.04068 -0.86295,0 -1.01491,-0.68927 -1.01491,-2.04068 v -4.34187 h -1.7856 v 5.004 c 0,1.60649 0.92265,2.70282 2.80051,2.70282 1.867,0 2.8005,-1.16145 2.8005,-2.70282 z"
         style="font-weight:bold;font-family:'Fira Code';-inkscape-font-specification:'Fira Code, Bold'"
         id="path2879" />
      <path
         d="m 164.7943,211.03953 c -0.54273,0 -1.12888,0.2388 -1.59563,0.83581 l -0.076,-0.64585 h -1.51965 v 8.16814 l 1.71504,-0.17911 v -2.64311 c 0.34735,0.3962 0.80324,0.60244 1.36768,0.60244 1.40568,0 2.21436,-1.30256 2.21436,-3.08273 0,-1.87243 -0.60244,-3.05559 -2.10581,-3.05559 z m -0.53188,1.26457 c 0.54274,0 0.86838,0.37991 0.86838,1.81273 0,1.29713 -0.35821,1.80187 -0.96607,1.80187 -0.36363,0 -0.60786,-0.16282 -0.84666,-0.51559 v -2.43145 c 0.24965,-0.41247 0.54816,-0.66756 0.94435,-0.66756 z"
         style="font-weight:bold;font-family:'Fira Code';-inkscape-font-specification:'Fira Code, Bold'"
         id="path2881" />
      <path
         d="m 171.39394,208.76005 v 2.81136 c -0.34735,-0.34735 -0.79239,-0.53188 -1.30798,-0.53188 -1.42197,0 -2.29577,1.28085 -2.29577,3.05559 0,1.85615 0.68385,3.08273 2.11666,3.08273 0.7544,0 1.27543,-0.36906 1.59564,-0.81953 l 0.0868,0.635 h 1.51965 v -8.05417 z m -0.84666,3.5332 c 0.35278,0 0.60786,0.17367 0.84666,0.47217 v 2.48572 c -0.24965,0.41248 -0.55901,0.66756 -0.94435,0.66756 -0.52103,0 -0.89009,-0.39076 -0.89009,-1.81272 0,-1.29714 0.39077,-1.81273 0.98778,-1.81273 z"
         style="font-weight:bold;font-family:'Fira Code';-inkscape-font-specification:'Fira Code, Bold'"
         id="path2883" />
      <path
         d="m 179.48068,215.33255 v -2.25777 c 0,-1.31884 -0.80325,-2.03525 -2.51829,-2.03525 -0.64042,0 -1.50337,0.14654 -2.24691,0.42876 l 0.39619,1.13974 c 0.5753,-0.19538 1.2103,-0.30393 1.57936,-0.30393 0.74354,0 1.13974,0.28222 1.13974,0.88466 v 0.21709 h -0.77611 c -1.78017,0 -2.80593,0.71098 -2.80593,1.95927 0,1.06375 0.75982,1.81273 1.94841,1.81273 0.71641,0 1.45452,-0.24966 1.89957,-0.78154 0.26593,0.47761 0.73269,0.6947 1.4111,0.75983 l 0.35278,-1.12889 c -0.27137,-0.0977 -0.37991,-0.26051 -0.37991,-0.6947 z m -2.69196,0.61872 c -0.48846,0 -0.77068,-0.26051 -0.77068,-0.70555 0,-0.56445 0.43418,-0.86295 1.38939,-0.86295 h 0.42334 v 0.9335 c -0.21167,0.40705 -0.67299,0.635 -1.04205,0.635 z"
         style="font-weight:bold;font-family:'Fira Code';-inkscape-font-specification:'Fira Code, Bold'"
         id="path2885" />
      <path
         d="m 186.32997,216.65682 -0.56987,-1.09089 c -0.27136,0.15196 -0.60786,0.26051 -1.00948,0.26051 -0.56987,0 -0.81953,-0.22252 -0.81953,-0.79782 v -2.61597 h 1.6879 l 0.16825,-1.18316 h -1.85615 v -1.45453 l -1.71503,0.20624 v 1.24829 h -1.2103 v 1.18316 h 1.2103 v 2.61597 c 0,1.32427 0.7164,2.14923 2.2252,2.14923 0.79782,0 1.43825,-0.22795 1.88871,-0.52103 z"
         style="font-weight:bold;font-family:'Fira Code';-inkscape-font-specification:'Fira Code, Bold'"
         id="path2887" />
      <path
         d="m 189.14134,214.61072 h 3.734 c 0.0217,-0.17368 0.0326,-0.41791 0.0326,-0.61329 0,-1.85615 -1.05833,-2.9579 -2.70282,-2.9579 -1.81273,0 -2.81135,1.37312 -2.81135,3.0773 0,1.79102 1.01491,3.06102 2.99588,3.06102 0.98235,0 1.75846,-0.32564 2.30119,-0.79239 l -0.68927,-0.93351 c -0.45589,0.29308 -0.94978,0.47761 -1.47623,0.47761 -0.73269,0 -1.27,-0.37449 -1.38397,-1.31884 z m 1.06375,-2.42059 c 0.73269,0 1.02034,0.55358 1.0312,1.38939 h -2.11666 c 0.076,-0.96606 0.47218,-1.38939 1.08546,-1.38939 z"
         style="font-weight:bold;font-family:'Fira Code';-inkscape-font-specification:'Fira Code, Bold'"
         id="path2889" />
      <path
         d="m 202.91592,209.28108 c -1.2103,0 -2.00269,0.50474 -2.56713,1.28627 l 1.0529,0.79239 c 0.39077,-0.53187 0.78154,-0.75982 1.35141,-0.75982 0.64585,0 1.00948,0.37991 1.00948,0.98777 0,0.89551 -0.78696,1.79645 -3.26183,4.1899 v 1.21573 h 4.99858 l 0.18453,-1.30799 h -3.21298 c 2.2849,-2.04611 3.0393,-3.02845 3.0393,-4.2496 0,-1.1506 -0.87923,-2.15465 -2.59426,-2.15465 z"
         style="font-weight:bold;font-family:'Fira Code';-inkscape-font-specification:'Fira Code, Bold'"
         id="path2891" />
    </g>
    <rect
       style="fill:#4a9674;fill-opacity:1;stroke:none;stroke-width:0.221262"
       id="rect31-4-8"
       width="38.922203"
       height="13.063055"
       x="82.006081"
       y="218.21204"
       ry="2.7702386"
       inkscape:export-filename="/home/carter/code/bevy-website/content/news/2021-12-30-bevy-0.6/pipelined_rendering_stages.png"
       inkscape:export-xdpi="70.989998"
       inkscape:export-ydpi="70.989998" />
    <rect
       style="fill:#4a9674;fill-opacity:1;stroke:none;stroke-width:0.221262"
       id="rect31-4-8-4"
       width="38.922203"
       height="13.063055"
       x="120.92827"
       y="218.21204"
       ry="2.7702386"
       inkscape:export-filename="/home/carter/code/bevy-website/content/news/2021-12-30-bevy-0.6/pipelined_rendering_stages.png"
       inkscape:export-xdpi="70.989998"
       inkscape:export-ydpi="70.989998" />
    <g
       aria-label="Extract"
       id="text4713-4-6"
       style="font-size:10.5833px;line-height:52.9167px;letter-spacing:0px;word-spacing:0px;fill:#ececec;stroke-width:0.264583px"
       transform="matrix(0.73993567,0,0,0.73993567,9.7644172,53.341432)">
      <path
         d="m 104.45186,228.44991 h 2.95789 l 0.17911,-1.27 h -4.91717 v 7.52228 h 4.92259 v -1.27542 h -3.14242 v -1.92128 h 2.60512 v -1.24828 h -2.60512 z"
         style="font-weight:bold;font-family:'Fira Code';-inkscape-font-specification:'Fira Code, Bold'"
         id="path2894" />
      <path
         d="m 110.26996,234.70219 1.09632,-2.15465 1.13974,2.15465 h 1.94299 l -1.9864,-3.09358 1.69332,-2.67024 h -1.82358 l -0.89008,1.84529 -0.92265,-1.84529 h -1.92127 l 1.79101,2.73537 -1.97554,3.02845 z"
         style="font-weight:bold;font-family:'Fira Code';-inkscape-font-specification:'Fira Code, Bold'"
         id="path2896" />
      <path
         d="m 120.63617,234.3657 -0.56987,-1.09089 c -0.27136,0.15196 -0.60786,0.26051 -1.00948,0.26051 -0.56987,0 -0.81953,-0.22252 -0.81953,-0.79782 v -2.61597 h 1.6879 l 0.16825,-1.18316 h -1.85615 v -1.45453 l -1.71503,0.20624 v 1.24829 h -1.2103 v 1.18316 h 1.2103 v 2.61597 c 0,1.32427 0.7164,2.14922 2.2252,2.14922 0.79782,0 1.43825,-0.22794 1.88871,-0.52102 z"
         style="font-weight:bold;font-family:'Fira Code';-inkscape-font-specification:'Fira Code, Bold'"
         id="path2898" />
      <path
         d="m 126.36202,228.76469 c -0.92808,0 -1.55222,0.48303 -1.9647,1.47081 l -0.31478,-1.29713 h -2.06782 v 1.13974 h 0.75983 v 3.47349 h -0.75983 v 1.15059 h 3.61461 v -1.15059 h -1.13974 v -1.64991 c 0.27136,-0.85752 0.77611,-1.49794 1.42739,-1.61734 v 1.06375 h 1.07461 l 0.32021,-2.40973 c -0.27137,-0.10855 -0.55902,-0.17368 -0.94978,-0.17368 z"
         style="font-weight:bold;font-family:'Fira Code';-inkscape-font-specification:'Fira Code, Bold'"
         id="path2900" />
      <path
         d="m 133.32529,233.04143 v -2.25777 c 0,-1.31884 -0.80325,-2.03525 -2.51828,-2.03525 -0.64043,0 -1.50337,0.14654 -2.24692,0.42876 l 0.3962,1.13974 c 0.57529,-0.19538 1.21029,-0.30393 1.57935,-0.30393 0.74354,0 1.13974,0.28222 1.13974,0.88465 v 0.2171 h -0.77611 c -1.78016,0 -2.80593,0.71098 -2.80593,1.95926 0,1.06376 0.75983,1.81273 1.94841,1.81273 0.71641,0 1.45453,-0.24965 1.89957,-0.78153 0.26594,0.4776 0.73269,0.6947 1.41111,0.75982 l 0.35277,-1.12888 c -0.27136,-0.0977 -0.37991,-0.26051 -0.37991,-0.6947 z m -2.69196,0.61872 c -0.48846,0 -0.77068,-0.26052 -0.77068,-0.70556 0,-0.56444 0.43419,-0.86294 1.3894,-0.86294 h 0.42333 v 0.9335 c -0.21167,0.40705 -0.67299,0.635 -1.04205,0.635 z"
         style="font-weight:bold;font-family:'Fira Code';-inkscape-font-specification:'Fira Code, Bold'"
         id="path2902" />
      <path
         d="m 138.04165,233.53532 c -0.73269,0 -1.28085,-0.40163 -1.28085,-1.67705 0,-1.29713 0.51559,-1.79102 1.2917,-1.79102 0.46675,0 0.90637,0.16282 1.29713,0.43419 l 0.74355,-1.03119 c -0.5753,-0.47761 -1.23743,-0.72184 -2.11123,-0.72184 -1.85615,0 -3.01217,1.30799 -3.01217,3.10986 0,1.80188 1.11803,3.02845 2.9796,3.02845 0.89551,0 1.63363,-0.32564 2.1438,-0.75982 l -0.76526,-1.08547 c -0.41247,0.28765 -0.8141,0.49389 -1.28627,0.49389 z"
         style="font-weight:bold;font-family:'Fira Code';-inkscape-font-specification:'Fira Code, Bold'"
         id="path2904" />
      <path
         d="m 146.68739,234.3657 -0.56987,-1.09089 c -0.27136,0.15196 -0.60786,0.26051 -1.00948,0.26051 -0.56987,0 -0.81953,-0.22252 -0.81953,-0.79782 v -2.61597 h 1.6879 l 0.16825,-1.18316 h -1.85615 v -1.45453 l -1.71503,0.20624 v 1.24829 h -1.2103 v 1.18316 h 1.2103 v 2.61597 c 0,1.32427 0.7164,2.14922 2.2252,2.14922 0.79782,0 1.43825,-0.22794 1.88871,-0.52102 z"
         style="font-weight:bold;font-family:'Fira Code';-inkscape-font-specification:'Fira Code, Bold'"
         id="path2906" />
    </g>
    <g
       aria-label="Prepare"
       id="text4713-4-6-8"
       style="font-size:10.5833px;line-height:52.9167px;letter-spacing:0px;word-spacing:0px;fill:#ececec;stroke-width:0.264583px"
       transform="matrix(0.73993567,0,0,0.73993567,9.7644172,53.341432)">
      <path
         d="m 159.08753,229.62764 c 0,-1.64448 -1.1723,-2.44773 -3.21298,-2.44773 h -2.36631 v 7.52228 h 1.78016 v -2.502 h 0.8141 c 1.78017,0 2.98503,-0.82495 2.98503,-2.57255 z m -1.83443,0.005 c 0,0.88465 -0.47218,1.27542 -1.26457,1.27542 h -0.70013 v -2.45858 h 0.60786 c 0.90637,0 1.35684,0.37991 1.35684,1.18316 z"
         style="font-weight:bold;font-family:'Fira Code';-inkscape-font-specification:'Fira Code, Bold'"
         id="path2909" />
      <path
         d="m 164.50402,228.76469 c -0.92808,0 -1.55222,0.48303 -1.9647,1.47081 l -0.31478,-1.29713 h -2.06782 v 1.13974 h 0.75983 v 3.47349 h -0.75983 v 1.15059 h 3.61461 v -1.15059 h -1.13974 v -1.64991 c 0.27136,-0.85752 0.77611,-1.49794 1.42739,-1.61734 v 1.06375 h 1.07461 l 0.32021,-2.40973 c -0.27137,-0.10855 -0.55901,-0.17368 -0.94978,-0.17368 z"
         style="font-weight:bold;font-family:'Fira Code';-inkscape-font-specification:'Fira Code, Bold'"
         id="path2911" />
      <path
         d="m 168.10234,232.31959 h 3.73401 c 0.0217,-0.17367 0.0326,-0.4179 0.0326,-0.61328 0,-1.85615 -1.05833,-2.9579 -2.70281,-2.9579 -1.81273,0 -2.81136,1.37312 -2.81136,3.0773 0,1.79102 1.01491,3.06101 2.99589,3.06101 0.98235,0 1.75846,-0.32564 2.30119,-0.79239 l -0.68927,-0.9335 c -0.4559,0.29308 -0.94979,0.47761 -1.47624,0.47761 -0.73269,0 -1.26999,-0.37449 -1.38397,-1.31885 z m 1.06376,-2.42059 c 0.73269,0 1.02034,0.55359 1.03119,1.3894 h -2.11666 c 0.076,-0.96606 0.47218,-1.3894 1.08547,-1.3894 z"
         style="font-weight:bold;font-family:'Fira Code';-inkscape-font-specification:'Fira Code, Bold'"
         id="path2913" />
      <path
         d="m 176.31933,228.74841 c -0.54273,0 -1.12888,0.2388 -1.59563,0.83581 l -0.076,-0.64585 h -1.51965 v 8.16813 l 1.71504,-0.1791 v -2.64311 c 0.34735,0.39619 0.80324,0.60243 1.36768,0.60243 1.40568,0 2.21436,-1.30256 2.21436,-3.08272 0,-1.87243 -0.60244,-3.05559 -2.10581,-3.05559 z m -0.53188,1.26457 c 0.54274,0 0.86838,0.37991 0.86838,1.81273 0,1.29713 -0.35821,1.80187 -0.96607,1.80187 -0.36363,0 -0.60786,-0.16282 -0.84666,-0.51559 v -2.43145 c 0.24965,-0.41248 0.54816,-0.66756 0.94435,-0.66756 z"
         style="font-weight:bold;font-family:'Fira Code';-inkscape-font-specification:'Fira Code, Bold'"
         id="path2915" />
      <path
         d="m 184.4929,233.04143 v -2.25777 c 0,-1.31884 -0.80325,-2.03525 -2.51828,-2.03525 -0.64043,0 -1.50337,0.14654 -2.24692,0.42876 l 0.3962,1.13974 c 0.57529,-0.19538 1.21029,-0.30393 1.57935,-0.30393 0.74354,0 1.13974,0.28222 1.13974,0.88465 v 0.2171 h -0.77611 c -1.78016,0 -2.80593,0.71098 -2.80593,1.95926 0,1.06376 0.75983,1.81273 1.94841,1.81273 0.71641,0 1.45453,-0.24965 1.89957,-0.78153 0.26594,0.4776 0.73269,0.6947 1.41111,0.75982 l 0.35277,-1.12888 c -0.27136,-0.0977 -0.37991,-0.26051 -0.37991,-0.6947 z m -2.69196,0.61872 c -0.48846,0 -0.77068,-0.26052 -0.77068,-0.70556 0,-0.56444 0.43419,-0.86294 1.3894,-0.86294 h 0.42333 v 0.9335 c -0.21167,0.40705 -0.67299,0.635 -1.04205,0.635 z"
         style="font-weight:bold;font-family:'Fira Code';-inkscape-font-specification:'Fira Code, Bold'"
         id="path2917" />
      <path
         d="m 190.55523,228.76469 c -0.92807,0 -1.55221,0.48303 -1.96469,1.47081 l -0.31479,-1.29713 h -2.06781 v 1.13974 h 0.75983 v 3.47349 h -0.75983 v 1.15059 h 3.6146 v -1.15059 h -1.13974 v -1.64991 c 0.27137,-0.85752 0.77611,-1.49794 1.42739,-1.61734 v 1.06375 h 1.07462 l 0.32021,-2.40973 c -0.27137,-0.10855 -0.55902,-0.17368 -0.94979,-0.17368 z"
         style="font-weight:bold;font-family:'Fira Code';-inkscape-font-specification:'Fira Code, Bold'"
         id="path2919" />
      <path
         d="m 194.15356,232.31959 h 3.73401 c 0.0217,-0.17367 0.0326,-0.4179 0.0326,-0.61328 0,-1.85615 -1.05833,-2.9579 -2.70281,-2.9579 -1.81273,0 -2.81136,1.37312 -2.81136,3.0773 0,1.79102 1.01491,3.06101 2.99589,3.06101 0.98235,0 1.75846,-0.32564 2.30119,-0.79239 l -0.68927,-0.9335 c -0.4559,0.29308 -0.94979,0.47761 -1.47624,0.47761 -0.73269,0 -1.26999,-0.37449 -1.38397,-1.31885 z m 1.06376,-2.42059 c 0.73269,0 1.02034,0.55359 1.03119,1.3894 h -2.11666 c 0.076,-0.96606 0.47218,-1.3894 1.08547,-1.3894 z"
         style="font-weight:bold;font-family:'Fira Code';-inkscape-font-specification:'Fira Code, Bold'"
         id="path2921" />
    </g>
    <rect
       style="fill:#4a9674;fill-opacity:1;stroke:none;stroke-width:0.221262"
       id="rect31-4-8-4-7"
       width="29.028727"
       height="13.063055"
       x="159.85048"
       y="218.21204"
       ry="2.7702386"
       inkscape:export-filename="/home/carter/code/bevy-website/content/news/2021-12-30-bevy-0.6/pipelined_rendering_stages.png"
       inkscape:export-xdpi="70.989998"
       inkscape:export-ydpi="70.989998" />
    <g
       aria-label="Queue"
       id="text4713-4-6-8-7"
       style="font-size:10.5833px;line-height:52.9167px;letter-spacing:0px;word-spacing:0px;fill:#ececec;stroke-width:0.264583px"
       transform="matrix(0.73993567,0,0,0.73993567,9.7644172,53.341432)">
      <path
         d="m 211.66797,230.93563 c 0,-2.43688 -0.97692,-3.94568 -2.94705,-3.94568 -1.97012,0 -2.93618,1.56308 -2.93618,3.94568 0,2.44229 0.91179,3.91853 2.79507,3.91853 1.31342,0 1.80188,0.59701 2.27948,1.72589 l 1.45453,-0.49389 c -0.41248,-1.21572 -1.0529,-1.61734 -2.23063,-1.81273 1.19401,-0.60786 1.58478,-1.85614 1.58478,-3.3378 z m -1.85615,0 c 0,1.82901 -0.22252,2.64853 -1.0909,2.64853 -0.8358,0 -1.09632,-0.80867 -1.09632,-2.64853 0,-1.82902 0.24966,-2.63769 1.09632,-2.63769 0.85752,0 1.0909,0.79782 1.0909,2.63769 z"
         style="font-weight:bold;font-family:'Fira Code';-inkscape-font-specification:'Fira Code, Bold'"
         id="path2924" />
      <path
         d="m 214.41963,228.93837 h -1.71504 v 4.15733 c 0,1.09632 0.53188,1.79102 1.64991,1.79102 0.6947,0 1.37854,-0.29307 1.76931,-0.85752 l 0.076,0.67299 h 1.49795 v -5.76382 h -1.71504 v 4.05421 c -0.2388,0.38534 -0.62414,0.62415 -0.97692,0.62415 -0.36906,0 -0.58615,-0.17368 -0.58615,-0.73269 z"
         style="font-weight:bold;font-family:'Fira Code';-inkscape-font-specification:'Fira Code, Bold'"
         id="path2926" />
      <path
         d="m 220.70449,232.31959 h 3.734 c 0.0217,-0.17367 0.0326,-0.4179 0.0326,-0.61328 0,-1.85615 -1.05833,-2.9579 -2.70282,-2.9579 -1.81273,0 -2.81136,1.37312 -2.81136,3.0773 0,1.79102 1.01492,3.06101 2.99589,3.06101 0.98235,0 1.75846,-0.32564 2.30119,-0.79239 l -0.68927,-0.9335 c -0.4559,0.29308 -0.94978,0.47761 -1.47623,0.47761 -0.73269,0 -1.27,-0.37449 -1.38397,-1.31885 z m 1.06375,-2.42059 c 0.73269,0 1.02034,0.55359 1.0312,1.3894 h -2.11666 c 0.076,-0.96606 0.47217,-1.3894 1.08546,-1.3894 z"
         style="font-weight:bold;font-family:'Fira Code';-inkscape-font-specification:'Fira Code, Bold'"
         id="path2928" />
      <path
         d="m 227.44524,228.93837 h -1.71504 v 4.15733 c 0,1.09632 0.53188,1.79102 1.64991,1.79102 0.6947,0 1.37854,-0.29307 1.76931,-0.85752 l 0.076,0.67299 h 1.49795 v -5.76382 h -1.71504 v 4.05421 c -0.2388,0.38534 -0.62414,0.62415 -0.97692,0.62415 -0.36906,0 -0.58615,-0.17368 -0.58615,-0.73269 z"
         style="font-weight:bold;font-family:'Fira Code';-inkscape-font-specification:'Fira Code, Bold'"
         id="path2930" />
      <path
         d="m 233.7301,232.31959 h 3.734 c 0.0217,-0.17367 0.0326,-0.4179 0.0326,-0.61328 0,-1.85615 -1.05833,-2.9579 -2.70281,-2.9579 -1.81273,0 -2.81136,1.37312 -2.81136,3.0773 0,1.79102 1.01492,3.06101 2.99589,3.06101 0.98235,0 1.75846,-0.32564 2.30119,-0.79239 l -0.68927,-0.9335 c -0.4559,0.29308 -0.94978,0.47761 -1.47624,0.47761 -0.73269,0 -1.26999,-0.37449 -1.38396,-1.31885 z m 1.06375,-2.42059 c 0.73269,0 1.02034,0.55359 1.0312,1.3894 h -2.11666 c 0.076,-0.96606 0.47217,-1.3894 1.08546,-1.3894 z"
         style="font-weight:bold;font-family:'Fira Code';-inkscape-font-specification:'Fira Code, Bold'"
         id="path2932" />
    </g>
    <rect
       style="fill:#4a9674;fill-opacity:1;stroke:none;stroke-width:0.221262"
       id="rect31-4-8-4-7-2"
       width="32.953117"
       height="13.063055"
       x="188.87921"
       y="218.21204"
       ry="2.7702386"
       inkscape:export-filename="/home/carter/code/bevy-website/content/news/2021-12-30-bevy-0.6/pipelined_rendering_stages.png"
       inkscape:export-xdpi="70.989998"
       inkscape:export-ydpi="70.989998" />
    <g
       aria-label="Render"
       id="text4713-4-6-8-7-5"
       style="font-size:10.5833px;line-height:52.9167px;letter-spacing:0px;word-spacing:0px;fill:#ececec;stroke-width:0.264583px"
       transform="matrix(0.73993567,0,0,0.73993567,9.7644172,53.341432)">
      <path
         d="m 250.75827,229.46482 c 0,-1.55765 -1.0529,-2.28491 -3.09901,-2.28491 h -2.36631 v 7.52228 h 1.78016 v -2.87648 h 0.50474 l 1.6282,2.87648 h 2.01354 l -1.97012,-3.17499 c 0.84124,-0.33106 1.5088,-0.98234 1.5088,-2.06238 z m -1.83444,0 c 0,0.79782 -0.4179,1.13974 -1.18858,1.13974 h -0.66214 v -2.17636 h 0.59158 c 0.83038,0 1.25914,0.31478 1.25914,1.03662 z"
         style="font-weight:bold;font-family:'Fira Code';-inkscape-font-specification:'Fira Code, Bold'"
         id="path2935" />
      <path
         d="m 253.4231,232.31959 h 3.734 c 0.0217,-0.17367 0.0326,-0.4179 0.0326,-0.61328 0,-1.85615 -1.05833,-2.9579 -2.70282,-2.9579 -1.81273,0 -2.81135,1.37312 -2.81135,3.0773 0,1.79102 1.01491,3.06101 2.99588,3.06101 0.98235,0 1.75846,-0.32564 2.30119,-0.79239 l -0.68927,-0.9335 c -0.4559,0.29308 -0.94978,0.47761 -1.47623,0.47761 -0.73269,0 -1.27,-0.37449 -1.38397,-1.31885 z m 1.06375,-2.42059 c 0.73269,0 1.02034,0.55359 1.0312,1.3894 h -2.11666 c 0.076,-0.96606 0.47217,-1.3894 1.08546,-1.3894 z"
         style="font-weight:bold;font-family:'Fira Code';-inkscape-font-specification:'Fira Code, Bold'"
         id="path2937" />
      <path
         d="m 258.44881,234.70219 h 1.71504 v -4.0325 c 0.32564,-0.41248 0.64585,-0.65671 1.00948,-0.65671 0.42333,0 0.55359,0.24423 0.55359,0.94978 v 3.73943 h 1.71504 v -4.23332 c 0,-1.09089 -0.60244,-1.72046 -1.58478,-1.72046 -0.73269,0 -1.28085,0.28222 -1.79102,0.85752 l -0.1194,-0.66756 h -1.49795 z"
         style="font-weight:bold;font-family:'Fira Code';-inkscape-font-specification:'Fira Code, Bold'"
         id="path2939" />
      <path
         d="m 268.23973,226.46893 v 2.81136 c -0.34735,-0.34735 -0.79239,-0.53188 -1.30799,-0.53188 -1.42196,0 -2.29576,1.28085 -2.29576,3.05559 0,1.85615 0.68384,3.08272 2.11666,3.08272 0.7544,0 1.27542,-0.36906 1.59563,-0.81952 l 0.0868,0.63499 h 1.51965 v -8.05416 z m -0.84667,3.53319 c 0.35278,0 0.60786,0.17368 0.84667,0.47218 v 2.48572 c -0.24966,0.41248 -0.55902,0.66756 -0.94436,0.66756 -0.52102,0 -0.89008,-0.39077 -0.89008,-1.81273 0,-1.29713 0.39077,-1.81273 0.98777,-1.81273 z"
         style="font-weight:bold;font-family:'Fira Code';-inkscape-font-specification:'Fira Code, Bold'"
         id="path2941" />
      <path
         d="m 272.96151,232.31959 h 3.73401 c 0.0217,-0.17367 0.0326,-0.4179 0.0326,-0.61328 0,-1.85615 -1.05833,-2.9579 -2.70281,-2.9579 -1.81273,0 -2.81136,1.37312 -2.81136,3.0773 0,1.79102 1.01491,3.06101 2.99589,3.06101 0.98234,0 1.75845,-0.32564 2.30119,-0.79239 l -0.68928,-0.9335 c -0.45589,0.29308 -0.94978,0.47761 -1.47623,0.47761 -0.73269,0 -1.27,-0.37449 -1.38397,-1.31885 z m 1.06376,-2.42059 c 0.73269,0 1.02034,0.55359 1.03119,1.3894 h -2.11666 c 0.076,-0.96606 0.47218,-1.3894 1.08547,-1.3894 z"
         style="font-weight:bold;font-family:'Fira Code';-inkscape-font-specification:'Fira Code, Bold'"
         id="path2943" />
      <path
         d="m 282.38879,228.76469 c -0.92807,0 -1.55222,0.48303 -1.96469,1.47081 l -0.31479,-1.29713 h -2.06781 v 1.13974 h 0.75982 v 3.47349 h -0.75982 v 1.15059 h 3.6146 v -1.15059 h -1.13974 v -1.64991 c 0.27137,-0.85752 0.77611,-1.49794 1.42739,-1.61734 v 1.06375 h 1.07461 l 0.32022,-2.40973 c -0.27137,-0.10855 -0.55902,-0.17368 -0.94979,-0.17368 z"
         style="font-weight:bold;font-family:'Fira Code';-inkscape-font-specification:'Fira Code, Bold'"
         id="path2945" />
    </g>
  </g>
</svg>
