<?xml version="1.0" encoding="UTF-8" standalone="no"?>
<svg
   width="160mm"
   height="90mm"
   viewBox="0 0 16000 9000"
   version="1.1"
   stroke-width="28.222"
   stroke-linejoin="round"
   xml:space="preserve"
   id="svg328"
   sodipodi:docname="unstable_sort.svg"
   inkscape:version="1.2 (dc2aedaf03, 2022-05-15)"
   xmlns:inkscape="http://www.inkscape.org/namespaces/inkscape"
   xmlns:sodipodi="http://sodipodi.sourceforge.net/DTD/sodipodi-0.dtd"
   xmlns="http://www.w3.org/2000/svg"
   xmlns:svg="http://www.w3.org/2000/svg"><defs
   id="defs332" /><sodipodi:namedview
   id="namedview330"
   pagecolor="#ffffff"
   bordercolor="#666666"
   borderopacity="1.0"
   inkscape:showpageshadow="2"
   inkscape:pageopacity="0.0"
   inkscape:pagecheckerboard="0"
   inkscape:deskcolor="#d1d1d1"
   inkscape:document-units="mm"
   showgrid="false"
   inkscape:zoom="2.1861198"
   inkscape:cx="228.02959"
   inkscape:cy="257.3052"
   inkscape:window-width="3440"
   inkscape:window-height="1440"
   inkscape:window-x="0"
   inkscape:window-y="0"
   inkscape:window-maximized="1"
   inkscape:current-layer="svg328" />
 
 
 <path
   fill="rgb(0,69,134)"
   stroke="none"
   d="M 10178,8158 L 13836,8158 13836,7034 10178,7034 10178,8158 Z"
   id="path220"
   style="fill:#4a96dc;fill-opacity:1" /><path
   fill="rgb(0,69,134)"
   stroke="none"
   d="M 2863,8158 L 6521,8158 6521,1089 2863,1089 2863,8158 Z"
   id="path222"
   style="fill:#474747;fill-opacity:1" /><path
   fill="none"
   stroke="rgb(179,179,179)"
   stroke-linejoin="round"
   d="M 1034,8308 L 1034,8158"
   id="path160"
   style="fill:none;fill-opacity:1;stroke:#ececec;stroke-opacity:1" />
 <path
   fill="none"
   stroke="rgb(179,179,179)"
   stroke-linejoin="round"
   d="M 1034,8308 L 1034,8158"
   id="path162"
   style="fill:none;fill-opacity:1;stroke:#ececec;stroke-opacity:1" />
 <path
   fill="none"
   stroke="rgb(179,179,179)"
   stroke-linejoin="round"
   d="M 8349,8308 L 8349,8158"
   id="path164"
   style="stroke:#ececec;stroke-opacity:1" />
 <path
   fill="none"
   stroke="rgb(179,179,179)"
   stroke-linejoin="round"
   d="M 8349,8308 L 8349,8158"
   id="path166"
   style="stroke:#ececec;stroke-opacity:1" />
 <path
   fill="none"
   stroke="rgb(179,179,179)"
   stroke-linejoin="round"
   d="M 15666,8308 L 15666,8158"
   id="path168"
   style="stroke:#ececec;stroke-opacity:1" />
 <path
   fill="none"
   stroke="rgb(179,179,179)"
   stroke-linejoin="round"
   d="M 15666,8308 L 15666,8158"
   id="path170"
   style="stroke:#ececec;stroke-opacity:1" />
 <path
   fill="none"
   stroke="rgb(179,179,179)"
   stroke-linejoin="round"
   d="M 1034,8158 L 15666,8158"
   id="path172"
   style="stroke:#ececec;stroke-opacity:1" />
 <path
   fill="none"
   stroke="rgb(179,179,179)"
   stroke-linejoin="round"
   d="M 884,8158 L 1034,8158"
   id="path174"
   style="fill:none;fill-opacity:1;stroke:#ececec;stroke-opacity:1" />
 <path
   fill="none"
   stroke="rgb(179,179,179)"
   stroke-linejoin="round"
   d="M 884,8158 L 1034,8158"
   id="path176"
   style="fill:none;fill-opacity:1;stroke:#ececec;stroke-opacity:1" />
 <path
   fill="none"
   stroke="rgb(179,179,179)"
   stroke-linejoin="round"
   d="M 884,7378 L 1034,7378"
   id="path178"
   style="fill:none;fill-opacity:1;stroke:#ececec;stroke-opacity:1" />
 <path
   fill="none"
   stroke="rgb(179,179,179)"
   stroke-linejoin="round"
   d="M 884,7378 L 1034,7378"
   id="path180"
   style="fill:none;fill-opacity:1;stroke:#ececec;stroke-opacity:1" />
 <path
   fill="none"
   stroke="rgb(179,179,179)"
   stroke-linejoin="round"
   d="M 884,6599 L 1034,6599"
   id="path182"
   style="fill:none;fill-opacity:1;stroke:#ececec;stroke-opacity:1" />
 <path
   fill="none"
   stroke="rgb(179,179,179)"
   stroke-linejoin="round"
   d="M 884,6599 L 1034,6599"
   id="path184"
   style="fill:none;fill-opacity:1;stroke:#ececec;stroke-opacity:1" />
 <path
   fill="none"
   stroke="rgb(179,179,179)"
   stroke-linejoin="round"
   d="M 884,5819 L 1034,5819"
   id="path186"
   style="fill:none;fill-opacity:1;stroke:#ececec;stroke-opacity:1" />
 <path
   fill="none"
   stroke="rgb(179,179,179)"
   stroke-linejoin="round"
   d="M 884,5819 L 1034,5819"
   id="path188"
   style="fill:none;fill-opacity:1;stroke:#ececec;stroke-opacity:1" />
 <path
   fill="none"
   stroke="rgb(179,179,179)"
   stroke-linejoin="round"
   d="M 884,5040 L 1034,5040"
   id="path190"
   style="fill:none;fill-opacity:1;stroke:#ececec;stroke-opacity:1" />
 <path
   fill="none"
   stroke="rgb(179,179,179)"
   stroke-linejoin="round"
   d="M 884,5040 L 1034,5040"
   id="path192"
   style="fill:none;fill-opacity:1;stroke:#ececec;stroke-opacity:1" />
 <path
   fill="none"
   stroke="rgb(179,179,179)"
   stroke-linejoin="round"
   d="M 884,4262 L 1034,4262"
   id="path194"
   style="fill:none;fill-opacity:1;stroke:#ececec;stroke-opacity:1" />
 <path
   fill="none"
   stroke="rgb(179,179,179)"
   stroke-linejoin="round"
   d="M 884,4262 L 1034,4262"
   id="path196"
   style="fill:none;fill-opacity:1;stroke:#ececec;stroke-opacity:1" />
 <path
   fill="none"
   stroke="rgb(179,179,179)"
   stroke-linejoin="round"
   d="M 884,3482 L 1034,3482"
   id="path198"
   style="fill:none;fill-opacity:1;stroke:#ececec;stroke-opacity:1" />
 <path
   fill="none"
   stroke="rgb(179,179,179)"
   stroke-linejoin="round"
   d="M 884,3482 L 1034,3482"
   id="path200"
   style="fill:none;fill-opacity:1;stroke:#ececec;stroke-opacity:1" />
 <path
   fill="none"
   stroke="rgb(179,179,179)"
   stroke-linejoin="round"
   d="M 884,2703 L 1034,2703"
   id="path202"
   style="fill:none;fill-opacity:1;stroke:#ececec;stroke-opacity:1" />
 <path
   fill="none"
   stroke="rgb(179,179,179)"
   stroke-linejoin="round"
   d="M 884,2703 L 1034,2703"
   id="path204"
   style="fill:none;fill-opacity:1;stroke:#ececec;stroke-opacity:1" />
 <path
   fill="none"
   stroke="rgb(179,179,179)"
   stroke-linejoin="round"
   d="M 884,1923 L 1034,1923"
   id="path206"
   style="fill:none;fill-opacity:1;stroke:#ececec;stroke-opacity:1" />
 <path
   fill="none"
   stroke="rgb(179,179,179)"
   stroke-linejoin="round"
   d="M 884,1923 L 1034,1923"
   id="path208"
   style="fill:none;fill-opacity:1;stroke:#ececec;stroke-opacity:1" />
 <path
   fill="none"
   stroke="rgb(179,179,179)"
   stroke-linejoin="round"
   d="M 884,1144 L 1034,1144"
   id="path210"
   style="fill:none;fill-opacity:1;stroke:#ececec;stroke-opacity:1" />
 <path
   fill="none"
   stroke="rgb(179,179,179)"
   stroke-linejoin="round"
   d="M 884,1144 L 1034,1144"
   id="path212"
   style="fill:none;fill-opacity:1;stroke:#ececec;stroke-opacity:1" />
 <path
   fill="none"
   stroke="rgb(179,179,179)"
   stroke-linejoin="round"
   d="M 884,365 L 1034,365"
   id="path214"
   style="fill:none;fill-opacity:1;stroke:#ececec;stroke-opacity:1" />
 <path
   fill="none"
   stroke="rgb(179,179,179)"
   stroke-linejoin="round"
   d="M 884,365 L 1034,365"
   id="path216"
   style="fill:none;fill-opacity:1;stroke:#ececec;stroke-opacity:1" />
 <path
   fill="none"
   stroke="rgb(179,179,179)"
   stroke-linejoin="round"
   d="M 1034,8158 L 1034,365"
   id="path218"
   style="fill:none;fill-opacity:1;stroke:#ececec;stroke-opacity:1" />
 
 
 <g
   aria-label="Bevy 0.7(stable sort)"
   id="text230"
   class="SVGTextShape"
   style="fill:#ececec;fill-opacity:1"><path
     d="m 3307.833,8657.5718 q 0,32.4043 -23.6138,50.5024 Q 3260.6055,8726 3218.5488,8726 h -98.5918 v -242.8599 h 88.25 q 85.4922,0 85.4922,58.9483 0,21.5454 -12.0654,36.1963 -12.0654,14.6508 -34.1279,19.6494 28.957,3.4472 44.642,19.477 15.6851,15.8575 15.6851,40.1607 z m -47.2275,-111.5191 q 0,-19.6494 -13.4444,-28.0952 -13.4443,-8.4458 -38.9541,-8.4458 h -55.3286 v 76.874 h 55.3286 q 26.3716,0 39.2989,-9.8247 13.0996,-9.997 13.0996,-30.5083 z m 13.9614,108.9336 q 0,-42.9184 -60.3272,-42.9184 h -61.3613 v 87.5605 h 63.9468 q 30.1636,0 43.9526,-11.2036 13.7891,-11.2036 13.7891,-33.4385 z"
     style="white-space:pre;fill:#ececec;fill-opacity:1"
     id="path3559" /><path
     d="m 3374.0205,8639.3013 q 0,32.0595 13.272,49.4682 13.272,17.4087 38.7817,17.4087 20.1665,0 32.232,-8.1011 12.2377,-8.101 16.5468,-20.5112 l 27.2334,7.7564 q -16.7192,44.125 -76.0122,44.125 -41.3672,0 -63.0849,-24.648 -21.5455,-24.6479 -21.5455,-73.2544 0,-46.1933 21.5455,-70.8413 21.7177,-24.6479 61.8784,-24.6479 82.2173,0 82.2173,99.1089 v 4.1367 z m 101.0049,-23.7862 q -2.5855,-29.4741 -14.9956,-42.9184 -12.4102,-13.6167 -35.6792,-13.6167 -22.5796,0 -35.8516,15.1679 -13.0996,14.9957 -14.1338,41.3672 z"
     style="white-space:pre;fill:#ececec;fill-opacity:1"
     id="path3561" /><path
     d="m 3628.4287,8726 h -36.7134 l -67.7387,-186.4971 h 33.0937 l 41.0225,121.3438 q 2.2407,6.8945 11.893,40.8501 l 6.0328,-20.1665 6.7221,-20.3389 42.4014,-121.6885 h 32.9214 z"
     style="white-space:pre;fill:#ececec;fill-opacity:1"
     id="path3563" /><path
     d="m 3732.1914,8799.2544 q -12.7549,0 -21.373,-1.896 v -23.269 q 6.5498,1.0341 14.4785,1.0341 28.957,0 45.8486,-42.5737 l 2.9302,-7.4116 -73.9439,-185.6353 h 33.0938 l 39.2988,103.0733 q 0.8618,2.4131 2.0684,5.8603 1.2065,3.2749 7.7563,22.4073 6.5498,19.1323 7.0669,21.373 l 12.0654,-33.9556 40.8501,-118.7583 h 32.7491 L 3803.3774,8726 q -11.5483,29.8188 -21.5454,44.2974 -9.997,14.6508 -22.2348,21.7177 -12.0655,7.2393 -27.4058,7.2393 z"
     style="white-space:pre;fill:#ececec;fill-opacity:1"
     id="path3565" /><path
     d="m 4156.3774,8604.4839 q 0,60.8442 -21.5454,92.9038 -21.373,32.0596 -63.2573,32.0596 -41.8843,0 -62.9126,-31.8872 -21.0283,-31.8872 -21.0283,-93.0762 0,-62.5679 20.3389,-93.7656 20.5112,-31.1978 64.6362,-31.1978 42.9184,0 63.2573,31.5425 20.5112,31.5425 20.5112,93.4209 z m -31.5424,0 q 0,-52.5708 -12.2378,-76.1846 -12.0655,-23.6138 -39.9883,-23.6138 -28.6123,0 -41.1948,23.2691 -12.4102,23.269 -12.4102,76.5293 0,51.709 12.5825,75.6675 12.7549,23.9585 40.333,23.9585 27.4058,0 40.1607,-24.4756 12.7549,-24.4756 12.7549,-75.1504 z"
     style="white-space:pre;fill:#ececec;fill-opacity:1"
     id="path3567" /><path
     d="m 4202.3984,8726 v -37.7476 h 33.6109 V 8726 Z"
     style="white-space:pre;fill:#ececec;fill-opacity:1"
     id="path3569" /><path
     d="m 4446.8096,8508.3052 q -37.2305,56.8799 -52.5708,89.1118 -15.3404,32.2319 -23.0967,63.602 -7.584,31.3702 -7.584,64.981 h -32.4043 q 0,-46.5381 19.6494,-97.9023 19.8218,-51.5367 66.0152,-118.586 h -130.479 v -26.3716 h 160.4702 z"
     style="white-space:pre;fill:#ececec;fill-opacity:1"
     id="path3571" /><path
     d="m 4486.4531,8634.3027 q 0,-49.813 15.5127,-89.4565 15.6851,-39.6436 48.0894,-74.6333 h 29.9912 q -32.2319,35.8516 -47.3999,76.1846 -14.9956,40.333 -14.9956,88.25 0,47.7446 14.8232,87.9052 14.9956,40.1607 47.5723,76.5293 h -29.9912 q -32.5767,-35.1621 -48.0894,-74.8056 -15.5127,-39.816 -15.5127,-89.2842 z"
     style="white-space:pre;fill:#ececec;fill-opacity:1"
     id="path3573" /><path
     d="m 4745.8599,8674.4634 q 0,26.3716 -19.9942,40.6777 -19.8218,14.3062 -55.6733,14.3062 -34.8174,0 -53.7774,-11.376 -18.7876,-11.5484 -24.4755,-35.8516 l 27.4057,-5.3432 q 3.9644,14.9956 16.3745,22.0625 12.4102,6.8945 34.4727,6.8945 23.6138,0 34.4726,-7.2393 11.0313,-7.2392 11.0313,-21.7177 0,-11.0313 -7.584,-17.9258 -7.584,-6.8945 -24.4756,-11.376 l -22.2348,-5.8603 q -26.7164,-6.8946 -38.0923,-13.4444 -11.2036,-6.7221 -17.5811,-16.2021 -6.3774,-9.48 -6.3774,-23.2691 0,-25.5097 18.0981,-38.7817 18.2705,-13.4443 53.0879,-13.4443 30.853,0 48.9512,10.8588 18.2705,10.8589 23.0967,34.8174 l -27.9229,3.4473 q -2.5854,-12.4102 -13.9614,-18.96 -11.2036,-6.7221 -30.1636,-6.7221 -21.0283,0 -31.0254,6.3774 -9.9971,6.3774 -9.9971,19.3047 0,7.9287 4.1368,13.0996 4.1367,5.1709 12.2378,8.7905 8.101,3.6197 34.1279,9.9971 24.6479,6.2051 35.5068,11.5483 10.8589,5.1709 17.064,11.5484 6.3774,6.3774 9.8247,14.8232 3.4473,8.2735 3.4473,18.96 z"
     style="white-space:pre;fill:#ececec;fill-opacity:1"
     id="path3575" /><path
     d="m 4854.104,8724.6211 q -15.3403,4.1367 -31.3701,4.1367 -37.2305,0 -37.2305,-42.229 v -124.4463 h -21.5454 v -22.5796 h 22.752 l 9.1352,-41.7119 h 20.6836 v 41.7119 h 34.4727 v 22.5796 h -34.4727 v 117.7241 q 0,13.4444 4.3091,18.96 4.4814,5.3433 15.3403,5.3433 6.2051,0 17.9258,-2.4131 z"
     style="white-space:pre;fill:#ececec;fill-opacity:1"
     id="path3577" /><path
     d="m 4928.0479,8729.4473 q -28.0953,0 -42.2291,-14.8233 -14.1337,-14.8232 -14.1337,-40.6777 0,-28.957 18.9599,-44.4697 19.1323,-15.5127 61.5337,-16.5469 l 41.8843,-0.6895 v -10.1694 q 0,-22.752 -9.6524,-32.5767 -9.6523,-9.8247 -30.3359,-9.8247 -20.856,0 -30.3359,7.0669 -9.48,7.0669 -11.376,22.5796 l -32.4043,-2.9302 q 7.9287,-50.33 74.8057,-50.33 35.1621,0 52.9155,16.2021 17.7534,16.0298 17.7534,46.5381 v 80.3213 q 0,13.7891 3.6196,20.8559 3.6197,6.8946 13.7891,6.8946 4.4814,0 10.1694,-1.2066 v 19.3047 q -11.7207,2.7578 -23.9585,2.7578 -17.2363,0 -25.165,-8.9629 -7.7564,-9.1352 -8.7905,-28.4399 h -1.0342 q -11.8931,21.373 -27.7505,30.3359 -15.6851,8.7906 -38.2646,8.7906 z m 7.0668,-23.2691 q 17.064,0 30.336,-7.7563 13.272,-7.7564 20.8559,-21.2007 7.7564,-13.6167 7.7564,-27.9229 v -15.3403 l -33.9556,0.6895 q -21.8901,0.3447 -33.2661,4.4814 -11.2036,4.1367 -17.2363,12.7549 -6.0327,8.6182 -6.0327,22.5796 0,15.1679 8.101,23.4414 8.2735,8.2734 23.4414,8.2734 z"
     style="white-space:pre;fill:#ececec;fill-opacity:1"
     id="path3579" /><path
     d="m 5234.5098,8631.8896 q 0,97.5577 -68.6006,97.5577 -21.2007,0 -35.3345,-7.584 -13.9614,-7.7564 -22.7519,-24.8203 h -0.3448 q 0,5.3432 -0.6894,16.3745 -0.6895,10.8589 -1.0342,12.5825 h -29.9912 q 1.0342,-9.3076 1.0342,-38.437 v -217.3501 h 31.0254 v 72.9097 q 0,11.2036 -0.6895,26.3715 h 0.6895 q 8.6181,-17.9257 22.7519,-25.6821 14.3062,-7.7563 35.3345,-7.7563 35.3345,0 51.8813,23.7861 16.7193,23.7861 16.7193,72.0478 z m -32.5767,1.0342 q 0,-39.1264 -10.3418,-56.018 -10.3418,-16.8916 -33.6108,-16.8916 -26.1993,0 -38.2647,17.9257 -11.893,17.9258 -11.893,56.8799 0,36.7134 11.7207,54.2945 11.7207,17.4086 38.0922,17.4086 23.4414,0 33.7832,-17.2363 10.5142,-17.4087 10.5142,-56.3628 z"
     style="white-space:pre;fill:#ececec;fill-opacity:1"
     id="path3581" /><path
     d="m 5273.1191,8726 v -255.7871 h 31.0254 V 8726 Z"
     style="white-space:pre;fill:#ececec;fill-opacity:1"
     id="path3583" /><path
     d="m 5375.3306,8639.3013 q 0,32.0595 13.2719,49.4682 13.272,17.4087 38.7818,17.4087 20.1665,0 32.2319,-8.1011 12.2378,-8.101 16.5469,-20.5112 l 27.2334,7.7564 q -16.7193,44.125 -76.0122,44.125 -41.3672,0 -63.085,-24.648 -21.5454,-24.6479 -21.5454,-73.2544 0,-46.1933 21.5454,-70.8413 21.7178,-24.6479 61.8784,-24.6479 82.2173,0 82.2173,99.1089 v 4.1367 z m 101.0048,-23.7862 q -2.5854,-29.4741 -14.9956,-42.9184 -12.4101,-13.6167 -35.6792,-13.6167 -22.5795,0 -35.8515,15.1679 -13.0996,14.9957 -14.1338,41.3672 z"
     style="white-space:pre;fill:#ececec;fill-opacity:1"
     id="path3585" /><path
     d="m 5785.8999,8674.4634 q 0,26.3716 -19.9941,40.6777 -19.8218,14.3062 -55.6734,14.3062 -34.8174,0 -53.7773,-11.376 -18.7876,-11.5484 -24.4756,-35.8516 l 27.4058,-5.3432 q 3.9643,14.9956 16.3745,22.0625 12.4101,6.8945 34.4726,6.8945 23.6138,0 34.4727,-7.2393 11.0312,-7.2392 11.0312,-21.7177 0,-11.0313 -7.584,-17.9258 -7.5839,-6.8945 -24.4755,-11.376 l -22.2349,-5.8603 q -26.7163,-6.8946 -38.0923,-13.4444 -11.2036,-6.7221 -17.581,-16.2021 -6.3775,-9.48 -6.3775,-23.2691 0,-25.5097 18.0982,-38.7817 18.2705,-13.4443 53.0878,-13.4443 30.8531,0 48.9512,10.8588 18.2705,10.8589 23.0967,34.8174 l -27.9229,3.4473 q -2.5854,-12.4102 -13.9614,-18.96 -11.2036,-6.7221 -30.1636,-6.7221 -21.0283,0 -31.0253,6.3774 -9.9971,6.3774 -9.9971,19.3047 0,7.9287 4.1367,13.0996 4.1367,5.1709 12.2378,8.7905 8.1011,3.6197 34.1279,9.9971 24.648,6.2051 35.5069,11.5483 10.8589,5.1709 17.0639,11.5484 6.3775,6.3774 9.8247,14.8232 3.4473,8.2735 3.4473,18.96 z"
     style="white-space:pre;fill:#ececec;fill-opacity:1"
     id="path3587" /><path
     d="m 5980.1533,8632.5791 q 0,48.9512 -21.5454,72.9097 -21.5454,23.9585 -62.5679,23.9585 -40.8501,0 -61.706,-24.8203 -20.856,-24.9927 -20.856,-72.0479 0,-96.5234 83.5962,-96.5234 42.7461,0 62.9126,23.6137 20.1665,23.4414 20.1665,72.9097 z m -32.5766,0 q 0,-38.6094 -11.5484,-56.0181 -11.376,-17.581 -38.437,-17.581 -27.2334,0 -39.4712,17.9258 -12.0654,17.7534 -12.0654,55.6733 0,36.8857 11.8931,55.501 12.0654,18.4428 37.7475,18.4428 27.9229,0 39.8159,-17.9257 12.0655,-17.9258 12.0655,-56.0181 z"
     style="white-space:pre;fill:#ececec;fill-opacity:1"
     id="path3589" /><path
     d="m 6019.4521,8726 v -143.0615 q 0,-19.6494 -1.0341,-43.4356 h 29.3017 q 1.3789,31.7149 1.3789,38.0923 h 0.6895 q 7.4116,-23.9585 17.064,-32.749 9.6523,-8.7905 27.2333,-8.7905 6.2051,0 12.5826,1.7236 v 28.4399 q -6.2051,-1.7236 -16.5469,-1.7236 -19.3047,0 -29.4741,16.7192 -10.1695,16.5469 -10.1695,47.5723 V 8726 Z"
     style="white-space:pre;fill:#ececec;fill-opacity:1"
     id="path3591" /><path
     d="m 6208.0176,8724.6211 q -15.3404,4.1367 -31.3701,4.1367 -37.2305,0 -37.2305,-42.229 v -124.4463 h -21.5454 v -22.5796 h 22.7519 l 9.1353,-41.7119 h 20.6836 v 41.7119 h 34.4726 v 22.5796 h -34.4726 v 117.7241 q 0,13.4444 4.3091,18.96 4.4814,5.3433 15.3403,5.3433 6.2051,0 17.9258,-2.4131 z"
     style="white-space:pre;fill:#ececec;fill-opacity:1"
     id="path3593" /><path
     d="m 6306.2646,8634.9922 q 0,49.813 -15.685,89.4565 -15.5127,39.6436 -47.917,74.6333 h -29.9912 q 32.4043,-36.1963 47.3999,-76.1845 14.9956,-40.1607 14.9956,-88.25 0,-48.0894 -15.168,-88.25 -14.9956,-40.1607 -47.2275,-76.1846 h 29.9912 q 32.5767,35.1621 48.0894,74.978 15.5126,39.6436 15.5126,89.1118 z"
     style="white-space:pre;fill:#ececec;fill-opacity:1"
     id="path3595" /></g>
 <g
   aria-label="Bevy 0.8 (radix sort)"
   id="text238"
   class="SVGTextShape"
   style="fill:#ececec;fill-opacity:1"><path
     d="m 10663.833,8657.5718 q 0,32.4043 -23.614,50.5024 -23.614,17.9258 -65.67,17.9258 h -98.592 v -242.8599 h 88.25 q 85.492,0 85.492,58.9483 0,21.5454 -12.065,36.1963 -12.066,14.6508 -34.128,19.6494 28.957,3.4472 44.642,19.477 15.685,15.8575 15.685,40.1607 z m -47.228,-111.5191 q 0,-19.6494 -13.444,-28.0952 -13.444,-8.4458 -38.954,-8.4458 h -55.329 v 76.874 h 55.329 q 26.372,0 39.299,-9.8247 13.099,-9.997 13.099,-30.5083 z m 13.962,108.9336 q 0,-42.9184 -60.327,-42.9184 h -61.362 v 87.5605 h 63.947 q 30.164,0 43.953,-11.2036 13.789,-11.2036 13.789,-33.4385 z"
     style="white-space:pre;fill:#ececec;fill-opacity:1"
     id="path3598" /><path
     d="m 10730.021,8639.3013 q 0,32.0595 13.271,49.4682 13.272,17.4087 38.782,17.4087 20.167,0 32.232,-8.1011 12.238,-8.101 16.547,-20.5112 l 27.233,7.7564 q -16.719,44.125 -76.012,44.125 -41.367,0 -63.085,-24.648 -21.545,-24.6479 -21.545,-73.2544 0,-46.1933 21.545,-70.8413 21.718,-24.6479 61.879,-24.6479 82.217,0 82.217,99.1089 v 4.1367 z m 101.004,-23.7862 q -2.585,-29.4741 -14.995,-42.9184 -12.41,-13.6167 -35.679,-13.6167 -22.58,0 -35.852,15.1679 -13.1,14.9957 -14.134,41.3672 z"
     style="white-space:pre;fill:#ececec;fill-opacity:1"
     id="path3600" /><path
     d="m 10984.429,8726 h -36.714 l -67.738,-186.4971 h 33.093 l 41.023,121.3438 q 2.24,6.8945 11.893,40.8501 l 6.033,-20.1665 6.722,-20.3389 42.401,-121.6885 h 32.921 z"
     style="white-space:pre;fill:#ececec;fill-opacity:1"
     id="path3602" /><path
     d="m 11088.191,8799.2544 q -12.754,0 -21.373,-1.896 v -23.269 q 6.55,1.0341 14.479,1.0341 28.957,0 45.849,-42.5737 l 2.93,-7.4116 -73.944,-185.6353 h 33.094 l 39.298,103.0733 q 0.862,2.4131 2.069,5.8603 1.206,3.2749 7.756,22.4073 6.55,19.1323 7.067,21.373 l 12.065,-33.9556 40.851,-118.7583 h 32.749 L 11159.377,8726 q -11.548,29.8188 -21.545,44.2974 -9.997,14.6508 -22.235,21.7177 -12.065,7.2393 -27.406,7.2393 z"
     style="white-space:pre;fill:#ececec;fill-opacity:1"
     id="path3604" /><path
     d="m 11512.377,8604.4839 q 0,60.8442 -21.545,92.9038 -21.373,32.0596 -63.257,32.0596 -41.885,0 -62.913,-31.8872 -21.028,-31.8872 -21.028,-93.0762 0,-62.5679 20.339,-93.7656 20.511,-31.1978 64.636,-31.1978 42.918,0 63.257,31.5425 20.511,31.5425 20.511,93.4209 z m -31.542,0 q 0,-52.5708 -12.238,-76.1846 -12.065,-23.6138 -39.988,-23.6138 -28.612,0 -41.195,23.2691 -12.41,23.269 -12.41,76.5293 0,51.709 12.582,75.6675 12.755,23.9585 40.333,23.9585 27.406,0 40.161,-24.4756 12.755,-24.4756 12.755,-75.1504 z"
     style="white-space:pre;fill:#ececec;fill-opacity:1"
     id="path3606" /><path
     d="m 11558.398,8726 v -37.7476 h 33.611 V 8726 Z"
     style="white-space:pre;fill:#ececec;fill-opacity:1"
     id="path3608" /><path
     d="m 11805.223,8658.2612 q 0,33.6109 -21.373,52.3985 -21.373,18.7876 -61.362,18.7876 -38.954,0 -61.016,-18.4429 -21.89,-18.4429 -21.89,-52.3984 0,-23.7862 13.616,-39.9883 13.617,-16.2022 34.818,-19.6494 v -0.6895 q -19.822,-4.6538 -31.37,-20.1665 -11.376,-15.5127 -11.376,-36.3686 0,-27.7505 20.683,-44.9869 20.856,-17.2363 55.846,-17.2363 35.851,0 56.535,16.8916 20.856,16.8916 20.856,45.6763 0,20.8559 -11.548,36.3686 -11.549,15.5127 -31.543,19.4771 v 0.6894 q 23.269,3.792 36.196,19.8218 12.928,15.8574 12.928,39.8159 z m -38.265,-114.4492 q 0,-41.1948 -45.159,-41.1948 -21.89,0 -33.439,10.3418 -11.376,10.3418 -11.376,30.853 0,20.856 11.721,31.8872 11.893,10.8589 33.439,10.8589 21.89,0 33.266,-9.9971 11.548,-10.1694 11.548,-32.749 z m 6.033,111.5191 q 0,-22.5796 -13.445,-33.9556 -13.444,-11.5484 -37.747,-11.5484 -23.614,0 -36.886,12.4102 -13.272,12.2378 -13.272,33.7832 0,50.1577 51.192,50.1577 25.337,0 37.748,-12.0654 12.41,-12.2378 12.41,-38.7817 z"
     style="white-space:pre;fill:#ececec;fill-opacity:1"
     id="path3610" /><path
     d="m 11940.528,8634.3027 q 0,-49.813 15.513,-89.4565 15.685,-39.6436 48.089,-74.6333 h 29.991 q -32.232,35.8516 -47.4,76.1846 -14.995,40.333 -14.995,88.25 0,47.7446 14.823,87.9052 14.995,40.1607 47.572,76.5293 h -29.991 q -32.577,-35.1621 -48.089,-74.8056 -15.513,-39.816 -15.513,-89.2842 z"
     style="white-space:pre;fill:#ececec;fill-opacity:1"
     id="path3612" /><path
     d="m 12060.665,8726 v -143.0615 q 0,-19.6494 -1.034,-43.4356 h 29.302 q 1.379,31.7149 1.379,38.0923 h 0.689 q 7.412,-23.9585 17.064,-32.749 9.652,-8.7905 27.233,-8.7905 6.205,0 12.583,1.7236 v 28.4399 q -6.205,-1.7236 -16.547,-1.7236 -19.305,0 -29.474,16.7192 -10.17,16.5469 -10.17,47.5723 V 8726 Z"
     style="white-space:pre;fill:#ececec;fill-opacity:1"
     id="path3614" /><path
     d="m 12225.1,8729.4473 q -28.096,0 -42.229,-14.8233 -14.134,-14.8232 -14.134,-40.6777 0,-28.957 18.96,-44.4697 19.132,-15.5127 61.533,-16.5469 l 41.885,-0.6895 v -10.1694 q 0,-22.752 -9.653,-32.5767 -9.652,-9.8247 -30.336,-9.8247 -20.855,0 -30.335,7.0669 -9.48,7.0669 -11.376,22.5796 l -32.405,-2.9302 q 7.929,-50.33 74.806,-50.33 35.162,0 52.915,16.2021 17.754,16.0298 17.754,46.5381 v 80.3213 q 0,13.7891 3.619,20.8559 3.62,6.8946 13.79,6.8946 4.481,0 10.169,-1.2066 v 19.3047 q -11.721,2.7578 -23.959,2.7578 -17.236,0 -25.165,-8.9629 -7.756,-9.1352 -8.79,-28.4399 h -1.034 q -11.893,21.373 -27.751,30.3359 -15.685,8.7906 -38.264,8.7906 z m 7.067,-23.2691 q 17.063,0 30.335,-7.7563 13.272,-7.7564 20.856,-21.2007 7.757,-13.6167 7.757,-27.9229 v -15.3403 l -33.956,0.6895 q -21.89,0.3447 -33.266,4.4814 -11.204,4.1367 -17.236,12.7549 -6.033,8.6182 -6.033,22.5796 0,15.1679 8.101,23.4414 8.274,8.2734 23.442,8.2734 z"
     style="white-space:pre;fill:#ececec;fill-opacity:1"
     id="path3616" /><path
     d="m 12491.573,8696.0088 q -8.618,17.9258 -22.924,25.6821 -14.134,7.7564 -35.162,7.7564 -35.335,0 -52.054,-23.7862 -16.547,-23.7861 -16.547,-72.0478 0,-97.5576 68.601,-97.5576 21.201,0 35.334,7.7563 14.134,7.7564 22.752,24.648 h 0.345 l -0.345,-20.856 v -77.3911 h 31.026 v 217.3501 q 0,29.1294 1.034,38.437 h -29.647 q -0.517,-2.7578 -1.206,-12.7549 -0.517,-9.9971 -0.517,-17.2363 z m -94.11,-63.4297 q 0,39.1265 10.342,56.0181 10.341,16.8916 33.611,16.8916 26.371,0 38.264,-18.2705 11.893,-18.2705 11.893,-56.7076 0,-37.0581 -11.893,-54.2944 -11.893,-17.2363 -37.92,-17.2363 -23.441,0 -33.955,17.4087 -10.342,17.2363 -10.342,56.1904 z"
     style="white-space:pre;fill:#ececec;fill-opacity:1"
     id="path3618" /><path
     d="m 12569.999,8499.8594 v -29.6465 h 31.025 v 29.6465 z m 0,226.1406 v -186.4971 h 31.025 V 8726 Z"
     style="white-space:pre;fill:#ececec;fill-opacity:1"
     id="path3620" /><path
     d="m 12762.873,8726 -50.158,-76.5293 -50.502,76.5293 h -33.439 l 66.36,-95.834 -63.257,-90.6631 h 34.3 l 46.538,72.565 46.194,-72.565 h 34.645 l -63.258,90.3184 67.222,96.1787 z"
     style="white-space:pre;fill:#ececec;fill-opacity:1"
     id="path3622" /><path
     d="m 13063.13,8674.4634 q 0,26.3716 -19.994,40.6777 -19.822,14.3062 -55.674,14.3062 -34.817,0 -53.777,-11.376 -18.788,-11.5484 -24.476,-35.8516 l 27.406,-5.3432 q 3.965,14.9956 16.375,22.0625 12.41,6.8945 34.472,6.8945 23.614,0 34.473,-7.2393 11.031,-7.2392 11.031,-21.7177 0,-11.0313 -7.584,-17.9258 -7.584,-6.8945 -24.475,-11.376 l -22.235,-5.8603 q -26.716,-6.8946 -38.092,-13.4444 -11.204,-6.7221 -17.581,-16.2021 -6.378,-9.48 -6.378,-23.2691 0,-25.5097 18.098,-38.7817 18.271,-13.4443 53.088,-13.4443 30.853,0 48.951,10.8588 18.271,10.8589 23.097,34.8174 l -27.923,3.4473 q -2.585,-12.4102 -13.961,-18.96 -11.204,-6.7221 -30.164,-6.7221 -21.028,0 -31.025,6.3774 -9.997,6.3774 -9.997,19.3047 0,7.9287 4.136,13.0996 4.137,5.1709 12.238,8.7905 8.101,3.6197 34.128,9.9971 24.648,6.2051 35.507,11.5483 10.859,5.1709 17.064,11.5484 6.377,6.3774 9.825,14.8232 3.447,8.2735 3.447,18.96 z"
     style="white-space:pre;fill:#ececec;fill-opacity:1"
     id="path3624" /><path
     d="m 13257.383,8632.5791 q 0,48.9512 -21.545,72.9097 -21.546,23.9585 -62.568,23.9585 -40.85,0 -61.706,-24.8203 -20.856,-24.9927 -20.856,-72.0479 0,-96.5234 83.596,-96.5234 42.746,0 62.913,23.6137 20.166,23.4414 20.166,72.9097 z m -32.576,0 q 0,-38.6094 -11.549,-56.0181 -11.376,-17.581 -38.437,-17.581 -27.233,0 -39.471,17.9258 -12.065,17.7534 -12.065,55.6733 0,36.8857 11.893,55.501 12.065,18.4428 37.747,18.4428 27.923,0 39.816,-17.9257 12.066,-17.9258 12.066,-56.0181 z"
     style="white-space:pre;fill:#ececec;fill-opacity:1"
     id="path3626" /><path
     d="m 13296.682,8726 v -143.0615 q 0,-19.6494 -1.034,-43.4356 h 29.302 q 1.379,31.7149 1.379,38.0923 h 0.689 q 7.412,-23.9585 17.064,-32.749 9.652,-8.7905 27.233,-8.7905 6.206,0 12.583,1.7236 v 28.4399 q -6.205,-1.7236 -16.547,-1.7236 -19.305,0 -29.474,16.7192 -10.169,16.5469 -10.169,47.5723 V 8726 Z"
     style="white-space:pre;fill:#ececec;fill-opacity:1"
     id="path3628" /><path
     d="m 13485.248,8724.6211 q -15.341,4.1367 -31.371,4.1367 -37.23,0 -37.23,-42.229 v -124.4463 h -21.545 v -22.5796 h 22.752 l 9.135,-41.7119 h 20.683 v 41.7119 h 34.473 v 22.5796 h -34.473 v 117.7241 q 0,13.4444 4.309,18.96 4.482,5.3433 15.341,5.3433 6.205,0 17.926,-2.4131 z"
     style="white-space:pre;fill:#ececec;fill-opacity:1"
     id="path3630" /><path
     d="m 13583.495,8634.9922 q 0,49.813 -15.685,89.4565 -15.513,39.6436 -47.917,74.6333 h -29.992 q 32.405,-36.1963 47.4,-76.1845 14.996,-40.1607 14.996,-88.25 0,-48.0894 -15.168,-88.25 -14.996,-40.1607 -47.228,-76.1846 h 29.992 q 32.576,35.1621 48.089,74.978 15.513,39.6436 15.513,89.1118 z"
     style="white-space:pre;fill:#ececec;fill-opacity:1"
     id="path3632" /></g>
 <g
   aria-label="0"
   id="text246"
   class="SVGTextShape"
   style="stroke:none;stroke-opacity:1;fill:#ececec;fill-opacity:1"><path
     d="m 781.53271,8157.4839 q 0,60.8442 -21.54541,92.9038 -21.37304,32.0596 -63.25732,32.0596 -41.88428,0 -62.9126,-31.8872 -21.02832,-31.8872 -21.02832,-93.0762 0,-62.5679 20.33887,-93.7656 20.51123,-31.1978 64.63623,-31.1978 42.91846,0 63.25732,31.5425 20.51123,31.5425 20.51123,93.4209 z m -31.54248,0 q 0,-52.5708 -12.23779,-76.1846 -12.06543,-23.6138 -39.98828,-23.6138 -28.6123,0 -41.19482,23.2691 -12.41016,23.269 -12.41016,76.5293 0,51.709 12.58252,75.6675 12.75488,23.9585 40.33301,23.9585 27.40576,0 40.16064,-24.4756 12.75488,-24.4756 12.75488,-75.1504 z"
     style="white-space:pre;stroke:none;stroke-opacity:1;fill:#ececec;fill-opacity:1"
     id="path3635" /></g>
 <g
   aria-label="0.1"
   id="text254"
   class="SVGTextShape"
   style="stroke:none;stroke-opacity:1;fill:#ececec;fill-opacity:1"><path
     d="m 490.53271,7377.4839 q 0,60.8442 -21.54541,92.9038 -21.37304,32.0596 -63.25732,32.0596 -41.88428,0 -62.9126,-31.8872 -21.02832,-31.8872 -21.02832,-93.0762 0,-62.5679 20.33887,-93.7656 20.51123,-31.1978 64.63623,-31.1978 42.91846,0 63.25732,31.5425 20.51123,31.5425 20.51123,93.4209 z m -31.54248,0 q 0,-52.5708 -12.23779,-76.1846 -12.06543,-23.6138 -39.98828,-23.6138 -28.6123,0 -41.19482,23.2691 -12.41016,23.269 -12.41016,76.5293 0,51.709 12.58252,75.6675 12.75488,23.9585 40.33301,23.9585 27.40576,0 40.16064,-24.4756 12.75488,-24.4756 12.75488,-75.1504 z"
     style="white-space:pre;stroke:none;stroke-opacity:1;fill:#ececec;fill-opacity:1"
     id="path3638" /><path
     d="m 536.55371,7499 v -37.7476 h 33.61084 V 7499 Z"
     style="white-space:pre;stroke:none;stroke-opacity:1;fill:#ececec;fill-opacity:1"
     id="path3640" /><path
     d="m 629.28516,7499 v -26.3716 h 61.87841 v -186.8418 l -54.81152,39.1265 v -29.3018 l 57.39697,-39.4712 h 28.61231 v 216.4883 h 59.1206 V 7499 Z"
     style="white-space:pre;stroke:none;stroke-opacity:1;fill:#ececec;fill-opacity:1"
     id="path3642" /></g>
 <g
   aria-label="0.2"
   id="text262"
   class="SVGTextShape"
   style="stroke:none;stroke-opacity:1;fill:#ececec;fill-opacity:1"><path
     d="m 490.53271,6598.4839 q 0,60.8442 -21.54541,92.9038 -21.37304,32.0596 -63.25732,32.0596 -41.88428,0 -62.9126,-31.8872 -21.02832,-31.8872 -21.02832,-93.0762 0,-62.5679 20.33887,-93.7656 20.51123,-31.1978 64.63623,-31.1978 42.91846,0 63.25732,31.5425 20.51123,31.5425 20.51123,93.4209 z m -31.54248,0 q 0,-52.5708 -12.23779,-76.1846 -12.06543,-23.6138 -39.98828,-23.6138 -28.6123,0 -41.19482,23.2691 -12.41016,23.269 -12.41016,76.5293 0,51.709 12.58252,75.6675 12.75488,23.9585 40.33301,23.9585 27.40576,0 40.16064,-24.4756 12.75488,-24.4756 12.75488,-75.1504 z"
     style="white-space:pre;stroke:none;stroke-opacity:1;fill:#ececec;fill-opacity:1"
     id="path3645" /><path
     d="m 536.55371,6720 v -37.7476 h 33.61084 V 6720 Z"
     style="white-space:pre;stroke:none;stroke-opacity:1;fill:#ececec;fill-opacity:1"
     id="path3647" /><path
     d="m 620.1499,6720 v -21.8901 q 8.79053,-20.1665 21.37305,-35.5069 12.75488,-15.5127 26.71631,-27.9228 13.96142,-12.5825 27.57812,-23.2691 13.78907,-10.6865 24.82032,-21.373 11.03125,-10.6865 17.75341,-22.4072 6.89453,-11.7207 6.89453,-26.544 0,-19.9941 -11.7207,-31.0254 -11.7207,-11.0312 -32.57666,-11.0312 -19.82178,0 -32.74902,10.8589 -12.75489,10.6865 -14.99561,30.1635 l -31.71484,-2.9301 q 3.44726,-29.1294 24.64795,-46.3658 21.37304,-17.2363 54.81152,-17.2363 36.71338,0 56.36279,17.4087 19.82178,17.2363 19.82178,49.1235 0,14.1338 -6.5498,28.0952 -6.37744,13.9615 -19.13233,27.9229 -12.75488,13.9614 -48.77881,43.2632 -19.82177,16.2021 -31.54248,29.3017 -11.7207,12.9273 -16.8916,24.9927 H 780.96484 V 6720 Z"
     style="white-space:pre;stroke:none;stroke-opacity:1;fill:#ececec;fill-opacity:1"
     id="path3649" /></g>
 <g
   aria-label="0.3"
   id="text270"
   class="SVGTextShape"
   style="stroke:none;stroke-opacity:1;fill:#ececec;fill-opacity:1"><path
     d="m 490.53271,5818.4839 q 0,60.8442 -21.54541,92.9038 -21.37304,32.0596 -63.25732,32.0596 -41.88428,0 -62.9126,-31.8872 -21.02832,-31.8872 -21.02832,-93.0762 0,-62.5679 20.33887,-93.7656 20.51123,-31.1978 64.63623,-31.1978 42.91846,0 63.25732,31.5425 20.51123,31.5425 20.51123,93.4209 z m -31.54248,0 q 0,-52.5708 -12.23779,-76.1846 -12.06543,-23.6138 -39.98828,-23.6138 -28.6123,0 -41.19482,23.2691 -12.41016,23.269 -12.41016,76.5293 0,51.709 12.58252,75.6675 12.75488,23.9585 40.33301,23.9585 27.40576,0 40.16064,-24.4756 12.75488,-24.4756 12.75488,-75.1504 z"
     style="white-space:pre;stroke:none;stroke-opacity:1;fill:#ececec;fill-opacity:1"
     id="path3652" /><path
     d="m 536.55371,5940 v -37.7476 h 33.61084 V 5940 Z"
     style="white-space:pre;stroke:none;stroke-opacity:1;fill:#ececec;fill-opacity:1"
     id="path3654" /><path
     d="m 783.20557,5872.9507 q 0,33.6108 -21.37305,52.0537 -21.37305,18.4429 -61.0166,18.4429 -36.88574,0 -58.94824,-16.5469 -21.89014,-16.7192 -26.02686,-49.2959 l 32.05957,-2.9302 q 6.20508,43.0908 52.91553,43.0908 23.4414,0 36.71338,-11.5483 13.44433,-11.5483 13.44433,-34.3003 0,-19.8218 -15.34033,-30.853 -15.16797,-11.2036 -43.95264,-11.2036 h -17.58105 v -26.8887 h 16.8916 q 25.50977,0 39.47119,-11.0313 14.13379,-11.2036 14.13379,-30.853 0,-19.477 -11.54834,-30.6807 -11.37598,-11.3759 -33.95556,-11.3759 -20.51124,0 -33.26612,10.5141 -12.58252,10.5142 -14.65088,29.6465 l -31.19775,-2.4131 q 3.44726,-29.8188 24.64795,-46.5381 21.37305,-16.7192 54.81152,-16.7192 36.54102,0 56.70752,17.064 20.33887,16.8916 20.33887,47.2275 0,23.2691 -13.09961,37.9199 -12.92725,14.4785 -37.74756,19.6494 v 0.6895 q 27.2334,2.9302 42.40137,18.2705 15.16797,15.3403 15.16797,38.6094 z"
     style="white-space:pre;stroke:none;stroke-opacity:1;fill:#ececec;fill-opacity:1"
     id="path3656" /></g>
 <g
   aria-label="0.4"
   id="text278"
   class="SVGTextShape"
   style="stroke:none;stroke-opacity:1;fill:#ececec;fill-opacity:1"><path
     d="m 490.53271,5039.4839 q 0,60.8442 -21.54541,92.9038 -21.37304,32.0596 -63.25732,32.0596 -41.88428,0 -62.9126,-31.8872 -21.02832,-31.8872 -21.02832,-93.0762 0,-62.5679 20.33887,-93.7656 20.51123,-31.1978 64.63623,-31.1978 42.91846,0 63.25732,31.5425 20.51123,31.5425 20.51123,93.4209 z m -31.54248,0 q 0,-52.5708 -12.23779,-76.1846 -12.06543,-23.6138 -39.98828,-23.6138 -28.6123,0 -41.19482,23.2691 -12.41016,23.269 -12.41016,76.5293 0,51.709 12.58252,75.6675 12.75488,23.9585 40.33301,23.9585 27.40576,0 40.16064,-24.4756 12.75488,-24.4756 12.75488,-75.1504 z"
     style="white-space:pre;stroke:none;stroke-opacity:1;fill:#ececec;fill-opacity:1"
     id="path3659" /><path
     d="m 536.55371,5161 v -37.7476 h 33.61084 V 5161 Z"
     style="white-space:pre;stroke:none;stroke-opacity:1;fill:#ececec;fill-opacity:1"
     id="path3661" /><path
     d="M 754.24854,5106.0161 V 5161 h -29.30176 v -54.9839 H 610.49756 v -24.1308 l 111.17431,-163.7452 h 32.57667 v 163.4004 h 34.12792 v 24.4756 z m -29.30176,-152.8862 q -0.34473,1.0342 -4.82617,9.1352 -4.48145,8.1011 -6.72217,11.376 l -62.22315,91.6973 -9.30761,12.7549 -2.75782,3.4472 h 85.83692 z"
     style="white-space:pre;stroke:none;stroke-opacity:1;fill:#ececec;fill-opacity:1"
     id="path3663" /></g>
 <g
   aria-label="0.5"
   id="text286"
   class="SVGTextShape"
   style="stroke:none;stroke-opacity:1;fill:#ececec;fill-opacity:1"><path
     d="m 490.53271,4260.4839 q 0,60.8442 -21.54541,92.9038 -21.37304,32.0596 -63.25732,32.0596 -41.88428,0 -62.9126,-31.8872 -21.02832,-31.8872 -21.02832,-93.0762 0,-62.5679 20.33887,-93.7656 20.51123,-31.1978 64.63623,-31.1978 42.91846,0 63.25732,31.5425 20.51123,31.5425 20.51123,93.4209 z m -31.54248,0 q 0,-52.5708 -12.23779,-76.1846 -12.06543,-23.6138 -39.98828,-23.6138 -28.6123,0 -41.19482,23.2691 -12.41016,23.269 -12.41016,76.5293 0,51.709 12.58252,75.6675 12.75488,23.9585 40.33301,23.9585 27.40576,0 40.16064,-24.4756 12.75488,-24.4756 12.75488,-75.1504 z"
     style="white-space:pre;stroke:none;stroke-opacity:1;fill:#ececec;fill-opacity:1"
     id="path3666" /><path
     d="m 536.55371,4382 v -37.7476 h 33.61084 V 4382 Z"
     style="white-space:pre;stroke:none;stroke-opacity:1;fill:#ececec;fill-opacity:1"
     id="path3668" /><path
     d="m 783.89502,4302.8853 q 0,38.437 -22.92432,60.4995 -22.75195,22.0625 -63.25732,22.0625 -33.95557,0 -54.81152,-14.8233 -20.85596,-14.8232 -26.37159,-42.9184 l 31.37012,-3.6197 q 9.82471,36.024 50.50244,36.024 24.99268,0 39.12647,-14.9956 14.13379,-15.168 14.13379,-41.5396 0,-22.9243 -14.30616,-37.0581 -14.13379,-14.1338 -38.26464,-14.1338 -12.58252,0 -23.44141,3.9644 -10.85889,3.9643 -21.71777,13.4443 h -30.33594 l 8.10107,-130.6514 h 138.06299 v 26.3716 H 659.96582 l -4.65381,77.0464 q 20.16651,-15.5127 50.15772,-15.5127 35.85156,0 57.05224,21.0283 21.37305,21.0284 21.37305,54.8116 z"
     style="white-space:pre;stroke:none;stroke-opacity:1;fill:#ececec;fill-opacity:1"
     id="path3670" /></g>
 <g
   aria-label="0.6"
   id="text294"
   class="SVGTextShape"
   style="stroke:none;stroke-opacity:1;fill:#ececec;fill-opacity:1"><path
     d="m 490.53271,3480.4839 q 0,60.8442 -21.54541,92.9038 -21.37304,32.0596 -63.25732,32.0596 -41.88428,0 -62.9126,-31.8872 -21.02832,-31.8872 -21.02832,-93.0762 0,-62.5679 20.33887,-93.7656 20.51123,-31.1978 64.63623,-31.1978 42.91846,0 63.25732,31.5425 20.51123,31.5425 20.51123,93.4209 z m -31.54248,0 q 0,-52.5708 -12.23779,-76.1846 -12.06543,-23.6138 -39.98828,-23.6138 -28.6123,0 -41.19482,23.2691 -12.41016,23.269 -12.41016,76.5293 0,51.709 12.58252,75.6675 12.75488,23.9585 40.33301,23.9585 27.40576,0 40.16064,-24.4756 12.75488,-24.4756 12.75488,-75.1504 z"
     style="white-space:pre;stroke:none;stroke-opacity:1;fill:#ececec;fill-opacity:1"
     id="path3673" /><path
     d="m 536.55371,3602 v -37.7476 h 33.61084 V 3602 Z"
     style="white-space:pre;stroke:none;stroke-opacity:1;fill:#ececec;fill-opacity:1"
     id="path3675" /><path
     d="m 783.20557,3522.5405 q 0,38.437 -20.85596,60.6719 -20.85596,22.2349 -57.56934,22.2349 -41.02246,0 -62.74023,-30.5083 -21.71777,-30.5083 -21.71777,-88.7671 0,-63.085 22.57959,-96.8682 22.57959,-33.7832 64.2915,-33.7832 54.98389,0 69.29004,49.4683 l -29.64649,5.3432 q -9.13525,-29.6465 -39.98828,-29.6465 -26.54394,0 -41.19482,24.8204 -14.47852,24.6479 -14.47852,71.5307 8.4458,-15.685 23.78614,-23.7861 15.34033,-8.2734 35.16211,-8.2734 33.61083,0 53.26025,21.0283 19.82178,21.0283 19.82178,56.5351 z m -31.54248,1.3789 q 0,-26.3715 -12.92725,-40.6777 -12.92725,-14.3062 -36.02393,-14.3062 -21.71777,0 -35.16211,12.7549 -13.27197,12.5825 -13.27197,34.8174 0,28.0952 13.78906,46.021 13.96143,17.9258 35.6792,17.9258 22.40723,0 35.16211,-14.9956 12.75489,-15.168 12.75489,-41.5396 z"
     style="white-space:pre;stroke:none;stroke-opacity:1;fill:#ececec;fill-opacity:1"
     id="path3677" /></g>
 <g
   aria-label="0.7"
   id="text302"
   class="SVGTextShape"
   style="stroke:none;stroke-opacity:1;fill:#ececec;fill-opacity:1"><path
     d="m 490.53271,2701.4839 q 0,60.8442 -21.54541,92.9038 -21.37304,32.0596 -63.25732,32.0596 -41.88428,0 -62.9126,-31.8872 -21.02832,-31.8872 -21.02832,-93.0762 0,-62.5679 20.33887,-93.7656 20.51123,-31.1978 64.63623,-31.1978 42.91846,0 63.25732,31.5425 20.51123,31.5425 20.51123,93.4209 z m -31.54248,0 q 0,-52.5708 -12.23779,-76.1846 -12.06543,-23.6138 -39.98828,-23.6138 -28.6123,0 -41.19482,23.2691 -12.41016,23.269 -12.41016,76.5293 0,51.709 12.58252,75.6675 12.75488,23.9585 40.33301,23.9585 27.40576,0 40.16064,-24.4756 12.75488,-24.4756 12.75488,-75.1504 z"
     style="white-space:pre;stroke:none;stroke-opacity:1;fill:#ececec;fill-opacity:1"
     id="path3680" /><path
     d="m 536.55371,2823 v -37.7476 h 33.61084 V 2823 Z"
     style="white-space:pre;stroke:none;stroke-opacity:1;fill:#ececec;fill-opacity:1"
     id="path3682" /><path
     d="m 780.96484,2605.3052 q -37.23047,56.8799 -52.5708,89.1118 -15.34033,32.2319 -23.09668,63.602 -7.58398,31.3702 -7.58398,64.981 h -32.4043 q 0,-46.5381 19.64942,-97.9023 19.82177,-51.5367 66.01513,-118.586 h -130.479 v -26.3716 h 160.47021 z"
     style="white-space:pre;stroke:none;stroke-opacity:1;fill:#ececec;fill-opacity:1"
     id="path3684" /></g>
 <g
   aria-label="0.8"
   id="text310"
   class="SVGTextShape"
   style="stroke:none;stroke-opacity:1;fill:#ececec;fill-opacity:1"><path
     d="m 490.53271,1921.4839 q 0,60.8442 -21.54541,92.9038 -21.37304,32.0596 -63.25732,32.0596 -41.88428,0 -62.9126,-31.8872 -21.02832,-31.8872 -21.02832,-93.0762 0,-62.5679 20.33887,-93.7656 20.51123,-31.1978 64.63623,-31.1978 42.91846,0 63.25732,31.5425 20.51123,31.5425 20.51123,93.4209 z m -31.54248,0 q 0,-52.5708 -12.23779,-76.1846 -12.06543,-23.6138 -39.98828,-23.6138 -28.6123,0 -41.19482,23.2691 -12.41016,23.269 -12.41016,76.5293 0,51.709 12.58252,75.6675 12.75488,23.9585 40.33301,23.9585 27.40576,0 40.16064,-24.4756 12.75488,-24.4756 12.75488,-75.1504 z"
     style="white-space:pre;stroke:none;stroke-opacity:1;fill:#ececec;fill-opacity:1"
     id="path3687" /><path
     d="m 536.55371,2043 v -37.7476 h 33.61084 V 2043 Z"
     style="white-space:pre;stroke:none;stroke-opacity:1;fill:#ececec;fill-opacity:1"
     id="path3689" /><path
     d="m 783.37793,1975.2612 q 0,33.6109 -21.37305,52.3985 -21.37304,18.7876 -61.36133,18.7876 -38.9541,0 -61.0166,-18.4429 -21.89013,-18.4429 -21.89013,-52.3984 0,-23.7862 13.6167,-39.9883 13.61669,-16.2022 34.81738,-19.6494 v -0.6895 q -19.82178,-4.6538 -31.37012,-20.1665 -11.37598,-15.5127 -11.37598,-36.3686 0,-27.7505 20.6836,-44.9869 20.85596,-17.2363 55.8457,-17.2363 35.85156,0 56.53516,16.8916 20.85595,16.8916 20.85595,45.6763 0,20.8559 -11.54834,36.3686 -11.54833,15.5127 -31.54248,19.4771 v 0.6894 q 23.26905,3.792 36.19629,19.8218 12.92725,15.8574 12.92725,39.8159 z M 745.11328,1860.812 q 0,-41.1948 -45.15918,-41.1948 -21.89014,0 -33.43848,10.3418 -11.37597,10.3418 -11.37597,30.853 0,20.856 11.7207,31.8872 11.89307,10.8589 33.43848,10.8589 21.89013,0 33.26611,-9.9971 11.54834,-10.1694 11.54834,-32.749 z m 6.03272,111.5191 q 0,-22.5796 -13.44434,-33.9556 -13.44434,-11.5484 -37.74756,-11.5484 -23.61377,0 -36.88574,12.4102 -13.27197,12.2378 -13.27197,33.7832 0,50.1577 51.19189,50.1577 25.3374,0 37.74756,-12.0654 12.41016,-12.2378 12.41016,-38.7817 z"
     style="white-space:pre;stroke:none;stroke-opacity:1;fill:#ececec;fill-opacity:1"
     id="path3691" /></g>
 <g
   aria-label="0.9"
   id="text318"
   class="SVGTextShape"
   style="stroke:none;stroke-opacity:1;fill:#ececec;fill-opacity:1"><path
     d="m 490.53271,1142.4839 q 0,60.8442 -21.54541,92.9038 -21.37304,32.0596 -63.25732,32.0596 -41.88428,0 -62.9126,-31.8872 -21.02832,-31.8872 -21.02832,-93.0762 0,-62.5679 20.33887,-93.7656 20.51123,-31.1978 64.63623,-31.1978 42.91846,0 63.25732,31.5425 20.51123,31.5425 20.51123,93.4209 z m -31.54248,0 q 0,-52.5708 -12.23779,-76.1846 -12.06543,-23.6138 -39.98828,-23.6138 -28.6123,0 -41.19482,23.2691 -12.41016,23.269 -12.41016,76.5293 0,51.709 12.58252,75.6675 12.75488,23.9585 40.33301,23.9585 27.40576,0 40.16064,-24.4756 12.75488,-24.4756 12.75488,-75.1504 z"
     style="white-space:pre;stroke:none;stroke-opacity:1;fill:#ececec;fill-opacity:1"
     id="path3694" /><path
     d="m 536.55371,1264 v -37.7476 h 33.61084 V 1264 Z"
     style="white-space:pre;stroke:none;stroke-opacity:1;fill:#ececec;fill-opacity:1"
     id="path3696" /><path
     d="m 781.99902,1137.6577 q 0,62.5679 -22.92431,96.1787 -22.75196,33.6109 -64.98096,33.6109 -28.43994,0 -45.67627,-11.8931 -17.06396,-12.0654 -24.47559,-38.7817 l 29.64649,-4.6538 q 9.30762,30.3359 41.02246,30.3359 26.71631,0 41.36719,-24.8203 14.65088,-24.8203 15.34033,-70.8413 -6.89453,15.5127 -23.61377,24.9926 -16.71924,9.3077 -36.71338,9.3077 -32.74902,0 -52.39844,-22.4073 -19.64941,-22.4072 -19.64941,-59.4653 0,-38.0923 21.37305,-59.8101 21.37304,-21.8901 59.46533,-21.8901 40.50537,0 61.36133,29.9912 20.85595,29.9912 20.85595,90.146 z m -33.7832,-29.9912 q 0,-29.3018 -13.44434,-47.0552 -13.44433,-17.9258 -36.02392,-17.9258 -22.40723,0 -35.33447,15.3404 -12.92725,15.1679 -12.92725,41.1948 0,26.5439 12.92725,42.0566 12.92724,15.3404 34.98974,15.3404 13.44434,0 24.99268,-6.0327 11.54834,-6.2051 18.09814,-17.4087 6.72217,-11.2036 6.72217,-25.5098 z"
     style="white-space:pre;stroke:none;stroke-opacity:1;fill:#ececec;fill-opacity:1"
     id="path3698" /></g>
 <g
   aria-label="1"
   id="text326"
   class="SVGTextShape"
   style="stroke:none;stroke-opacity:1;fill:#ececec;fill-opacity:1"><path
     d="m 625.88867,485 v -26.37158 h 61.87842 v -186.8418 l -54.81152,39.12647 v -29.30176 l 57.39697,-39.47119 h 28.6123 v 216.48828 h 59.12061 V 485 Z"
     style="white-space:pre;stroke:none;stroke-opacity:1;fill:#ececec;fill-opacity:1"
     id="path3701" /></g>
</svg>
